<?xml version="1.0" standalone="no"?>
<!DOCTYPE svg PUBLIC "-//W3C//DTD SVG 1.1//EN" "http://www.w3.org/Graphics/SVG/1.1/DTD/svg11.dtd" >
<svg>
<metadata>
Created by FontForge 20120731 at Wed Sep 18 04:03:58 2013
 By Stefan Warting
Copyright (c) 2009 by Vedran Erakovic. All rights reserved. Published by Parachute : Worldwide for the Parachute : Font Library.
</metadata>
<defs>
<font id="PFAdamantPro-Regular" horiz-adv-x="390" >
  <font-face 
    font-family="PF Adamant Pro"
    font-weight="400"
    font-stretch="normal"
    units-per-em="1000"
    panose-1="2 0 5 5 0 0 0 2 0 4"
    ascent="770"
    descent="-230"
    x-height="530"
    cap-height="720"
    bbox="-155 -230 1234 942"
    underline-thickness="50"
    underline-position="-50"
    stemh="64"
    stemv="98"
    unicode-range="U+0020-FB04"
  />
<missing-glyph horiz-adv-x="500" 
d="M500 0h-500v750h500v-750zM88 690l161 -262l160 262h-321zM284 371l156 -255v510zM249 314l-156 -254h311zM214 371l-154 252v-504z" />
    <glyph glyph-name="f_i" unicode="fi" horiz-adv-x="652" 
d="M216 577v-47h270c39 0 56 -17 56 -58v-417l75 -20c3 -12 3 -23 0 -35h-239c-3 12 -3 23 0 35l68 20v425h-230v-425l68 -20c3 -12 3 -23 0 -35h-239c-3 12 -3 23 0 35l75 20v425h-75c-3 10 -3 21 0 31l75 19v34c0 142 115 196 234 196c52 0 104 -10 148 -28v-112
c-16 -4 -36 -4 -50 0l-26 78c-20 5 -40 8 -61 8c-76 0 -149 -36 -149 -129z" />
    <glyph glyph-name="f_l" unicode="fl" horiz-adv-x="652" 
d="M216 480v-425l68 -20c3 -12 3 -23 0 -35h-239c-3 12 -3 23 0 35l75 20v425h-75c-3 10 -3 21 0 31l75 19v39c0 135 117 191 236 191c68 0 138 -18 186 -51v-654l75 -20c3 -12 3 -23 0 -35h-239c-3 12 -3 23 0 35l68 20v636c-22 10 -48 14 -74 14c-76 0 -156 -37 -156 -123
v-52h133c4 -18 4 -32 0 -50h-133z" />
    <glyph glyph-name="f_b" unicode="fb" horiz-adv-x="940" 
d="M216 480v-425l75 -20c3 -12 3 -23 0 -35h-246c-3 12 -3 23 0 35l75 20v425h-75c-3 10 -3 21 0 31l75 19v39c0 135 117 191 236 191c68 0 138 -18 186 -51v-245h4c41 47 90 76 155 76c130 0 194 -124 194 -256c0 -152 -81 -295 -241 -295c-39 0 -77 9 -115 28
c-10 -21 -33 -27 -64 -27h-29v701c-22 10 -48 14 -74 14c-76 0 -156 -37 -156 -123v-52h133c4 -18 4 -32 0 -50h-133zM618 51c131 0 179 108 179 224c0 92 -28 196 -130 196c-49 0 -93 -32 -125 -73v-334c24 -8 51 -13 76 -13z" />
    <glyph glyph-name="f_h" unicode="fh" horiz-adv-x="988" 
d="M216 480v-425l68 -20c3 -12 3 -23 0 -35h-239c-3 12 -3 23 0 35l75 20v425h-75c-3 10 -3 21 0 31l75 19v39c0 135 117 191 236 191c68 0 138 -18 186 -51v-244l4 -1c51 54 108 76 164 76c112 0 172 -59 172 -193v-292l75 -20c3 -12 3 -23 0 -35h-246c-3 12 -3 23 0 35
l75 20v248c0 83 -8 165 -101 165c-51 0 -108 -25 -143 -61v-352l75 -20c3 -12 3 -23 0 -35h-239c-3 12 -3 23 0 35l68 20v636c-22 10 -48 14 -74 14c-76 0 -156 -37 -156 -123v-52h133c4 -18 4 -32 0 -50h-133z" />
    <glyph glyph-name="f_j" unicode="fj" horiz-adv-x="648" 
d="M216 577v-47h270c39 0 56 -17 56 -58v-496c0 -111 -74 -168 -180 -182c-9 11 -13 24 -14 37c88 33 98 98 98 185v464h-230v-425l75 -20c3 -12 3 -23 0 -35h-246c-3 12 -3 23 0 35l75 20v425h-75c-3 10 -3 21 0 31l75 19v34c0 142 115 196 234 196c52 0 104 -10 148 -28
v-112c-16 -4 -36 -4 -50 0l-26 78c-19 5 -40 8 -61 8c-76 0 -149 -36 -149 -129z" />
    <glyph glyph-name="f_k" unicode="fk" horiz-adv-x="931" 
d="M927 0h-147l-223 267v7l199 207l-60 14c-3 12 -3 23 0 35h212c3 -12 3 -23 0 -35l-72 -19l-177 -179l210 -250l58 -12c3 -11 3 -23 0 -35zM216 480v-425l68 -20c3 -12 3 -23 0 -35h-239c-3 12 -3 23 0 35l75 20v425h-75c-3 10 -3 21 0 31l75 19v39c0 135 117 191 236 191
c68 0 138 -18 186 -51v-654l75 -20c3 -12 3 -23 0 -35h-239c-3 12 -3 23 0 35l68 20v636c-22 10 -48 14 -74 14c-76 0 -156 -37 -156 -123v-52h133c4 -18 4 -32 0 -50h-133z" />
    <glyph glyph-name="f_t" unicode="ft" horiz-adv-x="687" 
d="M446 174v306h-230v-425l75 -20c3 -12 3 -23 0 -35h-246c-3 12 -3 23 0 35l75 20v425h-75c-3 10 -3 21 0 31l75 19v34c0 136 119 196 240 196c67 0 134 -18 182 -52v-178h133c3 -17 3 -33 0 -50h-133v-264c0 -106 18 -183 137 -171c4 -17 4 -33 0 -50
c-19 -3 -41 -5 -60 -5c-100 0 -173 50 -173 184zM216 530h230v167c-21 6 -45 9 -69 9c-79 0 -161 -35 -161 -129v-47z" />
    <glyph glyph-name="f_f" unicode="ff" horiz-adv-x="676" 
d="M542 480v-425l75 -20c3 -12 3 -23 0 -35h-239c-3 12 -3 23 0 35l68 20v425h-230v-425l68 -20c3 -12 3 -23 0 -35h-239c-3 12 -3 23 0 35l75 20v425h-75c-3 10 -3 21 0 31l75 19v34c0 136 114 196 231 196c54 0 108 -13 153 -37c30 26 71 37 116 37c28 0 64 -4 96 -13
v-106c-15 -3 -30 -3 -45 0l-24 71c-86 7 -105 -39 -105 -125v-57h133c3 -17 3 -33 0 -50h-133zM216 530h230v43c0 43 8 77 22 105c-29 16 -65 25 -101 25c-76 0 -151 -39 -151 -126v-47z" />
    <glyph glyph-name="f_f_i" unicode="ffi" horiz-adv-x="978" 
d="M772 55v425h-230v-425l68 -20c3 -12 3 -23 0 -35h-232c-3 12 -3 23 0 35l68 20v425h-230v-425l68 -20c3 -12 3 -23 0 -35h-239c-3 12 -3 23 0 35l75 20v425h-75c-3 10 -3 21 0 31l75 19v34c0 136 114 196 231 196c60 0 120 -16 167 -45c43 31 102 45 162 45
c52 0 104 -10 148 -28v-112c-16 -4 -36 -4 -50 0l-26 78c-20 5 -40 8 -61 8c-76 0 -149 -36 -149 -129v-47h270c39 0 56 -17 56 -58v-417l75 -20c3 -12 3 -23 0 -35h-239c-3 12 -3 23 0 35zM216 577v-47h230v34c0 44 11 80 30 108c-30 20 -69 31 -109 31
c-76 0 -151 -39 -151 -126z" />
    <glyph glyph-name="f_f_l" unicode="ffl" horiz-adv-x="978" 
d="M868 709v-654l75 -20c3 -12 3 -23 0 -35h-239c-3 12 -3 23 0 35l68 20v636c-22 10 -48 14 -74 14c-76 0 -156 -37 -156 -123v-52h133c4 -18 4 -32 0 -50h-133v-425l68 -20c3 -12 3 -23 0 -35h-239c-3 12 -3 23 0 35l75 20v425h-230v-425l68 -20c3 -12 3 -23 0 -35h-239
c-3 12 -3 23 0 35l75 20v425h-75c-3 10 -3 21 0 31l75 19v34c0 136 114 196 231 196c60 0 121 -16 168 -46c44 31 103 46 163 46c68 0 138 -18 186 -51zM216 530h230v39c0 41 11 76 30 103c-30 20 -69 31 -109 31c-76 0 -151 -39 -151 -126v-47z" />
    <glyph glyph-name="f_f.alt" unicode="&#xe1b6;&#xe1b6;" horiz-adv-x="676" 
d="M542 480v-425l75 -20c3 -12 3 -23 0 -35h-239c-3 12 -3 23 0 35l68 20v425h-230v-425l68 -20c3 -12 3 -23 0 -35h-239c-3 12 -3 23 0 35l75 20v425h-75c-3 10 -3 21 0 31l75 19v34c0 136 114 196 231 196c54 0 108 -13 153 -37c30 26 71 37 116 37c28 0 64 -4 96 -13
c-1 -19 -6 -37 -13 -53c-19 3 -39 5 -58 5c-56 0 -103 -19 -103 -103v-66h133c3 -17 3 -33 0 -50h-133zM216 530h230v43c0 43 8 77 22 105c-29 16 -65 25 -101 25c-76 0 -151 -39 -151 -126v-47z" />
    <glyph glyph-name=".notdef" horiz-adv-x="500" 
d="M500 0h-500v750h500v-750zM88 690l161 -262l160 262h-321zM284 371l156 -255v510zM249 314l-156 -254h311zM214 371l-154 252v-504z" />
    <glyph glyph-name=".null" horiz-adv-x="0" 
 />
    <glyph glyph-name="space" unicode=" " horiz-adv-x="275" 
 />
    <glyph glyph-name="exclam" unicode="!" horiz-adv-x="306" 
d="M211 700l-26 -502c-10 -2 -21 -3 -32 -3s-22 1 -32 3l-26 502c18 3 39 5 58 5s39 -2 58 -5zM103 0c-4 16 -6 32 -6 48c0 17 2 34 6 51c16 4 33 6 50 6s34 -2 51 -6c4 -15 6 -32 6 -49c0 -16 -2 -33 -6 -50c-17 -4 -34 -6 -51 -6s-34 2 -50 6z" />
    <glyph glyph-name="quotedbl" unicode="&#x22;" horiz-adv-x="367" 
d="M148 757l-16 -239c-10 -2 -21 -3 -31 -3s-20 1 -30 3l-16 239c15 2 30 3 46 3c15 0 31 -1 47 -3zM312 757l-16 -239c-10 -2 -21 -3 -31 -3s-20 1 -30 3l-16 239c15 2 30 3 46 3c15 0 31 -1 47 -3z" />
    <glyph glyph-name="numbersign" unicode="#" horiz-adv-x="590" 
d="M91 0l46 197h-116c-2 10 -3 20 -3 31s1 22 3 33h131l44 184h-121c-2 10 -3 20 -3 31s1 22 3 33h136l46 191c9 2 19 3 29 3s21 -1 30 -3l-46 -191h127l46 191c9 2 19 3 29 3s21 -1 30 -3l-46 -191h112c2 -11 3 -21 3 -32s-1 -22 -3 -32h-127l-44 -184h117
c2 -11 3 -22 3 -33s-1 -21 -3 -31h-132l-46 -197c-10 -2 -20 -3 -30 -3s-20 1 -29 3l46 197h-127l-46 -197c-10 -2 -20 -3 -30 -3s-19 1 -29 3zM255 445l-44 -184h127l44 184h-127z" />
    <glyph glyph-name="dollar" unicode="$" horiz-adv-x="590" 
d="M61 65v137c15 3 30 3 45 0l39 -113c30 -7 66 -12 103 -12c94 0 196 30 196 121c0 175 -377 38 -377 300c0 117 93 171 201 184v85c10 2 20 3 30 3s20 -1 30 -3v-82c62 -2 129 -18 173 -41v-132c-15 -3 -30 -3 -45 0l-39 102c-23 7 -51 12 -86 12
c-86 0 -179 -31 -179 -118c0 -172 380 -38 380 -296c0 -113 -95 -175 -204 -192v-91c-10 -2 -20 -3 -30 -3s-20 1 -30 3v86h-8c-77 0 -148 18 -199 50z" />
    <glyph glyph-name="percent" unicode="%" horiz-adv-x="876" 
d="M204 0l426 730c20 -8 37 -17 51 -30l-425 -731c-21 7 -38 17 -52 31zM40 506c0 129 60 204 162 204c104 0 163 -75 163 -204c0 -135 -59 -205 -163 -205c-102 0 -161 70 -162 205zM281 506c0 99 -22 159 -79 159c-56 0 -78 -60 -78 -159c0 -98 22 -160 78 -160
c57 0 79 62 79 160zM517 195c0 129 60 204 162 204c104 0 163 -75 163 -204c0 -135 -59 -205 -163 -205c-102 0 -161 70 -162 205zM758 195c0 99 -22 159 -79 159c-56 0 -78 -60 -78 -159c0 -98 22 -160 78 -160c57 0 79 62 79 160z" />
    <glyph glyph-name="ampersand" unicode="&#x26;" horiz-adv-x="726" 
d="M539 0l-63 72c-55 -51 -126 -82 -211 -82c-117 0 -215 80 -215 203c0 94 70 152 148 194c-54 58 -83 110 -83 172c0 97 86 171 186 171c90 0 176 -59 176 -153c0 -105 -74 -156 -151 -194l164 -190c22 46 35 100 39 154l-59 19c-3 12 -3 23 0 35h223c3 -12 3 -23 0 -35
l-91 -26c-9 -72 -31 -141 -68 -198l75 -86l84 -21c3 -12 3 -23 0 -35h-154zM145 212c0 -92 63 -149 148 -149c60 0 107 20 143 54l-202 231c-51 -31 -89 -72 -89 -136zM383 571c0 50 -31 104 -85 104c-64 0 -89 -54 -89 -105c0 -47 36 -94 80 -145c57 34 94 81 94 146z" />
    <glyph glyph-name="quotesingle" unicode="'" horiz-adv-x="203" 
d="M148 757l-16 -239c-10 -2 -21 -3 -31 -3s-20 1 -30 3l-16 239c15 2 30 3 46 3c15 0 31 -1 47 -3z" />
    <glyph glyph-name="parenleft" unicode="(" horiz-adv-x="372" 
d="M335 720c-158 -97 -176 -269 -176 -440c0 -172 18 -339 176 -441c-7 -16 -16 -30 -29 -40c-192 87 -232 263 -232 481s41 395 232 481c11 -10 20 -24 29 -41z" />
    <glyph glyph-name="parenright" unicode=")" horiz-adv-x="372" 
d="M37 720c9 17 18 31 29 41c191 -86 232 -263 232 -481s-40 -394 -232 -481c-13 10 -22 24 -29 40c158 102 176 269 176 441c0 171 -18 343 -176 440z" />
    <glyph glyph-name="asterisk" unicode="*" horiz-adv-x="532" 
d="M79 668l157 -95c-5 -17 -14 -30 -25 -41l-161 84c7 18 16 36 29 52zM50 442l161 84c9 -10 18 -23 25 -41l-157 -95c-13 16 -22 34 -29 52zM236 308l5 175c16 3 33 3 49 0l6 -175c-9 -2 -20 -3 -30 -3s-21 1 -30 3zM453 390l-158 95c7 17 16 30 25 41l162 -84
c-7 -18 -16 -36 -29 -52zM482 616l-162 -84c-11 11 -20 24 -25 41l158 95c13 -16 22 -34 29 -52zM296 750l-6 -175c-16 -3 -33 -3 -49 0l-5 175c9 2 20 3 30 3s21 -1 30 -3z" />
    <glyph glyph-name="plus" unicode="+" horiz-adv-x="655" 
d="M597 239h-235v-239c-12 -2 -24 -3 -35 -3c-12 0 -23 1 -34 3v239h-235c-2 11 -3 22 -3 33s1 23 3 34h235v234c11 2 22 3 34 3c11 0 23 -1 35 -3v-234h235c2 -12 3 -23 3 -34s-1 -23 -3 -33z" />
    <glyph glyph-name="comma" unicode="," horiz-adv-x="250" 
d="M55 -110c30 45 49 103 49 181c0 11 0 22 -1 33c15 3 31 4 46 4s30 -1 45 -4c7 -117 -32 -191 -108 -241c-11 5 -22 14 -31 27z" />
    <glyph glyph-name="hyphen" unicode="-" horiz-adv-x="406" 
d="M348 258h-290c-2 11 -3 23 -3 35s1 23 3 35h290c2 -12 3 -23 3 -35s-1 -24 -3 -35z" />
    <glyph glyph-name="period" unicode="." horiz-adv-x="250" 
d="M81 0c-4 16 -6 32 -6 48c0 17 2 34 6 51c16 4 33 6 50 6s34 -2 51 -6c4 -15 6 -32 6 -49c0 -16 -2 -33 -6 -50c-17 -4 -34 -6 -51 -6s-34 2 -50 6z" />
    <glyph glyph-name="slash" unicode="/" horiz-adv-x="409" 
d="M384 747l-285 -802h-72l-2 3l285 802h72z" />
    <glyph glyph-name="zero" unicode="0" horiz-adv-x="590" 
d="M55 349c0 229 79 361 240 361c165 0 239 -133 239 -361c0 -238 -74 -359 -239 -359c-161 0 -240 122 -240 359zM436 349c0 175 -26 301 -141 301c-109 0 -142 -126 -142 -301s33 -299 142 -299c115 0 141 124 141 299z" />
    <glyph glyph-name="one" unicode="1" horiz-adv-x="590" 
d="M352 651v-589l123 -25c3 -12 3 -25 0 -37h-342c-3 12 -3 25 0 37l123 25v567h-123c-4 15 -4 30 0 45l147 32c15 3 27 5 36 5c33 0 36 -20 36 -60z" />
    <glyph glyph-name="two" unicode="2" horiz-adv-x="590" 
d="M170 92h330c2 -15 3 -31 3 -46c0 -16 -1 -31 -3 -46h-463v47l189 188c72 72 160 159 160 262s-70 149 -154 149c-26 0 -52 -4 -76 -13l-46 -117c-14 -4 -29 -4 -45 0v126c53 44 126 68 197 68c117 0 230 -65 230 -207c0 -120 -90 -202 -183 -284l-139 -123v-4z" />
    <glyph glyph-name="three" unicode="3" horiz-adv-x="590" 
d="M69 537v126c51 28 128 47 203 47c114 0 223 -45 223 -168c0 -79 -52 -147 -131 -163v-5c86 -14 154 -63 154 -167c0 -155 -132 -217 -273 -217c-73 0 -133 16 -188 43v137c15 3 33 3 45 0l44 -104c27 -7 58 -11 88 -11c94 0 186 40 186 157c0 106 -86 127 -197 127h-60
c-2 10 -3 20 -3 30s1 19 3 30h46c111 0 188 38 188 136c0 84 -75 115 -150 115c-33 0 -66 -6 -92 -16l-41 -97c-12 -3 -30 -3 -45 0z" />
    <glyph glyph-name="four" unicode="4" horiz-adv-x="590" 
d="M339 196h-327v55l363 459h60v-454h103c2 -10 3 -19 3 -29s-1 -21 -3 -31h-103v-134l93 -25c3 -12 3 -25 0 -37h-282c-3 12 -3 25 0 37l93 25v134zM96 256h243v306h-4l-240 -302z" />
    <glyph glyph-name="five" unicode="5" horiz-adv-x="590" 
d="M92 31v131c15 3 33 3 45 0l42 -100c20 -4 41 -7 63 -7c97 0 197 48 197 175c0 122 -93 153 -180 153c-50 0 -101 -8 -141 -16l-5 5v323l5 5h370c2 -16 3 -32 3 -47c0 -16 -1 -31 -3 -45h-315v-171c36 6 74 10 112 10c123 0 252 -47 252 -217c0 -165 -137 -240 -275 -240
c-60 0 -121 13 -170 41z" />
    <glyph glyph-name="six" unicode="6" horiz-adv-x="590" 
d="M173 392l3 -1c40 48 100 69 157 69c139 0 201 -103 201 -237c0 -133 -80 -233 -227 -233c-175 0 -234 136 -234 289c0 227 109 431 339 431c26 0 52 -3 77 -10c2 -20 -2 -39 -10 -57c-16 3 -32 5 -48 5c-142 0 -234 -107 -258 -256zM307 50c86 0 129 66 129 173
c0 109 -36 178 -129 178c-101 0 -134 -89 -134 -173c0 -83 35 -178 134 -178z" />
    <glyph glyph-name="seven" unicode="7" horiz-adv-x="590" 
d="M519 700v-60l-287 -650c-32 4 -61 15 -85 35l292 583h-294l-24 -67c-14 -4 -30 -4 -45 0v159h443z" />
    <glyph glyph-name="eight" unicode="8" horiz-adv-x="590" 
d="M56 184c0 65 39 134 126 176v4c-62 34 -108 78 -108 162c0 118 110 184 222 184c142 0 219 -88 219 -178c0 -63 -36 -126 -113 -163v-4c72 -34 131 -78 131 -170c0 -128 -111 -205 -240 -205c-148 0 -237 85 -237 194zM294 50c84 0 141 54 141 135c0 77 -71 102 -152 133
l-39 15c-63 -22 -91 -82 -91 -140c0 -75 48 -143 141 -143zM169 532c0 -77 83 -107 170 -141c54 25 81 81 81 134c0 64 -39 126 -125 126c-68 0 -126 -46 -126 -119z" />
    <glyph glyph-name="nine" unicode="9" horiz-adv-x="590" 
d="M60 479c0 124 81 231 226 231c175 0 234 -136 234 -289c0 -228 -112 -431 -337 -431c-27 0 -53 3 -78 10c-2 18 1 38 9 57c15 -3 30 -5 46 -5c145 0 236 114 259 264l-3 1c-37 -47 -94 -67 -152 -67c-137 0 -204 90 -204 229zM286 650c-79 0 -128 -61 -128 -168
c0 -109 37 -173 128 -173c102 0 134 89 134 168c0 83 -35 173 -134 173z" />
    <glyph glyph-name="colon" unicode=":" horiz-adv-x="250" 
d="M81 0c-4 16 -6 32 -6 48c0 17 2 34 6 51c16 4 33 6 50 6s34 -2 51 -6c4 -15 6 -32 6 -49c0 -16 -2 -33 -6 -50c-17 -4 -34 -6 -51 -6s-34 2 -50 6zM81 431c-4 16 -6 32 -6 48c0 17 2 34 6 51c16 4 33 6 50 6s34 -2 51 -6c4 -15 6 -32 6 -49c0 -16 -2 -33 -6 -50
c-17 -4 -34 -6 -51 -6s-34 2 -50 6z" />
    <glyph glyph-name="semicolon" unicode=";" horiz-adv-x="250" 
d="M54 -110c30 45 49 103 49 181c0 11 0 22 -1 33c15 3 31 4 46 4s30 -1 45 -4c7 -117 -32 -191 -108 -241c-11 5 -22 14 -31 27zM88 431c-4 16 -6 32 -6 48c0 17 2 34 6 51c16 4 33 6 50 6s34 -2 51 -6c4 -15 6 -32 6 -49c0 -16 -2 -33 -6 -50c-17 -4 -34 -6 -51 -6
s-34 2 -50 6z" />
    <glyph glyph-name="less" unicode="&#x3c;" horiz-adv-x="655" 
d="M569 -10l-511 244c-2 10 -3 21 -3 31s1 20 3 31l511 245c15 -18 27 -41 31 -66l-443 -208v-4l443 -208c-4 -27 -16 -49 -31 -65z" />
    <glyph glyph-name="equal" unicode="=" horiz-adv-x="655" 
d="M597 321h-539c-2 11 -3 22 -3 33s1 23 3 34h539c2 -12 3 -23 3 -34s-1 -23 -3 -33zM597 157h-539c-2 11 -3 22 -3 33s1 23 3 34h539c2 -12 3 -23 3 -34s-1 -23 -3 -33z" />
    <glyph glyph-name="greater" unicode="&#x3e;" horiz-adv-x="655" 
d="M597 234l-511 -244c-15 16 -27 38 -31 65l443 208v4l-443 208c4 25 16 49 31 66l511 -245c2 -11 3 -21 3 -31s-1 -21 -3 -31z" />
    <glyph glyph-name="question" unicode="?" horiz-adv-x="458" 
d="M35 513v132c53 41 128 65 200 65c129 0 195 -81 195 -169c0 -100 -60 -142 -119 -183c-55 -38 -109 -63 -125 -160c-18 -4 -38 -4 -54 0c-13 225 192 186 192 329c0 73 -51 115 -128 115c-24 0 -50 -5 -74 -16l-40 -113c-14 -4 -32 -4 -47 0zM112 0c-4 16 -6 32 -6 48
c0 17 2 34 6 51c16 4 33 6 50 6s34 -2 51 -6c4 -15 6 -32 6 -49c0 -16 -2 -33 -6 -50c-17 -4 -34 -6 -51 -6s-34 2 -50 6z" />
    <glyph glyph-name="at" unicode="@" horiz-adv-x="849" 
d="M534 388l5 23c-12 5 -32 7 -46 7c-133 0 -189 -133 -189 -230c0 -49 18 -70 43 -70c93 0 176 218 187 270zM500 205l-4 1c-33 -66 -93 -142 -180 -142c-66 0 -89 63 -89 123c0 128 87 277 244 277c26 0 59 -6 78 -19c11 15 26 19 42 19h28l-45 -236c-2 -13 -7 -39 -7 -64
c0 -26 6 -56 36 -56c97 0 130 151 130 215c0 162 -100 274 -272 274c-184 0 -332 -143 -332 -370c0 -177 115 -298 279 -298c57 0 119 9 164 35c8 -14 13 -29 15 -43c-59 -33 -122 -44 -190 -44c-192 0 -345 128 -345 344c0 239 170 425 417 425c196 0 330 -128 330 -313
c0 -132 -81 -270 -221 -270c-57 0 -84 29 -84 85c0 18 2 31 6 57z" />
    <glyph glyph-name="A" unicode="A" horiz-adv-x="785" 
d="M577 62l-62 163h-284l-62 -165l97 -23c3 -12 3 -25 0 -37h-248c-3 12 -3 25 0 37l79 21l251 662h87l250 -661l82 -22c3 -12 3 -25 0 -37h-286c-3 12 -3 25 0 37zM371 596l-116 -307h236l-116 307h-4z" />
    <glyph glyph-name="B" unicode="B" horiz-adv-x="658" 
d="M134 62v596l-93 25c-3 12 -3 25 0 37h267c129 0 269 -31 269 -177c0 -70 -49 -137 -129 -154v-4c96 -3 172 -67 172 -168c0 -160 -138 -217 -292 -217h-287c-3 12 -3 25 0 37zM316 347h-82v-283h69c113 0 212 19 212 139c0 114 -84 144 -199 144zM472 540
c0 87 -58 116 -171 116h-67v-245h76c122 0 162 49 162 129z" />
    <glyph glyph-name="C" unicode="C" horiz-adv-x="656" 
d="M521 77l48 120c14 4 32 4 47 0v-148c-66 -38 -153 -59 -238 -59c-218 0 -330 147 -330 372c0 214 122 368 352 368c77 0 156 -16 211 -46v-147c-15 -4 -33 -4 -47 0l-44 111c-32 10 -71 15 -111 15c-180 0 -258 -138 -258 -303c0 -174 79 -302 255 -302c40 0 80 7 115 19
z" />
    <glyph glyph-name="D" unicode="D" horiz-adv-x="732" 
d="M134 62v596l-93 25c-3 12 -3 25 0 37h292c246 0 351 -124 351 -360c0 -246 -105 -360 -351 -360h-292c-3 12 -3 25 0 37zM234 656v-592h95c189 0 252 116 252 296s-66 296 -252 296h-95z" />
    <glyph glyph-name="E" unicode="E" horiz-adv-x="639" 
d="M134 62v596l-93 25c-3 12 -3 25 0 37h540v-157c-15 -4 -33 -4 -47 0l-34 93h-266v-245h194l25 62c12 3 25 3 37 0v-208c-12 -3 -25 -3 -37 0l-25 82h-194v-283h285l35 98c14 4 32 4 47 0v-162h-560c-3 12 -3 25 0 37z" />
    <glyph glyph-name="F" unicode="F" horiz-adv-x="604" 
d="M41 720h525v-157c-15 -4 -33 -4 -47 0l-34 93h-251v-275h189l25 72c12 3 25 3 37 0v-208c-12 -3 -25 -3 -37 0l-25 72h-189v-255l93 -25c3 -12 3 -25 0 -37h-286c-3 12 -3 25 0 37l93 25v596l-93 25c-3 12 -3 25 0 37z" />
    <glyph glyph-name="G" unicode="G" horiz-adv-x="734" 
d="M629 297v-307h-25c-40 0 -54 15 -62 32c-46 -21 -102 -32 -159 -32c-224 0 -335 146 -335 372c0 220 125 368 359 368c81 0 164 -15 222 -45v-147c-15 -4 -33 -4 -47 0l-44 111c-34 10 -75 15 -116 15c-190 0 -271 -128 -271 -303c0 -186 84 -302 268 -302
c41 0 81 8 113 26v203l-117 25c-3 12 -3 25 0 37h267c3 -12 3 -25 0 -37z" />
    <glyph glyph-name="H" unicode="H" horiz-adv-x="816" 
d="M234 347v-285l93 -25c3 -12 3 -25 0 -37h-286c-3 12 -3 25 0 37l93 25v596l-93 25c-3 12 -3 25 0 37h286c3 -12 3 -25 0 -37l-93 -25v-247h348v247l-93 25c-3 12 -3 25 0 37h286c3 -12 3 -25 0 -37l-93 -25v-596l93 -25c3 -12 3 -25 0 -37h-286c-3 12 -3 25 0 37l93 25
v285h-348z" />
    <glyph glyph-name="I" unicode="I" horiz-adv-x="368" 
d="M134 658l-93 25c-3 12 -3 25 0 37h286c3 -12 3 -25 0 -37l-93 -25v-596l93 -25c3 -12 3 -25 0 -37h-286c-3 12 -3 25 0 37l93 25v596z" />
    <glyph glyph-name="J" unicode="J" horiz-adv-x="368" 
d="M134 73v585l-93 25c-3 12 -3 25 0 37h286c3 -12 3 -25 0 -37l-93 -25v-623c0 -129 -87 -199 -212 -199c-7 12 -10 26 -9 40c103 21 121 91 121 197z" />
    <glyph glyph-name="K" unicode="K" horiz-adv-x="732" 
d="M724 0h-174l-301 359v6l261 302l-60 16c-3 12 -3 25 0 37h244c3 -12 3 -25 0 -37l-104 -28l-232 -265l274 -328l92 -25c3 -12 3 -25 0 -37zM134 658l-93 25c-3 12 -3 25 0 37h286c3 -12 3 -25 0 -37l-93 -25v-596l93 -25c3 -12 3 -25 0 -37h-286c-3 12 -3 25 0 37l93 25
v596z" />
    <glyph glyph-name="L" unicode="L" horiz-adv-x="585" 
d="M573 0h-532c-3 12 -3 25 0 37l93 25v596l-93 25c-3 12 -3 25 0 37h286c3 -12 3 -25 0 -37l-93 -25v-594h250l42 107c14 4 32 4 47 0v-171z" />
    <glyph glyph-name="M" unicode="M" horiz-adv-x="1023" 
d="M739 720h215c3 -12 3 -25 0 -37l-93 -25l31 -596l93 -25c3 -12 3 -25 0 -37h-289c-3 12 -3 25 0 37l93 25l-25 525h-4l-231 -587h-87l-214 586h-4l-45 -526l95 -23c3 -12 3 -25 0 -37h-243c-3 12 -3 25 0 37l82 22l51 599l-93 25c-3 12 -3 25 0 37h217l216 -594h4z" />
    <glyph glyph-name="N" unicode="N" horiz-adv-x="771" 
d="M190 603v-543l94 -23c3 -12 3 -25 0 -37h-243c-3 12 -3 25 0 37l82 22v602l-82 22c-3 12 -3 25 0 37h200l336 -555h4v495l-94 23c-3 12 -3 25 0 37h243c3 -12 3 -25 0 -37l-82 -22v-661h-87l-367 603h-4z" />
    <glyph glyph-name="O" unicode="O" horiz-adv-x="737" 
d="M48 360c0 236 106 370 321 370c224 0 320 -134 320 -370c0 -246 -96 -370 -320 -370c-215 0 -321 124 -321 370zM586 360c0 180 -49 306 -217 306c-159 0 -218 -126 -218 -306s59 -306 218 -306c168 0 217 126 217 306z" />
    <glyph glyph-name="P" unicode="P" horiz-adv-x="631" 
d="M234 260v-198l93 -25c3 -12 3 -25 0 -37h-286c-3 12 -3 25 0 37l93 25v596l-93 25c-3 12 -3 25 0 37h239c206 0 309 -65 309 -222c0 -122 -88 -238 -303 -238h-52zM486 496c0 107 -63 160 -205 160h-47v-332h34c144 0 218 63 218 172z" />
    <glyph glyph-name="Q" unicode="Q" horiz-adv-x="737" 
d="M48 360c0 236 106 370 321 370c224 0 320 -134 320 -370c0 -226 -81 -349 -268 -367c11 -61 40 -102 114 -117c1 -14 -2 -28 -9 -40c-109 0 -185 56 -202 156c-185 16 -276 139 -276 368zM586 360c0 180 -49 306 -217 306c-159 0 -218 -126 -218 -306s59 -306 218 -306
c168 0 217 126 217 306z" />
    <glyph glyph-name="R" unicode="R" horiz-adv-x="712" 
d="M234 290v-228l93 -25c3 -12 3 -25 0 -37h-286c-3 12 -3 25 0 37l93 25v596l-93 25c-3 12 -3 25 0 37h239c206 0 309 -50 309 -207c0 -90 -46 -173 -159 -204l184 -249l85 -23c3 -12 3 -25 0 -37h-168l-212 290h-85zM486 511c0 107 -63 145 -205 145h-47v-302h34
c144 0 218 48 218 157z" />
    <glyph glyph-name="S" unicode="S" horiz-adv-x="588" 
d="M45 45v152c15 4 33 4 47 0l47 -124c30 -10 65 -15 105 -15c97 0 209 32 209 137c0 45 -21 68 -53 86c-69 39 -175 41 -251 81c-53 28 -93 74 -93 161c0 149 129 207 264 207c73 0 143 -17 196 -45v-147c-15 -4 -33 -4 -47 0l-44 115c-27 8 -57 13 -90 13
c-91 0 -184 -35 -184 -132c0 -84 79 -101 169 -122c110 -25 230 -53 230 -199c0 -158 -145 -223 -296 -223c-79 0 -155 19 -209 55z" />
    <glyph glyph-name="T" unicode="T" horiz-adv-x="622" 
d="M361 656v-594l93 -25c3 -12 3 -25 0 -37h-286c-3 12 -3 25 0 37l93 25v594h-158l-39 -102c-14 -4 -32 -4 -47 0v166h588v-166c-15 -4 -33 -4 -47 0l-39 102h-158z" />
    <glyph glyph-name="U" unicode="U" horiz-adv-x="782" 
d="M128 658l-83 25c-3 12 -3 25 0 37h286c3 -12 3 -25 0 -37l-103 -25v-358c0 -162 45 -234 181 -234c131 0 182 77 182 235v359l-94 23c-3 12 -3 25 0 37h243c3 -12 3 -25 0 -37l-82 -22v-351c0 -211 -68 -320 -265 -320c-202 0 -265 104 -265 320v348z" />
    <glyph glyph-name="V" unicode="V" horiz-adv-x="770" 
d="M15 720h286c3 -12 3 -25 0 -37l-97 -25l199 -534h4l199 535l-97 24c-3 12 -3 25 0 37h248c3 -12 3 -25 0 -37l-79 -21l-248 -662h-87l-247 661l-81 22c-3 12 -3 25 0 37z" />
    <glyph glyph-name="W" unicode="W" horiz-adv-x="1050" 
d="M20 720h286c3 -12 3 -25 0 -37l-98 -25l133 -496h4l156 548h87l152 -548h4l130 498l-92 23c-3 12 -3 25 0 37h250c3 -12 3 -25 0 -37l-88 -24l-174 -659h-87l-154 550h-4l-156 -550h-87l-177 660l-85 23c-3 12 -3 25 0 37z" />
    <glyph glyph-name="X" unicode="X" horiz-adv-x="723" 
d="M342 314l-167 -256l86 -21c3 -12 3 -25 0 -37h-243c-3 12 -3 25 0 37l75 20l209 319l-188 286l-76 21c-3 12 -3 25 0 37h281c3 -12 3 -25 0 -37l-84 -24l144 -220l144 220l-84 24c-3 12 -3 25 0 37h243c3 -12 3 -25 0 -37l-75 -18l-188 -287l210 -321l76 -20
c3 -12 3 -25 0 -37h-286c-3 12 -3 25 0 37l89 24z" />
    <glyph glyph-name="Y" unicode="Y" horiz-adv-x="701" 
d="M406 278v-216l93 -25c3 -12 3 -25 0 -37h-286c-3 12 -3 25 0 37l93 25v216l-216 384l-77 21c-3 12 -3 25 0 37h286c3 -12 3 -25 0 -37l-97 -25l169 -300h4l161 301l-91 24c-3 12 -3 25 0 37h243c3 -12 3 -25 0 -37l-69 -19z" />
    <glyph glyph-name="Z" unicode="Z" horiz-adv-x="621" 
d="M60 720h515v-64l-423 -592h350l42 107c14 4 32 4 47 0v-171h-559v64l417 592h-303l-39 -102c-14 -4 -32 -4 -47 0v166z" />
    <glyph glyph-name="bracketleft" unicode="[" horiz-adv-x="372" 
d="M331 -190h-206l-5 5v930l5 5h206c2 -10 3 -20 3 -30s-1 -20 -3 -30h-129v-820h129c2 -11 3 -21 3 -31s-1 -20 -3 -29z" />
    <glyph glyph-name="backslash" unicode="\" horiz-adv-x="409" 
d="M310 -55l-285 802l2 3h72l285 -802l-2 -3h-72z" />
    <glyph glyph-name="bracketright" unicode="]" horiz-adv-x="372" 
d="M246 -190h-206c-2 9 -3 19 -3 29s1 20 3 31h129v820h-129c-2 10 -3 20 -3 30s1 20 3 30h206l5 -5v-930z" />
    <glyph glyph-name="asciicircum" unicode="^" horiz-adv-x="655" 
d="M71 271l226 429c10 2 20 3 30 3s21 -1 31 -3l226 -430c-17 -16 -40 -28 -66 -31l-189 361h-4l-189 -361c-27 5 -48 17 -65 32z" />
    <glyph glyph-name="underscore" unicode="_" horiz-adv-x="500" 
d="M500 -125h-500v50h500v-50z" />
    <glyph glyph-name="grave" unicode="`" horiz-adv-x="400" 
d="M174 770l112 -155c-10 -14 -25 -25 -40 -32l-133 135c17 19 37 36 61 52z" />
    <glyph glyph-name="a" unicode="a" horiz-adv-x="589" 
d="M387 136v135h-29c-79 0 -210 -15 -210 -125c0 -58 35 -91 90 -91c58 0 118 36 149 81zM483 362v-310h75c4 -15 4 -30 0 -45l-103 -16c-28 -4 -68 -2 -68 61v19l-4 1c-42 -53 -108 -82 -171 -82c-95 0 -162 57 -162 152c0 170 201 177 337 177v55c0 84 -72 106 -143 106
c-31 0 -62 -4 -87 -9l-25 -85c-14 -4 -30 -4 -45 0v117c60 21 132 37 195 37c112 0 201 -44 201 -178z" />
    <glyph glyph-name="b" unicode="b" horiz-adv-x="596" 
d="M198 708v-243l4 -1c41 47 90 76 155 76c130 0 194 -124 194 -256c0 -152 -81 -295 -241 -295c-39 0 -77 9 -115 28c-10 -21 -33 -27 -64 -27h-29v703h-75c-4 15 -4 30 0 45l121 20c46 8 50 -15 50 -50zM198 398v-334c24 -8 51 -13 76 -13c131 0 179 108 179 224
c0 92 -28 196 -130 196c-49 0 -93 -32 -125 -73z" />
    <glyph glyph-name="c" unicode="c" horiz-adv-x="506" 
d="M471 155v-122c-49 -28 -112 -43 -172 -43c-160 0 -254 90 -254 274c0 181 103 276 258 276c59 0 118 -13 163 -35v-117c-15 -4 -30 -4 -45 0l-25 82c-24 6 -50 10 -81 10c-117 0 -172 -85 -172 -216c0 -139 54 -210 179 -210c29 0 56 4 77 10l27 91c14 4 30 4 45 0z" />
    <glyph glyph-name="d" unicode="d" horiz-adv-x="603" 
d="M397 134v336c-23 7 -47 10 -72 10c-133 0 -182 -93 -182 -228c0 -86 20 -193 122 -193c54 0 102 32 132 75zM493 708v-655h75c3 -15 3 -30 0 -45l-103 -16c-28 -4 -68 -2 -68 61v14l-4 1c-35 -51 -97 -78 -157 -78c-138 0 -191 126 -191 259c0 160 84 291 253 291
c33 0 68 -6 99 -21v174h-75c-3 15 -3 30 0 45l121 20c46 8 50 -15 50 -50z" />
    <glyph glyph-name="e" unicode="e" horiz-adv-x="549" 
d="M499 270h-356v-6c0 -149 65 -213 196 -213c26 0 56 3 78 11l27 88c14 4 29 4 45 0v-117c-51 -26 -119 -43 -185 -43c-169 0 -259 97 -259 275c0 171 90 275 245 275c138 0 212 -98 212 -224c0 -15 -1 -30 -3 -46zM289 482c-91 0 -131 -76 -143 -163l260 16
c0 94 -54 147 -117 147z" />
    <glyph glyph-name="f" unicode="f" horiz-adv-x="350" 
d="M216 480v-425l75 -20c3 -12 3 -23 0 -35h-246c-3 12 -3 23 0 35l75 20v425h-75c-3 10 -3 21 0 31l75 19v43c0 134 77 187 174 187c28 0 64 -4 96 -13v-106c-15 -3 -30 -3 -45 0l-24 71c-86 7 -105 -39 -105 -125v-57h133c3 -17 3 -33 0 -50h-133z" />
    <glyph glyph-name="g" unicode="g" horiz-adv-x="553" 
d="M470 349c0 -124 -71 -189 -205 -189c-37 0 -69 5 -96 14c-16 -14 -24 -32 -24 -47c0 -45 74 -45 119 -45h93c85 0 173 -18 173 -116c0 -127 -140 -171 -277 -171c-78 0 -152 15 -198 36v117c16 3 31 3 45 0l25 -71c27 -13 82 -22 139 -22c87 0 177 22 177 87
c0 46 -51 49 -93 49h-101c-69 0 -186 10 -186 104c0 38 23 72 66 99v4c-44 31 -66 80 -66 151c0 120 71 191 204 191c41 0 77 -7 106 -20h164c3 -17 3 -33 0 -50h-100l-1 -3c25 -31 36 -69 36 -118zM372 349c0 103 -37 131 -107 131c-69 0 -106 -29 -106 -131
c0 -98 35 -128 106 -128c69 0 107 29 107 128z" />
    <glyph glyph-name="h" unicode="h" horiz-adv-x="652" 
d="M546 347v-292l75 -20c3 -12 3 -23 0 -35h-246c-3 12 -3 23 0 35l75 20v248c0 83 -8 165 -101 165c-51 0 -108 -25 -143 -61v-352l75 -20c3 -13 3 -24 0 -35h-246c-3 12 -3 23 0 35l75 20v638h-75c-4 15 -4 30 0 45l121 20c47 8 50 -13 50 -50v-243l4 -1
c51 54 108 76 164 76c112 0 172 -59 172 -193z" />
    <glyph glyph-name="i" unicode="i" horiz-adv-x="328" 
d="M122 473h-75c-4 15 -4 30 0 45l121 20c46 8 50 -15 50 -50v-433l75 -20c3 -12 3 -23 0 -35h-246c-3 12 -3 23 0 35l75 20v418zM115 625c-3 15 -5 31 -5 46c0 16 2 32 5 49c15 3 32 5 48 5s34 -2 49 -5c3 -15 5 -31 5 -47c0 -15 -2 -31 -5 -48c-16 -4 -33 -5 -49 -5
s-32 1 -48 5z" />
    <glyph glyph-name="j" unicode="j" horiz-adv-x="314" 
d="M112 16v457h-75c-4 15 -4 30 0 45l121 20c46 8 50 -15 50 -50v-512c0 -111 -74 -168 -180 -182c-9 11 -13 24 -14 37c88 33 98 98 98 185zM100 625c-3 15 -5 31 -5 46c0 16 2 32 5 49c15 3 32 5 48 5s34 -2 49 -5c3 -15 5 -31 5 -47c0 -15 -2 -31 -5 -48
c-16 -4 -33 -5 -49 -5s-32 1 -48 5z" />
    <glyph glyph-name="k" unicode="k" horiz-adv-x="595" 
d="M206 708v-653l75 -20c3 -12 3 -23 0 -35h-246c-3 12 -3 23 0 35l75 20v638h-75c-4 16 -4 31 0 45l121 20c46 8 50 -15 50 -50zM591 0h-147l-223 267v7l199 207l-60 14c-3 12 -3 23 0 35h212c3 -12 3 -23 0 -35l-72 -19l-177 -179l210 -250l58 -12c3 -11 3 -23 0 -35z" />
    <glyph glyph-name="l" unicode="l" horiz-adv-x="316" 
d="M206 708v-653l75 -20c3 -12 3 -23 0 -35h-246c-3 12 -3 23 0 35l75 20v638h-75c-4 16 -4 31 0 45l121 20c46 8 50 -15 50 -50z" />
    <glyph glyph-name="m" unicode="m" horiz-adv-x="984" 
d="M548 347v-292l70 -20c3 -12 3 -23 0 -35h-236c-3 12 -3 23 0 35l70 20v248c0 83 -8 165 -101 165c-50 0 -98 -25 -133 -61v-352l75 -20c3 -13 3 -24 0 -35h-246c-3 12 -3 23 0 35l75 20v418h-75c-4 15 -4 30 0 45l121 20c47 8 50 -13 50 -50v-23l4 -1c48 48 95 76 162 76
c73 0 119 -30 145 -85h4c61 66 118 85 173 85c112 0 172 -59 172 -193v-292l75 -20c3 -12 3 -23 0 -35h-246c-3 12 -3 23 0 35l75 20v248c0 83 -8 165 -101 165c-51 0 -104 -24 -139 -61c4 -18 6 -38 6 -60z" />
    <glyph glyph-name="n" unicode="n" horiz-adv-x="664" 
d="M558 347v-292l75 -20c3 -12 3 -23 0 -35h-246c-3 12 -3 23 0 35l75 20v248c0 83 -8 165 -101 165c-51 0 -108 -25 -143 -61v-352l75 -20c3 -13 3 -24 0 -35h-246c-3 12 -3 23 0 35l75 20v418h-75c-4 15 -4 30 0 45l121 20c47 8 50 -13 50 -50v-23l4 -1
c51 54 108 76 164 76c112 0 172 -59 172 -193z" />
    <glyph glyph-name="o" unicode="o" horiz-adv-x="582" 
d="M537 265c0 -178 -85 -275 -246 -275s-246 97 -246 275c0 173 85 275 246 275s246 -102 246 -275zM439 265c0 153 -59 215 -148 215s-148 -62 -148 -215s59 -215 148 -215s148 62 148 215z" />
    <glyph glyph-name="p" unicode="p" horiz-adv-x="606" 
d="M208 8v-153l75 -20c3 -12 3 -23 0 -35h-246c-3 11 -3 22 0 35l75 20v618h-75c-4 15 -4 30 0 45l121 20c46 8 50 -15 50 -50v-23l4 -1c41 46 87 76 155 76c132 0 194 -123 194 -255c0 -171 -104 -295 -252 -295c-32 0 -66 6 -101 18zM208 398v-341c24 -6 49 -9 71 -9
c107 0 184 72 184 222c0 101 -30 202 -129 202c-52 0 -95 -30 -126 -74z" />
    <glyph glyph-name="q" unicode="q" horiz-adv-x="595" 
d="M397 -145v212l-4 1c-35 -51 -97 -78 -157 -78c-138 0 -191 126 -191 259c0 163 90 291 249 291c36 0 74 -8 103 -28c17 24 40 28 70 28h26v-685l75 -20c3 -12 3 -23 0 -35h-246c-3 12 -3 23 0 35zM397 134v329c-21 11 -49 16 -77 16c-125 0 -177 -90 -177 -227
c0 -86 21 -193 122 -193c54 0 102 32 132 75z" />
    <glyph glyph-name="r" unicode="r" horiz-adv-x="457" 
d="M122 473h-75c-4 15 -4 30 0 45l121 20c46 8 50 -15 50 -50v-23l4 -1c37 47 97 76 158 76c22 0 44 -3 67 -8v-132c-16 -4 -31 -4 -45 0l-20 65c-54 4 -111 -7 -164 -57v-353l75 -20c3 -12 3 -23 0 -35h-246c-3 12 -3 23 0 35l75 20v418z" />
    <glyph glyph-name="s" unicode="s" horiz-adv-x="471" 
d="M86 152l26 -86c25 -11 58 -18 94 -18c72 0 146 26 146 97c0 56 -63 64 -135 81c-82 19 -167 46 -167 153c0 120 104 161 211 161c55 0 109 -12 152 -29v-117c-15 -4 -30 -4 -45 0l-24 79c-21 6 -46 9 -73 9c-66 0 -132 -21 -132 -89c0 -63 78 -73 160 -92
c73 -17 142 -51 142 -144c0 -121 -111 -167 -224 -167c-66 0 -132 15 -176 40v122c15 4 30 4 45 0z" />
    <glyph glyph-name="t" unicode="t" horiz-adv-x="354" 
d="M106 174v306h-75c-3 10 -3 21 0 31l75 19v147l90 17l6 -6v-158h133c3 -17 3 -33 0 -50h-133v-264c0 -106 18 -183 137 -171c4 -17 4 -33 0 -50c-19 -3 -41 -5 -60 -5c-100 0 -173 50 -173 184z" />
    <glyph glyph-name="u" unicode="u" horiz-adv-x="651" 
d="M445 473h-75c-4 15 -4 30 0 45l121 20c46 8 50 -15 50 -50v-436h75c4 -15 4 -30 0 -45l-104 -16c-27 -4 -67 -2 -67 61v17l-4 1c-48 -53 -99 -80 -166 -80c-122 0 -169 81 -169 197v286h-75c-4 15 -4 30 0 45l121 20c46 8 50 -15 50 -50v-258c0 -84 5 -170 97 -170
c54 0 102 22 146 70v343z" />
    <glyph glyph-name="v" unicode="v" horiz-adv-x="580" 
d="M5 530h235c3 -12 3 -23 0 -35l-73 -20l144 -361h4l144 362l-72 19c-3 12 -3 23 0 35h192c3 -12 3 -23 0 -35l-54 -14l-193 -481h-77l-191 479l-59 16c-3 12 -3 23 0 35z" />
    <glyph glyph-name="w" unicode="w" horiz-adv-x="831" 
d="M711 475l-76 20c-3 12 -3 23 0 35h193c3 -12 3 -23 0 -35l-51 -14l-179 -481h-77l-103 377h-4l-140 -377h-77l-131 479l-59 16c-3 12 -3 23 0 35h231c3 -12 3 -23 0 -35l-73 -20l93 -340h4l141 384h73l106 -384h4z" />
    <glyph glyph-name="x" unicode="x" horiz-adv-x="565" 
d="M23 530h231c3 -12 3 -23 0 -35l-59 -16l107 -149l109 148l-60 17c-3 12 -3 23 0 35h192c3 -12 3 -23 0 -35l-60 -16l-146 -198l164 -231l59 -15c3 -12 3 -23 0 -35h-242c-3 12 -3 23 0 35l66 18l-121 169l-127 -170l66 -17c3 -12 3 -23 0 -35h-197c-3 12 -3 23 0 35
l59 16l164 220l-149 209l-56 15c-3 12 -3 23 0 35z" />
    <glyph glyph-name="y" unicode="y" horiz-adv-x="583" 
d="M54 -195v135c16 3 31 3 45 0l20 -64c45 0 99 12 159 124l-207 477l-66 18c-3 12 -3 23 0 35h233c3 -12 3 -23 0 -35l-63 -18l152 -353h4l131 351l-72 20c-3 12 -3 23 0 35h192c3 -12 3 -23 0 -35l-53 -14l-142 -374c-95 -249 -175 -308 -296 -308c-9 0 -21 0 -32 1z" />
    <glyph glyph-name="z" unicode="z" horiz-adv-x="505" 
d="M337 470h-228l-25 -77c-14 -4 -29 -4 -45 0v137h420v-60l-307 -406l1 -4h250l25 82c15 4 30 4 45 0v-142h-441v60l306 406z" />
    <glyph glyph-name="braceleft" unicode="{" horiz-adv-x="372" 
d="M329 -190h-29c-120 0 -167 70 -167 178v77c0 110 -20 184 -106 184c-2 10 -3 20 -3 30s1 20 3 30c86 0 106 74 106 184v79c0 108 47 178 167 178h29c2 -10 3 -21 3 -31s-1 -20 -3 -29h-22c-65 0 -91 -35 -91 -126v-92c0 -90 -17 -158 -105 -191v-4
c88 -32 105 -100 105 -191v-90c0 -91 26 -126 91 -126h22c2 -9 3 -20 3 -30s-1 -20 -3 -30z" />
    <glyph glyph-name="bar" unicode="|" horiz-adv-x="292" 
d="M182 765v-990l-5 -5h-62l-5 5v990l5 5h62z" />
    <glyph glyph-name="braceright" unicode="}" horiz-adv-x="372" 
d="M70 -190h-29c-2 10 -3 20 -3 30s1 21 3 30h22c65 0 91 35 91 126v90c0 91 17 159 105 191v4c-88 33 -105 101 -105 191v92c0 91 -26 126 -91 126h-22c-2 9 -3 19 -3 29s1 21 3 31h29c120 0 167 -70 167 -178v-79c0 -110 20 -184 106 -184c2 -10 3 -20 3 -30
s-1 -20 -3 -30c-86 0 -106 -74 -106 -184v-77c0 -108 -47 -178 -167 -178z" />
    <glyph glyph-name="asciitilde" unicode="~" horiz-adv-x="655" 
d="M115 208c-10 -2 -19 -3 -29 -3s-21 1 -31 3c0 111 44 193 143 193c59 0 115 -39 163 -72c37 -26 73 -48 108 -48c53 0 71 65 71 115c10 2 20 3 30 3s20 -1 30 -3c0 -115 -39 -193 -136 -193c-55 0 -103 30 -148 61c-43 29 -87 59 -126 59c-55 0 -74 -61 -75 -115z" />
    <glyph glyph-name="Adieresis" unicode="&#xc4;" horiz-adv-x="785" 
d="M577 62l-62 163h-284l-62 -165l97 -23c3 -12 3 -25 0 -37h-248c-3 12 -3 25 0 37l79 21l251 662h87l250 -661l82 -22c3 -12 3 -25 0 -37h-286c-3 12 -3 25 0 37zM371 596l-116 -307h236l-116 307h-4zM247 881c14 3 30 5 46 5c15 0 32 -2 47 -5c3 -15 5 -31 5 -46
s-2 -31 -5 -45c-14 -3 -30 -5 -45 -5c-16 0 -33 2 -48 5c-3 14 -5 30 -5 45s2 31 5 46zM442 881c14 3 30 5 46 5c15 0 32 -2 47 -5c3 -15 5 -31 5 -46s-2 -31 -5 -45c-14 -3 -30 -5 -45 -5c-16 0 -33 2 -48 5c-3 14 -5 30 -5 45s2 31 5 46z" />
    <glyph glyph-name="Aring" unicode="&#xc5;" horiz-adv-x="785" 
d="M577 62l-62 163h-284l-62 -165l97 -23c3 -12 3 -25 0 -37h-248c-3 12 -3 25 0 37l79 21l251 662h87l250 -661l82 -22c3 -12 3 -25 0 -37h-286c-3 12 -3 25 0 37zM371 596l-116 -307h236l-116 307h-4zM292 848c0 57 42 94 98 94s99 -37 99 -94s-43 -93 -99 -93
s-98 36 -98 93zM343 848c0 -32 19 -55 47 -55s48 23 48 55s-20 56 -48 56s-47 -24 -47 -56z" />
    <glyph glyph-name="Ccedilla" unicode="&#xc7;" horiz-adv-x="656" 
d="M521 77l48 120c14 4 32 4 47 0v-148c-50 -29 -112 -48 -175 -55c7 -23 12 -49 12 -74c0 -64 -29 -126 -107 -126c-31 0 -64 10 -83 24c1 16 6 33 14 48c13 -7 27 -11 41 -11c54 0 70 45 70 91c0 16 -2 31 -5 44h-5c-218 0 -330 147 -330 372c0 214 122 368 352 368
c77 0 156 -16 211 -46v-147c-15 -4 -33 -4 -47 0l-44 111c-32 10 -71 15 -111 15c-180 0 -258 -138 -258 -303c0 -174 79 -302 255 -302c40 0 80 7 115 19z" />
    <glyph glyph-name="Eacute" unicode="&#xc9;" horiz-adv-x="639" 
d="M134 62v596l-93 25c-3 12 -3 25 0 37h540v-157c-15 -4 -33 -4 -47 0l-34 93h-266v-245h194l25 62c12 3 25 3 37 0v-208c-12 -3 -25 -3 -37 0l-25 82h-194v-283h285l35 98c14 4 32 4 47 0v-162h-560c-3 12 -3 25 0 37zM282 816l173 103c15 -22 27 -46 34 -73l-184 -76
c-11 14 -18 30 -23 46z" />
    <glyph glyph-name="Ntilde" unicode="&#xd1;" horiz-adv-x="771" 
d="M190 603v-543l94 -23c3 -12 3 -25 0 -37h-243c-3 12 -3 25 0 37l82 22v602l-82 22c-3 12 -3 25 0 37h200l336 -555h4v495l-94 23c-3 12 -3 25 0 37h243c3 -12 3 -25 0 -37l-82 -22v-661h-87l-367 603h-4zM290 783c-17 -4 -32 -4 -51 0c0 69 33 121 90 121
c53 0 83 -54 126 -54c24 0 35 29 36 56c17 3 33 3 51 0c0 -63 -28 -120 -85 -120c-62 0 -95 54 -130 54c-21 0 -34 -34 -37 -57z" />
    <glyph glyph-name="Odieresis" unicode="&#xd6;" horiz-adv-x="737" 
d="M48 360c0 236 106 370 321 370c224 0 320 -134 320 -370c0 -246 -96 -370 -320 -370c-215 0 -321 124 -321 370zM586 360c0 180 -49 306 -217 306c-159 0 -218 -126 -218 -306s59 -306 218 -306c168 0 217 126 217 306zM225 881c14 3 30 5 46 5c15 0 32 -2 47 -5
c3 -15 5 -31 5 -46s-2 -31 -5 -45c-14 -3 -30 -5 -45 -5c-16 0 -33 2 -48 5c-3 14 -5 30 -5 45s2 31 5 46zM420 881c14 3 30 5 46 5c15 0 32 -2 47 -5c3 -15 5 -31 5 -46s-2 -31 -5 -45c-14 -3 -30 -5 -45 -5c-16 0 -33 2 -48 5c-3 14 -5 30 -5 45s2 31 5 46z" />
    <glyph glyph-name="Udieresis" unicode="&#xdc;" horiz-adv-x="782" 
d="M128 658l-83 25c-3 12 -3 25 0 37h286c3 -12 3 -25 0 -37l-103 -25v-358c0 -162 45 -234 181 -234c131 0 182 77 182 235v359l-94 23c-3 12 -3 25 0 37h243c3 -12 3 -25 0 -37l-82 -22v-351c0 -211 -68 -320 -265 -320c-202 0 -265 104 -265 320v348zM265 881
c14 3 30 5 46 5c15 0 32 -2 47 -5c3 -15 5 -31 5 -46s-2 -31 -5 -45c-14 -3 -30 -5 -45 -5c-16 0 -33 2 -48 5c-3 14 -5 30 -5 45s2 31 5 46zM460 881c14 3 30 5 46 5c15 0 32 -2 47 -5c3 -15 5 -31 5 -46s-2 -31 -5 -45c-14 -3 -30 -5 -45 -5c-16 0 -33 2 -48 5
c-3 14 -5 30 -5 45s2 31 5 46z" />
    <glyph glyph-name="aacute" unicode="&#xe1;" horiz-adv-x="589" 
d="M249 615l112 155c24 -16 44 -33 61 -52l-133 -135c-15 7 -29 18 -40 32zM387 136v135h-29c-79 0 -210 -15 -210 -125c0 -58 35 -91 90 -91c58 0 118 36 149 81zM483 362v-310h75c4 -15 4 -30 0 -45l-103 -16c-28 -4 -68 -2 -68 61v19l-4 1c-42 -53 -108 -82 -171 -82
c-95 0 -162 57 -162 152c0 170 201 177 337 177v55c0 84 -72 106 -143 106c-31 0 -62 -4 -87 -9l-25 -85c-14 -4 -30 -4 -45 0v117c60 21 132 37 195 37c112 0 201 -44 201 -178z" />
    <glyph glyph-name="agrave" unicode="&#xe0;" horiz-adv-x="589" 
d="M387 136v135h-29c-79 0 -210 -15 -210 -125c0 -58 35 -91 90 -91c58 0 118 36 149 81zM483 362v-310h75c4 -15 4 -30 0 -45l-103 -16c-28 -4 -68 -2 -68 61v19l-4 1c-42 -53 -108 -82 -171 -82c-95 0 -162 57 -162 152c0 170 201 177 337 177v55c0 84 -72 106 -143 106
c-31 0 -62 -4 -87 -9l-25 -85c-14 -4 -30 -4 -45 0v117c60 21 132 37 195 37c112 0 201 -44 201 -178zM235 770l112 -155c-10 -14 -25 -25 -40 -32l-133 135c17 19 37 36 61 52z" />
    <glyph glyph-name="acircumflex" unicode="&#xe2;" horiz-adv-x="589" 
d="M387 136v135h-29c-79 0 -210 -15 -210 -125c0 -58 35 -91 90 -91c58 0 118 36 149 81zM483 362v-310h75c4 -15 4 -30 0 -45l-103 -16c-28 -4 -68 -2 -68 61v19l-4 1c-42 -53 -108 -82 -171 -82c-95 0 -162 57 -162 152c0 170 201 177 337 177v55c0 84 -72 106 -143 106
c-31 0 -62 -4 -87 -9l-25 -85c-14 -4 -30 -4 -45 0v117c60 21 132 37 195 37c112 0 201 -44 201 -178zM296 770l124 -152c-9 -14 -21 -26 -37 -35l-91 92h-4l-91 -92c-15 9 -27 20 -37 35l124 152h12z" />
    <glyph glyph-name="adieresis" unicode="&#xe4;" horiz-adv-x="589" 
d="M387 136v135h-29c-79 0 -210 -15 -210 -125c0 -58 35 -91 90 -91c58 0 118 36 149 81zM483 362v-310h75c4 -15 4 -30 0 -45l-103 -16c-28 -4 -68 -2 -68 61v19l-4 1c-42 -53 -108 -82 -171 -82c-95 0 -162 57 -162 152c0 170 201 177 337 177v55c0 84 -72 106 -143 106
c-31 0 -62 -4 -87 -9l-25 -85c-14 -4 -30 -4 -45 0v117c60 21 132 37 195 37c112 0 201 -44 201 -178zM148 712c14 3 31 5 46 5s31 -2 45 -5c3 -15 5 -29 5 -44s-2 -30 -5 -45c-15 -3 -29 -5 -44 -5c-16 0 -32 2 -47 5c-3 15 -5 29 -5 44s2 30 5 45zM342 712c14 3 31 5 46 5
s31 -2 45 -5c3 -15 5 -29 5 -44s-2 -30 -5 -45c-15 -3 -29 -5 -44 -5c-16 0 -32 2 -47 5c-3 15 -5 29 -5 44s2 30 5 45z" />
    <glyph glyph-name="atilde" unicode="&#xe3;" horiz-adv-x="589" 
d="M387 136v135h-29c-79 0 -210 -15 -210 -125c0 -58 35 -91 90 -91c58 0 118 36 149 81zM483 362v-310h75c4 -15 4 -30 0 -45l-103 -16c-28 -4 -68 -2 -68 61v19l-4 1c-42 -53 -108 -82 -171 -82c-95 0 -162 57 -162 152c0 170 201 177 337 177v55c0 84 -72 106 -143 106
c-31 0 -62 -4 -87 -9l-25 -85c-14 -4 -30 -4 -45 0v117c60 21 132 37 195 37c112 0 201 -44 201 -178zM193 605c-17 -4 -32 -4 -51 0c0 69 33 121 90 121c53 0 83 -54 126 -54c24 0 35 29 36 56c17 3 33 3 51 0c0 -63 -28 -120 -85 -120c-62 0 -95 54 -130 54
c-21 0 -34 -34 -37 -57z" />
    <glyph glyph-name="aring" unicode="&#xe5;" horiz-adv-x="589" 
d="M387 136v135h-29c-79 0 -210 -15 -210 -125c0 -58 35 -91 90 -91c58 0 118 36 149 81zM483 362v-310h75c4 -15 4 -30 0 -45l-103 -16c-28 -4 -68 -2 -68 61v19l-4 1c-42 -53 -108 -82 -171 -82c-95 0 -162 57 -162 152c0 170 201 177 337 177v55c0 84 -72 106 -143 106
c-31 0 -62 -4 -87 -9l-25 -85c-14 -4 -30 -4 -45 0v117c60 21 132 37 195 37c112 0 201 -44 201 -178zM190 676c0 57 42 94 98 94s99 -37 99 -94s-43 -93 -99 -93s-98 36 -98 93zM241 676c0 -32 19 -55 47 -55s48 23 48 55s-20 56 -48 56s-47 -24 -47 -56z" />
    <glyph glyph-name="ccedilla" unicode="&#xe7;" horiz-adv-x="506" 
d="M471 155v-122c-36 -21 -79 -33 -123 -39c7 -23 12 -49 12 -74c0 -64 -29 -126 -107 -126c-31 0 -64 10 -83 24c1 16 6 33 14 48c13 -7 27 -11 41 -11c54 0 70 45 70 91c0 16 -2 31 -5 44c-155 3 -245 93 -245 274s103 276 258 276c59 0 118 -13 163 -35v-117
c-15 -4 -30 -4 -45 0l-25 82c-24 6 -50 10 -81 10c-117 0 -172 -85 -172 -216c0 -139 54 -210 179 -210c29 0 56 4 77 10l27 91c14 4 30 4 45 0z" />
    <glyph glyph-name="eacute" unicode="&#xe9;" horiz-adv-x="549" 
d="M499 270h-356v-6c0 -149 65 -213 196 -213c26 0 56 3 78 11l27 88c14 4 29 4 45 0v-117c-51 -26 -119 -43 -185 -43c-169 0 -259 97 -259 275c0 171 90 275 245 275c138 0 212 -98 212 -224c0 -15 -1 -30 -3 -46zM289 482c-91 0 -131 -76 -143 -163l260 16
c0 94 -54 147 -117 147zM245 615l112 155c24 -16 44 -33 61 -52l-133 -135c-15 7 -29 18 -40 32z" />
    <glyph glyph-name="egrave" unicode="&#xe8;" horiz-adv-x="549" 
d="M499 270h-356v-6c0 -149 65 -213 196 -213c26 0 56 3 78 11l27 88c14 4 29 4 45 0v-117c-51 -26 -119 -43 -185 -43c-169 0 -259 97 -259 275c0 171 90 275 245 275c138 0 212 -98 212 -224c0 -15 -1 -30 -3 -46zM289 482c-91 0 -131 -76 -143 -163l260 16
c0 94 -54 147 -117 147zM232 770l112 -155c-10 -14 -25 -25 -40 -32l-133 135c17 19 37 36 61 52z" />
    <glyph glyph-name="ecircumflex" unicode="&#xea;" horiz-adv-x="549" 
d="M499 270h-356v-6c0 -149 65 -213 196 -213c26 0 56 3 78 11l27 88c14 4 29 4 45 0v-117c-51 -26 -119 -43 -185 -43c-169 0 -259 97 -259 275c0 171 90 275 245 275c138 0 212 -98 212 -224c0 -15 -1 -30 -3 -46zM289 482c-91 0 -131 -76 -143 -163l260 16
c0 94 -54 147 -117 147zM296 770l124 -152c-9 -14 -21 -26 -37 -35l-91 92h-4l-91 -92c-15 9 -27 20 -37 35l124 152h12z" />
    <glyph glyph-name="edieresis" unicode="&#xeb;" horiz-adv-x="549" 
d="M499 270h-356v-6c0 -149 65 -213 196 -213c26 0 56 3 78 11l27 88c14 4 29 4 45 0v-117c-51 -26 -119 -43 -185 -43c-169 0 -259 97 -259 275c0 171 90 275 245 275c138 0 212 -98 212 -224c0 -15 -1 -30 -3 -46zM289 482c-91 0 -131 -76 -143 -163l260 16
c0 94 -54 147 -117 147zM140 712c14 3 31 5 46 5s31 -2 45 -5c3 -15 5 -29 5 -44s-2 -30 -5 -45c-15 -3 -29 -5 -44 -5c-16 0 -32 2 -47 5c-3 15 -5 29 -5 44s2 30 5 45zM334 712c14 3 31 5 46 5s31 -2 45 -5c3 -15 5 -29 5 -44s-2 -30 -5 -45c-15 -3 -29 -5 -44 -5
c-16 0 -32 2 -47 5c-3 15 -5 29 -5 44s2 30 5 45z" />
    <glyph glyph-name="iacute" unicode="&#xed;" horiz-adv-x="328" 
d="M122 473h-75c-4 15 -4 30 0 45l121 20c46 8 50 -15 50 -50v-433l75 -20c3 -12 3 -23 0 -35h-246c-3 12 -3 23 0 35l75 20v418zM108 615l112 155c24 -16 44 -33 61 -52l-133 -135c-15 7 -29 18 -40 32z" />
    <glyph glyph-name="igrave" unicode="&#xec;" horiz-adv-x="328" 
d="M122 473h-75c-4 15 -4 30 0 45l121 20c46 8 50 -15 50 -50v-433l75 -20c3 -12 3 -23 0 -35h-246c-3 12 -3 23 0 35l75 20v418zM94 770l112 -155c-10 -14 -25 -25 -40 -32l-133 135c17 19 37 36 61 52z" />
    <glyph glyph-name="icircumflex" unicode="&#xee;" horiz-adv-x="328" 
d="M121 473h-75c-4 15 -4 30 0 45l121 20c46 8 50 -15 50 -50v-433l75 -20c3 -12 3 -23 0 -35h-246c-3 12 -3 23 0 35l75 20v418zM161 770l124 -152c-9 -14 -21 -26 -37 -35l-91 92h-4l-91 -92c-15 9 -27 20 -37 35l124 152h12z" />
    <glyph glyph-name="idieresis" unicode="&#xef;" horiz-adv-x="328" 
d="M123 473h-75c-4 15 -4 30 0 45l121 20c46 8 50 -15 50 -50v-433l75 -20c3 -12 3 -23 0 -35h-246c-3 12 -3 23 0 35l75 20v418zM9 712c14 3 31 5 46 5s31 -2 45 -5c3 -15 5 -29 5 -44s-2 -30 -5 -45c-15 -3 -29 -5 -44 -5c-16 0 -32 2 -47 5c-3 15 -5 29 -5 44s2 30 5 45z
M203 712c14 3 31 5 46 5s31 -2 45 -5c3 -15 5 -29 5 -44s-2 -30 -5 -45c-15 -3 -29 -5 -44 -5c-16 0 -32 2 -47 5c-3 15 -5 29 -5 44s2 30 5 45z" />
    <glyph glyph-name="ntilde" unicode="&#xf1;" horiz-adv-x="664" 
d="M558 347v-292l75 -20c3 -12 3 -23 0 -35h-246c-3 12 -3 23 0 35l75 20v248c0 83 -8 165 -101 165c-51 0 -108 -25 -143 -61v-352l75 -20c3 -13 3 -24 0 -35h-246c-3 12 -3 23 0 35l75 20v418h-75c-4 15 -4 30 0 45l121 20c47 8 50 -13 50 -50v-23l4 -1
c51 54 108 76 164 76c112 0 172 -59 172 -193zM235 605c-17 -4 -32 -4 -51 0c0 69 33 121 90 121c53 0 83 -54 126 -54c24 0 35 29 36 56c17 3 33 3 51 0c0 -63 -28 -120 -85 -120c-62 0 -95 54 -130 54c-21 0 -34 -34 -37 -57z" />
    <glyph glyph-name="oacute" unicode="&#xf3;" horiz-adv-x="582" 
d="M537 265c0 -178 -85 -275 -246 -275s-246 97 -246 275c0 173 85 275 246 275s246 -102 246 -275zM439 265c0 153 -59 215 -148 215s-148 -62 -148 -215s59 -215 148 -215s148 62 148 215zM246 615l112 155c24 -16 44 -33 61 -52l-133 -135c-15 7 -29 18 -40 32z" />
    <glyph glyph-name="ograve" unicode="&#xf2;" horiz-adv-x="582" 
d="M537 265c0 -178 -85 -275 -246 -275s-246 97 -246 275c0 173 85 275 246 275s246 -102 246 -275zM439 265c0 153 -59 215 -148 215s-148 -62 -148 -215s59 -215 148 -215s148 62 148 215zM240 770l112 -155c-10 -14 -25 -25 -40 -32l-133 135c17 19 37 36 61 52z" />
    <glyph glyph-name="ocircumflex" unicode="&#xf4;" horiz-adv-x="582" 
d="M537 265c0 -178 -85 -275 -246 -275s-246 97 -246 275c0 173 85 275 246 275s246 -102 246 -275zM439 265c0 153 -59 215 -148 215s-148 -62 -148 -215s59 -215 148 -215s148 62 148 215zM297 770l124 -152c-9 -14 -21 -26 -37 -35l-91 92h-4l-91 -92
c-15 9 -27 20 -37 35l124 152h12z" />
    <glyph glyph-name="odieresis" unicode="&#xf6;" horiz-adv-x="582" 
d="M537 265c0 -178 -85 -275 -246 -275s-246 97 -246 275c0 173 85 275 246 275s246 -102 246 -275zM439 265c0 153 -59 215 -148 215s-148 -62 -148 -215s59 -215 148 -215s148 62 148 215zM148 712c14 3 31 5 46 5s31 -2 45 -5c3 -15 5 -29 5 -44s-2 -30 -5 -45
c-15 -3 -29 -5 -44 -5c-16 0 -32 2 -47 5c-3 15 -5 29 -5 44s2 30 5 45zM342 712c14 3 31 5 46 5s31 -2 45 -5c3 -15 5 -29 5 -44s-2 -30 -5 -45c-15 -3 -29 -5 -44 -5c-16 0 -32 2 -47 5c-3 15 -5 29 -5 44s2 30 5 45z" />
    <glyph glyph-name="otilde" unicode="&#xf5;" horiz-adv-x="582" 
d="M537 265c0 -178 -85 -275 -246 -275s-246 97 -246 275c0 173 85 275 246 275s246 -102 246 -275zM439 265c0 153 -59 215 -148 215s-148 -62 -148 -215s59 -215 148 -215s148 62 148 215zM191 605c-17 -4 -32 -4 -51 0c0 69 33 121 90 121c53 0 83 -54 126 -54
c24 0 35 29 36 56c17 3 33 3 51 0c0 -63 -28 -120 -85 -120c-62 0 -95 54 -130 54c-21 0 -34 -34 -37 -57z" />
    <glyph glyph-name="uacute" unicode="&#xfa;" horiz-adv-x="651" 
d="M445 473h-75c-4 15 -4 30 0 45l121 20c46 8 50 -15 50 -50v-436h75c4 -15 4 -30 0 -45l-104 -16c-27 -4 -67 -2 -67 61v17l-4 1c-48 -53 -99 -80 -166 -80c-122 0 -169 81 -169 197v286h-75c-4 15 -4 30 0 45l121 20c46 8 50 -15 50 -50v-258c0 -84 5 -170 97 -170
c54 0 102 22 146 70v343zM271 615l112 155c24 -16 44 -33 61 -52l-133 -135c-15 7 -29 18 -40 32z" />
    <glyph glyph-name="ugrave" unicode="&#xf9;" horiz-adv-x="651" 
d="M445 473h-75c-4 15 -4 30 0 45l121 20c46 8 50 -15 50 -50v-436h75c4 -15 4 -30 0 -45l-104 -16c-27 -4 -67 -2 -67 61v17l-4 1c-48 -53 -99 -80 -166 -80c-122 0 -169 81 -169 197v286h-75c-4 15 -4 30 0 45l121 20c46 8 50 -15 50 -50v-258c0 -84 5 -170 97 -170
c54 0 102 22 146 70v343zM257 770l112 -155c-10 -14 -25 -25 -40 -32l-133 135c17 19 37 36 61 52z" />
    <glyph glyph-name="ucircumflex" unicode="&#xfb;" horiz-adv-x="651" 
d="M445 473h-75c-4 15 -4 30 0 45l121 20c46 8 50 -15 50 -50v-436h75c4 -15 4 -30 0 -45l-104 -16c-27 -4 -67 -2 -67 61v17l-4 1c-48 -53 -99 -80 -166 -80c-122 0 -169 81 -169 197v286h-75c-4 15 -4 30 0 45l121 20c46 8 50 -15 50 -50v-258c0 -84 5 -170 97 -170
c54 0 102 22 146 70v343zM323 770l124 -152c-9 -14 -21 -26 -37 -35l-91 92h-4l-91 -92c-15 9 -27 20 -37 35l124 152h12z" />
    <glyph glyph-name="udieresis" unicode="&#xfc;" horiz-adv-x="651" 
d="M445 473h-75c-4 15 -4 30 0 45l121 20c46 8 50 -15 50 -50v-436h75c4 -15 4 -30 0 -45l-104 -16c-27 -4 -67 -2 -67 61v17l-4 1c-48 -53 -99 -80 -166 -80c-122 0 -169 81 -169 197v286h-75c-4 15 -4 30 0 45l121 20c46 8 50 -15 50 -50v-258c0 -84 5 -170 97 -170
c54 0 102 22 146 70v343zM174 712c14 3 31 5 46 5s31 -2 45 -5c3 -15 5 -29 5 -44s-2 -30 -5 -45c-15 -3 -29 -5 -44 -5c-16 0 -32 2 -47 5c-3 15 -5 29 -5 44s2 30 5 45zM368 712c14 3 31 5 46 5s31 -2 45 -5c3 -15 5 -29 5 -44s-2 -30 -5 -45c-15 -3 -29 -5 -44 -5
c-16 0 -32 2 -47 5c-3 15 -5 29 -5 44s2 30 5 45z" />
    <glyph glyph-name="dagger" unicode="&#x2020;" horiz-adv-x="556" 
d="M248 454l-190 -5c-2 11 -3 22 -3 34s1 24 3 36l190 -5l-5 206c11 2 23 3 35 3s23 -1 35 -3l-5 -206l190 5c2 -12 3 -23 3 -35s-1 -24 -3 -35l-190 5l5 -524c-12 -2 -23 -3 -35 -3s-24 1 -35 3z" />
    <glyph glyph-name="degree" unicode="&#xb0;" horiz-adv-x="420" 
d="M35 555c0 102 73 175 175 175s175 -73 175 -175s-73 -175 -175 -175s-175 73 -175 175zM106 555c0 -71 40 -116 104 -116c63 0 103 45 103 116c0 70 -40 115 -103 115c-64 0 -104 -45 -104 -115z" />
    <glyph glyph-name="cent" unicode="&#xa2;" horiz-adv-x="590" 
d="M504 234v-122c-41 -23 -91 -38 -141 -42v-91c-10 -2 -19 -3 -29 -3s-21 1 -31 3v91c-143 10 -225 100 -225 273c0 168 88 261 225 274v103c10 2 20 3 30 3s20 -1 30 -3v-102c49 -4 98 -16 136 -34v-117c-15 -4 -30 -4 -45 0l-25 82c-24 6 -50 10 -81 10
c-117 0 -172 -85 -172 -216c0 -139 54 -210 179 -210c29 0 56 4 77 10l27 91c14 4 30 4 45 0z" />
    <glyph glyph-name="sterling" unicode="&#xa3;" horiz-adv-x="590" 
d="M507 682v-132c-15 -4 -33 -4 -47 0l-41 103c-10 1 -20 2 -29 2c-82 0 -132 -50 -132 -140c0 -41 4 -86 9 -129h154c2 -10 3 -20 3 -30s-1 -20 -3 -30h-146c2 -26 4 -49 4 -71c0 -64 -18 -121 -85 -167v-4h263l29 81c14 4 32 4 47 0v-165h-468v45c89 38 117 125 117 213
c0 22 -1 45 -4 68h-97c-2 10 -3 20 -3 30s1 20 3 30h90c-5 40 -10 79 -10 115c0 138 92 209 226 209c43 0 91 -9 120 -28z" />
    <glyph glyph-name="section" unicode="&#xa7;" horiz-adv-x="535" 
d="M438 693v-117c-16 -4 -31 -4 -45 0l-26 84c-19 7 -43 11 -67 11c-62 0 -126 -27 -126 -85c0 -126 311 -56 311 -274c0 -54 -28 -96 -70 -131c17 -14 41 -51 41 -96c0 -110 -104 -162 -206 -162c-64 0 -129 16 -169 47v117c16 4 31 4 45 0l26 -87c22 -9 52 -15 83 -15
c66 0 136 25 136 91c0 136 -321 75 -321 283c0 40 24 90 80 126c-21 17 -39 54 -39 90c0 97 88 155 199 155c60 0 113 -16 148 -37zM178 455c-36 -27 -51 -59 -51 -85c0 -104 182 -118 239 -154c26 21 41 51 41 83c0 114 -161 113 -229 156z" />
    <glyph glyph-name="bullet" unicode="&#x2022;" horiz-adv-x="426" 
d="M67 289c0 91 55 146 146 146s146 -55 146 -146s-55 -146 -146 -146s-146 55 -146 146z" />
    <glyph glyph-name="paragraph" unicode="&#xb6;" horiz-adv-x="601" 
d="M467 658v-773c-12 -2 -23 -3 -34 -3s-23 1 -33 3v770h-82v-770c-11 -2 -23 -3 -34 -3s-22 1 -33 3v418c-132 0 -211 87 -211 210c0 140 97 207 256 207h264c3 -13 3 -25 0 -37z" />
    <glyph glyph-name="germandbls" unicode="&#xdf;" horiz-adv-x="598" 
d="M298 59c18 -5 40 -8 61 -8c59 0 121 27 121 91c0 45 -25 63 -63 85c-50 28 -112 61 -112 159c0 82 49 142 123 161v58c0 65 -40 95 -97 95c-68 0 -115 -41 -115 -116v-579l-5 -5h-166c-3 12 -3 23 0 35l75 20v420h-75c-3 12 -3 23 0 35l75 19v39c0 129 92 192 212 192
c99 0 192 -43 192 -155v-100c-116 -4 -133 -61 -133 -100c0 -64 57 -83 107 -115s78 -71 78 -129c0 -111 -99 -171 -207 -171c-30 0 -62 4 -89 13c2 20 8 38 18 56z" />
    <glyph glyph-name="registered" unicode="&#xae;" horiz-adv-x="469" 
d="M35 530c0 122 77 200 199 200s200 -78 200 -200s-78 -199 -200 -199s-199 77 -199 199zM87 530c0 -98 49 -158 147 -158s148 60 148 158s-50 159 -148 159s-147 -61 -147 -159zM203 512v-63l17 -5v-15h-79v15l17 5v166l-17 6v18h84c61 0 92 -15 92 -61
c0 -25 -14 -54 -47 -60l56 -69l15 -5v-15h-58l-62 83h-18zM270 578c0 31 -21 35 -51 35h-16v-78h18c34 0 49 10 49 43z" />
    <glyph glyph-name="copyright" unicode="&#xa9;" horiz-adv-x="740" 
d="M50 360c0 196 124 320 320 320s320 -124 320 -320s-124 -320 -320 -320s-320 124 -320 320zM111 360c0 -168 95 -267 259 -267s259 99 259 267s-95 267 -259 267s-259 -99 -259 -267zM468 441l-19 57c-15 4 -32 6 -48 6c-85 0 -108 -63 -108 -149c0 -77 27 -140 103 -140
c18 0 36 4 54 9l22 63c7 2 21 2 28 0v-87c-39 -25 -86 -30 -122 -30c-100 0 -170 64 -170 185c0 134 79 194 189 194c36 0 73 -7 102 -22v-86c-8 -2 -23 -2 -31 0z" />
    <glyph glyph-name="trademark" unicode="&#x2122;" horiz-adv-x="851" 
d="M207 684v-238l38 -11v-24h-140v24l38 11v238h-67l-15 -46h-26v82h280v-82h-26l-15 46h-67zM679 720h123v-30l-41 -10l14 -234l41 -10v-25h-143v25l40 10l-11 218h-4l-100 -253h-57l-89 250h-4l-21 -215l42 -10v-25h-115v25l36 10l22 234l-41 10v30h124l85 -240h4z" />
    <glyph glyph-name="acute" unicode="&#xb4;" horiz-adv-x="400" 
d="M113 615l112 155c24 -16 44 -33 61 -52l-133 -135c-15 7 -29 18 -40 32z" />
    <glyph glyph-name="dieresis" unicode="&#xa8;" horiz-adv-x="400" 
d="M57 712c14 3 31 5 46 5s31 -2 45 -5c3 -15 5 -29 5 -44s-2 -30 -5 -45c-15 -3 -29 -5 -44 -5c-16 0 -32 2 -47 5c-3 15 -5 29 -5 44s2 30 5 45zM251 712c14 3 31 5 46 5s31 -2 45 -5c3 -15 5 -29 5 -44s-2 -30 -5 -45c-15 -3 -29 -5 -44 -5c-16 0 -32 2 -47 5
c-3 15 -5 29 -5 44s2 30 5 45z" />
    <glyph glyph-name="AE" unicode="&#xc6;" horiz-adv-x="1024" 
d="M248 720h718v-157c-15 -4 -33 -4 -47 0l-34 93h-264v-259h192l25 62c12 3 25 3 37 0v-208c-12 -3 -25 -3 -37 0l-25 82h-192v-269h283l35 98c14 4 32 4 47 0v-162h-558c-3 12 -3 25 0 37l93 25v271h-228l-134 -273l97 -23c3 -12 3 -25 0 -37h-248c-3 12 -3 25 0 37l79 21
l290 596l-129 29c-3 12 -3 25 0 37zM521 397v259h-70l-127 -259h197z" />
    <glyph glyph-name="Oslash" unicode="&#xd8;" horiz-adv-x="737" 
d="M48 360c0 236 106 370 321 370c74 0 134 -15 181 -43l55 84c19 -7 36 -19 51 -33l-58 -89c62 -63 91 -161 91 -289c0 -246 -96 -370 -320 -370c-70 0 -127 12 -174 38l-61 -93c-18 7 -36 18 -51 33l62 96c-65 61 -97 160 -97 296zM369 666c-159 0 -218 -126 -218 -306
c0 -88 13 -159 44 -213h4l308 473c-33 29 -78 46 -138 46zM586 360c0 84 -9 154 -37 207h-4l-307 -471c33 -27 76 -42 131 -42c168 0 217 126 217 306z" />
    <glyph glyph-name="plusminus" unicode="&#xb1;" horiz-adv-x="655" 
d="M597 353h-235v-218c-12 -2 -24 -3 -35 -3c-12 0 -23 1 -34 3v218h-235c-2 11 -3 22 -3 33s1 23 3 34h235v215c11 2 22 3 34 3c11 0 23 -1 35 -3v-215h235c2 -12 3 -23 3 -34s-1 -23 -3 -33zM597 0h-539c-2 11 -3 22 -3 33s1 23 3 34h539c2 -12 3 -23 3 -34s-1 -23 -3 -33
z" />
    <glyph glyph-name="yen" unicode="&#xa5;" horiz-adv-x="590" 
d="M374 372h145c3 -15 3 -30 0 -45h-170v-80h170c3 -15 3 -30 0 -45h-170v-140l93 -25c3 -12 3 -25 0 -37h-282c-3 12 -3 25 0 37l93 25v140h-170c-3 15 -3 30 0 45h170v80h-170c-3 14 -3 30 0 45h144l-146 270l-62 21c-3 12 -3 25 0 37h238c3 -12 3 -25 0 -37l-67 -25
l124 -230h4l117 231l-61 24c-3 12 -3 25 0 37h199c3 -12 3 -25 0 -37l-59 -19z" />
    <glyph glyph-name="ae" unicode="&#xe6;" horiz-adv-x="890" 
d="M88 387v116c54 18 125 37 190 37c69 0 137 -20 173 -82h4c38 49 99 81 175 81c134 0 213 -89 213 -220c0 -15 0 -32 -2 -49h-354v-7c0 -141 54 -214 192 -214c28 0 55 4 79 11l27 93c14 4 30 4 45 0v-121c-51 -26 -120 -43 -186 -43c-101 0 -173 34 -214 102h-4
c-49 -61 -128 -101 -212 -101c-94 0 -164 57 -164 155c0 168 208 174 341 174v55c0 85 -73 106 -146 106c-31 0 -63 -4 -87 -9l-25 -84c-14 -4 -30 -4 -45 0zM244 56c62 0 129 34 164 79c-14 36 -20 78 -20 128v9c-86 0 -240 -5 -240 -122c0 -61 34 -94 96 -94zM491 318
l255 16c0 94 -54 147 -116 147c-88 0 -127 -75 -139 -163z" />
    <glyph glyph-name="oslash" unicode="&#xf8;" horiz-adv-x="582" 
d="M537 265c0 -178 -85 -275 -246 -275c-49 0 -91 9 -125 26l-47 -72c-14 6 -27 14 -39 26l46 72c-54 46 -81 121 -81 223c0 173 85 275 246 275c54 0 100 -12 136 -34l45 69c17 -6 30 -14 39 -26l-46 -72c47 -47 72 -119 72 -212zM291 480c-89 0 -148 -62 -148 -215
c0 -67 11 -113 29 -147h4l210 325c-25 25 -57 37 -95 37zM439 265c0 57 -8 99 -22 133h-4l-208 -321c24 -19 53 -27 86 -27c89 0 148 62 148 215z" />
    <glyph glyph-name="questiondown" unicode="&#xbf;" horiz-adv-x="458" 
d="M423 16v-132c-53 -41 -128 -65 -200 -65c-129 0 -195 81 -195 169c0 100 60 142 119 183c55 38 109 63 125 160c18 4 38 4 54 0c13 -225 -192 -186 -192 -329c0 -73 51 -115 128 -115c24 0 50 5 74 16l40 113c14 4 32 4 47 0zM346 529c4 -16 6 -32 6 -48
c0 -17 -2 -34 -6 -51c-16 -4 -33 -6 -50 -6s-34 2 -51 6c-4 15 -6 32 -6 49c0 16 2 33 6 50c17 4 34 6 51 6s34 -2 50 -6z" />
    <glyph glyph-name="exclamdown" unicode="&#xa1;" horiz-adv-x="306" 
d="M185 332l26 -502c-19 -3 -39 -5 -58 -5s-40 2 -58 5l26 502c10 2 21 3 32 3s22 -1 32 -3zM103 530c16 4 33 6 50 6s34 -2 51 -6c4 -17 6 -34 6 -50c0 -17 -2 -34 -6 -49c-17 -4 -34 -6 -51 -6s-34 2 -50 6c-4 17 -6 34 -6 51c0 16 2 32 6 48z" />
    <glyph glyph-name="logicalnot" unicode="&#xac;" horiz-adv-x="655" 
d="M533 140v214h-475c-2 11 -3 22 -3 33s1 23 3 34h537l5 -5v-276c-11 -2 -22 -3 -33 -3s-23 1 -34 3z" />
    <glyph glyph-name="florin" unicode="&#x192;" horiz-adv-x="590" 
d="M463 370h-125l-32 -205c-18 -114 -57 -205 -144 -269c-32 -23 -69 -38 -106 -38s-73 13 -91 57c10 18 24 33 40 45c22 -26 51 -47 90 -47c71 0 103 114 126 262l30 195h-87c-3 16 -3 32 0 50h95l20 123c22 140 101 187 192 187c29 0 61 -5 92 -14l-15 -106
c-15 -3 -29 -3 -43 0l-15 73c-81 10 -108 -40 -122 -126l-22 -137h117c3 -17 3 -33 0 -50z" />
    <glyph glyph-name="guillemotleft" unicode="&#xab;" horiz-adv-x="595" 
d="M55 272l224 220c18 -12 33 -26 45 -43l-163 -179l163 -179c-12 -17 -27 -32 -45 -43l-224 220v4zM267 272l224 220c18 -12 33 -26 45 -43l-163 -179l163 -179c-12 -17 -27 -32 -45 -43l-224 220v4z" />
    <glyph glyph-name="guillemotright" unicode="&#xbb;" horiz-adv-x="595" 
d="M100 492l224 -220v-4l-224 -220c-18 11 -33 26 -45 43l163 179l-163 179c12 17 27 31 45 43zM313 492l224 -220v-4l-224 -220c-18 11 -33 26 -45 43l163 179l-163 179c12 17 27 31 45 43z" />
    <glyph glyph-name="ellipsis" unicode="&#x2026;" horiz-adv-x="1000" 
d="M113 0c-4 16 -6 32 -6 48c0 17 2 34 6 51c16 4 33 6 50 6s34 -2 51 -6c4 -15 6 -32 6 -49c0 -16 -2 -33 -6 -50c-17 -4 -34 -6 -51 -6s-34 2 -50 6zM449 0c-4 16 -6 32 -6 48c0 17 2 34 6 51c16 4 33 6 50 6s34 -2 51 -6c4 -15 6 -32 6 -49c0 -16 -2 -33 -6 -50
c-17 -4 -34 -6 -51 -6s-34 2 -50 6zM785 0c-4 16 -6 32 -6 48c0 17 2 34 6 51c16 4 33 6 50 6s34 -2 51 -6c4 -15 6 -32 6 -49c0 -16 -2 -33 -6 -50c-17 -4 -34 -6 -51 -6s-34 2 -50 6z" />
    <glyph glyph-name="Agrave" unicode="&#xc0;" horiz-adv-x="785" 
d="M577 62l-62 163h-284l-62 -165l97 -23c3 -12 3 -25 0 -37h-248c-3 12 -3 25 0 37l79 21l251 662h87l250 -661l82 -22c3 -12 3 -25 0 -37h-286c-3 12 -3 25 0 37zM371 596l-116 -307h236l-116 307h-4zM302 919l173 -103c-5 -16 -12 -32 -23 -46l-184 76c7 27 19 51 34 73z
" />
    <glyph glyph-name="Atilde" unicode="&#xc3;" horiz-adv-x="785" 
d="M577 62l-62 163h-284l-62 -165l97 -23c3 -12 3 -25 0 -37h-248c-3 12 -3 25 0 37l79 21l251 662h87l250 -661l82 -22c3 -12 3 -25 0 -37h-286c-3 12 -3 25 0 37zM371 596l-116 -307h236l-116 307h-4zM291 783c-17 -4 -32 -4 -51 0c0 69 33 121 90 121
c53 0 83 -54 126 -54c24 0 35 29 36 56c17 3 33 3 51 0c0 -63 -28 -120 -85 -120c-62 0 -95 54 -130 54c-21 0 -34 -34 -37 -57z" />
    <glyph glyph-name="Otilde" unicode="&#xd5;" horiz-adv-x="737" 
d="M48 360c0 236 106 370 321 370c224 0 320 -134 320 -370c0 -246 -96 -370 -320 -370c-215 0 -321 124 -321 370zM586 360c0 180 -49 306 -217 306c-159 0 -218 -126 -218 -306s59 -306 218 -306c168 0 217 126 217 306zM270 783c-17 -4 -32 -4 -51 0c0 69 33 121 90 121
c53 0 83 -54 126 -54c24 0 35 29 36 56c17 3 33 3 51 0c0 -63 -28 -120 -85 -120c-62 0 -95 54 -130 54c-21 0 -34 -34 -37 -57z" />
    <glyph glyph-name="OE" unicode="&#x152;" horiz-adv-x="1003" 
d="M468 720h477v-157c-15 -4 -33 -4 -47 0l-34 93h-269v-245h197l25 62c12 3 25 3 37 0v-208c-12 -3 -25 -3 -37 0l-25 82h-197v-283h288l35 98c14 4 32 4 47 0v-162h-496c-26 -5 -62 -10 -98 -10c-217 0 -323 124 -323 370c0 237 106 370 323 370c32 0 68 -4 97 -10z
M495 71v577c-29 14 -66 20 -103 20c-182 0 -241 -120 -241 -308c0 -187 57 -307 240 -307c37 0 74 6 104 18z" />
    <glyph glyph-name="oe" unicode="&#x153;" horiz-adv-x="944" 
d="M895 269h-367v-7c0 -141 65 -213 205 -213c28 0 55 4 79 11l27 93c14 4 29 4 45 0v-121c-51 -26 -120 -42 -186 -42c-99 0 -176 37 -216 99h-4c-44 -68 -116 -99 -197 -99c-161 0 -236 106 -236 273c0 165 82 277 242 277c83 0 153 -32 191 -103h4c41 60 113 102 202 102
c133 0 213 -89 213 -220c0 -15 0 -33 -2 -50zM292 480c-92 0 -149 -66 -149 -217c0 -145 57 -213 149 -213c105 0 138 104 138 213c0 108 -33 217 -138 217zM532 318l268 16c0 93 -54 147 -116 147c-90 0 -140 -75 -152 -163z" />
    <glyph glyph-name="endash" unicode="&#x2013;" horiz-adv-x="555" 
d="M497 258h-439c-2 10 -3 21 -3 32s1 21 3 32h439c2 -11 3 -21 3 -32s-1 -22 -3 -32z" />
    <glyph glyph-name="emdash" unicode="&#x2014;" horiz-adv-x="1000" 
d="M942 258h-884c-2 10 -3 21 -3 32s1 21 3 32h884c2 -11 3 -21 3 -32s-1 -22 -3 -32z" />
    <glyph glyph-name="quotedblleft" unicode="&#x201c;" horiz-adv-x="420" 
d="M201 736c-30 -45 -49 -103 -49 -181c0 -11 0 -22 1 -33c-15 -3 -31 -4 -46 -4s-30 1 -45 4c-7 117 32 191 108 241c11 -5 22 -14 31 -27zM371 736c-30 -45 -49 -103 -49 -181c0 -11 0 -22 1 -33c-15 -3 -31 -4 -46 -4s-30 1 -45 4c-7 117 32 191 108 241
c11 -5 22 -14 31 -27z" />
    <glyph glyph-name="quotedblright" unicode="&#x201d;" horiz-adv-x="420" 
d="M55 542c30 45 49 103 49 181c0 11 0 22 -1 33c15 3 31 4 46 4s30 -1 45 -4c7 -117 -32 -191 -108 -241c-11 5 -22 14 -31 27zM225 542c30 45 49 103 49 181c0 11 0 22 -1 33c15 3 31 4 46 4s30 -1 45 -4c7 -117 -32 -191 -108 -241c-11 5 -22 14 -31 27z" />
    <glyph glyph-name="quoteleft" unicode="&#x2018;" horiz-adv-x="250" 
d="M201 736c-30 -45 -49 -103 -49 -181c0 -11 0 -22 1 -33c-15 -3 -31 -4 -46 -4s-30 1 -45 4c-7 117 32 191 108 241c11 -5 22 -14 31 -27z" />
    <glyph glyph-name="quoteright" unicode="&#x2019;" horiz-adv-x="250" 
d="M55 542c30 45 49 103 49 181c0 11 0 22 -1 33c15 3 31 4 46 4s30 -1 45 -4c7 -117 -32 -191 -108 -241c-11 5 -22 14 -31 27z" />
    <glyph glyph-name="ydieresis" unicode="&#xff;" horiz-adv-x="583" 
d="M54 -195v135c16 3 31 3 45 0l20 -64c45 0 99 12 159 124l-207 477l-66 18c-3 12 -3 23 0 35h233c3 -12 3 -23 0 -35l-63 -18l152 -353h4l131 351l-72 20c-3 12 -3 23 0 35h192c3 -12 3 -23 0 -35l-53 -14l-142 -374c-95 -249 -175 -308 -296 -308c-9 0 -21 0 -32 1z
M164 712c14 3 31 5 46 5s31 -2 45 -5c3 -15 5 -29 5 -44s-2 -30 -5 -45c-15 -3 -29 -5 -44 -5c-16 0 -32 2 -47 5c-3 15 -5 29 -5 44s2 30 5 45zM358 712c14 3 31 5 46 5s31 -2 45 -5c3 -15 5 -29 5 -44s-2 -30 -5 -45c-15 -3 -29 -5 -44 -5c-16 0 -32 2 -47 5
c-3 15 -5 29 -5 44s2 30 5 45z" />
    <glyph glyph-name="Ydieresis" unicode="&#x178;" horiz-adv-x="701" 
d="M406 278v-216l93 -25c3 -12 3 -25 0 -37h-286c-3 12 -3 25 0 37l93 25v216l-216 384l-77 21c-3 12 -3 25 0 37h286c3 -12 3 -25 0 -37l-97 -25l169 -300h4l161 301l-91 24c-3 12 -3 25 0 37h243c3 -12 3 -25 0 -37l-69 -19zM226 881c14 3 30 5 46 5c15 0 32 -2 47 -5
c3 -15 5 -31 5 -46s-2 -31 -5 -45c-14 -3 -30 -5 -45 -5c-16 0 -33 2 -48 5c-3 14 -5 30 -5 45s2 31 5 46zM421 881c14 3 30 5 46 5c15 0 32 -2 47 -5c3 -15 5 -31 5 -46s-2 -31 -5 -45c-14 -3 -30 -5 -45 -5c-16 0 -33 2 -48 5c-3 14 -5 30 -5 45s2 31 5 46z" />
    <glyph glyph-name="fraction" unicode="&#x2044;" horiz-adv-x="167" 
d="M-155 0l426 730c20 -8 37 -17 51 -30l-425 -731c-21 7 -38 17 -52 31z" />
    <glyph glyph-name="Euro" unicode="&#x20ac;" horiz-adv-x="590" 
d="M471 71l48 126c12 4 33 4 47 0v-148c-60 -40 -130 -59 -198 -59c-152 0 -279 89 -295 277h-65c-4 18 -4 37 0 55h61v27c0 14 0 29 1 43h-62c-4 17 -4 36 0 55h69c28 176 156 263 309 263c60 0 121 -15 176 -46v-147c-14 -4 -34 -4 -47 0l-47 117c-26 8 -50 12 -74 12
c-110 0 -198 -80 -216 -199h278c4 -18 4 -37 0 -55h-286c-1 -14 -1 -29 -1 -43v-27h287c4 -19 4 -38 0 -55h-282c10 -124 100 -212 213 -212c27 0 55 5 84 16z" />
    <glyph glyph-name="guilsinglleft" unicode="&#x2039;" horiz-adv-x="379" 
d="M55 272l224 220c18 -12 33 -26 45 -43l-163 -179l163 -179c-12 -17 -27 -32 -45 -43l-224 220v4z" />
    <glyph glyph-name="guilsinglright" unicode="&#x203a;" horiz-adv-x="379" 
d="M100 492l224 -220v-4l-224 -220c-18 11 -33 26 -45 43l163 179l-163 179c12 17 27 31 45 43z" />
    <glyph glyph-name="daggerdbl" unicode="&#x2021;" horiz-adv-x="556" 
d="M248 453l-190 -5c-2 11 -3 23 -3 35s1 23 3 35l190 -5l-5 207c11 2 23 3 35 3s23 -1 35 -3l-5 -207l190 5c2 -12 3 -23 3 -35s-1 -24 -3 -35l-190 5v-256l190 5c2 -12 3 -23 3 -35s-1 -24 -3 -35l-190 5l5 -207c-12 -2 -23 -3 -35 -3s-24 1 -35 3l5 207l-190 -5
c-2 11 -3 23 -3 35s1 23 3 35l190 -5v256z" />
    <glyph glyph-name="periodcentered" unicode="&#xb7;" horiz-adv-x="275" 
d="M87 245c-4 16 -6 32 -6 48c0 17 2 34 6 51c16 4 33 6 50 6s34 -2 51 -6c4 -15 6 -32 6 -49c0 -16 -2 -33 -6 -50c-17 -4 -34 -6 -51 -6s-34 2 -50 6z" />
    <glyph glyph-name="quotesinglbase" unicode="&#x201a;" horiz-adv-x="250" 
d="M55 -110c30 45 49 103 49 181c0 11 0 22 -1 33c15 3 31 4 46 4s30 -1 45 -4c7 -117 -32 -191 -108 -241c-11 5 -22 14 -31 27z" />
    <glyph glyph-name="quotedblbase" unicode="&#x201e;" horiz-adv-x="420" 
d="M55 -110c30 45 49 103 49 181c0 11 0 22 -1 33c15 3 31 4 46 4s30 -1 45 -4c7 -117 -32 -191 -108 -241c-11 5 -22 14 -31 27zM225 -110c30 45 49 103 49 181c0 11 0 22 -1 33c15 3 31 4 46 4s30 -1 45 -4c7 -117 -32 -191 -108 -241c-11 5 -22 14 -31 27z" />
    <glyph glyph-name="perthousand" unicode="&#x2030;" horiz-adv-x="1256" 
d="M909 195c0 129 60 204 162 204c104 0 163 -75 163 -204c0 -135 -59 -205 -163 -205c-102 0 -161 70 -162 205zM1150 195c0 99 -22 159 -79 159c-56 0 -78 -60 -78 -159c0 -98 22 -160 78 -160c57 0 79 62 79 160zM204 0l426 730c20 -8 37 -17 51 -30l-425 -731
c-21 7 -38 17 -52 31zM40 506c0 129 60 204 162 204c104 0 163 -75 163 -204c0 -135 -59 -205 -163 -205c-102 0 -161 70 -162 205zM281 506c0 99 -22 159 -79 159c-56 0 -78 -60 -78 -159c0 -98 22 -160 78 -160c57 0 79 62 79 160zM517 195c0 129 60 204 162 204
c104 0 163 -75 163 -204c0 -135 -59 -205 -163 -205c-102 0 -161 70 -162 205zM758 195c0 99 -22 159 -79 159c-56 0 -78 -60 -78 -159c0 -98 22 -160 78 -160c57 0 79 62 79 160z" />
    <glyph glyph-name="Acircumflex" unicode="&#xc2;" horiz-adv-x="785" 
d="M577 62l-62 163h-284l-62 -165l97 -23c3 -12 3 -25 0 -37h-248c-3 12 -3 25 0 37l79 21l251 662h87l250 -661l82 -22c3 -12 3 -25 0 -37h-286c-3 12 -3 25 0 37zM371 596l-116 -307h236l-116 307h-4zM396 919l143 -105c-7 -16 -16 -30 -29 -44l-119 71l-119 -71
c-13 14 -22 28 -29 44l143 105h10z" />
    <glyph glyph-name="Ecircumflex" unicode="&#xca;" horiz-adv-x="639" 
d="M134 62v596l-93 25c-3 12 -3 25 0 37h540v-157c-15 -4 -33 -4 -47 0l-34 93h-266v-245h194l25 62c12 3 25 3 37 0v-208c-12 -3 -25 -3 -37 0l-25 82h-194v-283h285l35 98c14 4 32 4 47 0v-162h-560c-3 12 -3 25 0 37zM348 919l143 -105c-7 -16 -16 -30 -29 -44l-119 71
l-119 -71c-13 14 -22 28 -29 44l143 105h10z" />
    <glyph glyph-name="Aacute" unicode="&#xc1;" horiz-adv-x="785" 
d="M577 62l-62 163h-284l-62 -165l97 -23c3 -12 3 -25 0 -37h-248c-3 12 -3 25 0 37l79 21l251 662h87l250 -661l82 -22c3 -12 3 -25 0 -37h-286c-3 12 -3 25 0 37zM371 596l-116 -307h236l-116 307h-4zM309 816l173 103c15 -22 27 -46 34 -73l-184 -76
c-11 14 -18 30 -23 46z" />
    <glyph glyph-name="Edieresis" unicode="&#xcb;" horiz-adv-x="639" 
d="M134 62v596l-93 25c-3 12 -3 25 0 37h540v-157c-15 -4 -33 -4 -47 0l-34 93h-266v-245h194l25 62c12 3 25 3 37 0v-208c-12 -3 -25 -3 -37 0l-25 82h-194v-283h285l35 98c14 4 32 4 47 0v-162h-560c-3 12 -3 25 0 37zM195 881c14 3 30 5 46 5c15 0 32 -2 47 -5
c3 -15 5 -31 5 -46s-2 -31 -5 -45c-14 -3 -30 -5 -45 -5c-16 0 -33 2 -48 5c-3 14 -5 30 -5 45s2 31 5 46zM390 881c14 3 30 5 46 5c15 0 32 -2 47 -5c3 -15 5 -31 5 -46s-2 -31 -5 -45c-14 -3 -30 -5 -45 -5c-16 0 -33 2 -48 5c-3 14 -5 30 -5 45s2 31 5 46z" />
    <glyph glyph-name="Egrave" unicode="&#xc8;" horiz-adv-x="639" 
d="M134 62v596l-93 25c-3 12 -3 25 0 37h540v-157c-15 -4 -33 -4 -47 0l-34 93h-266v-245h194l25 62c12 3 25 3 37 0v-208c-12 -3 -25 -3 -37 0l-25 82h-194v-283h285l35 98c14 4 32 4 47 0v-162h-560c-3 12 -3 25 0 37zM218 919l173 -103c-5 -16 -12 -32 -23 -46l-184 76
c7 27 19 51 34 73z" />
    <glyph glyph-name="Iacute" unicode="&#xcd;" horiz-adv-x="368" 
d="M134 658l-93 25c-3 12 -3 25 0 37h286c3 -12 3 -25 0 -37l-93 -25v-596l93 -25c3 -12 3 -25 0 -37h-286c-3 12 -3 25 0 37l93 25v596zM118 816l173 103c15 -22 27 -46 34 -73l-184 -76c-11 14 -18 30 -23 46z" />
    <glyph glyph-name="Icircumflex" unicode="&#xce;" horiz-adv-x="368" 
d="M134 658l-93 25c-3 12 -3 25 0 37h286c3 -12 3 -25 0 -37l-93 -25v-596l93 -25c3 -12 3 -25 0 -37h-286c-3 12 -3 25 0 37l93 25v596zM189 919l143 -105c-7 -16 -16 -30 -29 -44l-119 71l-119 -71c-13 14 -22 28 -29 44l143 105h10z" />
    <glyph glyph-name="Idieresis" unicode="&#xcf;" horiz-adv-x="368" 
d="M134 658l-93 25c-3 12 -3 25 0 37h286c3 -12 3 -25 0 -37l-93 -25v-596l93 -25c3 -12 3 -25 0 -37h-286c-3 12 -3 25 0 37l93 25v596zM40 881c14 3 30 5 46 5c15 0 32 -2 47 -5c3 -15 5 -31 5 -46s-2 -31 -5 -45c-14 -3 -30 -5 -45 -5c-16 0 -33 2 -48 5
c-3 14 -5 30 -5 45s2 31 5 46zM235 881c14 3 30 5 46 5c15 0 32 -2 47 -5c3 -15 5 -31 5 -46s-2 -31 -5 -45c-14 -3 -30 -5 -45 -5c-16 0 -33 2 -48 5c-3 14 -5 30 -5 45s2 31 5 46z" />
    <glyph glyph-name="Igrave" unicode="&#xcc;" horiz-adv-x="368" 
d="M134 658l-93 25c-3 12 -3 25 0 37h286c3 -12 3 -25 0 -37l-93 -25v-596l93 -25c3 -12 3 -25 0 -37h-286c-3 12 -3 25 0 37l93 25v596zM77 919l173 -103c-5 -16 -12 -32 -23 -46l-184 76c7 27 19 51 34 73z" />
    <glyph glyph-name="Oacute" unicode="&#xd3;" horiz-adv-x="737" 
d="M48 360c0 236 106 370 321 370c224 0 320 -134 320 -370c0 -246 -96 -370 -320 -370c-215 0 -321 124 -321 370zM586 360c0 180 -49 306 -217 306c-159 0 -218 -126 -218 -306s59 -306 218 -306c168 0 217 126 217 306zM292 816l173 103c15 -22 27 -46 34 -73l-184 -76
c-11 14 -18 30 -23 46z" />
    <glyph glyph-name="Ocircumflex" unicode="&#xd4;" horiz-adv-x="737" 
d="M48 360c0 236 106 370 321 370c224 0 320 -134 320 -370c0 -246 -96 -370 -320 -370c-215 0 -321 124 -321 370zM586 360c0 180 -49 306 -217 306c-159 0 -218 -126 -218 -306s59 -306 218 -306c168 0 217 126 217 306zM375 919l143 -105c-7 -16 -16 -30 -29 -44l-119 71
l-119 -71c-13 14 -22 28 -29 44l143 105h10z" />
    <glyph glyph-name="Ograve" unicode="&#xd2;" horiz-adv-x="737" 
d="M48 360c0 236 106 370 321 370c224 0 320 -134 320 -370c0 -246 -96 -370 -320 -370c-215 0 -321 124 -321 370zM586 360c0 180 -49 306 -217 306c-159 0 -218 -126 -218 -306s59 -306 218 -306c168 0 217 126 217 306zM283 919l173 -103c-5 -16 -12 -32 -23 -46l-184 76
c7 27 19 51 34 73z" />
    <glyph glyph-name="Uacute" unicode="&#xda;" horiz-adv-x="782" 
d="M128 658l-83 25c-3 12 -3 25 0 37h286c3 -12 3 -25 0 -37l-103 -25v-358c0 -162 45 -234 181 -234c131 0 182 77 182 235v359l-94 23c-3 12 -3 25 0 37h243c3 -12 3 -25 0 -37l-82 -22v-351c0 -211 -68 -320 -265 -320c-202 0 -265 104 -265 320v348zM344 816l173 103
c15 -22 27 -46 34 -73l-184 -76c-11 14 -18 30 -23 46z" />
    <glyph glyph-name="Ucircumflex" unicode="&#xdb;" horiz-adv-x="782" 
d="M128 658l-83 25c-3 12 -3 25 0 37h286c3 -12 3 -25 0 -37l-103 -25v-358c0 -162 45 -234 181 -234c131 0 182 77 182 235v359l-94 23c-3 12 -3 25 0 37h243c3 -12 3 -25 0 -37l-82 -22v-351c0 -211 -68 -320 -265 -320c-202 0 -265 104 -265 320v348zM414 919l143 -105
c-7 -16 -16 -30 -29 -44l-119 71l-119 -71c-13 14 -22 28 -29 44l143 105h10z" />
    <glyph glyph-name="Ugrave" unicode="&#xd9;" horiz-adv-x="782" 
d="M128 658l-83 25c-3 12 -3 25 0 37h286c3 -12 3 -25 0 -37l-103 -25v-358c0 -162 45 -234 181 -234c131 0 182 77 182 235v359l-94 23c-3 12 -3 25 0 37h243c3 -12 3 -25 0 -37l-82 -22v-351c0 -211 -68 -320 -265 -320c-202 0 -265 104 -265 320v348zM298 919l173 -103
c-5 -16 -12 -32 -23 -46l-184 76c7 27 19 51 34 73z" />
    <glyph glyph-name="dotlessi" unicode="&#x131;" horiz-adv-x="328" 
d="M122 473h-75c-4 15 -4 30 0 45l121 20c46 8 50 -15 50 -50v-433l75 -20c3 -12 3 -23 0 -35h-246c-3 12 -3 23 0 35l75 20v418z" />
    <glyph glyph-name="circumflex" unicode="&#x2c6;" horiz-adv-x="400" 
d="M206 770l124 -152c-9 -14 -21 -26 -37 -35l-91 92h-4l-91 -92c-15 9 -27 20 -37 35l124 152h12z" />
    <glyph glyph-name="macron" unicode="&#xaf;" horiz-adv-x="400" 
d="M340 620h-281c-2 11 -3 23 -3 35s1 23 3 35h281c2 -12 3 -23 3 -35s-1 -24 -3 -35z" />
    <glyph glyph-name="breve" unicode="&#x2d8;" horiz-adv-x="400" 
d="M60 738c9 2 19 3 29 3s20 -1 30 -3c6 -45 25 -79 81 -79s75 34 81 79c10 2 20 3 30 3s20 -1 29 -3c0 -81 -47 -143 -140 -143s-140 62 -140 143z" />
    <glyph glyph-name="dotaccent" unicode="&#x2d9;" horiz-adv-x="400" 
d="M151 620c-3 15 -5 31 -5 46c0 16 2 32 5 49c16 3 32 5 48 5s33 -2 49 -5c3 -15 5 -31 5 -47c0 -15 -2 -31 -5 -48c-16 -4 -33 -5 -49 -5s-32 1 -48 5z" />
    <glyph glyph-name="ring" unicode="&#x2da;" horiz-adv-x="400" 
d="M101 676c0 57 42 94 98 94s99 -37 99 -94s-43 -93 -99 -93s-98 36 -98 93zM152 676c0 -32 19 -55 47 -55s48 23 48 55s-20 56 -48 56s-47 -24 -47 -56z" />
    <glyph glyph-name="cedilla" unicode="&#xb8;" horiz-adv-x="400" 
d="M222 4h57c10 -25 16 -55 16 -84c0 -64 -29 -126 -107 -126c-31 0 -64 10 -83 24c1 16 6 33 14 48c13 -7 27 -11 41 -11c54 0 70 45 70 91c0 21 -3 41 -8 58z" />
    <glyph glyph-name="hungarumlaut" unicode="&#x2dd;" horiz-adv-x="400" 
d="M30 615l102 155c26 -15 47 -31 62 -51l-124 -136c-15 7 -30 18 -40 32zM205 615l102 155c26 -15 47 -31 62 -51l-124 -136c-15 7 -30 18 -40 32z" />
    <glyph glyph-name="ogonek" unicode="&#x2db;" horiz-adv-x="400" 
d="M121 4h57c-5 -17 -8 -37 -8 -58c0 -46 16 -91 70 -91c14 0 28 4 41 11c8 -15 13 -32 14 -48c-19 -14 -52 -24 -83 -24c-78 0 -107 62 -107 126c0 29 6 59 16 84z" />
    <glyph glyph-name="caron" unicode="&#x2c7;" horiz-adv-x="400" 
d="M330 735l-124 -152h-12l-124 152c9 13 22 25 37 35l91 -92h4l91 92c15 -9 29 -22 37 -35z" />
    <glyph glyph-name="Lslash" unicode="&#x141;" horiz-adv-x="585" 
d="M573 0h-532c-3 12 -3 25 0 37l93 25v233l-89 -67l-4 1v55l93 70v304l-93 25c-3 12 -3 25 0 37h286c3 -12 3 -25 0 -37l-93 -25v-228l128 97l4 -1v-55l-132 -100v-307h250l42 107c14 4 32 4 47 0v-171z" />
    <glyph glyph-name="lslash" unicode="&#x142;" horiz-adv-x="348" 
d="M226 408v-353l75 -20c3 -12 3 -23 0 -35h-246c-3 12 -3 23 0 35l75 20v280l-71 -54l-4 1v55l75 57v299h-75c-4 16 -4 31 0 45l121 20c46 8 50 -15 50 -50v-241l82 62l4 -1v-55z" />
    <glyph glyph-name="Scaron" unicode="&#x160;" horiz-adv-x="588" 
d="M45 45v152c15 4 33 4 47 0l47 -124c30 -10 65 -15 105 -15c97 0 209 32 209 137c0 45 -21 68 -53 86c-69 39 -175 41 -251 81c-53 28 -93 74 -93 161c0 149 129 207 264 207c73 0 143 -17 196 -45v-147c-15 -4 -33 -4 -47 0l-44 115c-27 8 -57 13 -90 13
c-91 0 -184 -35 -184 -132c0 -84 79 -101 169 -122c110 -25 230 -53 230 -199c0 -158 -145 -223 -296 -223c-79 0 -155 19 -209 55zM444 875l-143 -105h-10l-143 105c7 16 16 30 29 44l119 -71l119 71c13 -14 22 -28 29 -44z" />
    <glyph glyph-name="scaron" unicode="&#x161;" horiz-adv-x="471" 
d="M86 152l26 -86c25 -11 58 -18 94 -18c72 0 146 26 146 97c0 56 -63 64 -135 81c-82 19 -167 46 -167 153c0 120 104 161 211 161c55 0 109 -12 152 -29v-117c-15 -4 -30 -4 -45 0l-24 79c-21 6 -46 9 -73 9c-66 0 -132 -21 -132 -89c0 -63 78 -73 160 -92
c73 -17 142 -51 142 -144c0 -121 -111 -167 -224 -167c-66 0 -132 15 -176 40v122c15 4 30 4 45 0zM374 735l-124 -152h-12l-124 152c9 13 22 25 37 35l91 -92h4l91 92c15 -9 29 -22 37 -35z" />
    <glyph glyph-name="Zcaron" unicode="&#x17d;" horiz-adv-x="621" 
d="M60 720h515v-64l-423 -592h350l42 107c14 4 32 4 47 0v-171h-559v64l417 592h-303l-39 -102c-14 -4 -32 -4 -47 0v166zM465 875l-143 -105h-10l-143 105c7 16 16 30 29 44l119 -71l119 71c13 -14 22 -28 29 -44z" />
    <glyph glyph-name="zcaron" unicode="&#x17e;" horiz-adv-x="505" 
d="M337 470h-228l-25 -77c-14 -4 -29 -4 -45 0v137h420v-60l-307 -406l1 -4h250l25 82c15 4 30 4 45 0v-142h-441v60l306 406zM383 735l-124 -152h-12l-124 152c9 13 22 25 37 35l91 -92h4l91 92c15 -9 29 -22 37 -35z" />
    <glyph glyph-name="brokenbar" unicode="&#xa6;" horiz-adv-x="292" 
d="M177 325h-62l-5 5v385l5 5h62l5 -5v-385zM115 215h62l5 -5v-385l-5 -5h-62l-5 5v385z" />
    <glyph glyph-name="Eth" unicode="&#xd0;" horiz-adv-x="736" 
d="M139 406v252l-93 25c-3 12 -3 25 0 37h292c246 0 351 -124 351 -360c0 -246 -105 -360 -351 -360h-292c-3 12 -3 25 0 37l93 25v289h-93c-4 18 -4 37 0 55h93zM239 351v-287h95c189 0 252 116 252 296s-66 296 -252 296h-95v-250h166c4 -19 4 -37 0 -55h-166z" />
    <glyph glyph-name="eth" unicode="&#xf0;" horiz-adv-x="584" 
d="M364 700l104 52c10 -14 18 -30 22 -46l-83 -42c94 -91 132 -236 132 -387c0 -161 -70 -287 -249 -287c-165 0 -245 97 -245 268c0 164 86 261 242 261c48 0 95 -12 129 -39l4 1c-16 63 -44 112 -82 148l-128 -64c-11 14 -18 30 -23 46l102 51v4c-50 30 -106 40 -169 36
c-7 20 -8 40 -2 58c103 5 184 -18 246 -60zM437 258c0 117 -33 202 -146 202c-110 0 -148 -86 -148 -202c0 -138 55 -208 147 -208c93 0 147 69 147 208z" />
    <glyph glyph-name="Yacute" unicode="&#xdd;" horiz-adv-x="701" 
d="M406 278v-216l93 -25c3 -12 3 -25 0 -37h-286c-3 12 -3 25 0 37l93 25v216l-216 384l-77 21c-3 12 -3 25 0 37h286c3 -12 3 -25 0 -37l-97 -25l169 -300h4l161 301l-91 24c-3 12 -3 25 0 37h243c3 -12 3 -25 0 -37l-69 -19zM314 816l173 103c15 -22 27 -46 34 -73
l-184 -76c-11 14 -18 30 -23 46z" />
    <glyph glyph-name="yacute" unicode="&#xfd;" horiz-adv-x="583" 
d="M54 -195v135c16 3 31 3 45 0l20 -64c45 0 99 12 159 124l-207 477l-66 18c-3 12 -3 23 0 35h233c3 -12 3 -23 0 -35l-63 -18l152 -353h4l131 351l-72 20c-3 12 -3 23 0 35h192c3 -12 3 -23 0 -35l-53 -14l-142 -374c-95 -249 -175 -308 -296 -308c-9 0 -21 0 -32 1z
M269 615l112 155c24 -16 44 -33 61 -52l-133 -135c-15 7 -29 18 -40 32z" />
    <glyph glyph-name="Thorn" unicode="&#xde;" horiz-adv-x="573" 
d="M134 658l-93 25c-3 12 -3 25 0 37h286c3 -12 3 -25 0 -37l-93 -25v-87h16c253 0 291 -101 291 -211c0 -100 -34 -203 -307 -210v-88l93 -25c3 -12 3 -25 0 -37h-286c-3 12 -3 25 0 37l93 25v596zM438 360c0 117 -70 145 -204 148v-298c134 3 204 33 204 150z" />
    <glyph glyph-name="thorn" unicode="&#xfe;" horiz-adv-x="596" 
d="M198 8v-153l75 -20c3 -12 3 -23 0 -35h-246c-3 11 -3 22 0 35l75 20v838h-75c-4 15 -4 30 0 45l121 20c46 8 50 -15 50 -50v-243l4 -1c41 46 87 76 155 76c132 0 194 -123 194 -255c0 -171 -104 -295 -252 -295c-32 0 -66 6 -101 18zM198 398v-341c24 -6 49 -9 71 -9
c107 0 184 72 184 222c0 101 -30 202 -129 202c-52 0 -95 -30 -126 -74z" />
    <glyph glyph-name="minus" unicode="&#x2212;" horiz-adv-x="655" 
d="M597 239h-539c-2 11 -3 22 -3 33s1 23 3 34h539c2 -12 3 -23 3 -34s-1 -23 -3 -33z" />
    <glyph glyph-name="multiply" unicode="&#xd7;" horiz-adv-x="655" 
d="M603 492l-227 -227l227 -226c-14 -19 -30 -35 -49 -49l-227 227l-226 -227c-19 14 -35 30 -49 49l227 226l-227 227c14 19 30 35 49 49l226 -227l227 227c19 -14 35 -30 49 -49z" />
    <glyph glyph-name="one.superior" unicode="&#xb9;" 
d="M243 813v-297l74 -15v-30h-225v30l74 15v293h-94v35l101 24c14 3 23 5 36 5c32 0 34 -24 34 -60z" />
    <glyph glyph-name="two.superior" unicode="&#xb2;" 
d="M148 542h185v-72h-281v47l112 101c43 39 81 79 81 136c0 52 -36 76 -75 76c-14 0 -29 -3 -42 -9l-35 -78h-26v98c29 21 71 32 112 32c75 0 149 -36 149 -116c0 -68 -46 -106 -100 -147l-83 -63z" />
    <glyph glyph-name="three.superior" unicode="&#xb3;" 
d="M62 751v93c29 18 76 29 121 29c70 0 138 -27 138 -94c0 -55 -41 -89 -91 -93v-4c49 -6 105 -25 105 -95c0 -87 -86 -124 -170 -124c-41 0 -82 9 -110 25v95h26l28 -68c15 -4 33 -6 50 -6c48 0 95 19 95 80c0 52 -49 70 -103 70h-25v41h22c59 0 93 14 93 69
c0 45 -36 62 -73 62c-19 0 -38 -4 -53 -11l-27 -69h-26z" />
    <glyph glyph-name="onehalf" unicode="&#xbd;" horiz-adv-x="885" 
d="M193 0l426 730c20 -8 37 -17 51 -30l-425 -731c-21 7 -38 17 -52 31zM233 650v-297l74 -15v-30h-225v30l74 15v293h-94v35l101 24c14 3 23 5 36 5c32 0 34 -24 34 -60zM636 72h185v-72h-281v47l112 101c43 39 81 79 81 136c0 52 -36 76 -75 76c-14 0 -29 -3 -42 -9
l-35 -78h-26v98c29 21 71 32 112 32c75 0 149 -36 149 -116c0 -68 -46 -106 -100 -147l-83 -63z" />
    <glyph glyph-name="onequarter" unicode="&#xbc;" horiz-adv-x="885" 
d="M211 0l426 730c20 -8 37 -17 51 -30l-425 -731c-21 7 -38 17 -52 31zM665 108h-183v41l214 254h46v-254h55v-41h-55v-71l55 -9v-28h-184v28l52 9v71zM536 149h129v147h-5l-125 -144zM251 650v-297l74 -15v-30h-225v30l74 15v293h-94v35l101 24c14 3 23 5 36 5
c32 0 34 -24 34 -60z" />
    <glyph glyph-name="threequarters" unicode="&#xbe;" horiz-adv-x="885" 
d="M224 0l426 730c20 -8 37 -17 51 -30l-425 -731c-21 7 -38 17 -52 31zM90 588v93c29 18 76 29 121 29c70 0 138 -27 138 -94c0 -55 -41 -89 -91 -93v-4c49 -6 105 -25 105 -95c0 -87 -86 -124 -170 -124c-41 0 -82 9 -110 25v95h26l28 -68c15 -4 33 -6 50 -6
c48 0 95 19 95 80c0 52 -49 70 -103 70h-25v41h22c59 0 93 14 93 69c0 45 -36 62 -73 62c-19 0 -38 -4 -53 -11l-27 -69h-26zM676 108h-183v41l214 254h46v-254h55v-41h-55v-71l55 -9v-28h-184v28l52 9v71zM547 149h129v147h-5l-125 -144z" />
    <glyph glyph-name="Gbreve" unicode="&#x11e;" horiz-adv-x="734" 
d="M629 297v-307h-25c-40 0 -54 15 -62 32c-46 -21 -102 -32 -159 -32c-224 0 -335 146 -335 372c0 220 125 368 359 368c81 0 164 -15 222 -45v-147c-15 -4 -33 -4 -47 0l-44 111c-34 10 -75 15 -116 15c-190 0 -271 -128 -271 -303c0 -186 84 -302 268 -302
c41 0 81 8 113 26v203l-117 25c-3 12 -3 25 0 37h267c3 -12 3 -25 0 -37zM246 907c10 2 20 3 30 3s19 -1 29 -3c6 -39 26 -68 81 -68s74 29 82 68c10 2 19 3 29 3s20 -1 30 -3c-2 -65 -43 -131 -141 -131s-137 66 -140 131z" />
    <glyph glyph-name="gbreve" unicode="&#x11f;" horiz-adv-x="553" 
d="M470 349c0 -124 -71 -189 -205 -189c-37 0 -69 5 -96 14c-16 -14 -24 -32 -24 -47c0 -45 74 -45 119 -45h93c85 0 173 -18 173 -116c0 -127 -140 -171 -277 -171c-78 0 -152 15 -198 36v117c16 3 31 3 45 0l25 -71c27 -13 82 -22 139 -22c87 0 177 22 177 87
c0 46 -51 49 -93 49h-101c-69 0 -186 10 -186 104c0 38 23 72 66 99v4c-44 31 -66 80 -66 151c0 120 71 191 204 191c41 0 77 -7 106 -20h164c3 -17 3 -33 0 -50h-100l-1 -3c25 -31 36 -69 36 -118zM372 349c0 103 -37 131 -107 131c-69 0 -106 -29 -106 -131
c0 -98 35 -128 106 -128c69 0 107 29 107 128zM125 738c9 2 19 3 29 3s20 -1 30 -3c6 -45 25 -79 81 -79s75 34 81 79c10 2 20 3 30 3s20 -1 29 -3c0 -81 -47 -143 -140 -143s-140 62 -140 143z" />
    <glyph glyph-name="Idotaccent" unicode="&#x130;" horiz-adv-x="368" 
d="M134 658l-93 25c-3 12 -3 25 0 37h286c3 -12 3 -25 0 -37l-93 -25v-596l93 -25c3 -12 3 -25 0 -37h-286c-3 12 -3 25 0 37l93 25v596zM136 780c-3 15 -5 31 -5 46c0 16 2 32 5 49c16 3 32 5 48 5s33 -2 49 -5c3 -15 5 -31 5 -47c0 -15 -2 -31 -5 -48
c-16 -4 -33 -5 -49 -5s-32 1 -48 5z" />
    <glyph glyph-name="Scedilla" unicode="&#x15e;" horiz-adv-x="588" 
d="M45 45v152c15 4 33 4 47 0l47 -124c30 -10 65 -15 105 -15c97 0 209 32 209 137c0 45 -21 68 -53 86c-69 39 -175 41 -251 81c-53 28 -93 74 -93 161c0 149 129 207 264 207c73 0 143 -17 196 -45v-147c-15 -4 -33 -4 -47 0l-44 115c-27 8 -57 13 -90 13
c-91 0 -184 -35 -184 -132c0 -84 79 -101 169 -122c110 -25 230 -53 230 -199c0 -120 -84 -187 -190 -212c9 -24 15 -53 15 -81c0 -64 -29 -126 -107 -126c-31 0 -64 10 -83 24c1 16 6 33 14 48c13 -7 27 -11 41 -11c54 0 70 45 70 91c0 16 -2 33 -5 47
c-17 -2 -34 -3 -51 -3c-79 0 -155 19 -209 55z" />
    <glyph glyph-name="scedilla" unicode="&#x15f;" horiz-adv-x="471" 
d="M86 152l26 -86c25 -11 58 -18 94 -18c72 0 146 26 146 97c0 56 -63 64 -135 81c-82 19 -167 46 -167 153c0 120 104 161 211 161c55 0 109 -12 152 -29v-117c-15 -4 -30 -4 -45 0l-24 79c-21 6 -46 9 -73 9c-66 0 -132 -21 -132 -89c0 -63 78 -73 160 -92
c73 -17 142 -51 142 -144c0 -92 -64 -140 -143 -158c9 -24 14 -52 14 -79c0 -64 -29 -126 -107 -126c-31 0 -64 10 -83 24c1 16 6 33 14 48c13 -7 27 -11 41 -11c54 0 70 45 70 90c0 16 -2 32 -5 46c-70 -5 -152 11 -201 39v122c15 4 30 4 45 0z" />
    <glyph glyph-name="Cacute" unicode="&#x106;" horiz-adv-x="656" 
d="M521 77l48 120c14 4 32 4 47 0v-148c-66 -38 -153 -59 -238 -59c-218 0 -330 147 -330 372c0 214 122 368 352 368c77 0 156 -16 211 -46v-147c-15 -4 -33 -4 -47 0l-44 111c-32 10 -71 15 -111 15c-180 0 -258 -138 -258 -303c0 -174 79 -302 255 -302c40 0 80 7 115 19
zM306 816l173 103c15 -22 27 -46 34 -73l-184 -76c-11 14 -18 30 -23 46z" />
    <glyph glyph-name="cacute" unicode="&#x107;" horiz-adv-x="506" 
d="M471 155v-122c-49 -28 -112 -43 -172 -43c-160 0 -254 90 -254 274c0 181 103 276 258 276c59 0 118 -13 163 -35v-117c-15 -4 -30 -4 -45 0l-25 82c-24 6 -50 10 -81 10c-117 0 -172 -85 -172 -216c0 -139 54 -210 179 -210c29 0 56 4 77 10l27 91c14 4 30 4 45 0z
M237 615l112 155c24 -16 44 -33 61 -52l-133 -135c-15 7 -29 18 -40 32z" />
    <glyph glyph-name="Ccaron" unicode="&#x10c;" horiz-adv-x="656" 
d="M521 77l48 120c14 4 32 4 47 0v-148c-66 -38 -153 -59 -238 -59c-218 0 -330 147 -330 372c0 214 122 368 352 368c77 0 156 -16 211 -46v-147c-15 -4 -33 -4 -47 0l-44 111c-32 10 -71 15 -111 15c-180 0 -258 -138 -258 -303c0 -174 79 -302 255 -302c40 0 80 7 115 19
zM530 875l-143 -105h-10l-143 105c7 16 16 30 29 44l119 -71l119 71c13 -14 22 -28 29 -44z" />
    <glyph glyph-name="ccaron" unicode="&#x10d;" horiz-adv-x="506" 
d="M471 155v-122c-49 -28 -112 -43 -172 -43c-160 0 -254 90 -254 274c0 181 103 276 258 276c59 0 118 -13 163 -35v-117c-15 -4 -30 -4 -45 0l-25 82c-24 6 -50 10 -81 10c-117 0 -172 -85 -172 -216c0 -139 54 -210 179 -210c29 0 56 4 77 10l27 91c14 4 30 4 45 0z
M423 735l-124 -152h-12l-124 152c9 13 22 25 37 35l91 -92h4l91 92c15 -9 29 -22 37 -35z" />
    <glyph glyph-name="dcroat" unicode="&#x111;" horiz-adv-x="603" 
d="M493 586v-533h75c3 -15 3 -30 0 -45l-103 -16c-28 -4 -68 -2 -68 61v14l-4 1c-35 -51 -97 -78 -157 -78c-138 0 -191 120 -191 253c0 158 83 277 253 277c33 0 68 -6 99 -21v87h-134c-4 15 -4 30 0 45h134v62h-75c-4 16 -4 31 0 45l121 20c46 8 50 -15 50 -50v-77h75
c4 -15 4 -30 0 -45h-75zM395 134v316c-23 7 -47 10 -72 10c-133 0 -182 -81 -182 -214c0 -86 21 -187 122 -187c54 0 102 32 132 75z" />
    <glyph glyph-name="Abreve" unicode="&#x102;" horiz-adv-x="785" 
d="M577 62l-62 163h-284l-62 -165l97 -23c3 -12 3 -25 0 -37h-248c-3 12 -3 25 0 37l79 21l251 662h87l250 -661l82 -22c3 -12 3 -25 0 -37h-286c-3 12 -3 25 0 37zM371 596l-116 -307h236l-116 307h-4zM248 907c10 2 20 3 30 3s19 -1 29 -3c6 -39 26 -68 81 -68
s74 29 82 68c10 2 19 3 29 3s20 -1 30 -3c-2 -65 -43 -131 -141 -131s-137 66 -140 131z" />
    <glyph glyph-name="abreve" unicode="&#x103;" horiz-adv-x="589" 
d="M387 136v135h-29c-79 0 -210 -15 -210 -125c0 -58 35 -91 90 -91c58 0 118 36 149 81zM483 362v-310h75c4 -15 4 -30 0 -45l-103 -16c-28 -4 -68 -2 -68 61v19l-4 1c-42 -53 -108 -82 -171 -82c-95 0 -162 57 -162 152c0 170 201 177 337 177v55c0 84 -72 106 -143 106
c-31 0 -62 -4 -87 -9l-25 -85c-14 -4 -30 -4 -45 0v117c60 21 132 37 195 37c112 0 201 -44 201 -178zM147 738c9 2 19 3 29 3s20 -1 30 -3c6 -45 25 -79 81 -79s75 34 81 79c10 2 20 3 30 3s20 -1 29 -3c0 -81 -47 -143 -140 -143s-140 62 -140 143z" />
    <glyph glyph-name="Aogonek" unicode="&#x104;" horiz-adv-x="785" 
d="M685 59l82 -22c3 -12 3 -25 0 -37h-150c-4 -16 -7 -35 -7 -54c0 -46 16 -91 70 -91c14 0 28 4 41 11c8 -15 13 -32 14 -48c-19 -14 -52 -24 -83 -24c-75 0 -107 58 -107 125c0 48 16 99 35 133l-65 173h-284l-62 -165l97 -23c3 -12 3 -25 0 -37h-248c-3 12 -3 25 0 37
l79 21l251 662h87zM371 596l-116 -307h236l-116 307h-4z" />
    <glyph glyph-name="aogonek" unicode="&#x105;" horiz-adv-x="589" 
d="M483 362v-310h75c4 -15 4 -30 0 -45l-114 -18c-2 -13 -4 -27 -4 -42c0 -46 16 -92 70 -92c14 0 28 4 41 11c8 -15 13 -32 14 -48c-19 -14 -52 -24 -83 -24c-73 0 -107 57 -107 123c0 33 7 67 19 96c-5 10 -7 20 -7 39v19l-4 1c-42 -53 -108 -82 -171 -82
c-95 0 -162 57 -162 152c0 170 201 177 337 177v55c0 84 -72 106 -143 106c-31 0 -62 -4 -87 -9l-25 -85c-14 -4 -30 -4 -45 0v117c60 21 132 37 195 37c112 0 201 -44 201 -178zM387 136v135h-29c-79 0 -210 -15 -210 -125c0 -58 35 -91 90 -91c58 0 118 36 149 81z" />
    <glyph glyph-name="Dcaron" unicode="&#x10e;" horiz-adv-x="732" 
d="M134 62v596l-93 25c-3 12 -3 25 0 37h292c246 0 351 -124 351 -360c0 -246 -105 -360 -351 -360h-292c-3 12 -3 25 0 37zM234 656v-592h95c189 0 252 116 252 296s-66 296 -252 296h-95zM511 875l-143 -105h-10l-143 105c7 16 16 30 29 44l119 -71l119 71
c13 -14 22 -28 29 -44z" />
    <glyph glyph-name="dcaron" unicode="&#x10f;" horiz-adv-x="603" 
d="M397 134v336c-23 7 -47 10 -72 10c-133 0 -182 -93 -182 -228c0 -86 20 -193 122 -193c54 0 102 32 132 75zM493 708v-655h75c3 -15 3 -30 0 -45l-103 -16c-28 -4 -68 -2 -68 61v14l-4 1c-35 -51 -97 -78 -157 -78c-138 0 -191 126 -191 259c0 160 84 291 253 291
c33 0 68 -6 99 -21v174h-75c-3 15 -3 30 0 45l121 20c46 8 50 -15 50 -50zM541 604c25 31 38 66 38 120c0 10 0 21 -1 33c12 2 26 3 40 3s27 -1 39 -3c6 -90 -24 -138 -83 -174c-13 3 -25 10 -33 21z" />
    <glyph glyph-name="Dcroat" unicode="&#x110;" horiz-adv-x="736" 
d="M139 406v252l-93 25c-3 12 -3 25 0 37h292c246 0 351 -124 351 -360c0 -246 -105 -360 -351 -360h-292c-3 12 -3 25 0 37l93 25v289h-93c-4 18 -4 37 0 55h93zM239 351v-287h95c189 0 252 116 252 296s-66 296 -252 296h-95v-250h166c4 -19 4 -37 0 -55h-166z" />
    <glyph glyph-name="Eogonek" unicode="&#x118;" horiz-adv-x="639" 
d="M134 62v596l-93 25c-3 12 -3 25 0 37h540v-157c-15 -4 -33 -4 -47 0l-34 93h-266v-245h194l25 62c12 3 25 3 37 0v-208c-12 -3 -25 -3 -37 0l-25 82h-194v-283h285l35 98c14 4 32 4 47 0v-162h-108c-4 -16 -7 -35 -7 -54c0 -46 16 -91 70 -91c14 0 28 4 41 11
c8 -15 13 -32 14 -48c-19 -14 -52 -24 -83 -24c-78 0 -107 62 -107 126c0 28 5 56 14 80h-394c-3 12 -3 25 0 37z" />
    <glyph glyph-name="eogonek" unicode="&#x119;" horiz-adv-x="549" 
d="M499 270h-356v-6c0 -149 65 -213 196 -213c26 0 56 3 78 11l27 88c14 4 29 4 45 0v-117c-33 -17 -73 -30 -115 -37c-3 -15 -5 -32 -5 -49c0 -46 15 -92 70 -92c14 0 28 4 41 11c8 -15 13 -32 14 -48c-19 -14 -52 -24 -83 -24c-78 0 -107 62 -107 126c0 24 4 48 11 70h-11
c-169 0 -259 97 -259 275c0 171 90 275 245 275c138 0 212 -98 212 -224c0 -15 -1 -30 -3 -46zM289 482c-91 0 -131 -76 -143 -163l260 16c0 94 -54 147 -117 147z" />
    <glyph glyph-name="Ecaron" unicode="&#x11a;" horiz-adv-x="639" 
d="M134 62v596l-93 25c-3 12 -3 25 0 37h540v-157c-15 -4 -33 -4 -47 0l-34 93h-266v-245h194l25 62c12 3 25 3 37 0v-208c-12 -3 -25 -3 -37 0l-25 82h-194v-283h285l35 98c14 4 32 4 47 0v-162h-560c-3 12 -3 25 0 37zM494 875l-143 -105h-10l-143 105c7 16 16 30 29 44
l119 -71l119 71c13 -14 22 -28 29 -44z" />
    <glyph glyph-name="ecaron" unicode="&#x11b;" horiz-adv-x="549" 
d="M499 270h-356v-6c0 -149 65 -213 196 -213c26 0 56 3 78 11l27 88c14 4 29 4 45 0v-117c-51 -26 -119 -43 -185 -43c-169 0 -259 97 -259 275c0 171 90 275 245 275c138 0 212 -98 212 -224c0 -15 -1 -30 -3 -46zM289 482c-91 0 -131 -76 -143 -163l260 16
c0 94 -54 147 -117 147zM421 735l-124 -152h-12l-124 152c9 13 22 25 37 35l91 -92h4l91 92c15 -9 29 -22 37 -35z" />
    <glyph glyph-name="Lacute" unicode="&#x139;" horiz-adv-x="585" 
d="M573 0h-532c-3 12 -3 25 0 37l93 25v596l-93 25c-3 12 -3 25 0 37h286c3 -12 3 -25 0 -37l-93 -25v-594h250l42 107c14 4 32 4 47 0v-171zM129 816l173 103c15 -22 27 -46 34 -73l-184 -76c-11 14 -18 30 -23 46z" />
    <glyph glyph-name="lacute" unicode="&#x13a;" horiz-adv-x="316" 
d="M206 708v-653l75 -20c3 -12 3 -23 0 -35h-246c-3 12 -3 23 0 35l75 20v638h-75c-4 16 -4 31 0 45l121 20c46 8 50 -15 50 -50zM68 836l173 103c15 -22 27 -46 34 -73l-184 -76c-11 14 -18 30 -23 46z" />
    <glyph glyph-name="Lcaron" unicode="&#x13d;" horiz-adv-x="585" 
d="M573 0h-532c-3 12 -3 25 0 37l93 25v596l-93 25c-3 12 -3 25 0 37h286c3 -12 3 -25 0 -37l-93 -25v-594h250l42 107c14 4 32 4 47 0v-171zM367 564c25 31 38 66 38 120c0 10 0 21 -1 33c12 2 26 3 40 3s27 -1 39 -3c6 -90 -24 -138 -83 -174c-13 3 -25 10 -33 21z" />
    <glyph glyph-name="lcaron" unicode="&#x13e;" horiz-adv-x="316" 
d="M206 708v-653l75 -20c3 -12 3 -23 0 -35h-246c-3 12 -3 23 0 35l75 20v638h-75c-4 16 -4 31 0 45l121 20c46 8 50 -15 50 -50zM254 604c25 31 38 66 38 120c0 10 0 21 -1 33c12 2 26 3 40 3s27 -1 39 -3c6 -90 -24 -138 -83 -174c-13 3 -25 10 -33 21z" />
    <glyph glyph-name="Nacute" unicode="&#x143;" horiz-adv-x="771" 
d="M190 603v-543l94 -23c3 -12 3 -25 0 -37h-243c-3 12 -3 25 0 37l82 22v602l-82 22c-3 12 -3 25 0 37h200l336 -555h4v495l-94 23c-3 12 -3 25 0 37h243c3 -12 3 -25 0 -37l-82 -22v-661h-87l-367 603h-4zM317 816l173 103c15 -22 27 -46 34 -73l-184 -76
c-11 14 -18 30 -23 46z" />
    <glyph glyph-name="nacute" unicode="&#x144;" horiz-adv-x="664" 
d="M558 347v-292l75 -20c3 -12 3 -23 0 -35h-246c-3 12 -3 23 0 35l75 20v248c0 83 -8 165 -101 165c-51 0 -108 -25 -143 -61v-352l75 -20c3 -13 3 -24 0 -35h-246c-3 12 -3 23 0 35l75 20v418h-75c-4 15 -4 30 0 45l121 20c47 8 50 -13 50 -50v-23l4 -1
c51 54 108 76 164 76c112 0 172 -59 172 -193zM281 615l112 155c24 -16 44 -33 61 -52l-133 -135c-15 7 -29 18 -40 32z" />
    <glyph glyph-name="Ncaron" unicode="&#x147;" horiz-adv-x="771" 
d="M190 603v-543l94 -23c3 -12 3 -25 0 -37h-243c-3 12 -3 25 0 37l82 22v602l-82 22c-3 12 -3 25 0 37h200l336 -555h4v495l-94 23c-3 12 -3 25 0 37h243c3 -12 3 -25 0 -37l-82 -22v-661h-87l-367 603h-4zM536 875l-143 -105h-10l-143 105c7 16 16 30 29 44l119 -71
l119 71c13 -14 22 -28 29 -44z" />
    <glyph glyph-name="ncaron" unicode="&#x148;" horiz-adv-x="664" 
d="M558 347v-292l75 -20c3 -12 3 -23 0 -35h-246c-3 12 -3 23 0 35l75 20v248c0 83 -8 165 -101 165c-51 0 -108 -25 -143 -61v-352l75 -20c3 -13 3 -24 0 -35h-246c-3 12 -3 23 0 35l75 20v418h-75c-4 15 -4 30 0 45l121 20c47 8 50 -13 50 -50v-23l4 -1
c51 54 108 76 164 76c112 0 172 -59 172 -193zM462 735l-124 -152h-12l-124 152c9 13 22 25 37 35l91 -92h4l91 92c15 -9 29 -22 37 -35z" />
    <glyph glyph-name="Ohungarumlaut" unicode="&#x150;" horiz-adv-x="737" 
d="M48 360c0 236 106 370 321 370c224 0 320 -134 320 -370c0 -246 -96 -370 -320 -370c-215 0 -321 124 -321 370zM586 360c0 180 -49 306 -217 306c-159 0 -218 -126 -218 -306s59 -306 218 -306c168 0 217 126 217 306zM238 805l97 114c22 -15 41 -34 55 -55l-114 -94
c-16 9 -28 22 -38 35zM407 805l97 114c22 -15 41 -34 55 -55l-114 -94c-16 9 -28 22 -38 35z" />
    <glyph glyph-name="ohungarumlaut" unicode="&#x151;" horiz-adv-x="582" 
d="M537 265c0 -178 -85 -275 -246 -275s-246 97 -246 275c0 173 85 275 246 275s246 -102 246 -275zM439 265c0 153 -59 215 -148 215s-148 -62 -148 -215s59 -215 148 -215s148 62 148 215zM148 615l102 155c26 -15 47 -31 62 -51l-124 -136c-15 7 -30 18 -40 32zM323 615
l102 155c26 -15 47 -31 62 -51l-124 -136c-15 7 -30 18 -40 32z" />
    <glyph glyph-name="Racute" unicode="&#x154;" horiz-adv-x="712" 
d="M234 290v-228l93 -25c3 -12 3 -25 0 -37h-286c-3 12 -3 25 0 37l93 25v596l-93 25c-3 12 -3 25 0 37h239c206 0 309 -50 309 -207c0 -90 -46 -173 -159 -204l184 -249l85 -23c3 -12 3 -25 0 -37h-168l-212 290h-85zM486 511c0 107 -63 145 -205 145h-47v-302h34
c144 0 218 48 218 157zM256 816l173 103c15 -22 27 -46 34 -73l-184 -76c-11 14 -18 30 -23 46z" />
    <glyph glyph-name="racute" unicode="&#x155;" horiz-adv-x="457" 
d="M122 473h-75c-4 15 -4 30 0 45l121 20c46 8 50 -15 50 -50v-23l4 -1c37 47 97 76 158 76c22 0 44 -3 67 -8v-132c-16 -4 -31 -4 -45 0l-20 65c-54 4 -111 -7 -164 -57v-353l75 -20c3 -12 3 -23 0 -35h-246c-3 12 -3 23 0 35l75 20v418zM216 615l112 155
c24 -16 44 -33 61 -52l-133 -135c-15 7 -29 18 -40 32z" />
    <glyph glyph-name="Rcaron" unicode="&#x158;" horiz-adv-x="712" 
d="M234 290v-228l93 -25c3 -12 3 -25 0 -37h-286c-3 12 -3 25 0 37l93 25v596l-93 25c-3 12 -3 25 0 37h239c206 0 309 -50 309 -207c0 -90 -46 -173 -159 -204l184 -249l85 -23c3 -12 3 -25 0 -37h-168l-212 290h-85zM486 511c0 107 -63 145 -205 145h-47v-302h34
c144 0 218 48 218 157zM475 875l-143 -105h-10l-143 105c7 16 16 30 29 44l119 -71l119 71c13 -14 22 -28 29 -44z" />
    <glyph glyph-name="rcaron" unicode="&#x159;" horiz-adv-x="457" 
d="M122 473h-75c-4 15 -4 30 0 45l121 20c46 8 50 -15 50 -50v-23l4 -1c37 47 97 76 158 76c22 0 44 -3 67 -8v-132c-16 -4 -31 -4 -45 0l-20 65c-54 4 -111 -7 -164 -57v-353l75 -20c3 -12 3 -23 0 -35h-246c-3 12 -3 23 0 35l75 20v418zM392 735l-124 -152h-12l-124 152
c9 13 22 25 37 35l91 -92h4l91 92c15 -9 29 -22 37 -35z" />
    <glyph glyph-name="Sacute" unicode="&#x15a;" horiz-adv-x="588" 
d="M45 45v152c15 4 33 4 47 0l47 -124c30 -10 65 -15 105 -15c97 0 209 32 209 137c0 45 -21 68 -53 86c-69 39 -175 41 -251 81c-53 28 -93 74 -93 161c0 149 129 207 264 207c73 0 143 -17 196 -45v-147c-15 -4 -33 -4 -47 0l-44 115c-27 8 -57 13 -90 13
c-91 0 -184 -35 -184 -132c0 -84 79 -101 169 -122c110 -25 230 -53 230 -199c0 -158 -145 -223 -296 -223c-79 0 -155 19 -209 55zM238 816l173 103c15 -22 27 -46 34 -73l-184 -76c-11 14 -18 30 -23 46z" />
    <glyph glyph-name="sacute" unicode="&#x15b;" horiz-adv-x="471" 
d="M86 152l26 -86c25 -11 58 -18 94 -18c72 0 146 26 146 97c0 56 -63 64 -135 81c-82 19 -167 46 -167 153c0 120 104 161 211 161c55 0 109 -12 152 -29v-117c-15 -4 -30 -4 -45 0l-24 79c-21 6 -46 9 -73 9c-66 0 -132 -21 -132 -89c0 -63 78 -73 160 -92
c73 -17 142 -51 142 -144c0 -121 -111 -167 -224 -167c-66 0 -132 15 -176 40v122c15 4 30 4 45 0zM194 615l112 155c24 -16 44 -33 61 -52l-133 -135c-15 7 -29 18 -40 32z" />
    <glyph glyph-name="Tcommaaccent" unicode="&#x162;" horiz-adv-x="622" 
d="M361 656v-594l93 -25c3 -12 3 -25 0 -37h-286c-3 12 -3 25 0 37l93 25v594h-158l-39 -102c-14 -4 -32 -4 -47 0v166h588v-166c-15 -4 -33 -4 -47 0l-39 102h-158zM233 -208c25 31 38 66 38 120c0 10 0 21 -1 33c12 2 26 3 40 3s27 -1 39 -3c6 -90 -24 -138 -83 -174
c-13 3 -25 10 -33 21z" />
    <glyph glyph-name="tcommaaccent" unicode="&#x163;" horiz-adv-x="354" 
d="M106 174v306h-75c-3 10 -3 21 0 31l75 19v147l90 17l6 -6v-158h133c3 -17 3 -33 0 -50h-133v-264c0 -106 18 -183 137 -171c4 -17 4 -33 0 -50c-19 -3 -41 -5 -60 -5c-100 0 -173 50 -173 184zM123 -208c25 31 38 66 38 120c0 10 0 21 -1 33c12 2 26 3 40 3s27 -1 39 -3
c6 -90 -24 -138 -83 -174c-13 3 -25 10 -33 21z" />
    <glyph glyph-name="Tcaron" unicode="&#x164;" horiz-adv-x="622" 
d="M361 656v-594l93 -25c3 -12 3 -25 0 -37h-286c-3 12 -3 25 0 37l93 25v594h-158l-39 -102c-14 -4 -32 -4 -47 0v166h588v-166c-15 -4 -33 -4 -47 0l-39 102h-158zM459 875l-143 -105h-10l-143 105c7 16 16 30 29 44l119 -71l119 71c13 -14 22 -28 29 -44z" />
    <glyph glyph-name="tcaron" unicode="&#x165;" horiz-adv-x="347" 
d="M106 174v306h-75c-3 10 -3 21 0 31l75 19v147l90 17l6 -6v-158h133c3 -17 3 -33 0 -50h-133v-264c0 -106 18 -183 137 -171c4 -17 4 -33 0 -50c-19 -3 -41 -5 -60 -5c-100 0 -173 50 -173 184zM274 633c25 31 38 66 38 120c0 10 0 21 -1 33c12 2 26 3 40 3s27 -1 39 -3
c6 -90 -24 -138 -83 -174c-13 3 -25 10 -33 21z" />
    <glyph glyph-name="Uring" unicode="&#x16e;" horiz-adv-x="782" 
d="M128 658l-83 25c-3 12 -3 25 0 37h286c3 -12 3 -25 0 -37l-103 -25v-358c0 -162 45 -234 181 -234c131 0 182 77 182 235v359l-94 23c-3 12 -3 25 0 37h243c3 -12 3 -25 0 -37l-82 -22v-351c0 -211 -68 -320 -265 -320c-202 0 -265 104 -265 320v348zM311 848
c0 57 42 94 98 94s99 -37 99 -94s-43 -93 -99 -93s-98 36 -98 93zM362 848c0 -32 19 -55 47 -55s48 23 48 55s-20 56 -48 56s-47 -24 -47 -56z" />
    <glyph glyph-name="uring" unicode="&#x16f;" horiz-adv-x="651" 
d="M445 473h-75c-4 15 -4 30 0 45l121 20c46 8 50 -15 50 -50v-436h75c4 -15 4 -30 0 -45l-104 -16c-27 -4 -67 -2 -67 61v17l-4 1c-48 -53 -99 -80 -166 -80c-122 0 -169 81 -169 197v286h-75c-4 15 -4 30 0 45l121 20c46 8 50 -15 50 -50v-258c0 -84 5 -170 97 -170
c54 0 102 22 146 70v343zM219 676c0 57 42 94 98 94s99 -37 99 -94s-43 -93 -99 -93s-98 36 -98 93zM270 676c0 -32 19 -55 47 -55s48 23 48 55s-20 56 -48 56s-47 -24 -47 -56z" />
    <glyph glyph-name="Uhungarumlaut" unicode="&#x170;" horiz-adv-x="782" 
d="M128 658l-83 25c-3 12 -3 25 0 37h286c3 -12 3 -25 0 -37l-103 -25v-358c0 -162 45 -234 181 -234c131 0 182 77 182 235v359l-94 23c-3 12 -3 25 0 37h243c3 -12 3 -25 0 -37l-82 -22v-351c0 -211 -68 -320 -265 -320c-202 0 -265 104 -265 320v348zM272 805l97 114
c22 -15 41 -34 55 -55l-114 -94c-16 9 -28 22 -38 35zM441 805l97 114c22 -15 41 -34 55 -55l-114 -94c-16 9 -28 22 -38 35z" />
    <glyph glyph-name="uhungarumlaut" unicode="&#x171;" horiz-adv-x="651" 
d="M445 473h-75c-4 15 -4 30 0 45l121 20c46 8 50 -15 50 -50v-436h75c4 -15 4 -30 0 -45l-104 -16c-27 -4 -67 -2 -67 61v17l-4 1c-48 -53 -99 -80 -166 -80c-122 0 -169 81 -169 197v286h-75c-4 15 -4 30 0 45l121 20c46 8 50 -15 50 -50v-258c0 -84 5 -170 97 -170
c54 0 102 22 146 70v343zM183 615l102 155c26 -15 47 -31 62 -51l-124 -136c-15 7 -30 18 -40 32zM358 615l102 155c26 -15 47 -31 62 -51l-124 -136c-15 7 -30 18 -40 32z" />
    <glyph glyph-name="Zacute" unicode="&#x179;" horiz-adv-x="621" 
d="M60 720h515v-64l-423 -592h350l42 107c14 4 32 4 47 0v-171h-559v64l417 592h-303l-39 -102c-14 -4 -32 -4 -47 0v166zM267 816l173 103c15 -22 27 -46 34 -73l-184 -76c-11 14 -18 30 -23 46z" />
    <glyph glyph-name="zacute" unicode="&#x17a;" horiz-adv-x="505" 
d="M337 470h-228l-25 -77c-14 -4 -29 -4 -45 0v137h420v-60l-307 -406l1 -4h250l25 82c15 4 30 4 45 0v-142h-441v60l306 406zM204 615l112 155c24 -16 44 -33 61 -52l-133 -135c-15 7 -29 18 -40 32z" />
    <glyph glyph-name="Zdotaccent" unicode="&#x17b;" horiz-adv-x="621" 
d="M60 720h515v-64l-423 -592h350l42 107c14 4 32 4 47 0v-171h-559v64l417 592h-303l-39 -102c-14 -4 -32 -4 -47 0v166zM268 780c-3 15 -5 31 -5 46c0 16 2 32 5 49c16 3 32 5 48 5s33 -2 49 -5c3 -15 5 -31 5 -47c0 -15 -2 -31 -5 -48c-16 -4 -33 -5 -49 -5s-32 1 -48 5z
" />
    <glyph glyph-name="zdotaccent" unicode="&#x17c;" horiz-adv-x="505" 
d="M337 470h-228l-25 -77c-14 -4 -29 -4 -45 0v137h420v-60l-307 -406l1 -4h250l25 82c15 4 30 4 45 0v-142h-441v60l306 406zM204 620c-3 15 -5 31 -5 46c0 16 2 32 5 49c16 3 32 5 48 5s33 -2 49 -5c3 -15 5 -31 5 -47c0 -15 -2 -31 -5 -48c-16 -4 -33 -5 -49 -5
s-32 1 -48 5z" />
    <glyph glyph-name="Amacron" unicode="&#x100;" horiz-adv-x="785" 
d="M577 62l-62 163h-284l-62 -165l97 -23c3 -12 3 -25 0 -37h-248c-3 12 -3 25 0 37l79 21l251 662h87l250 -661l82 -22c3 -12 3 -25 0 -37h-286c-3 12 -3 25 0 37zM371 596l-116 -307h236l-116 307h-4zM529 790h-281c-2 11 -3 23 -3 35s1 23 3 35h281c2 -12 3 -24 3 -36
s-1 -23 -3 -34z" />
    <glyph glyph-name="amacron" unicode="&#x101;" horiz-adv-x="589" 
d="M387 136v135h-29c-79 0 -210 -15 -210 -125c0 -58 35 -91 90 -91c58 0 118 36 149 81zM483 362v-310h75c4 -15 4 -30 0 -45l-103 -16c-28 -4 -68 -2 -68 61v19l-4 1c-42 -53 -108 -82 -171 -82c-95 0 -162 57 -162 152c0 170 201 177 337 177v55c0 84 -72 106 -143 106
c-31 0 -62 -4 -87 -9l-25 -85c-14 -4 -30 -4 -45 0v117c60 21 132 37 195 37c112 0 201 -44 201 -178zM426 620h-281c-2 11 -3 23 -3 35s1 23 3 35h281c2 -12 3 -23 3 -35s-1 -24 -3 -35z" />
    <glyph glyph-name="Emacron" unicode="&#x112;" horiz-adv-x="639" 
d="M134 62v596l-93 25c-3 12 -3 25 0 37h540v-157c-15 -4 -33 -4 -47 0l-34 93h-266v-245h194l25 62c12 3 25 3 37 0v-208c-12 -3 -25 -3 -37 0l-25 82h-194v-283h285l35 98c14 4 32 4 47 0v-162h-560c-3 12 -3 25 0 37zM486 790h-281c-2 11 -3 23 -3 35s1 23 3 35h281
c2 -12 3 -24 3 -36s-1 -23 -3 -34z" />
    <glyph glyph-name="emacron" unicode="&#x113;" horiz-adv-x="549" 
d="M499 270h-356v-6c0 -149 65 -213 196 -213c26 0 56 3 78 11l27 88c14 4 29 4 45 0v-117c-51 -26 -119 -43 -185 -43c-169 0 -259 97 -259 275c0 171 90 275 245 275c138 0 212 -98 212 -224c0 -15 -1 -30 -3 -46zM289 482c-91 0 -131 -76 -143 -163l260 16
c0 94 -54 147 -117 147zM428 620h-281c-2 11 -3 23 -3 35s1 23 3 35h281c2 -12 3 -23 3 -35s-1 -24 -3 -35z" />
    <glyph glyph-name="Edotaccent" unicode="&#x116;" horiz-adv-x="639" 
d="M134 62v596l-93 25c-3 12 -3 25 0 37h540v-157c-15 -4 -33 -4 -47 0l-34 93h-266v-245h194l25 62c12 3 25 3 37 0v-208c-12 -3 -25 -3 -37 0l-25 82h-194v-283h285l35 98c14 4 32 4 47 0v-162h-560c-3 12 -3 25 0 37zM300 780c-3 15 -5 31 -5 46c0 16 2 32 5 49
c16 3 32 5 48 5s33 -2 49 -5c3 -15 5 -31 5 -47c0 -15 -2 -31 -5 -48c-16 -4 -33 -5 -49 -5s-32 1 -48 5z" />
    <glyph glyph-name="edotaccent" unicode="&#x117;" horiz-adv-x="549" 
d="M499 270h-356v-6c0 -149 65 -213 196 -213c26 0 56 3 78 11l27 88c14 4 29 4 45 0v-117c-51 -26 -119 -43 -185 -43c-169 0 -259 97 -259 275c0 171 90 275 245 275c138 0 212 -98 212 -224c0 -15 -1 -30 -3 -46zM289 482c-91 0 -131 -76 -143 -163l260 16
c0 94 -54 147 -117 147zM241 620c-3 15 -5 31 -5 46c0 16 2 32 5 49c16 3 32 5 48 5s33 -2 49 -5c3 -15 5 -31 5 -47c0 -15 -2 -31 -5 -48c-16 -4 -33 -5 -49 -5s-32 1 -48 5z" />
    <glyph glyph-name="Gcommaaccent" unicode="&#x122;" horiz-adv-x="734" 
d="M629 297v-307h-25c-40 0 -54 15 -62 32c-46 -21 -102 -32 -159 -32c-224 0 -335 146 -335 372c0 220 125 368 359 368c81 0 164 -15 222 -45v-147c-15 -4 -33 -4 -47 0l-44 111c-34 10 -75 15 -116 15c-190 0 -271 -128 -271 -303c0 -186 84 -302 268 -302
c41 0 81 8 113 26v203l-117 25c-3 12 -3 25 0 37h267c3 -12 3 -25 0 -37zM323 -208c25 31 38 66 38 120c0 10 0 21 -1 33c12 2 26 3 40 3s27 -1 39 -3c6 -90 -24 -138 -83 -174c-13 3 -25 10 -33 21z" />
    <glyph glyph-name="gcommaaccent" unicode="&#x123;" horiz-adv-x="553" 
d="M470 349c0 -124 -71 -189 -205 -189c-37 0 -69 5 -96 14c-16 -14 -24 -32 -24 -47c0 -45 74 -45 119 -45h93c85 0 173 -18 173 -116c0 -127 -140 -171 -277 -171c-78 0 -152 15 -198 36v117c16 3 31 3 45 0l25 -71c27 -13 82 -22 139 -22c87 0 177 22 177 87
c0 46 -51 49 -93 49h-101c-69 0 -186 10 -186 104c0 38 23 72 66 99v4c-44 31 -66 80 -66 151c0 120 71 191 204 191c41 0 77 -7 106 -20h164c3 -17 3 -33 0 -50h-100l-1 -3c25 -31 36 -69 36 -118zM372 349c0 103 -37 131 -107 131c-69 0 -106 -29 -106 -131
c0 -98 35 -128 106 -128c69 0 107 29 107 128zM341 749c-25 -31 -38 -66 -38 -120c0 -10 0 -21 1 -33c-12 -2 -26 -3 -40 -3s-27 1 -39 3c-6 90 24 138 83 174c13 -3 25 -10 33 -21z" />
    <glyph glyph-name="Imacron" unicode="&#x12a;" horiz-adv-x="368" 
d="M134 658l-93 25c-3 12 -3 25 0 37h286c3 -12 3 -25 0 -37l-93 -25v-596l93 -25c3 -12 3 -25 0 -37h-286c-3 12 -3 25 0 37l93 25v596zM325 790h-281c-2 11 -3 23 -3 35s1 23 3 35h281c2 -12 3 -24 3 -36s-1 -23 -3 -34z" />
    <glyph glyph-name="imacron" unicode="&#x12b;" horiz-adv-x="328" 
d="M122 473h-75c-4 15 -4 30 0 45l121 20c46 8 50 -15 50 -50v-433l75 -20c3 -12 3 -23 0 -35h-246c-3 12 -3 23 0 35l75 20v418zM291 620h-281c-2 11 -3 23 -3 35s1 23 3 35h281c2 -12 3 -23 3 -35s-1 -24 -3 -35z" />
    <glyph glyph-name="Iogonek" unicode="&#x12e;" horiz-adv-x="368" 
d="M134 658l-93 25c-3 12 -3 25 0 37h286c3 -12 3 -25 0 -37l-93 -25v-596l93 -25c3 -12 3 -25 0 -37h-114c-4 -16 -7 -35 -7 -54c0 -46 16 -91 70 -91c14 0 28 4 41 11c8 -15 13 -32 14 -48c-19 -14 -52 -24 -83 -24c-78 0 -107 62 -107 126c0 28 5 56 14 80h-114
c-3 12 -3 25 0 37l93 25v596z" />
    <glyph glyph-name="iogonek" unicode="&#x12f;" horiz-adv-x="328" 
d="M122 473h-75c-4 15 -4 30 0 45l121 20c46 8 50 -15 50 -50v-433l75 -20c3 -12 3 -23 0 -35h-94c-4 -16 -7 -35 -7 -54c0 -46 16 -91 70 -91c14 0 28 4 41 11c8 -15 13 -32 14 -48c-19 -14 -52 -24 -83 -24c-78 0 -107 62 -107 126c0 28 5 56 14 80h-94c-3 12 -3 23 0 35
l75 20v418zM115 625c-3 15 -5 31 -5 46c0 16 2 32 5 49c15 3 32 5 48 5s34 -2 49 -5c3 -15 5 -31 5 -47c0 -15 -2 -31 -5 -48c-16 -4 -33 -5 -49 -5s-32 1 -48 5z" />
    <glyph glyph-name="Kcommaaccent" unicode="&#x136;" horiz-adv-x="732" 
d="M724 0h-174l-301 359v6l261 302l-60 16c-3 12 -3 25 0 37h244c3 -12 3 -25 0 -37l-104 -28l-232 -265l274 -328l92 -25c3 -12 3 -25 0 -37zM134 658l-93 25c-3 12 -3 25 0 37h286c3 -12 3 -25 0 -37l-93 -25v-596l93 -25c3 -12 3 -25 0 -37h-286c-3 12 -3 25 0 37l93 25
v596zM324 -208c25 31 38 66 38 120c0 10 0 21 -1 33c12 2 26 3 40 3s27 -1 39 -3c6 -90 -24 -138 -83 -174c-13 3 -25 10 -33 21z" />
    <glyph glyph-name="kcommaaccent" unicode="&#x137;" horiz-adv-x="595" 
d="M206 708v-653l75 -20c3 -12 3 -23 0 -35h-246c-3 12 -3 23 0 35l75 20v638h-75c-4 16 -4 31 0 45l121 20c46 8 50 -15 50 -50zM591 0h-147l-223 267v7l199 207l-60 14c-3 12 -3 23 0 35h212c3 -12 3 -23 0 -35l-72 -19l-177 -179l210 -250l58 -12c3 -11 3 -23 0 -35z
M258 -208c25 31 38 66 38 120c0 10 0 21 -1 33c12 2 26 3 40 3s27 -1 39 -3c6 -90 -24 -138 -83 -174c-13 3 -25 10 -33 21z" />
    <glyph glyph-name="Lcommaaccent" unicode="&#x13b;" horiz-adv-x="585" 
d="M573 0h-532c-3 12 -3 25 0 37l93 25v596l-93 25c-3 12 -3 25 0 37h286c3 -12 3 -25 0 -37l-93 -25v-594h250l42 107c14 4 32 4 47 0v-171zM264 -208c25 31 38 66 38 120c0 10 0 21 -1 33c12 2 26 3 40 3s27 -1 39 -3c6 -90 -24 -138 -83 -174c-13 3 -25 10 -33 21z" />
    <glyph glyph-name="lcommaaccent" unicode="&#x13c;" horiz-adv-x="316" 
d="M206 708v-653l75 -20c3 -12 3 -23 0 -35h-246c-3 12 -3 23 0 35l75 20v638h-75c-4 16 -4 31 0 45l121 20c46 8 50 -15 50 -50zM84 -208c25 31 38 66 38 120c0 10 0 21 -1 33c12 2 26 3 40 3s27 -1 39 -3c6 -90 -24 -138 -83 -174c-13 3 -25 10 -33 21z" />
    <glyph glyph-name="Ncommaaccent" unicode="&#x145;" horiz-adv-x="771" 
d="M190 603v-543l94 -23c3 -12 3 -25 0 -37h-243c-3 12 -3 25 0 37l82 22v602l-82 22c-3 12 -3 25 0 37h200l336 -555h4v495l-94 23c-3 12 -3 25 0 37h243c3 -12 3 -25 0 -37l-82 -22v-661h-87l-367 603h-4zM314 -208c25 31 38 66 38 120c0 10 0 21 -1 33c12 2 26 3 40 3
s27 -1 39 -3c6 -90 -24 -138 -83 -174c-13 3 -25 10 -33 21z" />
    <glyph glyph-name="ncommaaccent" unicode="&#x146;" horiz-adv-x="664" 
d="M558 347v-292l75 -20c3 -12 3 -23 0 -35h-246c-3 12 -3 23 0 35l75 20v248c0 83 -8 165 -101 165c-51 0 -108 -25 -143 -61v-352l75 -20c3 -13 3 -24 0 -35h-246c-3 12 -3 23 0 35l75 20v418h-75c-4 15 -4 30 0 45l121 20c47 8 50 -13 50 -50v-23l4 -1
c51 54 108 76 164 76c112 0 172 -59 172 -193zM265 -208c25 31 38 66 38 120c0 10 0 21 -1 33c12 2 26 3 40 3s27 -1 39 -3c6 -90 -24 -138 -83 -174c-13 3 -25 10 -33 21z" />
    <glyph glyph-name="Omacron" unicode="&#x14c;" horiz-adv-x="737" 
d="M48 360c0 236 106 370 321 370c224 0 320 -134 320 -370c0 -246 -96 -370 -320 -370c-215 0 -321 124 -321 370zM586 360c0 180 -49 306 -217 306c-159 0 -218 -126 -218 -306s59 -306 218 -306c168 0 217 126 217 306zM510 790h-281c-2 11 -3 23 -3 35s1 23 3 35h281
c2 -12 3 -24 3 -36s-1 -23 -3 -34z" />
    <glyph glyph-name="omacron" unicode="&#x14d;" horiz-adv-x="582" 
d="M537 265c0 -178 -85 -275 -246 -275s-246 97 -246 275c0 173 85 275 246 275s246 -102 246 -275zM439 265c0 153 -59 215 -148 215s-148 -62 -148 -215s59 -215 148 -215s148 62 148 215zM432 620h-281c-2 11 -3 23 -3 35s1 23 3 35h281c2 -12 3 -23 3 -35s-1 -24 -3 -35
z" />
    <glyph glyph-name="Rcommaaccent" unicode="&#x156;" horiz-adv-x="712" 
d="M234 290v-228l93 -25c3 -12 3 -25 0 -37h-286c-3 12 -3 25 0 37l93 25v596l-93 25c-3 12 -3 25 0 37h239c206 0 309 -50 309 -207c0 -90 -46 -173 -159 -204l184 -249l85 -23c3 -12 3 -25 0 -37h-168l-212 290h-85zM486 511c0 107 -63 145 -205 145h-47v-302h34
c144 0 218 48 218 157zM308 -208c25 31 38 66 38 120c0 10 0 21 -1 33c12 2 26 3 40 3s27 -1 39 -3c6 -90 -24 -138 -83 -174c-13 3 -25 10 -33 21z" />
    <glyph glyph-name="rcommaaccent" unicode="&#x157;" horiz-adv-x="457" 
d="M122 473h-75c-4 15 -4 30 0 45l121 20c46 8 50 -15 50 -50v-23l4 -1c37 47 97 76 158 76c22 0 44 -3 67 -8v-132c-16 -4 -31 -4 -45 0l-20 65c-54 4 -111 -7 -164 -57v-353l75 -20c3 -12 3 -23 0 -35h-246c-3 12 -3 23 0 35l75 20v418zM94 -208c25 31 38 66 38 120
c0 10 0 21 -1 33c12 2 26 3 40 3s27 -1 39 -3c6 -90 -24 -138 -83 -174c-13 3 -25 10 -33 21z" />
    <glyph glyph-name="Umacron" unicode="&#x16a;" horiz-adv-x="782" 
d="M128 658l-83 25c-3 12 -3 25 0 37h286c3 -12 3 -25 0 -37l-103 -25v-358c0 -162 45 -234 181 -234c131 0 182 77 182 235v359l-94 23c-3 12 -3 25 0 37h243c3 -12 3 -25 0 -37l-82 -22v-351c0 -211 -68 -320 -265 -320c-202 0 -265 104 -265 320v348zM550 790h-281
c-2 11 -3 23 -3 35s1 23 3 35h281c2 -12 3 -24 3 -36s-1 -23 -3 -34z" />
    <glyph glyph-name="umacron" unicode="&#x16b;" horiz-adv-x="651" 
d="M445 473h-75c-4 15 -4 30 0 45l121 20c46 8 50 -15 50 -50v-436h75c4 -15 4 -30 0 -45l-104 -16c-27 -4 -67 -2 -67 61v17l-4 1c-48 -53 -99 -80 -166 -80c-122 0 -169 81 -169 197v286h-75c-4 15 -4 30 0 45l121 20c46 8 50 -15 50 -50v-258c0 -84 5 -170 97 -170
c54 0 102 22 146 70v343zM461 620h-281c-2 11 -3 23 -3 35s1 23 3 35h281c2 -12 3 -23 3 -35s-1 -24 -3 -35z" />
    <glyph glyph-name="Uogonek" unicode="&#x172;" horiz-adv-x="782" 
d="M128 658l-83 25c-3 12 -3 25 0 37h286c3 -12 3 -25 0 -37l-103 -25v-358c0 -162 45 -234 181 -234c131 0 182 77 182 235v359l-94 23c-3 12 -3 25 0 37h243c3 -12 3 -25 0 -37l-82 -22v-351c0 -175 -47 -280 -175 -310c-3 -16 -6 -34 -6 -53c0 -46 15 -92 70 -92
c14 0 28 4 41 11c8 -15 13 -32 14 -48c-19 -14 -52 -24 -83 -24c-78 0 -107 62 -107 126c0 24 4 49 11 71c-12 -1 -22 -1 -30 -1c-202 0 -265 104 -265 320v348z" />
    <glyph glyph-name="uogonek" unicode="&#x173;" horiz-adv-x="651" 
d="M445 473h-75c-4 15 -4 30 0 45l121 20c46 8 50 -15 50 -50v-436h75c4 -15 4 -30 0 -45l-114 -18c-2 -13 -4 -27 -4 -42c0 -46 16 -92 70 -92c14 0 28 4 41 11c8 -15 13 -32 14 -48c-19 -14 -52 -24 -83 -24c-75 0 -107 58 -107 126c0 33 8 67 19 94c-4 9 -7 21 -7 38v17
l-4 1c-48 -53 -99 -80 -166 -80c-122 0 -169 81 -169 197v286h-75c-4 15 -4 30 0 45l121 20c46 8 50 -15 50 -50v-258c0 -84 5 -170 97 -170c54 0 102 22 146 70v343z" />
    <glyph glyph-name="afii10023" unicode="&#x401;" horiz-adv-x="639" 
d="M134 62v596l-93 25c-3 12 -3 25 0 37h540v-157c-15 -4 -33 -4 -47 0l-34 93h-266v-245h194l25 62c12 3 25 3 37 0v-208c-12 -3 -25 -3 -37 0l-25 82h-194v-283h285l35 98c14 4 32 4 47 0v-162h-560c-3 12 -3 25 0 37zM196 881c14 3 30 5 46 5c15 0 32 -2 47 -5
c3 -15 5 -31 5 -46s-2 -31 -5 -45c-14 -3 -30 -5 -45 -5c-16 0 -33 2 -48 5c-3 14 -5 30 -5 45s2 31 5 46zM391 881c14 3 30 5 46 5c15 0 32 -2 47 -5c3 -15 5 -31 5 -46s-2 -31 -5 -45c-14 -3 -30 -5 -45 -5c-16 0 -33 2 -48 5c-3 14 -5 30 -5 45s2 31 5 46z" />
    <glyph glyph-name="afii10051" unicode="&#x402;" horiz-adv-x="762" 
d="M226 656h-110l-39 -102c-14 -4 -32 -4 -47 0v166h574v-166c-15 -4 -33 -4 -47 0l-39 102h-192v-258c48 17 110 31 171 31c161 0 220 -108 220 -273c0 -121 -43 -320 -260 -320c-7 11 -10 26 -9 40c146 14 166 176 166 266c0 145 -40 213 -169 213c-43 0 -87 -8 -119 -17
v-276l93 -25c3 -12 3 -25 0 -37h-286c-3 12 -3 25 0 37l93 25v594z" />
    <glyph glyph-name="afii10052" unicode="&#x403;" horiz-adv-x="586" 
d="M488 656h-254v-594l93 -25c3 -12 3 -25 0 -37h-286c-3 12 -3 25 0 37l93 25v596l-93 25c-3 12 -3 25 0 37h533v-166c-15 -4 -33 -4 -47 0zM263 816l173 103c15 -22 27 -46 34 -73l-184 -76c-11 14 -18 30 -23 46z" />
    <glyph glyph-name="afii10053" unicode="&#x404;" horiz-adv-x="646" 
d="M511 78l48 120c14 4 32 4 47 0v-148c-58 -40 -140 -60 -221 -60c-223 0 -337 134 -337 370c0 237 143 370 361 370c71 0 141 -14 192 -45v-147c-15 -4 -33 -4 -47 0l-44 111c-27 11 -58 16 -90 16c-161 0 -252 -104 -267 -259l376 8c2 -11 3 -23 3 -35s-1 -25 -3 -35
l-378 8c2 -177 83 -294 259 -294c36 0 71 7 101 20z" />
    <glyph glyph-name="afii10054" unicode="&#x405;" horiz-adv-x="588" 
d="M45 45v152c15 4 33 4 47 0l47 -124c30 -10 65 -15 105 -15c97 0 209 32 209 137c0 45 -21 68 -53 86c-69 39 -175 41 -251 81c-53 28 -93 74 -93 161c0 149 129 207 264 207c73 0 143 -17 196 -45v-147c-15 -4 -33 -4 -47 0l-44 115c-27 8 -57 13 -90 13
c-91 0 -184 -35 -184 -132c0 -84 79 -101 169 -122c110 -25 230 -53 230 -199c0 -158 -145 -223 -296 -223c-79 0 -155 19 -209 55z" />
    <glyph glyph-name="afii10055" unicode="&#x406;" horiz-adv-x="368" 
d="M134 658l-93 25c-3 12 -3 25 0 37h286c3 -12 3 -25 0 -37l-93 -25v-596l93 -25c3 -12 3 -25 0 -37h-286c-3 12 -3 25 0 37l93 25v596z" />
    <glyph glyph-name="afii10056" unicode="&#x407;" horiz-adv-x="368" 
d="M134 658l-93 25c-3 12 -3 25 0 37h286c3 -12 3 -25 0 -37l-93 -25v-596l93 -25c3 -12 3 -25 0 -37h-286c-3 12 -3 25 0 37l93 25v596zM40 881c14 3 30 5 46 5c15 0 32 -2 47 -5c3 -15 5 -31 5 -46s-2 -31 -5 -45c-14 -3 -30 -5 -45 -5c-16 0 -33 2 -48 5
c-3 14 -5 30 -5 45s2 31 5 46zM235 881c14 3 30 5 46 5c15 0 32 -2 47 -5c3 -15 5 -31 5 -46s-2 -31 -5 -45c-14 -3 -30 -5 -45 -5c-16 0 -33 2 -48 5c-3 14 -5 30 -5 45s2 31 5 46z" />
    <glyph glyph-name="afii10057" unicode="&#x408;" horiz-adv-x="368" 
d="M134 73v585l-93 25c-3 12 -3 25 0 37h286c3 -12 3 -25 0 -37l-93 -25v-623c0 -129 -87 -199 -212 -199c-7 12 -10 26 -9 40c103 21 121 91 121 197z" />
    <glyph glyph-name="afii10058" unicode="&#x409;" horiz-adv-x="967" 
d="M20 -5v155c15 4 33 4 47 0l22 -64c126 69 140 397 144 572l-93 25c-3 12 -3 25 0 37h552c3 -12 3 -25 0 -37l-93 -25v-237h42c253 0 291 -101 291 -211c0 -103 -36 -209 -330 -210h-196c-3 12 -3 25 0 37l93 25v594h-196c-15 -400 -67 -642 -278 -666zM829 210
c0 124 -80 147 -230 147v-293c150 0 230 21 230 146z" />
    <glyph glyph-name="afii10059" unicode="&#x40a;" horiz-adv-x="1042" 
d="M234 357v-295l83 -25c3 -12 3 -25 0 -37h-276c-3 12 -3 25 0 37l93 25v596l-93 25c-3 12 -3 25 0 37h276c3 -12 3 -25 0 -37l-83 -25v-237h338v237l-83 25c-3 12 -3 25 0 37h276c3 -12 3 -25 0 -37l-93 -25v-237h44c253 0 291 -101 291 -211c0 -103 -36 -210 -335 -210
h-183c-3 12 -3 25 0 37l83 25v295h-338zM904 210c0 125 -80 147 -232 147v-293c152 0 232 21 232 146z" />
    <glyph glyph-name="afii10060" unicode="&#x40b;" horiz-adv-x="816" 
d="M226 656h-110l-39 -102c-14 -4 -32 -4 -47 0v166h574v-166c-15 -4 -33 -4 -47 0l-39 102h-192v-258c59 17 114 30 175 30c104 0 202 -46 202 -206v-160l93 -25c3 -12 3 -25 0 -37h-193v173c0 123 -23 182 -149 182c-49 0 -94 -8 -128 -17v-276l93 -25c3 -12 3 -25 0 -37
h-286c-3 12 -3 25 0 37l93 25v594z" />
    <glyph glyph-name="afii10062" unicode="&#x40e;" horiz-adv-x="695" 
d="M120 -10v151c15 4 33 4 47 0l28 -75c59 9 102 51 138 120l-239 475l-79 22c-3 12 -3 25 0 37h285c3 -12 3 -25 0 -37l-95 -25l178 -354h4l151 357l-94 22c-3 12 -3 25 0 37h243c3 -12 3 -25 0 -37l-77 -23l-170 -396c-75 -175 -142 -276 -279 -276c-13 0 -32 1 -41 2z
M225 908c10 2 23 3 36 3s26 -1 36 -3c6 -44 21 -76 74 -76s69 33 74 76c10 2 24 3 37 3s25 -1 35 -3c-6 -82 -61 -131 -146 -131c-92 0 -140 50 -146 131z" />
    <glyph glyph-name="afii10145" unicode="&#x40f;" horiz-adv-x="806" 
d="M344 0h-303c-3 12 -3 25 0 37l93 25v596l-93 25c-3 12 -3 25 0 37h286c3 -12 3 -25 0 -37l-93 -25v-594h338v594l-93 25c-3 12 -3 25 0 37h286c3 -12 3 -25 0 -37l-93 -25v-596l93 -25c3 -12 3 -25 0 -37h-303l-36 -137c-15 -4 -33 -4 -47 0z" />
    <glyph glyph-name="afii10017" unicode="&#x410;" horiz-adv-x="785" 
d="M577 62l-62 163h-284l-62 -165l97 -23c3 -12 3 -25 0 -37h-248c-3 12 -3 25 0 37l79 21l251 662h87l250 -661l82 -22c3 -12 3 -25 0 -37h-286c-3 12 -3 25 0 37zM371 596l-116 -307h236l-116 307h-4z" />
    <glyph glyph-name="afii10018" unicode="&#x411;" horiz-adv-x="661" 
d="M475 656h-241v-224h58c224 0 324 -56 324 -211c0 -152 -99 -221 -324 -221h-251c-3 12 -3 25 0 37l93 25v596l-93 25c-3 12 -3 25 0 37h520v-166c-15 -4 -33 -4 -47 0zM234 368v-304h54c154 0 225 47 225 157s-70 147 -225 147h-54z" />
    <glyph glyph-name="afii10019" unicode="&#x412;" horiz-adv-x="658" 
d="M134 62v596l-93 25c-3 12 -3 25 0 37h267c129 0 269 -31 269 -177c0 -70 -49 -137 -129 -154v-4c96 -3 172 -67 172 -168c0 -160 -138 -217 -292 -217h-287c-3 12 -3 25 0 37zM316 347h-82v-283h69c113 0 212 19 212 139c0 114 -84 144 -199 144zM472 540
c0 87 -58 116 -171 116h-67v-245h76c122 0 162 49 162 129z" />
    <glyph glyph-name="afii10020" unicode="&#x413;" horiz-adv-x="586" 
d="M488 656h-254v-594l93 -25c3 -12 3 -25 0 -37h-286c-3 12 -3 25 0 37l93 25v596l-93 25c-3 12 -3 25 0 37h533v-166c-15 -4 -33 -4 -47 0z" />
    <glyph glyph-name="afii10021" unicode="&#x414;" horiz-adv-x="738" 
d="M20 64h65c125 145 140 428 142 594l-93 25c-3 12 -3 25 0 37h558c3 -12 3 -25 0 -37l-88 -25v-594h88v-201c-15 -4 -33 -4 -47 0l-53 137h-473l-52 -137c-14 -4 -32 -4 -47 0v201zM504 656h-208c-11 -290 -35 -449 -127 -592h335v592z" />
    <glyph glyph-name="afii10022" unicode="&#x415;" horiz-adv-x="639" 
d="M134 62v596l-93 25c-3 12 -3 25 0 37h540v-157c-15 -4 -33 -4 -47 0l-34 93h-266v-245h194l25 62c12 3 25 3 37 0v-208c-12 -3 -25 -3 -37 0l-25 82h-194v-283h285l35 98c14 4 32 4 47 0v-162h-560c-3 12 -3 25 0 37z" />
    <glyph glyph-name="afii10024" unicode="&#x416;" horiz-adv-x="1076" 
d="M1068 0h-174l-291 359v6l251 302l-60 16c-3 12 -3 25 0 37h244c3 -12 3 -25 0 -37l-104 -28l-222 -266l264 -327l92 -25c3 -12 3 -25 0 -37zM488 658l-93 25c-3 12 -3 25 0 37h286c3 -12 3 -25 0 -37l-93 -25v-596l93 -25c3 -12 3 -25 0 -37h-286c-3 12 -3 25 0 37l93 25
v596zM182 0h-174c-3 12 -3 25 0 37l92 25l264 327l-222 266l-104 28c-3 12 -3 25 0 37h244c3 -12 3 -25 0 -37l-60 -16l251 -302v-6z" />
    <glyph glyph-name="afii10025" unicode="&#x417;" horiz-adv-x="584" 
d="M66 540v147c55 25 144 42 208 42c119 0 249 -40 249 -171c0 -82 -54 -151 -134 -167v-5c88 -19 153 -66 153 -174c-1 -159 -141 -222 -287 -222c-77 0 -154 17 -213 48v152c15 4 33 4 47 0l46 -119c32 -7 67 -11 102 -11c102 0 202 40 202 157c0 109 -89 131 -202 131
h-69c-2 10 -3 21 -3 32s1 21 3 32h60c114 0 193 38 193 136c0 81 -84 114 -164 114c-38 0 -75 -7 -104 -19l-40 -103c-14 -4 -32 -4 -47 0z" />
    <glyph glyph-name="afii10026" unicode="&#x418;" horiz-adv-x="821" 
d="M234 121v-59l93 -25c3 -12 3 -25 0 -37h-286c-3 12 -3 25 0 37l93 25v596l-93 25c-3 12 -3 25 0 37h286c3 -12 3 -25 0 -37l-93 -25v-436h4l349 378v58l-93 25c-3 12 -3 25 0 37h286c3 -12 3 -25 0 -37l-93 -25v-596l93 -25c3 -12 3 -25 0 -37h-286c-3 12 -3 25 0 37
l93 25v438h-4z" />
    <glyph glyph-name="afii10027" unicode="&#x419;" horiz-adv-x="821" 
d="M264 908c10 2 23 3 36 3s26 -1 36 -3c6 -44 21 -76 74 -76s69 33 74 76c10 2 24 3 37 3s25 -1 35 -3c-6 -82 -61 -131 -146 -131c-92 0 -140 50 -146 131zM234 121v-59l93 -25c3 -12 3 -25 0 -37h-286c-3 12 -3 25 0 37l93 25v596l-93 25c-3 12 -3 25 0 37h286
c3 -12 3 -25 0 -37l-93 -25v-436h4l349 378v58l-93 25c-3 12 -3 25 0 37h286c3 -12 3 -25 0 -37l-93 -25v-596l93 -25c3 -12 3 -25 0 -37h-286c-3 12 -3 25 0 37l93 25v438h-4z" />
    <glyph glyph-name="afii10028" unicode="&#x41a;" horiz-adv-x="732" 
d="M724 0h-174l-301 359v6l261 302l-60 16c-3 12 -3 25 0 37h244c3 -12 3 -25 0 -37l-104 -28l-232 -265l274 -328l92 -25c3 -12 3 -25 0 -37zM134 658l-93 25c-3 12 -3 25 0 37h286c3 -12 3 -25 0 -37l-93 -25v-596l93 -25c3 -12 3 -25 0 -37h-286c-3 12 -3 25 0 37l93 25
v596z" />
    <glyph glyph-name="afii10029" unicode="&#x41b;" horiz-adv-x="741" 
d="M20 -5v155c15 4 33 4 47 0l22 -64c126 69 139 397 144 572l-93 25c-3 12 -3 25 0 37h560c3 -12 3 -25 0 -37l-93 -25v-596l93 -25c3 -12 3 -25 0 -37h-286c-3 12 -3 25 0 37l93 25v594h-204c-15 -400 -67 -643 -278 -666z" />
    <glyph glyph-name="afii10030" unicode="&#x41c;" horiz-adv-x="1023" 
d="M739 720h215c3 -12 3 -25 0 -37l-93 -25l31 -596l93 -25c3 -12 3 -25 0 -37h-289c-3 12 -3 25 0 37l93 25l-25 525h-4l-231 -587h-87l-214 586h-4l-45 -526l95 -23c3 -12 3 -25 0 -37h-243c-3 12 -3 25 0 37l82 22l51 599l-93 25c-3 12 -3 25 0 37h217l216 -594h4z" />
    <glyph glyph-name="afii10031" unicode="&#x41d;" horiz-adv-x="816" 
d="M234 347v-285l93 -25c3 -12 3 -25 0 -37h-286c-3 12 -3 25 0 37l93 25v596l-93 25c-3 12 -3 25 0 37h286c3 -12 3 -25 0 -37l-93 -25v-247h348v247l-93 25c-3 12 -3 25 0 37h286c3 -12 3 -25 0 -37l-93 -25v-596l93 -25c3 -12 3 -25 0 -37h-286c-3 12 -3 25 0 37l93 25
v285h-348z" />
    <glyph glyph-name="afii10032" unicode="&#x41e;" horiz-adv-x="737" 
d="M48 360c0 236 106 370 321 370c224 0 320 -134 320 -370c0 -246 -96 -370 -320 -370c-215 0 -321 124 -321 370zM586 360c0 180 -49 306 -217 306c-159 0 -218 -126 -218 -306s59 -306 218 -306c168 0 217 126 217 306z" />
    <glyph glyph-name="afii10033" unicode="&#x41f;" horiz-adv-x="806" 
d="M134 658l-93 25c-3 12 -3 25 0 37h724c3 -12 3 -25 0 -37l-93 -25v-596l93 -25c3 -12 3 -25 0 -37h-286c-3 12 -3 25 0 37l93 25v594h-338v-594l93 -25c3 -12 3 -25 0 -37h-286c-3 12 -3 25 0 37l93 25v596z" />
    <glyph glyph-name="afii10034" unicode="&#x420;" horiz-adv-x="631" 
d="M234 260v-198l93 -25c3 -12 3 -25 0 -37h-286c-3 12 -3 25 0 37l93 25v596l-93 25c-3 12 -3 25 0 37h239c206 0 309 -65 309 -222c0 -122 -88 -238 -303 -238h-52zM486 496c0 107 -63 160 -205 160h-47v-332h34c144 0 218 63 218 172z" />
    <glyph glyph-name="afii10035" unicode="&#x421;" horiz-adv-x="656" 
d="M521 77l48 120c14 4 32 4 47 0v-148c-66 -38 -153 -59 -238 -59c-218 0 -330 147 -330 372c0 214 122 368 352 368c77 0 156 -16 211 -46v-147c-15 -4 -33 -4 -47 0l-44 111c-32 10 -71 15 -111 15c-180 0 -258 -138 -258 -303c0 -174 79 -302 255 -302c40 0 80 7 115 19
z" />
    <glyph glyph-name="afii10036" unicode="&#x422;" horiz-adv-x="622" 
d="M361 656v-594l93 -25c3 -12 3 -25 0 -37h-286c-3 12 -3 25 0 37l93 25v594h-158l-39 -102c-14 -4 -32 -4 -47 0v166h588v-166c-15 -4 -33 -4 -47 0l-39 102h-158z" />
    <glyph glyph-name="afii10037" unicode="&#x423;" horiz-adv-x="695" 
d="M120 -10v151c15 4 33 4 47 0l28 -75c59 9 102 51 138 120l-239 475l-79 22c-3 12 -3 25 0 37h285c3 -12 3 -25 0 -37l-95 -25l178 -354h4l151 357l-94 22c-3 12 -3 25 0 37h243c3 -12 3 -25 0 -37l-77 -23l-170 -396c-75 -175 -142 -276 -279 -276c-13 0 -32 1 -41 2z
" />
    <glyph glyph-name="afii10038" unicode="&#x424;" horiz-adv-x="799" 
d="M350 658l-93 25c-3 12 -3 25 0 37h286c3 -12 3 -25 0 -37l-93 -25v-45c215 -12 307 -101 307 -252c0 -158 -92 -242 -307 -253v-46l93 -25c3 -12 3 -25 0 -37h-286c-3 12 -3 25 0 37l93 25v46c-207 12 -308 97 -308 253c0 151 101 240 308 252v45zM654 361
c0 112 -50 189 -204 203v-406c154 13 204 90 204 203zM145 361c0 -113 55 -189 205 -203v405c-150 -13 -205 -91 -205 -202z" />
    <glyph glyph-name="afii10039" unicode="&#x425;" horiz-adv-x="723" 
d="M342 314l-167 -256l86 -21c3 -12 3 -25 0 -37h-243c-3 12 -3 25 0 37l75 20l209 319l-188 286l-76 21c-3 12 -3 25 0 37h281c3 -12 3 -25 0 -37l-84 -24l144 -220l144 220l-84 24c-3 12 -3 25 0 37h243c3 -12 3 -25 0 -37l-75 -18l-188 -287l210 -321l76 -20
c3 -12 3 -25 0 -37h-286c-3 12 -3 25 0 37l89 24z" />
    <glyph glyph-name="afii10040" unicode="&#x426;" horiz-adv-x="806" 
d="M666 0h-625c-3 12 -3 25 0 37l93 25v596l-93 25c-3 12 -3 25 0 37h286c3 -12 3 -25 0 -37l-93 -25v-594h338v594l-93 25c-3 12 -3 25 0 37h286c3 -12 3 -25 0 -37l-93 -25v-594h94v-201c-15 -4 -33 -4 -47 0z" />
    <glyph glyph-name="afii10041" unicode="&#x427;" horiz-adv-x="758" 
d="M106 479v179l-93 25c-3 12 -3 25 0 37h276c3 -12 3 -25 0 -37l-83 -25v-131c0 -137 57 -185 168 -185c40 0 95 4 150 18v298l-83 25c-3 12 -3 25 0 37h276c3 -12 3 -25 0 -37l-93 -25v-596l93 -25c3 -12 3 -25 0 -37h-286c-3 12 -3 25 0 37l93 25v235
c-58 -18 -122 -30 -183 -30c-125 0 -235 52 -235 212z" />
    <glyph glyph-name="afii10042" unicode="&#x428;" horiz-adv-x="1074" 
d="M1033 0h-992c-3 12 -3 25 0 37l93 25v596l-93 25c-3 12 -3 25 0 37h276c3 -12 3 -25 0 -37l-83 -25v-594h254v594l-83 25c-3 12 -3 25 0 37h266c3 -12 3 -25 0 -37l-83 -25v-594h252v594l-83 25c-3 12 -3 25 0 37h276c3 -12 3 -25 0 -37l-93 -25v-596l93 -25
c3 -12 3 -25 0 -37z" />
    <glyph glyph-name="afii10043" unicode="&#x429;" horiz-adv-x="1074" 
d="M933 0h-892c-3 12 -3 25 0 37l93 25v596l-93 25c-3 12 -3 25 0 37h276c3 -12 3 -25 0 -37l-83 -25v-594h254v594l-83 25c-3 12 -3 25 0 37h266c3 -12 3 -25 0 -37l-83 -25v-594h252v594l-83 25c-3 12 -3 25 0 37h276c3 -12 3 -25 0 -37l-93 -25v-594h93v-201
c-15 -4 -33 -4 -47 0z" />
    <glyph glyph-name="afii10044" unicode="&#x42a;" horiz-adv-x="709" 
d="M241 656h-125l-39 -102c-14 -4 -32 -4 -47 0v166h404c3 -12 3 -25 0 -37l-93 -25v-237h42c255 0 291 -101 291 -211c0 -103 -36 -210 -335 -210h-191c-3 12 -3 25 0 37l93 25v594zM571 210c0 124 -80 147 -230 147v-293c150 0 230 21 230 146z" />
    <glyph glyph-name="afii10045" unicode="&#x42b;" horiz-adv-x="897" 
d="M134 658l-93 25c-3 12 -3 25 0 37h286c3 -12 3 -25 0 -37l-93 -25v-237h42c253 0 291 -101 291 -211c0 -103 -36 -210 -335 -210h-191c-3 12 -3 25 0 37l93 25v596zM663 658l-93 25c-3 12 -3 25 0 37h286c3 -12 3 -25 0 -37l-93 -25v-596l93 -25c3 -12 3 -25 0 -37h-286
c-3 12 -3 25 0 37l93 25v596zM464 210c0 124 -80 147 -230 147v-293c150 0 230 21 230 146z" />
    <glyph glyph-name="afii10046" unicode="&#x42c;" horiz-adv-x="602" 
d="M134 658l-93 25c-3 12 -3 25 0 37h286c3 -12 3 -25 0 -37l-93 -25v-237h42c255 0 291 -101 291 -211c0 -101 -37 -210 -320 -210h-206c-3 12 -3 25 0 37l93 25v596zM464 210c0 124 -80 147 -230 147v-293c150 0 230 21 230 146z" />
    <glyph glyph-name="afii10047" unicode="&#x42d;" horiz-adv-x="646" 
d="M87 193l48 -120c29 -11 62 -16 94 -16c177 0 263 120 266 295l-378 -8c-2 10 -3 23 -3 35s1 24 3 35l376 -8c-13 160 -93 259 -257 259c-34 0 -67 -5 -95 -19l-46 -113c-14 -4 -32 -4 -47 0v147c67 35 137 50 204 50c217 0 346 -132 346 -370s-122 -370 -351 -370
c-77 0 -153 18 -207 55v148c15 4 33 4 47 0z" />
    <glyph glyph-name="afii10048" unicode="&#x42e;" horiz-adv-x="1004" 
d="M134 658l-93 25c-3 12 -3 25 0 37h286c3 -12 3 -25 0 -37l-93 -25v-247h118c14 204 116 319 302 319c210 0 302 -134 302 -370c0 -246 -92 -370 -302 -370c-198 0 -298 120 -303 357h-117v-285l93 -25c3 -12 3 -25 0 -37h-286c-3 12 -3 25 0 37l93 25v596zM853 360
c0 180 -52 306 -199 306c-139 0 -200 -126 -200 -306s61 -306 200 -306c147 0 199 126 199 306z" />
    <glyph glyph-name="afii10049" unicode="&#x42f;" horiz-adv-x="717" 
d="M483 62v232h-47c-43 0 -64 -31 -84 -59l-171 -235h-168c-3 12 -3 25 0 37l85 23l143 193c16 21 39 47 81 57v4c-148 6 -199 97 -199 187c0 152 108 219 314 219h239c3 -12 3 -25 0 -37l-93 -25v-596l93 -25c3 -12 3 -25 0 -37h-286c-3 12 -3 25 0 37zM226 499
c0 -109 69 -145 218 -145h39v302h-52c-141 0 -205 -50 -205 -157z" />
    <glyph glyph-name="afii10065" unicode="&#x430;" horiz-adv-x="589" 
d="M387 136v135h-29c-79 0 -210 -15 -210 -125c0 -58 35 -91 90 -91c58 0 118 36 149 81zM483 362v-310h75c4 -15 4 -30 0 -45l-103 -16c-28 -4 -68 -2 -68 61v19l-4 1c-42 -53 -108 -82 -171 -82c-95 0 -162 57 -162 152c0 170 201 177 337 177v55c0 84 -72 106 -143 106
c-31 0 -62 -4 -87 -9l-25 -85c-14 -4 -30 -4 -45 0v117c60 21 132 37 195 37c112 0 201 -44 201 -178z" />
    <glyph glyph-name="afii10066" unicode="&#x431;" horiz-adv-x="584" 
d="M539 259c0 -178 -77 -269 -239 -269c-209 0 -240 166 -240 324c0 116 18 275 111 345c65 48 159 54 266 59l18 40c11 3 23 3 35 0v-117l-5 -5c-80 -3 -146 -4 -201 -16c-93 -19 -135 -59 -153 -185l4 -1c42 68 108 96 175 96c164 0 229 -122 229 -271zM441 259
c0 153 -49 211 -141 211c-89 0 -139 -60 -139 -211c0 -145 50 -209 139 -209c88 0 141 63 141 209z" />
    <glyph glyph-name="afii10067" unicode="&#x432;" horiz-adv-x="581" 
d="M122 55v419l-75 21c-3 12 -3 23 0 35h266c87 0 195 -23 195 -130c0 -57 -34 -106 -97 -116v-4c73 -6 125 -56 125 -122c0 -114 -98 -158 -229 -158h-260c-3 12 -3 24 0 35zM435 158c0 67 -66 91 -136 91h-81v-189h54c88 0 163 15 163 98zM285 470h-67v-167h88
c58 0 101 22 101 82c0 70 -55 85 -122 85z" />
    <glyph glyph-name="afii10068" unicode="&#x433;" horiz-adv-x="481" 
d="M218 470v-415l75 -20c3 -12 3 -23 0 -35h-246c-3 12 -3 23 0 35l75 20v420l-75 20c-3 12 -3 23 0 35h412v-137c-16 -4 -31 -4 -45 0l-25 77h-171z" />
    <glyph glyph-name="afii10069" unicode="&#x434;" horiz-adv-x="612" 
d="M565 60v-180c-16 -4 -31 -4 -45 0l-40 120h-375l-40 -120c-14 -4 -29 -4 -45 0v180h60c66 117 90 274 88 415l-74 20c-3 12 -3 23 0 35h468c3 -12 3 -23 0 -35l-72 -20v-415h75zM155 60h239v410h-158c-7 -229 -40 -317 -83 -406z" />
    <glyph glyph-name="afii10070" unicode="&#x435;" horiz-adv-x="549" 
d="M499 270h-356v-6c0 -149 65 -213 196 -213c26 0 56 3 78 11l27 88c14 4 29 4 45 0v-117c-51 -26 -119 -43 -185 -43c-169 0 -259 97 -259 275c0 171 90 275 245 275c138 0 212 -98 212 -224c0 -15 -1 -30 -3 -46zM289 482c-91 0 -131 -76 -143 -163l260 16
c0 94 -54 147 -117 147z" />
    <glyph glyph-name="afii10072" unicode="&#x436;" horiz-adv-x="858" 
d="M854 0h-144l-218 266v8l195 205l-63 16c-3 12 -3 23 0 35h212c3 -12 3 -23 0 -35l-74 -20l-171 -178l204 -250l59 -12c3 -11 3 -23 0 -35zM381 55v420l-64 20c-3 12 -3 23 0 35h224c3 -12 3 -23 0 -35l-64 -20v-420l74 -20c3 -11 3 -23 0 -35h-244c-3 12 -3 24 0 35z
M148 0h-144c-3 12 -3 24 0 35l59 12l204 250l-171 178l-74 20c-3 12 -3 23 0 35h212c3 -12 3 -23 0 -35l-63 -16l195 -205v-8z" />
    <glyph glyph-name="afii10073" unicode="&#x437;" horiz-adv-x="490" 
d="M90 151l25 -79c27 -14 66 -23 103 -23c65 0 129 29 129 108c0 89 -108 89 -137 89h-70c-2 10 -3 20 -3 29c0 10 1 21 3 31h48c72 0 144 17 144 97c0 64 -56 81 -112 81c-38 0 -76 -8 -97 -14l-25 -85c-15 -4 -30 -4 -45 0v117c48 19 121 39 189 39c92 0 188 -40 188 -138
c0 -63 -41 -111 -106 -121v-4c69 -7 121 -55 121 -127c0 -121 -119 -161 -217 -161c-64 0 -125 13 -183 44v117c15 4 31 4 45 0z" />
    <glyph glyph-name="afii10074" unicode="&#x438;" horiz-adv-x="691" 
d="M473 420v55l-75 20c-3 12 -3 23 0 35h246c3 -12 3 -23 0 -35l-75 -20v-420l75 -20c3 -12 3 -23 0 -35h-246c-3 12 -3 23 0 35l75 20v280l-4 1l-251 -224v-57l75 -20c3 -12 3 -23 0 -35h-246c-3 12 -3 23 0 35l75 20v420l-75 20c-3 12 -3 23 0 35h246c3 -12 3 -23 0 -35
l-75 -20v-277l4 -1z" />
    <glyph glyph-name="afii10075" unicode="&#x439;" horiz-adv-x="691" 
d="M203 737c11 2 22 3 34 3s24 -1 35 -3c6 -46 21 -86 73 -86s67 40 73 86c11 2 22 3 34 3s24 -1 35 -3c-2 -81 -50 -143 -142 -143s-140 62 -142 143zM473 420v55l-75 20c-3 12 -3 23 0 35h246c3 -12 3 -23 0 -35l-75 -20v-420l75 -20c3 -12 3 -23 0 -35h-246
c-3 12 -3 23 0 35l75 20v280l-4 1l-251 -224v-57l75 -20c3 -12 3 -23 0 -35h-246c-3 12 -3 23 0 35l75 20v420l-75 20c-3 12 -3 23 0 35h246c3 -12 3 -23 0 -35l-75 -20v-277l4 -1z" />
    <glyph glyph-name="afii10076" unicode="&#x43a;" horiz-adv-x="607" 
d="M603 0h-147l-223 267v7l199 207l-58 14c-3 12 -3 23 0 35h210c3 -12 3 -23 0 -35l-72 -19l-177 -179l210 -250l58 -12c3 -11 3 -23 0 -35zM122 55v420l-75 20c-3 12 -3 23 0 35h246c3 -12 3 -23 0 -35l-75 -20v-420l75 -20c3 -12 3 -23 0 -35h-246c-3 12 -3 23 0 35z" />
    <glyph glyph-name="afii10077" unicode="&#x43b;" horiz-adv-x="624" 
d="M180 475l-75 20c-3 12 -3 23 0 35h469c3 -12 3 -23 0 -35l-72 -20v-420l75 -20c3 -12 3 -23 0 -35h-246c-3 12 -3 23 0 35l75 20v415h-162c-10 -294 -44 -480 -217 -480l-5 5v130c16 4 31 4 45 0l21 -58c73 27 91 251 92 408z" />
    <glyph glyph-name="afii10078" unicode="&#x43c;" horiz-adv-x="834" 
d="M712 475v-420l75 -20c3 -12 3 -23 0 -35h-246c-3 12 -3 23 0 35l75 20v390h-4l-202 -445h-78l-138 445h-4l-37 -395l58 -15c3 -12 3 -23 0 -35h-178c-3 12 -3 23 0 35l62 16l39 424l-73 20c-3 12 -3 23 0 35h205l128 -413h5l183 413h205c3 -12 3 -23 0 -35z" />
    <glyph glyph-name="afii10079" unicode="&#x43d;" horiz-adv-x="686" 
d="M218 251v-196l75 -20c3 -12 3 -23 0 -35h-246c-3 12 -3 23 0 35l75 20v420l-75 20c-3 12 -3 23 0 35h246c3 -12 3 -23 0 -35l-75 -20v-164h250v164l-75 20c-3 12 -3 23 0 35h246c3 -12 3 -23 0 -35l-75 -20v-420l75 -20c3 -12 3 -23 0 -35h-246c-3 12 -3 23 0 35l75 20
v196h-250z" />
    <glyph glyph-name="afii10080" unicode="&#x43e;" horiz-adv-x="582" 
d="M537 265c0 -178 -85 -275 -246 -275s-246 97 -246 275c0 173 85 275 246 275s246 -102 246 -275zM439 265c0 153 -59 215 -148 215s-148 -62 -148 -215s59 -215 148 -215s148 62 148 215z" />
    <glyph glyph-name="afii10081" unicode="&#x43f;" horiz-adv-x="681" 
d="M218 470v-415l75 -20c3 -12 3 -23 0 -35h-246c-3 12 -3 23 0 35l75 20v420l-75 20c-3 12 -3 23 0 35h586c3 -12 3 -23 0 -35l-74 -20v-420l75 -20c3 -12 3 -23 0 -35h-246c-3 12 -3 23 0 35l75 20v415h-245z" />
    <glyph glyph-name="afii10082" unicode="&#x440;" horiz-adv-x="606" 
d="M208 8v-153l75 -20c3 -12 3 -23 0 -35h-246c-3 11 -3 22 0 35l75 20v618h-75c-4 15 -4 30 0 45l121 20c46 8 50 -15 50 -50v-23l4 -1c41 46 87 76 155 76c132 0 194 -123 194 -255c0 -171 -104 -295 -252 -295c-32 0 -66 6 -101 18zM208 398v-341c24 -6 49 -9 71 -9
c107 0 184 72 184 222c0 101 -30 202 -129 202c-52 0 -95 -30 -126 -74z" />
    <glyph glyph-name="afii10083" unicode="&#x441;" horiz-adv-x="506" 
d="M471 155v-122c-49 -28 -112 -43 -172 -43c-160 0 -254 90 -254 274c0 181 103 276 258 276c59 0 118 -13 163 -35v-117c-15 -4 -30 -4 -45 0l-25 82c-24 6 -50 10 -81 10c-117 0 -172 -85 -172 -216c0 -139 54 -210 179 -210c29 0 56 4 77 10l27 91c14 4 30 4 45 0z" />
    <glyph glyph-name="afii10084" unicode="&#x442;" horiz-adv-x="506" 
d="M301 470v-415l75 -20c3 -12 3 -23 0 -35h-246c-3 12 -3 23 0 35l75 20v415h-113l-25 -77c-14 -4 -29 -4 -45 0v137h462v-137c-16 -4 -31 -4 -45 0l-25 77h-113z" />
    <glyph glyph-name="afii10085" unicode="&#x443;" horiz-adv-x="583" 
d="M54 -195v135c16 3 31 3 45 0l20 -64c45 0 99 12 159 124l-207 477l-66 18c-3 12 -3 23 0 35h233c3 -12 3 -23 0 -35l-63 -18l152 -353h4l131 351l-72 20c-3 12 -3 23 0 35h192c3 -12 3 -23 0 -35l-53 -14l-142 -374c-95 -249 -175 -308 -296 -308c-9 0 -21 0 -32 1z" />
    <glyph glyph-name="afii10086" unicode="&#x444;" horiz-adv-x="811" 
d="M453 9v-154l75 -20c3 -12 3 -23 0 -35h-246c-3 12 -3 23 0 35l75 20v210l-4 1c-32 -51 -82 -76 -134 -76c-137 0 -174 150 -174 262c0 132 58 288 217 288c32 0 65 -7 95 -19v172h-75c-4 15 -4 30 0 45l120 20c47 8 51 -15 51 -51v-242l4 -1c31 41 73 76 136 76
c136 0 173 -145 173 -255c0 -137 -54 -295 -223 -295c-31 0 -62 6 -90 19zM453 398v-340c19 -7 40 -10 62 -10c124 0 153 110 153 222c0 78 -12 202 -109 202c-42 0 -79 -29 -106 -74zM357 128v344c-19 6 -39 9 -60 9c-125 0 -154 -114 -154 -216c0 -77 15 -207 110 -207
c38 0 77 22 104 70z" />
    <glyph glyph-name="afii10087" unicode="&#x445;" horiz-adv-x="565" 
d="M23 530h231c3 -12 3 -23 0 -35l-59 -16l107 -149l109 148l-60 17c-3 12 -3 23 0 35h192c3 -12 3 -23 0 -35l-60 -16l-146 -198l164 -231l59 -15c3 -12 3 -23 0 -35h-242c-3 12 -3 23 0 35l66 18l-121 169l-127 -170l66 -17c3 -12 3 -23 0 -35h-197c-3 12 -3 23 0 35
l59 16l164 220l-149 209l-56 15c-3 12 -3 23 0 35z" />
    <glyph glyph-name="afii10088" unicode="&#x446;" horiz-adv-x="681" 
d="M463 60v415l-75 20c-3 12 -3 23 0 35h246c3 -12 3 -23 0 -35l-75 -20v-415h75v-180c-16 -4 -31 -4 -45 0l-40 120h-502c-3 12 -3 23 0 35l75 20v420l-75 20c-3 12 -3 23 0 35h246c3 -12 3 -23 0 -35l-75 -20v-415h245z" />
    <glyph glyph-name="afii10089" unicode="&#x447;" horiz-adv-x="634" 
d="M416 277v198l-65 20c-3 12 -3 23 0 35h236c3 -12 3 -23 0 -35l-75 -20v-420l75 -20c3 -12 3 -23 0 -35h-246c-3 12 -3 23 0 35l75 20v166l-4 1c-41 -32 -102 -52 -159 -52c-116 0 -165 71 -165 199v106l-75 20c-3 12 -3 23 0 35h246c3 -12 3 -23 0 -35l-75 -20v-63
c0 -108 8 -172 107 -172c47 0 91 15 125 37z" />
    <glyph glyph-name="afii10090" unicode="&#x448;" horiz-adv-x="906" 
d="M405 60v415l-63 20c-3 12 -3 23 0 35h222c3 -12 3 -23 0 -35l-63 -20v-415h187v415l-63 20c-3 12 -3 23 0 35h234c3 -12 3 -23 0 -35l-75 -20v-420l75 -20c3 -12 3 -23 0 -35h-812c-3 12 -3 23 0 35l75 20v420l-75 20c-3 12 -3 23 0 35h234c3 -12 3 -23 0 -35l-63 -20
v-415h187z" />
    <glyph glyph-name="afii10091" unicode="&#x449;" horiz-adv-x="906" 
d="M405 60v415l-63 20c-3 12 -3 23 0 35h222c3 -12 3 -23 0 -35l-63 -20v-415h187v415l-63 20c-3 12 -3 23 0 35h234c3 -12 3 -23 0 -35l-75 -20v-415h75v-180c-16 -4 -31 -4 -45 0l-40 120h-727c-3 12 -3 23 0 35l75 20v420l-75 20c-3 12 -3 23 0 35h234c3 -12 3 -23 0 -35
l-63 -20v-415h187z" />
    <glyph glyph-name="afii10092" unicode="&#x44a;" horiz-adv-x="605" 
d="M207 55v415h-115l-25 -77c-15 -4 -30 -4 -45 0v137h356c3 -12 3 -23 0 -35l-75 -20v-160h31c192 0 243 -52 243 -155c0 -93 -52 -160 -263 -160h-182c-3 12 -3 23 0 35zM479 160c0 90 -65 97 -176 97v-199c111 0 176 11 176 102z" />
    <glyph glyph-name="afii10093" unicode="&#x44b;" horiz-adv-x="801" 
d="M583 55v420l-75 20c-3 12 -3 23 0 35h246c3 -12 3 -23 0 -35l-75 -20v-420l75 -20c3 -12 3 -23 0 -35h-246c-3 12 -3 23 0 35zM122 55v420l-75 20c-3 12 -3 23 0 35h246c3 -12 3 -23 0 -35l-75 -20v-160h31c192 0 243 -52 243 -155c0 -93 -52 -160 -263 -160h-182
c-3 12 -3 23 0 35zM394 160c0 90 -65 97 -176 97v-199c111 0 176 11 176 102z" />
    <glyph glyph-name="afii10094" unicode="&#x44c;" horiz-adv-x="520" 
d="M122 55v420l-75 20c-3 12 -3 23 0 35h246c3 -12 3 -23 0 -35l-75 -20v-160h31c192 0 243 -52 243 -155c0 -93 -52 -160 -263 -160h-182c-3 12 -3 23 0 35zM394 160c0 90 -65 97 -176 97v-199c111 0 176 11 176 102z" />
    <glyph glyph-name="afii10095" unicode="&#x44d;" horiz-adv-x="506" 
d="M35 27v122c16 4 31 4 45 0l28 -91c17 -4 36 -6 56 -6c125 0 192 63 198 192l-257 -5c-2 12 -3 23 -3 34s1 22 3 34l256 -5c-8 112 -59 178 -177 178c-26 0 -52 -5 -73 -15l-25 -82c-14 -4 -29 -4 -45 0v117c43 26 101 40 159 40c171 0 261 -99 261 -276
c0 -172 -88 -274 -263 -274c-58 0 -118 13 -163 37z" />
    <glyph glyph-name="afii10096" unicode="&#x44e;" horiz-adv-x="845" 
d="M218 244v-189l75 -20c3 -12 3 -23 0 -35h-246c-3 12 -3 23 0 35l75 20v420l-75 20c-3 12 -3 23 0 35h246c3 -12 3 -23 0 -35l-75 -20v-171h113c12 149 88 236 234 236c156 0 235 -103 235 -276c0 -178 -79 -274 -235 -274c-153 0 -229 89 -235 254h-112zM702 264
c0 153 -54 216 -137 216c-88 0 -137 -65 -137 -216c0 -145 49 -214 137 -214c83 0 137 68 137 214z" />
    <glyph glyph-name="afii10097" unicode="&#x44f;" horiz-adv-x="621" 
d="M165 0h-142c-3 12 -3 24 0 35l58 13l119 143c19 23 40 29 57 34v4c-111 0 -165 63 -165 142c0 153 156 159 313 159h169c3 -12 3 -22 0 -34l-75 -20v-421l75 -20c3 -11 3 -23 0 -35h-246c-3 12 -3 24 0 35l75 20v158h-24c-25 0 -47 -12 -70 -39zM403 470h-13
c-108 0 -200 -2 -200 -99c0 -70 47 -99 156 -99h57v198z" />
    <glyph glyph-name="afii10071" unicode="&#x451;" horiz-adv-x="549" 
d="M499 270h-356v-6c0 -149 65 -213 196 -213c26 0 56 3 78 11l27 88c14 4 29 4 45 0v-117c-51 -26 -119 -43 -185 -43c-169 0 -259 97 -259 275c0 171 90 275 245 275c138 0 212 -98 212 -224c0 -15 -1 -30 -3 -46zM289 482c-91 0 -131 -76 -143 -163l260 16
c0 94 -54 147 -117 147zM140 712c14 3 31 5 46 5s31 -2 45 -5c3 -15 5 -29 5 -44s-2 -30 -5 -45c-15 -3 -29 -5 -44 -5c-16 0 -32 2 -47 5c-3 15 -5 29 -5 44s2 30 5 45zM334 712c14 3 31 5 46 5s31 -2 45 -5c3 -15 5 -29 5 -44s-2 -30 -5 -45c-15 -3 -29 -5 -44 -5
c-16 0 -32 2 -47 5c-3 15 -5 29 -5 44s2 30 5 45z" />
    <glyph glyph-name="afii10099" unicode="&#x452;" horiz-adv-x="614" 
d="M206 387v-332l75 -20c3 -12 3 -23 0 -35h-246c-3 12 -3 23 0 35l75 20v531h-75c-1 9 -1 19 0 28l75 20v59h-75c-4 15 -4 30 0 45l120 20c47 8 51 -15 51 -51v-73h143c4 -16 4 -32 0 -48h-143v-141l4 -1c45 46 99 76 161 76c157 0 188 -173 188 -304
c0 -190 -60 -404 -270 -416c-6 12 -9 24 -9 39c149 32 181 196 181 350c0 85 -4 260 -128 260c-47 0 -93 -30 -127 -62z" />
    <glyph glyph-name="afii10100" unicode="&#x453;" horiz-adv-x="481" 
d="M218 470v-415l75 -20c3 -12 3 -23 0 -35h-246c-3 12 -3 23 0 35l75 20v420l-75 20c-3 12 -3 23 0 35h412v-137c-16 -4 -31 -4 -45 0l-25 77h-171zM219 615l112 155c24 -16 44 -33 61 -52l-133 -135c-15 7 -29 18 -40 32z" />
    <glyph glyph-name="afii10101" unicode="&#x454;" horiz-adv-x="507" 
d="M472 154v-122c-49 -28 -112 -43 -172 -43c-162 0 -255 91 -255 275c0 181 102 276 259 276c59 0 118 -13 163 -35v-117c-16 -4 -31 -4 -45 0l-25 82c-24 6 -50 10 -81 10c-106 0 -162 -69 -172 -178l259 5c2 -12 3 -23 3 -34s-1 -22 -3 -34l-260 5
c5 -126 61 -192 180 -192c29 0 56 4 77 10l27 92c14 4 30 4 45 0z" />
    <glyph glyph-name="afii10102" unicode="&#x455;" horiz-adv-x="471" 
d="M86 152l26 -86c25 -11 58 -18 94 -18c72 0 146 26 146 97c0 56 -63 64 -135 81c-82 19 -167 46 -167 153c0 120 104 161 211 161c55 0 109 -12 152 -29v-117c-15 -4 -30 -4 -45 0l-24 79c-21 6 -46 9 -73 9c-66 0 -132 -21 -132 -89c0 -63 78 -73 160 -92
c73 -17 142 -51 142 -144c0 -121 -111 -167 -224 -167c-66 0 -132 15 -176 40v122c15 4 30 4 45 0z" />
    <glyph glyph-name="afii10103" unicode="&#x456;" horiz-adv-x="328" 
d="M122 473h-75c-4 15 -4 30 0 45l121 20c46 8 50 -15 50 -50v-433l75 -20c3 -12 3 -23 0 -35h-246c-3 12 -3 23 0 35l75 20v418zM115 625c-3 15 -5 31 -5 46c0 16 2 32 5 49c15 3 32 5 48 5s34 -2 49 -5c3 -15 5 -31 5 -47c0 -15 -2 -31 -5 -48c-16 -4 -33 -5 -49 -5
s-32 1 -48 5z" />
    <glyph glyph-name="afii10104" unicode="&#x457;" horiz-adv-x="328" 
d="M123 473h-75c-4 15 -4 30 0 45l121 20c46 8 50 -15 50 -50v-433l75 -20c3 -12 3 -23 0 -35h-246c-3 12 -3 23 0 35l75 20v418zM9 712c14 3 31 5 46 5s31 -2 45 -5c3 -15 5 -29 5 -44s-2 -30 -5 -45c-15 -3 -29 -5 -44 -5c-16 0 -32 2 -47 5c-3 15 -5 29 -5 44s2 30 5 45z
M203 712c14 3 31 5 46 5s31 -2 45 -5c3 -15 5 -29 5 -44s-2 -30 -5 -45c-15 -3 -29 -5 -44 -5c-16 0 -32 2 -47 5c-3 15 -5 29 -5 44s2 30 5 45z" />
    <glyph glyph-name="afii10105" unicode="&#x458;" horiz-adv-x="314" 
d="M112 16v457h-75c-4 15 -4 30 0 45l121 20c46 8 50 -15 50 -50v-512c0 -111 -74 -168 -180 -182c-9 11 -13 24 -14 37c88 33 98 98 98 185zM100 625c-3 15 -5 31 -5 46c0 16 2 32 5 49c15 3 32 5 48 5s34 -2 49 -5c3 -15 5 -31 5 -47c0 -15 -2 -31 -5 -48
c-16 -4 -33 -5 -49 -5s-32 1 -48 5z" />
    <glyph glyph-name="afii10106" unicode="&#x459;" horiz-adv-x="797" 
d="M495 475v-160h31c192 0 243 -52 243 -155c0 -93 -52 -160 -263 -160h-182c-3 12 -3 23 0 35l75 20v415h-155c-10 -294 -44 -480 -217 -480l-5 5v130c16 4 31 4 45 0l21 -58c73 27 91 251 92 408l-75 20c-3 12 -3 23 0 35h462c3 -12 3 -23 0 -35zM671 160
c0 90 -65 97 -176 97v-199c111 0 176 11 176 102z" />
    <glyph glyph-name="afii10107" unicode="&#x45a;" horiz-adv-x="861" 
d="M463 55v200h-245v-200l73 -20c3 -12 3 -23 0 -35h-244c-3 12 -3 23 0 35l75 20v420l-75 20c-3 12 -3 23 0 35h244c3 -12 3 -23 0 -35l-73 -20v-160h245v160l-73 20c-3 12 -3 23 0 35h244c3 -12 3 -23 0 -35l-75 -20v-160h31c192 0 243 -52 243 -155
c0 -93 -52 -160 -263 -160h-180c-3 12 -3 23 0 35zM735 160c0 90 -65 97 -176 97v-199c111 0 176 11 176 102z" />
    <glyph glyph-name="afii10108" unicode="&#x45b;" horiz-adv-x="652" 
d="M110 586h-75c-1 9 -1 19 0 28l75 20v59h-75c-4 15 -4 30 0 45l121 20c47 8 50 -13 50 -50v-74h143c4 -16 4 -32 0 -48h-143v-141l4 -1c51 54 108 76 164 76c112 0 172 -59 172 -193v-272l75 -20c3 -12 3 -23 0 -35h-246c-3 12 -3 23 0 35l75 20v226c0 83 -7 167 -101 167
c-51 0 -108 -25 -143 -61v-332l75 -20c3 -13 3 -24 0 -35h-246c-3 12 -3 23 0 35l75 20v531z" />
    <glyph glyph-name="afii10109" unicode="&#x45c;" horiz-adv-x="607" 
d="M603 0h-147l-223 267v7l199 207l-58 14c-3 12 -3 23 0 35h210c3 -12 3 -23 0 -35l-72 -19l-177 -179l210 -250l58 -12c3 -11 3 -23 0 -35zM122 55v420l-75 20c-3 12 -3 23 0 35h246c3 -12 3 -23 0 -35l-75 -20v-420l75 -20c3 -12 3 -23 0 -35h-246c-3 12 -3 23 0 35z
M286 615l112 155c24 -16 44 -33 61 -52l-133 -135c-15 7 -29 18 -40 32z" />
    <glyph glyph-name="afii10110" unicode="&#x45e;" horiz-adv-x="583" 
d="M54 -195v135c16 3 31 3 45 0l20 -64c45 0 99 12 159 124l-207 477l-66 18c-3 12 -3 23 0 35h233c3 -12 3 -23 0 -35l-63 -18l152 -353h4l131 351l-72 20c-3 12 -3 23 0 35h192c3 -12 3 -23 0 -35l-53 -14l-142 -374c-95 -249 -175 -308 -296 -308c-9 0 -21 0 -32 1z
M170 737c11 2 22 3 34 3s24 -1 35 -3c6 -46 21 -86 73 -86s67 40 73 86c11 2 22 3 34 3s24 -1 35 -3c-2 -81 -50 -143 -142 -143s-140 62 -142 143z" />
    <glyph glyph-name="afii10193" unicode="&#x45f;" horiz-adv-x="681" 
d="M463 60v415l-75 20c-3 12 -3 23 0 35h246c3 -12 3 -23 0 -35l-75 -20v-420l75 -20c3 -12 3 -23 0 -35h-243l-28 -120c-14 -4 -29 -4 -45 0l-28 120h-243c-3 12 -3 23 0 35l75 20v420l-75 20c-3 12 -3 23 0 35h246c3 -12 3 -23 0 -35l-75 -20v-415h245z" />
    <glyph glyph-name="afii10050" unicode="&#x490;" horiz-adv-x="582" 
d="M565 656h-330v-594l93 -25c3 -12 3 -25 0 -37h-287c-3 12 -3 25 0 37l93 25v596l-93 25c-3 12 -3 25 0 37h443l39 102c14 4 32 4 47 0v-161z" />
    <glyph glyph-name="afii10098" unicode="&#x491;" horiz-adv-x="477" 
d="M47 530h333l30 80c14 4 29 4 45 0v-135l-5 -5h-232v-415l75 -20c3 -12 3 -23 0 -35h-246c-3 12 -3 23 0 35l75 20v420l-75 20c-3 12 -3 23 0 35z" />
    <glyph glyph-name="afii61352" unicode="&#x2116;" horiz-adv-x="1061" 
d="M187 603v-598l-5 -5h-141c-3 12 -3 25 0 37l82 22v602l-82 22c-3 12 -3 25 0 37h193l282 -558h4v553l5 5h141c3 -12 3 -25 0 -37l-82 -22v-661h-87l-306 603h-4zM1017 437c0 -126 -57 -194 -173 -194c-118 0 -173 68 -173 194c0 124 56 198 173 198s173 -74 173 -198z
M936 437c0 106 -29 146 -92 146c-64 0 -92 -42 -92 -146c0 -100 27 -142 92 -142c63 0 92 42 92 142zM984 123h-280c-4 20 -4 40 0 60h280c4 -20 4 -40 0 -60z" />
    <glyph glyph-name="currency" unicode="&#xa4;" horiz-adv-x="590" 
d="M102 361c0 41 13 80 35 111l-112 104c13 23 31 41 54 54l103 -112c32 22 71 36 113 36c43 0 82 -14 114 -37l100 113c26 -14 45 -33 55 -55l-111 -103c22 -32 35 -70 35 -111c0 -42 -14 -81 -36 -113l112 -103c-14 -22 -32 -40 -54 -54l-102 113
c-32 -23 -71 -36 -113 -36s-81 13 -113 36l-102 -113c-21 14 -40 33 -55 55l113 102c-23 32 -36 71 -36 113zM177 361c0 -65 50 -121 118 -121s118 56 118 121s-50 121 -118 121s-118 -56 -118 -121z" />
    <glyph glyph-name="caron.cap" unicode="&#xf6ca;" horiz-adv-x="400" 
d="M348 875l-143 -105h-10l-143 105c7 16 16 30 29 44l119 -71l119 71c13 -14 22 -28 29 -44z" />
    <glyph glyph-name="acute.cap" unicode="&#xf6c9;" horiz-adv-x="400" 
d="M96 816l173 103c15 -22 27 -46 34 -73l-184 -76c-11 14 -18 30 -23 46z" />
    <glyph glyph-name="afii10061" unicode="&#x40c;" horiz-adv-x="732" 
d="M724 0h-174l-301 359v6l261 302l-60 16c-3 12 -3 25 0 37h244c3 -12 3 -25 0 -37l-104 -28l-232 -265l274 -328l92 -25c3 -12 3 -25 0 -37zM134 658l-93 25c-3 12 -3 25 0 37h286c3 -12 3 -25 0 -37l-93 -25v-596l93 -25c3 -12 3 -25 0 -37h-286c-3 12 -3 25 0 37l93 25
v596zM327 816l173 103c15 -22 27 -46 34 -73l-184 -76c-11 14 -18 30 -23 46z" />
    <glyph glyph-name="uni00AD" unicode="&#xad;" horiz-adv-x="406" 
d="M348 258h-290c-2 11 -3 23 -3 35s1 23 3 35h290c2 -12 3 -23 3 -35s-1 -24 -3 -35z" />
    <glyph glyph-name="mu" unicode="&#xb5;" horiz-adv-x="645" 
d="M191 540l5 -5v-341c0 -73 23 -134 101 -134c58 0 112 34 142 70v396l91 14l5 -5v-485h67c3 -14 3 -27 0 -41l-77 -14c-16 -3 -33 -6 -45 -6c-24 0 -40 10 -40 50v33h-4c-40 -51 -95 -82 -161 -82c-31 0 -62 9 -84 30l-4 -1v-44c0 -54 2 -115 11 -155
c-18 -12 -36 -18 -56 -20c-29 50 -42 102 -42 241v485z" />
    <glyph glyph-name="divide" unicode="&#xf7;" horiz-adv-x="655" 
d="M277 15c-4 16 -6 32 -6 48c0 17 2 34 6 51c16 4 33 6 50 6s34 -2 51 -6c4 -15 6 -32 6 -49c0 -16 -2 -33 -6 -50c-17 -4 -34 -6 -51 -6s-34 2 -50 6zM277 431c-4 16 -6 32 -6 48c0 17 2 34 6 51c16 4 33 6 50 6s34 -2 51 -6c4 -15 6 -32 6 -49c0 -16 -2 -33 -6 -50
c-17 -4 -34 -6 -51 -6s-34 2 -50 6zM597 239h-539c-2 11 -3 22 -3 33s1 23 3 34h539c2 -12 3 -23 3 -34s-1 -23 -3 -33z" />
    <glyph glyph-name="tilde" unicode="&#x2dc;" horiz-adv-x="400" 
d="M99 605c-17 -4 -32 -4 -51 0c0 69 33 121 90 121c53 0 83 -54 126 -54c24 0 35 29 36 56c17 3 33 3 51 0c0 -63 -28 -120 -85 -120c-62 0 -95 54 -130 54c-21 0 -34 -34 -37 -57z" />
    <glyph glyph-name="uni00A0" unicode="&#xa0;" horiz-adv-x="275" 
 />
    <glyph glyph-name="grave.cap" unicode="&#xf6ce;" horiz-adv-x="400" 
d="M130 919l173 -103c-5 -16 -12 -32 -23 -46l-184 76c7 27 19 51 34 73z" />
    <glyph glyph-name="dieresis.cap" unicode="&#xf6cb;" horiz-adv-x="400" 
d="M56 881c14 3 30 5 46 5c15 0 32 -2 47 -5c3 -15 5 -31 5 -46s-2 -31 -5 -45c-14 -3 -30 -5 -45 -5c-16 0 -33 2 -48 5c-3 14 -5 30 -5 45s2 31 5 46zM251 881c14 3 30 5 46 5c15 0 32 -2 47 -5c3 -15 5 -31 5 -46s-2 -31 -5 -45c-14 -3 -30 -5 -45 -5c-16 0 -33 2 -48 5
c-3 14 -5 30 -5 45s2 31 5 46z" />
    <glyph glyph-name="macron.cap" unicode="&#xf6d0;" horiz-adv-x="400" 
d="M340 790h-281c-2 11 -3 23 -3 35s1 23 3 35h281c2 -12 3 -24 3 -36s-1 -23 -3 -34z" />
    <glyph glyph-name="hungarumlaut.cap" unicode="&#xf6cf;" horiz-adv-x="400" 
d="M39 805l97 114c22 -15 41 -34 55 -55l-114 -94c-16 9 -28 22 -38 35zM208 805l97 114c22 -15 41 -34 55 -55l-114 -94c-16 9 -28 22 -38 35z" />
    <glyph glyph-name="breve.cyr" unicode="&#xf6d4;" horiz-adv-x="400" 
d="M58 737c11 2 22 3 34 3s24 -1 35 -3c6 -46 21 -86 73 -86s67 40 73 86c11 2 22 3 34 3s24 -1 35 -3c-2 -81 -50 -143 -142 -143s-140 62 -142 143z" />
    <glyph glyph-name="breve.cyrcap" unicode="&#xf6d1;" horiz-adv-x="400" 
d="M54 908c10 2 23 3 36 3s26 -1 36 -3c6 -44 21 -76 74 -76s69 33 74 76c10 2 24 3 37 3s25 -1 35 -3c-6 -82 -61 -131 -146 -131c-92 0 -140 50 -146 131z" />
    <glyph glyph-name="four.superior" unicode="&#x2074;" 
d="M213 578h-183v41l214 254h46v-254h55v-41h-55v-71l55 -9v-28h-184v28l52 9v71zM84 619h129v147h-5l-125 -144z" />
    <glyph glyph-name="five.superior" unicode="&#x2075;" 
d="M65 487v90h26l26 -67c11 -2 22 -3 34 -3c51 0 101 22 101 88c0 62 -48 78 -98 78c-26 0 -52 -4 -74 -8l-4 3v198h239v-70h-198v-86c18 3 38 5 59 5c75 0 157 -26 157 -120c0 -90 -87 -132 -169 -132c-37 0 -72 8 -99 24z" />
    <glyph glyph-name="six.superior" unicode="&#x2076;" 
d="M215 731c80 0 128 -55 128 -132c0 -83 -58 -136 -144 -136c-103 0 -147 76 -147 165c0 144 76 245 212 245c19 0 42 -3 59 -9l-5 -29c-32 5 -67 1 -95 -10c-54 -21 -87 -66 -99 -130l3 -2c26 27 57 38 88 38zM199 505c45 0 66 32 66 91c0 62 -21 94 -66 94
c-52 0 -68 -43 -68 -90s15 -95 68 -95z" />
    <glyph glyph-name="seven.superior" unicode="&#x2077;" 
d="M336 866v-34l-184 -371l-56 26l176 303l-2 6h-174l-13 -41h-25v111h278z" />
    <glyph glyph-name="eight.superior" unicode="&#x2078;" 
d="M42 572c0 44 30 75 69 94v4c-33 19 -59 46 -59 89c0 73 80 114 144 114s141 -33 141 -102c0 -45 -32 -74 -73 -92v-4c45 -18 83 -43 83 -95c0 -80 -88 -117 -157 -117c-66 0 -148 30 -148 109zM121 581c0 -47 37 -75 83 -75c32 0 63 17 63 55c0 41 -42 57 -101 81l-15 6
c-19 -17 -30 -42 -30 -67zM130 778c0 -46 44 -66 93 -85c23 16 37 44 37 72c0 34 -21 66 -65 66c-41 0 -65 -24 -65 -53z" />
    <glyph glyph-name="nine.superior" unicode="&#x2079;" 
d="M47 739c0 78 60 134 146 134c102 0 145 -78 145 -165c0 -133 -86 -245 -224 -245c-16 0 -32 1 -49 4l4 33c90 -8 173 43 195 145l-3 2c-24 -25 -56 -35 -88 -35c-74 0 -126 42 -126 127zM188 654c39 0 68 27 68 86c0 57 -25 90 -64 90c-33 0 -65 -28 -65 -87
c0 -60 23 -89 61 -89z" />
    <glyph glyph-name="zero.superior" unicode="&#x2070;" 
d="M39 669c0 129 58 204 155 204c99 0 156 -75 156 -204c0 -135 -57 -206 -156 -206c-97 0 -154 71 -155 206zM269 669c0 99 -21 159 -75 159c-53 0 -74 -60 -74 -159c0 -98 21 -161 74 -161c54 0 75 63 75 161z" />
    <glyph glyph-name="zero.inferior" unicode="&#x2080;" 
d="M39 62c0 129 58 204 155 204c99 0 156 -75 156 -204c0 -135 -57 -206 -156 -206c-97 0 -154 71 -155 206zM269 62c0 99 -21 159 -75 159c-53 0 -74 -60 -74 -159c0 -98 21 -161 74 -161c54 0 75 63 75 161z" />
    <glyph glyph-name="one.inferior" unicode="&#x2081;" 
d="M243 205v-297l74 -15v-30h-225v30l74 15v293h-94v35l101 24c14 3 23 5 36 5c32 0 34 -24 34 -60z" />
    <glyph glyph-name="two.inferior" unicode="&#x2082;" 
d="M148 -65h185v-72h-281v47l112 101c43 39 81 79 81 136c0 52 -36 76 -75 76c-14 0 -29 -3 -42 -9l-35 -78h-26v98c29 21 71 32 112 32c75 0 149 -36 149 -116c0 -68 -46 -106 -100 -147l-83 -63z" />
    <glyph glyph-name="three.inferior" unicode="&#x2083;" 
d="M62 144v93c29 18 76 29 121 29c70 0 138 -27 138 -94c0 -55 -41 -89 -91 -93v-4c49 -6 105 -25 105 -95c0 -87 -86 -124 -170 -124c-41 0 -82 9 -110 25v95h26l28 -68c15 -4 33 -6 50 -6c48 0 95 19 95 80c0 52 -49 70 -103 70h-25v41h22c59 0 93 14 93 69
c0 45 -36 62 -73 62c-19 0 -38 -4 -53 -11l-27 -69h-26z" />
    <glyph glyph-name="four.inferior" unicode="&#x2084;" 
d="M213 -29h-183v41l214 254h46v-254h55v-41h-55v-71l55 -9v-28h-184v28l52 9v71zM84 12h129v147h-5l-125 -144z" />
    <glyph glyph-name="five.inferior" unicode="&#x2085;" 
d="M65 -120v90h26l26 -67c11 -2 22 -3 34 -3c51 0 101 22 101 88c0 62 -48 78 -98 78c-26 0 -52 -4 -74 -8l-4 3v198h239v-70h-198v-86c18 3 38 5 59 5c75 0 157 -26 157 -120c0 -90 -87 -132 -169 -132c-37 0 -72 8 -99 24z" />
    <glyph glyph-name="six.inferior" unicode="&#x2086;" 
d="M215 124c80 0 128 -55 128 -132c0 -83 -58 -136 -144 -136c-103 0 -147 76 -147 165c0 144 76 245 212 245c19 0 42 -3 59 -9l-5 -29c-32 5 -67 1 -95 -10c-54 -21 -87 -66 -99 -130l3 -2c26 27 57 38 88 38zM199 -102c45 0 66 32 66 91c0 62 -21 94 -66 94
c-52 0 -68 -43 -68 -90s15 -95 68 -95z" />
    <glyph glyph-name="seven.inferior" unicode="&#x2087;" 
d="M336 259v-34l-184 -371l-56 26l176 303l-2 6h-174l-13 -41h-25v111h278z" />
    <glyph glyph-name="eight.inferior" unicode="&#x2088;" 
d="M42 -35c0 44 30 75 69 94v4c-33 19 -59 46 -59 89c0 73 80 114 144 114s141 -33 141 -102c0 -45 -32 -74 -73 -92v-4c45 -18 83 -43 83 -95c0 -80 -88 -117 -157 -117c-66 0 -148 30 -148 109zM121 -26c0 -47 37 -75 83 -75c32 0 63 17 63 55c0 41 -42 57 -101 81l-15 6
c-19 -17 -30 -42 -30 -67zM130 171c0 -46 44 -66 93 -85c23 16 37 44 37 72c0 34 -21 66 -65 66c-41 0 -65 -24 -65 -53z" />
    <glyph glyph-name="nine.inferior" unicode="&#x2089;" 
d="M47 132c0 78 60 134 146 134c102 0 145 -78 145 -165c0 -133 -86 -245 -224 -245c-16 0 -32 1 -49 4l4 33c90 -8 173 43 195 145l-3 2c-24 -25 -56 -35 -88 -35c-74 0 -126 42 -126 127zM188 47c39 0 68 27 68 86c0 57 -25 90 -64 90c-33 0 -65 -28 -65 -87
c0 -60 23 -89 61 -89z" />
    <glyph glyph-name="zero.oldstyle" unicode="&#xf730;" horiz-adv-x="566" 
d="M521 264c0 -178 -82 -274 -238 -274c-158 0 -238 96 -238 274c0 173 82 276 238 276c157 0 238 -104 238 -276zM423 264c0 153 -55 216 -140 216c-83 0 -140 -65 -140 -216c0 -145 54 -214 140 -214c83 0 140 68 140 214z" />
    <glyph glyph-name="one.oldstyle" unicode="&#xf731;" horiz-adv-x="366" 
d="M246 480v-425l103 -20c3 -12 3 -23 0 -35h-302c-3 12 -3 23 0 35l103 20v403h-123c-4 15 -4 30 0 45l149 32c67 14 70 -4 70 -55z" />
    <glyph glyph-name="two.oldstyle" unicode="&#xf732;" horiz-adv-x="461" 
d="M48 367v117c38 37 99 56 161 56c104 0 198 -54 198 -164c0 -98 -67 -146 -141 -200l-112 -82l2 -3h262c4 -30 4 -61 0 -91h-388v56l179 150c55 46 99 85 99 154c0 76 -50 118 -120 118c-20 0 -42 -4 -64 -11l-31 -100c-14 -4 -29 -4 -45 0z" />
    <glyph glyph-name="four.oldstyle" unicode="&#xf734;" horiz-adv-x="536" 
d="M322 45h-313c-4 20 -4 40 0 60l349 435h60v-435h103c4 -19 4 -39 0 -60h-103v-165c-33 -4 -65 -4 -96 0v165zM87 105h235v287h-4l-233 -284z" />
    <glyph glyph-name="five.oldstyle" unicode="&#xf735;" horiz-adv-x="523" 
d="M132 439v-150c36 5 76 10 116 10c117 0 230 -38 230 -185c0 -169 -159 -235 -310 -235c-41 0 -80 5 -116 14c4 21 11 42 23 61c24 -4 51 -7 78 -7c106 0 227 38 227 162c0 100 -81 124 -163 124c-51 0 -103 -8 -140 -14l-5 5v301l5 5h360c4 -31 4 -62 0 -91h-305z" />
    <glyph glyph-name="six.oldstyle" unicode="&#xf736;" horiz-adv-x="537" 
d="M280 -10c-169 0 -223 122 -223 266c0 196 97 415 329 415c24 0 48 -3 71 -10c6 -18 5 -38 -2 -58c-16 3 -31 5 -47 5c-141 0 -228 -106 -251 -245l4 -1c35 48 89 68 142 68c136 0 194 -92 194 -215c0 -133 -73 -225 -217 -225zM280 50c95 0 118 80 118 163
c0 84 -23 157 -118 157c-91 0 -124 -68 -124 -152c0 -83 36 -168 124 -168z" />
    <glyph glyph-name="nine.oldstyle" unicode="&#xf739;" horiz-adv-x="528" 
d="M380 178l-4 1c-31 -47 -87 -68 -143 -68c-126 0 -191 79 -191 200c0 131 77 229 215 229c172 0 224 -124 224 -273c0 -228 -126 -386 -350 -386c-26 0 -50 3 -76 9c-6 18 -5 38 2 58c18 -3 33 -5 50 -5c134 0 254 79 273 235zM257 480c-89 0 -117 -75 -117 -157
c0 -86 27 -153 114 -153c68 0 127 32 127 148c0 83 -31 162 -124 162z" />
    <glyph glyph-name="three.oldstyle" unicode="&#xf733;" horiz-adv-x="465" 
d="M29 -38c30 -8 67 -13 104 -13c93 0 188 32 188 132c0 78 -69 109 -144 104l-64 -4c-6 17 -9 38 -7 60l59 8c76 10 141 37 141 124c0 78 -63 105 -129 105c-28 0 -57 -5 -81 -13l-24 -84c-15 -4 -30 -4 -45 0v120c46 24 111 39 174 39c103 0 202 -42 202 -159
c0 -67 -42 -132 -118 -145v-4c81 -3 138 -72 138 -146c0 -150 -142 -206 -278 -206c-50 0 -99 8 -140 21c5 24 13 45 24 61z" />
    <glyph glyph-name="seven.oldstyle" unicode="&#xf737;" horiz-adv-x="500" 
d="M460 530v-60l-325 -591c-29 7 -56 21 -79 44l323 512l-1 4h-347c-4 30 -4 61 0 91h429z" />
    <glyph glyph-name="eight.oldstyle" unicode="&#xf738;" horiz-adv-x="545" 
d="M47 172c0 61 35 123 114 163v4c-55 31 -96 75 -96 155c0 116 98 177 209 177c140 0 205 -83 205 -171c0 -60 -33 -117 -105 -154v-4c68 -31 124 -73 124 -165c0 -120 -100 -187 -226 -187c-145 0 -225 84 -225 182zM273 50c73 0 128 36 128 108c0 86 -72 110 -142 136
l-39 15c-52 -24 -76 -77 -76 -127c0 -68 40 -132 129 -132zM159 500c0 -74 73 -101 152 -131c49 24 73 74 73 124c0 63 -35 120 -111 120c-64 0 -114 -42 -114 -113z" />
    <glyph glyph-name="afii10064" unicode="&#xf6c5;" horiz-adv-x="571" 
d="M526 259c0 -175 -79 -269 -238 -269c-161 0 -238 94 -238 269c0 97 26 176 82 221v4c-39 24 -55 66 -55 105c0 121 130 132 233 132h110l18 37c11 3 22 3 35 0v-121l-4 -4h-212c-55 0 -114 -11 -114 -64c0 -24 13 -45 37 -59c30 13 66 20 108 20c159 0 238 -102 238 -271
zM428 259c0 152 -51 211 -140 211s-140 -59 -140 -211c0 -146 51 -209 140 -209s140 63 140 209z" />
    <glyph glyph-name="onethird" unicode="&#x2153;" horiz-adv-x="885" 
d="M186 0l426 730c20 -8 37 -17 51 -30l-425 -731c-21 7 -38 17 -52 31zM226 650v-297l74 -15v-30h-225v30l74 15v293h-94v35l101 24c14 3 23 5 36 5c32 0 34 -24 34 -60zM541 278v93c29 18 76 29 121 29c70 0 138 -27 138 -94c0 -55 -41 -89 -91 -93v-4
c49 -6 105 -25 105 -95c0 -87 -86 -124 -170 -124c-41 0 -82 9 -110 25v95h26l28 -68c15 -4 33 -6 50 -6c48 0 95 19 95 80c0 52 -49 70 -103 70h-25v41h22c59 0 93 14 93 69c0 45 -36 62 -73 62c-19 0 -38 -4 -53 -11l-27 -69h-26z" />
    <glyph glyph-name="oneeighth" unicode="&#x215b;" horiz-adv-x="885" 
d="M176 0l426 730c20 -8 37 -17 51 -30l-425 -731c-21 7 -38 17 -52 31zM221 650v-297l74 -15v-30h-225v30l74 15v293h-94v35l101 24c14 3 23 5 36 5c32 0 34 -24 34 -60zM503 99c0 44 30 75 69 94v4c-33 19 -59 46 -59 89c0 73 80 114 144 114s141 -33 141 -102
c0 -45 -32 -74 -73 -92v-4c45 -18 83 -43 83 -95c0 -80 -88 -117 -157 -117c-66 0 -148 30 -148 109zM582 108c0 -47 37 -75 83 -75c32 0 63 17 63 55c0 41 -42 57 -101 81l-15 6c-19 -17 -30 -42 -30 -67zM591 305c0 -46 44 -66 93 -85c23 16 37 44 37 72
c0 34 -21 66 -65 66c-41 0 -65 -24 -65 -53z" />
    <glyph glyph-name="twothirds" unicode="&#x2154;" horiz-adv-x="885" 
d="M192 0l426 730c20 -8 37 -17 51 -30l-425 -731c-21 7 -38 17 -52 31zM140 379h185v-72h-281v47l112 101c43 39 81 79 81 136c0 52 -36 76 -75 76c-14 0 -29 -3 -42 -9l-35 -78h-26v98c29 21 71 32 112 32c75 0 149 -36 149 -116c0 -68 -46 -106 -100 -147l-83 -63z
M547 278v93c29 18 76 29 121 29c70 0 138 -27 138 -94c0 -55 -41 -89 -91 -93v-4c49 -6 105 -25 105 -95c0 -87 -86 -124 -170 -124c-41 0 -82 9 -110 25v95h26l28 -68c15 -4 33 -6 50 -6c48 0 95 19 95 80c0 52 -49 70 -103 70h-25v41h22c59 0 93 14 93 69
c0 45 -36 62 -73 62c-19 0 -38 -4 -53 -11l-27 -69h-26z" />
    <glyph glyph-name="threeeighths" unicode="&#x215c;" horiz-adv-x="885" 
d="M186 0l426 730c20 -8 37 -17 51 -30l-425 -731c-21 7 -38 17 -52 31zM57 588v93c29 18 76 29 121 29c70 0 138 -27 138 -94c0 -55 -41 -89 -91 -93v-4c49 -6 105 -25 105 -95c0 -87 -86 -124 -170 -124c-41 0 -82 9 -110 25v95h26l28 -68c15 -4 33 -6 50 -6
c48 0 95 19 95 80c0 52 -49 70 -103 70h-25v41h22c59 0 93 14 93 69c0 45 -36 62 -73 62c-19 0 -38 -4 -53 -11l-27 -69h-26zM518 99c0 44 30 75 69 94v4c-33 19 -59 46 -59 89c0 73 80 114 144 114s141 -33 141 -102c0 -45 -32 -74 -73 -92v-4c45 -18 83 -43 83 -95
c0 -80 -88 -117 -157 -117c-66 0 -148 30 -148 109zM597 108c0 -47 37 -75 83 -75c32 0 63 17 63 55c0 41 -42 57 -101 81l-15 6c-19 -17 -30 -42 -30 -67zM606 305c0 -46 44 -66 93 -85c23 16 37 44 37 72c0 34 -21 66 -65 66c-41 0 -65 -24 -65 -53z" />
    <glyph glyph-name="fiveeighths" unicode="&#x215d;" horiz-adv-x="885" 
d="M186 0l426 730c20 -8 37 -17 51 -30l-425 -731c-21 7 -38 17 -52 31zM65 321v90h26l26 -67c11 -2 22 -3 34 -3c51 0 101 22 101 88c0 62 -48 78 -98 78c-26 0 -52 -4 -74 -8l-4 3v198h239v-70h-198v-86c18 3 38 5 59 5c75 0 157 -26 157 -120c0 -90 -87 -132 -169 -132
c-37 0 -72 8 -99 24zM520 99c0 44 30 75 69 94v4c-33 19 -59 46 -59 89c0 73 80 114 144 114s141 -33 141 -102c0 -45 -32 -74 -73 -92v-4c45 -18 83 -43 83 -95c0 -80 -88 -117 -157 -117c-66 0 -148 30 -148 109zM599 108c0 -47 37 -75 83 -75c32 0 63 17 63 55
c0 41 -42 57 -101 81l-15 6c-19 -17 -30 -42 -30 -67zM608 305c0 -46 44 -66 93 -85c23 16 37 44 37 72c0 34 -21 66 -65 66c-41 0 -65 -24 -65 -53z" />
    <glyph glyph-name="seveneighths" unicode="&#x215e;" horiz-adv-x="885" 
d="M160 0l426 730c20 -8 37 -17 51 -30l-425 -731c-21 7 -38 17 -52 31zM378 700v-34l-184 -371l-56 26l176 303l-2 6h-174l-13 -41h-25v111h278zM487 99c0 44 30 75 69 94v4c-33 19 -59 46 -59 89c0 73 80 114 144 114s141 -33 141 -102c0 -45 -32 -74 -73 -92v-4
c45 -18 83 -43 83 -95c0 -80 -88 -117 -157 -117c-66 0 -148 30 -148 109zM566 108c0 -47 37 -75 83 -75c32 0 63 17 63 55c0 41 -42 57 -101 81l-15 6c-19 -17 -30 -42 -30 -67zM575 305c0 -46 44 -66 93 -85c23 16 37 44 37 72c0 34 -21 66 -65 66c-41 0 -65 -24 -65 -53z
" />
    <glyph glyph-name="zero.slash" unicode="&#xf638;" horiz-adv-x="590" 
d="M413 679l32 71c17 -5 33 -12 46 -21l-37 -84c54 -61 80 -162 80 -296c0 -238 -74 -359 -239 -359c-46 0 -85 10 -117 29l-33 -74c-15 3 -31 9 -46 20l38 87c-55 58 -82 158 -82 297c0 229 79 361 240 361c46 0 86 -11 118 -31zM295 650c-109 0 -142 -126 -142 -301
c0 -82 6 -147 24 -199h4l202 460c-21 25 -50 40 -88 40zM436 349c0 81 -5 147 -21 199h-4l-202 -458c21 -26 49 -40 86 -40c115 0 141 124 141 299z" />
    <glyph glyph-name="A.sc" unicode="&#xe000;" horiz-adv-x="652" 
d="M460 58l-44 104h-222l-43 -104l87 -22c3 -12 3 -24 0 -36h-228c-3 12 -3 24 0 36l73 20l200 474h86l198 -474l75 -20c3 -12 3 -24 0 -36h-266c-3 12 -3 24 0 36zM304 422l-84 -200h171l-83 200h-4z" />
    <glyph glyph-name="AE.sc" unicode="&#xe001;" horiz-adv-x="873" 
d="M422 58v181h-178l-92 -181l87 -22c3 -12 3 -24 0 -36h-231c-3 12 -3 24 0 36l73 20l210 412l-108 26c-3 11 -3 23 0 36h614v-142c-15 -4 -31 -4 -46 0l-28 80h-203v-167h131l19 45c12 3 24 3 36 0v-167c-12 -3 -24 -3 -36 0l-19 60h-131v-177h219l26 90c17 4 34 4 51 0
v-152h-478c-3 12 -3 24 0 36zM361 468l-85 -167h146v167h-61z" />
    <glyph glyph-name="Aacute.sc" unicode="&#xe003;" horiz-adv-x="652" 
d="M460 58l-44 104h-222l-43 -104l87 -22c3 -12 3 -24 0 -36h-228c-3 12 -3 24 0 36l73 20l200 474h86l198 -474l75 -20c3 -12 3 -24 0 -36h-266c-3 12 -3 24 0 36zM304 422l-84 -200h171l-83 200h-4zM253 620l130 140c22 -19 40 -38 54 -59l-148 -118c-14 9 -27 22 -36 37z
" />
    <glyph glyph-name="Abreve.sc" unicode="&#xe004;" horiz-adv-x="652" 
d="M460 58l-44 104h-222l-43 -104l87 -22c3 -12 3 -24 0 -36h-228c-3 12 -3 24 0 36l73 20l200 474h86l198 -474l75 -20c3 -12 3 -24 0 -36h-266c-3 12 -3 24 0 36zM304 422l-84 -200h171l-83 200h-4zM186 732c9 2 19 3 29 3s20 -1 30 -3c6 -40 25 -73 81 -73s75 32 81 73
c10 2 20 3 30 3s20 -1 29 -3c0 -76 -47 -137 -140 -137s-140 61 -140 137z" />
    <glyph glyph-name="Acircumflex.sc" unicode="&#xe005;" horiz-adv-x="652" 
d="M460 58l-44 104h-222l-43 -104l87 -22c3 -12 3 -24 0 -36h-228c-3 12 -3 24 0 36l73 20l200 474h86l198 -474l75 -20c3 -12 3 -24 0 -36h-266c-3 12 -3 24 0 36zM304 422l-84 -200h171l-83 200h-4zM332 760l132 -139c-8 -14 -19 -26 -35 -38l-103 89l-103 -89
c-16 12 -27 24 -35 38l132 139h12z" />
    <glyph glyph-name="Adieresis.sc" unicode="&#xe006;" horiz-adv-x="652" 
d="M460 58l-44 104h-222l-43 -104l87 -22c3 -12 3 -24 0 -36h-228c-3 12 -3 24 0 36l73 20l200 474h86l198 -474l75 -20c3 -12 3 -24 0 -36h-266c-3 12 -3 24 0 36zM304 422l-84 -200h171l-83 200h-4zM184 712c14 3 31 5 46 5s31 -2 45 -5c3 -15 5 -29 5 -44s-2 -30 -5 -45
c-15 -3 -29 -5 -44 -5c-16 0 -32 2 -47 5c-3 15 -5 29 -5 44s2 30 5 45zM378 712c14 3 31 5 46 5s31 -2 45 -5c3 -15 5 -29 5 -44s-2 -30 -5 -45c-15 -3 -29 -5 -44 -5c-16 0 -32 2 -47 5c-3 15 -5 29 -5 44s2 30 5 45z" />
    <glyph glyph-name="Agrave.sc" unicode="&#xe007;" horiz-adv-x="652" 
d="M460 58l-44 104h-222l-43 -104l87 -22c3 -12 3 -24 0 -36h-228c-3 12 -3 24 0 36l73 20l200 474h86l198 -474l75 -20c3 -12 3 -24 0 -36h-266c-3 12 -3 24 0 36zM304 422l-84 -200h171l-83 200h-4zM273 760l130 -140c-9 -15 -22 -28 -36 -37l-148 118c14 21 32 40 54 59z
" />
    <glyph glyph-name="Amacron.sc" unicode="&#xe00b;" horiz-adv-x="652" 
d="M460 58l-44 104h-222l-43 -104l87 -22c3 -12 3 -24 0 -36h-228c-3 12 -3 24 0 36l73 20l200 474h86l198 -474l75 -20c3 -12 3 -24 0 -36h-266c-3 12 -3 24 0 36zM304 422l-84 -200h171l-83 200h-4zM467 620h-281c-2 11 -3 23 -3 35s1 23 3 35h281c2 -12 3 -23 3 -35
s-1 -24 -3 -35z" />
    <glyph glyph-name="Aogonek.sc" unicode="&#xa00c;" horiz-adv-x="652" 
d="M567 56l75 -20c3 -12 3 -24 0 -36h-145c-4 -16 -7 -35 -7 -54c0 -46 16 -91 70 -91c14 0 28 4 41 11c8 -15 13 -32 14 -48c-19 -14 -52 -24 -83 -24c-74 0 -107 57 -107 127c0 46 15 94 36 133l-45 108h-222l-43 -104l87 -22c3 -12 3 -24 0 -36h-228c-3 12 -3 24 0 36
l73 20l200 474h86zM304 422l-84 -200h171l-83 200h-4z" />
    <glyph glyph-name="Aring.sc" unicode="&#xe00d;" horiz-adv-x="652" 
d="M460 58l-44 104h-222l-43 -104l87 -22c3 -12 3 -24 0 -36h-228c-3 12 -3 24 0 36l73 20l200 474h86l198 -474l75 -20c3 -12 3 -24 0 -36h-266c-3 12 -3 24 0 36zM304 422l-84 -200h171l-83 200h-4zM228 676c0 57 42 94 98 94s99 -37 99 -94s-43 -93 -99 -93
s-98 36 -98 93zM279 676c0 -32 19 -55 47 -55s48 23 48 55s-20 56 -48 56s-47 -24 -47 -56z" />
    <glyph glyph-name="Atilde.sc" unicode="&#xe00e;" horiz-adv-x="652" 
d="M460 58l-44 104h-222l-43 -104l87 -22c3 -12 3 -24 0 -36h-228c-3 12 -3 24 0 36l73 20l200 474h86l198 -474l75 -20c3 -12 3 -24 0 -36h-266c-3 12 -3 24 0 36zM304 422l-84 -200h171l-83 200h-4zM226 605c-17 -4 -32 -4 -51 0c0 69 33 121 90 121c53 0 83 -54 126 -54
c24 0 35 29 36 56c17 3 33 3 51 0c0 -63 -28 -120 -85 -120c-62 0 -95 54 -130 54c-21 0 -34 -34 -37 -57z" />
    <glyph glyph-name="B.sc" unicode="&#xe00f;" horiz-adv-x="590" 
d="M128 58v414l-84 22c-3 12 -3 24 0 36h266c97 0 198 -23 198 -130c0 -61 -44 -106 -110 -113v-4c83 -1 142 -47 142 -125c0 -120 -108 -158 -217 -158h-279c-3 12 -3 24 0 36zM294 247h-68v-185h58c82 0 154 5 154 90c0 84 -63 95 -144 95zM281 468h-55v-159h62
c76 0 118 18 118 81c0 74 -56 78 -125 78z" />
    <glyph glyph-name="C.sc" unicode="&#xe011;" horiz-adv-x="555" 
d="M421 68l36 98c15 3 31 3 46 0v-132c-49 -28 -116 -44 -182 -44c-170 0 -274 97 -274 276c0 175 118 274 285 274c60 0 123 -12 167 -34v-132c-14 -3 -30 -3 -46 0l-34 93c-21 7 -46 11 -72 11c-130 0 -198 -78 -198 -213c0 -131 62 -211 193 -211c27 0 55 4 79 14z" />
    <glyph glyph-name="Cacute.sc" unicode="&#xe012;" horiz-adv-x="555" 
d="M421 68l36 98c15 3 31 3 46 0v-132c-49 -28 -116 -44 -182 -44c-170 0 -274 97 -274 276c0 175 118 274 285 274c60 0 123 -12 167 -34v-132c-14 -3 -30 -3 -46 0l-34 93c-21 7 -46 11 -72 11c-130 0 -198 -78 -198 -213c0 -131 62 -211 193 -211c27 0 55 4 79 14z
M259 620l130 140c22 -19 40 -38 54 -59l-148 -118c-14 9 -27 22 -36 37z" />
    <glyph glyph-name="Ccaron.sc" unicode="&#xe013;" horiz-adv-x="555" 
d="M421 68l36 98c15 3 31 3 46 0v-132c-49 -28 -116 -44 -182 -44c-170 0 -274 97 -274 276c0 175 118 274 285 274c60 0 123 -12 167 -34v-132c-14 -3 -30 -3 -46 0l-34 93c-21 7 -46 11 -72 11c-130 0 -198 -78 -198 -213c0 -131 62 -211 193 -211c27 0 55 4 79 14z
M454 722l-132 -139h-12l-132 139c8 14 19 26 35 38l103 -89l103 89c16 -12 27 -24 35 -38z" />
    <glyph glyph-name="Ccedilla.sc" unicode="&#xe014;" horiz-adv-x="555" 
d="M421 68l36 98c15 3 31 3 46 0v-132c-38 -22 -85 -35 -135 -41c7 -22 12 -48 12 -73c0 -64 -29 -126 -107 -126c-31 0 -64 10 -83 24c1 16 6 33 14 48c13 -7 27 -11 41 -11c54 0 70 45 70 91c0 16 -2 31 -5 44c-163 4 -263 101 -263 276s118 274 285 274
c60 0 123 -12 167 -34v-132c-14 -3 -30 -3 -46 0l-34 93c-21 7 -46 11 -72 11c-130 0 -198 -78 -198 -213c0 -131 62 -211 193 -211c27 0 55 4 79 14z" />
    <glyph glyph-name="D.sc" unicode="&#xe018;" horiz-adv-x="633" 
d="M128 58v414l-84 22c-3 12 -3 24 0 36h276c182 0 266 -93 266 -265c0 -180 -84 -265 -266 -265h-276c-3 12 -3 24 0 36zM226 468v-406h69c143 0 189 74 189 203s-47 203 -189 203h-69z" />
    <glyph glyph-name="Dcaron.sc" unicode="&#xe019;" horiz-adv-x="633" 
d="M128 58v414l-84 22c-3 12 -3 24 0 36h276c182 0 266 -93 266 -265c0 -180 -84 -265 -266 -265h-276c-3 12 -3 24 0 36zM226 468v-406h69c143 0 189 74 189 203s-47 203 -189 203h-69zM460 722l-132 -139h-12l-132 139c8 14 19 26 35 38l103 -89l103 89
c16 -12 27 -24 35 -38z" />
    <glyph glyph-name="Dcroat.sc" unicode="&#xe01a;" horiz-adv-x="640" 
d="M135 306v166l-84 22c-3 12 -3 24 0 36h276c182 0 266 -93 266 -265c0 -180 -84 -265 -266 -265h-276c-3 12 -3 24 0 36l84 22v196h-84c-3 17 -3 35 0 52h84zM233 468v-162h127c3 -17 3 -35 0 -52h-127v-192h69c143 0 189 74 189 203s-47 203 -189 203h-69z" />
    <glyph glyph-name="E.sc" unicode="&#xe01b;" horiz-adv-x="579" 
d="M128 58v414l-84 22c-3 11 -3 23 0 36h459v-142c-15 -4 -31 -4 -46 0l-28 80h-203v-157h131l19 45c12 3 24 3 36 0v-167c-12 -3 -24 -3 -36 0l-19 60h-131v-187h219l26 90c17 4 34 4 51 0v-152h-478c-3 12 -3 24 0 36z" />
    <glyph glyph-name="Eacute.sc" unicode="&#xe01c;" horiz-adv-x="579" 
d="M128 58v414l-84 22c-3 11 -3 23 0 36h459v-142c-15 -4 -31 -4 -46 0l-28 80h-203v-157h131l19 45c12 3 24 3 36 0v-167c-12 -3 -24 -3 -36 0l-19 60h-131v-187h219l26 90c17 4 34 4 51 0v-152h-478c-3 12 -3 24 0 36zM249 620l130 140c22 -19 40 -38 54 -59l-148 -118
c-14 9 -27 22 -36 37z" />
    <glyph glyph-name="Ecaron.sc" unicode="&#xe01e;" horiz-adv-x="579" 
d="M128 58v414l-84 22c-3 11 -3 23 0 36h459v-142c-15 -4 -31 -4 -46 0l-28 80h-203v-157h131l19 45c12 3 24 3 36 0v-167c-12 -3 -24 -3 -36 0l-19 60h-131v-187h219l26 90c17 4 34 4 51 0v-152h-478c-3 12 -3 24 0 36zM444 722l-132 -139h-12l-132 139c8 14 19 26 35 38
l103 -89l103 89c16 -12 27 -24 35 -38z" />
    <glyph glyph-name="Ecircumflex.sc" unicode="&#xe01f;" horiz-adv-x="579" 
d="M128 58v414l-84 22c-3 11 -3 23 0 36h459v-142c-15 -4 -31 -4 -46 0l-28 80h-203v-157h131l19 45c12 3 24 3 36 0v-167c-12 -3 -24 -3 -36 0l-19 60h-131v-187h219l26 90c17 4 34 4 51 0v-152h-478c-3 12 -3 24 0 36zM309 760l132 -139c-8 -14 -19 -26 -35 -38l-103 89
l-103 -89c-16 12 -27 24 -35 38l132 139h12z" />
    <glyph glyph-name="Edieresis.sc" unicode="&#xe020;" horiz-adv-x="579" 
d="M128 58v414l-84 22c-3 11 -3 23 0 36h459v-142c-15 -4 -31 -4 -46 0l-28 80h-203v-157h131l19 45c12 3 24 3 36 0v-167c-12 -3 -24 -3 -36 0l-19 60h-131v-187h219l26 90c17 4 34 4 51 0v-152h-478c-3 12 -3 24 0 36zM157 712c14 3 31 5 46 5s31 -2 45 -5
c3 -15 5 -29 5 -44s-2 -30 -5 -45c-15 -3 -29 -5 -44 -5c-16 0 -32 2 -47 5c-3 15 -5 29 -5 44s2 30 5 45zM351 712c14 3 31 5 46 5s31 -2 45 -5c3 -15 5 -29 5 -44s-2 -30 -5 -45c-15 -3 -29 -5 -44 -5c-16 0 -32 2 -47 5c-3 15 -5 29 -5 44s2 30 5 45z" />
    <glyph glyph-name="Edotaccent.sc" unicode="&#xe021;" horiz-adv-x="579" 
d="M128 58v414l-84 22c-3 11 -3 23 0 36h459v-142c-15 -4 -31 -4 -46 0l-28 80h-203v-157h131l19 45c12 3 24 3 36 0v-167c-12 -3 -24 -3 -36 0l-19 60h-131v-187h219l26 90c17 4 34 4 51 0v-152h-478c-3 12 -3 24 0 36zM261 620c-3 15 -5 31 -5 46c0 16 2 32 5 49
c16 3 32 5 48 5s33 -2 49 -5c3 -15 5 -31 5 -47c0 -15 -2 -31 -5 -48c-16 -4 -33 -5 -49 -5s-32 1 -48 5z" />
    <glyph glyph-name="Egrave.sc" unicode="&#xe022;" horiz-adv-x="579" 
d="M128 58v414l-84 22c-3 11 -3 23 0 36h459v-142c-15 -4 -31 -4 -46 0l-28 80h-203v-157h131l19 45c12 3 24 3 36 0v-167c-12 -3 -24 -3 -36 0l-19 60h-131v-187h219l26 90c17 4 34 4 51 0v-152h-478c-3 12 -3 24 0 36zM236 760l130 -140c-9 -15 -22 -28 -36 -37l-148 118
c14 21 32 40 54 59z" />
    <glyph glyph-name="Emacron.sc" unicode="&#xe023;" horiz-adv-x="579" 
d="M128 58v414l-84 22c-3 11 -3 23 0 36h459v-142c-15 -4 -31 -4 -46 0l-28 80h-203v-157h131l19 45c12 3 24 3 36 0v-167c-12 -3 -24 -3 -36 0l-19 60h-131v-187h219l26 90c17 4 34 4 51 0v-152h-478c-3 12 -3 24 0 36zM437 620h-281c-2 11 -3 23 -3 35s1 23 3 35h281
c2 -12 3 -23 3 -35s-1 -24 -3 -35z" />
    <glyph glyph-name="Eogonek.sc" unicode="&#xe025;" horiz-adv-x="579" 
d="M128 58v414l-84 22c-3 11 -3 23 0 36h459v-142c-15 -4 -31 -4 -46 0l-28 80h-203v-157h131l19 45c12 3 24 3 36 0v-167c-12 -3 -24 -3 -36 0l-19 60h-131v-187h219l26 90c17 4 34 4 51 0v-152h-108c-4 -16 -7 -35 -7 -54c0 -46 16 -91 70 -91c14 0 28 4 41 11
c8 -15 13 -32 14 -48c-19 -14 -52 -24 -83 -24c-78 0 -107 62 -107 126c0 28 5 56 14 80h-312c-3 12 -3 24 0 36z" />
    <glyph glyph-name="Eth.sc" unicode="&#xe02c;" horiz-adv-x="640" 
d="M135 306v166l-84 22c-3 12 -3 24 0 36h276c182 0 266 -93 266 -265c0 -180 -84 -265 -266 -265h-276c-3 12 -3 24 0 36l84 22v196h-84c-3 17 -3 35 0 52h84zM233 468v-162h127c3 -17 3 -35 0 -52h-127v-192h69c143 0 189 74 189 203s-47 203 -189 203h-69z" />
    <glyph glyph-name="F.sc" unicode="&#xe02e;" horiz-adv-x="540" 
d="M128 58v414l-84 22c-3 12 -3 24 0 36h449v-142c-15 -4 -31 -4 -46 0l-28 80h-193v-181h131l19 45c12 3 24 3 36 0v-167c-12 -3 -24 -3 -36 0l-19 60h-131v-167l84 -22c3 -12 3 -24 0 -36h-266c-3 12 -3 24 0 36z" />
    <glyph glyph-name="G.sc" unicode="&#xe02f;" horiz-adv-x="615" 
d="M513 205v-215h-30c-29 0 -47 10 -53 21c-34 -15 -72 -21 -110 -21c-166 0 -273 108 -273 272c0 190 135 278 304 278c59 0 118 -12 162 -34v-132c-15 -4 -31 -4 -46 0l-34 93c-21 8 -46 11 -71 11c-131 0 -213 -71 -213 -214c0 -130 73 -210 204 -210c23 0 45 3 64 9v136
l-85 22c-3 12 -3 24 0 36h220c3 -12 3 -24 0 -36z" />
    <glyph glyph-name="Gbreve.sc" unicode="&#xe033;" horiz-adv-x="615" 
d="M513 205v-215h-30c-29 0 -47 10 -53 21c-34 -15 -72 -21 -110 -21c-166 0 -273 108 -273 272c0 190 135 278 304 278c59 0 118 -12 162 -34v-132c-15 -4 -31 -4 -46 0l-34 93c-21 8 -46 11 -71 11c-131 0 -213 -71 -213 -214c0 -130 73 -210 204 -210c23 0 45 3 64 9v136
l-85 22c-3 12 -3 24 0 36h220c3 -12 3 -24 0 -36zM172 732c9 2 19 3 29 3s20 -1 30 -3c6 -40 25 -73 81 -73s75 32 81 73c10 2 20 3 30 3s20 -1 29 -3c0 -76 -47 -137 -140 -137s-140 61 -140 137z" />
    <glyph glyph-name="Gcommaaccent.sc" unicode="&#xe035;" horiz-adv-x="615" 
d="M513 205v-215h-30c-29 0 -47 10 -53 21c-34 -15 -72 -21 -110 -21c-166 0 -273 108 -273 272c0 190 135 278 304 278c59 0 118 -12 162 -34v-132c-15 -4 -31 -4 -46 0l-34 93c-21 8 -46 11 -71 11c-131 0 -213 -71 -213 -214c0 -130 73 -210 204 -210c23 0 45 3 64 9v136
l-85 22c-3 12 -3 24 0 36h220c3 -12 3 -24 0 -36zM243 -208c25 31 38 66 38 120c0 10 0 21 -1 33c12 2 26 3 40 3s27 -1 39 -3c6 -90 -24 -138 -83 -174c-13 3 -25 10 -33 21z" />
    <glyph glyph-name="H.sc" unicode="&#xe037;" horiz-adv-x="712" 
d="M226 249v-191l84 -22c3 -12 3 -24 0 -36h-266c-3 12 -3 24 0 36l84 22v414l-84 22c-3 12 -3 24 0 36h266c3 -12 3 -24 0 -36l-84 -22v-161h260v161l-84 22c-3 12 -3 24 0 36h266c3 -12 3 -24 0 -36l-84 -22v-414l84 -22c3 -12 3 -24 0 -36h-266c-3 12 -3 24 0 36l84 22
v191h-260z" />
    <glyph glyph-name="I.sc" unicode="&#xe03a;" horiz-adv-x="354" 
d="M226 472v-414l84 -22c3 -12 3 -24 0 -36h-266c-3 12 -3 24 0 36l84 22v414l-84 22c-3 12 -3 24 0 36h266c3 -12 3 -24 0 -36z" />
    <glyph glyph-name="Iacute.sc" unicode="&#xe03c;" horiz-adv-x="354" 
d="M226 472v-414l84 -22c3 -12 3 -24 0 -36h-266c-3 12 -3 24 0 36l84 22v414l-84 22c-3 12 -3 24 0 36h266c3 -12 3 -24 0 -36zM119 620l130 140c22 -19 40 -38 54 -59l-148 -118c-14 9 -27 22 -36 37z" />
    <glyph glyph-name="Icircumflex.sc" unicode="&#xe03e;" horiz-adv-x="354" 
d="M226 472v-414l84 -22c3 -12 3 -24 0 -36h-266c-3 12 -3 24 0 36l84 22v414l-84 22c-3 12 -3 24 0 36h266c3 -12 3 -24 0 -36zM183 760l132 -139c-8 -14 -19 -26 -35 -38l-103 89l-103 -89c-16 12 -27 24 -35 38l132 139h12z" />
    <glyph glyph-name="Idieresis.sc" unicode="&#xe03f;" horiz-adv-x="354" 
d="M226 472v-414l84 -22c3 -12 3 -24 0 -36h-266c-3 12 -3 24 0 36l84 22v414l-84 22c-3 12 -3 24 0 36h266c3 -12 3 -24 0 -36zM35 712c14 3 31 5 46 5s31 -2 45 -5c3 -15 5 -29 5 -44s-2 -30 -5 -45c-15 -3 -29 -5 -44 -5c-16 0 -32 2 -47 5c-3 15 -5 29 -5 44s2 30 5 45z
M229 712c14 3 31 5 46 5s31 -2 45 -5c3 -15 5 -29 5 -44s-2 -30 -5 -45c-15 -3 -29 -5 -44 -5c-16 0 -32 2 -47 5c-3 15 -5 29 -5 44s2 30 5 45z" />
    <glyph glyph-name="Idotaccent.sc" unicode="&#xe040;" horiz-adv-x="354" 
d="M226 472v-414l84 -22c3 -12 3 -24 0 -36h-266c-3 12 -3 24 0 36l84 22v414l-84 22c-3 12 -3 24 0 36h266c3 -12 3 -24 0 -36zM129 620c-3 15 -5 31 -5 46c0 16 2 32 5 49c16 3 32 5 48 5s33 -2 49 -5c3 -15 5 -31 5 -47c0 -15 -2 -31 -5 -48c-16 -4 -33 -5 -49 -5
s-32 1 -48 5z" />
    <glyph glyph-name="Igrave.sc" unicode="&#xe041;" horiz-adv-x="354" 
d="M226 472v-414l84 -22c3 -12 3 -24 0 -36h-266c-3 12 -3 24 0 36l84 22v414l-84 22c-3 12 -3 24 0 36h266c3 -12 3 -24 0 -36zM108 760l130 -140c-9 -15 -22 -28 -36 -37l-148 118c14 21 32 40 54 59z" />
    <glyph glyph-name="Imacron.sc" unicode="&#xe042;" horiz-adv-x="354" 
d="M226 472v-414l84 -22c3 -12 3 -24 0 -36h-266c-3 12 -3 24 0 36l84 22v414l-84 22c-3 12 -3 24 0 36h266c3 -12 3 -24 0 -36zM318 620h-281c-2 11 -3 23 -3 35s1 23 3 35h281c2 -12 3 -23 3 -35s-1 -24 -3 -35z" />
    <glyph glyph-name="Iogonek.sc" unicode="&#xe043;" horiz-adv-x="354" 
d="M226 472v-414l84 -22c3 -12 3 -24 0 -36h-109c-3 -16 -6 -34 -6 -53c0 -46 15 -92 70 -92c14 0 28 4 41 11c8 -15 13 -32 14 -48c-19 -14 -52 -24 -83 -24c-78 0 -107 62 -107 126c0 28 5 56 14 80h-100c-3 12 -3 24 0 36l84 22v414l-84 22c-3 12 -3 24 0 36h266
c3 -12 3 -24 0 -36z" />
    <glyph glyph-name="J.sc" unicode="&#xe049;" horiz-adv-x="344" 
d="M44 530h266c3 -12 3 -24 0 -36l-84 -22v-417c0 -114 -53 -175 -180 -175c-6 12 -9 24 -9 39c73 16 91 63 91 149v404l-84 22c-3 12 -3 24 0 36z" />
    <glyph glyph-name="K.sc" unicode="&#xe04b;" horiz-adv-x="639" 
d="M618 0h-152l-225 264v4l189 214l-54 12c-3 12 -3 24 0 36h226c3 -12 3 -24 0 -36l-97 -21l-159 -179l200 -236l72 -22c3 -12 3 -24 0 -36zM226 472v-414l84 -22c3 -12 3 -24 0 -36h-266c-3 12 -3 24 0 36l84 22v414l-84 22c-3 12 -3 24 0 36h256c3 -12 3 -24 0 -36z" />
    <glyph glyph-name="Kcommaaccent.sc" unicode="&#xe04d;" horiz-adv-x="639" 
d="M618 0h-152l-225 264v4l189 214l-54 12c-3 12 -3 24 0 36h226c3 -12 3 -24 0 -36l-97 -21l-159 -179l200 -236l72 -22c3 -12 3 -24 0 -36zM226 472v-414l84 -22c3 -12 3 -24 0 -36h-266c-3 12 -3 24 0 36l84 22v414l-84 22c-3 12 -3 24 0 36h256c3 -12 3 -24 0 -36z
M278 -208c25 31 38 66 38 120c0 10 0 21 -1 33c12 2 26 3 40 3s27 -1 39 -3c6 -90 -24 -138 -83 -174c-13 3 -25 10 -33 21z" />
    <glyph glyph-name="L.sc" unicode="&#xe04e;" horiz-adv-x="522" 
d="M226 472v-410h190l26 95c17 4 34 4 51 0v-157h-449c-3 12 -3 24 0 36l84 22v414l-84 22c-3 12 -3 24 0 36h266c3 -12 3 -24 0 -36z" />
    <glyph glyph-name="Lacute.sc" unicode="&#xe04f;" horiz-adv-x="522" 
d="M127 620l130 140c22 -19 40 -38 54 -59l-148 -118c-14 9 -27 22 -36 37zM226 472v-410h190l26 95c17 4 34 4 51 0v-157h-449c-3 12 -3 24 0 36l84 22v414l-84 22c-3 12 -3 24 0 36h266c3 -12 3 -24 0 -36z" />
    <glyph glyph-name="Lcaron.sc" unicode="&#xe051;" horiz-adv-x="522" 
d="M349 374c25 31 38 66 38 120c0 10 0 21 -1 33c12 2 26 3 40 3s27 -1 39 -3c6 -90 -24 -138 -83 -174c-13 3 -25 10 -33 21zM226 472v-410h190l26 95c17 4 34 4 51 0v-157h-449c-3 12 -3 24 0 36l84 22v414l-84 22c-3 12 -3 24 0 36h266c3 -12 3 -24 0 -36z" />
    <glyph glyph-name="Lcommaaccent.sc" unicode="&#xe052;" horiz-adv-x="522" 
d="M226 472v-410h190l26 95c17 4 34 4 51 0v-157h-449c-3 12 -3 24 0 36l84 22v414l-84 22c-3 12 -3 24 0 36h266c3 -12 3 -24 0 -36zM219 -208c25 31 38 66 38 120c0 10 0 21 -1 33c12 2 26 3 40 3s27 -1 39 -3c6 -90 -24 -138 -83 -174c-13 3 -25 10 -33 21z" />
    <glyph glyph-name="Lslash.sc" unicode="&#xe054;" horiz-adv-x="531" 
d="M235 472v-150l109 83l4 -1v-55l-113 -86v-201h190l26 95c17 4 34 4 51 0v-157h-449c-3 12 -3 24 0 36l84 22v131l-80 -61l-4 1v55l84 64v224l-84 22c-3 12 -3 24 0 36h266c3 -12 3 -24 0 -36z" />
    <glyph glyph-name="M.sc" unicode="&#xe055;" horiz-adv-x="888" 
d="M735 472l21 -414l84 -22c3 -12 3 -24 0 -36h-266c-3 12 -3 24 0 36l84 22l-19 372h-4l-179 -430h-86l-161 430h-4l-32 -372l79 -22c3 -12 3 -24 0 -36h-213c-3 12 -3 24 0 36l72 21l35 415l-84 22c-3 12 -3 24 0 36h215l155 -418h4l174 418h209c3 -12 3 -24 0 -36z" />
    <glyph glyph-name="N.sc" unicode="&#xe059;" horiz-adv-x="677" 
d="M497 150v322l-79 22c-3 12 -3 24 0 36h213c3 -12 3 -24 0 -36l-72 -21v-473h-86l-285 442h-4v-384l79 -22c3 -12 3 -24 0 -36h-213c-3 12 -3 24 0 36l72 21v415l-72 22c-3 12 -3 24 0 36h197l246 -380h4z" />
    <glyph glyph-name="Nacute.sc" unicode="&#xe05c;" horiz-adv-x="677" 
d="M497 150v322l-79 22c-3 12 -3 24 0 36h213c3 -12 3 -24 0 -36l-72 -21v-473h-86l-285 442h-4v-384l79 -22c3 -12 3 -24 0 -36h-213c-3 12 -3 24 0 36l72 21v415l-72 22c-3 12 -3 24 0 36h197l246 -380h4zM290 620l130 140c22 -19 40 -38 54 -59l-148 -118
c-14 9 -27 22 -36 37z" />
    <glyph glyph-name="Ncaron.sc" unicode="&#xe05d;" horiz-adv-x="677" 
d="M497 150v322l-79 22c-3 12 -3 24 0 36h213c3 -12 3 -24 0 -36l-72 -21v-473h-86l-285 442h-4v-384l79 -22c3 -12 3 -24 0 -36h-213c-3 12 -3 24 0 36l72 21v415l-72 22c-3 12 -3 24 0 36h197l246 -380h4zM483 722l-132 -139h-12l-132 139c8 14 19 26 35 38l103 -89
l103 89c16 -12 27 -24 35 -38z" />
    <glyph glyph-name="Ncommaaccent.sc" unicode="&#xe05e;" horiz-adv-x="677" 
d="M497 150v322l-79 22c-3 12 -3 24 0 36h213c3 -12 3 -24 0 -36l-72 -21v-473h-86l-285 442h-4v-384l79 -22c3 -12 3 -24 0 -36h-213c-3 12 -3 24 0 36l72 21v415l-72 22c-3 12 -3 24 0 36h197l246 -380h4zM265 -208c25 31 38 66 38 120c0 10 0 21 -1 33c12 2 26 3 40 3
s27 -1 39 -3c6 -90 -24 -138 -83 -174c-13 3 -25 10 -33 21z" />
    <glyph glyph-name="Ntilde.sc" unicode="&#xe05f;" horiz-adv-x="677" 
d="M497 150v322l-79 22c-3 12 -3 24 0 36h213c3 -12 3 -24 0 -36l-72 -21v-473h-86l-285 442h-4v-384l79 -22c3 -12 3 -24 0 -36h-213c-3 12 -3 24 0 36l72 21v415l-72 22c-3 12 -3 24 0 36h197l246 -380h4zM245 605c-17 -4 -32 -4 -51 0c0 69 33 121 90 121
c53 0 83 -54 126 -54c24 0 35 29 36 56c17 3 33 3 51 0c0 -63 -28 -120 -85 -120c-62 0 -95 54 -130 54c-21 0 -34 -34 -37 -57z" />
    <glyph glyph-name="O.sc" unicode="&#xe061;" horiz-adv-x="620" 
d="M47 265c0 174 103 275 263 275c165 0 263 -101 263 -275c0 -182 -98 -275 -263 -275c-160 0 -263 93 -263 275zM471 265c0 133 -52 213 -161 213c-103 0 -161 -80 -161 -213s58 -213 161 -213c109 0 161 80 161 213z" />
    <glyph glyph-name="OE.sc" unicode="&#xe062;" horiz-adv-x="849" 
d="M314 -10c-162 0 -267 93 -267 275c0 174 105 275 267 275c31 0 60 -4 86 -10h373v-142c-15 -4 -31 -4 -46 0l-28 80h-203v-157h131l19 45c12 3 24 3 36 0v-167c-12 -3 -24 -3 -36 0l-19 60h-131v-187h219l26 90c17 4 34 4 51 0v-152h-390c-27 -7 -56 -10 -88 -10zM398 61
v407c-19 8 -43 11 -67 11c-123 0 -182 -77 -182 -214c0 -135 58 -214 183 -214c23 0 47 3 66 10z" />
    <glyph glyph-name="Oacute.sc" unicode="&#xe063;" horiz-adv-x="620" 
d="M250 620l130 140c22 -19 40 -38 54 -59l-148 -118c-14 9 -27 22 -36 37zM47 265c0 174 103 275 263 275c165 0 263 -101 263 -275c0 -182 -98 -275 -263 -275c-160 0 -263 93 -263 275zM471 265c0 133 -52 213 -161 213c-103 0 -161 -80 -161 -213s58 -213 161 -213
c109 0 161 80 161 213z" />
    <glyph glyph-name="Ocircumflex.sc" unicode="&#xe065;" horiz-adv-x="620" 
d="M316 760l132 -139c-8 -14 -19 -26 -35 -38l-103 89l-103 -89c-16 12 -27 24 -35 38l132 139h12zM47 265c0 174 103 275 263 275c165 0 263 -101 263 -275c0 -182 -98 -275 -263 -275c-160 0 -263 93 -263 275zM471 265c0 133 -52 213 -161 213c-103 0 -161 -80 -161 -213
s58 -213 161 -213c109 0 161 80 161 213z" />
    <glyph glyph-name="Odieresis.sc" unicode="&#xe066;" horiz-adv-x="620" 
d="M168 712c14 3 31 5 46 5s31 -2 45 -5c3 -15 5 -29 5 -44s-2 -30 -5 -45c-15 -3 -29 -5 -44 -5c-16 0 -32 2 -47 5c-3 15 -5 29 -5 44s2 30 5 45zM362 712c14 3 31 5 46 5s31 -2 45 -5c3 -15 5 -29 5 -44s-2 -30 -5 -45c-15 -3 -29 -5 -44 -5c-16 0 -32 2 -47 5
c-3 15 -5 29 -5 44s2 30 5 45zM47 265c0 174 103 275 263 275c165 0 263 -101 263 -275c0 -182 -98 -275 -263 -275c-160 0 -263 93 -263 275zM471 265c0 133 -52 213 -161 213c-103 0 -161 -80 -161 -213s58 -213 161 -213c109 0 161 80 161 213z" />
    <glyph glyph-name="Ograve.sc" unicode="&#xe067;" horiz-adv-x="620" 
d="M244 760l130 -140c-9 -15 -22 -28 -36 -37l-148 118c14 21 32 40 54 59zM47 265c0 174 103 275 263 275c165 0 263 -101 263 -275c0 -182 -98 -275 -263 -275c-160 0 -263 93 -263 275zM471 265c0 133 -52 213 -161 213c-103 0 -161 -80 -161 -213s58 -213 161 -213
c109 0 161 80 161 213z" />
    <glyph glyph-name="Ohungarumlaut.sc" unicode="&#xe068;" horiz-adv-x="620" 
d="M156 619l122 141c22 -18 41 -36 56 -57l-141 -120c-14 9 -28 21 -37 36zM349 619l122 141c22 -18 41 -36 56 -57l-141 -120c-14 9 -28 21 -37 36zM47 265c0 174 103 275 263 275c165 0 263 -101 263 -275c0 -182 -98 -275 -263 -275c-160 0 -263 93 -263 275zM471 265
c0 133 -52 213 -161 213c-103 0 -161 -80 -161 -213s58 -213 161 -213c109 0 161 80 161 213z" />
    <glyph glyph-name="Omacron.sc" unicode="&#xe069;" horiz-adv-x="620" 
d="M451 620h-281c-2 11 -3 23 -3 35s1 23 3 35h281c2 -12 3 -23 3 -35s-1 -24 -3 -35zM47 265c0 174 103 275 263 275c165 0 263 -101 263 -275c0 -182 -98 -275 -263 -275c-160 0 -263 93 -263 275zM471 265c0 133 -52 213 -161 213c-103 0 -161 -80 -161 -213
s58 -213 161 -213c109 0 161 80 161 213z" />
    <glyph glyph-name="Oslash.sc" unicode="&#xe06f;" horiz-adv-x="620" 
d="M47 265c0 174 103 275 263 275c52 0 97 -10 134 -29l42 64c17 -6 30 -14 39 -26l-41 -64c57 -46 89 -122 89 -220c0 -182 -98 -275 -263 -275c-49 0 -93 9 -130 26l-47 -72c-14 6 -27 14 -39 26l45 70c-59 45 -92 121 -92 225zM310 478c-103 0 -161 -80 -161 -213
c0 -63 12 -112 36 -148h4l215 332c-24 19 -56 29 -94 29zM471 265c0 62 -10 108 -33 144h-4l-214 -330c24 -18 54 -27 90 -27c109 0 161 80 161 213z" />
    <glyph glyph-name="Otilde.sc" unicode="&#xe071;" horiz-adv-x="620" 
d="M210 605c-17 -4 -32 -4 -51 0c0 69 33 121 90 121c53 0 83 -54 126 -54c24 0 35 29 36 56c17 3 33 3 51 0c0 -63 -28 -120 -85 -120c-62 0 -95 54 -130 54c-21 0 -34 -34 -37 -57zM47 265c0 174 103 275 263 275c165 0 263 -101 263 -275c0 -182 -98 -275 -263 -275
c-160 0 -263 93 -263 275zM471 265c0 133 -52 213 -161 213c-103 0 -161 -80 -161 -213s58 -213 161 -213c109 0 161 80 161 213z" />
    <glyph glyph-name="P.sc" unicode="&#xe072;" horiz-adv-x="550" 
d="M226 184v-126l84 -22c3 -12 3 -24 0 -36h-266c-3 12 -3 24 0 36l84 22v414l-84 22c-3 12 -3 24 0 36h229c126 0 237 -37 237 -164c0 -128 -103 -182 -231 -182h-53zM253 468h-27v-222h27c85 0 155 30 155 111c0 84 -70 111 -155 111z" />
    <glyph glyph-name="Q.sc" unicode="&#xe077;" horiz-adv-x="620" 
d="M47 265c0 174 103 275 263 275c165 0 263 -101 263 -275c0 -163 -76 -254 -212 -271c8 -41 34 -64 83 -75c0 -15 -3 -27 -9 -39c-95 0 -150 39 -168 113c-138 15 -220 106 -220 272zM471 265c0 133 -52 213 -161 213c-103 0 -161 -80 -161 -213s56 -213 161 -213
c111 0 161 80 161 213z" />
    <glyph glyph-name="R.sc" unicode="&#xe079;" horiz-adv-x="619" 
d="M226 204v-146l74 -22c3 -12 3 -24 0 -36h-256c-3 12 -3 24 0 36l84 22v414l-84 22c-3 12 -3 24 0 36h229c121 0 237 -25 237 -156c0 -74 -38 -129 -107 -152l118 -164l72 -22c3 -12 3 -24 0 -36h-151l-146 204h-70zM253 468h-27v-202h27c85 0 155 20 155 101
c0 84 -70 101 -155 101z" />
    <glyph glyph-name="Racute.sc" unicode="&#xe07b;" horiz-adv-x="619" 
d="M226 204v-146l74 -22c3 -12 3 -24 0 -36h-256c-3 12 -3 24 0 36l84 22v414l-84 22c-3 12 -3 24 0 36h229c121 0 237 -25 237 -156c0 -74 -38 -129 -107 -152l118 -164l72 -22c3 -12 3 -24 0 -36h-151l-146 204h-70zM253 468h-27v-202h27c85 0 155 20 155 101
c0 84 -70 101 -155 101zM239 620l130 140c22 -19 40 -38 54 -59l-148 -118c-14 9 -27 22 -36 37z" />
    <glyph glyph-name="Rcaron.sc" unicode="&#xe07c;" horiz-adv-x="619" 
d="M226 204v-146l74 -22c3 -12 3 -24 0 -36h-256c-3 12 -3 24 0 36l84 22v414l-84 22c-3 12 -3 24 0 36h229c121 0 237 -25 237 -156c0 -74 -38 -129 -107 -152l118 -164l72 -22c3 -12 3 -24 0 -36h-151l-146 204h-70zM253 468h-27v-202h27c85 0 155 20 155 101
c0 84 -70 101 -155 101zM427 722l-132 -139h-12l-132 139c8 14 19 26 35 38l103 -89l103 89c16 -12 27 -24 35 -38z" />
    <glyph glyph-name="Rcommaaccent.sc" unicode="&#xe07d;" horiz-adv-x="619" 
d="M266 -208c25 31 38 66 38 120c0 10 0 21 -1 33c12 2 26 3 40 3s27 -1 39 -3c6 -90 -24 -138 -83 -174c-13 3 -25 10 -33 21zM253 468h-27v-202h27c85 0 155 20 155 101c0 84 -70 101 -155 101zM226 204v-146l74 -22c3 -12 3 -24 0 -36h-256c-3 12 -3 24 0 36l84 22v414
l-84 22c-3 12 -3 24 0 36h229c121 0 237 -25 237 -156c0 -74 -38 -129 -107 -152l118 -164l72 -22c3 -12 3 -24 0 -36h-151l-146 204h-70z" />
    <glyph glyph-name="S.sc" unicode="&#xe082;" horiz-adv-x="533" 
d="M75 31v135c15 3 31 3 46 0l34 -101c20 -7 54 -13 90 -13c65 0 136 22 136 83c0 114 -298 39 -298 242c0 114 106 163 209 163c58 0 118 -13 163 -34v-132c-15 -3 -31 -3 -46 0l-34 95c-22 5 -51 9 -80 9c-58 0 -116 -19 -116 -85c0 -125 299 -46 299 -236
c0 -124 -127 -167 -231 -167c-62 0 -124 14 -172 41z" />
    <glyph glyph-name="Sacute.sc" unicode="&#xe083;" horiz-adv-x="533" 
d="M75 31v135c15 3 31 3 46 0l34 -101c20 -7 54 -13 90 -13c65 0 136 22 136 83c0 114 -298 39 -298 242c0 114 106 163 209 163c58 0 118 -13 163 -34v-132c-15 -3 -31 -3 -46 0l-34 95c-22 5 -51 9 -80 9c-58 0 -116 -19 -116 -85c0 -125 299 -46 299 -236
c0 -124 -127 -167 -231 -167c-62 0 -124 14 -172 41zM223 620l130 140c22 -19 40 -38 54 -59l-148 -118c-14 9 -27 22 -36 37z" />
    <glyph glyph-name="Scaron.sc" unicode="&#xe084;" horiz-adv-x="533" 
d="M75 31v135c15 3 31 3 46 0l34 -101c20 -7 54 -13 90 -13c65 0 136 22 136 83c0 114 -298 39 -298 242c0 114 106 163 209 163c58 0 118 -13 163 -34v-132c-15 -3 -31 -3 -46 0l-34 95c-22 5 -51 9 -80 9c-58 0 -116 -19 -116 -85c0 -125 299 -46 299 -236
c0 -124 -127 -167 -231 -167c-62 0 -124 14 -172 41zM416 722l-132 -139h-12l-132 139c8 14 19 26 35 38l103 -89l103 89c16 -12 27 -24 35 -38z" />
    <glyph glyph-name="T.sc" unicode="&#xe089;" horiz-adv-x="564" 
d="M449 468h-118v-410l84 -22c3 -12 3 -24 0 -36h-266c-3 12 -3 24 0 36l84 22v410h-118l-32 -90c-15 -4 -31 -4 -46 0v152h490v-152c-15 -4 -31 -4 -46 0z" />
    <glyph glyph-name="Tcaron.sc" unicode="&#xe08d;" horiz-adv-x="564" 
d="M420 722l-132 -139h-12l-132 139c8 14 19 26 35 38l103 -89l103 89c16 -12 27 -24 35 -38zM449 468h-118v-410l84 -22c3 -12 3 -24 0 -36h-266c-3 12 -3 24 0 36l84 22v410h-118l-32 -90c-15 -4 -31 -4 -46 0v152h490v-152c-15 -4 -31 -4 -46 0z" />
    <glyph glyph-name="Tcommaaccent.sc" unicode="&#xe08f;" horiz-adv-x="564" 
d="M207 -208c25 31 38 66 38 120c0 10 0 21 -1 33c12 2 26 3 40 3s27 -1 39 -3c6 -90 -24 -138 -83 -174c-13 3 -25 10 -33 21zM449 468h-118v-410l84 -22c3 -12 3 -24 0 -36h-266c-3 12 -3 24 0 36l84 22v410h-118l-32 -90c-15 -4 -31 -4 -46 0v152h490v-152
c-15 -4 -31 -4 -46 0z" />
    <glyph glyph-name="Thorn.sc" unicode="&#xe092;" horiz-adv-x="542" 
d="M226 472v-51h32c185 0 239 -49 239 -155c0 -89 -56 -156 -239 -156h-32v-52l84 -22c3 -12 3 -24 0 -36h-266c-3 12 -3 24 0 36l84 22v414l-84 22c-3 12 -3 24 0 36h266c3 -12 3 -24 0 -36zM395 266c0 92 -58 93 -169 93v-187c111 0 169 3 169 94z" />
    <glyph glyph-name="U.sc" unicode="&#xe093;" horiz-adv-x="663" 
d="M491 231v241l-79 22c-3 12 -3 24 0 36h213c3 -12 3 -24 0 -36l-72 -21v-242c0 -157 -61 -241 -213 -241c-157 0 -222 78 -222 239v243l-72 22c-3 12 -3 24 0 36h254c3 -12 3 -24 0 -36l-84 -22v-241c0 -121 38 -169 137 -169c96 0 138 51 138 169z" />
    <glyph glyph-name="Uacute.sc" unicode="&#xe094;" horiz-adv-x="663" 
d="M491 231v241l-79 22c-3 12 -3 24 0 36h213c3 -12 3 -24 0 -36l-72 -21v-242c0 -157 -61 -241 -213 -241c-157 0 -222 78 -222 239v243l-72 22c-3 12 -3 24 0 36h254c3 -12 3 -24 0 -36l-84 -22v-241c0 -121 38 -169 137 -169c96 0 138 51 138 169zM300 620l130 140
c22 -19 40 -38 54 -59l-148 -118c-14 9 -27 22 -36 37z" />
    <glyph glyph-name="Ucircumflex.sc" unicode="&#xe096;" horiz-adv-x="663" 
d="M491 231v241l-79 22c-3 12 -3 24 0 36h213c3 -12 3 -24 0 -36l-72 -21v-242c0 -157 -61 -241 -213 -241c-157 0 -222 78 -222 239v243l-72 22c-3 12 -3 24 0 36h254c3 -12 3 -24 0 -36l-84 -22v-241c0 -121 38 -169 137 -169c96 0 138 51 138 169zM358 760l132 -139
c-8 -14 -19 -26 -35 -38l-103 89l-103 -89c-16 12 -27 24 -35 38l132 139h12z" />
    <glyph glyph-name="Udieresis.sc" unicode="&#xe097;" horiz-adv-x="663" 
d="M491 231v241l-79 22c-3 12 -3 24 0 36h213c3 -12 3 -24 0 -36l-72 -21v-242c0 -157 -61 -241 -213 -241c-157 0 -222 78 -222 239v243l-72 22c-3 12 -3 24 0 36h254c3 -12 3 -24 0 -36l-84 -22v-241c0 -121 38 -169 137 -169c96 0 138 51 138 169zM209 712
c14 3 31 5 46 5s31 -2 45 -5c3 -15 5 -29 5 -44s-2 -30 -5 -45c-15 -3 -29 -5 -44 -5c-16 0 -32 2 -47 5c-3 15 -5 29 -5 44s2 30 5 45zM403 712c14 3 31 5 46 5s31 -2 45 -5c3 -15 5 -29 5 -44s-2 -30 -5 -45c-15 -3 -29 -5 -44 -5c-16 0 -32 2 -47 5c-3 15 -5 29 -5 44
s2 30 5 45z" />
    <glyph glyph-name="Ugrave.sc" unicode="&#xe098;" horiz-adv-x="663" 
d="M491 231v241l-79 22c-3 12 -3 24 0 36h213c3 -12 3 -24 0 -36l-72 -21v-242c0 -157 -61 -241 -213 -241c-157 0 -222 78 -222 239v243l-72 22c-3 12 -3 24 0 36h254c3 -12 3 -24 0 -36l-84 -22v-241c0 -121 38 -169 137 -169c96 0 138 51 138 169zM271 760l130 -140
c-9 -15 -22 -28 -36 -37l-148 118c14 21 32 40 54 59z" />
    <glyph glyph-name="Uhungarumlaut.sc" unicode="&#xe099;" horiz-adv-x="663" 
d="M491 231v241l-79 22c-3 12 -3 24 0 36h213c3 -12 3 -24 0 -36l-72 -21v-242c0 -157 -61 -241 -213 -241c-157 0 -222 78 -222 239v243l-72 22c-3 12 -3 24 0 36h254c3 -12 3 -24 0 -36l-84 -22v-241c0 -121 38 -169 137 -169c96 0 138 51 138 169zM184 619l122 141
c22 -18 41 -36 56 -57l-141 -120c-14 9 -28 21 -37 36zM377 619l122 141c22 -18 41 -36 56 -57l-141 -120c-14 9 -28 21 -37 36z" />
    <glyph glyph-name="Umacron.sc" unicode="&#xe09a;" horiz-adv-x="663" 
d="M491 231v241l-79 22c-3 12 -3 24 0 36h213c3 -12 3 -24 0 -36l-72 -21v-242c0 -157 -61 -241 -213 -241c-157 0 -222 78 -222 239v243l-72 22c-3 12 -3 24 0 36h254c3 -12 3 -24 0 -36l-84 -22v-241c0 -121 38 -169 137 -169c96 0 138 51 138 169zM492 620h-281
c-2 11 -3 23 -3 35s1 23 3 35h281c2 -12 3 -23 3 -35s-1 -24 -3 -35z" />
    <glyph glyph-name="Uogonek.sc" unicode="&#xe09b;" horiz-adv-x="663" 
d="M491 231v241l-79 22c-3 12 -3 24 0 36h213c3 -12 3 -24 0 -36l-72 -21v-242c0 -134 -44 -215 -152 -235c-3 -15 -5 -32 -5 -49c0 -46 15 -92 70 -92c14 0 28 4 41 11c8 -15 13 -32 14 -48c-19 -14 -52 -24 -83 -24c-78 0 -107 62 -107 126c0 24 4 48 11 70h-4
c-154 0 -220 78 -220 239v243l-72 22c-3 12 -3 24 0 36h254c3 -12 3 -24 0 -36l-84 -22v-241c0 -121 38 -169 137 -169c96 0 138 51 138 169z" />
    <glyph glyph-name="Uring.sc" unicode="&#xe0a0;" horiz-adv-x="663" 
d="M491 231v241l-79 22c-3 12 -3 24 0 36h213c3 -12 3 -24 0 -36l-72 -21v-242c0 -157 -61 -241 -213 -241c-157 0 -222 78 -222 239v243l-72 22c-3 12 -3 24 0 36h254c3 -12 3 -24 0 -36l-84 -22v-241c0 -121 38 -169 137 -169c96 0 138 51 138 169zM255 676
c0 57 42 94 98 94s99 -37 99 -94s-43 -93 -99 -93s-98 36 -98 93zM306 676c0 -32 19 -55 47 -55s48 23 48 55s-20 56 -48 56s-47 -24 -47 -56z" />
    <glyph glyph-name="V.sc" unicode="&#xe0a2;" horiz-adv-x="650" 
d="M192 472l152 -364h4l153 364l-87 22c-3 12 -3 24 0 36h228c3 -12 3 -24 0 -36l-73 -20l-200 -474h-86l-198 474l-75 20c-3 12 -3 24 0 36h266c3 -12 3 -24 0 -36z" />
    <glyph glyph-name="W.sc" unicode="&#xe0a4;" horiz-adv-x="893" 
d="M237 0l-137 474l-75 20c-3 12 -3 24 0 36h266c3 -12 3 -24 0 -36l-88 -22l95 -333h4l120 383h86l120 -383h4l103 333l-92 22c-3 12 -3 24 0 36h229c3 -12 3 -24 0 -36l-72 -20l-146 -474h-86l-120 388h-4l-121 -388h-86z" />
    <glyph glyph-name="X.sc" unicode="&#xe0b2;" horiz-adv-x="618" 
d="M174 53l62 -17c3 -12 3 -24 0 -36h-223c-3 11 -3 23 0 36l85 18l154 207l-157 216l-68 17c-3 11 -3 23 0 36h261c3 -12 3 -24 0 -36l-71 -19l109 -150l111 149l-69 20c-3 12 -3 24 0 36h223c3 -12 3 -24 0 -36l-77 -21l-149 -201l157 -216l83 -20c3 -12 3 -24 0 -36h-266
c-3 12 -3 24 0 36l66 14l-115 159z" />
    <glyph glyph-name="Y.sc" unicode="&#xe0b4;" horiz-adv-x="614" 
d="M361 196v-138l84 -22c3 -12 3 -24 0 -36h-266c-3 12 -3 24 0 36l84 22v138l-168 278l-74 20c-3 12 -3 24 0 36h266c3 -12 3 -24 0 -36l-78 -21l122 -200h4l118 200l-74 21c-3 12 -3 24 0 36h218c3 -12 3 -24 0 -36l-72 -20z" />
    <glyph glyph-name="Yacute.sc" unicode="&#xe0b5;" horiz-adv-x="614" 
d="M361 196v-138l84 -22c3 -12 3 -24 0 -36h-266c-3 12 -3 24 0 36l84 22v138l-168 278l-74 20c-3 12 -3 24 0 36h266c3 -12 3 -24 0 -36l-78 -21l122 -200h4l118 200l-74 21c-3 12 -3 24 0 36h218c3 -12 3 -24 0 -36l-72 -20zM282 620l130 140c22 -19 40 -38 54 -59
l-148 -118c-14 9 -27 22 -36 37z" />
    <glyph glyph-name="Ydieresis.sc" unicode="&#xe0b7;" horiz-adv-x="614" 
d="M361 196v-138l84 -22c3 -12 3 -24 0 -36h-266c-3 12 -3 24 0 36l84 22v138l-168 278l-74 20c-3 12 -3 24 0 36h266c3 -12 3 -24 0 -36l-78 -21l122 -200h4l118 200l-74 21c-3 12 -3 24 0 36h218c3 -12 3 -24 0 -36l-72 -20zM185 712c14 3 31 5 46 5s31 -2 45 -5
c3 -15 5 -29 5 -44s-2 -30 -5 -45c-15 -3 -29 -5 -44 -5c-16 0 -32 2 -47 5c-3 15 -5 29 -5 44s2 30 5 45zM379 712c14 3 31 5 46 5s31 -2 45 -5c3 -15 5 -29 5 -44s-2 -30 -5 -45c-15 -3 -29 -5 -44 -5c-16 0 -32 2 -47 5c-3 15 -5 29 -5 44s2 30 5 45z" />
    <glyph glyph-name="Z.sc" unicode="&#xe0b9;" horiz-adv-x="584" 
d="M524 0h-461v62l319 402v4h-221l-32 -90c-15 -4 -31 -4 -46 0v152h428v-62l-319 -402v-4h255l26 95c17 4 34 4 51 0v-157z" />
    <glyph glyph-name="Zacute.sc" unicode="&#xe0ba;" horiz-adv-x="584" 
d="M524 0h-461v62l319 402v4h-221l-32 -90c-15 -4 -31 -4 -46 0v152h428v-62l-319 -402v-4h255l26 95c17 4 34 4 51 0v-157zM256 620l130 140c22 -19 40 -38 54 -59l-148 -118c-14 9 -27 22 -36 37z" />
    <glyph glyph-name="Zcaron.sc" unicode="&#xe0bb;" horiz-adv-x="584" 
d="M524 0h-461v62l319 402v4h-221l-32 -90c-15 -4 -31 -4 -46 0v152h428v-62l-319 -402v-4h255l26 95c17 4 34 4 51 0v-157zM439 722l-132 -139h-12l-132 139c8 14 19 26 35 38l103 -89l103 89c16 -12 27 -24 35 -38z" />
    <glyph glyph-name="Zdotaccent.sc" unicode="&#xe0bc;" horiz-adv-x="584" 
d="M524 0h-461v62l319 402v4h-221l-32 -90c-15 -4 -31 -4 -46 0v152h428v-62l-319 -402v-4h255l26 95c17 4 34 4 51 0v-157zM252 620c-3 15 -5 31 -5 46c0 16 2 32 5 49c16 3 32 5 48 5s33 -2 49 -5c3 -15 5 -31 5 -47c0 -15 -2 -31 -5 -48c-16 -4 -33 -5 -49 -5
s-32 1 -48 5z" />
    <glyph glyph-name="afii10017.sc" unicode="&#xe0c3;" horiz-adv-x="652" 
d="M460 58l-44 104h-222l-43 -104l87 -22c3 -12 3 -24 0 -36h-228c-3 12 -3 24 0 36l73 20l200 474h86l198 -474l75 -20c3 -12 3 -24 0 -36h-266c-3 12 -3 24 0 36zM304 422l-84 -200h171l-83 200h-4z" />
    <glyph glyph-name="afii10018.sc" unicode="&#xe0c4;" horiz-adv-x="582" 
d="M128 58v414l-84 22c-3 12 -3 24 0 36h435v-152c-15 -4 -31 -4 -46 0l-32 90h-175v-153h42c164 0 262 -32 262 -152c0 -117 -97 -163 -262 -163h-224c-3 12 -3 24 0 36zM226 253v-191h37c113 0 165 19 165 95s-52 96 -165 96h-37z" />
    <glyph glyph-name="afii10019.sc" unicode="&#xe0c5;" horiz-adv-x="590" 
d="M128 58v414l-84 22c-3 12 -3 24 0 36h266c97 0 198 -23 198 -130c0 -61 -44 -106 -110 -113v-4c83 -1 142 -47 142 -125c0 -120 -108 -158 -217 -158h-279c-3 12 -3 24 0 36zM294 247h-68v-185h58c82 0 154 5 154 90c0 84 -63 95 -144 95zM281 468h-55v-159h62
c76 0 118 18 118 81c0 74 -56 78 -125 78z" />
    <glyph glyph-name="afii10020.sc" unicode="&#xe0c6;" horiz-adv-x="518" 
d="M128 58v414l-84 22c-3 12 -3 24 0 36h445v-152c-15 -4 -31 -4 -46 0l-32 90h-185v-410l84 -22c3 -12 3 -24 0 -36h-266c-3 12 -3 24 0 36z" />
    <glyph glyph-name="afii10021.sc" unicode="&#xe0c8;" horiz-adv-x="651" 
d="M37 62h61c89 105 100 289 104 410l-84 22c-3 11 -3 23 0 36h480c3 -12 3 -24 0 -36l-79 -22v-410h79v-192c-15 -3 -31 -3 -46 0l-46 130h-377l-46 -130c-15 -3 -31 -3 -46 0v192zM421 468h-156c-12 -212 -28 -302 -90 -406h246v406z" />
    <glyph glyph-name="afii10022.sc" unicode="&#xe0ca;" horiz-adv-x="579" 
d="M128 58v414l-84 22c-3 11 -3 23 0 36h459v-142c-15 -4 -31 -4 -46 0l-28 80h-203v-157h131l19 45c12 3 24 3 36 0v-167c-12 -3 -24 -3 -36 0l-19 60h-131v-187h219l26 90c17 4 34 4 51 0v-152h-478c-3 12 -3 24 0 36z" />
    <glyph glyph-name="afii10023.sc" unicode="&#xe0cb;" horiz-adv-x="579" 
d="M128 58v414l-84 22c-3 11 -3 23 0 36h459v-142c-15 -4 -31 -4 -46 0l-28 80h-203v-157h131l19 45c12 3 24 3 36 0v-167c-12 -3 -24 -3 -36 0l-19 60h-131v-187h219l26 90c17 4 34 4 51 0v-152h-478c-3 12 -3 24 0 36zM157 712c14 3 31 5 46 5s31 -2 45 -5
c3 -15 5 -29 5 -44s-2 -30 -5 -45c-15 -3 -29 -5 -44 -5c-16 0 -32 2 -47 5c-3 15 -5 29 -5 44s2 30 5 45zM351 712c14 3 31 5 46 5s31 -2 45 -5c3 -15 5 -29 5 -44s-2 -30 -5 -45c-15 -3 -29 -5 -44 -5c-16 0 -32 2 -47 5c-3 15 -5 29 -5 44s2 30 5 45z" />
    <glyph glyph-name="afii10024.sc" unicode="&#xe0cc;" horiz-adv-x="924" 
d="M903 0h-152l-225 264v4l189 214l-54 12c-3 12 -3 24 0 36h226c3 -12 3 -24 0 -36l-97 -21l-159 -179l200 -236l72 -22c3 -12 3 -24 0 -36zM511 472v-414l84 -22c3 -12 3 -24 0 -36h-266c-3 12 -3 24 0 36l84 22v414l-74 22c-3 12 -3 24 0 36h246c3 -12 3 -24 0 -36z
M173 0h-152c-3 12 -3 24 0 36l72 22l200 236l-159 179l-97 21c-3 12 -3 24 0 36h226c3 -12 3 -24 0 -36l-54 -12l189 -214v-4z" />
    <glyph glyph-name="afii10025.sc" unicode="&#xe0cd;" horiz-adv-x="519" 
d="M103 158l36 -98c25 -4 52 -6 80 -6c73 0 146 20 146 105c0 81 -64 90 -149 90h-56c-2 14 -3 47 0 62h50c82 0 141 14 141 90c0 62 -54 77 -110 77c-32 0 -64 -4 -87 -9l-33 -92c-16 -3 -32 -3 -46 0v132c41 16 108 31 176 31c93 0 201 -25 201 -129
c0 -63 -48 -114 -113 -122v-4c77 -8 128 -54 128 -129c0 -122 -122 -166 -238 -166c-65 0 -129 14 -172 36v132c15 3 31 3 46 0z" />
    </font>
</defs>
</svg>
