<?xml version="1.0" standalone="no"?>
<!DOCTYPE svg PUBLIC "-//W3C//DTD SVG 1.1//EN" "http://www.w3.org/Graphics/SVG/1.1/DTD/svg11.dtd" >
<svg>
<metadata>
Created by FontForge 20120731 at Wed Sep 18 04:02:43 2013
 By Stefan Warting
Copyright (c) 2009 by Vedran Erakovic. All rights reserved. Published by Parachute : Worldwide for the Parachute : Font Library.
</metadata>
<defs>
<font id="PFAdamantPro-MediumItalic" horiz-adv-x="364" >
  <font-face 
    font-family="PF Adamant Pro Medium"
    font-weight="500"
    font-style="italic"
    font-stretch="normal"
    units-per-em="1000"
    panose-1="2 0 6 3 0 0 0 9 0 4"
    ascent="770"
    descent="-230"
    x-height="530"
    cap-height="720"
    bbox="-190 -230 1221 946"
    underline-thickness="50"
    underline-position="-50"
    slope="-11"
    stemh="63"
    stemv="104"
    unicode-range="U+0020-FB04"
  />
<missing-glyph horiz-adv-x="500" 
d="M500 0h-500v750h500v-750zM88 690l161 -262l160 262h-321zM284 371l156 -255v510zM249 314l-156 -254h311zM214 371l-154 252v-504z" />
    <glyph glyph-name="f_i" unicode="fi" horiz-adv-x="661" 
d="M590 470l-77 -412l84 10c5 -14 6 -30 5 -43l-139 -33c-47 -11 -61 16 -54 53l80 430h-226l-63 -368c-20 -116 -61 -204 -145 -266c-33 -24 -75 -41 -114 -41s-76 15 -93 61c11 19 27 36 46 49c22 -28 51 -51 87 -51c67 0 95 117 119 258l61 358h-83c0 12 2 23 6 35l87 17
l7 37c29 151 136 196 241 196c62 0 125 -15 173 -35l-17 -104c-10 -2 -20 -3 -30 -3s-21 1 -30 3l-12 77c-22 5 -46 8 -68 8c-70 0 -134 -30 -153 -128l-10 -51h264c39 0 64 -5 54 -57z" />
    <glyph glyph-name="f_l" unicode="fl" horiz-adv-x="661" 
d="M633 705l-120 -647l94 12c5 -13 6 -29 5 -43l-149 -35c-47 -11 -60 16 -53 53l118 646c-28 11 -57 16 -86 16c-75 0 -144 -38 -161 -129l-9 -50h125c0 -17 -3 -35 -10 -52h-124l-63 -369c-19 -113 -58 -201 -145 -266c-30 -23 -73 -41 -114 -41c-39 0 -76 15 -93 61
c11 19 27 36 46 49c22 -28 51 -51 87 -51c67 0 95 117 119 258l61 359h-83c0 11 2 25 6 35l87 17l6 36c24 143 140 196 248 196c75 0 150 -23 208 -55z" />
    <glyph glyph-name="f_b" unicode="fb" horiz-adv-x="932" 
d="M583 46c151 0 211 178 211 312c0 39 -5 102 -56 102c-92 0 -179 -195 -211 -338l-14 -63c21 -10 49 -13 70 -13zM429 -10h-30l129 701c-27 10 -56 16 -85 16c-75 0 -146 -38 -162 -129l-9 -50h125c0 -17 -3 -34 -10 -52h-124l-63 -369c-20 -115 -61 -204 -145 -266
c-33 -24 -75 -41 -114 -41s-76 15 -93 61c11 19 27 36 46 49c22 -28 51 -51 87 -51c67 0 95 117 119 258l61 359h-83c0 11 2 25 6 35l87 17l6 36c24 141 133 196 248 196c72 0 147 -22 208 -55l-62 -332l4 -1c38 80 109 166 201 166c97 0 122 -101 122 -178
c0 -177 -102 -370 -297 -370c-37 0 -74 8 -107 26c-11 -20 -28 -26 -65 -26z" />
    <glyph glyph-name="f_h" unicode="fh" horiz-adv-x="981" 
d="M402 0l126 691c-27 10 -56 16 -85 16c-75 0 -146 -38 -162 -129l-9 -50h125c0 -17 -3 -34 -10 -52h-124l-63 -369c-20 -115 -61 -204 -145 -266c-33 -24 -75 -41 -114 -41s-76 15 -93 61c11 19 27 36 46 49c22 -28 51 -51 87 -51c67 0 95 117 119 258l61 359h-83
c0 11 2 25 6 35l87 17l6 36c24 141 133 196 248 196c72 0 147 -22 208 -55l-65 -351l4 -1c44 95 113 187 209 187c64 0 115 -37 115 -130c0 -19 -2 -40 -6 -63l-54 -289l84 10c5 -14 6 -30 5 -43l-139 -33c-47 -11 -61 16 -54 53l48 262c6 32 10 60 10 84
c0 46 -14 70 -50 70c-84 0 -191 -225 -223 -385l-15 -74l-91 -12z" />
    <glyph glyph-name="f_j" unicode="fj" horiz-adv-x="650" 
d="M404 17l85 458h-226l-63 -368c-20 -116 -61 -204 -145 -266c-33 -24 -75 -41 -114 -41s-76 15 -93 61c11 19 27 36 46 49c22 -28 51 -51 87 -51c67 0 95 117 119 258l61 358h-83c0 12 2 24 6 35l87 17l7 36c27 137 125 197 243 197c59 0 122 -16 171 -35l-17 -104
c-10 -2 -20 -3 -30 -3s-20 1 -30 3l-12 77c-21 5 -42 8 -62 8c-75 0 -141 -38 -159 -129l-10 -50h264c39 0 64 -5 54 -57l-91 -493c-23 -125 -103 -173 -215 -182c-6 11 -9 23 -9 36c89 28 109 78 129 186z" />
    <glyph glyph-name="f_k" unicode="fk" horiz-adv-x="920" 
d="M402 0l126 691c-27 10 -56 16 -85 16c-75 0 -146 -38 -162 -129l-9 -50h125c0 -17 -3 -34 -10 -52h-124l-63 -369c-20 -115 -61 -204 -145 -266c-33 -24 -75 -41 -114 -41s-76 15 -93 61c11 19 27 36 46 49c22 -28 51 -51 87 -51c67 0 95 117 119 258l61 359h-83
c0 11 2 25 6 35l87 17l6 36c24 141 133 196 248 196c72 0 147 -22 208 -55l-131 -703l-91 -12zM697 43l-131 228l175 210c26 31 54 59 87 59c29 0 65 -30 91 -59c-3 -11 -10 -21 -20 -30c-16 10 -32 15 -47 15c-31 0 -57 -17 -101 -63l-91 -97l138 -237l74 34
c9 -10 16 -23 20 -38l-85 -54c-22 -14 -39 -21 -53 -21c-24 0 -39 22 -57 53z" />
    <glyph glyph-name="f_t" unicode="ft" horiz-adv-x="696" 
d="M272 528h227l31 162c-28 11 -58 17 -88 17c-75 0 -145 -38 -161 -129zM423 135l66 341h-226l-63 -369c-20 -115 -61 -204 -145 -266c-33 -24 -75 -41 -114 -41s-76 15 -93 61c11 19 27 36 46 49c22 -28 51 -51 87 -51c67 0 95 117 119 258l61 359h-83c0 11 2 25 6 35
l87 17l6 36c23 140 132 196 246 196c73 0 150 -23 211 -59l-33 -173h126c0 -17 -3 -34 -9 -52h-127l-62 -318c-3 -17 -7 -36 -7 -52c0 -28 9 -50 41 -50c28 0 66 15 88 29c7 -12 12 -28 13 -44c-46 -31 -99 -51 -147 -51c-70 0 -98 45 -98 103c0 13 2 30 4 42z" />
    <glyph glyph-name="f_f" unicode="ff" horiz-adv-x="669" 
d="M711 476h-124l-62 -369c-19 -115 -62 -204 -146 -266c-33 -24 -73 -41 -113 -41c-39 0 -76 15 -94 61c12 19 28 36 46 49c23 -28 52 -51 88 -51c66 0 95 117 119 258l60 359h-222l-63 -369c-20 -115 -61 -204 -145 -266c-33 -24 -74 -41 -114 -41c-39 0 -76 15 -93 61
c11 19 27 36 46 49c22 -28 51 -51 87 -51c67 0 95 117 119 258l61 359h-83c0 11 2 25 6 35l87 17l6 36c24 144 134 196 247 196c55 0 112 -13 161 -36c33 25 73 36 118 36c31 0 67 -6 99 -16l-16 -111c-16 -3 -31 -3 -46 0l-14 76c-77 11 -103 -40 -119 -123l-11 -58h125
c0 -17 -3 -35 -10 -52zM495 528l8 44c9 48 22 80 42 111c-32 15 -69 24 -104 24c-74 0 -144 -38 -160 -129l-9 -50h223z" />
    <glyph glyph-name="f_f_i" unicode="ffi" horiz-adv-x="985" 
d="M837 58l83 10c5 -14 7 -30 6 -43l-140 -33c-47 -11 -60 16 -53 53l79 430h-226l-62 -368c-20 -116 -62 -204 -146 -266c-33 -24 -74 -41 -113 -41c-40 0 -76 15 -94 61c12 19 28 36 46 49c23 -28 52 -51 88 -51c66 0 95 117 119 258l60 358h-221l-63 -368
c-20 -115 -61 -204 -145 -266c-34 -24 -74 -41 -114 -41c-39 0 -76 15 -93 61c11 19 27 36 46 49c22 -28 51 -51 87 -51c67 0 95 117 119 258l61 358h-83c0 10 2 25 6 35l87 17l6 37c23 139 135 196 247 196c62 0 121 -16 171 -40c46 31 101 40 147 40c64 0 125 -16 173 -35
l-17 -104c-10 -2 -20 -3 -30 -3s-20 1 -30 3l-12 77c-20 5 -44 8 -67 8c-69 0 -135 -30 -154 -128l-10 -51h265c38 0 63 -5 53 -57zM272 527h222l11 52c9 42 24 73 46 101c-35 17 -74 27 -112 27c-74 0 -141 -37 -158 -129z" />
    <glyph glyph-name="f_f_l" unicode="ffl" horiz-adv-x="985" 
d="M281 578l-9 -50h222l7 36c9 47 24 83 52 115c-35 18 -75 28 -113 28c-74 0 -142 -37 -159 -129zM956 705l-119 -647l94 12c5 -13 6 -29 5 -43l-150 -35c-46 -11 -60 16 -53 53l119 646c-27 10 -57 16 -86 16c-75 0 -145 -38 -161 -129l-9 -50h124c0 -17 -3 -34 -9 -52
h-125l-62 -369c-19 -115 -62 -204 -146 -266c-33 -24 -74 -41 -113 -41s-76 15 -94 61c12 19 28 36 46 49c23 -28 52 -51 88 -51c66 0 95 117 119 258l61 359h-222l-63 -369c-20 -115 -61 -204 -145 -266c-33 -24 -75 -41 -114 -41s-76 15 -93 61c11 19 27 36 46 49
c22 -28 51 -51 87 -51c67 0 95 117 119 258l61 359h-83c0 11 2 25 6 35l87 17l6 36c23 138 133 196 247 196c64 0 125 -17 173 -42c46 30 103 42 151 42c75 0 150 -23 208 -55z" />
    <glyph glyph-name="f_f.alt" unicode="&#xe1b6;&#xe1b6;" horiz-adv-x="668" 
d="M711 476h-124l-62 -369c-19 -115 -62 -204 -146 -266c-33 -24 -73 -41 -113 -41c-39 0 -76 15 -94 61c12 19 28 36 46 49c23 -28 52 -51 88 -51c66 0 95 117 119 258l60 359h-222l-63 -369c-20 -115 -61 -204 -145 -266c-33 -24 -74 -41 -114 -41c-39 0 -76 15 -93 61
c11 19 27 36 46 49c22 -28 51 -51 87 -51c67 0 95 117 119 258l61 359h-83c0 11 2 25 6 35l87 17l6 36c24 144 134 196 247 196c55 0 112 -13 161 -36c33 25 73 36 118 36c31 0 66 -6 98 -16c-2 -20 -8 -37 -16 -51c-20 5 -39 7 -55 7c-75 0 -110 -46 -123 -114l-11 -58h125
c0 -17 -3 -35 -10 -52zM495 528l8 44c9 48 22 80 42 111c-32 15 -69 24 -104 24c-74 0 -144 -38 -160 -129l-9 -50h223z" />
    <glyph glyph-name=".notdef" horiz-adv-x="500" 
d="M500 0h-500v750h500v-750zM88 690l161 -262l160 262h-321zM284 371l156 -255v510zM249 314l-156 -254h311zM214 371l-154 252v-504z" />
    <glyph glyph-name=".null" horiz-adv-x="0" 
 />
    <glyph glyph-name="space" unicode=" " horiz-adv-x="272" 
 />
    <glyph glyph-name="exclam" unicode="!" horiz-adv-x="322" 
d="M93 107c20 5 41 7 62 7c14 0 29 -1 43 -3c0 -38 -5 -73 -21 -108c-18 -4 -38 -6 -58 -6c-14 0 -29 1 -42 3c-1 37 3 71 16 107zM313 700l-122 -490c-10 -2 -20 -3 -30 -3s-20 1 -30 3l60 490c15 2 37 4 60 4c24 0 46 -2 62 -4z" />
    <glyph glyph-name="quotedbl" unicode="&#x22;" horiz-adv-x="395" 
d="M263 757l-66 -251c-10 -2 -20 -3 -30 -3c-11 0 -21 1 -30 3l31 251c14 2 31 3 47 3c17 0 32 -1 48 -3zM425 757l-66 -251c-10 -2 -20 -3 -30 -3c-11 0 -21 1 -30 3l31 251c14 2 31 3 47 3c17 0 32 -1 48 -3z" />
    <glyph glyph-name="numbersign" unicode="#" horiz-adv-x="577" 
d="M76 0l64 197h-105c-3 21 -1 45 5 66h121l58 179h-110c-2 22 0 45 7 67h125l62 191c9 2 20 3 31 3s21 -1 31 -3l-63 -191h125l62 191c9 2 20 3 31 3s22 -1 31 -3l-63 -191h101c2 -22 0 -45 -7 -67h-116l-58 -179h105c3 -22 1 -46 -5 -66h-121l-63 -197
c-10 -2 -21 -3 -31 -3c-11 0 -21 1 -31 3l64 197h-125l-63 -197c-10 -2 -21 -3 -31 -3c-11 0 -21 1 -31 3zM280 442l-58 -179h125l58 179h-125z" />
    <glyph glyph-name="dollar" unicode="$" horiz-adv-x="577" 
d="M206 -72l17 90c-69 6 -137 29 -180 68l23 138c16 4 33 3 45 0l19 -121c29 -17 73 -27 118 -27c85 0 173 34 173 117c0 136 -298 97 -298 301c0 126 109 184 228 190l17 83c9 2 19 3 29 3s20 -1 29 -3l-17 -83c58 -6 113 -22 154 -48l-21 -133c-14 -3 -29 -3 -44 0
l-17 107c-25 10 -63 17 -104 17c-74 0 -152 -26 -152 -109c0 -148 300 -105 300 -298c0 -134 -121 -196 -244 -203l-17 -89c-10 -2 -19 -3 -29 -3s-20 1 -29 3z" />
    <glyph glyph-name="percent" unicode="%" horiz-adv-x="862" 
d="M168 0l528 730c19 -9 36 -22 47 -34l-526 -731c-19 8 -36 21 -49 35zM286 710c94 0 127 -67 127 -146c0 -119 -64 -264 -203 -264c-88 0 -126 75 -126 152c0 118 59 258 202 258zM276 668c-79 0 -102 -155 -102 -226c0 -29 6 -100 49 -100c76 0 101 161 101 235
c0 30 -6 91 -48 91zM709 400c94 0 127 -67 127 -146c0 -119 -64 -264 -203 -264c-88 0 -126 75 -126 152c0 118 59 258 202 258zM699 358c-79 0 -102 -155 -102 -226c0 -29 6 -100 49 -100c76 0 101 161 101 235c0 30 -6 91 -48 91z" />
    <glyph glyph-name="ampersand" unicode="&#x26;" horiz-adv-x="711" 
d="M432 580c0 45 -30 97 -80 97c-62 0 -87 -54 -87 -108c0 -34 13 -71 37 -108l26 -40c60 34 104 88 104 159zM149 201c0 -77 44 -140 121 -140c56 0 104 21 144 55l-163 230c-62 -31 -102 -73 -102 -145zM667 0h-170l-49 69c-59 -49 -129 -79 -210 -79
c-107 0 -193 67 -193 183c0 110 80 174 175 215c-29 44 -53 91 -53 146c0 107 94 196 203 196c82 0 165 -48 165 -136c0 -103 -92 -173 -179 -214l127 -180c34 59 54 126 57 202h164c2 -12 1 -26 -4 -39l-91 -26c-14 -68 -45 -135 -88 -193l61 -84l88 -24
c2 -12 1 -24 -3 -36z" />
    <glyph glyph-name="quotesingle" unicode="'" horiz-adv-x="233" 
d="M263 757l-66 -251c-10 -2 -20 -3 -30 -3c-11 0 -21 1 -30 3l31 251c14 2 31 3 47 3c17 0 32 -1 48 -3z" />
    <glyph glyph-name="parenleft" unicode="(" horiz-adv-x="371" 
d="M414 718c-201 -94 -253 -359 -253 -571c0 -114 21 -222 102 -308c-8 -16 -20 -30 -36 -40c-111 89 -149 205 -149 342c0 236 61 539 315 620c11 -14 17 -28 21 -43z" />
    <glyph glyph-name="parenright" unicode=")" horiz-adv-x="371" 
d="M-26 -158c201 94 253 358 253 571c0 114 -21 222 -102 308c8 16 20 30 36 40c111 -89 149 -205 149 -342c0 -236 -62 -540 -315 -620c-11 13 -17 27 -21 43z" />
    <glyph glyph-name="asterisk" unicode="*" horiz-adv-x="526" 
d="M171 702l133 -122c-8 -16 -18 -28 -32 -38l-141 113c12 19 26 35 40 47zM97 486l174 51c9 -15 14 -30 17 -47l-171 -64c-10 19 -16 40 -20 60zM253 316l39 171c20 0 36 -4 50 -10l-28 -174c-21 1 -42 5 -61 13zM482 355l-135 123c8 14 19 28 33 37l142 -113
c-11 -17 -24 -34 -40 -47zM556 572l-174 -51c-8 12 -14 28 -16 47l170 63c10 -19 16 -39 20 -59zM400 741l-40 -170c-18 0 -34 3 -50 9l29 174c21 -1 43 -5 61 -13z" />
    <glyph glyph-name="plus" unicode="+" horiz-adv-x="653" 
d="M596 238h-234v-238c-12 -2 -25 -3 -36 -3c-12 0 -24 1 -35 3v238h-234c-2 11 -3 22 -3 34c0 11 1 23 3 35h234v233c11 2 23 3 35 3s25 -1 36 -3v-233h234c2 -12 3 -23 3 -35s-1 -24 -3 -34z" />
    <glyph glyph-name="comma" unicode="," horiz-adv-x="264" 
d="M-4 -115c52 54 78 126 80 228c12 2 29 4 48 4s37 -2 50 -4c-5 -129 -55 -208 -148 -257c-12 5 -24 16 -30 29z" />
    <glyph glyph-name="hyphen" unicode="-" horiz-adv-x="406" 
d="M358 258h-289c0 23 3 47 11 72h289c1 -26 -3 -50 -11 -72z" />
    <glyph glyph-name="period" unicode="." horiz-adv-x="264" 
d="M73 111c20 4 43 6 65 6c14 0 28 -1 43 -3c0 -38 -5 -75 -22 -111c-18 -4 -39 -6 -60 -6c-15 0 -30 1 -43 3c-1 38 3 73 17 111z" />
    <glyph glyph-name="slash" unicode="/" horiz-adv-x="428" 
d="M475 750l2 -4l-405 -801h-70l-2 4l405 801h70z" />
    <glyph glyph-name="zero" unicode="0" horiz-adv-x="577" 
d="M366 649c-156 0 -200 -268 -200 -409c0 -62 10 -190 97 -190c160 0 199 293 199 433c0 61 -13 166 -96 166zM377 710c148 0 188 -134 188 -253c0 -193 -83 -467 -312 -467c-144 0 -191 131 -191 252c0 195 84 468 315 468z" />
    <glyph glyph-name="one" unicode="1" horiz-adv-x="577" 
d="M318 629h-118c-5 14 -6 29 -5 44l168 34c58 12 69 -12 60 -59l-108 -587l125 -25c2 -13 0 -25 -4 -36h-351c-2 12 -1 24 3 36l125 25z" />
    <glyph glyph-name="two" unicode="2" horiz-adv-x="577" 
d="M172 96h330c2 -34 -3 -67 -13 -96h-467l7 50l215 195c83 76 183 169 183 279c0 83 -68 123 -142 123c-26 0 -53 -4 -77 -14l-34 -115c-15 -3 -32 -3 -46 0v129c49 40 121 63 194 63c110 0 217 -53 217 -170c0 -136 -105 -227 -210 -312l-158 -129z" />
    <glyph glyph-name="three" unicode="3" horiz-adv-x="577" 
d="M136 534v129c47 29 117 47 191 47c109 0 214 -40 214 -159c0 -92 -60 -156 -153 -174v-4c78 -16 127 -81 127 -154c0 -148 -138 -229 -274 -229c-73 0 -145 21 -205 55l20 135c15 3 31 3 46 0l21 -106c31 -12 64 -18 100 -18c96 0 187 49 187 158c0 91 -85 124 -164 124
h-62c-1 21 2 41 10 60h50c94 0 193 35 193 142c0 79 -67 108 -135 108c-30 0 -61 -5 -86 -15l-34 -99c-15 -3 -31 -3 -46 0z" />
    <glyph glyph-name="four" unicode="4" horiz-adv-x="577" 
d="M115 261l1 -3h226l54 297h-4zM456 710h72l-83 -452h93c1 -19 -2 -40 -9 -58h-95l-26 -139l89 -25c2 -13 0 -25 -4 -36h-295c-1 13 0 24 4 36l105 25l24 139h-316l7 49z" />
    <glyph glyph-name="five" unicode="5" horiz-adv-x="577" 
d="M60 48l22 133c16 3 32 3 46 0l19 -108c29 -14 59 -21 89 -21c104 0 192 79 192 186c0 105 -94 139 -188 139c-34 0 -69 -4 -98 -10l-7 4l63 323l8 6h356c1 -33 -4 -65 -15 -96h-304l-34 -170c23 4 46 6 71 6c125 0 252 -54 252 -192c0 -157 -134 -258 -285 -258
c-64 0 -130 20 -187 58z" />
    <glyph glyph-name="six" unicode="6" horiz-adv-x="577" 
d="M321 401c-93 0 -134 -108 -134 -203c0 -74 29 -148 103 -148c101 0 134 110 134 203c0 76 -28 148 -103 148zM351 460c124 0 178 -93 178 -200c0 -152 -87 -270 -241 -270c-148 0 -204 116 -204 241c0 242 155 479 418 479c23 0 46 -2 68 -5c0 -20 -4 -38 -12 -56
c-13 1 -29 2 -43 2c-148 0 -262 -99 -304 -247l4 -2c43 45 93 58 136 58z" />
    <glyph glyph-name="seven" unicode="7" horiz-adv-x="577" 
d="M147 700h440l-9 -61l-401 -649c-29 8 -53 23 -72 44l383 567l-1 3h-291l-31 -67c-14 -3 -31 -3 -46 0z" />
    <glyph glyph-name="eight" unicode="8" horiz-adv-x="577" 
d="M63 176c0 90 66 157 152 189v4c-52 36 -89 85 -89 157c0 121 112 184 221 184c105 0 209 -59 209 -174c0 -78 -55 -148 -132 -173v-4c58 -39 101 -89 101 -164c0 -134 -126 -205 -247 -205c-108 0 -215 63 -215 186zM270 332c-61 -23 -103 -89 -103 -157
c0 -70 47 -125 119 -125s135 50 135 124c0 82 -80 117 -151 158zM227 545c0 -77 75 -117 138 -152c54 23 88 78 88 137c0 62 -43 119 -111 119c-57 0 -115 -42 -115 -104z" />
    <glyph glyph-name="nine" unicode="9" horiz-adv-x="577" 
d="M340 648c-100 0 -134 -109 -134 -197c0 -70 28 -143 99 -143c97 0 139 104 139 193c0 73 -29 147 -104 147zM421 305l-4 2c-37 -41 -88 -59 -139 -59c-112 0 -176 87 -176 196c0 147 87 265 240 265c149 0 205 -120 205 -247c0 -241 -155 -472 -414 -472
c-21 0 -42 1 -62 5c0 19 3 38 12 56c13 -2 26 -3 39 -3c147 0 267 114 299 257z" />
    <glyph glyph-name="colon" unicode=":" horiz-adv-x="264" 
d="M72 111c20 4 43 6 65 6c14 0 28 -1 43 -3c0 -38 -5 -75 -22 -111c-18 -4 -39 -6 -60 -6c-15 0 -30 1 -43 3c-1 38 3 73 17 111zM140 530c20 4 43 6 65 6c14 0 28 -1 43 -3c0 -38 -5 -75 -22 -111c-18 -4 -39 -6 -60 -6c-15 0 -30 1 -43 3c-1 38 3 73 17 111z" />
    <glyph glyph-name="semicolon" unicode=";" horiz-adv-x="264" 
d="M-3 -115c52 54 78 126 80 228c12 2 29 4 48 4s37 -2 50 -4c-5 -129 -55 -208 -148 -257c-12 5 -24 16 -30 29zM138 530c20 4 43 6 65 6c14 0 28 -1 43 -3c0 -38 -5 -75 -22 -111c-18 -4 -39 -6 -60 -6c-15 0 -30 1 -43 3c-1 38 3 73 17 111z" />
    <glyph glyph-name="less" unicode="&#x3c;" horiz-adv-x="653" 
d="M568 -10l-511 241c-2 11 -3 23 -3 34s1 22 3 34l511 242c16 -19 27 -43 31 -69l-443 -205v-4l443 -205c-4 -27 -16 -50 -31 -68z" />
    <glyph glyph-name="equal" unicode="=" horiz-adv-x="653" 
d="M596 321h-539c-2 11 -3 23 -3 34c0 12 1 24 3 35h539c2 -12 3 -23 3 -35c0 -11 -1 -23 -3 -34zM596 154h-539c-2 12 -3 23 -3 35c0 11 1 23 3 35h539c2 -12 3 -24 3 -35c0 -12 -1 -24 -3 -35z" />
    <glyph glyph-name="greater" unicode="&#x3e;" horiz-adv-x="653" 
d="M596 231l-511 -241c-15 18 -27 41 -31 68l443 205v4l-443 205c4 26 15 50 31 69l511 -242c2 -12 3 -23 3 -34s-1 -23 -3 -34z" />
    <glyph glyph-name="question" unicode="?" horiz-adv-x="464" 
d="M110 513v131c49 39 125 66 200 66c97 0 181 -54 181 -157c0 -82 -49 -142 -119 -183c-71 -43 -157 -70 -177 -159c-10 -2 -21 -3 -31 -3s-21 1 -30 3c0 192 245 160 245 328c0 55 -35 105 -112 105c-23 0 -51 -6 -74 -16l-35 -115c-16 -3 -32 -3 -48 0zM104 107
c20 5 41 7 62 7c14 0 29 -1 43 -3c0 -38 -5 -73 -21 -108c-18 -4 -38 -6 -58 -6c-14 0 -29 1 -42 3c-1 37 3 71 16 107z" />
    <glyph glyph-name="at" unicode="@" horiz-adv-x="865" 
d="M548 386l5 25c-12 5 -31 7 -44 7c-125 0 -177 -137 -177 -229c0 -42 14 -67 39 -67c84 0 163 198 177 264zM515 200l-4 1c-32 -65 -91 -137 -174 -137c-67 0 -91 63 -91 123c0 129 89 277 241 277c27 0 59 -6 80 -19c11 16 28 19 46 19h30l-44 -230c-3 -17 -8 -45 -8 -67
c0 -28 7 -56 37 -56c97 0 129 145 129 212c0 164 -102 273 -274 273c-187 0 -334 -142 -334 -369c0 -177 115 -297 279 -297c57 0 119 9 164 35c8 -14 13 -29 15 -44c-59 -33 -122 -44 -190 -44c-195 0 -348 131 -348 344c0 242 175 425 423 425c193 0 335 -125 335 -312
c0 -134 -85 -271 -231 -271c-66 0 -86 39 -86 89c0 15 2 31 5 48z" />
    <glyph glyph-name="A" unicode="A" horiz-adv-x="746" 
d="M520 61l-24 164h-265l-94 -165l87 -24c1 -13 -1 -25 -5 -36h-240c-1 12 0 24 5 36l79 22l371 644l79 28l14 -7l99 -664l74 -23c2 -13 0 -25 -4 -36h-273c-2 13 0 25 4 36zM442 584h-4l-170 -296h218z" />
    <glyph glyph-name="B" unicode="B" horiz-adv-x="653" 
d="M359 657h-41l-45 -247h38c108 0 200 27 200 140c0 90 -71 107 -152 107zM335 348h-73l-52 -286h40c139 0 243 24 243 160c0 94 -67 126 -158 126zM103 60l110 599l-91 25c-2 13 0 25 4 36h225c121 0 270 -19 270 -161c0 -87 -68 -161 -158 -172v-4
c89 -13 141 -82 141 -166c0 -181 -185 -217 -364 -217h-231c-2 13 -1 25 3 36z" />
    <glyph glyph-name="C" unicode="C" horiz-adv-x="647" 
d="M502 81l60 118c16 3 32 3 48 0l-28 -143c-59 -41 -144 -66 -226 -66c-180 0 -286 110 -286 297c0 243 161 443 414 443c64 0 127 -15 172 -46l-21 -145c-16 -3 -32 -3 -48 0l-19 114c-26 10 -54 14 -84 14c-201 0 -305 -187 -305 -381c0 -137 75 -227 211 -227
c38 0 78 8 112 22z" />
    <glyph glyph-name="D" unicode="D" horiz-adv-x="731" 
d="M365 657h-44l-114 -595h51c239 0 346 152 346 360c0 152 -73 235 -239 235zM102 61l113 598l-91 25c-2 13 0 25 4 36h237c218 0 349 -83 349 -287c0 -279 -163 -433 -468 -433h-239c-2 14 0 26 4 36z" />
    <glyph glyph-name="E" unicode="E" horiz-adv-x="649" 
d="M103 61l110 598l-91 25c-2 12 0 25 4 36h524l-23 -160c-16 -3 -32 -3 -48 0l-15 97h-246l-45 -247h182l32 64c14 3 27 2 38 0l-32 -210c-13 -3 -25 -3 -38 0l-12 83h-181l-52 -284h289l49 101c15 4 32 4 48 0l-24 -164h-563c-2 12 -1 24 3 36z" />
    <glyph glyph-name="F" unicode="F" horiz-adv-x="604" 
d="M103 61l110 598l-91 25c-2 12 0 25 4 36h523l-23 -160c-16 -3 -32 -3 -48 0l-15 97h-245l-50 -277h187l32 63c13 3 25 3 38 0l-32 -210c-13 -3 -25 -3 -38 0l-12 84h-186l-47 -256l88 -25c2 -12 1 -24 -3 -36h-283c-2 12 -1 24 3 36z" />
    <glyph glyph-name="G" unicode="G" horiz-adv-x="715" 
d="M495 83l39 207l-109 25c-2 13 0 24 4 36h268c1 -12 0 -24 -5 -36l-53 -16l-59 -309h-28c-34 0 -47 14 -53 28c-41 -19 -91 -28 -141 -28c-171 0 -288 106 -288 297c0 260 178 443 421 443c68 0 135 -15 187 -46l-22 -145c-16 -3 -32 -3 -48 0l-19 114
c-28 10 -60 14 -93 14c-204 0 -317 -174 -317 -381c0 -137 83 -227 214 -227c34 0 72 8 102 24z" />
    <glyph glyph-name="H" unicode="H" horiz-adv-x="797" 
d="M642 659l-88 25c-2 13 0 25 4 36h282c2 -13 0 -25 -4 -36l-88 -25l-109 -598l88 -25c2 -12 1 -24 -3 -36h-282c-2 12 -1 24 3 36l88 25l52 287h-323l-52 -287l88 -25c2 -12 1 -24 -3 -36h-282c-2 12 -1 24 3 36l88 25l109 598l-88 25c-2 13 0 25 4 36h282
c2 -13 0 -25 -4 -36l-88 -25l-46 -248h323z" />
    <glyph glyph-name="I" unicode="I" horiz-adv-x="368" 
d="M213 659l-88 25c-2 13 0 25 4 36h282c2 -13 0 -25 -4 -36l-88 -25l-109 -598l88 -25c2 -12 1 -24 -3 -36h-282c-2 12 -1 24 3 36l88 25z" />
    <glyph glyph-name="J" unicode="J" horiz-adv-x="372" 
d="M221 659l-88 25c-2 13 0 25 4 36h282c2 -13 0 -25 -4 -36l-88 -25l-114 -623c-27 -149 -126 -199 -246 -199c-5 14 -6 27 -5 41c102 21 129 70 152 196z" />
    <glyph glyph-name="K" unicode="K" horiz-adv-x="723" 
d="M679 0h-161l-228 367l1 6l295 294l-57 17c-2 12 0 25 4 36h238c2 -13 1 -24 -3 -36l-102 -28l-268 -263l206 -332l79 -25c2 -15 0 -26 -4 -36zM213 659l-88 25c-2 13 0 25 4 36h282c2 -13 0 -25 -4 -36l-88 -25l-109 -598l88 -25c2 -12 1 -24 -3 -36h-282
c-2 12 -1 24 3 36l88 25z" />
    <glyph glyph-name="L" unicode="L" horiz-adv-x="590" 
d="M13 36l90 25l110 598l-88 25c-2 13 0 25 4 36h282c2 -13 0 -25 -4 -36l-88 -25l-108 -596h245l51 111c16 3 32 3 50 0l-25 -174h-522c-2 12 -1 24 3 36z" />
    <glyph glyph-name="M" unicode="M" horiz-adv-x="997" 
d="M479 154l307 566h207c2 -14 0 -25 -4 -36l-91 -25l-49 -598l91 -25c2 -12 1 -24 -3 -36h-287c-2 12 -1 24 3 36l91 25l43 519h-4l-308 -565l-71 -25l-11 10l-94 579h-4l-142 -519l86 -24c1 -12 -1 -24 -6 -36h-234c-1 12 0 24 5 36l83 23l162 600l-92 25c-2 13 0 25 4 36
h222l92 -566h4z" />
    <glyph glyph-name="N" unicode="N" horiz-adv-x="739" 
d="M265 602h-4l-100 -542l85 -24c2 -12 1 -24 -3 -36h-232c-2 12 -1 24 3 36l83 23l111 602l-93 23c-2 12 0 24 4 36h214l207 -560h4l93 500l-85 24c-2 13 0 25 4 36h231c2 -14 0 -25 -4 -36l-82 -23l-119 -644l-78 -27l-14 5z" />
    <glyph glyph-name="O" unicode="O" horiz-adv-x="724" 
d="M442 667c-193 0 -263 -229 -263 -394c0 -103 36 -221 162 -221c192 0 258 238 258 400c0 100 -33 215 -157 215zM449 730c180 0 259 -119 259 -278c0 -227 -120 -462 -380 -462c-179 0 -258 128 -258 285c0 225 125 455 379 455z" />
    <glyph glyph-name="P" unicode="P" horiz-adv-x="628" 
d="M104 61l109 598l-88 25c-2 13 0 25 4 36h187c162 0 314 -32 314 -196c0 -193 -159 -265 -342 -265h-42l-36 -198l88 -25c2 -12 1 -24 -3 -36h-282c-2 12 -1 24 3 36zM318 657l-61 -336h29c132 0 234 60 234 193c0 106 -69 143 -190 143h-12z" />
    <glyph glyph-name="Q" unicode="Q" horiz-adv-x="724" 
d="M442 667c-196 0 -263 -233 -263 -400c0 -103 39 -215 162 -215c191 0 258 238 258 399c0 101 -34 216 -157 216zM449 730c180 0 259 -120 259 -278c0 -197 -94 -417 -304 -454c19 -67 52 -103 120 -120c0 -14 -3 -28 -10 -41c-99 6 -179 48 -214 155
c-152 11 -230 126 -230 275c0 234 124 463 379 463z" />
    <glyph glyph-name="R" unicode="R" horiz-adv-x="682" 
d="M335 290l-83 -1l-42 -228l88 -25c2 -12 1 -24 -3 -36h-282c-2 12 -1 24 3 36l88 25l109 598l-88 25c-2 13 0 25 4 36h199c151 0 302 -22 302 -183c0 -126 -80 -198 -188 -229l128 -248l73 -24c2 -12 0 -26 -4 -36h-155zM318 657l-55 -306c128 0 257 39 257 179
c0 92 -67 127 -159 127h-43z" />
    <glyph glyph-name="S" unicode="S" horiz-adv-x="603" 
d="M36 65l24 148c16 3 32 3 48 0l21 -128c30 -20 78 -31 126 -31c93 0 194 39 194 130c0 70 -69 100 -144 133c-89 39 -185 82 -185 196c0 146 126 217 273 217c78 0 153 -20 209 -55l-21 -143c-16 -3 -33 -3 -48 0l-19 115c-31 12 -72 20 -114 20c-83 0 -166 -31 -166 -122
c0 -72 58 -101 125 -131c92 -42 202 -77 202 -196c0 -155 -144 -228 -290 -228c-89 0 -174 26 -235 75z" />
    <glyph glyph-name="T" unicode="T" horiz-adv-x="637" 
d="M237 61l108 596h-154l-48 -106c-16 -3 -32 -3 -48 0l22 169h581l-28 -169c-17 -3 -33 -3 -48 0l-16 106h-155l-108 -596l88 -25c2 -12 1 -24 -3 -36h-282c-2 12 -1 24 3 36z" />
    <glyph glyph-name="U" unicode="U" horiz-adv-x="734" 
d="M197 659l-88 25c-2 13 0 25 4 36h283c2 -13 0 -25 -4 -36l-88 -25l-59 -319c-7 -38 -12 -77 -12 -113c0 -84 27 -160 132 -160c136 0 183 83 209 223l68 370l-85 24c-2 12 -1 24 3 36h235c2 -13 0 -25 -4 -36l-81 -23l-68 -364c-37 -199 -111 -307 -298 -307
c-169 0 -217 103 -217 228c0 41 5 84 13 127z" />
    <glyph glyph-name="V" unicode="V" horiz-adv-x="726" 
d="M99 720h279c2 -13 0 -25 -4 -36l-94 -25l82 -524h4l287 524l-88 25c-2 13 0 26 4 36h240c2 -13 0 -25 -4 -36l-79 -22l-352 -643l-86 -29l-11 10l-104 661l-78 23c-2 13 0 26 4 36z" />
    <glyph glyph-name="W" unicode="W" horiz-adv-x="997" 
d="M104 720h279c2 -13 0 -25 -4 -36l-95 -25l27 -490h4l251 529l82 22l11 -10l31 -541h4l233 491l-88 24c-2 13 0 25 4 36h236c2 -13 0 -25 -4 -36l-78 -25l-304 -640l-87 -29l-11 10l-31 539h-4l-248 -520l-86 -29l-11 10l-37 660l-78 24c-2 13 0 25 4 36z" />
    <glyph glyph-name="X" unicode="X" horiz-adv-x="690" 
d="M403 437l181 222l-78 25c-2 12 0 25 4 36h236c2 -13 0 -25 -4 -36l-74 -20l-236 -292l142 -313l75 -23c2 -12 1 -25 -3 -36h-283c-2 12 0 25 4 36l91 25l-111 244l-199 -247l77 -22c2 -12 1 -24 -3 -36h-238c-2 12 -1 24 3 36l79 21l251 312l-132 292l-80 23
c-2 13 0 25 4 36h281c2 -13 0 -26 -4 -36l-83 -25z" />
    <glyph glyph-name="Y" unicode="Y" horiz-adv-x="668" 
d="M261 61l40 218l-145 383l-74 22c-1 12 0 24 4 36h281c2 -13 0 -25 -4 -36l-94 -25l114 -302h4l208 302l-83 25c-2 12 -1 24 3 36h233c2 -13 1 -25 -3 -36l-70 -20l-268 -386l-40 -217l88 -25c2 -12 0 -25 -4 -36h-282c-2 13 0 26 4 36z" />
    <glyph glyph-name="Z" unicode="Z" horiz-adv-x="686" 
d="M601 0h-577l12 64l501 589l-1 4h-287l-48 -106c-15 -3 -32 -3 -48 0l22 169h515l-12 -64l-503 -589l1 -4h349l51 111c17 3 33 3 50 0z" />
    <glyph glyph-name="bracketleft" unicode="[" horiz-adv-x="371" 
d="M420 687h-122l-159 -815h127c0 -21 -4 -43 -11 -62h-205l-4 5l180 930l6 5h200c0 -21 -4 -42 -12 -63z" />
    <glyph glyph-name="backslash" unicode="\" horiz-adv-x="462" 
d="M342 -55l-247 801l2 4h70l248 -801l-3 -4h-70z" />
    <glyph glyph-name="bracketright" unicode="]" horiz-adv-x="371" 
d="M95 -128l159 815h-127c0 22 4 43 12 63h204l4 -5l-180 -930l-6 -5h-199c0 21 3 42 11 62h122z" />
    <glyph glyph-name="asciicircum" unicode="^" horiz-adv-x="653" 
d="M70 271l225 429c10 2 21 3 31 3s22 -1 31 -3l226 -430c-19 -17 -42 -28 -68 -32l-187 358h-4l-187 -358c-26 4 -49 17 -67 33z" />
    <glyph glyph-name="underscore" unicode="_" horiz-adv-x="500" 
d="M500 -75v-50h-500v50h500z" />
    <glyph glyph-name="grave" unicode="`" horiz-adv-x="400" 
d="M260 774l92 -159c-12 -15 -29 -26 -46 -32l-115 142c18 21 42 38 69 49z" />
    <glyph glyph-name="a" unicode="a" horiz-adv-x="604" 
d="M422 427l8 47c-17 7 -35 10 -54 10c-149 0 -219 -188 -219 -324c0 -45 9 -92 52 -92c96 0 195 254 213 359zM505 540h40l-89 -482l83 10c5 -14 7 -30 6 -44l-140 -32c-47 -11 -60 16 -53 53l23 123h-4c-36 -78 -107 -178 -205 -178c-87 0 -113 89 -113 167
c0 177 112 383 297 383c34 0 70 -8 98 -25c13 20 33 25 57 25z" />
    <glyph glyph-name="b" unicode="b" horiz-adv-x="595" 
d="M245 46c152 0 212 181 212 310c0 40 -5 104 -56 104c-92 0 -180 -195 -212 -338l-14 -63c22 -10 49 -13 70 -13zM92 -10h-31l130 702h-74c-5 15 -6 29 -5 44l132 23c50 9 57 -20 51 -54l-61 -332l4 -1c37 80 108 166 201 166c97 0 121 -101 121 -178
c0 -177 -101 -370 -296 -370c-37 0 -74 8 -108 26c-10 -20 -28 -26 -64 -26z" />
    <glyph glyph-name="c" unicode="c" horiz-adv-x="501" 
d="M465 87c-56 -64 -136 -97 -216 -97c-107 0 -196 62 -196 199c0 181 127 351 311 351c42 0 91 -10 130 -35l-17 -122c-15 -3 -31 -3 -46 0l-13 87c-17 6 -35 9 -53 9c-141 0 -208 -157 -208 -279c0 -92 50 -135 121 -135c56 0 119 25 160 60c12 -11 21 -23 27 -38z" />
    <glyph glyph-name="d" unicode="d" horiz-adv-x="611" 
d="M429 428l8 47c-18 6 -38 9 -57 9c-157 0 -223 -180 -223 -318c0 -39 7 -98 56 -98c98 0 198 255 216 360zM582 705l-120 -647l94 12c5 -13 6 -29 5 -43l-149 -35c-47 -11 -60 16 -53 53l22 123h-4c-34 -80 -110 -178 -203 -178c-95 0 -120 98 -120 175
c0 180 111 375 304 375c31 0 61 -6 88 -19l32 171h-74c-5 15 -6 29 -5 44l132 23c50 9 57 -20 51 -54z" />
    <glyph glyph-name="e" unicode="e" horiz-adv-x="526" 
d="M167 288l1 -4l163 53c52 17 78 30 78 74c0 45 -27 70 -68 70c-98 0 -155 -97 -174 -193zM157 200c0 -94 51 -136 123 -136c58 0 124 27 165 61c12 -11 21 -23 27 -38c-55 -62 -140 -97 -223 -97c-105 0 -196 60 -196 199c0 181 116 351 301 351c96 0 150 -64 150 -145
c0 -26 -5 -51 -15 -77l-331 -87c-1 -10 -1 -21 -1 -31z" />
    <glyph glyph-name="f" unicode="f" horiz-adv-x="344" 
d="M387 476h-124l-63 -369c-17 -103 -54 -184 -120 -244c-40 -37 -89 -63 -139 -63c-39 0 -76 15 -93 61c11 19 27 36 46 49c20 -25 50 -49 84 -49c74 0 100 126 122 256l61 359h-84c0 12 2 24 7 35l87 17l8 44c25 137 102 188 199 188c33 0 67 -6 99 -16l-15 -111
c-16 -3 -31 -3 -46 0l-14 76c-82 16 -104 -53 -118 -121l-12 -60h124c0 -17 -3 -34 -9 -52z" />
    <glyph glyph-name="g" unicode="g" horiz-adv-x="593" 
d="M429 428l9 46c-20 7 -39 10 -59 10c-153 0 -219 -171 -219 -305c0 -41 7 -99 57 -99c101 0 192 245 212 348zM382 169l-4 1c-34 -81 -108 -169 -201 -169c-96 0 -120 97 -120 176c0 178 114 363 300 363c35 0 72 -7 99 -25c13 19 29 25 60 25h36l-86 -468
c-35 -189 -137 -273 -297 -273c-61 0 -122 14 -164 37l16 112c15 3 31 3 45 0l16 -77c25 -9 55 -14 85 -14c118 0 171 69 198 219z" />
    <glyph glyph-name="h" unicode="h" horiz-adv-x="644" 
d="M552 347l-53 -289l83 10c5 -14 7 -30 6 -43l-140 -33c-47 -11 -60 16 -53 53l48 262c6 32 10 60 10 84c0 49 -20 70 -47 70c-102 0 -204 -274 -226 -385l-15 -74l-92 -12l-9 10l127 692h-74c-5 15 -6 29 -5 44l132 23c50 9 57 -20 51 -54l-64 -351l4 -1
c44 95 113 187 209 187c78 0 114 -54 114 -133c0 -19 -2 -39 -6 -60z" />
    <glyph glyph-name="i" unicode="i" horiz-adv-x="340" 
d="M203 729c18 3 41 5 62 5c14 0 28 -1 39 -2c0 -35 -5 -71 -21 -104c-17 -4 -37 -6 -56 -6c-14 0 -28 1 -40 3c-2 35 3 69 16 104zM271 485l-79 -427l83 10c5 -14 7 -30 6 -43l-140 -33c-47 -11 -60 16 -53 53l79 427h-74c-5 15 -7 29 -5 44l132 23c50 9 57 -20 51 -54z
" />
    <glyph glyph-name="j" unicode="j" horiz-adv-x="328" 
d="M82 17l84 455h-74c-5 15 -6 29 -5 44l132 23c50 9 57 -20 51 -54l-93 -508c-23 -125 -103 -173 -215 -182c-6 11 -9 22 -9 36c89 28 109 78 129 186zM202 729c18 3 41 5 62 5c14 0 28 -1 39 -2c0 -35 -5 -71 -21 -104c-17 -4 -37 -6 -56 -6c-14 0 -28 1 -40 3
c-2 35 3 69 16 104z" />
    <glyph glyph-name="k" unicode="k" horiz-adv-x="583" 
d="M359 43l-131 228l175 210c26 31 54 59 87 59c29 0 65 -30 91 -59c-3 -11 -10 -21 -20 -30c-16 10 -32 15 -47 15c-31 0 -57 -17 -101 -63l-91 -97l138 -237l74 34c9 -10 16 -23 20 -38l-85 -54c-22 -14 -39 -21 -53 -21c-24 0 -39 22 -57 53zM295 705l-129 -703l-93 -12
l-10 10l128 692h-74c-5 15 -6 29 -5 44l132 23c50 9 57 -20 51 -54z" />
    <glyph glyph-name="l" unicode="l" horiz-adv-x="324" 
d="M295 705l-119 -647l94 12c5 -13 6 -29 5 -43l-150 -35c-46 -11 -60 16 -53 53l119 647h-74c-5 15 -6 29 -5 44l132 23c50 9 57 -20 51 -54z" />
    <glyph glyph-name="m" unicode="m" horiz-adv-x="964" 
d="M872 347l-53 -289l84 10c5 -14 6 -30 5 -43l-140 -33c-46 -11 -60 16 -53 53l49 259c7 37 9 66 9 90c0 48 -17 67 -39 67c-106 0 -205 -285 -225 -381l-16 -78l-91 -12l-10 10l57 307c6 32 10 62 10 87c0 47 -19 67 -43 67c-99 0 -200 -279 -221 -385l-15 -74l-92 -12
l-9 10l87 472h-74c-5 15 -6 29 -5 44l132 23c50 9 57 -20 51 -54l-24 -131l4 -1c44 95 109 187 205 187c62 0 111 -36 111 -126c0 -19 -2 -38 -6 -60l4 -1c43 96 109 187 205 187c76 0 109 -54 109 -131c0 -19 -2 -40 -6 -62z" />
    <glyph glyph-name="n" unicode="n" horiz-adv-x="659" 
d="M567 347l-53 -289l83 10c5 -14 7 -30 6 -43l-140 -33c-47 -11 -60 16 -53 53l48 262c6 32 10 60 10 84c0 50 -19 70 -44 70c-109 0 -207 -278 -229 -385l-15 -74l-92 -12l-9 10l87 472h-74c-5 15 -6 29 -5 44l132 23c50 9 57 -20 51 -54l-24 -131l4 -1
c44 95 113 187 209 187c78 0 114 -53 114 -133c0 -19 -2 -39 -6 -60z" />
    <glyph glyph-name="o" unicode="o" horiz-adv-x="579" 
d="M335 479c-129 0 -178 -158 -178 -271c0 -67 20 -158 106 -158c130 0 178 156 178 268c0 66 -22 161 -106 161zM253 -10c-141 0 -200 102 -200 222c0 172 101 328 293 328c142 0 199 -102 199 -221c0 -171 -92 -329 -292 -329z" />
    <glyph glyph-name="p" unicode="p" horiz-adv-x="610" 
d="M204 122l-11 -55c24 -8 47 -12 72 -12c148 0 207 170 207 304c0 40 -6 101 -56 101c-91 0 -185 -198 -212 -338zM184 20l-27 -152l83 10c5 -14 7 -30 6 -43l-140 -33c-47 -11 -60 16 -53 53l113 617h-74c-5 15 -6 29 -5 44l132 23c50 9 57 -20 51 -54l-20 -112l4 -1
c37 80 107 166 200 166c97 0 122 -101 122 -178c0 -184 -105 -360 -290 -360c-34 0 -67 5 -102 20z" />
    <glyph glyph-name="q" unicode="q" horiz-adv-x="599" 
d="M429 427l8 47c-19 7 -39 10 -59 10c-154 0 -221 -181 -221 -318c0 -39 7 -98 56 -98c101 0 199 262 216 359zM512 540h40l-124 -672l83 10c5 -14 6 -30 5 -44l-139 -32c-47 -11 -60 16 -53 53l57 313h-4c-33 -80 -110 -178 -203 -178c-95 0 -120 98 -120 175
c0 178 113 375 300 375c35 0 71 -7 101 -25c13 20 33 25 57 25z" />
    <glyph glyph-name="r" unicode="r" horiz-adv-x="473" 
d="M500 533l-20 -139c-16 -3 -32 -3 -46 0l-12 63c-105 -2 -193 -209 -223 -360l-19 -95l-92 -12l-9 10l87 472h-74c-5 15 -6 29 -5 44l133 23c50 9 58 -20 51 -54l-24 -117l4 -1c39 87 110 173 204 173c15 0 30 -2 45 -7z" />
    <glyph glyph-name="s" unicode="s" horiz-adv-x="499" 
d="M94 166l13 -90c24 -16 66 -26 108 -26c64 0 130 24 130 86c0 54 -80 76 -123 97c-62 29 -122 67 -122 148c0 116 106 159 211 159c62 0 124 -15 168 -40l-16 -120c-15 -3 -32 -3 -46 0l-14 84c-20 9 -52 15 -84 15c-60 0 -121 -21 -121 -78c0 -104 248 -92 248 -242
c0 -124 -127 -169 -234 -169c-67 0 -135 17 -182 51l17 125c13 2 31 3 47 0z" />
    <glyph glyph-name="t" unicode="t" 
d="M259 476l-62 -318c-3 -15 -7 -36 -7 -52c0 -27 9 -50 41 -50c28 0 66 15 88 29c8 -12 13 -28 13 -44c-46 -31 -99 -51 -147 -51c-72 0 -99 45 -99 102c0 12 2 28 5 43l66 341h-81c0 11 2 25 7 35l84 17l28 147l94 18l9 -10l-29 -155h126c0 -17 -3 -34 -9 -52h-127z" />
    <glyph glyph-name="u" unicode="u" horiz-adv-x="652" 
d="M504 58l84 10c5 -14 6 -30 5 -43l-139 -33c-44 -10 -61 14 -54 52l25 133l-4 1c-40 -89 -106 -188 -216 -188c-78 0 -109 58 -109 131c0 21 3 43 7 64l53 287h-74c-5 15 -6 29 -5 44l132 23c44 8 59 -15 52 -53l-49 -261c-5 -26 -11 -61 -11 -89c0 -39 11 -70 50 -70
c105 0 208 300 225 391l13 71l94 12l9 -10z" />
    <glyph glyph-name="v" unicode="v" horiz-adv-x="554" 
d="M183 0l-73 469h-74c-5 14 -6 29 -5 43l122 26c45 10 52 -22 58 -60l59 -381h5c74 90 172 217 172 346c0 24 -5 49 -16 72c13 13 31 25 53 32c31 -25 58 -63 58 -94c0 -120 -188 -350 -274 -439l-72 -24z" />
    <glyph glyph-name="w" unicode="w" horiz-adv-x="846" 
d="M175 0l-64 469h-73c-6 14 -7 28 -6 43l121 26c47 10 55 -21 60 -60l47 -356h4c63 115 129 263 181 396l69 12l10 -9l55 -423h5c74 94 155 224 155 345c0 24 -5 49 -16 72c13 13 31 25 53 32c31 -26 58 -63 58 -94c0 -117 -172 -349 -257 -439l-74 -24l-13 10l-46 353h-4
c-56 -118 -114 -231 -178 -339l-74 -24z" />
    <glyph glyph-name="x" unicode="x" horiz-adv-x="596" 
d="M270 256l-90 183l-63 -38c-11 7 -20 18 -28 33l92 90c12 12 25 17 38 17c20 0 29 -12 40 -34l79 -160c58 80 146 193 180 193c26 0 62 -29 81 -53c-4 -12 -11 -22 -19 -30c-12 4 -22 7 -32 7c-56 0 -138 -106 -185 -168l109 -220l71 46c11 -11 18 -24 23 -37l-88 -77
c-14 -12 -29 -18 -45 -18c-28 0 -41 22 -57 54l-81 161c-59 -84 -154 -215 -209 -215c-22 0 -60 26 -85 66c5 12 12 22 20 29c17 -11 32 -16 47 -16c39 0 99 48 202 187z" />
    <glyph glyph-name="y" unicode="y" horiz-adv-x="546" 
d="M240 -9l-125 447l-64 -36c-10 8 -19 19 -26 35l88 77c19 16 34 26 52 26c24 0 34 -19 43 -53l105 -383h4c74 129 122 293 122 343c0 23 -8 47 -18 70c13 13 24 21 45 28c29 -20 60 -59 60 -91c0 -116 -263 -654 -486 -654c-41 0 -70 19 -88 64c11 18 26 35 45 50
c22 -29 42 -41 69 -41c62 0 122 52 174 118z" />
    <glyph glyph-name="z" unicode="z" horiz-adv-x="533" 
d="M321 0h-298l11 67l358 366l-1 4h-219l-32 -68c-15 -4 -31 -4 -46 0l21 161h404l-11 -68l-360 -366l1 -4h173c94 0 110 17 136 71c14 -2 27 -6 39 -13c-27 -127 -77 -150 -176 -150z" />
    <glyph glyph-name="braceleft" unicode="{" horiz-adv-x="371" 
d="M258 -190h-32c-91 0 -131 47 -131 125c0 17 2 36 5 55l13 73c6 32 11 66 11 91c0 59 -20 94 -77 94c0 21 4 42 11 62c78 0 115 70 132 174l14 88c17 108 71 178 189 178h32c1 -20 -3 -41 -11 -61h-21c-68 0 -91 -36 -107 -129l-15 -88c-15 -90 -42 -164 -135 -191l-1 -4
c56 -23 74 -71 74 -125c0 -27 -5 -57 -11 -87l-16 -85c-3 -15 -4 -32 -4 -41c0 -44 20 -68 71 -68h20c1 -20 -2 -41 -11 -61z" />
    <glyph glyph-name="bar" unicode="|" horiz-adv-x="298" 
d="M212 765v-990l-5 -5h-66l-5 5v990l5 5h66z" />
    <glyph glyph-name="braceright" unicode="}" horiz-adv-x="371" 
d="M147 750h32c91 0 131 -47 131 -125c0 -17 -2 -36 -5 -55l-13 -73c-6 -32 -11 -66 -11 -91c0 -59 20 -94 77 -94c0 -21 -4 -42 -11 -62c-78 0 -115 -70 -132 -174l-14 -88c-17 -108 -71 -178 -189 -178h-32c-1 20 3 41 11 61h21c68 0 91 36 107 129l15 88
c15 90 42 164 135 191l1 4c-56 23 -74 71 -74 125c0 27 5 57 11 87l16 85c3 15 4 32 4 41c0 44 -20 68 -71 68h-20c-1 20 2 41 11 61z" />
    <glyph glyph-name="asciitilde" unicode="~" horiz-adv-x="653" 
d="M111 211c-21 0 -40 5 -57 15c26 110 86 186 179 186c106 0 139 -120 207 -120c62 0 89 61 101 122c24 -1 42 -6 58 -14c-21 -115 -79 -189 -171 -189c-103 0 -135 120 -208 120c-59 0 -95 -57 -109 -120z" />
    <glyph glyph-name="Adieresis" unicode="&#xc4;" horiz-adv-x="746" 
d="M520 61l-24 164h-265l-94 -165l87 -24c1 -13 -1 -25 -5 -36h-240c-1 12 0 24 5 36l79 22l371 644l79 28l14 -7l99 -664l74 -23c2 -13 0 -25 -4 -36h-273c-2 13 0 25 4 36zM442 584h-4l-170 -296h218zM349 888c17 3 38 5 59 5c12 0 26 -1 36 -2c1 -33 -5 -67 -20 -98
c-16 -4 -35 -6 -53 -6c-13 0 -26 1 -38 3c-1 32 3 66 16 98zM555 888c17 3 38 5 59 5c12 0 26 -1 36 -2c1 -33 -5 -67 -20 -98c-16 -4 -35 -6 -53 -6c-13 0 -26 1 -38 3c-1 32 3 66 16 98z" />
    <glyph glyph-name="Aring" unicode="&#xc5;" horiz-adv-x="746" 
d="M520 61l-24 164h-265l-94 -165l87 -24c1 -13 -1 -25 -5 -36h-240c-1 12 0 24 5 36l79 22l371 644l79 28l14 -7l99 -664l74 -23c2 -13 0 -25 -4 -36h-273c-2 13 0 25 4 36zM442 584h-4l-170 -296h218zM493 946c51 0 91 -36 91 -86c0 -62 -49 -105 -112 -105
c-53 0 -91 37 -91 87c0 60 49 104 112 104zM489 907c-35 0 -54 -31 -54 -62c0 -26 14 -50 43 -50c34 0 52 31 52 61c0 24 -13 51 -41 51z" />
    <glyph glyph-name="Ccedilla" unicode="&#xc7;" horiz-adv-x="647" 
d="M502 81l60 118c16 3 32 3 48 0l-28 -143c-44 -31 -102 -52 -163 -61c1 -12 2 -24 2 -37c0 -88 -31 -164 -137 -164c-27 0 -52 5 -76 21c4 18 11 35 22 50c16 -6 30 -9 44 -9c74 0 89 73 85 134h-4c-178 0 -285 110 -285 297c0 243 161 443 414 443c64 0 127 -15 172 -46
l-21 -145c-16 -3 -32 -3 -48 0l-19 114c-26 10 -54 14 -84 14c-201 0 -305 -187 -305 -381c0 -137 75 -227 211 -227c38 0 78 8 112 22z" />
    <glyph glyph-name="Eacute" unicode="&#xc9;" horiz-adv-x="649" 
d="M103 61l110 598l-91 25c-2 12 0 25 4 36h524l-23 -160c-16 -3 -32 -3 -48 0l-15 97h-246l-45 -247h182l32 64c14 3 27 2 38 0l-32 -210c-13 -3 -25 -3 -38 0l-12 83h-181l-52 -284h289l49 101c15 4 32 4 48 0l-24 -164h-563c-2 12 -1 24 3 36zM334 815l186 110
c17 -23 28 -47 35 -72l-199 -83c-11 14 -18 29 -22 45z" />
    <glyph glyph-name="Ntilde" unicode="&#xd1;" horiz-adv-x="739" 
d="M265 602h-4l-100 -542l85 -24c2 -12 1 -24 -3 -36h-232c-2 12 -1 24 3 36l83 23l111 602l-93 23c-2 12 0 24 4 36h214l207 -560h4l93 500l-85 24c-2 13 0 25 4 36h231c2 -14 0 -25 -4 -36l-82 -23l-119 -644l-78 -27l-14 5zM371 778c-20 -1 -37 2 -52 9
c15 60 44 114 101 114c52 0 80 -55 121 -55c24 0 40 29 44 58c20 1 38 -2 51 -9c-6 -57 -41 -112 -99 -112c-57 0 -89 55 -121 55c-25 0 -40 -37 -45 -60z" />
    <glyph glyph-name="Odieresis" unicode="&#xd6;" horiz-adv-x="724" 
d="M442 667c-193 0 -263 -229 -263 -394c0 -103 36 -221 162 -221c192 0 258 238 258 400c0 100 -33 215 -157 215zM449 730c180 0 259 -119 259 -278c0 -227 -120 -462 -380 -462c-179 0 -258 128 -258 285c0 225 125 455 379 455zM310 888c17 3 38 5 59 5
c12 0 26 -1 36 -2c1 -33 -5 -67 -20 -98c-16 -4 -35 -6 -53 -6c-13 0 -26 1 -38 3c-1 32 3 66 16 98zM516 888c17 3 38 5 59 5c12 0 26 -1 36 -2c1 -33 -5 -67 -20 -98c-16 -4 -35 -6 -53 -6c-13 0 -26 1 -38 3c-1 32 3 66 16 98z" />
    <glyph glyph-name="Udieresis" unicode="&#xdc;" horiz-adv-x="734" 
d="M197 659l-88 25c-2 13 0 25 4 36h283c2 -13 0 -25 -4 -36l-88 -25l-59 -319c-7 -38 -12 -77 -12 -113c0 -84 27 -160 132 -160c136 0 183 83 209 223l68 370l-85 24c-2 12 -1 24 3 36h235c2 -13 0 -25 -4 -36l-81 -23l-68 -364c-37 -199 -111 -307 -298 -307
c-169 0 -217 103 -217 228c0 41 5 84 13 127zM341 888c17 3 38 5 59 5c12 0 26 -1 36 -2c1 -33 -5 -67 -20 -98c-16 -4 -35 -6 -53 -6c-13 0 -26 1 -38 3c-1 32 3 66 16 98zM547 888c17 3 38 5 59 5c12 0 26 -1 36 -2c1 -33 -5 -67 -20 -98c-16 -4 -35 -6 -53 -6
c-13 0 -26 1 -38 3c-1 32 3 66 16 98z" />
    <glyph glyph-name="aacute" unicode="&#xe1;" horiz-adv-x="604" 
d="M422 427l8 47c-17 7 -35 10 -54 10c-149 0 -219 -188 -219 -324c0 -45 9 -92 52 -92c96 0 195 254 213 359zM505 540h40l-89 -482l83 10c5 -14 7 -30 6 -44l-140 -32c-47 -11 -60 16 -53 53l23 123h-4c-36 -78 -107 -178 -205 -178c-87 0 -113 89 -113 167
c0 177 112 383 297 383c34 0 70 -8 98 -25c13 20 33 25 57 25zM316 618l138 156c22 -15 42 -35 54 -57l-157 -134c-14 7 -27 19 -35 35z" />
    <glyph glyph-name="agrave" unicode="&#xe0;" horiz-adv-x="604" 
d="M422 427l8 47c-17 7 -35 10 -54 10c-149 0 -219 -188 -219 -324c0 -45 9 -92 52 -92c96 0 195 254 213 359zM505 540h40l-89 -482l83 10c5 -14 7 -30 6 -44l-140 -32c-47 -11 -60 16 -53 53l23 123h-4c-36 -78 -107 -178 -205 -178c-87 0 -113 89 -113 167
c0 177 112 383 297 383c34 0 70 -8 98 -25c13 20 33 25 57 25zM347 774l92 -159c-12 -15 -29 -26 -46 -32l-115 142c18 21 42 38 69 49z" />
    <glyph glyph-name="acircumflex" unicode="&#xe2;" horiz-adv-x="604" 
d="M422 427l8 47c-17 7 -35 10 -54 10c-149 0 -219 -188 -219 -324c0 -45 9 -92 52 -92c96 0 195 254 213 359zM505 540h40l-89 -482l83 10c5 -14 7 -30 6 -44l-140 -32c-47 -11 -60 16 -53 53l23 123h-4c-36 -78 -107 -178 -205 -178c-87 0 -113 89 -113 167
c0 177 112 383 297 383c34 0 70 -8 98 -25c13 20 33 25 57 25zM226 620l154 154h9l104 -158c-8 -14 -23 -26 -41 -33l-80 95l-112 -95c-15 10 -26 22 -34 37z" />
    <glyph glyph-name="adieresis" unicode="&#xe4;" horiz-adv-x="604" 
d="M422 427l8 47c-17 7 -35 10 -54 10c-149 0 -219 -188 -219 -324c0 -45 9 -92 52 -92c96 0 195 254 213 359zM505 540h40l-89 -482l83 10c5 -14 7 -30 6 -44l-140 -32c-47 -11 -60 16 -53 53l23 123h-4c-36 -78 -107 -178 -205 -178c-87 0 -113 89 -113 167
c0 177 112 383 297 383c34 0 70 -8 98 -25c13 20 33 25 57 25zM236 721c16 3 38 5 59 5c12 0 26 -1 36 -2c1 -33 -5 -67 -20 -98c-16 -4 -34 -6 -52 -6c-13 0 -26 1 -38 3c-2 32 2 66 15 98zM430 721c16 3 38 5 59 5c12 0 26 -1 36 -2c1 -33 -5 -67 -20 -98
c-16 -4 -34 -6 -52 -6c-13 0 -26 1 -38 3c-2 32 2 66 15 98z" />
    <glyph glyph-name="atilde" unicode="&#xe3;" horiz-adv-x="604" 
d="M422 427l8 47c-17 7 -35 10 -54 10c-149 0 -219 -188 -219 -324c0 -45 9 -92 52 -92c96 0 195 254 213 359zM505 540h40l-89 -482l83 10c5 -14 7 -30 6 -44l-140 -32c-47 -11 -60 16 -53 53l23 123h-4c-36 -78 -107 -178 -205 -178c-87 0 -113 89 -113 167
c0 177 112 383 297 383c34 0 70 -8 98 -25c13 20 33 25 57 25zM272 603c-20 -1 -37 2 -52 9c15 60 44 114 101 114c52 0 80 -55 121 -55c24 0 40 29 44 58c20 1 38 -2 51 -9c-6 -57 -41 -112 -99 -112c-57 0 -89 55 -121 55c-25 0 -40 -37 -45 -60z" />
    <glyph glyph-name="aring" unicode="&#xe5;" horiz-adv-x="604" 
d="M422 427l8 47c-17 7 -35 10 -54 10c-149 0 -219 -188 -219 -324c0 -45 9 -92 52 -92c96 0 195 254 213 359zM505 540h40l-89 -482l83 10c5 -14 7 -30 6 -44l-140 -32c-47 -11 -60 16 -53 53l23 123h-4c-36 -78 -107 -178 -205 -178c-87 0 -113 89 -113 167
c0 177 112 383 297 383c34 0 70 -8 98 -25c13 20 33 25 57 25zM395 774c51 0 91 -36 91 -86c0 -62 -49 -105 -112 -105c-53 0 -91 37 -91 87c0 60 49 104 112 104zM391 735c-35 0 -54 -31 -54 -62c0 -26 14 -50 43 -50c34 0 52 31 52 61c0 24 -13 51 -41 51z" />
    <glyph glyph-name="ccedilla" unicode="&#xe7;" horiz-adv-x="501" 
d="M465 87c-35 -40 -80 -68 -128 -84c2 -14 3 -30 3 -45c0 -88 -31 -164 -137 -164c-27 0 -52 5 -76 21c4 18 11 35 22 50c16 -6 30 -9 44 -9c75 0 89 75 85 136c-11 -1 -23 -2 -35 -2c-106 0 -190 68 -190 199c0 181 127 351 311 351c42 0 91 -10 130 -35l-17 -122
c-15 -3 -31 -3 -46 0l-13 87c-17 6 -35 9 -53 9c-141 0 -208 -157 -208 -279c0 -92 50 -135 121 -135c56 0 119 25 160 60c12 -11 21 -23 27 -38z" />
    <glyph glyph-name="eacute" unicode="&#xe9;" horiz-adv-x="526" 
d="M167 288l1 -4l163 53c52 17 78 30 78 74c0 45 -27 70 -68 70c-98 0 -155 -97 -174 -193zM157 200c0 -94 51 -136 123 -136c58 0 124 27 165 61c12 -11 21 -23 27 -38c-55 -62 -140 -97 -223 -97c-105 0 -196 60 -196 199c0 181 116 351 301 351c96 0 150 -64 150 -145
c0 -26 -5 -51 -15 -77l-331 -87c-1 -10 -1 -21 -1 -31zM268 618l138 156c22 -15 42 -35 54 -57l-157 -134c-14 7 -27 19 -35 35z" />
    <glyph glyph-name="egrave" unicode="&#xe8;" horiz-adv-x="526" 
d="M167 288l1 -4l163 53c52 17 78 30 78 74c0 45 -27 70 -68 70c-98 0 -155 -97 -174 -193zM157 200c0 -94 51 -136 123 -136c58 0 124 27 165 61c12 -11 21 -23 27 -38c-55 -62 -140 -97 -223 -97c-105 0 -196 60 -196 199c0 181 116 351 301 351c96 0 150 -64 150 -145
c0 -26 -5 -51 -15 -77l-331 -87c-1 -10 -1 -21 -1 -31zM292 774l92 -159c-12 -15 -29 -26 -46 -32l-115 142c18 21 42 38 69 49z" />
    <glyph glyph-name="ecircumflex" unicode="&#xea;" horiz-adv-x="526" 
d="M167 288l1 -4l163 53c52 17 78 30 78 74c0 45 -27 70 -68 70c-98 0 -155 -97 -174 -193zM157 200c0 -94 51 -136 123 -136c58 0 124 27 165 61c12 -11 21 -23 27 -38c-55 -62 -140 -97 -223 -97c-105 0 -196 60 -196 199c0 181 116 351 301 351c96 0 150 -64 150 -145
c0 -26 -5 -51 -15 -77l-331 -87c-1 -10 -1 -21 -1 -31zM199 620l154 154h9l104 -158c-8 -14 -23 -26 -41 -33l-80 95l-112 -95c-15 10 -26 22 -34 37z" />
    <glyph glyph-name="edieresis" unicode="&#xeb;" horiz-adv-x="526" 
d="M167 288l1 -4l163 53c52 17 78 30 78 74c0 45 -27 70 -68 70c-98 0 -155 -97 -174 -193zM157 200c0 -94 51 -136 123 -136c58 0 124 27 165 61c12 -11 21 -23 27 -38c-55 -62 -140 -97 -223 -97c-105 0 -196 60 -196 199c0 181 116 351 301 351c96 0 150 -64 150 -145
c0 -26 -5 -51 -15 -77l-331 -87c-1 -10 -1 -21 -1 -31zM196 721c16 3 38 5 59 5c12 0 26 -1 36 -2c1 -33 -5 -67 -20 -98c-16 -4 -34 -6 -52 -6c-13 0 -26 1 -38 3c-2 32 2 66 15 98zM390 721c16 3 38 5 59 5c12 0 26 -1 36 -2c1 -33 -5 -67 -20 -98c-16 -4 -34 -6 -52 -6
c-13 0 -26 1 -38 3c-2 32 2 66 15 98z" />
    <glyph glyph-name="iacute" unicode="&#xed;" horiz-adv-x="340" 
d="M271 485l-79 -427l83 10c5 -14 7 -30 6 -43l-140 -33c-47 -11 -60 16 -53 53l79 427h-74c-5 15 -7 29 -5 44l132 23c50 9 57 -20 51 -54zM141 618l138 156c22 -15 42 -35 54 -57l-157 -134c-14 7 -27 19 -35 35z" />
    <glyph glyph-name="igrave" unicode="&#xec;" horiz-adv-x="340" 
d="M271 485l-79 -427l83 10c5 -14 7 -30 6 -43l-140 -33c-47 -11 -60 16 -53 53l79 427h-74c-5 15 -7 29 -5 44l132 23c50 9 57 -20 51 -54zM180 774l92 -159c-12 -15 -29 -26 -46 -32l-115 142c18 21 42 38 69 49z" />
    <glyph glyph-name="icircumflex" unicode="&#xee;" horiz-adv-x="340" 
d="M271 485l-79 -427l83 10c5 -14 7 -30 6 -43l-140 -33c-47 -11 -60 16 -53 53l79 427h-74c-5 15 -7 29 -5 44l132 23c50 9 57 -20 51 -54zM85 620l154 154h9l104 -158c-8 -14 -23 -26 -41 -33l-80 95l-112 -95c-15 10 -26 22 -34 37z" />
    <glyph glyph-name="idieresis" unicode="&#xef;" horiz-adv-x="340" 
d="M271 485l-79 -427l83 10c5 -14 7 -30 6 -43l-140 -33c-47 -11 -60 16 -53 53l79 427h-74c-5 15 -7 29 -5 44l132 23c50 9 57 -20 51 -54zM91 721c16 3 38 5 59 5c12 0 26 -1 36 -2c1 -33 -5 -67 -20 -98c-16 -4 -34 -6 -52 -6c-13 0 -26 1 -38 3c-2 32 2 66 15 98z
M285 721c16 3 38 5 59 5c12 0 26 -1 36 -2c1 -33 -5 -67 -20 -98c-16 -4 -34 -6 -52 -6c-13 0 -26 1 -38 3c-2 32 2 66 15 98z" />
    <glyph glyph-name="ntilde" unicode="&#xf1;" horiz-adv-x="659" 
d="M567 347l-53 -289l83 10c5 -14 7 -30 6 -43l-140 -33c-47 -11 -60 16 -53 53l48 262c6 32 10 60 10 84c0 50 -19 70 -44 70c-109 0 -207 -278 -229 -385l-15 -74l-92 -12l-9 10l87 472h-74c-5 15 -6 29 -5 44l132 23c50 9 57 -20 51 -54l-24 -131l4 -1
c44 95 113 187 209 187c78 0 114 -53 114 -133c0 -19 -2 -39 -6 -60zM291 603c-20 -1 -37 2 -52 9c15 60 44 114 101 114c52 0 80 -55 121 -55c24 0 40 29 44 58c20 1 38 -2 51 -9c-6 -57 -41 -112 -99 -112c-57 0 -89 55 -121 55c-25 0 -40 -37 -45 -60z" />
    <glyph glyph-name="oacute" unicode="&#xf3;" horiz-adv-x="579" 
d="M335 479c-129 0 -178 -158 -178 -271c0 -67 20 -158 106 -158c130 0 178 156 178 268c0 66 -22 161 -106 161zM253 -10c-141 0 -200 102 -200 222c0 172 101 328 293 328c142 0 199 -102 199 -221c0 -171 -92 -329 -292 -329zM279 618l138 156c22 -15 42 -35 54 -57
l-157 -134c-14 7 -27 19 -35 35z" />
    <glyph glyph-name="ograve" unicode="&#xf2;" horiz-adv-x="579" 
d="M335 479c-129 0 -178 -158 -178 -271c0 -67 20 -158 106 -158c130 0 178 156 178 268c0 66 -22 161 -106 161zM253 -10c-141 0 -200 102 -200 222c0 172 101 328 293 328c142 0 199 -102 199 -221c0 -171 -92 -329 -292 -329zM310 774l92 -159c-12 -15 -29 -26 -46 -32
l-115 142c18 21 42 38 69 49z" />
    <glyph glyph-name="ocircumflex" unicode="&#xf4;" horiz-adv-x="579" 
d="M335 479c-129 0 -178 -158 -178 -271c0 -67 20 -158 106 -158c130 0 178 156 178 268c0 66 -22 161 -106 161zM253 -10c-141 0 -200 102 -200 222c0 172 101 328 293 328c142 0 199 -102 199 -221c0 -171 -92 -329 -292 -329zM216 620l154 154h9l104 -158
c-8 -14 -23 -26 -41 -33l-80 95l-112 -95c-15 10 -26 22 -34 37z" />
    <glyph glyph-name="odieresis" unicode="&#xf6;" horiz-adv-x="579" 
d="M335 479c-129 0 -178 -158 -178 -271c0 -67 20 -158 106 -158c130 0 178 156 178 268c0 66 -22 161 -106 161zM253 -10c-141 0 -200 102 -200 222c0 172 101 328 293 328c142 0 199 -102 199 -221c0 -171 -92 -329 -292 -329zM212 721c16 3 38 5 59 5c12 0 26 -1 36 -2
c1 -33 -5 -67 -20 -98c-16 -4 -34 -6 -52 -6c-13 0 -26 1 -38 3c-2 32 2 66 15 98zM406 721c16 3 38 5 59 5c12 0 26 -1 36 -2c1 -33 -5 -67 -20 -98c-16 -4 -34 -6 -52 -6c-13 0 -26 1 -38 3c-2 32 2 66 15 98z" />
    <glyph glyph-name="otilde" unicode="&#xf5;" horiz-adv-x="579" 
d="M335 479c-129 0 -178 -158 -178 -271c0 -67 20 -158 106 -158c130 0 178 156 178 268c0 66 -22 161 -106 161zM253 -10c-141 0 -200 102 -200 222c0 172 101 328 293 328c142 0 199 -102 199 -221c0 -171 -92 -329 -292 -329zM244 603c-20 -1 -37 2 -52 9
c15 60 44 114 101 114c52 0 80 -55 121 -55c24 0 40 29 44 58c20 1 38 -2 51 -9c-6 -57 -41 -112 -99 -112c-57 0 -89 55 -121 55c-25 0 -40 -37 -45 -60z" />
    <glyph glyph-name="uacute" unicode="&#xfa;" horiz-adv-x="652" 
d="M504 58l84 10c5 -14 6 -30 5 -43l-139 -33c-44 -10 -61 14 -54 52l25 133l-4 1c-40 -89 -106 -188 -216 -188c-78 0 -109 58 -109 131c0 21 3 43 7 64l53 287h-74c-5 15 -6 29 -5 44l132 23c44 8 59 -15 52 -53l-49 -261c-5 -26 -11 -61 -11 -89c0 -39 11 -70 50 -70
c105 0 208 300 225 391l13 71l94 12l9 -10zM321 618l138 156c22 -15 42 -35 54 -57l-157 -134c-14 7 -27 19 -35 35z" />
    <glyph glyph-name="ugrave" unicode="&#xf9;" horiz-adv-x="652" 
d="M504 58l84 10c5 -14 6 -30 5 -43l-139 -33c-44 -10 -61 14 -54 52l25 133l-4 1c-40 -89 -106 -188 -216 -188c-78 0 -109 58 -109 131c0 21 3 43 7 64l53 287h-74c-5 15 -6 29 -5 44l132 23c44 8 59 -15 52 -53l-49 -261c-5 -26 -11 -61 -11 -89c0 -39 11 -70 50 -70
c105 0 208 300 225 391l13 71l94 12l9 -10zM333 774l92 -159c-12 -15 -29 -26 -46 -32l-115 142c18 21 42 38 69 49z" />
    <glyph glyph-name="ucircumflex" unicode="&#xfb;" horiz-adv-x="652" 
d="M504 58l84 10c5 -14 6 -30 5 -43l-139 -33c-44 -10 -61 14 -54 52l25 133l-4 1c-40 -89 -106 -188 -216 -188c-78 0 -109 58 -109 131c0 21 3 43 7 64l53 287h-74c-5 15 -6 29 -5 44l132 23c44 8 59 -15 52 -53l-49 -261c-5 -26 -11 -61 -11 -89c0 -39 11 -70 50 -70
c105 0 208 300 225 391l13 71l94 12l9 -10zM246 620l154 154h9l104 -158c-8 -14 -23 -26 -41 -33l-80 95l-112 -95c-15 10 -26 22 -34 37z" />
    <glyph glyph-name="udieresis" unicode="&#xfc;" horiz-adv-x="652" 
d="M504 58l84 10c5 -14 6 -30 5 -43l-139 -33c-44 -10 -61 14 -54 52l25 133l-4 1c-40 -89 -106 -188 -216 -188c-78 0 -109 58 -109 131c0 21 3 43 7 64l53 287h-74c-5 15 -6 29 -5 44l132 23c44 8 59 -15 52 -53l-49 -261c-5 -26 -11 -61 -11 -89c0 -39 11 -70 50 -70
c105 0 208 300 225 391l13 71l94 12l9 -10zM248 721c16 3 38 5 59 5c12 0 26 -1 36 -2c1 -33 -5 -67 -20 -98c-16 -4 -34 -6 -52 -6c-13 0 -26 1 -38 3c-2 32 2 66 15 98zM442 721c16 3 38 5 59 5c12 0 26 -1 36 -2c1 -33 -5 -67 -20 -98c-16 -4 -34 -6 -52 -6
c-13 0 -26 1 -38 3c-2 32 2 66 15 98z" />
    <glyph glyph-name="dagger" unicode="&#x2020;" horiz-adv-x="496" 
d="M265 453l-190 -6c1 24 5 50 15 74l188 -6l33 205c12 2 25 3 38 3s25 -1 37 -3l-47 -205l191 6c-1 -25 -5 -50 -15 -74l-188 6l-95 -523c-13 -2 -25 -3 -38 -3c-12 0 -25 1 -37 3z" />
    <glyph glyph-name="degree" unicode="&#xb0;" horiz-adv-x="431" 
d="M289 730c102 0 167 -71 167 -166c0 -103 -76 -188 -185 -188c-103 0 -167 72 -167 166c0 105 75 188 185 188zM286 668c-74 0 -110 -57 -110 -126c0 -61 36 -104 98 -104c71 0 109 57 109 124c0 59 -32 106 -97 106z" />
    <glyph glyph-name="cent" unicode="&#xa2;" horiz-adv-x="577" 
d="M511 166c-49 -57 -120 -90 -191 -96l-17 -91c-10 -2 -20 -3 -30 -3c-11 0 -22 1 -32 3l18 92c-91 14 -160 76 -160 197c0 165 106 321 265 347l21 105c10 2 21 3 32 3c10 0 20 -1 30 -3l-20 -102c38 -2 79 -13 113 -34l-16 -122c-15 -3 -32 -3 -46 0l-14 87
c-16 6 -35 9 -53 9c-140 0 -208 -157 -208 -279c0 -92 51 -135 121 -135c56 0 119 25 161 60c12 -11 21 -23 26 -38z" />
    <glyph glyph-name="sterling" unicode="&#xa3;" horiz-adv-x="577" 
d="M574 680l-22 -135c-16 -3 -31 -3 -47 0l-19 105c-10 1 -17 2 -32 2c-148 0 -155 -161 -155 -267h153c0 -20 -4 -39 -12 -59h-140c-2 -93 -27 -180 -119 -230v-4h263l43 83c15 3 30 3 47 0l-31 -175h-469l8 45c114 49 152 166 156 281h-94c1 21 5 40 12 59h81v25
c0 65 9 127 39 180c46 80 124 120 222 120c43 0 87 -10 116 -30z" />
    <glyph glyph-name="section" unicode="&#xa7;" horiz-adv-x="531" 
d="M527 690l-20 -119c-14 -3 -30 -3 -45 0l-11 88c-20 9 -47 14 -74 14c-59 0 -123 -24 -123 -83c0 -50 51 -71 107 -95c69 -30 140 -64 140 -157c0 -69 -39 -126 -95 -165c16 -19 22 -43 22 -68c0 -120 -110 -175 -218 -175c-62 0 -124 19 -165 57l22 115c15 3 30 3 45 0
l8 -93c23 -12 58 -20 93 -20c64 0 128 25 128 93c0 54 -57 72 -121 103s-131 70 -131 158c0 68 39 120 102 154c-13 19 -19 42 -19 67c0 113 103 166 209 166c52 0 105 -13 146 -40zM231 464c-36 -24 -62 -57 -62 -99c0 -90 144 -117 196 -156c31 24 54 60 54 100
c0 95 -129 112 -188 155z" />
    <glyph glyph-name="bullet" unicode="&#x2022;" horiz-adv-x="405" 
d="M72 289c0 90 55 145 146 145c90 0 145 -55 145 -145s-55 -145 -145 -145c-91 0 -146 55 -146 145z" />
    <glyph glyph-name="paragraph" unicode="&#xb6;" horiz-adv-x="569" 
d="M527 658l-150 -773c-11 -2 -22 -3 -33 -3s-22 1 -33 3l149 769h-75l-150 -769c-11 -2 -22 -3 -33 -3s-22 1 -32 3l80 416c-108 0 -163 84 -163 181c0 164 116 238 287 238h250c2 -13 0 -27 -4 -37z" />
    <glyph glyph-name="germandbls" unicode="&#xdf;" horiz-adv-x="619" 
d="M272 74c22 -14 50 -21 78 -21c60 0 121 33 121 96c0 92 -127 98 -127 227c0 92 67 151 151 165c4 17 7 36 7 52c0 58 -27 107 -101 107c-63 0 -103 -49 -115 -116l-89 -477c-21 -115 -61 -204 -145 -266c-33 -24 -74 -41 -113 -41s-76 15 -94 61c11 19 27 36 46 49
c22 -28 51 -51 88 -51c64 0 93 117 119 258l65 356h-82c0 13 2 26 7 38l86 17l8 42c23 120 119 190 231 190c110 0 186 -62 186 -173c0 -28 -4 -57 -13 -91c-74 0 -143 -24 -143 -94c0 -106 134 -111 134 -240c0 -112 -106 -172 -214 -172c-42 0 -83 10 -114 32
c4 18 11 35 23 52z" />
    <glyph glyph-name="registered" unicode="&#xae;" horiz-adv-x="486" 
d="M100 530c0 124 78 203 202 203s204 -79 204 -203s-80 -203 -204 -203s-202 79 -202 203zM153 530c0 -100 50 -160 149 -160c100 0 150 60 150 160c0 99 -50 161 -150 161c-99 0 -149 -62 -149 -161zM272 512v-63l17 -5v-15h-81v15l17 5v166l-17 6v18h85
c62 0 93 -14 93 -61c0 -25 -14 -54 -47 -60l56 -69l15 -5v-15h-59l-62 83h-17zM338 578c0 31 -21 35 -51 35h-15v-78h17c34 0 49 10 49 43z" />
    <glyph glyph-name="copyright" unicode="&#xa9;" horiz-adv-x="742" 
d="M80 360c0 197 125 321 321 321c197 0 322 -123 322 -321s-125 -322 -322 -322c-198 0 -321 126 -321 322zM144 360c0 -167 94 -266 257 -266c164 0 258 99 258 266c0 168 -95 266 -258 266s-257 -100 -257 -266zM502 440l-19 57c-15 4 -30 6 -46 6
c-83 0 -109 -59 -109 -148c0 -76 27 -139 107 -139c16 0 33 3 49 9l22 63c9 2 20 2 29 0v-89c-37 -19 -81 -30 -122 -30c-107 0 -177 66 -177 186c0 135 82 194 192 194c37 0 77 -7 106 -22v-87c-10 -2 -23 -2 -32 0z" />
    <glyph glyph-name="trademark" unicode="&#x2122;" horiz-adv-x="898" 
d="M762 720h127v-30l-41 -10l14 -234l41 -10v-25h-147v25l40 10l-11 216h-4l-99 -251h-57l-88 249h-4l-21 -214l42 -10v-25h-115v25l36 10l22 234l-41 10v30h128l82 -235h4zM360 684h-66v-238l38 -11v-24h-143v24l38 11v238h-66l-15 -46h-26v82h281v-82h-26z" />
    <glyph glyph-name="acute" unicode="&#xb4;" horiz-adv-x="400" 
d="M180 618l138 156c22 -15 42 -35 54 -57l-157 -134c-14 7 -27 19 -35 35z" />
    <glyph glyph-name="dieresis" unicode="&#xa8;" horiz-adv-x="400" 
d="M138 721c16 3 38 5 59 5c12 0 26 -1 36 -2c1 -33 -5 -67 -20 -98c-16 -4 -34 -6 -52 -6c-13 0 -26 1 -38 3c-2 32 2 66 15 98zM332 721c16 3 38 5 59 5c12 0 26 -1 36 -2c1 -33 -5 -67 -20 -98c-16 -4 -34 -6 -52 -6c-13 0 -26 1 -38 3c-2 32 2 66 15 98z" />
    <glyph glyph-name="AE" unicode="&#xc6;" horiz-adv-x="1030" 
d="M317 720h714l-24 -160c-16 -3 -32 -3 -48 0l-17 97h-242l-50 -260h182l33 63c13 3 25 3 38 0l-35 -209c-13 -3 -25 -3 -38 0l-11 83h-181l-51 -271h288l51 101c16 4 32 4 48 0l-26 -164h-565c-2 12 0 26 4 36l94 25l51 273h-216l-180 -274l87 -24c2 -12 0 -25 -4 -36
h-243c-1 11 0 25 4 36l79 22l392 597l-138 29c-1 12 0 24 4 36zM544 397l50 260h-65l-171 -260h186z" />
    <glyph glyph-name="Oslash" unicode="&#xd8;" horiz-adv-x="724" 
d="M442 667c-196 0 -263 -233 -263 -400c0 -40 6 -82 21 -118h4l337 481c-24 23 -56 37 -99 37zM341 52c196 0 258 241 258 409c0 38 -6 81 -22 116h-4l-339 -482c25 -26 59 -43 107 -43zM449 730c55 0 102 -12 139 -33l53 75c18 -8 35 -19 46 -33l-53 -75
c57 -56 74 -132 74 -213c0 -227 -119 -461 -380 -461c-57 0 -104 13 -142 36l-59 -84c-17 8 -34 18 -47 33l62 87c-53 56 -72 134 -72 213c0 223 125 455 379 455z" />
    <glyph glyph-name="plusminus" unicode="&#xb1;" horiz-adv-x="653" 
d="M596 353h-234v-217c-11 -2 -24 -3 -36 -3s-24 1 -35 3v217h-234c-2 11 -3 23 -3 34s1 24 3 35h234v214c10 2 23 3 35 3s25 -1 36 -3v-214h234c2 -12 3 -23 3 -35s-1 -24 -3 -34zM596 0h-539c-2 11 -3 22 -3 34s1 24 3 35h539c2 -12 3 -23 3 -35s-1 -24 -3 -34z" />
    <glyph glyph-name="yen" unicode="&#xa5;" horiz-adv-x="577" 
d="M399 374h131c0 -17 -4 -33 -10 -47h-154l-15 -79h154c0 -17 -3 -33 -9 -47h-154l-27 -140l91 -25c2 -12 1 -24 -3 -36h-285c-2 12 -1 24 3 36l91 25l27 140h-154c1 15 3 31 10 47h153l15 79h-153c0 15 2 32 9 47h128l-91 268l-68 22c-2 13 0 25 4 36h251
c1 -13 0 -24 -4 -36l-69 -25l77 -227h4l155 227l-68 25c-2 12 0 25 4 36h205c2 -13 0 -25 -4 -36l-58 -20z" />
    <glyph glyph-name="ordfeminine" unicode="&#xaa;" horiz-adv-x="409" 
d="M303 592l6 29c-12 4 -23 6 -34 6c-97 0 -138 -135 -138 -213c0 -27 5 -56 27 -56c51 0 120 144 139 234zM361 668h34l-58 -317l57 5l4 -35l-99 -19c-34 -7 -46 11 -41 37l13 74h-4c-23 -52 -67 -112 -133 -112c-56 0 -79 55 -79 111c0 117 76 256 203 256
c22 0 45 -4 64 -14c9 11 22 14 39 14z" />
    <glyph glyph-name="ordmasculine" unicode="&#xba;" horiz-adv-x="401" 
d="M198 301c-96 0 -137 65 -137 145c0 117 67 222 200 222c94 0 136 -62 136 -145c0 -118 -61 -222 -199 -222zM253 624c-79 0 -110 -101 -110 -176c0 -41 6 -103 61 -103c85 0 111 104 111 179c0 41 -11 100 -62 100z" />
    <glyph glyph-name="ae" unicode="&#xe6;" horiz-adv-x="851" 
d="M485 285l2 -3l169 55c52 17 78 30 78 74c0 45 -27 70 -68 70c-104 0 -160 -99 -181 -196zM422 427l8 47c-17 7 -35 10 -54 10c-149 0 -219 -188 -219 -324c0 -45 9 -92 52 -92c94 0 194 247 213 359zM166 -10c-87 0 -113 89 -113 167c0 177 112 383 297 383
c34 0 70 -8 98 -25c13 20 33 25 57 25h24l-9 -51h4c43 32 96 51 155 51c94 0 150 -64 150 -145c0 -26 -5 -51 -15 -77l-336 -88c-1 -10 -1 -20 -1 -30c0 -94 52 -136 128 -136c58 0 124 27 165 61c12 -11 21 -23 27 -38c-55 -62 -140 -97 -223 -97c-100 0 -187 54 -195 178
h-5c-35 -78 -110 -178 -208 -178z" />
    <glyph glyph-name="oslash" unicode="&#xf8;" horiz-adv-x="579" 
d="M263 50c131 0 178 153 178 275c0 25 -3 49 -12 74h-4l-231 -320c16 -18 38 -29 69 -29zM335 479c-130 0 -178 -156 -178 -273c0 -25 3 -53 12 -80h4l231 321c-16 20 -38 32 -69 32zM253 -10c-42 0 -77 9 -105 25l-51 -71c-14 6 -27 15 -36 27l51 71
c-41 40 -59 99 -59 164c0 182 103 334 293 334c43 0 78 -10 106 -27l46 63c15 -6 28 -15 36 -27l-46 -63c43 -45 57 -104 57 -167c0 -174 -94 -329 -292 -329z" />
    <glyph glyph-name="questiondown" unicode="&#xbf;" horiz-adv-x="468" 
d="M388 20v-131c-49 -39 -125 -66 -200 -66c-97 0 -181 54 -181 157c0 82 49 142 119 183c71 43 157 70 177 159c10 2 21 3 31 3s21 -1 30 -3c0 -192 -245 -160 -245 -328c0 -55 35 -105 112 -105c23 0 51 6 74 16l35 115c16 3 32 3 48 0zM394 426c-20 -5 -41 -7 -62 -7
c-14 0 -29 1 -43 3c0 38 5 73 21 108c18 4 38 6 58 6c14 0 29 -1 42 -3c1 -37 -3 -71 -16 -107z" />
    <glyph glyph-name="exclamdown" unicode="&#xa1;" horiz-adv-x="333" 
d="M260 426c-20 -5 -41 -7 -62 -7c-14 0 -29 1 -43 3c0 38 5 73 21 108c18 4 38 6 58 6c14 0 29 -1 42 -3c1 -37 -3 -71 -16 -107zM40 -167l122 490c10 2 20 3 30 3s20 -1 30 -3l-60 -490c-15 -2 -37 -4 -60 -4c-24 0 -46 2 -62 4z" />
    <glyph glyph-name="logicalnot" unicode="&#xac;" horiz-adv-x="653" 
d="M530 140v212h-473c-2 11 -3 23 -3 34c0 12 1 24 3 35h537l5 -5v-276c-11 -2 -22 -3 -34 -3c-11 0 -24 1 -35 3z" />
    <glyph glyph-name="florin" unicode="&#x192;" horiz-adv-x="577" 
d="M266 369h-90c0 17 2 34 7 52h92l23 121c26 137 102 188 199 188c32 0 67 -6 99 -16l-16 -111c-15 -3 -31 -3 -46 0l-14 76c-7 1 -12 2 -21 2c-67 0 -87 -69 -102 -147l-21 -113h122c1 -19 -2 -37 -7 -52h-124l-35 -197c-20 -115 -62 -209 -148 -273
c-32 -24 -74 -41 -113 -41s-76 15 -94 61c12 19 28 35 46 48c23 -27 52 -50 88 -50c63 0 94 115 120 257z" />
    <glyph glyph-name="guillemotleft" unicode="&#xab;" horiz-adv-x="564" 
d="M52 276l229 211c18 -12 33 -26 45 -44l-162 -169l127 -182c-13 -18 -30 -31 -50 -41l-189 221v4zM267 276l229 211c18 -12 33 -26 45 -44l-163 -169l128 -182c-14 -18 -31 -31 -50 -41l-189 221v4z" />
    <glyph glyph-name="guillemotright" unicode="&#xbb;" horiz-adv-x="564" 
d="M323 262l-229 -211c-18 11 -33 26 -45 44l162 169l-127 182c13 17 30 31 50 41l189 -221v-4zM537 262l-229 -211c-18 12 -32 26 -45 44l163 169l-127 182c12 17 30 31 49 41l189 -221v-4z" />
    <glyph glyph-name="ellipsis" unicode="&#x2026;" horiz-adv-x="1000" 
d="M95 111c20 4 43 6 65 6c14 0 28 -1 43 -3c0 -38 -5 -75 -22 -111c-18 -4 -39 -6 -60 -6c-15 0 -30 1 -43 3c-1 38 3 73 17 111zM438 111c20 4 43 6 65 6c14 0 28 -1 43 -3c0 -38 -5 -75 -22 -111c-18 -4 -39 -6 -60 -6c-15 0 -30 1 -43 3c-1 38 3 73 17 111zM781 111
c20 4 43 6 65 6c14 0 28 -1 43 -3c0 -38 -5 -75 -22 -111c-18 -4 -39 -6 -60 -6c-15 0 -30 1 -43 3c-1 38 3 73 17 111z" />
    <glyph glyph-name="Agrave" unicode="&#xc0;" horiz-adv-x="746" 
d="M520 61l-24 164h-265l-94 -165l87 -24c1 -13 -1 -25 -5 -36h-240c-1 12 0 24 5 36l79 22l371 644l79 28l14 -7l99 -664l74 -23c2 -13 0 -25 -4 -36h-273c-2 13 0 25 4 36zM442 584h-4l-170 -296h218zM369 925l186 -110c-4 -16 -11 -31 -22 -45l-199 83c7 25 19 49 35 72z
" />
    <glyph glyph-name="Atilde" unicode="&#xc3;" horiz-adv-x="746" 
d="M520 61l-24 164h-265l-94 -165l87 -24c1 -13 -1 -25 -5 -36h-240c-1 12 0 24 5 36l79 22l371 644l79 28l14 -7l99 -664l74 -23c2 -13 0 -25 -4 -36h-273c-2 13 0 25 4 36zM442 584h-4l-170 -296h218zM386 779c-20 -1 -37 2 -52 9c15 60 44 114 101 114
c52 0 80 -55 121 -55c24 0 40 29 44 58c20 1 38 -2 51 -9c-6 -57 -41 -112 -99 -112c-57 0 -89 55 -121 55c-25 0 -40 -37 -45 -60z" />
    <glyph glyph-name="Otilde" unicode="&#xd5;" horiz-adv-x="724" 
d="M442 667c-193 0 -263 -229 -263 -394c0 -103 36 -221 162 -221c192 0 258 238 258 400c0 100 -33 215 -157 215zM449 730c180 0 259 -119 259 -278c0 -227 -120 -462 -380 -462c-179 0 -258 128 -258 285c0 225 125 455 379 455zM345 778c-20 -1 -37 2 -52 9
c15 60 44 114 101 114c52 0 80 -55 121 -55c24 0 40 29 44 58c20 1 38 -2 51 -9c-6 -57 -41 -112 -99 -112c-57 0 -89 55 -121 55c-25 0 -40 -37 -45 -60z" />
    <glyph glyph-name="OE" unicode="&#x152;" horiz-adv-x="1025" 
d="M948 0h-372c-104 0 -171 -10 -238 -10c-179 0 -268 127 -268 290c0 228 141 451 387 451c70 0 115 -11 213 -11h356l-23 -160c-16 -3 -33 -3 -48 0l-15 97h-246l-45 -247h182l32 64c15 3 27 2 38 0l-32 -210c-13 -3 -25 -3 -38 0l-12 83h-181l-52 -284h289l49 101
c16 3 32 3 48 0zM480 67l109 593c-35 9 -72 14 -107 14c-215 0 -303 -205 -303 -395c0 -130 58 -232 194 -232c35 0 72 7 107 20z" />
    <glyph glyph-name="oe" unicode="&#x153;" horiz-adv-x="904" 
d="M542 287l1 -4l166 54c52 17 78 30 78 74c0 45 -27 70 -68 70c-99 0 -157 -97 -177 -194zM261 50c133 0 180 159 180 270c0 69 -22 159 -108 159c-130 0 -176 -165 -176 -276c0 -67 22 -153 104 -153zM339 540c78 0 149 -37 175 -110h4c53 66 128 110 214 110
c95 0 150 -64 150 -145c0 -26 -5 -51 -15 -77l-335 -87c-1 -11 -1 -21 -1 -31c0 -94 52 -136 125 -136c58 0 126 27 167 61c12 -11 21 -23 27 -38c-56 -61 -139 -97 -222 -97c-68 0 -137 31 -168 93h-4c-51 -61 -121 -93 -204 -93c-139 0 -199 97 -199 220
c0 171 105 330 286 330z" />
    <glyph glyph-name="endash" unicode="&#x2013;" horiz-adv-x="555" 
d="M503 258h-434c0 22 2 44 11 66h434c0 -22 -3 -45 -11 -66z" />
    <glyph glyph-name="emdash" unicode="&#x2014;" horiz-adv-x="1000" 
d="M948 258h-879c0 22 2 44 11 66h879c0 -22 -3 -44 -11 -66z" />
    <glyph glyph-name="quotedblleft" unicode="&#x201c;" horiz-adv-x="445" 
d="M308 734c-52 -54 -78 -126 -80 -228c-12 -2 -29 -4 -48 -4s-37 2 -50 4c5 129 55 208 148 257c12 -5 24 -16 30 -29zM494 734c-52 -54 -78 -126 -80 -228c-12 -2 -29 -4 -48 -4s-37 2 -50 4c5 129 55 208 148 257c12 -5 24 -16 30 -29z" />
    <glyph glyph-name="quotedblright" unicode="&#x201d;" horiz-adv-x="449" 
d="M96 528c52 54 78 126 80 228c12 2 29 4 48 4s37 -2 50 -4c-5 -129 -55 -208 -148 -257c-12 5 -24 16 -30 29zM282 528c52 54 78 126 80 228c12 2 29 4 48 4s37 -2 50 -4c-5 -129 -55 -208 -148 -257c-12 5 -24 16 -30 29z" />
    <glyph glyph-name="quoteleft" unicode="&#x2018;" horiz-adv-x="264" 
d="M313 734c-52 -54 -78 -126 -80 -228c-12 -2 -29 -4 -48 -4s-37 2 -50 4c5 129 55 208 148 257c12 -5 24 -16 30 -29z" />
    <glyph glyph-name="quoteright" unicode="&#x2019;" horiz-adv-x="264" 
d="M96 528c52 54 78 126 80 228c12 2 29 4 48 4s37 -2 50 -4c-5 -129 -55 -208 -148 -257c-12 5 -24 16 -30 29z" />
    <glyph glyph-name="ydieresis" unicode="&#xff;" horiz-adv-x="546" 
d="M240 -9l-125 447l-64 -36c-10 8 -19 19 -26 35l88 77c19 16 34 26 52 26c24 0 34 -19 43 -53l105 -383h4c74 129 122 293 122 343c0 23 -8 47 -18 70c13 13 24 21 45 28c29 -20 60 -59 60 -91c0 -116 -263 -654 -486 -654c-41 0 -70 19 -88 64c11 18 26 35 45 50
c22 -29 42 -41 69 -41c62 0 122 52 174 118zM192 721c16 3 38 5 59 5c12 0 26 -1 36 -2c1 -33 -5 -67 -20 -98c-16 -4 -34 -6 -52 -6c-13 0 -26 1 -38 3c-2 32 2 66 15 98zM386 721c16 3 38 5 59 5c12 0 26 -1 36 -2c1 -33 -5 -67 -20 -98c-16 -4 -34 -6 -52 -6
c-13 0 -26 1 -38 3c-2 32 2 66 15 98z" />
    <glyph glyph-name="Ydieresis" unicode="&#x178;" horiz-adv-x="668" 
d="M261 61l40 218l-145 383l-74 22c-1 12 0 24 4 36h281c2 -13 0 -25 -4 -36l-94 -25l114 -302h4l208 302l-83 25c-2 12 -1 24 3 36h233c2 -13 1 -25 -3 -36l-70 -20l-268 -386l-40 -217l88 -25c2 -12 0 -25 -4 -36h-282c-2 13 0 26 4 36zM306 888c17 3 38 5 59 5
c12 0 26 -1 36 -2c1 -33 -5 -67 -20 -98c-16 -4 -35 -6 -53 -6c-13 0 -26 1 -38 3c-1 32 3 66 16 98zM512 888c17 3 38 5 59 5c12 0 26 -1 36 -2c1 -33 -5 -67 -20 -98c-16 -4 -35 -6 -53 -6c-13 0 -26 1 -38 3c-1 32 3 66 16 98z" />
    <glyph glyph-name="fraction" unicode="&#x2044;" horiz-adv-x="179" 
d="M-190 0l541 730c18 -9 35 -21 48 -37l-541 -729c-18 8 -35 20 -48 36z" />
    <glyph glyph-name="Euro" unicode="&#x20ac;" horiz-adv-x="577" 
d="M89 267h-62c0 20 4 40 11 56h53c2 24 5 47 10 69h-53c0 21 4 41 11 57h57c50 148 164 261 327 261c53 0 105 -14 148 -42l-19 -140c-16 -3 -32 -3 -48 0l-16 111c-20 6 -39 9 -59 9c-118 0 -191 -89 -227 -199h244c1 -19 -2 -39 -10 -57h-248c-5 -23 -8 -46 -10 -69h247
c1 -18 -2 -38 -10 -56h-238c2 -114 59 -211 177 -211c24 0 49 5 72 14l53 115c15 3 31 3 48 0l-25 -139c-45 -34 -108 -56 -184 -56c-157 0 -245 109 -249 277z" />
    <glyph glyph-name="guilsinglleft" unicode="&#x2039;" horiz-adv-x="349" 
d="M52 276l229 211c18 -12 34 -26 45 -44l-162 -169l127 -182c-13 -18 -30 -31 -50 -41l-189 221v4z" />
    <glyph glyph-name="guilsinglright" unicode="&#x203a;" horiz-adv-x="349" 
d="M323 262l-229 -211c-18 11 -34 26 -45 44l162 169l-127 182c14 17 30 30 50 41l189 -221v-4z" />
    <glyph glyph-name="daggerdbl" unicode="&#x2021;" horiz-adv-x="512" 
d="M280 452l-193 -6c1 24 5 51 15 74l191 -6l33 206c12 2 25 3 38 3s25 -1 37 -3l-47 -206l193 6c-1 -25 -6 -50 -15 -74l-189 6l-50 -254l192 6c0 -25 -5 -50 -14 -74l-190 6l-34 -206c-13 -2 -25 -3 -38 -3c-12 0 -25 1 -37 3l47 206l-193 -6c1 24 5 51 14 74l190 -6z" />
    <glyph glyph-name="periodcentered" unicode="&#xb7;" horiz-adv-x="272" 
d="M110 352c20 4 43 6 65 6c14 0 28 -1 43 -3c0 -38 -5 -75 -22 -111c-18 -4 -39 -6 -60 -6c-15 0 -30 1 -43 3c-1 38 3 73 17 111z" />
    <glyph glyph-name="quotesinglbase" unicode="&#x201a;" horiz-adv-x="264" 
d="M-4 -115c52 54 78 126 80 228c12 2 29 4 48 4s37 -2 50 -4c-5 -129 -55 -208 -148 -257c-12 5 -24 16 -30 29z" />
    <glyph glyph-name="quotedblbase" unicode="&#x201e;" horiz-adv-x="449" 
d="M-4 -115c52 54 78 126 80 228c12 2 29 4 48 4s37 -2 50 -4c-5 -129 -55 -208 -148 -257c-12 5 -24 16 -30 29zM182 -115c52 54 78 126 80 228c12 2 29 4 48 4s37 -2 50 -4c-5 -129 -55 -208 -148 -257c-12 5 -24 16 -30 29z" />
    <glyph glyph-name="perthousand" unicode="&#x2030;" horiz-adv-x="1240" 
d="M168 0l528 730c19 -9 36 -22 47 -34l-526 -731c-19 8 -36 21 -49 35zM286 710c94 0 127 -67 127 -146c0 -119 -64 -264 -203 -264c-88 0 -126 75 -126 152c0 118 59 258 202 258zM276 668c-79 0 -102 -155 -102 -226c0 -29 6 -100 49 -100c76 0 101 161 101 235
c0 30 -6 91 -48 91zM709 400c94 0 127 -67 127 -146c0 -119 -64 -264 -203 -264c-88 0 -126 75 -126 152c0 118 59 258 202 258zM699 358c-79 0 -102 -155 -102 -226c0 -29 6 -100 49 -100c76 0 101 161 101 235c0 30 -6 91 -48 91zM1094 400c94 0 127 -67 127 -146
c0 -119 -64 -264 -203 -264c-88 0 -126 75 -126 152c0 118 59 258 202 258zM1084 358c-79 0 -102 -155 -102 -226c0 -29 6 -100 49 -100c76 0 101 161 101 235c0 30 -6 91 -48 91z" />
    <glyph glyph-name="Acircumflex" unicode="&#xc2;" horiz-adv-x="746" 
d="M520 61l-24 164h-265l-94 -165l87 -24c1 -13 -1 -25 -5 -36h-240c-1 12 0 24 5 36l79 22l371 644l79 28l14 -7l99 -664l74 -23c2 -13 0 -25 -4 -36h-273c-2 13 0 25 4 36zM442 584h-4l-170 -296h218zM329 812l164 113h10l130 -114c-8 -17 -18 -30 -32 -41l-110 75
l-137 -75c-11 10 -20 24 -25 42z" />
    <glyph glyph-name="Ecircumflex" unicode="&#xca;" horiz-adv-x="649" 
d="M103 61l110 598l-91 25c-2 12 0 25 4 36h524l-23 -160c-16 -3 -32 -3 -48 0l-15 97h-246l-45 -247h182l32 64c14 3 27 2 38 0l-32 -210c-13 -3 -25 -3 -38 0l-12 83h-181l-52 -284h289l49 101c15 4 32 4 48 0l-24 -164h-563c-2 12 -1 24 3 36zM269 812l164 113h10
l130 -114c-8 -17 -18 -30 -32 -41l-110 75l-137 -75c-11 10 -20 24 -25 42z" />
    <glyph glyph-name="Aacute" unicode="&#xc1;" horiz-adv-x="746" 
d="M520 61l-24 164h-265l-94 -165l87 -24c1 -13 -1 -25 -5 -36h-240c-1 12 0 24 5 36l79 22l371 644l79 28l14 -7l99 -664l74 -23c2 -13 0 -25 -4 -36h-273c-2 13 0 25 4 36zM442 584h-4l-170 -296h218zM397 815l186 110c17 -23 28 -47 35 -72l-199 -83
c-11 14 -18 29 -22 45z" />
    <glyph glyph-name="Edieresis" unicode="&#xcb;" horiz-adv-x="649" 
d="M103 61l110 598l-91 25c-2 12 0 25 4 36h524l-23 -160c-16 -3 -32 -3 -48 0l-15 97h-246l-45 -247h182l32 64c14 3 27 2 38 0l-32 -210c-13 -3 -25 -3 -38 0l-12 83h-181l-52 -284h289l49 101c15 4 32 4 48 0l-24 -164h-563c-2 12 -1 24 3 36zM284 888c17 3 38 5 59 5
c12 0 26 -1 36 -2c1 -33 -5 -67 -20 -98c-16 -4 -35 -6 -53 -6c-13 0 -26 1 -38 3c-1 32 3 66 16 98zM490 888c17 3 38 5 59 5c12 0 26 -1 36 -2c1 -33 -5 -67 -20 -98c-16 -4 -35 -6 -53 -6c-13 0 -26 1 -38 3c-1 32 3 66 16 98z" />
    <glyph glyph-name="Egrave" unicode="&#xc8;" horiz-adv-x="649" 
d="M103 61l110 598l-91 25c-2 12 0 25 4 36h524l-23 -160c-16 -3 -32 -3 -48 0l-15 97h-246l-45 -247h182l32 64c14 3 27 2 38 0l-32 -210c-13 -3 -25 -3 -38 0l-12 83h-181l-52 -284h289l49 101c15 4 32 4 48 0l-24 -164h-563c-2 12 -1 24 3 36zM315 925l186 -110
c-4 -16 -11 -31 -22 -45l-199 83c7 25 19 49 35 72z" />
    <glyph glyph-name="Iacute" unicode="&#xcd;" horiz-adv-x="368" 
d="M213 659l-88 25c-2 13 0 25 4 36h282c2 -13 0 -25 -4 -36l-88 -25l-109 -598l88 -25c2 -12 1 -24 -3 -36h-282c-2 12 -1 24 3 36l88 25zM198 815l186 110c17 -23 28 -47 35 -72l-199 -83c-11 14 -18 29 -22 45z" />
    <glyph glyph-name="Icircumflex" unicode="&#xce;" horiz-adv-x="368" 
d="M213 659l-88 25c-2 13 0 25 4 36h282c2 -13 0 -25 -4 -36l-88 -25l-109 -598l88 -25c2 -12 1 -24 -3 -36h-282c-2 12 -1 24 3 36l88 25zM129 812l164 113h10l130 -114c-8 -17 -18 -30 -32 -41l-110 75l-137 -75c-11 10 -20 24 -25 42z" />
    <glyph glyph-name="Idieresis" unicode="&#xcf;" horiz-adv-x="368" 
d="M213 659l-88 25c-2 13 0 25 4 36h282c2 -13 0 -25 -4 -36l-88 -25l-109 -598l88 -25c2 -12 1 -24 -3 -36h-282c-2 12 -1 24 3 36l88 25zM149 888c17 3 38 5 59 5c12 0 26 -1 36 -2c1 -33 -5 -67 -20 -98c-16 -4 -35 -6 -53 -6c-13 0 -26 1 -38 3c-1 32 3 66 16 98z
M355 888c17 3 38 5 59 5c12 0 26 -1 36 -2c1 -33 -5 -67 -20 -98c-16 -4 -35 -6 -53 -6c-13 0 -26 1 -38 3c-1 32 3 66 16 98z" />
    <glyph glyph-name="Igrave" unicode="&#xcc;" horiz-adv-x="368" 
d="M213 659l-88 25c-2 13 0 25 4 36h282c2 -13 0 -25 -4 -36l-88 -25l-109 -598l88 -25c2 -12 1 -24 -3 -36h-282c-2 12 -1 24 3 36l88 25zM175 925l186 -110c-4 -16 -11 -31 -22 -45l-199 83c7 25 19 49 35 72z" />
    <glyph glyph-name="Oacute" unicode="&#xd3;" horiz-adv-x="724" 
d="M442 667c-193 0 -263 -229 -263 -394c0 -103 36 -221 162 -221c192 0 258 238 258 400c0 100 -33 215 -157 215zM449 730c180 0 259 -119 259 -278c0 -227 -120 -462 -380 -462c-179 0 -258 128 -258 285c0 225 125 455 379 455zM374 815l186 110c17 -23 28 -47 35 -72
l-199 -83c-11 14 -18 29 -22 45z" />
    <glyph glyph-name="Ocircumflex" unicode="&#xd4;" horiz-adv-x="724" 
d="M442 667c-193 0 -263 -229 -263 -394c0 -103 36 -221 162 -221c192 0 258 238 258 400c0 100 -33 215 -157 215zM449 730c180 0 259 -119 259 -278c0 -227 -120 -462 -380 -462c-179 0 -258 128 -258 285c0 225 125 455 379 455zM298 812l164 113h10l130 -114
c-8 -17 -18 -30 -32 -41l-110 75l-137 -75c-11 10 -20 24 -25 42z" />
    <glyph glyph-name="Ograve" unicode="&#xd2;" horiz-adv-x="724" 
d="M442 667c-193 0 -263 -229 -263 -394c0 -103 36 -221 162 -221c192 0 258 238 258 400c0 100 -33 215 -157 215zM449 730c180 0 259 -119 259 -278c0 -227 -120 -462 -380 -462c-179 0 -258 128 -258 285c0 225 125 455 379 455zM354 925l186 -110
c-4 -16 -11 -31 -22 -45l-199 83c7 25 19 49 35 72z" />
    <glyph glyph-name="Uacute" unicode="&#xda;" horiz-adv-x="734" 
d="M197 659l-88 25c-2 13 0 25 4 36h283c2 -13 0 -25 -4 -36l-88 -25l-59 -319c-7 -38 -12 -77 -12 -113c0 -84 27 -160 132 -160c136 0 183 83 209 223l68 370l-85 24c-2 12 -1 24 3 36h235c2 -13 0 -25 -4 -36l-81 -23l-68 -364c-37 -199 -111 -307 -298 -307
c-169 0 -217 103 -217 228c0 41 5 84 13 127zM393 815l186 110c17 -23 28 -47 35 -72l-199 -83c-11 14 -18 29 -22 45z" />
    <glyph glyph-name="Ucircumflex" unicode="&#xdb;" horiz-adv-x="734" 
d="M197 659l-88 25c-2 13 0 25 4 36h283c2 -13 0 -25 -4 -36l-88 -25l-59 -319c-7 -38 -12 -77 -12 -113c0 -84 27 -160 132 -160c136 0 183 83 209 223l68 370l-85 24c-2 12 -1 24 3 36h235c2 -13 0 -25 -4 -36l-81 -23l-68 -364c-37 -199 -111 -307 -298 -307
c-169 0 -217 103 -217 228c0 41 5 84 13 127zM326 812l164 113h10l130 -114c-8 -17 -18 -30 -32 -41l-110 75l-137 -75c-11 10 -20 24 -25 42z" />
    <glyph glyph-name="Ugrave" unicode="&#xd9;" horiz-adv-x="734" 
d="M197 659l-88 25c-2 13 0 25 4 36h283c2 -13 0 -25 -4 -36l-88 -25l-59 -319c-7 -38 -12 -77 -12 -113c0 -84 27 -160 132 -160c136 0 183 83 209 223l68 370l-85 24c-2 12 -1 24 3 36h235c2 -13 0 -25 -4 -36l-81 -23l-68 -364c-37 -199 -111 -307 -298 -307
c-169 0 -217 103 -217 228c0 41 5 84 13 127zM370 925l186 -110c-4 -16 -11 -31 -22 -45l-199 83c7 25 19 49 35 72z" />
    <glyph glyph-name="dotlessi" unicode="&#x131;" horiz-adv-x="340" 
d="M271 485l-79 -427l83 10c5 -14 7 -30 6 -43l-140 -33c-47 -11 -60 16 -53 53l79 427h-74c-5 15 -7 29 -5 44l132 23c50 9 57 -20 51 -54z" />
    <glyph glyph-name="circumflex" unicode="&#x2c6;" horiz-adv-x="400" 
d="M141 620l154 154h9l104 -158c-8 -14 -23 -26 -41 -33l-80 95l-112 -95c-15 10 -26 22 -34 37z" />
    <glyph glyph-name="macron" unicode="&#xaf;" horiz-adv-x="400" 
d="M409 620h-282c0 23 5 47 13 67h281c0 -23 -4 -45 -12 -67z" />
    <glyph glyph-name="breve" unicode="&#x2d8;" horiz-adv-x="400" 
d="M155 740c18 3 37 3 55 0c0 -53 28 -79 73 -79c50 0 87 31 97 79c16 3 37 3 54 0c-13 -95 -71 -145 -161 -145c-71 0 -121 41 -121 114c0 10 1 20 3 31z" />
    <glyph glyph-name="dotaccent" unicode="&#x2d9;" horiz-adv-x="400" 
d="M236 725c17 4 39 6 61 6c14 0 27 -1 39 -3c1 -35 -5 -70 -20 -104c-17 -4 -37 -6 -56 -6c-14 0 -28 1 -40 3c-2 35 2 70 16 104z" />
    <glyph glyph-name="ring" unicode="&#x2da;" horiz-adv-x="400" 
d="M299 774c51 0 91 -36 91 -86c0 -62 -49 -105 -112 -105c-53 0 -91 37 -91 87c0 60 49 104 112 104zM295 735c-35 0 -54 -31 -54 -62c0 -26 14 -50 43 -50c34 0 52 31 52 61c0 24 -13 51 -41 51z" />
    <glyph glyph-name="cedilla" unicode="&#xb8;" horiz-adv-x="400" 
d="M179 6h60c2 -16 3 -32 3 -48c0 -88 -31 -164 -137 -164c-27 0 -52 5 -76 21c4 18 11 35 22 50c16 -6 30 -9 44 -9c69 0 86 62 86 120c0 10 -1 20 -2 30z" />
    <glyph glyph-name="hungarumlaut" unicode="&#x2dd;" horiz-adv-x="400" 
d="M92 617l129 157c25 -15 44 -33 56 -54l-148 -137c-15 7 -29 20 -37 34zM273 617l129 157c25 -15 44 -33 56 -54l-148 -137c-15 7 -29 20 -37 34z" />
    <glyph glyph-name="ogonek" unicode="&#x2db;" horiz-adv-x="400" 
d="M141 4h60c-12 -23 -24 -60 -24 -91s15 -56 50 -56c13 0 29 3 46 10c10 -13 15 -29 18 -44c-26 -18 -62 -28 -95 -28c-56 0 -91 34 -91 91c0 41 17 86 36 118z" />
    <glyph glyph-name="caron" unicode="&#x2c7;" horiz-adv-x="400" 
d="M422 737l-154 -154h-9l-104 158c10 14 24 26 41 33l79 -95l113 95c16 -10 28 -24 34 -37z" />
    <glyph glyph-name="Lslash" unicode="&#x141;" horiz-adv-x="590" 
d="M13 36l90 25l42 226l-104 -68l-4 2l11 54l107 71l58 313l-88 25c-1 14 1 26 4 36h282c2 -13 0 -26 -4 -36l-88 -25l-43 -234l152 101l4 -2l-10 -54l-156 -102l-55 -305h245l51 111c17 4 33 4 50 0l-25 -174h-522c-2 12 -1 24 3 36z" />
    <glyph glyph-name="lslash" unicode="&#x142;" horiz-adv-x="326" 
d="M240 404l-63 -346l93 12c5 -13 7 -29 6 -43l-150 -35c-47 -11 -60 16 -53 53l52 283l-82 -54l-4 2l10 53l86 57l57 306h-74c-5 14 -7 29 -5 44l132 23c50 9 57 -20 51 -54l-45 -242l101 66l4 -2l-11 -53z" />
    <glyph glyph-name="Scaron" unicode="&#x160;" horiz-adv-x="603" 
d="M36 65l24 148c16 3 32 3 48 0l21 -128c30 -20 78 -31 126 -31c93 0 194 39 194 130c0 70 -69 100 -144 133c-89 39 -185 82 -185 196c0 146 126 217 273 217c78 0 153 -20 209 -55l-21 -143c-16 -3 -33 -3 -48 0l-19 115c-31 12 -72 20 -114 20c-83 0 -166 -31 -166 -122
c0 -72 58 -101 125 -131c92 -42 202 -77 202 -196c0 -155 -144 -228 -290 -228c-89 0 -174 26 -235 75zM552 883l-164 -113h-10l-130 114c7 15 17 29 31 41l111 -75l138 75c11 -13 19 -27 24 -42z" />
    <glyph glyph-name="scaron" unicode="&#x161;" horiz-adv-x="499" 
d="M94 166l13 -90c24 -16 66 -26 108 -26c64 0 130 24 130 86c0 54 -80 76 -123 97c-62 29 -122 67 -122 148c0 116 106 159 211 159c62 0 124 -15 168 -40l-16 -120c-15 -3 -32 -3 -46 0l-14 84c-20 9 -52 15 -84 15c-60 0 -121 -21 -121 -78c0 -104 248 -92 248 -242
c0 -124 -127 -169 -234 -169c-67 0 -135 17 -182 51l17 125c13 2 31 3 47 0zM463 737l-154 -154h-9l-104 158c10 14 24 26 41 33l79 -95l113 95c16 -10 28 -24 34 -37z" />
    <glyph glyph-name="Zcaron" unicode="&#x17d;" horiz-adv-x="686" 
d="M601 0h-577l12 64l501 589l-1 4h-287l-48 -106c-15 -3 -32 -3 -48 0l22 169h515l-12 -64l-503 -589l1 -4h349l51 111c17 3 33 3 50 0zM590 883l-164 -113h-10l-130 114c7 15 17 29 31 41l111 -75l138 75c11 -13 19 -27 24 -42z" />
    <glyph glyph-name="zcaron" unicode="&#x17e;" horiz-adv-x="533" 
d="M321 0h-298l11 67l358 366l-1 4h-219l-32 -68c-15 -4 -31 -4 -46 0l21 161h404l-11 -68l-360 -366l1 -4h173c94 0 110 17 136 71c14 -2 27 -6 39 -13c-27 -127 -77 -150 -176 -150zM471 737l-154 -154h-9l-104 158c10 14 24 26 41 33l79 -95l113 95c16 -10 28 -24 34 -37
z" />
    <glyph glyph-name="brokenbar" unicode="&#xa6;" horiz-adv-x="298" 
d="M207 325h-66l-5 5v385l5 5h66l5 -5v-385zM141 215h66l5 -5v-385l-5 -5h-66l-5 5v385z" />
    <glyph glyph-name="Eth" unicode="&#xd0;" horiz-adv-x="739" 
d="M438 350h-168l-54 -288h50c239 0 346 152 346 360c0 152 -72 235 -239 235h-43l-49 -250h167c1 -17 -1 -37 -10 -57zM84 407h91l48 252l-91 25c-2 13 0 26 4 36h237c218 0 350 -83 350 -287c0 -279 -164 -433 -469 -433h-239c-2 14 0 26 4 36l91 25l55 289h-91
c0 17 2 37 10 57z" />
    <glyph glyph-name="eth" unicode="&#xf0;" horiz-adv-x="578" 
d="M327 454c-127 0 -172 -146 -172 -257c0 -67 20 -147 102 -147c128 0 174 143 174 260c0 64 -24 144 -104 144zM226 601l105 49v4c-38 29 -81 43 -133 49c0 20 5 41 13 57c81 -8 145 -36 193 -76l122 58c11 -14 17 -28 20 -44l-106 -50c69 -81 96 -195 96 -301
c0 -185 -71 -357 -289 -357c-134 0 -196 94 -196 207c0 171 104 318 273 318c38 0 76 -9 104 -33l4 1c-14 56 -34 99 -62 133l-124 -59c-11 13 -18 29 -20 44z" />
    <glyph glyph-name="Yacute" unicode="&#xdd;" horiz-adv-x="668" 
d="M261 61l40 218l-145 383l-74 22c-1 12 0 24 4 36h281c2 -13 0 -25 -4 -36l-94 -25l114 -302h4l208 302l-83 25c-2 12 -1 24 3 36h233c2 -13 1 -25 -3 -36l-70 -20l-268 -386l-40 -217l88 -25c2 -12 0 -25 -4 -36h-282c-2 13 0 26 4 36zM358 815l186 110
c17 -23 28 -47 35 -72l-199 -83c-11 14 -18 29 -22 45z" />
    <glyph glyph-name="yacute" unicode="&#xfd;" horiz-adv-x="546" 
d="M240 -9l-125 447l-64 -36c-10 8 -19 19 -26 35l88 77c19 16 34 26 52 26c24 0 34 -19 43 -53l105 -383h4c74 129 122 293 122 343c0 23 -8 47 -18 70c13 13 24 21 45 28c29 -20 60 -59 60 -91c0 -116 -263 -654 -486 -654c-41 0 -70 19 -88 64c11 18 26 35 45 50
c22 -29 42 -41 69 -41c62 0 122 52 174 118zM273 618l138 156c22 -15 42 -35 54 -57l-157 -134c-14 7 -27 19 -35 35z" />
    <glyph glyph-name="Thorn" unicode="&#xde;" horiz-adv-x="593" 
d="M104 61l109 598l-88 25c-2 13 0 25 4 36h282c2 -13 0 -25 -4 -36l-88 -25l-16 -87h27c142 0 247 -42 247 -178c0 -201 -167 -244 -351 -244l-16 -89l88 -25c2 -12 1 -24 -3 -36h-282c-2 12 -1 24 3 36zM468 387c0 103 -73 121 -177 122l-54 -298c133 0 231 35 231 176z
" />
    <glyph glyph-name="thorn" unicode="&#xfe;" horiz-adv-x="595" 
d="M189 122l-11 -55c23 -8 46 -12 72 -12c148 0 207 169 207 304c0 40 -6 101 -56 101c-91 0 -184 -198 -212 -338zM169 20l-27 -152l83 10c5 -14 7 -30 6 -43l-140 -33c-47 -11 -60 16 -53 53l154 837h-74c-5 15 -6 29 -5 44l132 23c50 9 57 -20 51 -54l-61 -332l4 -1
c37 80 107 166 200 166c97 0 122 -101 122 -178c0 -184 -105 -360 -290 -360c-34 0 -67 5 -102 20z" />
    <glyph glyph-name="minus" unicode="&#x2212;" horiz-adv-x="653" 
d="M596 238h-539c-2 11 -3 22 -3 34c0 11 1 23 3 35h539c2 -12 3 -24 3 -35c0 -12 -1 -24 -3 -34z" />
    <glyph glyph-name="multiply" unicode="&#xd7;" horiz-adv-x="653" 
d="M602 490l-225 -225l225 -225c-14 -19 -32 -37 -51 -50l-225 225l-225 -225c-19 12 -37 31 -50 50l225 225l-225 225c13 19 31 37 50 51l225 -225l225 225c20 -14 38 -32 51 -51z" />
    <glyph glyph-name="one.superior" unicode="&#xb9;" 
d="M316 837l-59 -322l74 -15l-4 -30h-233l4 30l75 15l54 293h-86l-3 32l139 32c30 7 44 -6 39 -35z" />
    <glyph glyph-name="two.superior" unicode="&#xb2;" 
d="M166 545h180l-10 -75h-274l6 45l127 106c45 38 85 73 85 141c0 40 -23 69 -61 69c-12 0 -23 -2 -35 -8l-32 -84h-28v97c30 24 72 37 114 37c69 0 128 -35 128 -108c0 -85 -59 -123 -126 -167l-74 -49v-4z" />
    <glyph glyph-name="three.superior" unicode="&#xb3;" 
d="M126 757v87c34 19 76 29 116 29c61 0 129 -22 129 -90c0 -55 -46 -95 -102 -100v-4c54 -5 89 -39 89 -87c0 -88 -86 -129 -167 -129c-46 0 -90 13 -122 38l11 90h28l17 -73c16 -8 36 -12 54 -12c49 0 91 30 91 86c0 50 -37 65 -83 65h-31l5 41h26c53 0 97 20 97 76
c0 40 -29 58 -66 58c-15 0 -29 -3 -42 -8l-22 -67h-28z" />
    <glyph glyph-name="onehalf" unicode="&#xbd;" horiz-adv-x="864" 
d="M144 0l541 730c18 -9 35 -21 48 -37l-541 -729c-18 8 -35 20 -48 36zM304 673l-59 -322l74 -15l-4 -30h-233l4 30l75 15l54 293h-86l-3 32l139 32c30 7 44 -6 39 -35zM605 75h180l-10 -75h-274l6 45l127 106c45 38 85 73 85 141c0 40 -23 69 -61 69c-12 0 -23 -2 -35 -8
l-32 -84h-28v97c30 24 72 37 114 37c69 0 128 -35 128 -108c0 -85 -59 -123 -126 -167l-74 -49v-4z" />
    <glyph glyph-name="onequarter" unicode="&#xbc;" horiz-adv-x="864" 
d="M306 673l-59 -322l74 -15l-4 -30h-233l4 30l75 15l54 293h-86l-3 32l139 32c30 7 44 -6 39 -35zM145 0l541 730c18 -9 35 -21 48 -37l-541 -729c-18 8 -35 20 -48 36zM616 45l11 66h-179l3 23l252 269h62l-47 -252h56l-7 -40h-56l-12 -66l55 -15l-4 -30h-213l4 30z
M528 151h107l26 141l-4 1l-130 -139z" />
    <glyph glyph-name="threequarters" unicode="&#xbe;" horiz-adv-x="864" 
d="M133 594v87c34 19 76 29 116 29c61 0 129 -22 129 -90c0 -55 -46 -95 -102 -100v-4c54 -5 89 -39 89 -87c0 -88 -86 -129 -167 -129c-46 0 -90 13 -122 38l11 90h28l17 -73c16 -8 36 -12 54 -12c49 0 91 30 91 86c0 50 -37 65 -83 65h-31l5 41h26c53 0 97 20 97 76
c0 40 -29 58 -66 58c-15 0 -29 -3 -42 -8l-22 -67h-28zM169 0l541 730c18 -9 35 -21 48 -37l-541 -729c-18 8 -35 20 -48 36zM640 45l11 66h-179l3 23l252 269h62l-47 -252h56l-7 -40h-56l-12 -66l55 -15l-4 -30h-213l4 30zM552 151h107l26 141l-4 1l-130 -139z" />
    <glyph glyph-name="Gbreve" unicode="&#x11e;" horiz-adv-x="715" 
d="M495 83l39 207l-109 25c-2 13 0 24 4 36h268c1 -12 0 -24 -5 -36l-53 -16l-59 -309h-28c-34 0 -47 14 -53 28c-41 -19 -91 -28 -141 -28c-171 0 -288 106 -288 297c0 260 178 443 421 443c68 0 135 -15 187 -46l-22 -145c-16 -3 -32 -3 -48 0l-19 114
c-28 10 -60 14 -93 14c-204 0 -317 -174 -317 -381c0 -137 83 -227 214 -227c34 0 72 8 102 24zM326 914c9 2 19 3 29 3c9 0 19 -1 28 -3c0 -32 19 -73 76 -73c50 0 83 39 90 73c10 2 20 3 30 3s20 -1 31 -3c-11 -74 -66 -138 -157 -138c-92 0 -134 63 -127 138z" />
    <glyph glyph-name="gbreve" unicode="&#x11f;" horiz-adv-x="593" 
d="M429 428l9 46c-20 7 -39 10 -59 10c-153 0 -219 -171 -219 -305c0 -41 7 -99 57 -99c101 0 192 245 212 348zM382 169l-4 1c-34 -81 -108 -169 -201 -169c-96 0 -120 97 -120 176c0 178 114 363 300 363c35 0 72 -7 99 -25c13 19 29 25 60 25h36l-86 -468
c-35 -189 -137 -273 -297 -273c-61 0 -122 14 -164 37l16 112c15 3 31 3 45 0l16 -77c25 -9 55 -14 85 -14c118 0 171 69 198 219zM234 740c18 3 37 3 55 0c0 -53 28 -79 73 -79c50 0 87 31 97 79c16 3 37 3 54 0c-13 -95 -71 -145 -161 -145c-71 0 -121 41 -121 114
c0 10 1 20 3 31z" />
    <glyph glyph-name="Idotaccent" unicode="&#x130;" horiz-adv-x="368" 
d="M213 659l-88 25c-2 13 0 25 4 36h282c2 -13 0 -25 -4 -36l-88 -25l-109 -598l88 -25c2 -12 1 -24 -3 -36h-282c-2 12 -1 24 3 36l88 25zM248 885c17 4 39 6 61 6c14 0 27 -1 39 -3c1 -35 -5 -70 -20 -104c-17 -4 -37 -6 -56 -6c-14 0 -28 1 -40 3c-2 35 2 70 16 104z" />
    <glyph glyph-name="Scedilla" unicode="&#x15e;" horiz-adv-x="603" 
d="M36 65l24 148c16 3 32 3 48 0l21 -128c30 -20 78 -31 126 -31c93 0 194 39 194 130c0 70 -69 100 -144 133c-89 39 -185 82 -185 196c0 146 126 217 273 217c78 0 153 -20 209 -55l-21 -143c-16 -3 -33 -3 -48 0l-19 115c-31 12 -72 20 -114 20c-83 0 -166 -31 -166 -122
c0 -72 58 -101 125 -131c92 -42 202 -77 202 -196c0 -129 -100 -201 -218 -221c2 -17 2 -28 2 -39c0 -88 -31 -164 -137 -164c-27 0 -52 5 -76 21c4 18 11 35 22 50c16 -6 30 -9 44 -9c74 0 89 73 85 134h-12c-89 0 -174 26 -235 75z" />
    <glyph glyph-name="scedilla" unicode="&#x15f;" horiz-adv-x="499" 
d="M94 166l13 -90c24 -16 66 -26 108 -26c64 0 130 24 130 86c0 54 -80 76 -123 97c-62 29 -122 67 -122 148c0 116 106 159 211 159c62 0 124 -15 168 -40l-16 -120c-15 -3 -32 -3 -46 0l-14 84c-20 9 -52 15 -84 15c-60 0 -121 -21 -121 -78c0 -104 248 -92 248 -242
c0 -98 -80 -147 -166 -163c1 -12 2 -25 2 -38c0 -88 -31 -164 -137 -164c-27 0 -52 5 -76 21c4 18 11 35 22 50c16 -6 30 -9 44 -9c74 0 89 73 85 134h-8c-67 0 -135 17 -182 51l17 125c13 2 31 3 47 0z" />
    <glyph glyph-name="Cacute" unicode="&#x106;" horiz-adv-x="647" 
d="M502 81l60 118c16 3 32 3 48 0l-28 -143c-59 -41 -144 -66 -226 -66c-180 0 -286 110 -286 297c0 243 161 443 414 443c64 0 127 -15 172 -46l-21 -145c-16 -3 -32 -3 -48 0l-19 114c-26 10 -54 14 -84 14c-201 0 -305 -187 -305 -381c0 -137 75 -227 211 -227
c38 0 78 8 112 22zM377 815l186 110c17 -23 28 -47 35 -72l-199 -83c-11 14 -18 29 -22 45z" />
    <glyph glyph-name="cacute" unicode="&#x107;" horiz-adv-x="501" 
d="M465 87c-56 -64 -136 -97 -216 -97c-107 0 -196 62 -196 199c0 181 127 351 311 351c42 0 91 -10 130 -35l-17 -122c-15 -3 -31 -3 -46 0l-13 87c-17 6 -35 9 -53 9c-141 0 -208 -157 -208 -279c0 -92 50 -135 121 -135c56 0 119 25 160 60c12 -11 21 -23 27 -38z
M277 618l138 156c22 -15 42 -35 54 -57l-157 -134c-14 7 -27 19 -35 35z" />
    <glyph glyph-name="Ccaron" unicode="&#x10c;" horiz-adv-x="647" 
d="M502 81l60 118c16 3 32 3 48 0l-28 -143c-59 -41 -144 -66 -226 -66c-180 0 -286 110 -286 297c0 243 161 443 414 443c64 0 127 -15 172 -46l-21 -145c-16 -3 -32 -3 -48 0l-19 114c-26 10 -54 14 -84 14c-201 0 -305 -187 -305 -381c0 -137 75 -227 211 -227
c38 0 78 8 112 22zM607 883l-164 -113h-10l-130 114c7 15 17 29 31 41l111 -75l138 75c11 -13 19 -27 24 -42z" />
    <glyph glyph-name="ccaron" unicode="&#x10d;" horiz-adv-x="501" 
d="M465 87c-56 -64 -136 -97 -216 -97c-107 0 -196 62 -196 199c0 181 127 351 311 351c42 0 91 -10 130 -35l-17 -122c-15 -3 -31 -3 -46 0l-13 87c-17 6 -35 9 -53 9c-141 0 -208 -157 -208 -279c0 -92 50 -135 121 -135c56 0 119 25 160 60c12 -11 21 -23 27 -38z
M488 737l-154 -154h-9l-104 158c10 14 24 26 41 33l79 -95l113 95c16 -10 28 -24 34 -37z" />
    <glyph glyph-name="dcroat" unicode="&#x111;" horiz-adv-x="612" 
d="M427 418l6 34c-18 6 -38 10 -57 10c-155 0 -219 -158 -219 -296c0 -39 7 -98 56 -98c98 0 197 255 214 350zM582 705l-14 -75h80c1 -16 -2 -34 -7 -48h-82l-97 -524l94 12c5 -13 7 -28 5 -43l-149 -35c-47 -11 -60 16 -53 53l22 123h-4c-34 -80 -110 -178 -203 -178
c-95 0 -120 98 -120 175c0 180 110 352 299 352c31 0 62 -6 89 -18l15 83h-125c-1 16 1 32 7 48h127l12 62h-74c-5 15 -6 29 -5 44l132 23c50 9 57 -20 51 -54z" />
    <glyph glyph-name="Abreve" unicode="&#x102;" horiz-adv-x="746" 
d="M520 61l-24 164h-265l-94 -165l87 -24c1 -13 -1 -25 -5 -36h-240c-1 12 0 24 5 36l79 22l371 644l79 28l14 -7l99 -664l74 -23c2 -13 0 -25 -4 -36h-273c-2 13 0 25 4 36zM442 584h-4l-170 -296h218zM352 914c9 2 19 3 29 3c9 0 19 -1 28 -3c0 -32 19 -73 76 -73
c50 0 83 39 90 73c10 2 20 3 30 3s20 -1 31 -3c-11 -74 -66 -138 -157 -138c-92 0 -134 63 -127 138z" />
    <glyph glyph-name="abreve" unicode="&#x103;" horiz-adv-x="604" 
d="M422 427l8 47c-17 7 -35 10 -54 10c-149 0 -219 -188 -219 -324c0 -45 9 -92 52 -92c96 0 195 254 213 359zM505 540h40l-89 -482l83 10c5 -14 7 -30 6 -44l-140 -32c-47 -11 -60 16 -53 53l23 123h-4c-36 -78 -107 -178 -205 -178c-87 0 -113 89 -113 167
c0 177 112 383 297 383c34 0 70 -8 98 -25c13 20 33 25 57 25zM248 740c18 3 37 3 55 0c0 -53 28 -79 73 -79c50 0 87 31 97 79c16 3 37 3 54 0c-13 -95 -71 -145 -161 -145c-71 0 -121 41 -121 114c0 10 1 20 3 31z" />
    <glyph glyph-name="Aogonek" unicode="&#x104;" horiz-adv-x="746" 
d="M520 61l-24 164h-265l-94 -165l87 -24c1 -13 -1 -25 -5 -36h-240c-1 12 0 24 5 36l79 22l371 644l79 28l14 -7l99 -664l74 -23c2 -13 0 -25 -4 -36h-154c-10 -20 -21 -54 -21 -84c0 -32 12 -59 50 -59c13 0 29 3 46 10c10 -13 15 -28 18 -44c-26 -17 -62 -28 -95 -28
c-64 0 -92 41 -92 95c0 60 33 126 72 171zM442 584h-4l-170 -296h218z" />
    <glyph glyph-name="aogonek" unicode="&#x105;" horiz-adv-x="604" 
d="M505 540h40l-89 -482l83 10c5 -13 7 -30 6 -44l-127 -29c-10 -23 -19 -55 -19 -82c0 -31 15 -56 50 -56c13 0 29 3 46 10c10 -13 15 -29 18 -44c-26 -18 -62 -28 -95 -28c-56 0 -91 34 -91 91c0 39 15 81 33 113c-10 9 -12 26 -8 46l23 123h-4
c-36 -78 -107 -178 -205 -178c-87 0 -113 89 -113 167c0 177 112 383 297 383c34 0 70 -8 98 -25c13 20 33 25 57 25zM422 427l8 47c-17 7 -35 10 -54 10c-149 0 -219 -188 -219 -324c0 -45 9 -92 52 -92c96 0 195 254 213 359z" />
    <glyph glyph-name="Dcaron" unicode="&#x10e;" horiz-adv-x="731" 
d="M365 657h-44l-114 -595h51c239 0 346 152 346 360c0 152 -73 235 -239 235zM102 61l113 598l-91 25c-2 13 0 25 4 36h237c218 0 349 -83 349 -287c0 -279 -163 -433 -468 -433h-239c-2 14 0 26 4 36zM615 883l-164 -113h-10l-130 114c7 15 17 29 31 41l111 -75l138 75
c11 -13 19 -27 24 -42z" />
    <glyph glyph-name="dcaron" unicode="&#x10f;" horiz-adv-x="612" 
d="M429 428l8 47c-18 6 -38 9 -57 9c-157 0 -223 -180 -223 -318c0 -39 7 -98 56 -98c98 0 198 255 216 360zM582 705l-120 -647l94 12c5 -13 6 -29 5 -43l-149 -35c-47 -11 -60 16 -53 53l22 123h-4c-34 -80 -110 -178 -203 -178c-95 0 -120 98 -120 175
c0 180 111 375 304 375c31 0 61 -6 88 -19l32 171h-74c-5 15 -6 29 -5 44l132 23c50 9 57 -20 51 -54zM624 609c38 35 51 74 51 148c12 2 26 3 41 3c14 0 29 -1 42 -3c0 -93 -39 -145 -106 -177c-13 6 -22 16 -28 29z" />
    <glyph glyph-name="Dcroat" unicode="&#x110;" horiz-adv-x="739" 
d="M438 350h-168l-54 -288h50c239 0 346 152 346 360c0 152 -72 235 -239 235h-43l-49 -250h167c1 -17 -1 -37 -10 -57zM84 407h91l48 252l-91 25c-2 13 0 26 4 36h237c218 0 350 -83 350 -287c0 -279 -164 -433 -469 -433h-239c-2 14 0 26 4 36l91 25l55 289h-91
c0 17 2 37 10 57z" />
    <glyph glyph-name="Eogonek" unicode="&#x118;" horiz-adv-x="649" 
d="M103 61l110 598l-91 25c-2 12 0 25 4 36h524l-23 -160c-16 -3 -32 -3 -48 0l-15 97h-246l-45 -247h182l32 64c14 3 27 2 38 0l-32 -210c-13 -3 -25 -3 -38 0l-12 83h-181l-52 -284h289l49 101c15 4 32 4 48 0l-24 -164h-95c-12 -23 -22 -57 -22 -87c0 -31 15 -56 50 -56
c13 0 29 3 46 10c10 -13 15 -29 18 -44c-26 -18 -62 -28 -95 -28c-56 0 -91 34 -91 91c0 40 15 83 33 114h-407c-2 12 -1 24 3 36z" />
    <glyph glyph-name="eogonek" unicode="&#x119;" horiz-adv-x="526" 
d="M157 200c0 -94 51 -136 123 -136c58 0 124 27 165 61c12 -11 21 -23 27 -38c-38 -43 -91 -73 -147 -87c-10 -19 -21 -54 -21 -85c0 -32 12 -58 50 -58c13 0 29 3 46 10c10 -13 15 -29 18 -44c-26 -18 -62 -28 -95 -28c-56 0 -91 34 -91 91c0 36 12 74 28 104h-11
c-105 0 -196 60 -196 199c0 181 116 351 301 351c96 0 150 -64 150 -145c0 -26 -5 -51 -15 -77l-331 -87c-1 -10 -1 -21 -1 -31zM167 288l1 -4l163 53c52 17 78 30 78 74c0 45 -27 70 -68 70c-98 0 -155 -97 -174 -193z" />
    <glyph glyph-name="Ecaron" unicode="&#x11a;" horiz-adv-x="649" 
d="M103 61l110 598l-91 25c-2 12 0 25 4 36h524l-23 -160c-16 -3 -32 -3 -48 0l-15 97h-246l-45 -247h182l32 64c14 3 27 2 38 0l-32 -210c-13 -3 -25 -3 -38 0l-12 83h-181l-52 -284h289l49 101c15 4 32 4 48 0l-24 -164h-563c-2 12 -1 24 3 36zM585 883l-164 -113h-10
l-130 114c7 15 17 29 31 41l111 -75l138 75c11 -13 19 -27 24 -42z" />
    <glyph glyph-name="ecaron" unicode="&#x11b;" horiz-adv-x="526" 
d="M167 288l1 -4l163 53c52 17 78 30 78 74c0 45 -27 70 -68 70c-98 0 -155 -97 -174 -193zM157 200c0 -94 51 -136 123 -136c58 0 124 27 165 61c12 -11 21 -23 27 -38c-55 -62 -140 -97 -223 -97c-105 0 -196 60 -196 199c0 181 116 351 301 351c96 0 150 -64 150 -145
c0 -26 -5 -51 -15 -77l-331 -87c-1 -10 -1 -21 -1 -31zM494 737l-154 -154h-9l-104 158c10 14 24 26 41 33l79 -95l113 95c16 -10 28 -24 34 -37z" />
    <glyph glyph-name="Lacute" unicode="&#x139;" horiz-adv-x="590" 
d="M13 36l90 25l110 598l-88 25c-2 13 0 25 4 36h282c2 -13 0 -25 -4 -36l-88 -25l-108 -596h245l51 111c16 3 32 3 50 0l-25 -174h-522c-2 12 -1 24 3 36zM217 815l186 110c17 -23 28 -47 35 -72l-199 -83c-11 14 -18 29 -22 45z" />
    <glyph glyph-name="lacute" unicode="&#x13a;" horiz-adv-x="324" 
d="M295 705l-119 -647l94 12c5 -13 6 -29 5 -43l-150 -35c-46 -11 -60 16 -53 53l119 647h-74c-5 15 -6 29 -5 44l132 23c50 9 57 -20 51 -54zM154 835l186 110c17 -23 28 -47 35 -72l-199 -83c-11 14 -18 29 -22 45z" />
    <glyph glyph-name="Lcaron" unicode="&#x13d;" horiz-adv-x="590" 
d="M13 36l90 25l110 598l-88 25c-2 13 0 25 4 36h282c2 -13 0 -25 -4 -36l-88 -25l-108 -596h245l51 111c16 3 32 3 50 0l-25 -174h-522c-2 12 -1 24 3 36zM435 569c38 35 51 74 51 148c12 2 26 3 41 3c14 0 29 -1 42 -3c0 -93 -39 -145 -106 -177c-13 6 -22 16 -28 29z" />
    <glyph glyph-name="lcaron" unicode="&#x13e;" horiz-adv-x="325" 
d="M295 705l-119 -647l94 12c5 -13 6 -29 5 -43l-150 -35c-46 -11 -60 16 -53 53l119 647h-74c-5 15 -6 29 -5 44l132 23c50 9 57 -20 51 -54zM338 609c38 35 51 74 51 148c12 2 26 3 41 3c14 0 29 -1 42 -3c0 -93 -39 -145 -106 -177c-13 6 -22 16 -28 29z" />
    <glyph glyph-name="Nacute" unicode="&#x143;" horiz-adv-x="739" 
d="M265 602h-4l-100 -542l85 -24c2 -12 1 -24 -3 -36h-232c-2 12 -1 24 3 36l83 23l111 602l-93 23c-2 12 0 24 4 36h214l207 -560h4l93 500l-85 24c-2 13 0 25 4 36h231c2 -14 0 -25 -4 -36l-82 -23l-119 -644l-78 -27l-14 5zM385 815l186 110c17 -23 28 -47 35 -72
l-199 -83c-11 14 -18 29 -22 45z" />
    <glyph glyph-name="nacute" unicode="&#x144;" horiz-adv-x="659" 
d="M567 347l-53 -289l83 10c5 -14 7 -30 6 -43l-140 -33c-47 -11 -60 16 -53 53l48 262c6 32 10 60 10 84c0 50 -19 70 -44 70c-109 0 -207 -278 -229 -385l-15 -74l-92 -12l-9 10l87 472h-74c-5 15 -6 29 -5 44l132 23c50 9 57 -20 51 -54l-24 -131l4 -1
c44 95 113 187 209 187c78 0 114 -53 114 -133c0 -19 -2 -39 -6 -60zM329 618l138 156c22 -15 42 -35 54 -57l-157 -134c-14 7 -27 19 -35 35z" />
    <glyph glyph-name="Ncaron" unicode="&#x147;" horiz-adv-x="739" 
d="M265 602h-4l-100 -542l85 -24c2 -12 1 -24 -3 -36h-232c-2 12 -1 24 3 36l83 23l111 602l-93 23c-2 12 0 24 4 36h214l207 -560h4l93 500l-85 24c-2 13 0 25 4 36h231c2 -14 0 -25 -4 -36l-82 -23l-119 -644l-78 -27l-14 5zM628 883l-164 -113h-10l-130 114
c7 15 17 29 31 41l111 -75l138 75c11 -13 19 -27 24 -42z" />
    <glyph glyph-name="ncaron" unicode="&#x148;" horiz-adv-x="659" 
d="M567 347l-53 -289l83 10c5 -14 7 -30 6 -43l-140 -33c-47 -11 -60 16 -53 53l48 262c6 32 10 60 10 84c0 50 -19 70 -44 70c-109 0 -207 -278 -229 -385l-15 -74l-92 -12l-9 10l87 472h-74c-5 15 -6 29 -5 44l132 23c50 9 57 -20 51 -54l-24 -131l4 -1
c44 95 113 187 209 187c78 0 114 -53 114 -133c0 -19 -2 -39 -6 -60zM521 737l-154 -154h-9l-104 158c10 14 24 26 41 33l79 -95l113 95c16 -10 28 -24 34 -37z" />
    <glyph glyph-name="Ohungarumlaut" unicode="&#x150;" horiz-adv-x="724" 
d="M442 667c-193 0 -263 -229 -263 -394c0 -103 36 -221 162 -221c192 0 258 238 258 400c0 100 -33 215 -157 215zM449 730c180 0 259 -119 259 -278c0 -227 -120 -462 -380 -462c-179 0 -258 128 -258 285c0 225 125 455 379 455zM298 807l109 118c21 -15 39 -34 52 -56
l-126 -99c-15 9 -26 20 -35 37zM477 807l109 118c21 -15 39 -34 52 -56l-126 -99c-15 9 -26 20 -35 37z" />
    <glyph glyph-name="ohungarumlaut" unicode="&#x151;" horiz-adv-x="587" 
d="M335 479c-129 0 -178 -158 -178 -271c0 -67 20 -158 106 -158c130 0 178 156 178 268c0 66 -22 161 -106 161zM253 -10c-141 0 -200 102 -200 222c0 172 101 328 293 328c142 0 199 -102 199 -221c0 -171 -92 -329 -292 -329zM187 617l129 157c25 -15 44 -33 56 -54
l-148 -137c-15 7 -29 20 -37 34zM368 617l129 157c25 -15 44 -33 56 -54l-148 -137c-15 7 -29 20 -37 34z" />
    <glyph glyph-name="Racute" unicode="&#x154;" horiz-adv-x="682" 
d="M335 290l-83 -1l-42 -228l88 -25c2 -12 1 -24 -3 -36h-282c-2 12 -1 24 3 36l88 25l109 598l-88 25c-2 13 0 25 4 36h199c151 0 302 -22 302 -183c0 -126 -80 -198 -188 -229l128 -248l73 -24c2 -12 0 -26 -4 -36h-155zM318 657l-55 -306c128 0 257 39 257 179
c0 92 -67 127 -159 127h-43zM338 815l186 110c17 -23 28 -47 35 -72l-199 -83c-11 14 -18 29 -22 45z" />
    <glyph glyph-name="racute" unicode="&#x155;" horiz-adv-x="473" 
d="M500 533l-20 -139c-16 -3 -32 -3 -46 0l-12 63c-105 -2 -193 -209 -223 -360l-19 -95l-92 -12l-9 10l87 472h-74c-5 15 -6 29 -5 44l133 23c50 9 58 -20 51 -54l-24 -117l4 -1c39 87 110 173 204 173c15 0 30 -2 45 -7zM269 618l138 156c22 -15 42 -35 54 -57l-157 -134
c-14 7 -27 19 -35 35z" />
    <glyph glyph-name="Rcaron" unicode="&#x158;" horiz-adv-x="682" 
d="M335 290l-83 -1l-42 -228l88 -25c2 -12 1 -24 -3 -36h-282c-2 12 -1 24 3 36l88 25l109 598l-88 25c-2 13 0 25 4 36h199c151 0 302 -22 302 -183c0 -126 -80 -198 -188 -229l128 -248l73 -24c2 -12 0 -26 -4 -36h-155zM318 657l-55 -306c128 0 257 39 257 179
c0 92 -67 127 -159 127h-43zM565 883l-164 -113h-10l-130 114c7 15 17 29 31 41l111 -75l138 75c11 -13 19 -27 24 -42z" />
    <glyph glyph-name="rcaron" unicode="&#x159;" horiz-adv-x="473" 
d="M500 533l-20 -139c-16 -3 -32 -3 -46 0l-12 63c-105 -2 -193 -209 -223 -360l-19 -95l-92 -12l-9 10l87 472h-74c-5 15 -6 29 -5 44l133 23c50 9 58 -20 51 -54l-24 -117l4 -1c39 87 110 173 204 173c15 0 30 -2 45 -7zM470 737l-154 -154h-9l-104 158c10 14 24 26 41 33
l79 -95l113 95c16 -10 28 -24 34 -37z" />
    <glyph glyph-name="Sacute" unicode="&#x15a;" horiz-adv-x="603" 
d="M36 65l24 148c16 3 32 3 48 0l21 -128c30 -20 78 -31 126 -31c93 0 194 39 194 130c0 70 -69 100 -144 133c-89 39 -185 82 -185 196c0 146 126 217 273 217c78 0 153 -20 209 -55l-21 -143c-16 -3 -33 -3 -48 0l-19 115c-31 12 -72 20 -114 20c-83 0 -166 -31 -166 -122
c0 -72 58 -101 125 -131c92 -42 202 -77 202 -196c0 -155 -144 -228 -290 -228c-89 0 -174 26 -235 75zM324 815l186 110c17 -23 28 -47 35 -72l-199 -83c-11 14 -18 29 -22 45z" />
    <glyph glyph-name="sacute" unicode="&#x15b;" horiz-adv-x="499" 
d="M94 166l13 -90c24 -16 66 -26 108 -26c64 0 130 24 130 86c0 54 -80 76 -123 97c-62 29 -122 67 -122 148c0 116 106 159 211 159c62 0 124 -15 168 -40l-16 -120c-15 -3 -32 -3 -46 0l-14 84c-20 9 -52 15 -84 15c-60 0 -121 -21 -121 -78c0 -104 248 -92 248 -242
c0 -124 -127 -169 -234 -169c-67 0 -135 17 -182 51l17 125c13 2 31 3 47 0zM252 618l138 156c22 -15 42 -35 54 -57l-157 -134c-14 7 -27 19 -35 35z" />
    <glyph glyph-name="Tcommaaccent" unicode="&#x162;" horiz-adv-x="637" 
d="M237 61l108 596h-154l-48 -106c-16 -3 -32 -3 -48 0l22 169h581l-28 -169c-17 -3 -33 -3 -48 0l-16 106h-155l-108 -596l88 -25c2 -12 1 -24 -3 -36h-282c-2 12 -1 24 3 36zM183 -200c38 35 51 74 51 148c12 2 26 3 41 3c14 0 29 -1 42 -3c0 -93 -39 -145 -106 -177
c-13 6 -22 16 -28 29z" />
    <glyph glyph-name="tcommaaccent" unicode="&#x163;" 
d="M259 476l-62 -318c-3 -15 -7 -36 -7 -52c0 -27 9 -50 41 -50c28 0 66 15 88 29c8 -12 13 -28 13 -44c-46 -31 -99 -51 -147 -51c-72 0 -99 45 -99 102c0 12 2 28 5 43l66 341h-81c0 11 2 25 7 35l84 17l28 147l94 18l9 -10l-29 -155h126c0 -17 -3 -34 -9 -52h-127z
M43 -200c38 35 51 74 51 148c12 2 26 3 41 3c14 0 29 -1 42 -3c0 -93 -39 -145 -106 -177c-13 6 -22 16 -28 29z" />
    <glyph glyph-name="Tcaron" unicode="&#x164;" horiz-adv-x="637" 
d="M237 61l108 596h-154l-48 -106c-16 -3 -32 -3 -48 0l22 169h581l-28 -169c-17 -3 -33 -3 -48 0l-16 106h-155l-108 -596l88 -25c2 -12 1 -24 -3 -36h-282c-2 12 -1 24 3 36zM577 883l-164 -113h-10l-130 114c7 15 17 29 31 41l111 -75l138 75c11 -13 19 -27 24 -42z" />
    <glyph glyph-name="tcaron" unicode="&#x165;" 
d="M259 476l-62 -318c-3 -15 -7 -36 -7 -52c0 -27 9 -50 41 -50c28 0 66 15 88 29c8 -12 13 -28 13 -44c-46 -31 -99 -51 -147 -51c-72 0 -99 45 -99 102c0 12 2 28 5 43l66 341h-81c0 11 2 25 7 35l84 17l28 147l94 18l9 -10l-29 -155h126c0 -17 -3 -34 -9 -52h-127z
M366 638c38 35 51 74 51 148c12 2 26 3 41 3c14 0 29 -1 42 -3c0 -93 -39 -145 -106 -177c-13 6 -22 16 -28 29z" />
    <glyph glyph-name="Uring" unicode="&#x16e;" horiz-adv-x="734" 
d="M197 659l-88 25c-2 13 0 25 4 36h283c2 -13 0 -25 -4 -36l-88 -25l-59 -319c-7 -38 -12 -77 -12 -113c0 -84 27 -160 132 -160c136 0 183 83 209 223l68 370l-85 24c-2 12 -1 24 3 36h235c2 -13 0 -25 -4 -36l-81 -23l-68 -364c-37 -199 -111 -307 -298 -307
c-169 0 -217 103 -217 228c0 41 5 84 13 127zM490 946c51 0 91 -36 91 -86c0 -62 -49 -105 -112 -105c-53 0 -91 37 -91 87c0 60 49 104 112 104zM486 907c-35 0 -54 -31 -54 -62c0 -26 14 -50 43 -50c34 0 52 31 52 61c0 24 -13 51 -41 51z" />
    <glyph glyph-name="uring" unicode="&#x16f;" horiz-adv-x="652" 
d="M504 58l84 10c5 -14 6 -30 5 -43l-139 -33c-44 -10 -61 14 -54 52l25 133l-4 1c-40 -89 -106 -188 -216 -188c-78 0 -109 58 -109 131c0 21 3 43 7 64l53 287h-74c-5 15 -6 29 -5 44l132 23c44 8 59 -15 52 -53l-49 -261c-5 -26 -11 -61 -11 -89c0 -39 11 -70 50 -70
c105 0 208 300 225 391l13 71l94 12l9 -10zM395 774c51 0 91 -36 91 -86c0 -62 -49 -105 -112 -105c-53 0 -91 37 -91 87c0 60 49 104 112 104zM391 735c-35 0 -54 -31 -54 -62c0 -26 14 -50 43 -50c34 0 52 31 52 61c0 24 -13 51 -41 51z" />
    <glyph glyph-name="Uhungarumlaut" unicode="&#x170;" horiz-adv-x="734" 
d="M197 659l-88 25c-2 13 0 25 4 36h283c2 -13 0 -25 -4 -36l-88 -25l-59 -319c-7 -38 -12 -77 -12 -113c0 -84 27 -160 132 -160c136 0 183 83 209 223l68 370l-85 24c-2 12 -1 24 3 36h235c2 -13 0 -25 -4 -36l-81 -23l-68 -364c-37 -199 -111 -307 -298 -307
c-169 0 -217 103 -217 228c0 41 5 84 13 127zM325 807l109 118c21 -15 39 -34 52 -56l-126 -99c-15 9 -26 20 -35 37zM504 807l109 118c21 -15 39 -34 52 -56l-126 -99c-15 9 -26 20 -35 37z" />
    <glyph glyph-name="uhungarumlaut" unicode="&#x171;" horiz-adv-x="652" 
d="M504 58l84 10c5 -14 6 -30 5 -43l-139 -33c-44 -10 -61 14 -54 52l25 133l-4 1c-40 -89 -106 -188 -216 -188c-78 0 -109 58 -109 131c0 21 3 43 7 64l53 287h-74c-5 15 -6 29 -5 44l132 23c44 8 59 -15 52 -53l-49 -261c-5 -26 -11 -61 -11 -89c0 -39 11 -70 50 -70
c105 0 208 300 225 391l13 71l94 12l9 -10zM222 617l129 157c25 -15 44 -33 56 -54l-148 -137c-15 7 -29 20 -37 34zM403 617l129 157c25 -15 44 -33 56 -54l-148 -137c-15 7 -29 20 -37 34z" />
    <glyph glyph-name="Zacute" unicode="&#x179;" horiz-adv-x="686" 
d="M601 0h-577l12 64l501 589l-1 4h-287l-48 -106c-15 -3 -32 -3 -48 0l22 169h515l-12 -64l-503 -589l1 -4h349l51 111c17 3 33 3 50 0zM364 815l186 110c17 -23 28 -47 35 -72l-199 -83c-11 14 -18 29 -22 45z" />
    <glyph glyph-name="zacute" unicode="&#x17a;" horiz-adv-x="533" 
d="M321 0h-298l11 67l358 366l-1 4h-219l-32 -68c-15 -4 -31 -4 -46 0l21 161h404l-11 -68l-360 -366l1 -4h173c94 0 110 17 136 71c14 -2 27 -6 39 -13c-27 -127 -77 -150 -176 -150zM267 618l138 156c22 -15 42 -35 54 -57l-157 -134c-14 7 -27 19 -35 35z" />
    <glyph glyph-name="Zdotaccent" unicode="&#x17b;" horiz-adv-x="686" 
d="M601 0h-577l12 64l501 589l-1 4h-287l-48 -106c-15 -3 -32 -3 -48 0l22 169h515l-12 -64l-503 -589l1 -4h349l51 111c17 3 33 3 50 0zM397 885c17 4 39 6 61 6c14 0 27 -1 39 -3c1 -35 -5 -70 -20 -104c-17 -4 -37 -6 -56 -6c-14 0 -28 1 -40 3c-2 35 2 70 16 104z" />
    <glyph glyph-name="zdotaccent" unicode="&#x17c;" horiz-adv-x="533" 
d="M321 0h-298l11 67l358 366l-1 4h-219l-32 -68c-15 -4 -31 -4 -46 0l21 161h404l-11 -68l-360 -366l1 -4h173c94 0 110 17 136 71c14 -2 27 -6 39 -13c-27 -127 -77 -150 -176 -150zM294 725c17 4 39 6 61 6c14 0 27 -1 39 -3c1 -35 -5 -70 -20 -104c-17 -4 -37 -6 -56 -6
c-14 0 -28 1 -40 3c-2 35 2 70 16 104z" />
    <glyph glyph-name="Amacron" unicode="&#x100;" horiz-adv-x="746" 
d="M520 61l-24 164h-265l-94 -165l87 -24c1 -13 -1 -25 -5 -36h-240c-1 12 0 24 5 36l79 22l371 644l79 28l14 -7l99 -664l74 -23c2 -13 0 -25 -4 -36h-273c-2 13 0 25 4 36zM442 584h-4l-170 -296h218zM622 791h-286c-2 23 1 47 10 70h286c2 -24 -2 -47 -10 -70z" />
    <glyph glyph-name="amacron" unicode="&#x101;" horiz-adv-x="604" 
d="M422 427l8 47c-17 7 -35 10 -54 10c-149 0 -219 -188 -219 -324c0 -45 9 -92 52 -92c96 0 195 254 213 359zM505 540h40l-89 -482l83 10c5 -14 7 -30 6 -44l-140 -32c-47 -11 -60 16 -53 53l23 123h-4c-36 -78 -107 -178 -205 -178c-87 0 -113 89 -113 167
c0 177 112 383 297 383c34 0 70 -8 98 -25c13 20 33 25 57 25zM508 620h-282c0 23 5 47 13 67h281c0 -23 -4 -45 -12 -67z" />
    <glyph glyph-name="Emacron" unicode="&#x112;" horiz-adv-x="649" 
d="M103 61l110 598l-91 25c-2 12 0 25 4 36h524l-23 -160c-16 -3 -32 -3 -48 0l-15 97h-246l-45 -247h182l32 64c14 3 27 2 38 0l-32 -210c-13 -3 -25 -3 -38 0l-12 83h-181l-52 -284h289l49 101c15 4 32 4 48 0l-24 -164h-563c-2 12 -1 24 3 36zM564 791h-286
c-2 23 1 47 10 70h286c2 -24 -2 -47 -10 -70z" />
    <glyph glyph-name="emacron" unicode="&#x113;" horiz-adv-x="526" 
d="M167 288l1 -4l163 53c52 17 78 30 78 74c0 45 -27 70 -68 70c-98 0 -155 -97 -174 -193zM157 200c0 -94 51 -136 123 -136c58 0 124 27 165 61c12 -11 21 -23 27 -38c-55 -62 -140 -97 -223 -97c-105 0 -196 60 -196 199c0 181 116 351 301 351c96 0 150 -64 150 -145
c0 -26 -5 -51 -15 -77l-331 -87c-1 -10 -1 -21 -1 -31zM475 620h-282c0 23 5 47 13 67h281c0 -23 -4 -45 -12 -67z" />
    <glyph glyph-name="Edotaccent" unicode="&#x116;" horiz-adv-x="649" 
d="M103 61l110 598l-91 25c-2 12 0 25 4 36h524l-23 -160c-16 -3 -32 -3 -48 0l-15 97h-246l-45 -247h182l32 64c14 3 27 2 38 0l-32 -210c-13 -3 -25 -3 -38 0l-12 83h-181l-52 -284h289l49 101c15 4 32 4 48 0l-24 -164h-563c-2 12 -1 24 3 36zM390 885c17 4 39 6 61 6
c14 0 27 -1 39 -3c1 -35 -5 -70 -20 -104c-17 -4 -37 -6 -56 -6c-14 0 -28 1 -40 3c-2 35 2 70 16 104z" />
    <glyph glyph-name="edotaccent" unicode="&#x117;" horiz-adv-x="526" 
d="M167 288l1 -4l163 53c52 17 78 30 78 74c0 45 -27 70 -68 70c-98 0 -155 -97 -174 -193zM157 200c0 -94 51 -136 123 -136c58 0 124 27 165 61c12 -11 21 -23 27 -38c-55 -62 -140 -97 -223 -97c-105 0 -196 60 -196 199c0 181 116 351 301 351c96 0 150 -64 150 -145
c0 -26 -5 -51 -15 -77l-331 -87c-1 -10 -1 -21 -1 -31zM304 725c17 4 39 6 61 6c14 0 27 -1 39 -3c1 -35 -5 -70 -20 -104c-17 -4 -37 -6 -56 -6c-14 0 -28 1 -40 3c-2 35 2 70 16 104z" />
    <glyph glyph-name="Gcommaaccent" unicode="&#x122;" horiz-adv-x="715" 
d="M495 83l39 207l-109 25c-2 13 0 24 4 36h268c1 -12 0 -24 -5 -36l-53 -16l-59 -309h-28c-34 0 -47 14 -53 28c-41 -19 -91 -28 -141 -28c-171 0 -288 106 -288 297c0 260 178 443 421 443c68 0 135 -15 187 -46l-22 -145c-16 -3 -32 -3 -48 0l-19 114
c-28 10 -60 14 -93 14c-204 0 -317 -174 -317 -381c0 -137 83 -227 214 -227c34 0 72 8 102 24zM284 -200c38 35 51 74 51 148c12 2 26 3 41 3c14 0 29 -1 42 -3c0 -93 -39 -145 -106 -177c-13 6 -22 16 -28 29z" />
    <glyph glyph-name="gcommaaccent" unicode="&#x123;" horiz-adv-x="593" 
d="M429 428l9 46c-20 7 -39 10 -59 10c-153 0 -219 -171 -219 -305c0 -41 7 -99 57 -99c101 0 192 245 212 348zM382 169l-4 1c-34 -81 -108 -169 -201 -169c-96 0 -120 97 -120 176c0 178 114 363 300 363c35 0 72 -7 99 -25c13 19 29 25 60 25h36l-86 -468
c-35 -189 -137 -273 -297 -273c-61 0 -122 14 -164 37l16 112c15 3 31 3 45 0l16 -77c25 -9 55 -14 85 -14c118 0 171 69 198 219zM435 744c-38 -35 -51 -74 -51 -148c-12 -2 -26 -3 -41 -3c-14 0 -29 1 -42 3c0 93 39 145 106 177c13 -6 22 -16 28 -29z" />
    <glyph glyph-name="Imacron" unicode="&#x12a;" horiz-adv-x="368" 
d="M213 659l-88 25c-2 13 0 25 4 36h282c2 -13 0 -25 -4 -36l-88 -25l-109 -598l88 -25c2 -12 1 -24 -3 -36h-282c-2 12 -1 24 3 36l88 25zM423 791h-286c-2 23 1 47 10 70h286c2 -24 -2 -47 -10 -70z" />
    <glyph glyph-name="imacron" unicode="&#x12b;" horiz-adv-x="340" 
d="M271 485l-79 -427l83 10c5 -14 7 -30 6 -43l-140 -33c-47 -11 -60 16 -53 53l79 427h-74c-5 15 -7 29 -5 44l132 23c50 9 57 -20 51 -54zM361 620h-282c0 23 5 47 13 67h281c0 -23 -4 -45 -12 -67z" />
    <glyph glyph-name="Iogonek" unicode="&#x12e;" horiz-adv-x="368" 
d="M213 659l-88 25c-2 13 0 25 4 36h282c2 -13 0 -25 -4 -36l-88 -25l-109 -598l88 -25c2 -12 1 -24 -3 -36h-113c-12 -23 -22 -57 -22 -87c0 -31 15 -56 50 -56c13 0 29 3 46 10c10 -13 15 -29 18 -44c-26 -18 -62 -28 -95 -28c-56 0 -91 34 -91 91c0 40 15 83 33 114h-108
c-2 12 -1 24 3 36l88 25z" />
    <glyph glyph-name="iogonek" unicode="&#x12f;" horiz-adv-x="340" 
d="M271 485l-79 -427l83 10c5 -14 7 -30 6 -43l-112 -26c-11 -23 -21 -57 -21 -86c0 -31 15 -56 50 -56c13 0 29 3 46 10c10 -13 15 -29 18 -44c-26 -18 -62 -28 -95 -28c-56 0 -91 34 -91 91c0 37 13 76 29 107c-17 7 -22 27 -17 52l79 427h-74c-5 15 -7 29 -5 44l132 23
c50 9 57 -20 51 -54zM203 729c18 3 41 5 62 5c14 0 28 -1 39 -2c0 -35 -5 -71 -21 -104c-17 -4 -37 -6 -56 -6c-14 0 -28 1 -40 3c-2 35 3 69 16 104z" />
    <glyph glyph-name="Kcommaaccent" unicode="&#x136;" horiz-adv-x="723" 
d="M679 0h-161l-228 367l1 6l295 294l-57 17c-2 12 0 25 4 36h238c2 -13 1 -24 -3 -36l-102 -28l-268 -263l206 -332l79 -25c2 -15 0 -26 -4 -36zM213 659l-88 25c-2 13 0 25 4 36h282c2 -13 0 -25 -4 -36l-88 -25l-109 -598l88 -25c2 -12 1 -24 -3 -36h-282
c-2 12 -1 24 3 36l88 25zM271 -200c38 35 51 74 51 148c12 2 26 3 41 3c14 0 29 -1 42 -3c0 -93 -39 -145 -106 -177c-13 6 -22 16 -28 29z" />
    <glyph glyph-name="kcommaaccent" unicode="&#x137;" horiz-adv-x="583" 
d="M359 43l-131 228l175 210c26 31 54 59 87 59c29 0 65 -30 91 -59c-3 -11 -10 -21 -20 -30c-16 10 -32 15 -47 15c-31 0 -57 -17 -101 -63l-91 -97l138 -237l74 34c9 -10 16 -23 20 -38l-85 -54c-22 -14 -39 -21 -53 -21c-24 0 -39 22 -57 53zM295 705l-129 -703l-93 -12
l-10 10l128 692h-74c-5 15 -6 29 -5 44l132 23c50 9 57 -20 51 -54zM171 -200c38 35 51 74 51 148c12 2 26 3 41 3c14 0 29 -1 42 -3c0 -93 -39 -145 -106 -177c-13 6 -22 16 -28 29z" />
    <glyph glyph-name="Lcommaaccent" unicode="&#x13b;" horiz-adv-x="590" 
d="M13 36l90 25l110 598l-88 25c-2 13 0 25 4 36h282c2 -13 0 -25 -4 -36l-88 -25l-108 -596h245l51 111c16 3 32 3 50 0l-25 -174h-522c-2 12 -1 24 3 36zM204 -200c38 35 51 74 51 148c12 2 26 3 41 3c14 0 29 -1 42 -3c0 -93 -39 -145 -106 -177c-13 6 -22 16 -28 29z
" />
    <glyph glyph-name="lcommaaccent" unicode="&#x13c;" horiz-adv-x="324" 
d="M295 705l-119 -647l94 12c5 -13 6 -29 5 -43l-150 -35c-46 -11 -60 16 -53 53l119 647h-74c-5 15 -6 29 -5 44l132 23c50 9 57 -20 51 -54zM31 -200c38 35 51 74 51 148c12 2 26 3 41 3c14 0 29 -1 42 -3c0 -93 -39 -145 -106 -177c-13 6 -22 16 -28 29z" />
    <glyph glyph-name="Ncommaaccent" unicode="&#x145;" horiz-adv-x="739" 
d="M265 602h-4l-100 -542l85 -24c2 -12 1 -24 -3 -36h-232c-2 12 -1 24 3 36l83 23l111 602l-93 23c-2 12 0 24 4 36h214l207 -560h4l93 500l-85 24c-2 13 0 25 4 36h231c2 -14 0 -25 -4 -36l-82 -23l-119 -644l-78 -27l-14 5zM241 -200c38 35 51 74 51 148c12 2 26 3 41 3
c14 0 29 -1 42 -3c0 -93 -39 -145 -106 -177c-13 6 -22 16 -28 29z" />
    <glyph glyph-name="ncommaaccent" unicode="&#x146;" horiz-adv-x="659" 
d="M567 347l-53 -289l83 10c5 -14 7 -30 6 -43l-140 -33c-47 -11 -60 16 -53 53l48 262c6 32 10 60 10 84c0 50 -19 70 -44 70c-109 0 -207 -278 -229 -385l-15 -74l-92 -12l-9 10l87 472h-74c-5 15 -6 29 -5 44l132 23c50 9 57 -20 51 -54l-24 -131l4 -1
c44 95 113 187 209 187c78 0 114 -53 114 -133c0 -19 -2 -39 -6 -60zM199 -200c38 35 51 74 51 148c12 2 26 3 41 3c14 0 29 -1 42 -3c0 -93 -39 -145 -106 -177c-13 6 -22 16 -28 29z" />
    <glyph glyph-name="Omacron" unicode="&#x14c;" horiz-adv-x="724" 
d="M442 667c-193 0 -263 -229 -263 -394c0 -103 36 -221 162 -221c192 0 258 238 258 400c0 100 -33 215 -157 215zM449 730c180 0 259 -119 259 -278c0 -227 -120 -462 -380 -462c-179 0 -258 128 -258 285c0 225 125 455 379 455zM587 791h-286c-2 23 1 47 10 70h286
c2 -24 -2 -47 -10 -70z" />
    <glyph glyph-name="omacron" unicode="&#x14d;" horiz-adv-x="579" 
d="M335 479c-129 0 -178 -158 -178 -271c0 -67 20 -158 106 -158c130 0 178 156 178 268c0 66 -22 161 -106 161zM253 -10c-141 0 -200 102 -200 222c0 172 101 328 293 328c142 0 199 -102 199 -221c0 -171 -92 -329 -292 -329zM487 620h-282c0 23 5 47 13 67h281
c0 -23 -4 -45 -12 -67z" />
    <glyph glyph-name="Rcommaaccent" unicode="&#x156;" horiz-adv-x="682" 
d="M335 290l-83 -1l-42 -228l88 -25c2 -12 1 -24 -3 -36h-282c-2 12 -1 24 3 36l88 25l109 598l-88 25c-2 13 0 25 4 36h199c151 0 302 -22 302 -183c0 -126 -80 -198 -188 -229l128 -248l73 -24c2 -12 0 -26 -4 -36h-155zM318 657l-55 -306c128 0 257 39 257 179
c0 92 -67 127 -159 127h-43zM257 -200c38 35 51 74 51 148c12 2 26 3 41 3c14 0 29 -1 42 -3c0 -93 -39 -145 -106 -177c-13 6 -22 16 -28 29z" />
    <glyph glyph-name="rcommaaccent" unicode="&#x157;" horiz-adv-x="473" 
d="M500 533l-20 -139c-16 -3 -32 -3 -46 0l-12 63c-105 -2 -193 -209 -223 -360l-19 -95l-92 -12l-9 10l87 472h-74c-5 15 -6 29 -5 44l133 23c50 9 58 -20 51 -54l-24 -117l4 -1c39 87 110 173 204 173c15 0 30 -2 45 -7zM30 -200c38 35 51 74 51 148c12 2 26 3 41 3
c14 0 29 -1 42 -3c0 -93 -39 -145 -106 -177c-13 6 -22 16 -28 29z" />
    <glyph glyph-name="Umacron" unicode="&#x16a;" horiz-adv-x="734" 
d="M197 659l-88 25c-2 13 0 25 4 36h283c2 -13 0 -25 -4 -36l-88 -25l-59 -319c-7 -38 -12 -77 -12 -113c0 -84 27 -160 132 -160c136 0 183 83 209 223l68 370l-85 24c-2 12 -1 24 3 36h235c2 -13 0 -25 -4 -36l-81 -23l-68 -364c-37 -199 -111 -307 -298 -307
c-169 0 -217 103 -217 228c0 41 5 84 13 127zM616 791h-286c-2 23 1 47 10 70h286c2 -24 -2 -47 -10 -70z" />
    <glyph glyph-name="umacron" unicode="&#x16b;" horiz-adv-x="652" 
d="M504 58l84 10c5 -14 6 -30 5 -43l-139 -33c-44 -10 -61 14 -54 52l25 133l-4 1c-40 -89 -106 -188 -216 -188c-78 0 -109 58 -109 131c0 21 3 43 7 64l53 287h-74c-5 15 -6 29 -5 44l132 23c44 8 59 -15 52 -53l-49 -261c-5 -26 -11 -61 -11 -89c0 -39 11 -70 50 -70
c105 0 208 300 225 391l13 71l94 12l9 -10zM515 620h-282c0 23 5 47 13 67h281c0 -23 -4 -45 -12 -67z" />
    <glyph glyph-name="Uogonek" unicode="&#x172;" horiz-adv-x="734" 
d="M197 659l-88 25c-2 13 0 25 4 36h283c2 -13 0 -25 -4 -36l-88 -25l-59 -319c-7 -38 -12 -77 -12 -113c0 -84 27 -160 132 -160c136 0 183 83 209 223l68 370l-85 24c-2 12 -1 24 3 36h235c2 -13 0 -25 -4 -36l-81 -23l-68 -364c-32 -171 -91 -274 -224 -300
c-11 -23 -20 -56 -20 -84c0 -31 15 -56 50 -56c13 0 29 3 46 10c10 -13 15 -29 18 -44c-26 -18 -62 -28 -95 -28c-56 0 -91 34 -91 91c0 36 12 74 28 104h-10c-169 0 -217 103 -217 228c0 41 5 84 13 127z" />
    <glyph glyph-name="uogonek" unicode="&#x173;" horiz-adv-x="652" 
d="M504 58l84 10c5 -14 6 -30 5 -43l-126 -30c-10 -23 -19 -55 -19 -82c0 -31 15 -56 50 -56c13 0 29 3 46 10c10 -13 15 -29 18 -44c-26 -18 -62 -28 -95 -28c-56 0 -91 34 -91 91c0 39 15 82 33 113c-10 9 -13 25 -9 45l25 133l-4 1c-40 -89 -106 -188 -216 -188
c-78 0 -109 58 -109 131c0 21 3 43 7 64l53 287h-74c-5 15 -6 29 -5 44l132 23c44 8 59 -15 52 -53l-49 -261c-5 -26 -11 -61 -11 -89c0 -39 11 -70 50 -70c105 0 208 300 225 391l13 71l94 12l9 -10z" />
    <glyph glyph-name="afii10023" unicode="&#x401;" horiz-adv-x="649" 
d="M103 61l110 598l-91 25c-2 12 0 25 4 36h524l-23 -160c-16 -3 -32 -3 -48 0l-15 97h-246l-45 -247h182l32 64c14 3 27 2 38 0l-32 -210c-13 -3 -25 -3 -38 0l-12 83h-181l-52 -284h289l49 101c15 4 32 4 48 0l-24 -164h-563c-2 12 -1 24 3 36zM284 888c17 3 38 5 59 5
c12 0 26 -1 36 -2c1 -33 -5 -67 -20 -98c-16 -4 -35 -6 -53 -6c-13 0 -26 1 -38 3c-1 32 3 66 16 98zM490 888c17 3 38 5 59 5c12 0 26 -1 36 -2c1 -33 -5 -67 -20 -98c-16 -4 -35 -6 -53 -6c-13 0 -26 1 -38 3c-1 32 3 66 16 98z" />
    <glyph glyph-name="afii10051" unicode="&#x402;" horiz-adv-x="756" 
d="M199 61l108 596h-116l-48 -106c-16 -3 -32 -3 -48 0l22 169h571l-28 -169c-17 -3 -33 -3 -48 0l-17 106h-182l-46 -251c48 17 97 26 143 26c139 0 197 -89 197 -206c0 -180 -109 -389 -335 -389c-3 12 -4 27 -2 42c152 16 226 187 226 323c0 99 -36 160 -144 160
c-30 0 -65 -5 -96 -15l-51 -286l85 -25c2 -11 1 -24 -3 -36h-280c-2 12 0 25 4 36z" />
    <glyph glyph-name="afii10052" unicode="&#x403;" horiz-adv-x="580" 
d="M560 657h-242l-108 -596l88 -25c2 -12 1 -24 -3 -36h-282c-2 12 -1 24 3 36l88 25l109 598l-91 25c-2 13 0 25 4 36h527l-28 -169c-17 -3 -33 -3 -48 0zM339 815l186 110c17 -23 28 -47 35 -72l-199 -83c-11 14 -18 29 -22 45z" />
    <glyph glyph-name="afii10053" unicode="&#x404;" horiz-adv-x="647" 
d="M502 81l60 118c16 3 32 3 48 0l-28 -143c-59 -41 -144 -66 -226 -66c-180 0 -286 110 -286 297c0 243 161 443 414 443c64 0 127 -15 172 -46l-21 -145c-16 -4 -32 -4 -48 0l-19 114c-26 10 -54 14 -84 14c-159 0 -258 -116 -292 -261l375 9c2 -25 -2 -50 -10 -72l-375 9
c-2 -22 -3 -45 -3 -66c0 -137 75 -227 211 -227c38 0 78 8 112 22z" />
    <glyph glyph-name="afii10054" unicode="&#x405;" horiz-adv-x="603" 
d="M36 65l24 148c16 3 32 3 48 0l21 -128c30 -20 78 -31 126 -31c93 0 194 39 194 130c0 70 -69 100 -144 133c-89 39 -185 82 -185 196c0 146 126 217 273 217c78 0 153 -20 209 -55l-21 -143c-16 -3 -33 -3 -48 0l-19 115c-31 12 -72 20 -114 20c-83 0 -166 -31 -166 -122
c0 -72 58 -101 125 -131c92 -42 202 -77 202 -196c0 -155 -144 -228 -290 -228c-89 0 -174 26 -235 75z" />
    <glyph glyph-name="afii10055" unicode="&#x406;" horiz-adv-x="368" 
d="M213 659l-88 25c-2 13 0 25 4 36h282c2 -13 0 -25 -4 -36l-88 -25l-109 -598l88 -25c2 -12 1 -24 -3 -36h-282c-2 12 -1 24 3 36l88 25z" />
    <glyph glyph-name="afii10056" unicode="&#x407;" horiz-adv-x="368" 
d="M213 659l-88 25c-2 13 0 25 4 36h282c2 -13 0 -25 -4 -36l-88 -25l-109 -598l88 -25c2 -12 1 -24 -3 -36h-282c-2 12 -1 24 3 36l88 25zM149 888c17 3 38 5 59 5c12 0 26 -1 36 -2c1 -33 -5 -67 -20 -98c-16 -4 -35 -6 -53 -6c-13 0 -26 1 -38 3c-1 32 3 66 16 98z
M355 888c17 3 38 5 59 5c12 0 26 -1 36 -2c1 -33 -5 -67 -20 -98c-16 -4 -35 -6 -53 -6c-13 0 -26 1 -38 3c-1 32 3 66 16 98z" />
    <glyph glyph-name="afii10057" unicode="&#x408;" horiz-adv-x="372" 
d="M114 74l107 585l-88 25c-2 13 0 25 4 36h282c2 -13 0 -25 -4 -36l-88 -25l-114 -623c-27 -149 -126 -199 -246 -199c-5 14 -6 27 -5 41c102 21 129 70 152 196z" />
    <glyph glyph-name="afii10058" unicode="&#x409;" horiz-adv-x="934" 
d="M7 -5v162c17 3 33 3 48 0l25 -70c129 73 202 397 241 572l-97 25c-2 12 0 25 4 36h544c2 -13 0 -26 -4 -36l-91 -25l-45 -237h33c142 0 248 -37 248 -173c0 -214 -183 -249 -365 -249h-187c-2 13 0 26 4 36l92 25l114 596h-184c-94 -401 -170 -624 -374 -667zM620 360
l-57 -298c134 1 240 32 240 177c0 107 -72 120 -183 121z" />
    <glyph glyph-name="afii10059" unicode="&#x40a;" horiz-adv-x="1000" 
d="M632 659l-88 25c-2 13 0 25 4 36h285c2 -13 0 -26 -4 -36l-91 -25l-44 -237h37c142 0 248 -37 248 -173c0 -214 -183 -249 -366 -249h-181c-2 12 -1 24 3 36l88 25l54 298h-313l-54 -298l88 -25c2 -12 1 -24 -3 -36h-282c-2 12 -1 24 3 36l88 25l109 598l-88 25
c-2 13 0 25 4 36h282c2 -13 0 -26 -4 -36l-88 -25l-44 -237h313zM869 239c0 107 -71 120 -186 121l-54 -298c135 1 240 32 240 177z" />
    <glyph glyph-name="afii10060" unicode="&#x40b;" horiz-adv-x="785" 
d="M199 61l108 596h-116l-48 -106c-16 -3 -32 -3 -48 0l22 169h571l-28 -169c-17 -3 -33 -3 -48 0l-17 106h-182l-46 -250c40 13 88 22 134 22c125 0 195 -57 195 -158c0 -13 -1 -28 -4 -45l-28 -165l80 -25c2 -12 0 -25 -4 -36h-195l29 168c5 30 10 60 10 88
c0 60 -23 107 -122 107c-36 0 -74 -6 -106 -16l-51 -286l85 -25c2 -12 1 -24 -3 -36h-280c-2 13 0 26 4 36z" />
    <glyph glyph-name="afii10062" unicode="&#x40e;" horiz-adv-x="667" 
d="M397 303h4l211 358l-85 23c-2 13 0 25 4 36h230c2 -13 0 -25 -4 -36l-73 -24l-234 -396c-97 -164 -175 -276 -330 -276c-10 0 -23 1 -31 2v155c17 3 33 3 48 0l25 -76c61 3 120 49 166 116l-161 476l-71 23c-2 13 0 25 4 36h275c2 -13 0 -26 -4 -36l-92 -25zM309 913
c12 2 24 3 36 3s25 -1 37 -3c-2 -46 15 -79 60 -79c48 0 75 30 83 79c13 2 26 3 39 3s28 -1 40 -3c-17 -88 -83 -136 -166 -136c-79 0 -133 46 -129 136z" />
    <glyph glyph-name="afii10145" unicode="&#x40f;" horiz-adv-x="787" 
d="M632 659l-88 25c-2 13 0 25 4 36h282c2 -13 0 -26 -4 -36l-88 -25l-109 -598l88 -25c2 -12 1 -24 -3 -36h-302l-50 -140c-16 -3 -32 -3 -48 0l-7 140h-294c-2 12 -1 24 3 36l88 25l109 598l-88 25c-2 13 0 25 4 36h282c2 -13 0 -26 -4 -36l-88 -25l-109 -596h313z" />
    <glyph glyph-name="afii10017" unicode="&#x410;" horiz-adv-x="746" 
d="M520 61l-24 164h-265l-94 -165l87 -24c1 -13 -1 -25 -5 -36h-240c-1 12 0 24 5 36l79 22l371 644l79 28l14 -7l99 -664l74 -23c2 -13 0 -25 -4 -36h-273c-2 13 0 25 4 36zM442 584h-4l-170 -296h218z" />
    <glyph glyph-name="afii10018" unicode="&#x411;" horiz-adv-x="657" 
d="M321 657l-43 -224h57c145 0 271 -30 271 -181c0 -196 -157 -252 -356 -252h-245c-2 13 0 26 4 36l93 25l113 598l-91 25c-2 14 0 26 4 36h517l-29 -169c-16 -3 -32 -3 -48 0l-16 106h-231zM266 370l-59 -308h56c143 0 233 49 233 181c0 100 -63 127 -170 127h-60z" />
    <glyph glyph-name="afii10019" unicode="&#x412;" horiz-adv-x="653" 
d="M359 657h-41l-45 -247h38c108 0 200 27 200 140c0 90 -71 107 -152 107zM335 348h-73l-52 -286h40c139 0 243 24 243 160c0 94 -67 126 -158 126zM103 60l110 599l-91 25c-2 13 0 25 4 36h225c121 0 270 -19 270 -161c0 -87 -68 -161 -158 -172v-4
c89 -13 141 -82 141 -166c0 -181 -185 -217 -364 -217h-231c-2 13 -1 25 3 36z" />
    <glyph glyph-name="afii10020" unicode="&#x413;" horiz-adv-x="580" 
d="M560 657h-242l-108 -596l88 -25c2 -12 1 -24 -3 -36h-282c-2 12 -1 24 3 36l88 25l109 598l-91 25c-2 13 0 25 4 36h527l-28 -169c-17 -3 -33 -3 -48 0z" />
    <glyph glyph-name="afii10021" unicode="&#x414;" horiz-adv-x="753" 
d="M20 63h67c144 145 209 431 242 596l-96 25c-2 13 0 25 4 36h551c2 -13 0 -26 -4 -36l-81 -25l-108 -596h81l-32 -203c-16 -3 -32 -3 -48 0l-30 140h-455l-74 -140c-16 -3 -32 -3 -48 0zM597 657h-202c-63 -286 -114 -452 -226 -594h320z" />
    <glyph glyph-name="afii10022" unicode="&#x415;" horiz-adv-x="649" 
d="M103 61l110 598l-91 25c-2 12 0 25 4 36h524l-23 -160c-16 -3 -32 -3 -48 0l-15 97h-246l-45 -247h182l32 64c14 3 27 2 38 0l-32 -210c-13 -3 -25 -3 -38 0l-12 83h-181l-52 -284h289l49 101c15 4 32 4 48 0l-24 -164h-563c-2 12 -1 24 3 36z" />
    <glyph glyph-name="afii10024" unicode="&#x416;" horiz-adv-x="1060" 
d="M144 0h-166c-2 12 -1 25 3 36l80 24l322 345l-157 251l-100 28c-2 12 0 25 4 36h231c2 -13 0 -26 -4 -36l-62 -17l188 -301l-2 -6zM556 659l-88 25c-2 13 0 26 4 36h282c2 -13 0 -26 -4 -36l-88 -25l-109 -598l88 -25c2 -12 1 -24 -3 -36h-282c-2 12 -1 25 3 36l88 25z
M1017 0h-161l-229 359l1 6l296 302l-57 17c-2 12 -1 24 3 36h238c2 -12 1 -25 -3 -36l-103 -28l-266 -271l205 -324l79 -25c2 -12 1 -24 -3 -36z" />
    <glyph glyph-name="afii10025" unicode="&#x417;" horiz-adv-x="613" 
d="M152 538v149c50 23 135 43 216 43c108 0 215 -42 215 -159c0 -98 -72 -174 -171 -185l-1 -4c81 -14 136 -80 136 -158c0 -161 -162 -234 -305 -234c-78 0 -154 20 -212 62l22 146c16 3 32 3 48 0l25 -120c33 -15 71 -22 109 -22c105 0 203 56 203 170
c0 93 -86 123 -170 123h-68c-1 23 3 43 10 62h63c106 0 201 39 201 150c0 78 -71 105 -142 105c-35 0 -70 -6 -96 -17l-35 -111c-16 -3 -32 -3 -48 0z" />
    <glyph glyph-name="afii10026" unicode="&#x418;" horiz-adv-x="802" 
d="M647 659l-88 25c-2 13 0 25 4 36h282c2 -13 0 -26 -4 -36l-88 -25l-109 -598l88 -25c2 -12 1 -24 -3 -36h-282c-2 12 -1 24 3 36l88 25l77 425h-4l-388 -352l-13 -73l88 -25c2 -12 1 -24 -3 -36h-282c-2 12 -1 24 3 36l88 25l109 598l-88 25c-2 13 0 25 4 36h282
c2 -13 0 -26 -4 -36l-88 -25l-76 -418h4l388 352z" />
    <glyph glyph-name="afii10027" unicode="&#x419;" horiz-adv-x="802" 
d="M647 659l-88 25c-2 13 0 25 4 36h282c2 -13 0 -26 -4 -36l-88 -25l-109 -598l88 -25c2 -12 1 -24 -3 -36h-282c-2 12 -1 24 3 36l88 25l77 425h-4l-388 -352l-13 -73l88 -25c2 -12 1 -24 -3 -36h-282c-2 12 -1 24 3 36l88 25l109 598l-88 25c-2 13 0 25 4 36h282
c2 -13 0 -26 -4 -36l-88 -25l-76 -418h4l388 352zM356 913c12 2 24 3 36 3s25 -1 37 -3c-2 -46 15 -79 60 -79c48 0 75 30 83 79c13 2 26 3 39 3s28 -1 40 -3c-17 -88 -83 -136 -166 -136c-79 0 -133 46 -129 136z" />
    <glyph glyph-name="afii10028" unicode="&#x41a;" horiz-adv-x="723" 
d="M679 0h-161l-228 367l1 6l295 294l-57 17c-2 12 0 25 4 36h238c2 -13 1 -24 -3 -36l-102 -28l-268 -263l206 -332l79 -25c2 -15 0 -26 -4 -36zM213 659l-88 25c-2 13 0 25 4 36h282c2 -13 0 -25 -4 -36l-88 -25l-109 -598l88 -25c2 -12 1 -24 -3 -36h-282
c-2 12 -1 24 3 36l88 25z" />
    <glyph glyph-name="afii10029" unicode="&#x41b;" horiz-adv-x="728" 
d="M573 657h-186c-100 -401 -166 -623 -374 -667l-6 5v162c17 3 33 3 48 0l25 -70c129 73 201 397 241 572l-97 25c-2 12 0 26 4 36h543c2 -13 0 -26 -4 -36l-88 -25l-108 -598l88 -25c2 -12 1 -24 -3 -36h-282c-2 12 -1 24 3 36l88 25z" />
    <glyph glyph-name="afii10030" unicode="&#x41c;" horiz-adv-x="997" 
d="M479 154l307 566h207c2 -14 0 -25 -4 -36l-91 -25l-49 -598l91 -25c2 -12 1 -24 -3 -36h-287c-2 12 -1 24 3 36l91 25l43 519h-4l-308 -565l-71 -25l-11 10l-94 579h-4l-142 -519l86 -24c1 -12 -1 -24 -6 -36h-234c-1 12 0 24 5 36l83 23l162 600l-92 25c-2 13 0 25 4 36
h222l92 -566h4z" />
    <glyph glyph-name="afii10031" unicode="&#x41d;" horiz-adv-x="797" 
d="M642 659l-88 25c-2 13 0 25 4 36h282c2 -13 0 -25 -4 -36l-88 -25l-109 -598l88 -25c2 -12 1 -24 -3 -36h-282c-2 12 -1 24 3 36l88 25l52 287h-323l-52 -287l88 -25c2 -12 1 -24 -3 -36h-282c-2 12 -1 24 3 36l88 25l109 598l-88 25c-2 13 0 25 4 36h282
c2 -13 0 -25 -4 -36l-88 -25l-46 -248h323z" />
    <glyph glyph-name="afii10032" unicode="&#x41e;" horiz-adv-x="724" 
d="M442 667c-193 0 -263 -229 -263 -394c0 -103 36 -221 162 -221c192 0 258 238 258 400c0 100 -33 215 -157 215zM449 730c180 0 259 -119 259 -278c0 -227 -120 -462 -380 -462c-179 0 -258 128 -258 285c0 225 125 455 379 455z" />
    <glyph glyph-name="afii10033" unicode="&#x41f;" horiz-adv-x="787" 
d="M213 659l-88 25c-2 13 0 25 4 36h701c2 -13 0 -26 -4 -36l-88 -25l-109 -598l88 -25c2 -12 1 -24 -3 -36h-282c-2 12 -1 25 3 36l88 25l108 596h-313l-108 -596l88 -25c2 -12 1 -24 -3 -36h-282c-2 12 -1 25 3 36l88 25z" />
    <glyph glyph-name="afii10034" unicode="&#x420;" horiz-adv-x="628" 
d="M104 61l109 598l-88 25c-2 13 0 25 4 36h187c162 0 314 -32 314 -196c0 -193 -159 -265 -342 -265h-42l-36 -198l88 -25c2 -12 1 -24 -3 -36h-282c-2 12 -1 24 3 36zM318 657l-61 -336h29c132 0 234 60 234 193c0 106 -69 143 -190 143h-12z" />
    <glyph glyph-name="afii10035" unicode="&#x421;" horiz-adv-x="647" 
d="M502 81l60 118c16 3 32 3 48 0l-28 -143c-59 -41 -144 -66 -226 -66c-180 0 -286 110 -286 297c0 243 161 443 414 443c64 0 127 -15 172 -46l-21 -145c-16 -3 -32 -3 -48 0l-19 114c-26 10 -54 14 -84 14c-201 0 -305 -187 -305 -381c0 -137 75 -227 211 -227
c38 0 78 8 112 22z" />
    <glyph glyph-name="afii10036" unicode="&#x422;" horiz-adv-x="637" 
d="M237 61l108 596h-154l-48 -106c-16 -3 -32 -3 -48 0l22 169h581l-28 -169c-17 -3 -33 -3 -48 0l-16 106h-155l-108 -596l88 -25c2 -12 1 -24 -3 -36h-282c-2 12 -1 24 3 36z" />
    <glyph glyph-name="afii10037" unicode="&#x423;" horiz-adv-x="667" 
d="M397 303h4l211 358l-85 23c-2 13 0 25 4 36h230c2 -13 0 -25 -4 -36l-73 -24l-234 -396c-97 -164 -175 -276 -330 -276c-10 0 -23 1 -31 2v155c17 3 33 3 48 0l25 -76c61 3 120 49 166 116l-161 476l-71 23c-2 13 0 25 4 36h275c2 -13 0 -26 -4 -36l-92 -25z" />
    <glyph glyph-name="afii10038" unicode="&#x424;" horiz-adv-x="788" 
d="M422 659l-88 25c-2 13 0 25 4 36h282c2 -13 0 -26 -4 -36l-88 -25l-8 -48c149 -13 252 -84 252 -230c0 -186 -152 -265 -343 -272l-9 -48l88 -25c2 -12 1 -24 -3 -36h-282c-2 12 -1 24 3 36l88 25l9 49c-146 13 -253 85 -253 227c0 193 154 267 344 276zM179 340
c0 -100 51 -167 152 -180l74 404c-140 -6 -226 -79 -226 -224zM663 385c0 95 -52 163 -152 176l-74 -404c137 9 226 85 226 228z" />
    <glyph glyph-name="afii10039" unicode="&#x425;" horiz-adv-x="690" 
d="M403 437l181 222l-78 25c-2 12 0 25 4 36h236c2 -13 0 -25 -4 -36l-74 -20l-236 -292l142 -313l75 -23c2 -12 1 -25 -3 -36h-283c-2 12 0 25 4 36l91 25l-111 244l-199 -247l77 -22c2 -12 1 -24 -3 -36h-238c-2 12 -1 24 3 36l79 21l251 312l-132 292l-80 23
c-2 13 0 25 4 36h281c2 -13 0 -26 -4 -36l-83 -25z" />
    <glyph glyph-name="afii10040" unicode="&#x426;" horiz-adv-x="787" 
d="M632 659l-88 25c-2 13 0 25 4 36h282c2 -13 0 -26 -4 -36l-88 -25l-109 -596h89l-32 -203c-16 -3 -32 -3 -48 0l-30 140h-595c-2 12 -1 24 3 36l88 25l109 598l-88 25c-2 13 0 25 4 36h282c2 -13 0 -26 -4 -36l-88 -25l-109 -596h313z" />
    <glyph glyph-name="afii10041" unicode="&#x427;" horiz-adv-x="717" 
d="M513 356l56 303l-86 25c-2 13 0 25 4 36h280c2 -13 0 -26 -4 -36l-88 -25l-109 -598l88 -25c2 -12 1 -24 -3 -36h-282c-2 12 -1 24 3 36l88 25l42 236c-31 -12 -96 -26 -166 -26c-128 0 -203 59 -203 163c0 15 2 31 5 48l34 177l-84 25c-1 11 0 24 4 36h272
c2 -13 0 -26 -4 -36l-82 -25l-25 -133c-6 -32 -10 -60 -10 -84c0 -67 30 -104 136 -104c42 0 89 7 134 18z" />
    <glyph glyph-name="afii10042" unicode="&#x428;" horiz-adv-x="1052" 
d="M897 659l-75 25c-2 13 0 25 4 36h269c2 -13 0 -26 -4 -36l-88 -25l-109 -598l88 -25c2 -13 1 -24 -3 -36h-966c-2 13 -1 24 3 36l88 25l109 598l-88 25c-2 13 0 25 4 36h275c2 -13 0 -26 -4 -36l-81 -25l-109 -596h236l109 596l-68 25c-2 13 0 25 4 36h248
c2 -13 0 -26 -4 -36l-74 -25l-109 -596h236z" />
    <glyph glyph-name="afii10043" unicode="&#x429;" horiz-adv-x="1052" 
d="M873 0h-860c-2 13 -1 25 3 36l88 25l109 598l-88 25c-2 13 0 25 4 36h275c2 -13 0 -26 -4 -36l-81 -25l-109 -596h236l109 596l-68 25c-2 13 0 25 4 36h248c2 -13 0 -26 -4 -36l-74 -25l-109 -596h236l109 596l-75 25c-2 13 0 25 4 36h269c2 -13 0 -26 -4 -36l-88 -25
l-109 -596h89l-32 -203c-16 -3 -32 -3 -48 0z" />
    <glyph glyph-name="afii10044" unicode="&#x42a;" horiz-adv-x="686" 
d="M117 720h403c2 -13 0 -26 -4 -36l-92 -25l-43 -237h37c140 0 247 -35 247 -181c0 -197 -177 -241 -365 -241h-182c-2 12 0 25 4 36l88 25l108 596h-127l-48 -106c-15 -3 -32 -3 -48 0zM369 360l-53 -298c138 0 240 40 240 172c0 113 -72 125 -187 126z" />
    <glyph glyph-name="afii10045" unicode="&#x42b;" horiz-adv-x="899" 
d="M213 659l-88 25c-2 13 0 25 4 36h282c2 -13 0 -26 -4 -36l-88 -25l-44 -237h36c144 0 248 -36 248 -179c0 -200 -177 -243 -365 -243h-181c-2 12 -1 24 3 36l88 25zM264 360l-54 -298c141 0 239 39 239 177c0 107 -73 121 -185 121zM744 659l-88 25c-2 13 0 25 4 36h282
c2 -13 0 -25 -4 -36l-88 -25l-109 -598l88 -25c2 -12 1 -24 -3 -36h-282c-2 12 -1 24 3 36l88 25z" />
    <glyph glyph-name="afii10046" unicode="&#x42c;" horiz-adv-x="580" 
d="M213 659l-88 25c-2 13 0 25 4 36h282c2 -13 0 -26 -4 -36l-88 -25l-44 -237h36c144 0 248 -36 248 -179c0 -200 -177 -243 -365 -243h-181c-2 12 -1 24 3 36l88 25zM264 360l-54 -298c141 0 239 39 239 177c0 107 -73 121 -185 121z" />
    <glyph glyph-name="afii10047" unicode="&#x42d;" horiz-adv-x="654" 
d="M111 205l22 -122c34 -19 74 -28 112 -28c167 0 257 144 279 296l-360 -8c-1 24 3 51 11 72l354 -8v16c0 137 -76 246 -222 246c-30 0 -61 -6 -89 -17l-35 -111c-15 -3 -32 -3 -48 0v142c58 30 130 47 199 47c201 0 304 -130 304 -311c0 -242 -137 -429 -396 -429
c-75 0 -150 22 -206 74l27 141c17 4 33 4 48 0z" />
    <glyph glyph-name="afii10048" unicode="&#x42e;" horiz-adv-x="997" 
d="M728 667c-175 0 -237 -233 -237 -400c0 -103 35 -215 144 -215c178 0 236 241 236 403c0 92 -27 212 -143 212zM213 659l-88 25c-2 13 0 25 4 36h282c2 -13 0 -26 -4 -36l-88 -25l-46 -248h123c38 175 150 319 338 319c178 0 247 -124 247 -277
c0 -224 -109 -463 -360 -463c-158 0 -240 119 -240 277c0 27 1 53 5 81h-124l-52 -287l88 -25c2 -12 1 -24 -3 -36h-282c-2 12 -1 24 3 36l88 25z" />
    <glyph glyph-name="afii10049" unicode="&#x42f;" horiz-adv-x="710" 
d="M446 353h53l55 304h-47c-132 0 -218 -42 -218 -177c0 -95 62 -127 157 -127zM661 659l-109 -598l88 -25c2 -12 1 -24 -3 -36h-281c-2 12 -1 24 3 36l87 25l43 233h-48c-43 0 -74 -30 -98 -60l-192 -234h-173c-2 13 0 26 4 36l86 24l159 194c23 29 50 48 94 57v4
c-92 9 -142 79 -142 165c0 199 164 240 350 240h224c2 -13 0 -26 -4 -36z" />
    <glyph glyph-name="afii10065" unicode="&#x430;" horiz-adv-x="604" 
d="M422 427l8 47c-17 7 -35 10 -54 10c-149 0 -219 -188 -219 -324c0 -45 9 -92 52 -92c96 0 195 254 213 359zM505 540h40l-89 -482l83 10c5 -14 7 -30 6 -44l-140 -32c-47 -11 -60 16 -53 53l23 123h-4c-36 -78 -107 -178 -205 -178c-87 0 -113 89 -113 167
c0 177 112 383 297 383c34 0 70 -8 98 -25c13 20 33 25 57 25z" />
    <glyph glyph-name="afii10066" unicode="&#x431;" horiz-adv-x="585" 
d="M339 463c-131 0 -177 -147 -177 -263c0 -68 23 -150 106 -150c131 0 179 152 179 264c0 68 -24 149 -108 149zM153 432l4 -1c48 61 121 93 194 93c136 0 200 -88 200 -210c0 -173 -95 -324 -292 -324c-149 0 -200 106 -200 237c0 154 59 355 177 435c71 48 174 54 282 58
l20 40c14 1 25 -2 34 -7l-12 -78c-6 -42 -40 -44 -64 -45l-46 -2c-143 -6 -238 -19 -297 -196z" />
    <glyph glyph-name="afii10067" unicode="&#x432;" horiz-adv-x="564" 
d="M267 480l-34 -178c81 4 185 11 185 99c0 65 -64 80 -121 81c-10 0 -21 -1 -30 -2zM264 47c71 0 138 46 138 117c0 70 -63 89 -125 89c-19 0 -37 -1 -54 -4l-23 -119c-11 -59 18 -83 64 -83zM91 92l71 370h-74c-5 12 -6 25 -5 37c51 18 149 41 240 41
c83 0 199 -23 199 -122c0 -68 -59 -121 -126 -132l-1 -4c77 -9 117 -55 117 -113c0 -129 -149 -179 -257 -179c-84 0 -178 31 -164 102z" />
    <glyph glyph-name="afii10070" unicode="&#x435;" horiz-adv-x="526" 
d="M167 288l1 -4l163 53c52 17 78 30 78 74c0 45 -27 70 -68 70c-98 0 -155 -97 -174 -193zM157 200c0 -94 51 -136 123 -136c58 0 124 27 165 61c12 -11 21 -23 27 -38c-55 -62 -140 -97 -223 -97c-105 0 -196 60 -196 199c0 181 116 351 301 351c96 0 150 -64 150 -145
c0 -26 -5 -51 -15 -77l-331 -87c-1 -10 -1 -21 -1 -31z" />
    <glyph glyph-name="afii10072" unicode="&#x436;" horiz-adv-x="839" 
d="M525 530l-98 -524l-94 -16l-9 10l98 524l93 16zM361 269l-189 -218c-43 -49 -106 -65 -168 -66l-7 11l284 320l-45 69c-32 49 -56 80 -83 80c-12 0 -26 -5 -44 -19c-9 8 -17 19 -20 29c26 25 73 65 105 65s48 -32 64 -64zM633 19l-145 250l173 209c26 32 53 62 89 62
c29 0 63 -28 88 -57c-3 -10 -10 -21 -20 -29c-15 7 -31 12 -45 12c-27 0 -56 -17 -93 -57l-97 -106l137 -234l66 30c9 -9 17 -23 20 -38l-93 -58c-10 -6 -25 -13 -38 -13c-17 0 -31 10 -42 29z" />
    <glyph glyph-name="afii10073" unicode="&#x437;" horiz-adv-x="481" 
d="M32 91c31 -22 86 -37 140 -37c72 0 141 28 141 105c0 59 -56 86 -108 86h-70c0 20 3 40 9 60h52c63 0 142 20 142 97c0 60 -53 79 -106 79c-25 0 -50 -5 -70 -11l-24 -84c-15 -3 -31 -3 -46 0v115c41 22 110 39 176 39c83 0 174 -37 174 -128c0 -70 -59 -121 -125 -132
v-4c60 -10 101 -62 101 -120c0 -120 -122 -166 -229 -166c-70 0 -140 19 -182 56c5 16 14 33 25 45z" />
    <glyph glyph-name="afii10074" unicode="&#x438;" horiz-adv-x="652" 
d="M504 58l84 10c5 -14 6 -30 5 -43l-139 -33c-44 -10 -61 14 -54 52l25 133l-4 1c-40 -89 -106 -188 -216 -188c-78 0 -109 58 -109 131c0 21 3 43 7 64l53 287h-74c-5 15 -6 29 -5 44l132 23c44 8 59 -15 52 -53l-49 -261c-5 -26 -11 -61 -11 -89c0 -39 11 -70 50 -70
c105 0 208 300 225 391l13 71l94 12l9 -10z" />
    <glyph glyph-name="afii10075" unicode="&#x439;" horiz-adv-x="652" 
d="M504 58l84 10c5 -14 6 -30 5 -43l-139 -33c-44 -10 -61 14 -54 52l25 133l-4 1c-40 -89 -106 -188 -216 -188c-78 0 -109 58 -109 131c0 21 3 43 7 64l53 287h-74c-5 15 -6 29 -5 44l132 23c44 8 59 -15 52 -53l-49 -261c-5 -26 -11 -61 -11 -89c0 -39 11 -70 50 -70
c105 0 208 300 225 391l13 71l94 12l9 -10zM251 740c12 2 23 3 35 3s24 -1 36 -3c-4 -45 7 -86 52 -86c51 0 78 36 87 86c11 2 23 3 36 3c12 0 25 -1 36 -3c-15 -86 -75 -145 -163 -145c-79 0 -130 61 -119 145z" />
    <glyph glyph-name="afii10076" unicode="&#x43a;" horiz-adv-x="598" 
d="M270 485l-89 -483l-93 -12l-9 10l87 472h-74c-5 14 -6 29 -5 44l132 23c47 8 58 -17 51 -54zM375 43l-131 228l175 210c26 31 54 59 87 59c29 0 65 -30 91 -59c-3 -11 -10 -21 -20 -30c-16 10 -32 15 -47 15c-31 0 -57 -17 -101 -63l-91 -97l138 -237l74 34
c9 -10 16 -23 20 -38l-85 -54c-22 -14 -39 -21 -53 -21c-24 0 -39 22 -57 53z" />
    <glyph glyph-name="afii10077" unicode="&#x43b;" horiz-adv-x="637" 
d="M561 474l-78 -416l84 10c5 -14 6 -30 5 -43l-139 -33c-47 -11 -60 16 -53 53l77 424h-151l-11 -46c-42 -185 -94 -428 -274 -433l-5 4v134c13 7 29 10 44 11l22 -67c88 43 136 275 161 402l-83 20c-1 12 0 24 5 36h472c2 -13 0 -25 -4 -36z" />
    <glyph glyph-name="afii10078" unicode="&#x43c;" horiz-adv-x="870" 
d="M864 497l-72 -23l-74 -416l84 10c5 -14 6 -30 5 -43l-139 -33c-47 -11 -59 16 -53 53l72 412h-5l-275 -452l-61 -15l-12 8l-44 459h-4l-14 -66c-39 -183 -87 -381 -247 -396l-5 4v134c14 7 28 10 44 11l23 -61c76 55 113 251 137 379h-73c-5 14 -6 28 -5 43l171 32
c54 10 67 -8 73 -74l29 -314h5l225 369l220 22c2 -15 1 -29 -5 -43z" />
    <glyph glyph-name="afii10079" unicode="&#x43d;" horiz-adv-x="662" 
d="M601 530l-87 -472l84 10c5 -14 6 -30 5 -43l-140 -33c-46 -11 -60 16 -53 53l38 205h-221l-45 -248l-94 -12l-9 10l87 472h-74c-5 15 -6 29 -5 44l132 23c50 9 57 -20 51 -54l-32 -174h221l40 217l93 12z" />
    <glyph glyph-name="afii10080" unicode="&#x43e;" horiz-adv-x="579" 
d="M335 479c-129 0 -178 -158 -178 -271c0 -67 20 -158 106 -158c130 0 178 156 178 268c0 66 -22 161 -106 161zM253 -10c-141 0 -200 102 -200 222c0 172 101 328 293 328c142 0 199 -102 199 -221c0 -171 -92 -329 -292 -329z" />
    <glyph glyph-name="afii10081" unicode="&#x43f;" horiz-adv-x="659" 
d="M567 347l-53 -289l83 10c5 -14 7 -30 6 -43l-140 -33c-47 -11 -60 16 -53 53l48 262c6 32 10 60 10 84c0 50 -19 70 -44 70c-109 0 -207 -278 -229 -385l-15 -74l-92 -12l-9 10l87 472h-74c-5 15 -6 29 -5 44l132 23c50 9 57 -20 51 -54l-24 -131l4 -1
c44 95 113 187 209 187c78 0 114 -53 114 -133c0 -19 -2 -39 -6 -60z" />
    <glyph glyph-name="afii10082" unicode="&#x440;" horiz-adv-x="610" 
d="M204 122l-11 -55c24 -8 47 -12 72 -12c148 0 207 170 207 304c0 40 -6 101 -56 101c-91 0 -185 -198 -212 -338zM184 20l-27 -152l83 10c5 -14 7 -30 6 -43l-140 -33c-47 -11 -60 16 -53 53l113 617h-74c-5 15 -6 29 -5 44l132 23c50 9 57 -20 51 -54l-20 -112l4 -1
c37 80 107 166 200 166c97 0 122 -101 122 -178c0 -184 -105 -360 -290 -360c-34 0 -67 5 -102 20z" />
    <glyph glyph-name="afii10083" unicode="&#x441;" horiz-adv-x="501" 
d="M465 87c-56 -64 -136 -97 -216 -97c-107 0 -196 62 -196 199c0 181 127 351 311 351c42 0 91 -10 130 -35l-17 -122c-15 -3 -31 -3 -46 0l-13 87c-17 6 -35 9 -53 9c-141 0 -208 -157 -208 -279c0 -92 50 -135 121 -135c56 0 119 25 160 60c12 -11 21 -23 27 -38z" />
    <glyph glyph-name="afii10084" unicode="&#x442;" horiz-adv-x="964" 
d="M872 347l-53 -289l84 10c5 -14 6 -30 5 -43l-140 -33c-46 -11 -60 16 -53 53l49 259c7 37 9 66 9 90c0 48 -17 67 -39 67c-106 0 -205 -285 -225 -381l-16 -78l-91 -12l-10 10l57 307c6 32 10 62 10 87c0 47 -19 67 -43 67c-99 0 -200 -279 -221 -385l-15 -74l-92 -12
l-9 10l87 472h-74c-5 15 -6 29 -5 44l132 23c50 9 57 -20 51 -54l-24 -131l4 -1c44 95 109 187 205 187c62 0 111 -36 111 -126c0 -19 -2 -38 -6 -60l4 -1c43 96 109 187 205 187c76 0 109 -54 109 -131c0 -19 -2 -40 -6 -62z" />
    <glyph glyph-name="afii10085" unicode="&#x443;" horiz-adv-x="546" 
d="M240 -9l-125 447l-64 -36c-10 8 -19 19 -26 35l88 77c19 16 34 26 52 26c24 0 34 -19 43 -53l105 -383h4c74 129 122 293 122 343c0 23 -8 47 -18 70c13 13 24 21 45 28c29 -20 60 -59 60 -91c0 -116 -263 -654 -486 -654c-41 0 -70 19 -88 64c11 18 26 35 45 50
c22 -29 42 -41 69 -41c62 0 122 52 174 118z" />
    <glyph glyph-name="afii10086" unicode="&#x444;" horiz-adv-x="824" 
d="M398 420l10 55c-17 6 -31 8 -47 8c-155 0 -204 -192 -204 -314c0 -35 3 -91 46 -91c80 0 175 231 195 342zM444 121l-10 -54c17 -8 33 -12 50 -12c146 0 203 177 203 302c0 35 -4 104 -49 104c-86 0 -174 -230 -194 -340zM424 18l-27 -150l83 10c5 -14 7 -30 6 -43
l-140 -33c-47 -11 -60 16 -53 53l57 309l-4 1c-35 -80 -92 -165 -182 -165s-111 90 -111 163c0 165 97 377 286 377c26 0 53 -4 78 -16l31 168h-74c-5 13 -7 29 -5 44l132 23c50 9 57 -20 51 -54l-60 -325l4 -1c37 79 92 161 180 161c96 0 114 -105 114 -179
c0 -169 -99 -361 -287 -361c-27 0 -54 5 -79 18z" />
    <glyph glyph-name="afii10087" unicode="&#x445;" horiz-adv-x="596" 
d="M270 256l-90 183l-63 -38c-11 7 -20 18 -28 33l92 90c12 12 25 17 38 17c20 0 29 -12 40 -34l79 -160c58 80 146 193 180 193c26 0 62 -29 81 -53c-4 -12 -11 -22 -19 -30c-12 4 -22 7 -32 7c-56 0 -138 -106 -185 -168l109 -220l71 46c11 -11 18 -24 23 -37l-88 -77
c-14 -12 -29 -18 -45 -18c-28 0 -41 22 -57 54l-81 161c-59 -84 -154 -215 -209 -215c-22 0 -60 26 -85 66c5 12 12 22 20 29c17 -11 32 -16 47 -16c39 0 99 48 202 187z" />
    <glyph glyph-name="afii10088" unicode="&#x446;" horiz-adv-x="660" 
d="M592 530l-88 -474l75 9c27 3 38 -4 38 -24c0 -37 -48 -138 -76 -183c-16 -3 -31 -3 -46 0l27 146l-3 3l-65 -15c-47 -11 -60 16 -53 53l24 133l-4 1c-40 -89 -105 -189 -216 -189c-83 0 -108 64 -108 133c0 19 2 42 6 62l53 287h-74c-5 15 -6 29 -5 44l132 23
c50 9 57 -19 51 -54l-48 -260c-4 -22 -12 -60 -12 -90c0 -37 11 -69 51 -69c103 0 208 294 226 394l12 68l94 12z" />
    <glyph glyph-name="afii10089" unicode="&#x447;" horiz-adv-x="618" 
d="M470 58l83 10c5 -14 7 -30 6 -43l-140 -33c-46 -11 -60 15 -53 53l38 216l-4 1c-44 -59 -105 -97 -180 -97c-91 0 -118 61 -118 132c0 23 3 47 7 70l20 105h-74c-5 14 -7 29 -5 44l132 23c50 9 57 -20 51 -54l-14 -77c-5 -28 -12 -63 -12 -93c0 -40 12 -73 54 -73
c84 0 154 73 176 189l18 97l93 12l9 -10z" />
    <glyph glyph-name="afii10090" unicode="&#x448;" horiz-adv-x="958" 
d="M810 58l84 10c5 -14 6 -30 5 -43l-140 -33c-46 -11 -60 16 -53 53l25 133h-4c-40 -89 -99 -188 -210 -188c-81 0 -105 62 -105 130c0 19 2 38 5 58h-4c-40 -88 -100 -188 -210 -188c-81 0 -106 63 -106 131c0 19 2 44 6 64l53 287h-74c-5 15 -6 29 -5 44l132 23
c50 9 57 -20 51 -54l-48 -260c-3 -19 -10 -55 -10 -87c0 -38 10 -72 46 -72c102 0 201 298 219 391l14 71l93 12l9 -10l-59 -321c-4 -24 -7 -49 -7 -72c0 -42 12 -71 45 -71c103 0 203 297 220 391l13 71l93 12l9 -10z" />
    <glyph glyph-name="afii10091" unicode="&#x449;" horiz-adv-x="965" 
d="M897 530l-87 -473l74 9c27 3 38 -5 38 -24c0 -37 -46 -135 -76 -182c-15 -3 -32 -3 -46 0l27 144l-3 4l-65 -16c-43 -11 -60 16 -53 53l25 133h-4c-40 -89 -99 -188 -210 -188c-81 0 -105 62 -105 130c0 19 2 38 5 58h-4c-40 -88 -100 -188 -210 -188
c-81 0 -106 63 -106 131c0 19 2 44 6 64l53 287h-74c-5 15 -6 29 -5 44l132 23c50 9 57 -20 51 -54l-48 -260c-3 -19 -10 -55 -10 -87c0 -38 10 -72 46 -72c97 0 202 300 219 391l14 71l93 12l9 -10l-59 -321c-4 -24 -7 -49 -7 -72c0 -42 12 -71 45 -71
c97 0 202 299 220 391l13 71l93 12z" />
    <glyph glyph-name="afii10092" unicode="&#x44a;" horiz-adv-x="587" 
d="M301 49c83 0 147 72 147 156c0 45 -31 61 -70 61c-30 0 -61 -8 -82 -15l-28 -155c-7 -36 10 -47 33 -47zM166 92l68 377h-107l-32 -72c-15 -4 -31 -4 -46 0l20 133h350c1 -12 -1 -25 -6 -36l-75 -20l-31 -169c34 12 80 22 124 22c73 0 122 -33 122 -105
c0 -149 -148 -232 -286 -232c-83 0 -114 32 -101 102z" />
    <glyph glyph-name="afii10093" unicode="&#x44b;" horiz-adv-x="793" 
d="M633 528l93 12l9 -10l-87 -472l84 10c5 -14 6 -30 5 -43l-140 -33c-46 -11 -60 16 -53 53zM231 49c83 0 147 72 147 156c0 45 -31 61 -70 61c-30 0 -61 -8 -82 -15l-28 -155c-7 -36 10 -47 33 -47zM270 487l-33 -182c34 12 80 22 124 22c73 0 122 -33 122 -105
c0 -149 -148 -232 -286 -232c-83 0 -114 32 -101 102l69 380h-73c-5 15 -6 29 -5 44l132 23c50 9 57 -20 51 -52z" />
    <glyph glyph-name="afii10094" unicode="&#x44c;" horiz-adv-x="517" 
d="M231 49c83 0 147 72 147 156c0 45 -31 61 -70 61c-30 0 -61 -8 -82 -15l-28 -155c-7 -36 10 -47 33 -47zM270 487l-33 -182c34 12 80 22 124 22c73 0 122 -33 122 -105c0 -149 -148 -232 -286 -232c-83 0 -114 32 -101 102l69 380h-73c-5 15 -6 29 -5 44l132 23
c50 9 57 -20 51 -52z" />
    <glyph glyph-name="afii10095" unicode="&#x44d;" horiz-adv-x="500" 
d="M18 33c4 18 12 33 23 45c36 -14 73 -21 108 -21c109 0 189 69 206 185l-229 -5c-1 23 2 48 11 68l222 -6c-2 96 -38 181 -138 181c-20 0 -41 -3 -62 -10l-25 -84c-15 -3 -31 -3 -46 0v118c50 24 104 37 156 37c143 0 222 -109 222 -238c0 -177 -111 -313 -298 -313
c-55 0 -109 14 -150 43z" />
    <glyph glyph-name="afii10096" unicode="&#x44e;" horiz-adv-x="832" 
d="M598 479c-120 0 -165 -156 -165 -273c0 -69 18 -156 96 -156c124 0 165 163 165 269c0 62 -18 160 -96 160zM331 245h-105l-44 -243l-94 -12l-9 10l87 472h-74c-5 15 -6 29 -5 44l132 23c50 9 57 -20 51 -54l-33 -179h102c29 134 123 234 270 234
c139 0 189 -108 189 -224c0 -166 -87 -326 -278 -326c-132 0 -191 94 -191 216c0 13 1 26 2 39z" />
    <glyph glyph-name="afii10097" unicode="&#x44f;" horiz-adv-x="604" 
d="M346 282h50l35 196c-15 2 -30 2 -45 2c-79 0 -164 -21 -164 -112c0 -67 65 -86 124 -86zM456 58l84 10c5 -14 6 -30 5 -43l-139 -33c-49 -12 -60 18 -54 53l34 187h-16c-27 0 -51 -17 -78 -49l-97 -113c-54 -63 -121 -85 -185 -85l-9 13l176 199c25 28 51 35 74 38v4
c-75 6 -132 52 -132 128c0 122 114 173 235 173c35 0 70 -4 102 -13l78 13l10 -10z" />
    <glyph glyph-name="afii10071" unicode="&#x451;" horiz-adv-x="526" 
d="M167 288l1 -4l163 53c52 17 78 30 78 74c0 45 -27 70 -68 70c-98 0 -155 -97 -174 -193zM157 200c0 -94 51 -136 123 -136c58 0 124 27 165 61c12 -11 21 -23 27 -38c-55 -62 -140 -97 -223 -97c-105 0 -196 60 -196 199c0 181 116 351 301 351c96 0 150 -64 150 -145
c0 -26 -5 -51 -15 -77l-331 -87c-1 -10 -1 -21 -1 -31zM196 721c16 3 38 5 59 5c12 0 26 -1 36 -2c1 -33 -5 -67 -20 -98c-16 -4 -34 -6 -52 -6c-13 0 -26 1 -38 3c-2 32 2 66 15 98zM390 721c16 3 38 5 59 5c12 0 26 -1 36 -2c1 -33 -5 -67 -20 -98c-16 -4 -34 -6 -52 -6
c-13 0 -26 1 -38 3c-2 32 2 66 15 98z" />
    <glyph glyph-name="afii10099" unicode="&#x452;" horiz-adv-x="612" 
d="M64 0l107 584h-74c0 9 1 20 5 30l77 20l12 59h-74c-5 14 -6 29 -5 43l132 23c50 9 57 -19 51 -53l-13 -72h133c0 -18 -3 -34 -9 -50h-133l-44 -238l4 -1c43 91 110 174 206 174c95 0 115 -95 115 -171c0 -141 -41 -323 -122 -434c-54 -74 -137 -112 -229 -118
c-6 11 -8 22 -8 35c189 52 256 319 256 499c0 52 -9 110 -52 110c-90 0 -189 -212 -221 -372l-13 -66l-92 -12z" />
    <glyph glyph-name="afii10100" unicode="&#x453;" horiz-adv-x="482" 
d="M408 111c12 -12 20 -25 25 -39c-58 -54 -140 -82 -226 -82c-90 0 -170 34 -170 135c0 112 107 134 196 167c55 21 125 55 125 115c0 53 -50 72 -100 72c-29 0 -58 -6 -78 -16l-25 -84c-15 -3 -31 -3 -46 0v121c42 21 116 40 185 40c89 0 168 -31 168 -125
c0 -186 -320 -148 -320 -282c0 -59 44 -76 95 -76c65 0 124 23 171 54zM255 618l138 156c22 -15 42 -35 54 -57l-157 -134c-14 7 -27 19 -35 35z" />
    <glyph glyph-name="afii10101" unicode="&#x454;" horiz-adv-x="509" 
d="M465 87c-56 -64 -136 -97 -216 -97c-107 0 -196 62 -196 199c0 181 127 351 311 351c42 0 91 -10 130 -35l-17 -121c-15 -3 -31 -3 -46 0l-13 86c-17 6 -35 9 -53 9c-104 0 -168 -85 -194 -178l249 6c2 -24 -2 -49 -10 -69c-84 2 -167 4 -250 6c-2 -16 -3 -30 -3 -44
c0 -92 50 -135 121 -135c56 0 119 25 160 60c12 -11 21 -23 27 -38z" />
    <glyph glyph-name="afii10102" unicode="&#x455;" horiz-adv-x="499" 
d="M94 166l13 -90c24 -16 66 -26 108 -26c64 0 130 24 130 86c0 54 -80 76 -123 97c-62 29 -122 67 -122 148c0 116 106 159 211 159c62 0 124 -15 168 -40l-16 -120c-15 -3 -32 -3 -46 0l-14 84c-20 9 -52 15 -84 15c-60 0 -121 -21 -121 -78c0 -104 248 -92 248 -242
c0 -124 -127 -169 -234 -169c-67 0 -135 17 -182 51l17 125c13 2 31 3 47 0z" />
    <glyph glyph-name="afii10103" unicode="&#x456;" horiz-adv-x="340" 
d="M203 729c18 3 41 5 62 5c14 0 28 -1 39 -2c0 -35 -5 -71 -21 -104c-17 -4 -37 -6 -56 -6c-14 0 -28 1 -40 3c-2 35 3 69 16 104zM271 485l-79 -427l83 10c5 -14 7 -30 6 -43l-140 -33c-47 -11 -60 16 -53 53l79 427h-74c-5 15 -7 29 -5 44l132 23c50 9 57 -20 51 -54z
" />
    <glyph glyph-name="afii10104" unicode="&#x457;" horiz-adv-x="340" 
d="M271 485l-79 -427l83 10c5 -14 7 -30 6 -43l-140 -33c-47 -11 -60 16 -53 53l79 427h-74c-5 15 -7 29 -5 44l132 23c50 9 57 -20 51 -54zM91 721c16 3 38 5 59 5c12 0 26 -1 36 -2c1 -33 -5 -67 -20 -98c-16 -4 -34 -6 -52 -6c-13 0 -26 1 -38 3c-2 32 2 66 15 98z
M285 721c16 3 38 5 59 5c12 0 26 -1 36 -2c1 -33 -5 -67 -20 -98c-16 -4 -34 -6 -52 -6c-13 0 -26 1 -38 3c-2 32 2 66 15 98z" />
    <glyph glyph-name="afii10105" unicode="&#x458;" horiz-adv-x="328" 
d="M82 17l84 455h-74c-5 15 -6 29 -5 44l132 23c50 9 57 -20 51 -54l-93 -508c-23 -125 -103 -173 -215 -182c-6 11 -9 22 -9 36c89 28 109 78 129 186zM202 729c18 3 41 5 62 5c14 0 28 -1 39 -2c0 -35 -5 -71 -21 -104c-17 -4 -37 -6 -56 -6c-14 0 -28 1 -40 3
c-2 35 3 69 16 104z" />
    <glyph glyph-name="afii10106" unicode="&#x459;" horiz-adv-x="808" 
d="M456 469h-150c-47 -190 -87 -474 -285 -479l-5 4v134c13 7 29 10 44 11l22 -67c88 43 135 275 161 402l-83 20c-1 12 0 24 5 36h472c2 -13 0 -26 -4 -36l-74 -20l-31 -169c34 12 81 22 125 22c78 0 121 -36 121 -106c0 -148 -148 -231 -286 -231c-67 0 -115 21 -103 88z
M523 49c82 0 147 72 147 156c0 45 -31 61 -71 61c-29 0 -61 -8 -82 -15l-28 -155c-6 -36 10 -47 34 -47z" />
    <glyph glyph-name="afii10107" unicode="&#x45a;" horiz-adv-x="834" 
d="M548 49c83 0 147 72 147 156c0 45 -31 61 -70 61c-30 0 -61 -8 -82 -15l-28 -155c-7 -36 10 -47 33 -47zM441 250h-214l-46 -248l-97 -12l-6 5l88 477h-74c-5 15 -6 29 -5 44l132 23c50 9 57 -20 51 -54l-32 -174h215l39 217l99 12l5 -6l-42 -229c34 12 80 22 124 22
c79 0 122 -38 122 -108c0 -147 -151 -229 -286 -229c-72 0 -104 21 -104 72c0 9 1 19 3 30z" />
    <glyph glyph-name="afii10108" unicode="&#x45b;" horiz-adv-x="644" 
d="M549 333l-50 -275l83 10c5 -13 7 -30 6 -43l-140 -33c-47 -11 -60 16 -53 53l45 246c6 32 9 60 9 83c0 46 -14 66 -49 66c-88 0 -190 -210 -222 -372l-13 -66l-92 -12l-9 10l107 584h-74c0 9 1 20 5 30l77 20l12 59h-74c-5 14 -6 29 -5 43l132 23c49 9 57 -18 51 -53
l-13 -72h133c0 -18 -3 -34 -9 -50h-133l-44 -238l4 -1c45 94 110 174 208 174c62 0 114 -34 114 -126c0 -18 -2 -38 -6 -60z" />
    <glyph glyph-name="afii10109" unicode="&#x45c;" horiz-adv-x="598" 
d="M270 485l-89 -483l-93 -12l-9 10l87 472h-74c-5 14 -6 29 -5 44l132 23c47 8 58 -17 51 -54zM375 43l-131 228l175 210c26 31 54 59 87 59c29 0 65 -30 91 -59c-3 -11 -10 -21 -20 -30c-16 10 -32 15 -47 15c-31 0 -57 -17 -101 -63l-91 -97l138 -237l74 34
c9 -10 16 -23 20 -38l-85 -54c-22 -14 -39 -21 -53 -21c-24 0 -39 22 -57 53zM317 618l138 156c22 -15 42 -35 54 -57l-157 -134c-14 7 -27 19 -35 35z" />
    <glyph glyph-name="afii10110" unicode="&#x45e;" horiz-adv-x="546" 
d="M240 -9l-125 447l-64 -36c-10 8 -19 19 -26 35l88 77c19 16 34 26 52 26c24 0 34 -19 43 -53l105 -383h4c74 129 122 293 122 343c0 23 -8 47 -18 70c13 13 24 21 45 28c29 -20 60 -59 60 -91c0 -116 -263 -654 -486 -654c-41 0 -70 19 -88 64c11 18 26 35 45 50
c22 -29 42 -41 69 -41c62 0 122 52 174 118zM192 740c12 2 23 3 35 3s24 -1 36 -3c-4 -45 7 -86 52 -86c51 0 78 36 87 86c11 2 23 3 36 3c12 0 25 -1 36 -3c-15 -86 -75 -145 -163 -145c-79 0 -130 61 -119 145z" />
    <glyph glyph-name="afii10193" unicode="&#x45f;" horiz-adv-x="652" 
d="M258 -54l82 8l7 -8c-11 -45 -50 -131 -75 -165c-14 -5 -32 -7 -48 -5zM504 58l84 10c5 -14 6 -30 5 -43l-139 -33c-44 -10 -61 14 -54 52l25 133l-4 1c-40 -89 -106 -188 -216 -188c-78 0 -109 58 -109 131c0 21 3 43 7 64l53 287h-74c-5 15 -6 29 -5 44l132 23
c44 8 59 -15 52 -53l-49 -261c-5 -26 -11 -61 -11 -89c0 -39 11 -70 50 -70c105 0 208 300 225 391l13 71l94 12l9 -10z" />
    <glyph glyph-name="afii10050" unicode="&#x490;" horiz-adv-x="582" 
d="M635 657h-317l-108 -596l88 -25c2 -11 1 -24 -3 -36h-282c-2 12 -1 24 3 36l88 25l109 598l-91 25c-2 13 0 25 4 36h442l52 100c15 3 31 3 48 0l-27 -158z" />
    <glyph glyph-name="afii10098" unicode="&#x491;" horiz-adv-x="469" 
d="M105 530h317l37 80c15 3 31 3 46 0l-20 -137l-6 -5h-212l-86 -466l-93 -12l-9 10l87 474l-67 20c-1 12 1 25 6 36z" />
    <glyph glyph-name="afii61352" unicode="&#x2116;" horiz-adv-x="1036" 
d="M891 581c-84 0 -110 -119 -110 -193c0 -43 10 -98 62 -98c91 0 117 108 117 190c0 45 -16 101 -69 101zM698 396c0 127 69 235 200 235c95 0 146 -73 146 -159c0 -127 -74 -231 -206 -231c-94 0 -140 63 -140 155zM265 600h-4l-111 -600h-139c-2 12 -1 25 3 36l83 23
l111 602l-93 23c-2 12 0 25 4 36h220l161 -556h4l104 556h138c2 -13 0 -26 -4 -36l-81 -23l-120 -644l-84 -27l-14 5zM959 125h-280c0 21 2 41 9 60h280c0 -20 -2 -40 -9 -60z" />
    <glyph glyph-name="currency" unicode="&#xa4;" horiz-adv-x="577" 
d="M114 361c0 41 13 80 35 111l-113 104c14 24 32 42 55 55l104 -112c32 22 71 36 113 36s82 -14 114 -37l100 113c25 -15 45 -35 56 -56l-111 -103c22 -32 35 -70 35 -111c0 -42 -14 -81 -36 -113l112 -103c-14 -23 -33 -41 -55 -55l-102 113c-32 -23 -71 -36 -113 -36
s-81 13 -113 36l-103 -113c-22 13 -40 33 -56 56l113 102c-22 32 -35 71 -35 113zM193 361c0 -66 46 -123 115 -123c68 0 114 57 114 123s-46 123 -114 123c-69 0 -115 -57 -115 -123z" />
    <glyph glyph-name="caron.cap" unicode="&#xf6ca;" horiz-adv-x="400" 
d="M451 883l-164 -113h-10l-130 114c7 15 17 29 31 41l111 -75l138 75c11 -13 19 -27 24 -42z" />
    <glyph glyph-name="acute.cap" unicode="&#xf6c9;" horiz-adv-x="400" 
d="M194 815l186 110c17 -23 28 -47 35 -72l-199 -83c-11 14 -18 29 -22 45z" />
    <glyph glyph-name="afii10061" unicode="&#x40c;" horiz-adv-x="723" 
d="M679 0h-161l-228 367l1 6l295 294l-57 17c-2 12 0 25 4 36h238c2 -13 1 -24 -3 -36l-102 -28l-268 -263l206 -332l79 -25c2 -15 0 -26 -4 -36zM213 659l-88 25c-2 13 0 25 4 36h282c2 -13 0 -25 -4 -36l-88 -25l-109 -598l88 -25c2 -12 1 -24 -3 -36h-282
c-2 12 -1 24 3 36l88 25zM399 815l186 110c17 -23 28 -47 35 -72l-199 -83c-11 14 -18 29 -22 45z" />
    <glyph glyph-name="uni00AD" unicode="&#xad;" horiz-adv-x="406" 
d="M358 258h-289c0 23 3 47 11 72h289c1 -26 -3 -50 -11 -72z" />
    <glyph glyph-name="mu" unicode="&#xb5;" horiz-adv-x="652" 
d="M166 528l93 12l9 -10l-56 -305c-3 -18 -10 -52 -10 -85c0 -38 10 -74 48 -74c108 0 210 298 227 394l12 68l94 12l9 -10l-88 -472l84 10c5 -14 6 -30 5 -43l-139 -33c-47 -11 -60 16 -53 53l24 132l-4 1c-39 -83 -104 -188 -208 -188c-18 0 -36 5 -51 17h-4
c-16 -71 -26 -153 -26 -191c-18 -10 -39 -15 -61 -16c-8 20 -12 41 -12 74c0 57 13 145 44 311z" />
    <glyph glyph-name="divide" unicode="&#xf7;" horiz-adv-x="653" 
d="M596 238h-539c-2 11 -3 22 -3 34c0 11 1 23 3 35h539c2 -12 3 -23 3 -34c0 -12 -1 -25 -3 -35zM271 15c-3 18 -5 37 -5 56c0 17 2 36 5 53c17 3 36 5 55 5c18 0 38 -2 55 -5c3 -17 5 -35 5 -53c0 -19 -2 -39 -5 -56c-18 -3 -38 -5 -57 -5c-18 0 -37 2 -53 5zM271 421
c-3 18 -5 37 -5 56c0 17 2 36 5 53c17 3 36 5 55 5c18 0 38 -2 55 -5c3 -17 5 -35 5 -53c0 -19 -2 -39 -5 -56c-18 -3 -38 -5 -57 -5c-18 0 -37 2 -53 5z" />
    <glyph glyph-name="tilde" unicode="&#x2dc;" horiz-adv-x="400" 
d="M166 603c-20 -1 -37 2 -52 9c15 60 44 114 101 114c52 0 80 -55 121 -55c24 0 40 29 44 58c20 1 38 -2 51 -9c-6 -57 -41 -112 -99 -112c-57 0 -89 55 -121 55c-25 0 -40 -37 -45 -60z" />
    <glyph glyph-name="uni00A0" unicode="&#xa0;" horiz-adv-x="272" 
 />
    <glyph glyph-name="grave.cap" unicode="&#xf6ce;" horiz-adv-x="400" 
d="M211 925l186 -110c-4 -16 -11 -31 -22 -45l-199 83c7 25 19 49 35 72z" />
    <glyph glyph-name="dieresis.cap" unicode="&#xf6cb;" horiz-adv-x="400" 
d="M154 888c17 3 38 5 59 5c12 0 26 -1 36 -2c1 -33 -5 -67 -20 -98c-16 -4 -35 -6 -53 -6c-13 0 -26 1 -38 3c-1 32 3 66 16 98zM360 888c17 3 38 5 59 5c12 0 26 -1 36 -2c1 -33 -5 -67 -20 -98c-16 -4 -35 -6 -53 -6c-13 0 -26 1 -38 3c-1 32 3 66 16 98z" />
    <glyph glyph-name="macron.cap" unicode="&#xf6d0;" horiz-adv-x="400" 
d="M441 791h-286c-2 23 1 47 10 70h286c2 -24 -2 -47 -10 -70z" />
    <glyph glyph-name="hungarumlaut.cap" unicode="&#xf6cf;" horiz-adv-x="400" 
d="M144 807l109 118c21 -15 39 -34 52 -56l-126 -99c-15 9 -26 20 -35 37zM323 807l109 118c21 -15 39 -34 52 -56l-126 -99c-15 9 -26 20 -35 37z" />
    <glyph glyph-name="breve.cyr" unicode="&#xf6d4;" horiz-adv-x="400" 
d="M153 740c12 2 23 3 35 3s24 -1 36 -3c-4 -45 7 -86 52 -86c51 0 78 36 87 86c11 2 23 3 36 3c12 0 25 -1 36 -3c-15 -86 -75 -145 -163 -145c-79 0 -130 61 -119 145z" />
    <glyph glyph-name="breve.cyrcap" unicode="&#xf6d1;" horiz-adv-x="400" 
d="M149 913c12 2 24 3 36 3s25 -1 37 -3c-2 -46 15 -79 60 -79c48 0 75 30 83 79c13 2 26 3 39 3s28 -1 40 -3c-17 -88 -83 -136 -166 -136c-79 0 -133 46 -129 136z" />
    <glyph glyph-name="four.superior" unicode="&#x2074;" 
d="M225 515l11 66h-179l3 23l252 269h62l-47 -252h56l-7 -40h-56l-12 -66l55 -15l-4 -30h-213l4 30zM137 621h107l26 141l-4 1l-130 -139z" />
    <glyph glyph-name="five.superior" unicode="&#x2075;" 
d="M73 499l12 94h28l22 -76c17 -7 35 -11 51 -11c52 0 96 36 96 96c0 56 -44 74 -95 74c-23 0 -47 -4 -65 -7l-7 6l36 186l7 5h228l-10 -75h-195l-16 -76c13 2 27 3 41 3c81 0 161 -22 161 -107c0 -96 -85 -148 -175 -148c-43 0 -86 12 -119 36z" />
    <glyph glyph-name="six.superior" unicode="&#x2076;" 
d="M244 686c-44 0 -63 -52 -63 -106c0 -42 13 -75 47 -75c49 0 65 54 65 106c0 45 -13 75 -49 75zM198 711l3 -2c19 14 43 20 66 20c69 0 112 -48 112 -115c0 -87 -56 -151 -152 -151c-88 0 -130 61 -130 142c0 144 106 268 254 268c17 0 37 -2 50 -5l-12 -41
c-10 2 -21 3 -32 3c-69 0 -131 -46 -159 -119z" />
    <glyph glyph-name="seven.superior" unicode="&#x2077;" 
d="M130 866h257l-5 -34l-232 -371l-45 30l206 297l-2 3h-146l-21 -42h-28z" />
    <glyph glyph-name="eight.superior" unicode="&#x2078;" 
d="M77 569c0 48 37 85 84 101v4c-27 22 -46 50 -46 87c0 75 71 112 140 112c63 0 128 -32 128 -99c0 -43 -33 -81 -75 -97v-4c33 -21 60 -49 60 -91c0 -80 -80 -119 -154 -119c-65 0 -137 37 -137 106zM281 562c0 41 -43 64 -83 85c-26 -18 -38 -45 -38 -75
c0 -37 21 -67 60 -67c31 0 61 24 61 57zM196 781c0 -41 42 -65 75 -84c19 14 29 41 29 68c0 34 -16 67 -54 67c-25 0 -50 -18 -50 -51z" />
    <glyph glyph-name="nine.superior" unicode="&#x2079;" 
d="M245 831c-48 0 -62 -57 -62 -102c0 -35 10 -74 41 -74c48 0 65 56 65 99c0 38 -11 77 -44 77zM78 469l8 42c13 -3 24 -4 36 -4c69 0 130 42 151 121l-3 2c-18 -10 -39 -15 -60 -15c-69 0 -113 42 -113 111c0 84 54 147 149 147c94 0 129 -66 129 -143
c0 -139 -92 -267 -243 -267c-18 0 -37 2 -54 6z" />
    <glyph glyph-name="zero.superior" unicode="&#x2070;" 
d="M265 831c-75 0 -98 -150 -98 -222c0 -30 5 -104 47 -104c72 0 97 164 97 236c0 29 -6 90 -46 90zM274 873c93 0 124 -70 124 -147c0 -116 -58 -263 -196 -263c-90 0 -122 77 -122 152c0 116 55 258 194 258z" />
    <glyph glyph-name="n.superior" unicode="&#x207f;" horiz-adv-x="448" 
d="M410 538l-34 -187l57 5l4 -35l-98 -19c-37 -7 -46 12 -41 41l33 185c2 14 5 26 5 42c0 21 -6 41 -29 41c-70 0 -131 -192 -143 -246l-12 -55l-71 -9l-6 7l58 308h-54l-4 35l97 16c38 6 45 -10 40 -37l-12 -66h4c31 60 64 104 127 104s83 -43 83 -91c0 -11 -1 -25 -4 -39z
" />
    <glyph glyph-name="zero.inferior" unicode="&#x2080;" 
d="M202 224c-75 0 -98 -150 -98 -222c0 -30 5 -104 47 -104c72 0 97 164 97 236c0 29 -6 90 -46 90zM211 266c93 0 124 -70 124 -147c0 -116 -58 -263 -196 -263c-90 0 -122 77 -122 152c0 116 55 258 194 258z" />
    <glyph glyph-name="one.inferior" unicode="&#x2081;" 
d="M243 230l-59 -322l74 -15l-4 -30h-233l4 30l75 15l54 293h-86l-3 32l139 32c30 7 44 -6 39 -35z" />
    <glyph glyph-name="two.inferior" unicode="&#x2082;" 
d="M95 -62h180l-10 -75h-274l6 45l127 106c45 38 85 73 85 141c0 40 -23 69 -61 69c-12 0 -23 -2 -35 -8l-32 -84h-28v97c30 24 72 37 114 37c69 0 128 -35 128 -108c0 -85 -59 -123 -126 -167l-74 -49v-4z" />
    <glyph glyph-name="three.inferior" unicode="&#x2083;" 
d="M65 150v87c34 19 76 29 116 29c61 0 129 -22 129 -90c0 -55 -46 -95 -102 -100v-4c54 -5 89 -39 89 -87c0 -88 -86 -129 -167 -129c-46 0 -90 13 -122 38l11 90h28l17 -73c16 -8 36 -12 54 -12c49 0 91 30 91 86c0 50 -37 65 -83 65h-31l5 41h26c53 0 97 20 97 76
c0 40 -29 58 -66 58c-15 0 -29 -3 -42 -8l-22 -67h-28z" />
    <glyph glyph-name="four.inferior" unicode="&#x2084;" 
d="M159 -92l11 66h-179l3 23l252 269h62l-47 -252h56l-7 -40h-56l-12 -66l55 -15l-4 -30h-213l4 30zM71 14h107l26 141l-4 1l-130 -139z" />
    <glyph glyph-name="five.inferior" unicode="&#x2085;" 
d="M5 -108l12 94h28l22 -76c17 -7 35 -11 51 -11c52 0 96 36 96 96c0 56 -44 74 -95 74c-23 0 -47 -4 -65 -7l-7 6l36 186l7 5h228l-10 -75h-195l-16 -76c13 2 27 3 41 3c81 0 161 -22 161 -107c0 -96 -85 -148 -175 -148c-43 0 -86 12 -119 36z" />
    <glyph glyph-name="six.inferior" unicode="&#x2086;" 
d="M174 79c-44 0 -63 -52 -63 -106c0 -42 13 -75 47 -75c49 0 65 54 65 106c0 45 -13 75 -49 75zM128 104l3 -2c19 14 43 20 66 20c69 0 112 -48 112 -115c0 -87 -56 -151 -152 -151c-88 0 -130 61 -130 142c0 144 106 268 254 268c17 0 37 -2 50 -5l-12 -41
c-10 2 -21 3 -32 3c-69 0 -131 -46 -159 -119z" />
    <glyph glyph-name="seven.inferior" unicode="&#x2087;" 
d="M67 259h257l-5 -34l-232 -371l-45 30l206 297l-2 3h-146l-21 -42h-28z" />
    <glyph glyph-name="eight.inferior" unicode="&#x2088;" 
d="M18 -38c0 48 37 85 84 101v4c-27 22 -46 50 -46 87c0 75 71 112 140 112c63 0 128 -32 128 -99c0 -43 -33 -81 -75 -97v-4c33 -21 60 -49 60 -91c0 -80 -80 -119 -154 -119c-65 0 -137 37 -137 106zM222 -45c0 41 -43 64 -83 85c-26 -18 -38 -45 -38 -75
c0 -37 21 -67 60 -67c31 0 61 24 61 57zM137 174c0 -41 42 -65 75 -84c19 14 29 41 29 68c0 34 -16 67 -54 67c-25 0 -50 -18 -50 -51z" />
    <glyph glyph-name="nine.inferior" unicode="&#x2089;" 
d="M190 224c-48 0 -62 -57 -62 -102c0 -35 10 -74 41 -74c48 0 65 56 65 99c0 38 -11 77 -44 77zM23 -138l8 42c13 -3 24 -4 36 -4c69 0 130 42 151 121l-3 2c-18 -10 -39 -15 -60 -15c-69 0 -113 42 -113 111c0 84 54 147 149 147c94 0 129 -66 129 -143
c0 -139 -92 -267 -243 -267c-18 0 -37 2 -54 6z" />
    <glyph glyph-name="zero.oldstyle" unicode="&#xf730;" horiz-adv-x="559" 
d="M244 -10c-135 0 -191 92 -191 211c0 184 96 339 284 339c135 0 188 -102 188 -219c0 -168 -84 -331 -281 -331zM324 479c-124 0 -167 -164 -167 -273c0 -64 13 -156 96 -156c127 0 168 161 168 272c0 64 -16 157 -97 157z" />
    <glyph glyph-name="one.oldstyle" unicode="&#xf731;" horiz-adv-x="353" 
d="M284 479l-82 -423l105 -20c2 -12 0 -24 -4 -36h-310c-2 12 -1 24 3 36l104 20l78 403h-111c-5 12 -7 27 -6 44l163 35c52 11 69 -15 60 -59z" />
    <glyph glyph-name="two.oldstyle" unicode="&#xf732;" horiz-adv-x="481" 
d="M158 92h252c1 -31 -3 -61 -12 -92h-402l5 44l187 146c63 49 145 113 145 200c0 65 -54 90 -109 90c-28 0 -56 -6 -78 -17l-24 -94c-15 -3 -31 -3 -46 0v117c42 33 105 54 171 54c95 0 191 -39 191 -141c0 -113 -90 -172 -179 -233l-102 -70z" />
    <glyph glyph-name="four.oldstyle" unicode="&#xf734;" horiz-adv-x="558" 
d="M424 540h72l-85 -435h96c1 -19 -2 -40 -10 -60h-97l-32 -165c-16 -3 -33 -4 -50 -4c-18 0 -36 1 -52 4l32 165h-307l9 55zM359 385l-266 -277l1 -3h215l54 280h-4z" />
    <glyph glyph-name="five.oldstyle" unicode="&#xf735;" horiz-adv-x="516" 
d="M130 530h360c1 -32 -3 -63 -14 -93h-307l-29 -150c27 4 56 7 86 7c111 0 229 -38 229 -166c0 -158 -150 -248 -300 -248c-51 0 -101 10 -145 30c3 21 10 40 23 58c33 -14 72 -21 110 -21c103 0 206 52 206 167c0 91 -80 113 -160 113c-43 0 -86 -6 -117 -11l-5 6l56 303z
" />
    <glyph glyph-name="six.oldstyle" unicode="&#xf736;" horiz-adv-x="534" 
d="M287 373c-91 0 -131 -98 -131 -187c0 -71 27 -136 100 -136c99 0 131 101 131 188c0 70 -27 135 -100 135zM316 433c120 0 175 -88 175 -188c0 -143 -86 -255 -237 -255c-138 0 -200 103 -200 227c0 238 164 454 418 454c24 0 49 -2 73 -6c-1 -22 -5 -40 -13 -59
c-16 2 -32 3 -48 3c-141 0 -265 -87 -306 -229l4 -2c43 42 93 55 134 55z" />
    <glyph glyph-name="nine.oldstyle" unicode="&#xf739;" horiz-adv-x="528" 
d="M290 479c-99 0 -131 -95 -131 -175c0 -65 27 -123 96 -123c95 0 135 88 135 168c0 68 -27 130 -100 130zM368 172l-4 2c-35 -38 -85 -55 -136 -55c-108 0 -173 76 -173 179c0 137 89 242 237 242c140 0 200 -103 200 -227c0 -241 -156 -433 -407 -433c-25 0 -50 2 -75 7
c0 19 4 40 13 58c17 -3 35 -4 52 -4c137 0 259 90 293 231z" />
    <glyph glyph-name="three.oldstyle" unicode="&#xf733;" horiz-adv-x="458" 
d="M-11 -30c32 -15 72 -23 112 -23c90 0 190 41 190 147c0 66 -55 95 -120 91l-69 -5c-3 21 -1 42 4 61l64 8c82 11 151 47 151 135c0 70 -56 95 -115 95c-26 0 -54 -5 -76 -13l-24 -87c-15 -3 -31 -3 -46 0v120c43 25 107 41 170 41c99 0 195 -38 195 -146
c0 -85 -57 -150 -141 -166v-4c68 -12 113 -66 113 -132c0 -144 -148 -212 -277 -212c-54 0 -107 11 -153 32c3 23 10 42 22 58z" />
    <glyph glyph-name="seven.oldstyle" unicode="&#xf737;" horiz-adv-x="491" 
d="M64 530h426l-9 -60l-420 -591c-26 9 -48 25 -67 47l391 507l-1 4h-335c0 31 3 62 15 93z" />
    <glyph glyph-name="eight.oldstyle" unicode="&#xf738;" horiz-adv-x="563" 
d="M49 164c0 86 64 148 148 178v4c-51 36 -88 80 -88 149c0 112 109 177 220 177c103 0 203 -62 203 -164c0 -77 -58 -141 -134 -164v-4c59 -36 104 -83 104 -156c0 -122 -122 -194 -241 -194c-108 0 -212 66 -212 174zM250 311c-60 -22 -98 -81 -98 -145
c0 -66 46 -115 117 -115c69 0 128 43 128 112c0 71 -77 112 -147 148zM212 515c0 -70 70 -104 132 -142c52 21 84 75 84 128c0 60 -40 111 -106 111c-55 0 -110 -37 -110 -97z" />
    <glyph glyph-name="afii10064" unicode="&#xf6c5;" horiz-adv-x="580" 
d="M332 460c-130 0 -174 -141 -174 -257c0 -68 21 -153 105 -153c132 0 178 151 178 264c0 69 -21 146 -109 146zM383 719h131l19 41c14 0 25 -3 34 -8l-11 -75c-6 -44 -31 -49 -88 -49h-128c-61 0 -145 0 -145 -66c0 -24 15 -49 43 -59c32 11 67 17 106 17
c147 0 201 -94 201 -206c0 -169 -93 -324 -291 -324c-140 0 -200 92 -200 213c0 115 44 220 132 274v4c-37 19 -53 58 -53 95c0 127 125 143 250 143z" />
    <glyph glyph-name="afii10063" unicode="&#xf6c4;" horiz-adv-x="340" 
d="M337 619h-235c1 18 4 36 10 53h235c0 -19 -4 -36 -10 -53zM271 485l-79 -427l83 10c5 -14 7 -30 6 -43l-140 -33c-47 -11 -60 16 -53 53l79 427h-74c-5 15 -7 29 -5 44l132 23c50 9 57 -20 51 -54z" />
    <glyph glyph-name="afii10192" unicode="&#xf6c6;" horiz-adv-x="593" 
d="M429 428l9 46c-20 7 -39 10 -59 10c-153 0 -219 -171 -219 -305c0 -41 7 -99 57 -99c101 0 192 245 212 348zM382 169l-4 1c-34 -81 -108 -169 -201 -169c-96 0 -120 97 -120 176c0 178 114 363 300 363c35 0 72 -7 99 -25c13 19 29 25 60 25h36l-86 -468
c-35 -189 -137 -273 -297 -273c-61 0 -122 14 -164 37l16 112c15 3 31 3 45 0l16 -77c25 -9 55 -14 85 -14c118 0 171 69 198 219z" />
    <glyph glyph-name="afii10831" unicode="&#xf6c7;" horiz-adv-x="652" 
d="M600 619h-419c0 18 3 36 10 53h419c0 -19 -4 -38 -10 -53zM504 58l84 10c5 -14 6 -30 5 -43l-139 -33c-44 -10 -61 14 -54 52l25 133l-4 1c-40 -89 -106 -188 -216 -188c-78 0 -109 58 -109 131c0 21 3 43 7 64l53 287h-74c-5 15 -6 29 -5 44l132 23c44 8 59 -15 52 -53
l-49 -261c-5 -26 -11 -61 -11 -89c0 -39 11 -70 50 -70c105 0 208 300 225 391l13 71l94 12l9 -10z" />
    <glyph glyph-name="afii10832" unicode="&#xf6c8;" horiz-adv-x="957" 
d="M905 619h-722c0 18 3 36 10 53h722c0 -19 -4 -38 -10 -53zM810 58l84 10c5 -14 6 -30 5 -43l-140 -33c-46 -11 -60 16 -53 53l25 133h-4c-40 -89 -99 -188 -210 -188c-81 0 -105 62 -105 130c0 19 2 38 5 58h-4c-40 -88 -100 -188 -210 -188c-81 0 -106 63 -106 131
c0 19 2 44 6 64l53 287h-74c-5 15 -6 29 -5 44l132 23c50 9 57 -20 51 -54l-48 -260c-3 -19 -10 -55 -10 -87c0 -38 10 -72 46 -72c102 0 201 298 219 391l14 71l93 12l9 -10l-59 -321c-4 -24 -7 -49 -7 -72c0 -42 12 -71 45 -71c103 0 203 297 220 391l13 71l93 12l9 -10z
" />
    <glyph glyph-name="afii10068" unicode="&#x433;" horiz-adv-x="482" 
d="M408 111c12 -12 20 -25 25 -39c-58 -54 -140 -82 -226 -82c-90 0 -170 34 -170 135c0 112 107 134 196 167c55 21 125 55 125 115c0 53 -50 72 -100 72c-29 0 -58 -6 -78 -16l-25 -84c-15 -3 -31 -3 -46 0v121c42 21 116 40 185 40c89 0 168 -31 168 -125
c0 -186 -320 -148 -320 -282c0 -59 44 -76 95 -76c65 0 124 23 171 54z" />
    <glyph glyph-name="afii10069" unicode="&#x434;" horiz-adv-x="596" 
d="M334 464c-130 0 -177 -148 -177 -264c0 -67 22 -150 104 -150c133 0 180 151 180 273c0 65 -27 141 -107 141zM253 -10c-135 0 -200 90 -200 214c0 180 106 320 278 320c65 0 130 -26 164 -92l4 1c-6 168 -104 184 -235 201c-68 9 -91 26 -97 59l-11 61l12 7
c106 -56 257 -20 338 -146c38 -59 50 -141 50 -224c0 -198 -76 -401 -303 -401z" />
    <glyph glyph-name="onethird" unicode="&#x2153;" horiz-adv-x="864" 
d="M298 673l-59 -322l74 -15l-4 -30h-233l4 30l75 15l54 293h-86l-3 32l139 32c30 7 44 -6 39 -35zM145 0l541 730c18 -9 35 -21 48 -37l-541 -729c-18 8 -35 20 -48 36zM575 284v87c34 19 76 29 116 29c61 0 129 -22 129 -90c0 -55 -46 -95 -102 -100v-4
c54 -5 89 -39 89 -87c0 -88 -86 -129 -167 -129c-46 0 -90 13 -122 38l11 90h28l17 -73c16 -8 36 -12 54 -12c49 0 91 30 91 86c0 50 -37 65 -83 65h-31l5 41h26c53 0 97 20 97 76c0 40 -29 58 -66 58c-15 0 -29 -3 -42 -8l-22 -67h-28z" />
    <glyph glyph-name="twothirds" unicode="&#x2154;" horiz-adv-x="864" 
d="M153 382h180l-10 -75h-274l6 45l127 106c45 38 85 73 85 141c0 40 -23 69 -61 69c-12 0 -23 -2 -35 -8l-32 -84h-28v97c30 24 72 37 114 37c69 0 128 -35 128 -108c0 -85 -59 -123 -126 -167l-74 -49v-4zM160 0l541 730c18 -9 35 -21 48 -37l-541 -729
c-18 8 -35 20 -48 36zM586 284v87c34 19 76 29 116 29c61 0 129 -22 129 -90c0 -55 -46 -95 -102 -100v-4c54 -5 89 -39 89 -87c0 -88 -86 -129 -167 -129c-46 0 -90 13 -122 38l11 90h28l17 -73c16 -8 36 -12 54 -12c49 0 91 30 91 86c0 50 -37 65 -83 65h-31l5 41h26
c53 0 97 20 97 76c0 40 -29 58 -66 58c-15 0 -29 -3 -42 -8l-22 -67h-28z" />
    <glyph glyph-name="oneeighth" unicode="&#x215b;" horiz-adv-x="864" 
d="M139 0l541 730c18 -9 35 -21 48 -37l-541 -729c-18 8 -35 20 -48 36zM297 673l-59 -322l74 -15l-4 -30h-233l4 30l75 15l54 293h-86l-3 32l139 32c30 7 44 -6 39 -35zM515 96c0 48 37 85 84 101v4c-27 22 -46 50 -46 87c0 75 71 112 140 112c63 0 128 -32 128 -99
c0 -43 -33 -81 -75 -97v-4c33 -21 60 -49 60 -91c0 -80 -80 -119 -154 -119c-65 0 -137 37 -137 106zM719 89c0 41 -43 64 -83 85c-26 -18 -38 -45 -38 -75c0 -37 21 -67 60 -67c31 0 61 24 61 57zM634 308c0 -41 42 -65 75 -84c19 14 29 41 29 68c0 34 -16 67 -54 67
c-25 0 -50 -18 -50 -51z" />
    <glyph glyph-name="threeeighths" unicode="&#x215c;" horiz-adv-x="864" 
d="M127 594v87c34 19 76 29 116 29c61 0 129 -22 129 -90c0 -55 -46 -95 -102 -100v-4c54 -5 89 -39 89 -87c0 -88 -86 -129 -167 -129c-46 0 -90 13 -122 38l11 90h28l17 -73c16 -8 36 -12 54 -12c49 0 91 30 91 86c0 50 -37 65 -83 65h-31l5 41h26c53 0 97 20 97 76
c0 40 -29 58 -66 58c-15 0 -29 -3 -42 -8l-22 -67h-28zM149 0l541 730c18 -9 35 -21 48 -37l-541 -729c-18 8 -35 20 -48 36zM510 96c0 48 37 85 84 101v4c-27 22 -46 50 -46 87c0 75 71 112 140 112c63 0 128 -32 128 -99c0 -43 -33 -81 -75 -97v-4c33 -21 60 -49 60 -91
c0 -80 -80 -119 -154 -119c-65 0 -137 37 -137 106zM714 89c0 41 -43 64 -83 85c-26 -18 -38 -45 -38 -75c0 -37 21 -67 60 -67c31 0 61 24 61 57zM629 308c0 -41 42 -65 75 -84c19 14 29 41 29 68c0 34 -16 67 -54 67c-25 0 -50 -18 -50 -51z" />
    <glyph glyph-name="fiveeighths" unicode="&#x215d;" horiz-adv-x="864" 
d="M68 332l12 94h28l22 -76c17 -7 35 -11 51 -11c52 0 96 36 96 96c0 56 -44 74 -95 74c-23 0 -47 -4 -65 -7l-7 6l36 186l7 5h228l-10 -75h-195l-16 -76c13 2 27 3 41 3c81 0 161 -22 161 -107c0 -96 -85 -148 -175 -148c-43 0 -86 12 -119 36zM152 0l541 730
c18 -9 35 -21 48 -37l-541 -729c-18 8 -35 20 -48 36zM525 96c0 48 37 85 84 101v4c-27 22 -46 50 -46 87c0 75 71 112 140 112c63 0 128 -32 128 -99c0 -43 -33 -81 -75 -97v-4c33 -21 60 -49 60 -91c0 -80 -80 -119 -154 -119c-65 0 -137 37 -137 106zM729 89
c0 41 -43 64 -83 85c-26 -18 -38 -45 -38 -75c0 -37 21 -67 60 -67c31 0 61 24 61 57zM644 308c0 -41 42 -65 75 -84c19 14 29 41 29 68c0 34 -16 67 -54 67c-25 0 -50 -18 -50 -51z" />
    <glyph glyph-name="seveneighths" unicode="&#x215e;" horiz-adv-x="864" 
d="M148 700h257l-5 -34l-232 -371l-45 30l206 297l-2 3h-146l-21 -42h-28zM105 0l541 730c18 -9 35 -21 48 -37l-541 -729c-18 8 -35 20 -48 36zM496 96c0 48 37 85 84 101v4c-27 22 -46 50 -46 87c0 75 71 112 140 112c63 0 128 -32 128 -99c0 -43 -33 -81 -75 -97v-4
c33 -21 60 -49 60 -91c0 -80 -80 -119 -154 -119c-65 0 -137 37 -137 106zM700 89c0 41 -43 64 -83 85c-26 -18 -38 -45 -38 -75c0 -37 21 -67 60 -67c31 0 61 24 61 57zM615 308c0 -41 42 -65 75 -84c19 14 29 41 29 68c0 34 -16 67 -54 67c-25 0 -50 -18 -50 -51z" />
    <glyph glyph-name="caron.alt" unicode="&#xe088;" horiz-adv-x="400" 
d="M77 -200c38 35 51 74 51 148c12 2 26 3 41 3c14 0 29 -1 42 -3c0 -93 -39 -145 -106 -177c-13 6 -22 16 -28 29z" />
    <glyph glyph-name="breve.cap" unicode="&#xe13f;" horiz-adv-x="400" 
d="M172 914c9 2 19 3 29 3c9 0 19 -1 28 -3c0 -32 19 -73 76 -73c50 0 83 39 90 73c10 2 20 3 30 3s20 -1 31 -3c-11 -74 -66 -138 -157 -138c-92 0 -134 63 -127 138z" />
    <glyph glyph-name="circumflex.cap" unicode="&#xe155;" horiz-adv-x="400" 
d="M142 812l164 113h10l130 -114c-8 -17 -18 -30 -32 -41l-110 75l-137 -75c-11 10 -20 24 -25 42z" />
    <glyph glyph-name="zero.slash" unicode="&#xf638;" horiz-adv-x="577" 
d="M366 649c-153 0 -200 -256 -200 -392c0 -29 1 -60 5 -89h4l262 437c-15 26 -37 44 -71 44zM263 50c160 0 198 282 198 420c0 22 0 47 -3 70h-4l-264 -441c14 -28 37 -49 73 -49zM377 710c43 0 77 -12 104 -30l42 70c17 -7 31 -16 42 -26l-48 -80c38 -54 48 -123 48 -189
c0 -193 -83 -465 -312 -465c-44 0 -81 12 -108 34l-47 -80c-16 6 -31 15 -42 26l55 90c-36 56 -49 121 -49 189c0 192 87 461 315 461z" />
    <glyph glyph-name="c.superior" unicode="&#xe14e;" horiz-adv-x="348" 
d="M328 395l20 -29c-37 -43 -92 -65 -151 -65c-79 0 -137 41 -137 133c0 123 84 234 214 234c35 0 67 -7 93 -24l-10 -85h-37l-8 58c-11 5 -24 6 -33 6c-91 0 -137 -100 -137 -181c0 -62 33 -87 81 -87c37 0 77 17 105 40z" />
    <glyph glyph-name="f.superior" unicode="&#xe181;" horiz-adv-x="266" 
d="M295 618h-83l-40 -240c-12 -69 -36 -124 -80 -164c-26 -24 -60 -42 -97 -42c-27 0 -52 10 -68 41l33 37c15 -18 31 -33 56 -33c46 0 67 83 81 167l38 234h-56l5 29l59 11l6 33c17 92 67 126 138 126c26 0 49 -4 70 -11l-10 -79h-37l-5 49c-50 8 -67 -25 -78 -78l-8 -40
h83z" />
    <glyph glyph-name="g.superior" unicode="&#xe191;" horiz-adv-x="403" 
d="M306 592l5 27c-13 5 -26 7 -39 7c-89 0 -133 -110 -133 -200c0 -27 5 -62 31 -62c58 0 123 158 136 228zM274 412h-4c-23 -53 -70 -105 -132 -105c-65 0 -81 65 -81 118c0 119 77 243 201 243c23 0 49 -5 67 -17c8 13 19 17 40 17h32l-57 -313
c-23 -127 -92 -183 -203 -183c-45 0 -85 9 -114 25l10 78h37l4 -49c21 -7 43 -10 62 -10c67 0 109 37 128 141z" />
    <glyph glyph-name="j.superior" unicode="&#xe19f;" horiz-adv-x="212" 
d="M69 318l55 298h-54l-4 35l101 16c33 5 41 -13 37 -36l-63 -340c-16 -84 -68 -117 -153 -123l-7 30c59 19 75 47 88 120zM223 804c-1 -26 -6 -52 -16 -76c-14 -3 -28 -4 -41 -4c-10 0 -23 1 -31 2c0 26 3 50 12 75c25 4 51 5 76 3z" />
    <glyph glyph-name="k.superior" unicode="&#xe1a0;" horiz-adv-x="401" 
d="M268 338l-87 151l117 141c17 20 35 39 57 39c20 0 53 -20 73 -40l-17 -25c-14 7 -25 10 -35 10c-18 0 -33 -12 -60 -39l-61 -63l89 -153l49 23l16 -31l-55 -35c-16 -10 -28 -15 -42 -15c-22 0 -32 16 -44 37zM229 780l-86 -470l-71 -9l-7 7l85 457h-54l-4 35l99 16
c36 6 42 -13 38 -36z" />
    <glyph glyph-name="p.superior" unicode="&#xe1ce;" horiz-adv-x="413" 
d="M164 388l-7 -32c17 -5 31 -8 48 -8c92 0 126 109 126 199c0 27 -5 64 -32 64c-47 0 -115 -132 -135 -223zM150 319l-17 -97l56 5l4 -35l-98 -19c-35 -7 -47 10 -42 37l75 406h-53l-4 35l99 16c33 5 43 -10 38 -36l-13 -67h5c26 54 69 104 131 104c65 0 82 -69 82 -121
c0 -123 -71 -241 -195 -241c-22 0 -44 3 -68 13z" />
    <glyph glyph-name="q.superior" unicode="&#xe1d5;" horiz-adv-x="403" 
d="M306 590l6 29c-13 5 -27 7 -40 7c-90 0 -135 -117 -135 -209c0 -25 5 -59 32 -59c55 0 123 163 137 232zM363 668h35l-82 -446l57 5l4 -35l-101 -19c-31 -6 -45 9 -40 37l38 203h-4c-24 -54 -70 -112 -134 -112s-81 64 -81 116c0 119 76 251 202 251c23 0 48 -5 68 -16
c9 13 22 16 38 16z" />
    <glyph glyph-name="u.superior" unicode="&#xe1f6;" horiz-adv-x="435" 
d="M365 351l57 5l4 -35l-99 -19c-32 -6 -46 9 -41 36l13 75h-4c-28 -60 -67 -112 -139 -112c-54 0 -75 39 -75 88c0 10 2 29 5 43l34 184h-54l-4 35l100 16c29 5 43 -8 38 -35l-32 -173c-4 -22 -8 -46 -8 -61c0 -26 8 -40 30 -40c62 0 131 177 146 256l9 46l72 8l6 -7z" />
    <glyph glyph-name="v.superior" unicode="&#xe452;" horiz-adv-x="372" 
d="M142 307l-48 308h-54l-4 35l94 17c29 5 35 -13 39 -40l38 -245h4c49 61 108 137 108 217c0 15 -3 32 -11 47l39 28c22 -17 42 -43 42 -63c0 -81 -124 -235 -182 -294l-56 -16z" />
    <glyph glyph-name="w.superior" unicode="&#xe454;" horiz-adv-x="571" 
d="M136 307l-42 308h-54l-4 35l92 17c32 6 38 -17 41 -40l30 -228h4c42 77 79 165 115 254l55 9l7 -6l35 -273h4c51 63 99 142 99 216c0 15 -4 32 -12 47l39 28c22 -17 42 -43 42 -63c0 -79 -113 -234 -172 -294l-57 -16l-9 6l-28 224h-4c-38 -79 -72 -144 -114 -214
l-58 -16z" />
    <glyph glyph-name="x.superior" unicode="&#xe459;" horiz-adv-x="386" 
d="M188 478l-60 120l-42 -26l-21 28l69 59c17 14 42 14 53 -8l56 -112c38 55 94 129 116 129c17 0 48 -19 62 -34l-15 -25c-7 3 -14 4 -21 4c-36 0 -91 -69 -123 -114l70 -139l49 30l17 -30l-58 -44c-18 -14 -29 -15 -40 -15c-16 0 -29 12 -39 32l-53 104
c-40 -59 -97 -136 -130 -136c-15 0 -48 18 -67 44l18 24c11 -7 21 -10 31 -10c22 0 52 17 128 119z" />
    <glyph glyph-name="y.superior" unicode="&#xe45b;" horiz-adv-x="363" 
d="M176 303l-82 293l-44 -25l-20 29l61 50c15 13 27 18 39 18c18 0 27 -11 34 -36l68 -248h4c49 86 74 184 74 221c0 14 -3 26 -11 41l39 27c19 -13 41 -40 41 -63c0 -77 -178 -438 -333 -438c-32 0 -51 13 -62 42l32 39c14 -19 26 -28 44 -28c39 0 81 34 116 78z" />
    <glyph glyph-name="z.superior" unicode="&#xe45e;" horiz-adv-x="355" 
d="M245 306h-213l8 46l231 234v4h-138l-18 -45h-37l14 118h282l-6 -45l-234 -236l1 -4h104c63 0 73 13 91 49l32 -11c-18 -90 -51 -110 -117 -110z" />
    <glyph glyph-name="h.superior" unicode="&#xf637;" horiz-adv-x="429" 
d="M400 538l-34 -187l57 5l4 -35l-98 -19c-37 -7 -46 12 -41 41l33 185c2 12 5 27 5 42c0 22 -6 41 -28 41c-71 0 -133 -192 -144 -246l-11 -55l-71 -9l-7 7l85 457h-53l-4 35l97 16c38 6 44 -12 40 -36l-40 -216h4c32 57 62 104 127 104c54 0 83 -32 83 -87
c0 -15 -2 -30 -4 -43z" />
    <glyph glyph-name="a.superior" unicode="&#xf6e9;" horiz-adv-x="411" 
d="M304 592l6 29c-12 4 -23 6 -34 6c-97 0 -138 -135 -138 -213c0 -27 5 -56 27 -56c51 0 120 144 139 234zM362 668h34l-58 -317l57 5l4 -35l-99 -19c-34 -7 -46 11 -41 37l13 74h-4c-23 -52 -67 -112 -133 -112c-56 0 -79 55 -79 111c0 117 76 256 203 256
c22 0 45 -4 64 -14c9 11 22 14 39 14z" />
    <glyph glyph-name="b.superior" unicode="&#xf6ea;" horiz-adv-x="409" 
d="M198 344c96 0 129 115 129 202c0 27 -4 65 -32 65c-50 0 -115 -131 -135 -222l-8 -37c15 -6 31 -8 46 -8zM95 301h-30l86 464h-53l-4 35l98 16c35 6 44 -11 39 -36l-40 -216h4c25 54 70 104 132 104c66 0 82 -68 82 -120c0 -118 -66 -247 -199 -247c-25 0 -49 5 -72 17
c-7 -13 -18 -17 -43 -17z" />
    <glyph glyph-name="d.superior" unicode="&#xf6eb;" horiz-adv-x="412" 
d="M305 594l5 27c-12 4 -25 5 -38 5c-92 0 -135 -115 -135 -208c0 -26 4 -60 30 -60c54 0 124 162 138 236zM418 779l-79 -428l61 5l4 -35l-106 -20c-30 -6 -43 10 -38 38l13 74h-4c-24 -54 -71 -112 -134 -112c-64 0 -80 65 -80 117c0 120 75 250 203 250
c21 0 42 -3 60 -12l20 109h-54l-4 35l100 16c34 5 42 -13 38 -37z" />
    <glyph glyph-name="e.superior" unicode="&#xf6ec;" horiz-adv-x="369" 
d="M148 502l1 -4l99 31c34 11 52 22 52 54c0 31 -18 42 -41 42c-58 0 -98 -59 -111 -123zM364 516l-222 -59v-12c0 -65 34 -90 82 -90c40 0 82 17 109 40l20 -29c-37 -42 -93 -65 -156 -65c-77 0 -137 40 -137 133c0 122 78 234 208 234c70 0 106 -42 106 -96
c0 -17 -3 -39 -10 -56z" />
    <glyph glyph-name="i.superior" unicode="&#xf6ed;" horiz-adv-x="228" 
d="M206 630l-53 -279l58 5l4 -35l-101 -19c-35 -7 -44 13 -40 35l51 279h-53l-4 35l99 16c34 5 44 -13 39 -37zM227 804c-1 -26 -6 -52 -16 -76c-14 -3 -28 -4 -41 -4c-10 0 -23 1 -31 2c0 26 3 50 12 75c25 4 51 5 76 3z" />
    <glyph glyph-name="l.superior" unicode="&#xf6ee;" horiz-adv-x="226" 
d="M70 338l79 427h-54l-4 35l99 16c36 6 43 -13 39 -37l-79 -428l61 5l4 -35l-107 -19c-29 -5 -43 10 -38 36z" />
    <glyph glyph-name="m.superior" unicode="&#xf6ef;" horiz-adv-x="652" 
d="M615 539l-35 -188l57 5l4 -35l-99 -19c-34 -7 -46 10 -41 36l32 172c3 17 8 40 8 60c0 23 -6 41 -26 41c-55 0 -119 -141 -142 -250l-11 -51l-71 -9l-6 7l38 203c3 16 7 38 7 57c0 24 -6 43 -27 43c-51 0 -116 -144 -140 -252l-11 -49l-71 -9l-6 7l58 308h-54l-4 35
l100 16c31 5 42 -9 37 -36l-12 -67h4c34 63 66 104 132 104c42 0 74 -24 74 -85c0 -7 0 -9 -1 -19h4c31 63 67 104 133 104c49 0 73 -33 73 -86c0 -13 -1 -28 -4 -43z" />
    <glyph glyph-name="o.superior" unicode="&#xf6f0;" horiz-adv-x="401" 
d="M198 301c-96 0 -137 65 -137 145c0 117 67 222 200 222c94 0 136 -62 136 -145c0 -118 -61 -222 -199 -222zM253 624c-79 0 -110 -101 -110 -176c0 -41 6 -103 61 -103c85 0 111 104 111 179c0 41 -11 100 -62 100z" />
    <glyph glyph-name="r.superior" unicode="&#xf6f1;" horiz-adv-x="342" 
d="M373 663l-12 -101h-37l-7 45c-70 -1 -125 -134 -147 -236l-13 -61l-71 -9l-6 7l57 308h-53l-4 35l98 16c34 6 44 -11 39 -37l-13 -66h5c26 58 69 104 132 104c9 0 22 -1 32 -5z" />
    <glyph glyph-name="s.superior" unicode="&#xf6f2;" horiz-adv-x="337" 
d="M91 422l9 -62c15 -8 42 -14 69 -14c42 0 84 13 84 50c0 33 -52 49 -81 63c-41 19 -82 44 -82 100c0 78 72 109 142 109c43 0 88 -10 117 -27l-9 -83h-37l-9 56c-13 5 -35 9 -58 9c-37 0 -74 -11 -74 -44c0 -69 165 -59 165 -164c0 -83 -90 -114 -161 -114
c-46 0 -91 11 -122 34l10 87h37z" />
    <glyph glyph-name="t.superior" unicode="&#xf6f3;" horiz-adv-x="268" 
d="M205 618l-37 -203c-3 -14 -5 -30 -5 -36c0 -17 7 -29 27 -29s42 9 57 18l11 -33c-30 -20 -66 -34 -103 -34c-52 0 -70 29 -70 67c0 10 1 19 3 30l40 220h-56l6 29l58 11l19 103l72 12l6 -7l-20 -108h85l-8 -40h-85z" />
    <glyph glyph-name="Scommaaccent" unicode="&#x218;" horiz-adv-x="603" 
d="M36 65l24 148c16 3 32 3 48 0l21 -128c30 -20 78 -31 126 -31c93 0 194 39 194 130c0 70 -69 100 -144 133c-89 39 -185 82 -185 196c0 146 126 217 273 217c78 0 153 -20 209 -55l-21 -143c-16 -3 -33 -3 -48 0l-19 115c-31 12 -72 20 -114 20c-83 0 -166 -31 -166 -122
c0 -72 58 -101 125 -131c92 -42 202 -77 202 -196c0 -155 -144 -228 -290 -228c-89 0 -174 26 -235 75zM206 -200c38 35 51 74 51 148c12 2 26 3 41 3c14 0 29 -1 42 -3c0 -93 -39 -145 -106 -177c-13 6 -22 16 -28 29z" />
    <glyph glyph-name="scommaaccent" unicode="&#x219;" horiz-adv-x="499" 
d="M94 166l13 -90c24 -16 66 -26 108 -26c64 0 130 24 130 86c0 54 -80 76 -123 97c-62 29 -122 67 -122 148c0 116 106 159 211 159c62 0 124 -15 168 -40l-16 -120c-15 -3 -32 -3 -46 0l-14 84c-20 9 -52 15 -84 15c-60 0 -121 -21 -121 -78c0 -104 248 -92 248 -242
c0 -124 -127 -169 -234 -169c-67 0 -135 17 -182 51l17 125c13 2 31 3 47 0zM150 -200c38 35 51 74 51 148c12 2 26 3 41 3c14 0 29 -1 42 -3c0 -93 -39 -145 -106 -177c-13 6 -22 16 -28 29z" />
    <glyph glyph-name="zero.slashfitted" unicode="&#xe201;" horiz-adv-x="585" 
d="M370 649c-153 0 -200 -256 -200 -392c0 -29 1 -60 5 -89h4l262 437c-15 26 -37 44 -71 44zM267 50c160 0 198 282 198 420c0 22 0 47 -3 70h-4l-264 -441c14 -28 37 -49 73 -49zM381 710c43 0 77 -12 104 -30l42 70c17 -7 31 -16 42 -26l-48 -80c38 -54 48 -123 48 -189
c0 -193 -83 -465 -312 -465c-44 0 -81 12 -108 34l-47 -80c-16 6 -31 15 -42 26l55 90c-36 56 -49 121 -49 189c0 192 87 461 315 461z" />
    <glyph glyph-name="zero.fitted" unicode="&#xf639;" horiz-adv-x="585" 
d="M370 649c-156 0 -200 -268 -200 -409c0 -62 10 -190 97 -190c160 0 199 293 199 433c0 61 -13 166 -96 166zM381 710c148 0 188 -134 188 -253c0 -193 -83 -467 -312 -467c-144 0 -191 131 -191 252c0 195 84 468 315 468z" />
    <glyph glyph-name="two.fitted" unicode="&#xf63a;" horiz-adv-x="566" 
d="M165 96h330c2 -34 -3 -67 -13 -96h-467l7 50l215 195c83 76 183 169 183 279c0 83 -68 123 -142 123c-26 0 -53 -4 -77 -14l-34 -115c-15 -3 -32 -3 -46 0v129c49 40 121 63 194 63c110 0 217 -53 217 -170c0 -136 -105 -227 -210 -312l-158 -129z" />
    <glyph glyph-name="three.fitted" unicode="&#xf63b;" horiz-adv-x="574" 
d="M136 534v129c47 29 117 47 191 47c109 0 214 -40 214 -159c0 -92 -60 -156 -153 -174v-4c78 -16 127 -81 127 -154c0 -148 -138 -229 -274 -229c-73 0 -145 21 -205 55l20 135c15 3 31 3 46 0l21 -106c31 -12 64 -18 100 -18c96 0 187 49 187 158c0 91 -85 124 -164 124
h-62c-1 21 2 41 10 60h50c94 0 193 35 193 142c0 79 -67 108 -135 108c-30 0 -61 -5 -86 -15l-34 -99c-15 -3 -31 -3 -46 0z" />
    <glyph glyph-name="four.fitted" unicode="&#xf63c;" horiz-adv-x="572" 
d="M115 261l1 -3h226l54 297h-4zM456 710h72l-83 -452h93c1 -19 -2 -40 -9 -58h-95l-26 -139l89 -25c2 -13 0 -25 -4 -36h-295c-1 13 0 24 4 36l105 25l24 139h-316l7 49z" />
    <glyph glyph-name="five.fitted" unicode="&#xf63d;" horiz-adv-x="567" 
d="M54 48l22 133c16 3 32 3 46 0l19 -108c29 -14 59 -21 89 -21c104 0 192 79 192 186c0 105 -94 139 -188 139c-34 0 -69 -4 -98 -10l-7 4l63 323l8 6h356c1 -33 -4 -65 -15 -96h-304l-34 -170c23 4 46 6 71 6c125 0 252 -54 252 -192c0 -157 -134 -258 -285 -258
c-64 0 -130 20 -187 58z" />
    <glyph glyph-name="six.fitted" unicode="&#xf63e;" horiz-adv-x="556" 
d="M307 401c-93 0 -134 -108 -134 -203c0 -74 29 -148 103 -148c101 0 134 110 134 203c0 76 -28 148 -103 148zM337 460c124 0 178 -93 178 -200c0 -152 -87 -270 -241 -270c-148 0 -204 116 -204 241c0 242 155 479 418 479c23 0 46 -2 68 -5c0 -20 -4 -38 -12 -56
c-13 1 -29 2 -43 2c-148 0 -262 -99 -304 -247l4 -2c43 45 93 58 136 58z" />
    <glyph glyph-name="seven.fitted" unicode="&#xf63f;" horiz-adv-x="553" 
d="M132 700h440l-9 -61l-401 -649c-29 8 -53 23 -72 44l383 567l-1 3h-291l-31 -67c-14 -3 -31 -3 -46 0z" />
    <glyph glyph-name="eight.fitted" unicode="&#xf640;" horiz-adv-x="569" 
d="M57 176c0 90 66 157 152 189v4c-52 36 -89 85 -89 157c0 121 112 184 221 184c105 0 209 -59 209 -174c0 -78 -55 -148 -132 -173v-4c58 -39 101 -89 101 -164c0 -134 -126 -205 -247 -205c-108 0 -215 63 -215 186zM264 332c-61 -23 -103 -89 -103 -157
c0 -70 47 -125 119 -125s135 50 135 124c0 82 -80 117 -151 158zM221 545c0 -77 75 -117 138 -152c54 23 88 78 88 137c0 62 -43 119 -111 119c-57 0 -115 -42 -115 -104z" />
    <glyph glyph-name="nine.fitted" unicode="&#xf641;" horiz-adv-x="557" 
d="M334 648c-100 0 -134 -109 -134 -197c0 -70 28 -143 99 -143c97 0 139 104 139 193c0 73 -29 147 -104 147zM415 305l-4 2c-37 -41 -88 -59 -139 -59c-112 0 -176 87 -176 196c0 147 87 265 240 265c149 0 205 -120 205 -247c0 -241 -155 -472 -414 -472
c-21 0 -42 1 -62 5c0 19 3 38 12 56c13 -2 26 -3 39 -3c147 0 267 114 299 257z" />
    <glyph glyph-name="zero.taboldstyle" unicode="&#xf643;" horiz-adv-x="577" 
d="M248 -10c-135 0 -191 92 -191 211c0 184 96 339 284 339c135 0 188 -102 188 -219c0 -168 -84 -331 -281 -331zM328 479c-124 0 -167 -164 -167 -273c0 -64 13 -156 96 -156c127 0 168 161 168 272c0 64 -16 157 -97 157z" />
    <glyph glyph-name="one.taboldstyle" unicode="&#xf644;" horiz-adv-x="577" 
d="M406 479l-82 -423l125 -20c2 -12 0 -24 -4 -36h-350c-2 12 -1 24 3 36l124 20l78 403h-111c-5 12 -7 27 -6 44l163 35c52 11 69 -15 60 -59z" />
    <glyph glyph-name="two.taboldstyle" unicode="&#xf645;" horiz-adv-x="577" 
d="M217 92h252c1 -31 -3 -61 -12 -92h-402l5 44l187 146c63 49 145 113 145 200c0 65 -54 90 -109 90c-28 0 -56 -6 -78 -17l-24 -94c-15 -3 -31 -3 -46 0v117c42 33 105 54 171 54c95 0 191 -39 191 -141c0 -113 -90 -172 -179 -233l-102 -70z" />
    <glyph glyph-name="three.taboldstyle" unicode="&#xf646;" horiz-adv-x="577" 
d="M50 -30c32 -15 72 -23 112 -23c90 0 190 41 190 147c0 66 -55 95 -120 91l-69 -5c-3 21 -1 42 4 61l64 8c82 11 151 47 151 135c0 70 -56 95 -115 95c-26 0 -54 -5 -76 -13l-24 -87c-15 -3 -31 -3 -46 0v120c43 25 107 41 170 41c99 0 195 -38 195 -146
c0 -85 -57 -150 -141 -166v-4c68 -12 113 -66 113 -132c0 -144 -148 -212 -277 -212c-54 0 -107 11 -153 32c3 23 10 42 22 58z" />
    <glyph glyph-name="four.taboldstyle" unicode="&#xf647;" horiz-adv-x="577" 
d="M423 540h72l-85 -435h96c1 -19 -2 -40 -10 -60h-97l-32 -165c-16 -3 -33 -4 -50 -4c-18 0 -36 1 -52 4l32 165h-307l9 55zM358 385l-266 -277l1 -3h215l54 280h-4z" />
    <glyph glyph-name="five.taboldstyle" unicode="&#xf648;" horiz-adv-x="577" 
d="M152 530h360c1 -32 -3 -63 -14 -93h-307l-29 -150c27 4 56 7 86 7c111 0 229 -38 229 -166c0 -158 -150 -248 -300 -248c-51 0 -101 10 -145 30c3 21 10 40 23 58c33 -14 72 -21 110 -21c103 0 206 52 206 167c0 91 -80 113 -160 113c-43 0 -86 -6 -117 -11l-5 6l56 303z
" />
    <glyph glyph-name="six.taboldstyle" unicode="&#xf649;" horiz-adv-x="577" 
d="M309 373c-91 0 -131 -98 -131 -187c0 -71 27 -136 100 -136c99 0 131 101 131 188c0 70 -27 135 -100 135zM338 433c120 0 175 -88 175 -188c0 -143 -86 -255 -237 -255c-138 0 -200 103 -200 227c0 238 164 454 418 454c24 0 49 -2 73 -6c-1 -22 -5 -40 -13 -59
c-16 2 -32 3 -48 3c-141 0 -265 -87 -306 -229l4 -2c43 42 93 55 134 55z" />
    <glyph glyph-name="seven.taboldstyle" unicode="&#xf64a;" horiz-adv-x="577" 
d="M127 530h426l-9 -60l-420 -591c-26 9 -48 25 -67 47l391 507l-1 4h-335c0 31 3 62 15 93z" />
    <glyph glyph-name="eight.taboldstyle" unicode="&#xf64b;" horiz-adv-x="577" 
d="M62 164c0 86 64 148 148 178v4c-51 36 -88 80 -88 149c0 112 109 177 220 177c103 0 203 -62 203 -164c0 -77 -58 -141 -134 -164v-4c59 -36 104 -83 104 -156c0 -122 -122 -194 -241 -194c-108 0 -212 66 -212 174zM263 311c-60 -22 -98 -81 -98 -145
c0 -66 46 -115 117 -115c69 0 128 43 128 112c0 71 -77 112 -147 148zM225 515c0 -70 70 -104 132 -142c52 21 84 75 84 128c0 60 -40 111 -106 111c-55 0 -110 -37 -110 -97z" />
    <glyph glyph-name="nine.taboldstyle" unicode="&#xf64c;" horiz-adv-x="577" 
d="M319 479c-99 0 -131 -95 -131 -175c0 -65 27 -123 96 -123c95 0 135 88 135 168c0 68 -27 130 -100 130zM397 172l-4 2c-35 -38 -85 -55 -136 -55c-108 0 -173 76 -173 179c0 137 89 242 237 242c140 0 200 -103 200 -227c0 -241 -156 -433 -407 -433c-25 0 -50 2 -75 7
c0 19 4 40 13 58c17 -3 35 -4 52 -4c137 0 259 90 293 231z" />
    <glyph glyph-name="zero.denominator" unicode="&#xf655;" 
d="M204 358c-75 0 -98 -150 -98 -222c0 -30 5 -104 47 -104c72 0 97 164 97 236c0 29 -6 90 -46 90zM213 400c93 0 124 -70 124 -147c0 -116 -58 -263 -196 -263c-90 0 -122 77 -122 152c0 116 55 258 194 258z" />
    <glyph glyph-name="one.denominator" unicode="&#xf656;" 
d="M250 364l-58 -319l74 -15l-4 -30h-233l4 30l75 15l53 290h-86l-3 32l139 32c30 7 44 -6 39 -35z" />
    <glyph glyph-name="two.denominator" unicode="&#xf657;" 
d="M113 75h180l-10 -75h-274l6 45l127 103c46 37 85 73 85 141c0 40 -23 69 -61 69c-12 0 -23 -2 -35 -8l-32 -84h-28v97c30 24 72 37 114 37c69 0 128 -35 128 -108c0 -85 -58 -125 -126 -167l-74 -46v-4z" />
    <glyph glyph-name="three.denominator" unicode="&#xf658;" 
d="M70 284v87c34 19 76 29 116 29c61 0 129 -22 129 -90c0 -55 -46 -95 -102 -100v-4c54 -5 89 -39 89 -87c0 -88 -86 -129 -167 -129c-46 0 -90 13 -122 38l11 90h28l17 -73c16 -8 36 -12 54 -12c49 0 91 30 91 86c0 50 -37 65 -83 65h-31l5 41h26c53 0 97 20 97 76
c0 40 -29 58 -66 58c-15 0 -29 -3 -42 -8l-22 -67h-28z" />
    <glyph glyph-name="four.denominator" unicode="&#xf659;" 
d="M164 45l11 63h-179l3 23l252 269h62l-47 -252h56l-7 -40h-56l-12 -63l55 -15l-4 -30h-213l4 30zM76 148h107l26 141l-4 1l-130 -139z" />
    <glyph glyph-name="five.denominator" unicode="&#xf65a;" 
d="M15 26l12 94h28l22 -76c17 -7 35 -11 51 -11c52 0 96 36 96 96c0 56 -44 74 -95 74c-23 0 -47 -4 -65 -7l-7 6l35 183l7 5h228l-10 -75h-195l-15 -73c13 2 27 3 41 3c81 0 161 -22 161 -107c0 -96 -85 -148 -175 -148c-43 0 -86 12 -119 36z" />
    <glyph glyph-name="six.denominator" unicode="&#xf65b;" 
d="M179 213c-44 0 -63 -52 -63 -106c0 -42 13 -75 47 -75c49 0 65 54 65 106c0 45 -13 75 -49 75zM133 238l3 -2c19 14 43 20 66 20c69 0 112 -48 112 -115c0 -87 -56 -151 -152 -151c-88 0 -130 61 -130 142c0 144 106 268 254 268c17 0 37 -2 50 -5l-12 -41
c-10 2 -21 3 -32 3c-69 0 -131 -46 -159 -119z" />
    <glyph glyph-name="seven.denominator" unicode="&#xf65c;" 
d="M81 390h257l-5 -34l-232 -371l-45 30l206 297l-2 3h-146l-21 -42h-28z" />
    <glyph glyph-name="eight.denominator" unicode="&#xf65d;" 
d="M24 96c0 48 37 85 84 101v4c-27 22 -46 50 -46 87c0 75 71 112 140 112c63 0 128 -32 128 -99c0 -43 -33 -81 -75 -97v-4c33 -21 60 -49 60 -91c0 -80 -80 -119 -154 -119c-65 0 -137 37 -137 106zM228 89c0 41 -43 64 -83 85c-26 -18 -38 -45 -38 -75
c0 -37 21 -67 60 -67c31 0 61 24 61 57zM143 308c0 -41 42 -65 75 -84c19 14 29 41 29 68c0 34 -16 67 -54 67c-25 0 -50 -18 -50 -51z" />
    <glyph glyph-name="nine.denominator" unicode="&#xf65e;" 
d="M193 358c-48 0 -62 -57 -62 -102c0 -35 10 -74 41 -74c48 0 65 56 65 99c0 38 -11 77 -44 77zM26 -4l8 42c13 -3 24 -4 36 -4c69 0 130 42 151 121l-3 2c-18 -10 -39 -15 -60 -15c-69 0 -113 42 -113 111c0 84 54 147 149 147c94 0 129 -66 129 -143
c0 -139 -92 -267 -243 -267c-18 0 -37 2 -54 6z" />
    <glyph glyph-name="zero.numerator" unicode="&#xf661;" 
d="M255 668c-75 0 -98 -150 -98 -222c0 -30 5 -104 47 -104c72 0 97 164 97 236c0 29 -6 90 -46 90zM264 710c93 0 124 -70 124 -147c0 -116 -58 -263 -196 -263c-90 0 -122 77 -122 152c0 116 55 258 194 258z" />
    <glyph glyph-name="one.numerator" unicode="&#xf662;" 
d="M301 674l-58 -319l74 -15l-4 -30h-233l4 30l75 15l53 290h-86l-3 32l139 32c30 7 44 -6 39 -35z" />
    <glyph glyph-name="two.numerator" unicode="&#xf663;" 
d="M158 385h180l-10 -75h-274l6 45l127 103c46 37 85 73 85 141c0 40 -23 69 -61 69c-12 0 -23 -2 -35 -8l-32 -84h-28v97c30 24 72 37 114 37c69 0 128 -35 128 -108c0 -85 -58 -125 -126 -167l-74 -46v-4z" />
    <glyph glyph-name="three.numerator" unicode="&#xf664;" 
d="M116 594v87c34 19 76 29 116 29c61 0 129 -22 129 -90c0 -55 -46 -95 -102 -100v-4c54 -5 89 -39 89 -87c0 -88 -86 -129 -167 -129c-46 0 -90 13 -122 38l11 90h28l17 -73c16 -8 36 -12 54 -12c49 0 91 30 91 86c0 50 -37 65 -83 65h-31l5 41h26c53 0 97 20 97 76
c0 40 -29 58 -66 58c-15 0 -29 -3 -42 -8l-22 -67h-28z" />
    <glyph glyph-name="four.numerator" unicode="&#xf665;" 
d="M205 355l11 63h-179l3 23l252 269h62l-47 -252h56l-7 -40h-56l-12 -63l55 -15l-4 -30h-213l4 30zM117 458h107l26 141l-4 1l-130 -139z" />
    <glyph glyph-name="five.numerator" unicode="&#xf666;" 
d="M61 336l12 94h28l22 -76c17 -7 35 -11 51 -11c52 0 96 36 96 96c0 56 -44 74 -95 74c-23 0 -47 -4 -65 -7l-7 6l35 183l7 5h228l-10 -75h-195l-15 -73c13 2 27 3 41 3c81 0 161 -22 161 -107c0 -96 -85 -148 -175 -148c-43 0 -86 12 -119 36z" />
    <glyph glyph-name="six.numerator" unicode="&#xf667;" 
d="M217 523c-44 0 -63 -52 -63 -106c0 -42 13 -75 47 -75c49 0 65 54 65 106c0 45 -13 75 -49 75zM171 548l3 -2c19 14 43 20 66 20c69 0 112 -48 112 -115c0 -87 -56 -151 -152 -151c-88 0 -130 61 -130 142c0 144 106 268 254 268c17 0 37 -2 50 -5l-12 -41
c-10 2 -21 3 -32 3c-69 0 -131 -46 -159 -119z" />
    <glyph glyph-name="seven.numerator" unicode="&#xf668;" 
d="M127 700h257l-5 -34l-232 -371l-45 30l206 297l-2 3h-146l-21 -42h-28z" />
    <glyph glyph-name="eight.numerator" unicode="&#xf669;" 
d="M68 406c0 48 37 85 84 101v4c-27 22 -46 50 -46 87c0 75 71 112 140 112c63 0 128 -32 128 -99c0 -43 -33 -81 -75 -97v-4c33 -21 60 -49 60 -91c0 -80 -80 -119 -154 -119c-65 0 -137 37 -137 106zM272 399c0 41 -43 64 -83 85c-26 -18 -38 -45 -38 -75
c0 -37 21 -67 60 -67c31 0 61 24 61 57zM187 618c0 -41 42 -65 75 -84c19 14 29 41 29 68c0 34 -16 67 -54 67c-25 0 -50 -18 -50 -51z" />
    <glyph glyph-name="nine.numerator" unicode="&#xf66a;" 
d="M236 668c-48 0 -62 -57 -62 -102c0 -35 10 -74 41 -74c48 0 65 56 65 99c0 38 -11 77 -44 77zM69 306l8 42c13 -3 24 -4 36 -4c69 0 130 42 151 121l-3 2c-18 -10 -39 -15 -60 -15c-69 0 -113 42 -113 111c0 84 54 147 149 147c94 0 129 -66 129 -143
c0 -139 -92 -267 -243 -267c-18 0 -37 2 -54 6z" />
    <glyph glyph-name="one.fitted" unicode="&#xf6dc;" horiz-adv-x="374" 
d="M219 629h-118c-5 14 -6 29 -5 44l168 34c58 12 69 -12 60 -59l-108 -587l105 -25c2 -13 0 -25 -4 -36h-311c-2 12 -1 24 3 36l105 25z" />
    <glyph glyph-name="f.alt" unicode="&#xe1b6;" horiz-adv-x="344" 
d="M387 476h-124l-63 -369c-17 -103 -54 -184 -120 -244c-40 -37 -89 -63 -139 -63c-39 0 -76 15 -93 61c11 19 27 36 46 49c20 -25 50 -49 84 -49c74 0 100 126 122 256l61 359h-84c0 12 2 24 7 35l87 17l8 44c25 137 102 188 199 188c33 0 67 -6 99 -16
c-2 -19 -7 -35 -16 -51c-20 5 -38 7 -54 7c-82 0 -112 -55 -123 -112l-12 -60h124c0 -17 -3 -34 -9 -52z" />
    <glyph glyph-name="onesuperior" unicode="&#xe105;" 
d="M316 837l-59 -322l74 -15l-4 -30h-233l4 30l75 15l54 293h-86l-3 32l139 32c30 7 44 -6 39 -35z" />
    <glyph glyph-name="twosuperior" unicode="&#xe107;" 
d="M166 545h180l-10 -75h-274l6 45l127 106c45 38 85 73 85 141c0 40 -23 69 -61 69c-12 0 -23 -2 -35 -8l-32 -84h-28v97c30 24 72 37 114 37c69 0 128 -35 128 -108c0 -85 -59 -123 -126 -167l-74 -49v-4z" />
    <glyph glyph-name="threesuperior" unicode="&#xe108;" 
d="M126 757v87c34 19 76 29 116 29c61 0 129 -22 129 -90c0 -55 -46 -95 -102 -100v-4c54 -5 89 -39 89 -87c0 -88 -86 -129 -167 -129c-46 0 -90 13 -122 38l11 90h28l17 -73c16 -8 36 -12 54 -12c49 0 91 30 91 86c0 50 -37 65 -83 65h-31l5 41h26c53 0 97 20 97 76
c0 40 -29 58 -66 58c-15 0 -29 -3 -42 -8l-22 -67h-28z" />
    </font>
</defs>
</svg>
