<?xml version="1.0" standalone="no"?>
<!DOCTYPE svg PUBLIC "-//W3C//DTD SVG 1.1//EN" "http://www.w3.org/Graphics/SVG/1.1/DTD/svg11.dtd" >
<svg>
<metadata>
Created by FontForge 20120731 at Wed Sep 18 04:06:09 2013
 By Stefan Warting
Copyright (c) 2009 by Vedran Erakovic. All rights reserved. Published by Parachute : Worldwide for the Parachute : Font Library.
</metadata>
<defs>
<font id="PFAdamantPro-SemiBold" horiz-adv-x="403" >
  <font-face 
    font-family="PF Adamant Pro SemiBold"
    font-weight="600"
    font-stretch="normal"
    units-per-em="1000"
    panose-1="2 0 7 5 0 0 0 2 0 4"
    ascent="770"
    descent="-230"
    x-height="530"
    cap-height="720"
    bbox="-145 -230 1250 955"
    underline-thickness="50"
    underline-position="-50"
    stemh="72"
    stemv="132"
    unicode-range="U+0020-FB04"
  />
<missing-glyph horiz-adv-x="500" 
d="M500 0h-500v750h500v-750zM88 690l161 -262l160 262h-321zM284 371l156 -255v510zM249 314l-156 -254h311zM214 371l-154 252v-504z" />
    <glyph glyph-name="f_i" unicode="fi" horiz-adv-x="696" 
d="M248 571v-47h280c45 0 63 -13 63 -62v-404l72 -20c3 -12 3 -25 0 -38h-271c-3 13 -3 26 0 38l67 20v409h-211v-409l67 -20c3 -12 3 -25 0 -38h-271c-3 13 -3 26 0 38l72 20v409h-72c-3 11 -3 24 0 35l72 22v34c0 154 126 202 253 202c65 0 128 -13 177 -32v-118
c-13 -2 -27 -3 -41 -3s-28 1 -40 3l-27 80c-19 5 -38 7 -57 7c-70 0 -133 -35 -133 -126z" />
    <glyph glyph-name="f_l" unicode="fl" horiz-adv-x="696" 
d="M370 470h-122v-412l67 -20c3 -12 3 -25 0 -38h-271c-3 13 -3 26 0 38l72 20v412h-72c-3 11 -3 24 0 35l72 21v41c0 140 124 193 253 193c83 0 168 -23 222 -57v-645l72 -20c3 -12 3 -25 0 -38h-271c-3 13 -3 26 0 38l67 20v628c-21 7 -45 11 -69 11
c-71 0 -142 -33 -142 -116v-55h122c3 -19 3 -37 0 -56z" />
    <glyph glyph-name="f_b" unicode="fb" horiz-adv-x="979" 
d="M647 56c119 0 158 116 158 219c0 75 -19 184 -108 184c-42 0 -79 -28 -106 -62v-332c19 -6 38 -9 56 -9zM370 470h-122v-412l73 -20c3 -11 3 -26 0 -38h-277c-3 13 -3 26 0 38l72 20v412h-72c-3 11 -3 24 0 35l72 21v41c0 140 124 193 253 193c83 0 168 -23 222 -57v-237
h4c36 46 88 74 147 74c137 0 197 -125 197 -251c0 -167 -92 -299 -262 -299c-36 0 -71 7 -105 23c-16 -20 -40 -23 -74 -23h-39v696c-21 7 -45 11 -69 11c-71 0 -142 -33 -142 -116v-55h122c3 -19 3 -37 0 -56z" />
    <glyph glyph-name="f_h" unicode="fh" horiz-adv-x="1029" 
d="M370 470h-122v-412l67 -20c3 -12 3 -25 0 -38h-271c-3 13 -3 26 0 38l72 20v412h-72c-3 12 -3 23 0 35l72 21v41c0 140 124 193 253 193c83 0 168 -23 222 -57v-237l4 -1c41 41 103 75 171 75c114 0 164 -65 164 -204v-278l72 -20c3 -13 3 -25 0 -38h-270
c-3 13 -3 26 0 38l66 20v241c0 71 -5 155 -89 155c-42 0 -90 -24 -118 -52v-344l65 -20c3 -12 3 -25 0 -38h-264c-3 13 -3 26 0 38l67 20v628c-21 7 -45 11 -69 11c-71 0 -142 -33 -142 -116v-55h122c3 -19 3 -37 0 -56z" />
    <glyph glyph-name="f_j" unicode="fj" horiz-adv-x="690" 
d="M248 571v-47h280c45 0 63 -13 63 -62v-469c0 -118 -83 -184 -208 -198c-10 12 -16 27 -18 43c85 36 94 91 94 182v447h-211v-409l73 -20c3 -12 3 -25 0 -38h-277c-3 13 -3 26 0 38l72 20v409h-72c-3 12 -3 24 0 35l72 22v34c0 154 126 202 253 202c65 0 128 -13 177 -32
v-118c-13 -2 -27 -3 -41 -3s-28 1 -40 3l-27 80c-19 5 -38 7 -57 7c-70 0 -133 -35 -133 -126z" />
    <glyph glyph-name="f_k" unicode="fk" horiz-adv-x="1000" 
d="M370 470h-122v-412l67 -20c3 -12 3 -25 0 -38h-271c-3 13 -3 26 0 38l72 20v412h-72c-3 12 -3 24 0 35l72 21v41c0 140 124 193 253 193c83 0 168 -23 222 -57v-645l72 -20c3 -12 3 -25 0 -38h-271c-3 13 -3 26 0 38l67 20v628c-21 7 -45 11 -69 11
c-71 0 -142 -33 -142 -116v-55h122c3 -19 3 -37 0 -56zM998 0h-186l-209 269v5l197 201l-64 17c-3 12 -3 25 0 38h241c3 -13 3 -26 0 -38l-90 -22l-153 -156l201 -259l63 -17c3 -12 3 -25 0 -38z" />
    <glyph glyph-name="f_t" unicode="ft" horiz-adv-x="732" 
d="M248 579v-53h211v163c-20 6 -43 9 -66 9c-72 0 -145 -32 -145 -119zM459 182v288h-211v-412l73 -20c3 -12 3 -25 0 -38h-277c-3 13 -3 26 0 38l72 20v412h-72c-3 12 -3 24 0 35l72 21v39c0 140 125 195 254 195c83 0 167 -23 221 -58v-176h132c3 -19 3 -37 0 -56h-132
v-253c0 -102 12 -174 133 -163c2 -10 3 -19 3 -28s-1 -19 -3 -28c-23 -5 -53 -8 -78 -8c-117 0 -187 51 -187 192z" />
    <glyph glyph-name="f_f" unicode="ff" horiz-adv-x="720" 
d="M248 579v-53h211v46c0 42 9 77 23 104c-27 13 -62 21 -95 21c-71 0 -139 -34 -139 -118zM712 470h-121v-412l72 -20c3 -12 3 -25 0 -38h-271c-3 13 -3 26 0 38l67 20v412h-211v-412l67 -20c3 -13 3 -26 0 -38h-271c-3 13 -3 26 0 38l72 20v412h-72c-3 12 -3 23 0 35
l72 21v39c0 139 123 195 250 195c58 0 116 -12 162 -33c35 24 78 33 121 33c37 0 78 -7 114 -17v-116c-18 -3 -37 -3 -53 0l-24 77c-76 2 -95 -39 -95 -118v-60h121c3 -19 3 -38 0 -56z" />
    <glyph glyph-name="f_f_i" unicode="ffi" horiz-adv-x="1038" 
d="M248 579v-55h211v34c0 47 12 84 32 113c-29 17 -67 26 -104 26c-71 0 -139 -34 -139 -118zM735 38l67 20v409h-211v-409l67 -20c3 -12 3 -25 0 -38h-266c-3 13 -3 26 0 38l67 20v409h-211v-409l67 -20c3 -12 3 -25 0 -38h-271c-3 13 -3 26 0 38l72 20v409h-72
c-3 11 -3 24 0 35l72 22v41c0 139 123 195 250 195c65 0 128 -15 178 -40c46 29 107 40 168 40c64 0 128 -13 176 -32v-118c-14 -2 -27 -3 -41 -3s-27 1 -39 3l-27 80c-19 5 -38 7 -57 7c-70 0 -133 -35 -133 -126v-47h280c44 0 63 -13 63 -62v-404l72 -20
c3 -12 3 -25 0 -38h-271c-3 13 -3 26 0 38z" />
    <glyph glyph-name="f_f_l" unicode="ffl" horiz-adv-x="1038" 
d="M248 579v-53h211v41c0 42 12 77 31 104c-29 16 -66 26 -103 26c-71 0 -139 -34 -139 -118zM934 703v-645l72 -20c3 -12 3 -25 0 -38h-271c-3 13 -3 26 0 38l67 20v628c-21 7 -46 11 -70 11c-70 0 -141 -33 -141 -116v-55h121c3 -19 3 -38 0 -56h-121v-412l67 -20
c3 -12 3 -25 0 -38h-268c-3 13 -3 26 0 38l69 20v412h-211v-412l67 -20c3 -12 3 -25 0 -38h-271c-3 13 -3 26 0 38l72 20v412h-72c-3 11 -3 24 0 35l72 21v39c0 139 123 195 250 195c65 0 129 -15 178 -40c47 28 106 40 168 40c82 0 168 -23 222 -57z" />
    <glyph glyph-name="f_f.alt" unicode="&#xe1b6;&#xe1b6;" horiz-adv-x="720" 
d="M248 579v-53h211v46c0 42 9 77 23 104c-27 13 -62 21 -95 21c-71 0 -139 -34 -139 -118zM712 470h-121v-412l72 -20c3 -12 3 -25 0 -38h-271c-3 13 -3 26 0 38l67 20v412h-211v-412l67 -20c3 -13 3 -26 0 -38h-271c-3 13 -3 26 0 38l72 20v412h-72c-3 12 -3 23 0 35
l72 21v39c0 139 123 195 250 195c58 0 116 -12 162 -33c35 24 78 33 121 33c37 0 78 -7 114 -17c-2 -20 -8 -40 -16 -57c-23 5 -45 7 -63 7c-62 0 -93 -29 -93 -104v-63h121c3 -19 3 -38 0 -56z" />
    <glyph glyph-name=".notdef" horiz-adv-x="500" 
d="M500 0h-500v750h500v-750zM88 690l161 -262l160 262h-321zM284 371l156 -255v510zM249 314l-156 -254h311zM214 371l-154 252v-504z" />
    <glyph glyph-name=".null" horiz-adv-x="0" 
 />
    <glyph glyph-name="space" unicode=" " horiz-adv-x="269" 
 />
    <glyph glyph-name="exclam" unicode="!" horiz-adv-x="338" 
d="M109 0c-4 20 -6 40 -6 60s2 40 6 60c20 3 42 5 63 5c19 0 41 -2 58 -5c4 -20 6 -40 6 -60s-2 -40 -6 -60c-20 -4 -41 -6 -61 -6s-40 2 -60 6zM246 700l-43 -482c-12 -2 -24 -3 -35 -3c-12 0 -23 1 -34 3l-42 482c25 3 51 5 77 5s54 -2 77 -5z" />
    <glyph glyph-name="quotedbl" unicode="&#x22;" horiz-adv-x="391" 
d="M163 756l-23 -264c-11 -2 -22 -3 -33 -3s-23 1 -34 3l-23 264c17 2 38 4 57 4s39 -2 56 -4zM341 756l-23 -264c-11 -2 -22 -3 -33 -3s-23 1 -34 3l-23 264c17 2 38 4 57 4s39 -2 56 -4z" />
    <glyph glyph-name="numbersign" unicode="#" horiz-adv-x="609" 
d="M97 0l46 197h-122c-2 11 -3 23 -3 35s1 23 3 35h139l41 172h-126c-2 11 -3 23 -3 34c0 12 1 24 3 36h142l46 191c11 2 21 3 33 3c10 0 22 -1 33 -3l-46 -191h120l46 191c10 2 21 3 32 3s22 -1 33 -3l-46 -191h119c2 -12 3 -24 3 -35c0 -12 -1 -24 -3 -35h-135l-41 -172
h122c2 -12 3 -23 3 -35s-1 -24 -3 -35h-139l-46 -197c-11 -2 -22 -3 -33 -3s-22 1 -32 3l46 197h-120l-46 -197c-11 -2 -23 -3 -33 -3c-12 0 -22 1 -33 3zM267 439l-41 -172h120l41 172h-120z" />
    <glyph glyph-name="dollar" unicode="$" horiz-adv-x="609" 
d="M59 69v143c20 3 35 3 53 0l43 -119c27 -7 62 -12 99 -12c86 0 178 26 178 109c0 71 -77 83 -166 107c-99 27 -204 58 -204 191c0 122 98 179 213 191v88c10 2 22 3 33 3s23 -1 34 -3v-86c68 -3 137 -19 187 -45v-138c-18 -3 -35 -3 -53 0l-41 104c-26 9 -61 14 -96 14
c-73 0 -155 -29 -155 -105c0 -69 70 -86 150 -105c103 -25 222 -53 222 -187c0 -118 -100 -183 -214 -201v-89c-11 -2 -23 -3 -34 -3s-23 1 -33 3v84c-80 0 -161 21 -216 56z" />
    <glyph glyph-name="percent" unicode="%" horiz-adv-x="887" 
d="M202 -2l426 730c21 -8 40 -18 56 -33l-425 -731c-22 7 -41 19 -57 34zM269 505c0 110 -22 155 -63 155s-63 -45 -63 -155s22 -155 63 -155s63 45 63 155zM375 505c0 -131 -61 -205 -169 -205c-109 0 -169 74 -169 205c0 130 60 205 169 205c108 0 169 -75 169 -205z
M744 195c0 110 -22 155 -63 155s-63 -45 -63 -155c0 -111 22 -155 63 -155s63 44 63 155zM850 195c0 -131 -61 -205 -169 -205c-109 0 -169 74 -169 205c0 130 60 205 169 205c108 0 169 -75 169 -205z" />
    <glyph glyph-name="ampersand" unicode="&#x26;" horiz-adv-x="760" 
d="M398 565c0 46 -25 102 -78 102c-54 0 -79 -47 -79 -98s37 -97 77 -143c51 30 80 81 80 139zM171 211c0 -91 64 -145 150 -145c42 0 84 13 113 37l-203 231c-36 -31 -60 -70 -60 -123zM727 0h-202l-49 56c-53 -41 -130 -66 -206 -66c-114 0 -223 60 -223 193
c0 95 64 154 141 198c-45 52 -72 103 -72 166c0 114 102 183 209 183c92 0 191 -52 191 -156c0 -96 -80 -159 -158 -193l158 -180c22 44 33 95 35 144l-54 19c-3 13 -3 26 0 39h230c3 -13 3 -26 0 -39l-84 -22c-10 -73 -36 -141 -77 -198l76 -85l85 -22c3 -11 3 -24 0 -37z
" />
    <glyph glyph-name="quotesingle" unicode="'" horiz-adv-x="213" 
d="M163 756l-23 -264c-11 -2 -22 -3 -33 -3s-23 1 -34 3l-23 264c17 2 38 4 57 4s39 -2 56 -4z" />
    <glyph glyph-name="parenleft" unicode="(" horiz-adv-x="376" 
d="M339 716c-146 -90 -167 -262 -167 -435c0 -175 20 -339 167 -438c-6 -18 -16 -33 -30 -44c-192 87 -235 262 -235 481s44 395 235 481c13 -11 23 -26 30 -45z" />
    <glyph glyph-name="parenright" unicode=")" horiz-adv-x="376" 
d="M37 -156c146 90 167 262 167 435c0 175 -20 339 -167 438c6 18 16 33 30 44c192 -87 235 -262 235 -481s-44 -395 -235 -481c-13 11 -23 26 -30 45z" />
    <glyph glyph-name="asterisk" unicode="*" horiz-adv-x="523" 
d="M78 672l152 -96c-5 -18 -14 -33 -26 -45l-159 84c8 20 19 40 33 57zM45 444l160 83c10 -11 20 -28 26 -45l-153 -95c-15 16 -26 37 -33 57zM228 302l7 177c17 4 36 4 52 0l8 -177c-11 -2 -22 -3 -34 -3c-11 0 -22 1 -33 3zM445 386l-153 95c6 18 16 34 27 45l159 -83
c-8 -21 -18 -40 -33 -57zM478 615l-159 -84c-13 13 -22 29 -27 46l154 96c14 -18 24 -38 32 -58zM295 756l-8 -177c-17 -4 -35 -4 -52 0l-7 177c11 2 23 3 34 3s22 -1 33 -3z" />
    <glyph glyph-name="plus" unicode="+" horiz-adv-x="650" 
d="M595 236h-232v-236c-13 -2 -25 -3 -38 -3s-26 1 -38 3v236h-232c-2 12 -3 24 -3 36s1 24 3 37h232v230c11 2 25 3 38 3s26 -1 38 -3v-230h232c2 -11 3 -24 3 -37s-1 -25 -3 -36z" />
    <glyph glyph-name="comma" unicode="," horiz-adv-x="268" 
d="M50 -122c34 51 57 116 57 205c0 14 -1 29 -2 44c17 3 39 5 58 5c18 0 38 -2 54 -5c1 -11 1 -22 1 -33c-1 -117 -47 -194 -130 -248c-15 7 -28 17 -38 32z" />
    <glyph glyph-name="hyphen" unicode="-" horiz-adv-x="406" 
d="M348 258h-290c-2 12 -3 25 -3 38c0 12 1 25 3 38h290c2 -13 3 -25 3 -38c0 -12 -1 -26 -3 -38z" />
    <glyph glyph-name="period" unicode="." horiz-adv-x="268" 
d="M79 125c20 2 42 4 63 4s44 -2 63 -4c3 -21 5 -42 5 -63s-2 -41 -5 -62c-20 -3 -42 -5 -63 -5s-43 2 -63 5c-3 21 -5 41 -5 62s2 42 5 63z" />
    <glyph glyph-name="slash" unicode="/" horiz-adv-x="410" 
d="M387 750l2 -3l-285 -802h-80l-2 3l285 802h80z" />
    <glyph glyph-name="zero" unicode="0" horiz-adv-x="609" 
d="M49 350c0 239 95 360 256 360s255 -121 255 -360c0 -243 -94 -360 -255 -360s-256 117 -256 360zM426 350c0 175 -27 294 -121 294c-95 0 -121 -119 -121 -294s26 -294 121 -294c94 0 121 119 121 294z" />
    <glyph glyph-name="one" unicode="1" horiz-adv-x="609" 
d="M245 65v556h-121c-3 17 -3 33 0 48l159 36c14 3 28 6 40 6c31 0 54 -15 54 -66v-580l119 -25c3 -12 3 -26 0 -40h-370c-3 13 -3 27 0 40z" />
    <glyph glyph-name="two" unicode="2" horiz-adv-x="609" 
d="M205 123h320c3 -18 4 -40 4 -62s-1 -43 -4 -61h-489v55l192 185c71 69 146 149 146 254c0 103 -67 145 -143 145c-24 0 -50 -4 -74 -12l-44 -130c-18 -4 -35 -4 -53 0v139c53 47 134 74 213 74c123 0 242 -62 242 -202c0 -128 -91 -201 -191 -283l-119 -98v-4z" />
    <glyph glyph-name="three" unicode="3" horiz-adv-x="609" 
d="M73 525v139c57 28 135 46 211 46c115 0 237 -45 237 -173c0 -82 -53 -146 -136 -161v-5c91 -8 158 -71 158 -167c0 -154 -144 -214 -282 -214c-75 0 -147 17 -204 49v146c18 3 36 3 53 0l40 -107c30 -11 64 -17 96 -17c85 0 163 43 163 147c0 102 -74 123 -174 123h-66
c-2 12 -3 23 -3 32c0 11 1 22 3 35h57c98 0 161 42 161 131c0 83 -65 115 -135 115c-31 0 -64 -7 -91 -18l-35 -101c-17 -4 -36 -4 -53 0z" />
    <glyph glyph-name="four" unicode="4" horiz-adv-x="609" 
d="M335 193h-326v59l358 458h100v-450h99c2 -11 3 -23 3 -34s-1 -22 -3 -33h-99v-128l96 -25c3 -12 3 -26 0 -40h-323c-3 13 -3 27 0 40l95 25v128zM105 260h230v292h-4l-226 -288v-4z" />
    <glyph glyph-name="five" unicode="5" horiz-adv-x="609" 
d="M86 37v144c17 3 37 3 52 0l42 -110c24 -6 50 -10 76 -10c95 0 171 56 171 166c0 113 -84 142 -174 142c-48 0 -98 -8 -138 -16l-7 7v333l6 7h405c2 -17 4 -41 4 -62s-2 -45 -4 -61h-343v-148c36 6 76 10 115 10c135 0 269 -47 269 -213c0 -164 -141 -236 -290 -236
c-65 0 -129 15 -184 47z" />
    <glyph glyph-name="six" unicode="6" horiz-adv-x="609" 
d="M317 56c80 0 109 74 109 169c0 96 -27 170 -109 170c-85 0 -113 -81 -113 -168s29 -171 113 -171zM208 417l3 -1c36 31 85 45 132 45c141 0 217 -101 217 -229c0 -145 -91 -242 -243 -242c-187 0 -249 136 -249 289c0 228 120 431 356 431c31 0 61 -4 91 -13
c1 -21 -3 -43 -12 -64c-21 5 -41 8 -60 8c-123 0 -212 -97 -235 -224z" />
    <glyph glyph-name="seven" unicode="7" horiz-adv-x="609" 
d="M72 700h477v-60l-311 -651c-33 10 -64 24 -90 45l297 543h-299l-21 -60c-17 -4 -35 -4 -53 0v183z" />
    <glyph glyph-name="eight" unicode="8" horiz-adv-x="609" 
d="M51 182c0 71 45 131 118 167v4c-57 37 -101 86 -101 170c0 120 118 187 238 187s235 -60 235 -179c0 -68 -48 -128 -114 -156v-4c73 -35 130 -81 130 -175c0 -130 -121 -206 -254 -206c-141 0 -252 71 -252 192zM304 57c69 0 119 46 119 114c0 70 -71 97 -137 124
c-15 6 -30 12 -45 19c-42 -27 -59 -74 -59 -124c0 -71 42 -133 122 -133zM199 541c0 -73 68 -101 155 -137c37 29 56 79 56 126c0 59 -32 115 -105 115c-57 0 -106 -43 -106 -104z" />
    <glyph glyph-name="nine" unicode="9" horiz-adv-x="609" 
d="M298 644c-77 0 -108 -70 -108 -165c0 -96 26 -166 108 -166c85 0 113 79 113 164c0 87 -29 167 -113 167zM298 710c187 0 249 -136 249 -289c0 -238 -127 -431 -359 -431c-33 0 -64 4 -95 13c-1 21 3 43 12 64c22 -6 43 -9 63 -9c121 0 218 102 236 231l-3 1
c-34 -31 -81 -44 -128 -44c-135 0 -218 91 -218 222c0 140 92 242 243 242z" />
    <glyph glyph-name="colon" unicode=":" horiz-adv-x="268" 
d="M79 125c20 2 42 4 63 4s44 -2 63 -4c3 -21 5 -42 5 -63s-2 -41 -5 -62c-20 -3 -42 -5 -63 -5s-43 2 -63 5c-3 21 -5 41 -5 62s2 42 5 63zM79 530c20 2 42 4 63 4s44 -2 63 -4c3 -21 5 -42 5 -63s-2 -41 -5 -62c-20 -3 -42 -5 -63 -5s-43 2 -63 5c-3 21 -5 41 -5 62
s2 42 5 63z" />
    <glyph glyph-name="semicolon" unicode=";" horiz-adv-x="268" 
d="M87 530c20 2 42 4 63 4s44 -2 63 -4c3 -21 5 -42 5 -63s-2 -41 -5 -62c-20 -3 -42 -5 -63 -5s-43 2 -63 5c-3 21 -5 41 -5 62s2 42 5 63zM48 -122c34 51 57 116 57 205c0 14 -1 29 -2 44c17 3 39 5 58 5c18 0 38 -2 54 -5c1 -11 1 -22 1 -33c-1 -117 -47 -194 -130 -248
c-15 7 -28 17 -38 32z" />
    <glyph glyph-name="less" unicode="&#x3c;" horiz-adv-x="650" 
d="M566 -10l-511 237c-2 12 -3 25 -3 38s1 25 3 39l511 236c16 -21 27 -46 33 -72l-444 -201v-4l444 -201c-6 -28 -18 -52 -33 -72z" />
    <glyph glyph-name="equal" unicode="=" horiz-adv-x="650" 
d="M596 321h-541c-2 12 -3 24 -3 36c0 13 1 25 3 37h541c2 -12 3 -24 3 -37c0 -12 -1 -24 -3 -36zM596 151h-541c-2 12 -3 23 -3 36c0 12 1 25 3 37h541c2 -13 3 -25 3 -37c0 -13 -1 -25 -3 -36z" />
    <glyph glyph-name="greater" unicode="&#x3e;" horiz-adv-x="650" 
d="M596 227l-511 -237c-15 20 -27 44 -33 72l444 201v4l-444 201c6 26 17 51 33 72l511 -236c2 -14 3 -26 3 -39s-1 -26 -3 -38z" />
    <glyph glyph-name="question" unicode="?" horiz-adv-x="482" 
d="M33 502v138c58 44 136 70 214 70c121 0 211 -57 211 -169c0 -186 -220 -151 -253 -323c-11 -2 -22 -3 -33 -3s-22 1 -32 3c-15 205 178 171 178 314c0 76 -53 108 -112 108c-27 0 -55 -7 -80 -19l-39 -119c-17 -4 -36 -4 -54 0zM118 0c-4 20 -6 40 -6 60s2 40 6 60
c20 3 42 5 63 5c19 0 41 -2 58 -5c4 -20 6 -40 6 -60s-2 -40 -6 -60c-20 -4 -41 -6 -61 -6s-40 2 -60 6z" />
    <glyph glyph-name="at" unicode="@" horiz-adv-x="863" 
d="M519 384l5 27c-13 5 -29 6 -42 6c-112 0 -157 -141 -157 -225c0 -31 8 -63 32 -63c71 0 145 166 162 255zM486 193h-4c-29 -63 -85 -130 -162 -130c-71 0 -94 65 -94 125c0 131 90 277 235 277c28 0 59 -6 83 -19c11 17 31 19 52 19h33l-41 -220c-4 -21 -9 -51 -9 -73
c0 -31 8 -56 38 -56c95 0 128 137 128 208c0 166 -106 270 -278 270c-191 0 -338 -140 -338 -367c0 -182 117 -295 289 -295c53 0 110 12 154 35c9 -14 14 -30 15 -46c-54 -30 -119 -44 -184 -44c-200 0 -357 130 -357 343c0 249 182 426 430 426c188 0 343 -120 343 -310
c0 -136 -89 -272 -247 -272c-67 0 -89 41 -89 94c0 11 1 23 3 35z" />
    <glyph glyph-name="A" unicode="A" horiz-adv-x="805" 
d="M564 65l-59 157h-273l-60 -157l91 -25c3 -13 3 -27 0 -40h-248c-3 13 -3 27 0 40l79 24l249 656h119l248 -656l80 -24c3 -13 3 -26 0 -40h-317c-3 13 -3 27 0 40zM366 577l-107 -283h218l-106 283h-5z" />
    <glyph glyph-name="B" unicode="B" horiz-adv-x="689" 
d="M465 534c0 79 -47 114 -149 114h-49v-234h53c104 0 145 43 145 120zM331 342h-64v-270h59c102 0 182 23 182 134c0 110 -74 136 -177 136zM40 40l91 25v590l-91 25c-3 13 -3 27 0 40h281c133 0 286 -24 286 -174c0 -80 -51 -140 -131 -156v-4c98 -6 174 -70 174 -170
c0 -164 -151 -216 -310 -216h-300c-3 13 -3 27 0 40z" />
    <glyph glyph-name="C" unicode="C" horiz-adv-x="685" 
d="M537 82l49 129c18 4 37 4 55 0v-157c-68 -41 -159 -64 -248 -64c-213 0 -346 135 -346 371c0 230 149 369 372 369c79 0 158 -18 217 -52v-153c-18 -4 -37 -4 -55 0l-46 115c-29 12 -63 18 -99 18c-179 0 -250 -131 -250 -298c0 -176 74 -295 249 -295c36 0 72 6 102 17z
" />
    <glyph glyph-name="D" unicode="D" horiz-adv-x="763" 
d="M348 648h-81v-576h81c173 0 229 113 229 288s-57 288 -229 288zM131 65v590l-91 25c-3 13 -3 27 0 40h309c257 0 367 -121 367 -360c0 -243 -110 -360 -367 -360h-309c-3 13 -3 27 0 40z" />
    <glyph glyph-name="E" unicode="E" horiz-adv-x="674" 
d="M131 65v590l-91 25c-3 13 -3 27 0 40h573v-163c-19 -4 -38 -4 -56 0l-34 91h-256v-237h185l25 62c14 3 30 3 45 0v-214c-15 -3 -31 -3 -45 0l-25 80h-185v-267h275l35 96c18 4 37 4 55 0v-168h-592c-3 13 -3 27 0 40z" />
    <glyph glyph-name="F" unicode="F" horiz-adv-x="627" 
d="M40 720h554v-163c-17 -4 -37 -4 -55 0l-35 91h-237v-261h171l25 66c14 3 30 3 45 0v-214c-16 -3 -31 -3 -45 0l-25 77h-171v-251l90 -25c3 -12 3 -27 0 -40h-317c-3 13 -3 27 0 40l91 25v590l-91 25c-3 13 -3 27 0 40z" />
    <glyph glyph-name="G" unicode="G" horiz-adv-x="755" 
d="M705 314l-51 -18v-306h-37c-40 0 -59 17 -68 35c-47 -23 -104 -35 -163 -35c-212 0 -339 136 -339 369c0 237 155 371 380 371c82 0 166 -17 227 -51v-153c-18 -4 -37 -4 -55 0l-46 115c-30 12 -68 17 -106 17c-182 0 -261 -114 -261 -297c0 -170 74 -295 237 -295
c34 0 69 7 99 22v201l-118 25c-3 13 -3 27 0 40h301c3 -13 3 -27 0 -40z" />
    <glyph glyph-name="H" unicode="H" horiz-adv-x="842" 
d="M267 342v-277l87 -25c3 -13 3 -27 0 -40h-314c-3 13 -3 27 0 40l91 25v590l-91 25c-3 13 -3 27 0 40h314c3 -13 3 -27 0 -40l-87 -25v-241h309v241l-88 25c-3 13 -3 27 0 40h314c3 -13 3 -27 0 -40l-90 -25v-590l90 -25c3 -12 3 -27 0 -40h-314c-3 13 -3 27 0 40l88 25
v277h-309z" />
    <glyph glyph-name="I" unicode="I" horiz-adv-x="397" 
d="M131 655l-91 25c-3 13 -3 27 0 40h317c3 -13 3 -27 0 -40l-90 -25v-590l90 -25c3 -13 3 -27 0 -40h-317c-3 13 -3 27 0 40l91 25v590z" />
    <glyph glyph-name="J" unicode="J" horiz-adv-x="398" 
d="M130 76v579l-91 25c-3 13 -3 27 0 40h317c3 -13 3 -27 0 -40l-90 -25v-617c0 -129 -100 -200 -244 -200c-7 14 -10 28 -11 44c102 21 119 90 119 194z" />
    <glyph glyph-name="K" unicode="K" horiz-adv-x="773" 
d="M766 0h-202l-285 361l258 302l-61 17c-3 12 -3 26 0 40h254c3 -13 3 -27 0 -40l-105 -28l-211 -244l268 -343l84 -25c3 -13 3 -27 0 -40zM357 680l-90 -25v-590l90 -25c3 -13 3 -27 0 -40h-317c-3 13 -3 27 0 40l91 25v590l-91 25c-3 13 -3 27 0 40h317
c3 -13 3 -27 0 -40z" />
    <glyph glyph-name="L" unicode="L" horiz-adv-x="612" 
d="M601 0h-561c-3 13 -3 27 0 40l91 25v590l-91 25c-3 13 -3 27 0 40h317c3 -13 3 -27 0 -40l-90 -25v-583h235l44 113c18 4 37 4 55 0v-185z" />
    <glyph glyph-name="M" unicode="M" horiz-adv-x="1047" 
d="M521 176l218 544h241c3 -13 3 -27 0 -40l-91 -25l28 -590l91 -25c3 -12 3 -27 0 -40h-318c-3 13 -3 27 0 40l90 25l-23 493h-4l-225 -558h-92l-205 558h-4l-43 -493l91 -25c3 -12 3 -27 0 -40h-245c-3 13 -3 27 0 40l80 24l53 591l-91 25c-3 13 -3 27 0 40h246l199 -544
h4z" />
    <glyph glyph-name="N" unicode="N" horiz-adv-x="772" 
d="M197 572h-4v-507l90 -25c3 -13 3 -27 0 -40h-243c-3 13 -3 27 0 40l80 24v592l-80 24c-3 13 -3 27 0 40h227l309 -516h4v451l-91 25c-3 13 -3 27 0 40h244c3 -13 3 -27 0 -40l-80 -24v-656h-113z" />
    <glyph glyph-name="O" unicode="O" horiz-adv-x="765" 
d="M47 360c0 239 113 370 336 370c225 0 335 -131 335 -370c0 -243 -110 -370 -335 -370c-223 0 -336 127 -336 370zM578 360c0 175 -49 298 -195 298c-144 0 -197 -123 -197 -298s53 -298 197 -298c146 0 195 123 195 298z" />
    <glyph glyph-name="P" unicode="P" horiz-adv-x="657" 
d="M481 491c0 103 -59 157 -185 157h-29v-319h24c127 0 190 62 190 162zM297 257h-30v-192l90 -25c3 -12 3 -27 0 -40h-317c-3 13 -3 27 0 40l91 25v590l-91 25c-3 13 -3 27 0 40h255c217 0 323 -69 323 -221c0 -133 -101 -242 -321 -242z" />
    <glyph glyph-name="Q" unicode="Q" horiz-adv-x="765" 
d="M578 360c0 175 -49 298 -195 298c-144 0 -197 -123 -197 -298s53 -298 197 -298c146 0 195 123 195 298zM47 360c0 239 113 370 336 370c225 0 335 -131 335 -370c0 -216 -86 -340 -264 -364c11 -59 40 -99 113 -114c0 -16 -3 -30 -11 -44c-126 0 -217 56 -237 156
c-181 22 -272 147 -272 366z" />
    <glyph glyph-name="R" unicode="R" horiz-adv-x="733" 
d="M481 505c0 102 -61 143 -185 143h-29v-290h24c126 0 190 49 190 147zM316 287h-49v-222l84 -25c3 -12 3 -27 0 -40h-311c-3 13 -3 27 0 40l91 25v590l-91 25c-3 13 -3 27 0 40h255c215 0 323 -55 323 -206c0 -92 -49 -167 -153 -202l183 -247l77 -25c3 -13 3 -27 0 -40
h-198z" />
    <glyph glyph-name="S" unicode="S" horiz-adv-x="619" 
d="M48 51v158c18 4 38 4 56 0l48 -130c29 -8 66 -14 105 -14c91 0 188 30 188 123c0 164 -392 53 -392 327c0 153 133 215 275 215c81 0 161 -20 220 -51v-153c-18 -4 -37 -4 -55 0l-45 117c-27 9 -61 15 -96 15c-82 0 -168 -31 -168 -118c0 -171 394 -63 394 -321
c0 -160 -152 -229 -305 -229c-84 0 -168 22 -225 61z" />
    <glyph glyph-name="T" unicode="T" horiz-adv-x="649" 
d="M538 648h-145v-583l90 -25c3 -12 3 -27 0 -40h-317c-3 13 -3 27 0 40l90 25v583h-145l-42 -108c-18 -4 -37 -4 -55 0v180h621v-180c-18 -4 -37 -4 -55 0z" />
    <glyph glyph-name="U" unicode="U" horiz-adv-x="788" 
d="M122 655l-80 25c-3 13 -3 27 0 40h310c3 -13 3 -27 0 -40l-94 -25v-361c0 -151 42 -223 169 -223c119 0 169 80 169 224v360l-91 25c-3 13 -3 27 0 40h244c3 -13 3 -27 0 -40l-80 -24v-352c0 -197 -73 -314 -273 -314c-209 0 -274 109 -274 314v351z" />
    <glyph glyph-name="V" unicode="V" horiz-adv-x="793" 
d="M13 720h318c3 -13 3 -27 0 -40l-92 -25l190 -512h4l192 512l-92 25c-3 13 -3 27 0 40h249c3 -13 3 -27 0 -40l-79 -24l-247 -656h-118l-245 656l-80 24c-3 14 -3 27 0 40z" />
    <glyph glyph-name="W" unicode="W" horiz-adv-x="1072" 
d="M17 720h314c3 -13 3 -27 0 -40l-92 -25l127 -472h5l153 527h93l147 -527h5l130 472l-90 25c-3 13 -3 27 0 40h248c3 -13 3 -27 0 -40l-82 -25l-182 -655h-118l-136 486h-4l-141 -486h-118l-178 655l-81 25c-3 14 -3 27 0 40z" />
    <glyph glyph-name="X" unicode="X" horiz-adv-x="746" 
d="M341 298l-159 -234l88 -24c3 -13 3 -27 0 -40h-255c-3 13 -3 27 0 40l77 23l207 302l-186 291l-78 24c-3 14 -3 27 0 40h320c3 -13 3 -27 0 -40l-81 -25l131 -204l140 204l-80 25c-3 13 -3 27 0 40h247c3 -13 3 -27 0 -40l-77 -23l-187 -273l205 -321l78 -23
c3 -13 3 -27 0 -40h-329c-3 13 -3 27 0 40l89 25z" />
    <glyph glyph-name="Y" unicode="Y" horiz-adv-x="728" 
d="M436 279v-214l90 -25c3 -12 3 -27 0 -40h-317c-3 13 -3 27 0 40l91 25v212l-212 379l-78 24c-3 14 -3 27 0 40h322c3 -13 3 -27 0 -40l-89 -25l158 -283h4l152 283l-86 25c-3 13 -3 27 0 40h247c3 -13 3 -27 0 -40l-75 -23z" />
    <glyph glyph-name="Z" unicode="Z" horiz-adv-x="651" 
d="M57 720h550v-66l-407 -582h323l44 113c18 4 37 4 55 0v-185h-593v66l404 582h-279l-41 -108c-18 -4 -38 -4 -56 0v180z" />
    <glyph glyph-name="bracketleft" unicode="[" horiz-adv-x="376" 
d="M335 684h-129v-808h129c2 -11 3 -22 3 -33s-1 -23 -3 -33h-218l-5 5v930l5 5h218c2 -11 3 -22 3 -33s-1 -23 -3 -33z" />
    <glyph glyph-name="backslash" unicode="\" horiz-adv-x="410" 
d="M307 -55l-285 802l2 3h80l285 -802l-2 -3h-80z" />
    <glyph glyph-name="bracketright" unicode="]" horiz-adv-x="376" 
d="M169 -124v808h-129c-2 10 -3 22 -3 33s1 22 3 33h218l5 -5v-930l-5 -5h-218c-2 10 -3 22 -3 33s1 22 3 33h129z" />
    <glyph glyph-name="asciicircum" unicode="^" horiz-adv-x="650" 
d="M68 270l225 430c8 1 21 2 32 2s24 -1 32 -2l224 -430c-19 -17 -45 -29 -70 -34l-184 355h-4l-185 -355c-26 5 -50 17 -70 34z" />
    <glyph glyph-name="underscore" unicode="_" horiz-adv-x="500" 
d="M500 -75v-50h-500v50h500z" />
    <glyph glyph-name="grave" unicode="`" horiz-adv-x="400" 
d="M177 781l114 -161c-12 -15 -26 -28 -44 -37l-139 140c20 23 43 42 69 58z" />
    <glyph glyph-name="a" unicode="a" horiz-adv-x="611" 
d="M511 361v-302h73c3 -16 3 -33 0 -48l-132 -21c-38 -6 -73 9 -73 68v9h-4c-41 -52 -101 -77 -167 -77c-93 0 -161 54 -161 154c0 167 191 177 332 178v51c0 80 -61 99 -126 99c-31 0 -63 -4 -89 -9l-28 -89c-18 -4 -35 -4 -53 0v125c67 23 146 41 213 41
c119 0 215 -44 215 -179zM379 135v132h-19c-72 0 -179 -17 -179 -117c0 -56 32 -81 74 -81c46 0 98 29 124 66z" />
    <glyph glyph-name="b" unicode="b" horiz-adv-x="621" 
d="M233 397v-332c19 -6 38 -9 56 -9c119 0 158 116 158 219c0 75 -19 184 -108 184c-42 0 -79 -28 -106 -62zM101 -10v696h-73c-3 16 -3 32 0 48l141 23c49 8 64 -13 64 -59v-232h4c36 46 88 74 146 74c138 0 198 -125 198 -251c0 -167 -92 -299 -263 -299
c-35 0 -70 7 -104 23c-16 -20 -40 -23 -74 -23h-39z" />
    <glyph glyph-name="c" unicode="c" horiz-adv-x="528" 
d="M491 167v-128c-50 -32 -118 -49 -184 -49c-167 0 -267 92 -267 274c0 181 111 276 271 276c63 0 126 -15 175 -41v-123c-18 -4 -35 -4 -53 0l-28 89c-18 5 -38 8 -60 8c-126 0 -170 -83 -170 -209c0 -129 45 -204 173 -204c22 0 44 3 61 8l29 99c17 4 35 4 53 0z" />
    <glyph glyph-name="d" unicode="d" horiz-adv-x="624" 
d="M389 528v158h-73c-3 16 -3 32 0 48l141 23c50 8 64 -14 64 -59v-639h72c3 -17 3 -33 0 -48l-132 -21c-37 -6 -72 10 -72 68v7h-5c-36 -49 -91 -75 -149 -75c-140 0 -195 126 -195 256c0 173 103 294 270 294c26 0 53 -4 79 -12zM389 134v337c-16 4 -33 6 -49 6
c-124 0 -165 -104 -165 -226c0 -74 13 -180 106 -180c42 0 83 25 108 63z" />
    <glyph glyph-name="e" unicode="e" horiz-adv-x="573" 
d="M523 266h-348c0 -141 53 -209 178 -209c27 0 56 4 79 11l29 94c17 4 35 4 53 0v-123c-57 -31 -130 -49 -202 -49c-167 0 -272 92 -272 275c0 171 96 275 261 275c149 0 225 -99 225 -225c0 -14 -1 -30 -3 -49zM299 475c-77 0 -112 -70 -121 -153l216 14
c0 90 -41 139 -95 139z" />
    <glyph glyph-name="f" unicode="f" horiz-adv-x="377" 
d="M370 470h-122v-412l73 -20c3 -11 3 -26 0 -38h-277c-3 13 -3 26 0 38l72 20v412h-72c-2 11 -2 23 0 35l72 21v46c0 134 84 188 190 188c31 0 73 -5 114 -17v-116c-17 -4 -35 -4 -52 0l-25 77c-76 4 -95 -39 -95 -118v-60h122c3 -19 3 -37 0 -56z" />
    <glyph glyph-name="g" unicode="g" horiz-adv-x="570" 
d="M497 354c0 -122 -73 -187 -218 -187c-41 0 -75 5 -104 15c-16 -14 -25 -29 -25 -45c0 -44 63 -44 113 -44h111c98 0 173 -31 173 -124c0 -143 -158 -180 -284 -180c-79 0 -157 15 -209 37v123c17 3 34 3 49 0l28 -74c22 -11 77 -20 136 -20c63 0 179 10 179 78
c0 22 -15 37 -72 37h-122c-97 0 -192 20 -192 122c0 44 25 83 68 110v4c-46 31 -68 80 -68 148c0 120 75 186 219 186c46 0 85 -7 116 -20h158c4 -18 4 -38 0 -56h-86v-4c20 -29 30 -64 30 -106zM364 354c0 95 -28 121 -85 121c-58 0 -86 -27 -86 -121s27 -121 86 -121
c57 0 85 27 85 121z" />
    <glyph glyph-name="h" unicode="h" horiz-adv-x="678" 
d="M107 58v628h-72c-3 16 -3 32 0 48l140 23c47 8 64 -9 64 -59v-233h4c48 47 109 75 180 75c114 0 155 -80 155 -204v-278l73 -20c3 -12 3 -25 0 -38h-270c-3 13 -3 26 0 38l65 20v241c0 77 -3 155 -88 155c-43 0 -90 -24 -119 -52v-344l66 -20c3 -12 3 -25 0 -38h-270
c-3 13 -3 26 0 38z" />
    <glyph glyph-name="i" unicode="i" horiz-adv-x="354" 
d="M114 746c19 3 41 5 61 5s41 -2 60 -5c4 -19 6 -40 6 -62c0 -20 -2 -40 -6 -58c-18 -3 -39 -5 -58 -5c-21 0 -43 2 -63 5c-3 19 -5 39 -5 58c0 21 2 41 5 62zM117 58v408h-73c-3 16 -3 32 0 48l140 23c51 8 65 -13 65 -59v-420l72 -20c3 -12 3 -25 0 -38h-277
c-3 13 -3 26 0 38z" />
    <glyph glyph-name="j" unicode="j" horiz-adv-x="342" 
d="M111 20v446h-73c-3 16 -3 32 0 48l141 23c49 8 64 -13 64 -59v-485c0 -118 -83 -184 -208 -198c-10 12 -16 27 -18 43c85 36 94 91 94 182zM106 746c19 3 41 5 61 5s41 -2 60 -5c4 -19 6 -40 6 -62c0 -20 -2 -40 -6 -58c-18 -3 -39 -5 -58 -5c-21 0 -43 2 -63 5
c-3 19 -5 39 -5 58c0 21 2 41 5 62z" />
    <glyph glyph-name="k" unicode="k" horiz-adv-x="646" 
d="M644 0h-186l-209 269v5l197 201l-64 17c-3 12 -3 25 0 38h241c3 -13 3 -26 0 -38l-90 -22l-153 -156l201 -259l63 -17c3 -11 3 -25 0 -38zM105 58v628h-73c-3 17 -3 32 0 48l140 23c51 8 65 -15 65 -59v-640l65 -20c3 -11 3 -25 0 -38h-270c-3 13 -3 26 0 38z" />
    <glyph glyph-name="l" unicode="l" horiz-adv-x="342" 
d="M105 58v628h-73c-3 17 -3 32 0 48l140 23c51 8 65 -15 65 -59v-640l72 -20c3 -11 3 -25 0 -38h-277c-3 13 -3 26 0 38z" />
    <glyph glyph-name="m" unicode="m" horiz-adv-x="1013" 
d="M117 58v408h-73c-3 16 -3 32 0 48l140 23c52 9 65 -13 65 -59v-13h4c42 40 100 75 167 75c60 0 109 -19 139 -79h4c55 53 116 79 182 79c129 0 168 -82 168 -204v-278l72 -20c3 -12 3 -25 0 -38h-270c-3 13 -3 26 0 38l66 20v241c0 71 -4 155 -95 155
c-39 0 -81 -19 -111 -45c4 -23 6 -48 6 -73v-278l63 -20c3 -12 3 -25 0 -38h-259c-3 13 -3 26 0 38l64 20v241c0 71 -4 155 -88 155c-41 0 -82 -24 -112 -52v-344l65 -20c3 -12 3 -25 0 -38h-270c-3 13 -3 26 0 38z" />
    <glyph glyph-name="n" unicode="n" horiz-adv-x="688" 
d="M117 58v408h-73c-3 16 -3 32 0 48l140 23c53 9 65 -15 65 -59v-13h4c50 49 109 75 174 75c122 0 161 -82 161 -204v-278l72 -20c3 -12 3 -25 0 -38h-270c-3 13 -3 26 0 38l66 20v241c0 71 -5 155 -89 155c-42 0 -90 -24 -118 -52v-344l65 -20c3 -12 3 -25 0 -38h-270
c-3 13 -3 26 0 38z" />
    <glyph glyph-name="o" unicode="o" horiz-adv-x="601" 
d="M427 265c0 149 -52 209 -126 209c-75 0 -126 -60 -126 -209s51 -209 126 -209c74 0 126 60 126 209zM561 265c0 -176 -91 -275 -260 -275c-170 0 -261 99 -261 275c0 173 91 275 261 275c169 0 260 -102 260 -275z" />
    <glyph glyph-name="p" unicode="p" horiz-adv-x="631" 
d="M243 397v-339c18 -4 35 -6 50 -6c110 0 164 100 164 221c0 78 -20 186 -108 186c-43 0 -80 -26 -106 -62zM111 -142v608h-73c-3 16 -3 32 0 48l140 23c54 9 65 -15 65 -59v-12h4c36 46 87 74 147 74c136 0 197 -122 197 -250c0 -166 -104 -300 -269 -300
c-26 0 -53 3 -79 10v-142l72 -20c3 -11 3 -25 0 -38h-277c-3 12 -3 26 0 38z" />
    <glyph glyph-name="q" unicode="q" horiz-adv-x="620" 
d="M387 134v331c-14 5 -32 8 -49 8c-122 0 -163 -100 -163 -222c0 -73 12 -180 104 -180c43 0 84 25 108 63zM315 -162l72 20v207h-4c-34 -50 -90 -75 -148 -75c-142 0 -195 129 -195 256c0 160 94 294 261 294c35 0 72 -7 104 -23c17 22 39 23 76 23h38v-682l73 -20
c3 -11 3 -25 0 -38h-277c-3 13 -3 26 0 38z" />
    <glyph glyph-name="r" unicode="r" horiz-adv-x="481" 
d="M117 466h-73c-3 16 -3 32 0 48l140 23c53 9 65 -15 65 -59v-13h4c38 43 88 75 167 75c18 0 36 -1 55 -5v-148c-19 -4 -36 -4 -53 0l-20 64c-57 10 -122 -15 -153 -49v-344l72 -20c3 -11 3 -25 0 -38h-277c-3 13 -3 26 0 38l73 20v408z" />
    <glyph glyph-name="s" unicode="s" horiz-adv-x="504" 
d="M101 162l28 -93c23 -8 54 -13 87 -13c65 0 134 21 134 83c0 104 -299 32 -299 238c0 123 118 163 222 163c60 0 121 -14 170 -36v-120c-17 -4 -35 -4 -52 0l-27 83c-19 4 -45 7 -73 7c-58 0 -120 -15 -120 -74c0 -112 300 -38 300 -235c0 -124 -120 -175 -240 -175
c-69 0 -137 16 -183 44v128c18 4 36 4 53 0z" />
    <glyph glyph-name="t" unicode="t" horiz-adv-x="380" 
d="M99 182v288h-73c-2 11 -2 24 0 35l73 21v145l124 23l8 -7v-161h131c4 -19 4 -37 0 -56h-131v-253c0 -102 12 -174 133 -163c4 -19 4 -38 0 -56c-23 -5 -53 -8 -78 -8c-118 0 -187 51 -187 192z" />
    <glyph glyph-name="u" unicode="u" horiz-adv-x="675" 
d="M438 133v333h-73c-3 16 -3 32 0 48l141 23c52 8 64 -15 64 -59v-419h72c3 -16 3 -33 0 -48l-132 -21c-37 -6 -72 9 -72 68v9h-4c-45 -49 -106 -77 -174 -77c-139 0 -160 103 -160 235v241h-73c-3 16 -3 32 0 48l140 23c52 9 65 -15 65 -59v-249c0 -74 4 -153 86 -153
c44 0 89 23 120 57z" />
    <glyph glyph-name="v" unicode="v" horiz-adv-x="613" 
d="M249 0l-187 473l-59 19c-3 12 -3 25 0 38h272c3 -12 3 -26 0 -38l-72 -20l135 -344h4l135 344l-76 20c-3 12 -3 25 0 38h212c3 -13 3 -26 0 -38l-62 -18l-188 -474h-114z" />
    <glyph glyph-name="w" unicode="w" horiz-adv-x="863" 
d="M294 150l131 370h84l102 -370h4l114 322l-76 20c-3 12 -3 25 0 38h208c3 -13 3 -26 0 -38l-60 -18l-169 -474h-114l-88 319h-4l-115 -319h-114l-132 473l-59 19c-3 12 -3 25 0 38h267c3 -13 3 -26 0 -38l-71 -20l88 -322h4z" />
    <glyph glyph-name="x" unicode="x" horiz-adv-x="591" 
d="M226 258l-152 218l-52 16c-3 12 -3 25 0 38h267c3 -13 3 -26 0 -38l-56 -16l93 -132l99 131l-57 17c-3 12 -3 25 0 38h201c3 -12 3 -26 0 -38l-62 -17l-142 -188l162 -231l60 -18c3 -12 3 -25 0 -38h-283c-3 12 -3 25 0 38l63 18l-101 145l-109 -144l60 -19
c3 -12 3 -25 0 -38h-213c-3 13 -3 26 0 38l70 18z" />
    <glyph glyph-name="y" unicode="y" horiz-adv-x="609" 
d="M51 -192v140c18 4 36 4 53 0l20 -64c51 -3 107 17 158 109l-217 479l-62 20c-3 12 -3 25 0 38h267c3 -13 3 -26 0 -38l-61 -20l140 -311h4l120 311l-75 20c-3 12 -3 25 0 38h211c3 -13 3 -26 0 -38l-62 -18l-147 -375c-73 -186 -140 -300 -291 -300c-20 0 -41 3 -58 9z
" />
    <glyph glyph-name="z" unicode="z" horiz-adv-x="534" 
d="M321 458v4h-197l-24 -75c-17 -4 -35 -4 -53 0v143h444v-60l-291 -398v-4h227l24 80c16 4 34 4 52 0v-148h-472v60z" />
    <glyph glyph-name="braceleft" unicode="{" horiz-adv-x="376" 
d="M339 -190h-34c-124 0 -173 70 -173 179v77c0 108 -20 181 -105 181c-2 10 -3 20 -3 31c0 10 1 21 3 32c85 0 105 74 105 181v80c0 108 49 179 173 179h34c2 -11 3 -21 3 -32s-1 -21 -3 -31h-28c-60 0 -84 -34 -84 -123v-93c0 -89 -16 -159 -110 -190v-4
c92 -31 110 -101 110 -190v-90c0 -89 24 -124 84 -124h28c2 -11 3 -21 3 -32s-1 -21 -3 -31z" />
    <glyph glyph-name="bar" unicode="|" horiz-adv-x="288" 
d="M185 765v-990l-5 -5h-71l-5 5v990l5 5h71z" />
    <glyph glyph-name="braceright" unicode="}" horiz-adv-x="376" 
d="M69 -190h-34c-2 10 -3 20 -3 31s1 21 3 32h28c60 0 84 35 84 124v90c0 89 18 159 110 190v4c-94 31 -110 101 -110 190v93c0 89 -24 123 -84 123h-28c-2 10 -3 20 -3 31s1 21 3 32h34c124 0 173 -71 173 -179v-80c0 -107 20 -181 105 -181c2 -11 3 -22 3 -32
c0 -11 -1 -21 -3 -31c-85 0 -105 -73 -105 -181v-77c0 -109 -49 -179 -173 -179z" />
    <glyph glyph-name="asciitilde" unicode="~" horiz-adv-x="650" 
d="M117 207c-11 -2 -22 -3 -33 -3s-22 1 -32 3c0 111 46 195 145 195c111 0 178 -115 264 -115c53 0 72 60 73 110c10 2 21 3 32 3s22 -1 33 -3c0 -117 -44 -195 -141 -195c-112 0 -190 115 -266 115c-54 0 -73 -56 -75 -110z" />
    <glyph glyph-name="Adieresis" unicode="&#xc4;" horiz-adv-x="805" 
d="M564 65l-59 157h-273l-60 -157l91 -25c3 -13 3 -27 0 -40h-248c-3 13 -3 27 0 40l79 24l249 656h119l248 -656l80 -24c3 -13 3 -26 0 -40h-317c-3 13 -3 27 0 40zM366 577l-107 -283h218l-106 283h-5zM346 789c-19 -2 -37 -3 -55 -3s-37 1 -55 3c-2 18 -3 36 -3 54
s1 37 3 55c18 2 37 3 55 3s36 -1 55 -3c2 -18 3 -37 3 -55s-1 -36 -3 -54zM568 789c-19 -2 -37 -3 -55 -3s-37 1 -55 3c-2 18 -3 36 -3 54s1 37 3 55c18 2 37 3 55 3s36 -1 55 -3c2 -18 3 -37 3 -55s-1 -36 -3 -54z" />
    <glyph glyph-name="Aring" unicode="&#xc5;" horiz-adv-x="805" 
d="M564 65l-59 157h-273l-60 -157l91 -25c3 -13 3 -27 0 -40h-248c-3 13 -3 27 0 40l79 24l249 656h119l248 -656l80 -24c3 -13 3 -26 0 -40h-317c-3 13 -3 27 0 40zM366 577l-107 -283h218l-106 283h-5zM297 854c0 61 44 100 104 100s105 -39 105 -100s-45 -99 -105 -99
s-104 38 -104 99zM354 854c0 -32 19 -55 47 -55s48 23 48 55s-20 56 -48 56s-47 -24 -47 -56z" />
    <glyph glyph-name="Ccedilla" unicode="&#xc7;" horiz-adv-x="685" 
d="M537 82l49 129c18 4 37 4 55 0v-157c-52 -32 -118 -53 -186 -60c9 -25 15 -53 15 -79c0 -70 -36 -121 -113 -121c-33 0 -66 9 -87 26c2 17 8 34 17 50c14 -7 28 -11 42 -11c51 0 66 45 66 89c0 15 -2 29 -4 42c-212 1 -344 135 -344 371c0 230 149 369 372 369
c79 0 158 -18 217 -52v-153c-18 -4 -37 -4 -55 0l-46 115c-29 12 -63 18 -99 18c-179 0 -250 -131 -250 -298c0 -176 74 -295 249 -295c36 0 72 6 102 17z" />
    <glyph glyph-name="Eacute" unicode="&#xc9;" horiz-adv-x="674" 
d="M131 65v590l-91 25c-3 13 -3 27 0 40h573v-163c-19 -4 -38 -4 -56 0l-34 91h-256v-237h185l25 62c14 3 30 3 45 0v-214c-15 -3 -31 -3 -45 0l-25 80h-185v-267h275l35 96c18 4 37 4 55 0v-168h-592c-3 13 -3 27 0 40zM287 822l181 113c19 -24 33 -53 42 -81l-196 -84
c-12 14 -22 33 -27 52z" />
    <glyph glyph-name="Ntilde" unicode="&#xd1;" horiz-adv-x="772" 
d="M197 572h-4v-507l90 -25c3 -13 3 -27 0 -40h-243c-3 13 -3 27 0 40l80 24v592l-80 24c-3 13 -3 27 0 40h227l309 -516h4v451l-91 25c-3 13 -3 27 0 40h244c3 -13 3 -27 0 -40l-80 -24v-656h-113zM292 784c-18 -4 -36 -4 -54 0c0 71 33 130 93 130c54 0 90 -56 130 -56
c24 0 35 30 36 57c18 4 36 4 54 0c0 -68 -28 -129 -88 -129c-65 0 -97 56 -134 56c-21 0 -34 -35 -37 -58z" />
    <glyph glyph-name="Odieresis" unicode="&#xd6;" horiz-adv-x="765" 
d="M47 360c0 239 113 370 336 370c225 0 335 -131 335 -370c0 -243 -110 -370 -335 -370c-223 0 -336 127 -336 370zM578 360c0 175 -49 298 -195 298c-144 0 -197 -123 -197 -298s53 -298 197 -298c146 0 195 123 195 298zM326 789c-19 -2 -37 -3 -55 -3s-37 1 -55 3
c-2 18 -3 36 -3 54s1 37 3 55c18 2 37 3 55 3s36 -1 55 -3c2 -18 3 -37 3 -55s-1 -36 -3 -54zM548 789c-19 -2 -37 -3 -55 -3s-37 1 -55 3c-2 18 -3 36 -3 54s1 37 3 55c18 2 37 3 55 3s36 -1 55 -3c2 -18 3 -37 3 -55s-1 -36 -3 -54z" />
    <glyph glyph-name="Udieresis" unicode="&#xdc;" horiz-adv-x="788" 
d="M122 655l-80 25c-3 13 -3 27 0 40h310c3 -13 3 -27 0 -40l-94 -25v-361c0 -151 42 -223 169 -223c119 0 169 80 169 224v360l-91 25c-3 13 -3 27 0 40h244c3 -13 3 -27 0 -40l-80 -24v-352c0 -197 -73 -314 -273 -314c-209 0 -274 109 -274 314v351zM360 789
c-19 -2 -37 -3 -55 -3s-37 1 -55 3c-2 18 -3 36 -3 54s1 37 3 55c18 2 37 3 55 3s36 -1 55 -3c2 -18 3 -37 3 -55s-1 -36 -3 -54zM582 789c-19 -2 -37 -3 -55 -3s-37 1 -55 3c-2 18 -3 36 -3 54s1 37 3 55c18 2 37 3 55 3s36 -1 55 -3c2 -18 3 -37 3 -55s-1 -36 -3 -54z" />
    <glyph glyph-name="aacute" unicode="&#xe1;" horiz-adv-x="611" 
d="M511 361v-302h73c3 -16 3 -33 0 -48l-132 -21c-38 -6 -73 9 -73 68v9h-4c-41 -52 -101 -77 -167 -77c-93 0 -161 54 -161 154c0 167 191 177 332 178v51c0 80 -61 99 -126 99c-31 0 -63 -4 -89 -9l-28 -89c-18 -4 -35 -4 -53 0v125c67 23 146 41 213 41
c119 0 215 -44 215 -179zM379 135v132h-19c-72 0 -179 -17 -179 -117c0 -56 32 -81 74 -81c46 0 98 29 124 66zM256 620l114 161c27 -17 49 -36 69 -58l-138 -140c-17 8 -33 22 -45 37z" />
    <glyph glyph-name="agrave" unicode="&#xe0;" horiz-adv-x="611" 
d="M511 361v-302h73c3 -16 3 -33 0 -48l-132 -21c-38 -6 -73 9 -73 68v9h-4c-41 -52 -101 -77 -167 -77c-93 0 -161 54 -161 154c0 167 191 177 332 178v51c0 80 -61 99 -126 99c-31 0 -63 -4 -89 -9l-28 -89c-18 -4 -35 -4 -53 0v125c67 23 146 41 213 41
c119 0 215 -44 215 -179zM379 135v132h-19c-72 0 -179 -17 -179 -117c0 -56 32 -81 74 -81c46 0 98 29 124 66zM249 781l114 -161c-12 -15 -26 -28 -44 -37l-139 140c20 23 43 42 69 58z" />
    <glyph glyph-name="acircumflex" unicode="&#xe2;" horiz-adv-x="611" 
d="M511 361v-302h73c3 -16 3 -33 0 -48l-132 -21c-38 -6 -73 9 -73 68v9h-4c-41 -52 -101 -77 -167 -77c-93 0 -161 54 -161 154c0 167 191 177 332 178v51c0 80 -61 99 -126 99c-31 0 -63 -4 -89 -9l-28 -89c-18 -4 -35 -4 -53 0v125c67 23 146 41 213 41
c119 0 215 -44 215 -179zM379 135v132h-19c-72 0 -179 -17 -179 -117c0 -56 32 -81 74 -81c46 0 98 29 124 66zM299 782h10l134 -161c-11 -16 -25 -29 -42 -38l-97 97l-98 -97c-18 9 -32 23 -42 38z" />
    <glyph glyph-name="adieresis" unicode="&#xe4;" horiz-adv-x="611" 
d="M511 361v-302h73c3 -16 3 -33 0 -48l-132 -21c-38 -6 -73 9 -73 68v9h-4c-41 -52 -101 -77 -167 -77c-93 0 -161 54 -161 154c0 167 191 177 332 178v51c0 80 -61 99 -126 99c-31 0 -63 -4 -89 -9l-28 -89c-18 -4 -35 -4 -53 0v125c67 23 146 41 213 41
c119 0 215 -44 215 -179zM379 135v132h-19c-72 0 -179 -17 -179 -117c0 -56 32 -81 74 -81c46 0 98 29 124 66zM243 623c-19 -3 -37 -4 -55 -4s-37 1 -54 4c-3 18 -4 36 -4 54s1 37 4 55c16 2 36 4 54 4s39 -2 55 -4c2 -14 4 -37 4 -55s-2 -40 -4 -54zM461 623
c-19 -3 -37 -4 -55 -4s-37 1 -54 4c-3 18 -4 36 -4 54s1 37 4 55c16 2 36 4 54 4s39 -2 55 -4c2 -14 4 -37 4 -55s-2 -40 -4 -54z" />
    <glyph glyph-name="atilde" unicode="&#xe3;" horiz-adv-x="611" 
d="M511 361v-302h73c3 -16 3 -33 0 -48l-132 -21c-38 -6 -73 9 -73 68v9h-4c-41 -52 -101 -77 -167 -77c-93 0 -161 54 -161 154c0 167 191 177 332 178v51c0 80 -61 99 -126 99c-31 0 -63 -4 -89 -9l-28 -89c-18 -4 -35 -4 -53 0v125c67 23 146 41 213 41
c119 0 215 -44 215 -179zM379 135v132h-19c-72 0 -179 -17 -179 -117c0 -56 32 -81 74 -81c46 0 98 29 124 66zM203 601c-18 -4 -36 -4 -54 0c0 71 33 130 93 130c54 0 90 -56 130 -56c24 0 35 30 36 57c18 4 36 4 54 0c0 -68 -28 -129 -88 -129c-65 0 -97 56 -134 56
c-21 0 -34 -35 -37 -58z" />
    <glyph glyph-name="aring" unicode="&#xe5;" horiz-adv-x="611" 
d="M511 361v-302h73c3 -16 3 -33 0 -48l-132 -21c-38 -6 -73 9 -73 68v9h-4c-41 -52 -101 -77 -167 -77c-93 0 -161 54 -161 154c0 167 191 177 332 178v51c0 80 -61 99 -126 99c-31 0 -63 -4 -89 -9l-28 -89c-18 -4 -35 -4 -53 0v125c67 23 146 41 213 41
c119 0 215 -44 215 -179zM379 135v132h-19c-72 0 -179 -17 -179 -117c0 -56 32 -81 74 -81c46 0 98 29 124 66zM193 682c0 61 44 100 104 100s105 -39 105 -100s-45 -99 -105 -99s-104 38 -104 99zM250 682c0 -32 19 -55 47 -55s48 23 48 55s-20 56 -48 56s-47 -24 -47 -56z
" />
    <glyph glyph-name="ccedilla" unicode="&#xe7;" horiz-adv-x="528" 
d="M491 167v-128c-38 -24 -85 -39 -135 -46c9 -24 15 -52 15 -78c0 -70 -36 -121 -113 -121c-33 0 -66 9 -87 26c2 17 8 34 17 50c14 -7 28 -11 42 -11c51 0 66 45 66 89c0 15 -2 29 -4 42c-158 6 -252 97 -252 274c0 181 111 276 271 276c63 0 126 -15 175 -41v-123
c-18 -4 -35 -4 -53 0l-28 89c-18 5 -38 8 -60 8c-126 0 -170 -83 -170 -209c0 -129 45 -204 173 -204c22 0 44 3 61 8l29 99c17 4 35 4 53 0z" />
    <glyph glyph-name="eacute" unicode="&#xe9;" horiz-adv-x="573" 
d="M523 266h-348c0 -141 53 -209 178 -209c27 0 56 4 79 11l29 94c17 4 35 4 53 0v-123c-57 -31 -130 -49 -202 -49c-167 0 -272 92 -272 275c0 171 96 275 261 275c149 0 225 -99 225 -225c0 -14 -1 -30 -3 -49zM299 475c-77 0 -112 -70 -121 -153l216 14
c0 90 -41 139 -95 139zM252 620l114 161c27 -17 49 -36 69 -58l-138 -140c-17 8 -33 22 -45 37z" />
    <glyph glyph-name="egrave" unicode="&#xe8;" horiz-adv-x="573" 
d="M523 266h-348c0 -141 53 -209 178 -209c27 0 56 4 79 11l29 94c17 4 35 4 53 0v-123c-57 -31 -130 -49 -202 -49c-167 0 -272 92 -272 275c0 171 96 275 261 275c149 0 225 -99 225 -225c0 -14 -1 -30 -3 -49zM299 475c-77 0 -112 -70 -121 -153l216 14
c0 90 -41 139 -95 139zM248 781l114 -161c-12 -15 -26 -28 -44 -37l-139 140c20 23 43 42 69 58z" />
    <glyph glyph-name="ecircumflex" unicode="&#xea;" horiz-adv-x="573" 
d="M523 266h-348c0 -141 53 -209 178 -209c27 0 56 4 79 11l29 94c17 4 35 4 53 0v-123c-57 -31 -130 -49 -202 -49c-167 0 -272 92 -272 275c0 171 96 275 261 275c149 0 225 -99 225 -225c0 -14 -1 -30 -3 -49zM299 475c-77 0 -112 -70 -121 -153l216 14
c0 90 -41 139 -95 139zM291 782h10l134 -161c-11 -16 -25 -29 -42 -38l-97 97l-98 -97c-18 9 -32 23 -42 38z" />
    <glyph glyph-name="edieresis" unicode="&#xeb;" horiz-adv-x="573" 
d="M523 266h-348c0 -141 53 -209 178 -209c27 0 56 4 79 11l29 94c17 4 35 4 53 0v-123c-57 -31 -130 -49 -202 -49c-167 0 -272 92 -272 275c0 171 96 275 261 275c149 0 225 -99 225 -225c0 -14 -1 -30 -3 -49zM299 475c-77 0 -112 -70 -121 -153l216 14
c0 90 -41 139 -95 139zM235 623c-19 -3 -37 -4 -55 -4s-37 1 -54 4c-3 18 -4 36 -4 54s1 37 4 55c16 2 36 4 54 4s39 -2 55 -4c2 -14 4 -37 4 -55s-2 -40 -4 -54zM453 623c-19 -3 -37 -4 -55 -4s-37 1 -54 4c-3 18 -4 36 -4 54s1 37 4 55c16 2 36 4 54 4s39 -2 55 -4
c2 -14 4 -37 4 -55s-2 -40 -4 -54z" />
    <glyph glyph-name="iacute" unicode="&#xed;" horiz-adv-x="354" 
d="M117 58v408h-73c-3 16 -3 32 0 48l140 23c51 8 65 -13 65 -59v-420l72 -20c3 -12 3 -25 0 -38h-277c-3 13 -3 26 0 38zM104 620l114 161c27 -17 49 -36 69 -58l-138 -140c-17 8 -33 22 -45 37z" />
    <glyph glyph-name="igrave" unicode="&#xec;" horiz-adv-x="354" 
d="M117 58v408h-73c-3 16 -3 32 0 48l140 23c51 8 65 -13 65 -59v-420l72 -20c3 -12 3 -25 0 -38h-277c-3 13 -3 26 0 38zM116 781l114 -161c-12 -15 -26 -28 -44 -37l-139 140c20 23 43 42 69 58z" />
    <glyph glyph-name="icircumflex" unicode="&#xee;" horiz-adv-x="354" 
d="M117 58v408h-73c-3 16 -3 32 0 48l140 23c51 8 65 -13 65 -59v-420l72 -20c3 -12 3 -25 0 -38h-277c-3 13 -3 26 0 38zM165 782h10l134 -161c-11 -16 -25 -29 -42 -38l-97 97l-98 -97c-18 9 -32 23 -42 38z" />
    <glyph glyph-name="idieresis" unicode="&#xef;" horiz-adv-x="354" 
d="M115 58v408h-73c-3 16 -3 32 0 48l140 23c51 8 65 -13 65 -59v-420l72 -20c3 -12 3 -25 0 -38h-277c-3 13 -3 26 0 38zM109 623c-19 -3 -37 -4 -55 -4s-37 1 -54 4c-3 18 -4 36 -4 54s1 37 4 55c16 2 36 4 54 4s39 -2 55 -4c2 -14 4 -37 4 -55s-2 -40 -4 -54zM327 623
c-19 -3 -37 -4 -55 -4s-37 1 -54 4c-3 18 -4 36 -4 54s1 37 4 55c16 2 36 4 54 4s39 -2 55 -4c2 -14 4 -37 4 -55s-2 -40 -4 -54z" />
    <glyph glyph-name="ntilde" unicode="&#xf1;" horiz-adv-x="688" 
d="M117 58v408h-73c-3 16 -3 32 0 48l140 23c53 9 65 -15 65 -59v-13h4c50 49 109 75 174 75c122 0 161 -82 161 -204v-278l72 -20c3 -12 3 -25 0 -38h-270c-3 13 -3 26 0 38l66 20v241c0 71 -5 155 -89 155c-42 0 -90 -24 -118 -52v-344l65 -20c3 -12 3 -25 0 -38h-270
c-3 13 -3 26 0 38zM250 601c-18 -4 -36 -4 -54 0c0 71 33 130 93 130c54 0 90 -56 130 -56c24 0 35 30 36 57c18 4 36 4 54 0c0 -68 -28 -129 -88 -129c-65 0 -97 56 -134 56c-21 0 -34 -35 -37 -58z" />
    <glyph glyph-name="oacute" unicode="&#xf3;" horiz-adv-x="601" 
d="M427 265c0 149 -52 209 -126 209c-75 0 -126 -60 -126 -209s51 -209 126 -209c74 0 126 60 126 209zM561 265c0 -176 -91 -275 -260 -275c-170 0 -261 99 -261 275c0 173 91 275 261 275c169 0 260 -102 260 -275zM249 620l114 161c27 -17 49 -36 69 -58l-138 -140
c-17 8 -33 22 -45 37z" />
    <glyph glyph-name="ograve" unicode="&#xf2;" horiz-adv-x="601" 
d="M427 265c0 149 -52 209 -126 209c-75 0 -126 -60 -126 -209s51 -209 126 -209c74 0 126 60 126 209zM561 265c0 -176 -91 -275 -260 -275c-170 0 -261 99 -261 275c0 173 91 275 261 275c169 0 260 -102 260 -275zM248 781l114 -161c-12 -15 -26 -28 -44 -37l-139 140
c20 23 43 42 69 58z" />
    <glyph glyph-name="ocircumflex" unicode="&#xf4;" horiz-adv-x="601" 
d="M427 265c0 149 -52 209 -126 209c-75 0 -126 -60 -126 -209s51 -209 126 -209c74 0 126 60 126 209zM561 265c0 -176 -91 -275 -260 -275c-170 0 -261 99 -261 275c0 173 91 275 261 275c169 0 260 -102 260 -275zM296 782h10l134 -161c-11 -16 -25 -29 -42 -38l-97 97
l-98 -97c-18 9 -32 23 -42 38z" />
    <glyph glyph-name="odieresis" unicode="&#xf6;" horiz-adv-x="601" 
d="M427 265c0 149 -52 209 -126 209c-75 0 -126 -60 -126 -209s51 -209 126 -209c74 0 126 60 126 209zM561 265c0 -176 -91 -275 -260 -275c-170 0 -261 99 -261 275c0 173 91 275 261 275c169 0 260 -102 260 -275zM246 623c-19 -3 -37 -4 -55 -4s-37 1 -54 4
c-3 18 -4 36 -4 54s1 37 4 55c16 2 36 4 54 4s39 -2 55 -4c2 -14 4 -37 4 -55s-2 -40 -4 -54zM464 623c-19 -3 -37 -4 -55 -4s-37 1 -54 4c-3 18 -4 36 -4 54s1 37 4 55c16 2 36 4 54 4s39 -2 55 -4c2 -14 4 -37 4 -55s-2 -40 -4 -54z" />
    <glyph glyph-name="otilde" unicode="&#xf5;" horiz-adv-x="601" 
d="M427 265c0 149 -52 209 -126 209c-75 0 -126 -60 -126 -209s51 -209 126 -209c74 0 126 60 126 209zM561 265c0 -176 -91 -275 -260 -275c-170 0 -261 99 -261 275c0 173 91 275 261 275c169 0 260 -102 260 -275zM198 601c-18 -4 -36 -4 -54 0c0 71 33 130 93 130
c54 0 90 -56 130 -56c24 0 35 30 36 57c18 4 36 4 54 0c0 -68 -28 -129 -88 -129c-65 0 -97 56 -134 56c-21 0 -34 -35 -37 -58z" />
    <glyph glyph-name="uacute" unicode="&#xfa;" horiz-adv-x="675" 
d="M438 133v333h-73c-3 16 -3 32 0 48l141 23c52 8 64 -15 64 -59v-419h72c3 -16 3 -33 0 -48l-132 -21c-37 -6 -72 9 -72 68v9h-4c-45 -49 -106 -77 -174 -77c-139 0 -160 103 -160 235v241h-73c-3 16 -3 32 0 48l140 23c52 9 65 -15 65 -59v-249c0 -74 4 -153 86 -153
c44 0 89 23 120 57zM282 620l114 161c27 -17 49 -36 69 -58l-138 -140c-17 8 -33 22 -45 37z" />
    <glyph glyph-name="ugrave" unicode="&#xf9;" horiz-adv-x="675" 
d="M438 133v333h-73c-3 16 -3 32 0 48l141 23c52 8 64 -15 64 -59v-419h72c3 -16 3 -33 0 -48l-132 -21c-37 -6 -72 9 -72 68v9h-4c-45 -49 -106 -77 -174 -77c-139 0 -160 103 -160 235v241h-73c-3 16 -3 32 0 48l140 23c52 9 65 -15 65 -59v-249c0 -74 4 -153 86 -153
c44 0 89 23 120 57zM264 781l114 -161c-12 -15 -26 -28 -44 -37l-139 140c20 23 43 42 69 58z" />
    <glyph glyph-name="ucircumflex" unicode="&#xfb;" horiz-adv-x="675" 
d="M438 133v333h-73c-3 16 -3 32 0 48l141 23c52 8 64 -15 64 -59v-419h72c3 -16 3 -33 0 -48l-132 -21c-37 -6 -72 9 -72 68v9h-4c-45 -49 -106 -77 -174 -77c-139 0 -160 103 -160 235v241h-73c-3 16 -3 32 0 48l140 23c52 9 65 -15 65 -59v-249c0 -74 4 -153 86 -153
c44 0 89 23 120 57zM327 782h10l134 -161c-11 -16 -25 -29 -42 -38l-97 97l-98 -97c-18 9 -32 23 -42 38z" />
    <glyph glyph-name="udieresis" unicode="&#xfc;" horiz-adv-x="675" 
d="M438 133v333h-73c-3 16 -3 32 0 48l141 23c52 8 64 -15 64 -59v-419h72c3 -16 3 -33 0 -48l-132 -21c-37 -6 -72 9 -72 68v9h-4c-45 -49 -106 -77 -174 -77c-139 0 -160 103 -160 235v241h-73c-3 16 -3 32 0 48l140 23c52 9 65 -15 65 -59v-249c0 -74 4 -153 86 -153
c44 0 89 23 120 57zM269 623c-19 -3 -37 -4 -55 -4s-37 1 -54 4c-3 18 -4 36 -4 54s1 37 4 55c16 2 36 4 54 4s39 -2 55 -4c2 -14 4 -37 4 -55s-2 -40 -4 -54zM487 623c-19 -3 -37 -4 -55 -4s-37 1 -54 4c-3 18 -4 36 -4 54s1 37 4 55c16 2 36 4 54 4s39 -2 55 -4
c2 -14 4 -37 4 -55s-2 -40 -4 -54z" />
    <glyph glyph-name="dagger" unicode="&#x2020;" horiz-adv-x="547" 
d="M242 452l-189 -9c-2 13 -3 27 -3 41s1 27 3 41l189 -9l-10 204c14 2 28 3 42 3s27 -1 41 -3l-10 -204l188 9c2 -14 3 -27 3 -41s-1 -28 -3 -41l-188 9l10 -522c-13 -2 -28 -3 -42 -3c-13 0 -28 1 -41 3z" />
    <glyph glyph-name="degree" unicode="&#xb0;" horiz-adv-x="423" 
d="M32 550c0 105 75 180 179 180c105 0 180 -75 180 -180c0 -104 -75 -179 -180 -179c-104 0 -179 75 -179 179zM110 550c0 -69 39 -112 101 -112c61 0 101 43 101 112s-40 112 -101 112c-62 0 -101 -43 -101 -112z" />
    <glyph glyph-name="cent" unicode="&#xa2;" horiz-adv-x="609" 
d="M525 248v-129c-43 -27 -98 -44 -154 -48v-92c-11 -2 -23 -3 -34 -3s-22 1 -33 3v93c-145 13 -229 103 -229 271c0 165 91 259 229 275v102c11 2 23 3 34 3s22 -1 33 -3v-101c53 -3 107 -18 149 -40v-123c-17 -4 -36 -4 -52 0l-29 90c-18 4 -38 7 -59 7
c-127 0 -171 -82 -171 -209c0 -130 45 -204 174 -204c22 0 43 3 61 8l29 100c16 4 34 4 52 0z" />
    <glyph glyph-name="sterling" unicode="&#xa3;" horiz-adv-x="609" 
d="M533 676v-141c-17 -4 -37 -4 -53 0l-37 105c-15 4 -29 5 -41 5c-80 0 -114 -56 -114 -134c0 -38 4 -81 10 -124h149c2 -11 3 -22 3 -32c0 -11 -1 -22 -3 -32h-142c2 -18 3 -36 3 -53c0 -68 -25 -116 -99 -158v-4h263l31 88c18 4 38 4 56 0v-196h-499v55
c92 37 115 110 115 203c0 21 -2 44 -4 65h-96c-2 10 -3 21 -3 32c0 10 1 21 3 32h89c-5 38 -9 75 -9 111c0 138 97 212 240 212c48 0 103 -12 138 -34z" />
    <glyph glyph-name="section" unicode="&#xa7;" horiz-adv-x="542" 
d="M448 693v-123c-17 -4 -35 -4 -51 0l-26 85c-19 6 -45 10 -72 10c-57 0 -117 -20 -117 -76c0 -111 313 -63 313 -270c0 -54 -24 -105 -70 -138c17 -14 41 -50 41 -96c0 -110 -110 -162 -212 -162c-64 0 -132 16 -176 47v123c18 4 36 4 52 0l26 -88c21 -8 53 -14 86 -14
c63 0 128 21 128 80c0 57 -64 77 -135 101c-89 30 -188 69 -188 181c0 47 25 97 80 132c-21 17 -39 54 -39 90c0 97 95 155 206 155c60 0 119 -16 154 -37zM177 450c-29 -21 -43 -49 -43 -75c0 -99 175 -117 237 -154c24 18 35 47 35 75c0 109 -157 108 -229 154z" />
    <glyph glyph-name="bullet" unicode="&#x2022;" horiz-adv-x="429" 
d="M62 289c0 94 58 152 152 152c95 0 152 -58 152 -152s-57 -152 -152 -152c-94 0 -152 58 -152 152z" />
    <glyph glyph-name="paragraph" unicode="&#xb6;" horiz-adv-x="601" 
d="M563 680l-93 -25v-770c-13 -2 -25 -3 -37 -3s-24 1 -36 3v764h-76v-764c-12 -2 -25 -3 -37 -3s-24 1 -36 3v414c-131 0 -211 87 -211 212c0 142 97 209 256 209h270c3 -13 3 -27 0 -40z" />
    <glyph glyph-name="germandbls" unicode="&#xdf;" horiz-adv-x="655" 
d="M315 65c18 -4 40 -7 62 -7c56 0 114 20 114 85c0 89 -163 89 -163 235c0 76 41 136 112 156v58c0 68 -34 102 -93 102c-63 0 -99 -37 -99 -109v-580l-5 -5h-199c-3 13 -3 26 0 38l72 20v410h-72c-3 12 -3 24 0 36l72 22v44c0 152 123 190 231 190c100 0 223 -31 223 -177
v-78c-95 -1 -122 -46 -122 -90c0 -65 56 -90 104 -127c40 -30 70 -66 70 -124c0 -120 -119 -174 -227 -174c-33 0 -69 5 -98 13c2 22 8 44 18 62z" />
    <glyph glyph-name="registered" unicode="&#xae;" horiz-adv-x="481" 
d="M32 530c0 128 81 209 208 209c128 0 209 -81 209 -209c0 -127 -81 -208 -209 -208c-127 0 -208 81 -208 208zM87 530c0 -102 51 -164 153 -164s154 62 154 164s-52 165 -154 165s-153 -63 -153 -165zM210 512v-62l17 -5v-16h-82v16l17 5v165l-17 6v19h85
c63 0 96 -14 96 -62c0 -25 -14 -54 -47 -60l55 -68l16 -5v-16h-62l-62 83h-16zM275 578c0 31 -21 35 -51 35h-14v-77h16c34 0 49 10 49 42z" />
    <glyph glyph-name="copyright" unicode="&#xa9;" horiz-adv-x="737" 
d="M45 360c0 199 126 324 322 324c199 0 326 -123 326 -324s-127 -324 -326 -324s-322 128 -322 324zM113 360c0 -165 94 -264 254 -264c164 0 257 99 257 264c0 167 -95 264 -257 264c-161 0 -254 -100 -254 -264zM473 438l-19 57c-15 4 -27 6 -43 6
c-80 0 -110 -52 -110 -146c0 -78 29 -137 105 -137c15 0 31 3 49 9l22 63c10 2 21 2 31 0v-91c-39 -23 -95 -30 -131 -30c-104 0 -180 62 -180 186c0 137 87 194 197 194c40 0 84 -7 113 -22v-89c-11 -2 -23 -2 -34 0z" />
    <glyph glyph-name="trademark" unicode="&#x2122;" horiz-adv-x="850" 
d="M673 720h132v-30l-41 -10l14 -234l41 -10v-25h-153v25l40 10l-11 213h-4l-97 -248h-58l-86 247h-4l-21 -212l42 -10v-25h-117v25l36 10l23 234l-41 10v30h135l78 -226h4zM273 683h-63v-237l38 -10v-25h-148v25l38 10v237h-64l-15 -46h-27v83h284v-83h-28z" />
    <glyph glyph-name="acute" unicode="&#xb4;" horiz-adv-x="400" 
d="M108 620l114 161c27 -17 49 -36 69 -58l-138 -140c-17 8 -33 22 -45 37z" />
    <glyph glyph-name="dieresis" unicode="&#xa8;" horiz-adv-x="400" 
d="M143 623c-19 -3 -37 -4 -55 -4s-37 1 -54 4c-3 18 -4 36 -4 54s1 37 4 55c16 2 36 4 54 4s39 -2 55 -4c2 -14 4 -37 4 -55s-2 -40 -4 -54zM361 623c-19 -3 -37 -4 -55 -4s-37 1 -54 4c-3 18 -4 36 -4 54s1 37 4 55c16 2 36 4 54 4s39 -2 55 -4c2 -14 4 -37 4 -55
s-2 -40 -4 -54z" />
    <glyph glyph-name="AE" unicode="&#xc6;" horiz-adv-x="1063" 
d="M240 720h761v-163c-18 -4 -38 -4 -56 0l-34 91h-255v-248h185l25 62c14 3 30 3 44 0v-215c-16 -3 -30 -3 -44 0l-25 81h-185v-256h274l35 96c18 4 37 4 55 0v-168h-591c-3 13 -3 27 0 40l91 25v263h-228l-128 -263l92 -25c3 -13 3 -27 0 -40h-251c-3 13 -3 27 0 40l79 24
l283 585l-127 31c-3 13 -3 27 0 40zM520 400v248h-73l-120 -248h193z" />
    <glyph glyph-name="Oslash" unicode="&#xd8;" horiz-adv-x="765" 
d="M578 360c0 74 -7 134 -28 184h-4l-285 -438c30 -29 70 -44 122 -44c146 0 195 123 195 298zM383 658c-144 0 -197 -123 -197 -298c0 -78 10 -142 33 -194h4l287 442c-30 32 -72 50 -127 50zM47 360c0 239 113 370 336 370c72 0 132 -14 180 -40l54 82
c21 -9 39 -20 54 -35l-54 -85c67 -62 101 -161 101 -292c0 -243 -110 -370 -335 -370c-69 0 -126 11 -174 35l-60 -91c-19 8 -39 20 -54 35l59 92c-71 61 -107 162 -107 299z" />
    <glyph glyph-name="plusminus" unicode="&#xb1;" horiz-adv-x="650" 
d="M595 353h-232v-215c-11 -2 -24 -3 -37 -3c-14 0 -27 1 -39 3v215h-232c-2 12 -3 24 -3 36s1 26 3 37h232v212c11 2 25 3 38 3s27 -1 38 -3v-212h232c2 -11 3 -24 3 -37s-1 -26 -3 -36zM595 0h-540c-2 11 -3 23 -3 36s1 26 3 37h540c2 -12 3 -24 3 -37s-1 -26 -3 -36z" />
    <glyph glyph-name="yen" unicode="&#xa5;" horiz-adv-x="609" 
d="M404 378h139c3 -16 3 -34 0 -51h-168v-76h168c3 -17 3 -35 0 -52h-168v-134l91 -25c3 -12 3 -27 0 -40h-313c-3 13 -3 27 0 40l90 25v134h-167c-3 18 -3 35 0 52h167v76h-167c-3 16 -3 34 0 51h138l-138 258l-60 24c-3 14 -3 27 0 40h272c3 -13 3 -27 0 -40l-62 -25
l116 -216h4l110 216l-59 25c-3 13 -3 27 0 40h199c3 -13 3 -27 0 -40l-59 -23z" />
    <glyph glyph-name="ordfeminine" unicode="&#xaa;" horiz-adv-x="427" 
d="M355 549v-198h49v-37l-89 -13c-28 -4 -53 2 -53 41v6h-4c-29 -33 -69 -47 -108 -47c-65 0 -113 31 -113 104c0 104 127 116 221 118v29c0 55 -41 68 -83 68c-20 0 -40 -2 -56 -6l-17 -57h-41v84c41 15 94 27 142 27c80 0 152 -29 152 -119zM258 400v82h-7
c-45 0 -114 -4 -114 -70c0 -41 19 -56 44 -56c28 0 61 19 77 44z" />
    <glyph glyph-name="ordmasculine" unicode="&#xba;" horiz-adv-x="429" 
d="M396 485c0 -121 -61 -184 -181 -184c-124 0 -181 63 -181 184c0 117 63 183 181 183s181 -66 181 -183zM296 485c0 96 -31 133 -81 133s-81 -37 -81 -133c0 -95 29 -134 81 -134c50 0 81 39 81 134z" />
    <glyph glyph-name="ae" unicode="&#xe6;" horiz-adv-x="908" 
d="M83 374v125c62 20 137 41 209 41c67 0 136 -17 172 -67h4c39 43 103 67 170 67c134 0 224 -89 224 -224c0 -14 -1 -30 -4 -50h-347c0 -139 49 -209 176 -209c28 0 56 4 81 10l29 96c17 4 35 4 52 0v-125c-56 -30 -127 -48 -199 -48c-100 0 -177 32 -223 98
c-59 -65 -137 -98 -216 -98c-90 0 -164 48 -164 156c0 165 192 175 334 176v51c0 80 -64 99 -128 99c-31 0 -59 -3 -89 -9l-28 -89c-17 -4 -35 -4 -53 0zM181 153c0 -64 33 -83 74 -83c54 0 108 31 145 69c-14 36 -20 80 -20 128c-75 0 -199 -10 -199 -114zM515 322l214 13
c0 90 -42 140 -95 140c-75 0 -108 -70 -119 -153z" />
    <glyph glyph-name="oslash" unicode="&#xf8;" horiz-adv-x="601" 
d="M427 265c0 49 -6 84 -15 115h-4l-188 -289c22 -24 49 -35 81 -35c74 0 126 60 126 209zM301 474c-90 0 -126 -85 -126 -213c0 -39 5 -82 16 -114h4l188 290c-22 25 -50 37 -82 37zM561 265c0 -176 -91 -275 -260 -275c-51 0 -94 9 -129 25l-47 -71c-15 7 -30 16 -43 29
l45 70c-58 46 -87 121 -87 222c0 173 91 275 261 275c50 0 95 -9 131 -28l43 66c18 -8 32 -17 43 -29l-42 -65c55 -47 85 -121 85 -219z" />
    <glyph glyph-name="questiondown" unicode="&#xbf;" horiz-adv-x="482" 
d="M449 28v-138c-58 -44 -136 -70 -214 -70c-121 0 -211 57 -211 169c0 186 220 151 253 323c11 2 22 3 33 3s22 -1 32 -3c15 -205 -178 -171 -178 -314c0 -76 53 -108 112 -108c27 0 55 7 80 19l39 119c17 4 36 4 54 0zM364 530c4 -20 6 -40 6 -60s-2 -40 -6 -60
c-20 -3 -42 -5 -63 -5c-19 0 -41 2 -58 5c-4 20 -6 40 -6 60s2 40 6 60c20 4 41 6 61 6s40 -2 60 -6z" />
    <glyph glyph-name="exclamdown" unicode="&#xa1;" horiz-adv-x="338" 
d="M229 530c4 -20 6 -40 6 -60s-2 -40 -6 -60c-20 -3 -42 -5 -63 -5c-19 0 -41 2 -58 5c-4 20 -6 40 -6 60s2 40 6 60c20 4 41 6 61 6s40 -2 60 -6zM92 -170l43 482c12 2 24 3 35 3c12 0 23 -1 34 -3l42 -482c-25 -3 -51 -5 -77 -5s-54 2 -77 5z" />
    <glyph glyph-name="logicalnot" unicode="&#xac;" horiz-adv-x="650" 
d="M525 140v209h-470c-2 12 -3 24 -3 36s1 25 3 37h539l5 -5v-277c-13 -2 -24 -3 -37 -3c-12 0 -24 1 -37 3z" />
    <glyph glyph-name="florin" unicode="&#x192;" horiz-adv-x="609" 
d="M491 367h-128l-22 -155c-20 -138 -62 -237 -156 -308c-34 -26 -82 -46 -125 -46c-42 0 -81 18 -98 67c14 22 33 40 55 54c24 -30 53 -56 84 -56c56 0 91 125 112 262l27 182h-88c-3 19 -3 37 0 56h97l18 117c21 136 103 190 210 190c38 0 77 -8 110 -20l-16 -117
c-17 -3 -34 -3 -51 0l-12 81c-84 17 -112 -74 -125 -167l-12 -84h120c3 -19 3 -37 0 -56z" />
    <glyph glyph-name="guillemotleft" unicode="&#xab;" horiz-adv-x="600" 
d="M52 272l229 224c18 -11 34 -25 48 -44l-156 -182l156 -183c-12 -18 -28 -33 -48 -44l-229 225v4zM272 272l229 224c18 -11 34 -25 47 -44l-156 -182l156 -183c-12 -18 -27 -33 -47 -44l-229 225v4z" />
    <glyph glyph-name="guillemotright" unicode="&#xbb;" horiz-adv-x="600" 
d="M319 496l229 -224v-4l-229 -225c-19 11 -35 26 -47 44l156 183l-156 182c13 19 28 33 47 44zM99 496l230 -224v-4l-230 -225c-20 11 -34 26 -47 44l156 183l-156 182c13 19 28 33 47 44z" />
    <glyph glyph-name="ellipsis" unicode="&#x2026;" horiz-adv-x="1000" 
d="M91 125c20 2 42 4 63 4s44 -2 63 -4c3 -21 5 -42 5 -63s-2 -41 -5 -62c-20 -3 -42 -5 -63 -5s-43 2 -63 5c-3 21 -5 41 -5 62s2 42 5 63zM443 125c20 2 42 4 63 4s44 -2 63 -4c3 -21 5 -42 5 -63s-2 -41 -5 -62c-20 -3 -42 -5 -63 -5s-43 2 -63 5c-3 21 -5 41 -5 62
s2 42 5 63zM795 125c20 2 42 4 63 4s44 -2 63 -4c3 -21 5 -42 5 -63s-2 -41 -5 -62c-20 -3 -42 -5 -63 -5s-43 2 -63 5c-3 21 -5 41 -5 62s2 42 5 63z" />
    <glyph glyph-name="Agrave" unicode="&#xc0;" horiz-adv-x="805" 
d="M564 65l-59 157h-273l-60 -157l91 -25c3 -13 3 -27 0 -40h-248c-3 13 -3 27 0 40l79 24l249 656h119l248 -656l80 -24c3 -13 3 -26 0 -40h-317c-3 13 -3 27 0 40zM366 577l-107 -283h218l-106 283h-5zM324 935l181 -113c-5 -19 -14 -37 -27 -52l-196 84c9 28 24 58 42 81
z" />
    <glyph glyph-name="Atilde" unicode="&#xc3;" horiz-adv-x="805" 
d="M564 65l-59 157h-273l-60 -157l91 -25c3 -13 3 -27 0 -40h-248c-3 13 -3 27 0 40l79 24l249 656h119l248 -656l80 -24c3 -13 3 -26 0 -40h-317c-3 13 -3 27 0 40zM366 577l-107 -283h218l-106 283h-5zM300 779c-18 -4 -36 -4 -54 0c0 71 33 130 93 130
c54 0 90 -56 130 -56c24 0 35 30 36 57c18 4 36 4 54 0c0 -68 -28 -129 -88 -129c-65 0 -97 56 -134 56c-21 0 -34 -35 -37 -58z" />
    <glyph glyph-name="Otilde" unicode="&#xd5;" horiz-adv-x="765" 
d="M47 360c0 239 113 370 336 370c225 0 335 -131 335 -370c0 -243 -110 -370 -335 -370c-223 0 -336 127 -336 370zM578 360c0 175 -49 298 -195 298c-144 0 -197 -123 -197 -298s53 -298 197 -298c146 0 195 123 195 298zM280 784c-18 -4 -36 -4 -54 0c0 71 33 130 93 130
c54 0 90 -56 130 -56c24 0 35 30 36 57c18 4 36 4 54 0c0 -68 -28 -129 -88 -129c-65 0 -97 56 -134 56c-21 0 -34 -35 -37 -58z" />
    <glyph glyph-name="OE" unicode="&#x152;" horiz-adv-x="1059" 
d="M650 648v-237h187l25 62c14 3 30 3 45 0v-214c-15 -3 -31 -3 -45 0l-25 80h-187v-267h276l35 96c18 4 37 4 55 0v-168h-533c-29 -6 -64 -10 -100 -10c-212 0 -336 124 -336 367c0 239 126 373 336 373c35 0 70 -4 100 -10h514v-163c-18 -4 -38 -4 -55 0l-35 91h-257z
M514 85v551c-31 15 -72 24 -112 24c-161 0 -216 -129 -216 -300c0 -166 54 -299 215 -299c40 0 80 9 113 24z" />
    <glyph glyph-name="oe" unicode="&#x153;" horiz-adv-x="960" 
d="M910 266h-352c0 -139 52 -209 181 -209c28 0 55 4 80 10l29 96c17 4 34 4 53 0v-125c-60 -29 -127 -48 -200 -48c-87 0 -160 24 -207 90h-4c-46 -63 -118 -90 -197 -90c-163 0 -253 101 -253 274c0 174 95 276 258 276c82 0 148 -27 192 -92h4c46 60 113 92 193 92
c135 0 226 -87 226 -224c0 -14 -1 -31 -3 -50zM301 474c-76 0 -126 -61 -126 -210c0 -146 50 -208 126 -208c81 0 123 75 123 208s-42 210 -123 210zM562 322l219 13c0 90 -42 140 -96 140c-76 0 -113 -70 -123 -153z" />
    <glyph glyph-name="endash" unicode="&#x2013;" horiz-adv-x="555" 
d="M497 258h-439c-2 11 -3 22 -3 34s1 24 3 36h439c2 -12 3 -23 3 -35s-1 -24 -3 -35z" />
    <glyph glyph-name="emdash" unicode="&#x2014;" horiz-adv-x="1000" 
d="M942 258h-884c-2 11 -3 23 -3 35c0 11 1 23 3 35h884c2 -12 3 -24 3 -35c0 -12 -1 -24 -3 -35z" />
    <glyph glyph-name="quotedblleft" unicode="&#x201c;" horiz-adv-x="460" 
d="M218 730c-34 -51 -57 -116 -57 -205c0 -14 1 -29 2 -44c-17 -3 -39 -5 -58 -5c-18 0 -38 2 -54 5c-1 11 -1 22 -1 33c1 117 47 194 130 248c15 -7 28 -17 38 -32zM410 730c-34 -51 -57 -116 -57 -205c0 -14 1 -29 2 -44c-17 -3 -39 -5 -58 -5c-18 0 -38 2 -54 5
c-1 11 -1 22 -1 33c1 117 47 194 130 248c15 -7 28 -17 38 -32z" />
    <glyph glyph-name="quotedblright" unicode="&#x201d;" horiz-adv-x="460" 
d="M50 506c34 51 57 116 57 205c0 14 -1 29 -2 44c17 3 39 5 58 5c18 0 38 -2 54 -5c1 -11 1 -22 1 -33c-1 -117 -47 -194 -130 -248c-15 7 -28 17 -38 32zM242 506c34 51 57 116 57 205c0 14 -1 29 -2 44c17 3 39 5 58 5c18 0 38 -2 54 -5c1 -11 1 -22 1 -33
c-1 -117 -47 -194 -130 -248c-15 7 -28 17 -38 32z" />
    <glyph glyph-name="quoteleft" unicode="&#x2018;" horiz-adv-x="268" 
d="M218 730c-34 -51 -57 -116 -57 -205c0 -14 1 -29 2 -44c-17 -3 -39 -5 -58 -5c-18 0 -38 2 -54 5c-1 11 -1 22 -1 33c1 117 47 194 130 248c15 -7 28 -17 38 -32z" />
    <glyph glyph-name="quoteright" unicode="&#x2019;" horiz-adv-x="268" 
d="M50 506c34 51 57 116 57 205c0 14 -1 29 -2 44c17 3 39 5 58 5c18 0 38 -2 54 -5c1 -11 1 -22 1 -33c-1 -117 -47 -194 -130 -248c-15 7 -28 17 -38 32z" />
    <glyph glyph-name="ydieresis" unicode="&#xff;" horiz-adv-x="609" 
d="M51 -192v140c18 4 36 4 53 0l20 -64c51 -3 107 17 158 109l-217 479l-62 20c-3 12 -3 25 0 38h267c3 -13 3 -26 0 -38l-61 -20l140 -311h4l120 311l-75 20c-3 12 -3 25 0 38h211c3 -13 3 -26 0 -38l-62 -18l-147 -375c-73 -186 -140 -300 -291 -300c-20 0 -41 3 -58 9z
M264 623c-19 -3 -37 -4 -55 -4s-37 1 -54 4c-3 18 -4 36 -4 54s1 37 4 55c16 2 36 4 54 4s39 -2 55 -4c2 -14 4 -37 4 -55s-2 -40 -4 -54zM482 623c-19 -3 -37 -4 -55 -4s-37 1 -54 4c-3 18 -4 36 -4 54s1 37 4 55c16 2 36 4 54 4s39 -2 55 -4c2 -14 4 -37 4 -55
s-2 -40 -4 -54z" />
    <glyph glyph-name="Ydieresis" unicode="&#x178;" horiz-adv-x="728" 
d="M436 279v-214l90 -25c3 -12 3 -27 0 -40h-317c-3 13 -3 27 0 40l91 25v212l-212 379l-78 24c-3 14 -3 27 0 40h322c3 -13 3 -27 0 -40l-89 -25l158 -283h4l152 283l-86 25c-3 13 -3 27 0 40h247c3 -13 3 -27 0 -40l-75 -23zM331 789c-19 -2 -37 -3 -55 -3s-37 1 -55 3
c-2 18 -3 36 -3 54s1 37 3 55c18 2 37 3 55 3s36 -1 55 -3c2 -18 3 -37 3 -55s-1 -36 -3 -54zM553 789c-19 -2 -37 -3 -55 -3s-37 1 -55 3c-2 18 -3 36 -3 54s1 37 3 55c18 2 37 3 55 3s36 -1 55 -3c2 -18 3 -37 3 -55s-1 -36 -3 -54z" />
    <glyph glyph-name="fraction" unicode="&#x2044;" horiz-adv-x="195" 
d="M-145 0l429 730c21 -9 41 -20 57 -33l-429 -731c-21 7 -41 19 -57 34z" />
    <glyph glyph-name="Euro" unicode="&#x20ac;" horiz-adv-x="609" 
d="M487 76l46 125c17 4 38 4 55 0v-147c-61 -43 -136 -64 -211 -64c-153 0 -287 84 -307 274h-63c-2 9 -3 19 -3 29s1 19 3 30h58v21c0 11 0 27 2 47h-60c-2 9 -3 19 -3 29s1 19 3 30h68c35 174 172 260 325 260c64 0 128 -17 184 -52v-143c-18 -4 -38 -4 -56 0l-43 113
c-25 9 -49 13 -73 13c-103 0 -184 -78 -202 -191h261c2 -11 3 -20 3 -30s-1 -20 -3 -29h-269c-1 -15 -2 -33 -2 -45v-23h271c2 -10 3 -20 3 -30s-1 -20 -3 -29h-266c11 -123 95 -203 204 -203c25 0 51 5 78 15z" />
    <glyph glyph-name="guilsinglleft" unicode="&#x2039;" horiz-adv-x="380" 
d="M52 272l229 224c18 -11 35 -25 48 -44l-156 -182l156 -183c-12 -18 -29 -33 -48 -44l-229 225v4z" />
    <glyph glyph-name="guilsinglright" unicode="&#x203a;" horiz-adv-x="380" 
d="M99 496l230 -224v-4l-230 -225c-19 11 -35 26 -47 44l156 183l-156 182c13 19 29 33 47 44z" />
    <glyph glyph-name="daggerdbl" unicode="&#x2021;" horiz-adv-x="560" 
d="M246 451l-193 -9c-2 13 -3 27 -3 41s1 27 3 41l195 -9l-10 205c14 2 29 3 43 3s26 -1 40 -3l-9 -205l194 9c2 -14 3 -27 3 -41s-1 -28 -3 -41l-192 9v-252l192 9c2 -14 3 -28 3 -42s-1 -27 -3 -40l-194 9l9 -205c-14 -2 -27 -3 -41 -3s-28 1 -42 3l10 205l-195 -9
c-2 13 -3 27 -3 41s1 27 3 41l193 -9v252z" />
    <glyph glyph-name="periodcentered" unicode="&#xb7;" horiz-adv-x="269" 
d="M70 360c20 2 42 4 63 4s44 -2 63 -4c3 -21 5 -42 5 -63s-2 -41 -5 -62c-20 -3 -42 -5 -63 -5s-43 2 -63 5c-3 21 -5 41 -5 62s2 42 5 63z" />
    <glyph glyph-name="quotesinglbase" unicode="&#x201a;" horiz-adv-x="268" 
d="M50 -122c34 51 57 116 57 205c0 14 -1 29 -2 44c17 3 39 5 58 5c18 0 38 -2 54 -5c1 -11 1 -22 1 -33c-1 -117 -47 -194 -130 -248c-15 7 -28 17 -38 32z" />
    <glyph glyph-name="quotedblbase" unicode="&#x201e;" horiz-adv-x="460" 
d="M50 -122c34 51 57 116 57 205c0 14 -1 29 -2 44c17 3 39 5 58 5c18 0 38 -2 54 -5c1 -11 1 -22 1 -33c-1 -117 -47 -194 -130 -248c-15 7 -28 17 -38 32zM242 -122c34 51 57 116 57 205c0 14 -1 29 -2 44c17 3 39 5 58 5c18 0 38 -2 54 -5c1 -11 1 -22 1 -33
c-1 -117 -47 -194 -130 -248c-15 7 -28 17 -38 32z" />
    <glyph glyph-name="perthousand" unicode="&#x2030;" horiz-adv-x="1272" 
d="M202 -2l426 730c21 -8 40 -18 56 -33l-425 -731c-22 7 -41 19 -57 34zM269 505c0 110 -22 155 -63 155s-63 -45 -63 -155s22 -155 63 -155s63 45 63 155zM375 505c0 -131 -61 -205 -169 -205c-109 0 -169 74 -169 205c0 130 60 205 169 205c108 0 169 -75 169 -205z
M744 195c0 110 -22 155 -63 155s-63 -45 -63 -155c0 -111 22 -155 63 -155s63 44 63 155zM850 195c0 -131 -61 -205 -169 -205c-109 0 -169 74 -169 205c0 130 60 205 169 205c108 0 169 -75 169 -205zM1144 195c0 110 -22 155 -63 155s-63 -45 -63 -155
c0 -111 22 -155 63 -155s63 44 63 155zM1250 195c0 -131 -61 -205 -169 -205c-109 0 -169 74 -169 205c0 130 60 205 169 205c108 0 169 -75 169 -205z" />
    <glyph glyph-name="Acircumflex" unicode="&#xc2;" horiz-adv-x="805" 
d="M564 65l-59 157h-273l-60 -157l91 -25c3 -13 3 -27 0 -40h-248c-3 13 -3 27 0 40l79 24l249 656h119l248 -656l80 -24c3 -13 3 -26 0 -40h-317c-3 13 -3 27 0 40zM366 577l-107 -283h218l-106 283h-5zM398 935h10l151 -119c-7 -17 -18 -33 -32 -46l-124 79l-125 -79
c-14 13 -24 29 -32 46z" />
    <glyph glyph-name="Ecircumflex" unicode="&#xca;" horiz-adv-x="674" 
d="M131 65v590l-91 25c-3 13 -3 27 0 40h573v-163c-19 -4 -38 -4 -56 0l-34 91h-256v-237h185l25 62c14 3 30 3 45 0v-214c-15 -3 -31 -3 -45 0l-25 80h-185v-267h275l35 96c18 4 37 4 55 0v-168h-592c-3 13 -3 27 0 40zM353 935h10l151 -119c-7 -17 -18 -33 -32 -46
l-124 79l-125 -79c-14 13 -24 29 -32 46z" />
    <glyph glyph-name="Aacute" unicode="&#xc1;" horiz-adv-x="805" 
d="M564 65l-59 157h-273l-60 -157l91 -25c3 -13 3 -27 0 -40h-248c-3 13 -3 27 0 40l79 24l249 656h119l248 -656l80 -24c3 -13 3 -26 0 -40h-317c-3 13 -3 27 0 40zM366 577l-107 -283h218l-106 283h-5zM312 822l181 113c19 -24 33 -53 42 -81l-196 -84
c-12 14 -22 33 -27 52z" />
    <glyph glyph-name="Edieresis" unicode="&#xcb;" horiz-adv-x="674" 
d="M131 65v590l-91 25c-3 13 -3 27 0 40h573v-163c-19 -4 -38 -4 -56 0l-34 91h-256v-237h185l25 62c14 3 30 3 45 0v-214c-15 -3 -31 -3 -45 0l-25 80h-185v-267h275l35 96c18 4 37 4 55 0v-168h-592c-3 13 -3 27 0 40zM299 789c-19 -2 -37 -3 -55 -3s-37 1 -55 3
c-2 18 -3 36 -3 54s1 37 3 55c18 2 37 3 55 3s36 -1 55 -3c2 -18 3 -37 3 -55s-1 -36 -3 -54zM521 789c-19 -2 -37 -3 -55 -3s-37 1 -55 3c-2 18 -3 36 -3 54s1 37 3 55c18 2 37 3 55 3s36 -1 55 -3c2 -18 3 -37 3 -55s-1 -36 -3 -54z" />
    <glyph glyph-name="Egrave" unicode="&#xc8;" horiz-adv-x="674" 
d="M131 65v590l-91 25c-3 13 -3 27 0 40h573v-163c-19 -4 -38 -4 -56 0l-34 91h-256v-237h185l25 62c14 3 30 3 45 0v-214c-15 -3 -31 -3 -45 0l-25 80h-185v-267h275l35 96c18 4 37 4 55 0v-168h-592c-3 13 -3 27 0 40zM241 935l181 -113c-5 -19 -14 -37 -27 -52l-196 84
c9 28 24 58 42 81z" />
    <glyph glyph-name="Iacute" unicode="&#xcd;" horiz-adv-x="398" 
d="M131 655l-91 25c-3 13 -3 27 0 40h317c3 -13 3 -27 0 -40l-90 -25v-590l90 -25c3 -13 3 -27 0 -40h-317c-3 13 -3 27 0 40l91 25v590zM128 822l181 113c19 -24 33 -53 42 -81l-196 -84c-12 14 -22 33 -27 52z" />
    <glyph glyph-name="Icircumflex" unicode="&#xce;" horiz-adv-x="398" 
d="M131 655l-91 25c-3 13 -3 27 0 40h317c3 -13 3 -27 0 -40l-90 -25v-590l90 -25c3 -13 3 -27 0 -40h-317c-3 13 -3 27 0 40l91 25v590zM195 935h10l151 -119c-7 -17 -18 -33 -32 -46l-124 79l-125 -79c-14 13 -24 29 -32 46z" />
    <glyph glyph-name="Idieresis" unicode="&#xcf;" horiz-adv-x="398" 
d="M128 655l-91 25c-3 13 -3 27 0 40h317c3 -13 3 -27 0 -40l-90 -25v-590l90 -25c3 -13 3 -27 0 -40h-317c-3 13 -3 27 0 40l91 25v590zM140 789c-19 -2 -37 -3 -55 -3s-37 1 -55 3c-2 18 -3 36 -3 54s1 37 3 55c18 2 37 3 55 3s36 -1 55 -3c2 -18 3 -37 3 -55
s-1 -36 -3 -54zM362 789c-19 -2 -37 -3 -55 -3s-37 1 -55 3c-2 18 -3 36 -3 54s1 37 3 55c18 2 37 3 55 3s36 -1 55 -3c2 -18 3 -37 3 -55s-1 -36 -3 -54z" />
    <glyph glyph-name="Igrave" unicode="&#xcc;" horiz-adv-x="398" 
d="M131 655l-91 25c-3 13 -3 27 0 40h317c3 -13 3 -27 0 -40l-90 -25v-590l90 -25c3 -13 3 -27 0 -40h-317c-3 13 -3 27 0 40l91 25v590zM90 935l181 -113c-5 -19 -14 -37 -27 -52l-196 84c9 28 24 58 42 81z" />
    <glyph glyph-name="Oacute" unicode="&#xd3;" horiz-adv-x="765" 
d="M47 360c0 239 113 370 336 370c225 0 335 -131 335 -370c0 -243 -110 -370 -335 -370c-223 0 -336 127 -336 370zM578 360c0 175 -49 298 -195 298c-144 0 -197 -123 -197 -298s53 -298 197 -298c146 0 195 123 195 298zM303 822l181 113c19 -24 33 -53 42 -81l-196 -84
c-12 14 -22 33 -27 52z" />
    <glyph glyph-name="Ocircumflex" unicode="&#xd4;" horiz-adv-x="765" 
d="M47 360c0 239 113 370 336 370c225 0 335 -131 335 -370c0 -243 -110 -370 -335 -370c-223 0 -336 127 -336 370zM578 360c0 175 -49 298 -195 298c-144 0 -197 -123 -197 -298s53 -298 197 -298c146 0 195 123 195 298zM378 935h10l151 -119c-7 -17 -18 -33 -32 -46
l-124 79l-125 -79c-14 13 -24 29 -32 46z" />
    <glyph glyph-name="Ograve" unicode="&#xd2;" horiz-adv-x="765" 
d="M47 360c0 239 113 370 336 370c225 0 335 -131 335 -370c0 -243 -110 -370 -335 -370c-223 0 -336 127 -336 370zM578 360c0 175 -49 298 -195 298c-144 0 -197 -123 -197 -298s53 -298 197 -298c146 0 195 123 195 298zM296 935l181 -113c-5 -19 -14 -37 -27 -52
l-196 84c9 28 24 58 42 81z" />
    <glyph glyph-name="Uacute" unicode="&#xda;" horiz-adv-x="788" 
d="M122 655l-80 25c-3 13 -3 27 0 40h310c3 -13 3 -27 0 -40l-94 -25v-361c0 -151 42 -223 169 -223c119 0 169 80 169 224v360l-91 25c-3 13 -3 27 0 40h244c3 -13 3 -27 0 -40l-80 -24v-352c0 -197 -73 -314 -273 -314c-209 0 -274 109 -274 314v351zM349 822l181 113
c19 -24 33 -53 42 -81l-196 -84c-12 14 -22 33 -27 52z" />
    <glyph glyph-name="Ucircumflex" unicode="&#xdb;" horiz-adv-x="788" 
d="M122 655l-80 25c-3 13 -3 27 0 40h310c3 -13 3 -27 0 -40l-94 -25v-361c0 -151 42 -223 169 -223c119 0 169 80 169 224v360l-91 25c-3 13 -3 27 0 40h244c3 -13 3 -27 0 -40l-80 -24v-352c0 -197 -73 -314 -273 -314c-209 0 -274 109 -274 314v351zM411 935h10l151 -119
c-7 -17 -18 -33 -32 -46l-124 79l-125 -79c-14 13 -24 29 -32 46z" />
    <glyph glyph-name="Ugrave" unicode="&#xd9;" horiz-adv-x="788" 
d="M122 655l-80 25c-3 13 -3 27 0 40h310c3 -13 3 -27 0 -40l-94 -25v-361c0 -151 42 -223 169 -223c119 0 169 80 169 224v360l-91 25c-3 13 -3 27 0 40h244c3 -13 3 -27 0 -40l-80 -24v-352c0 -197 -73 -314 -273 -314c-209 0 -274 109 -274 314v351zM308 935l181 -113
c-5 -19 -14 -37 -27 -52l-196 84c9 28 24 58 42 81z" />
    <glyph glyph-name="dotlessi" unicode="&#x131;" horiz-adv-x="354" 
d="M117 58v408h-73c-3 16 -3 32 0 48l140 23c51 8 65 -13 65 -59v-420l72 -20c3 -12 3 -25 0 -38h-277c-3 13 -3 26 0 38z" />
    <glyph glyph-name="circumflex" unicode="&#x2c6;" horiz-adv-x="400" 
d="M195 782h10l134 -161c-11 -16 -25 -29 -42 -38l-97 97l-98 -97c-18 9 -32 23 -42 38z" />
    <glyph glyph-name="macron" unicode="&#xaf;" horiz-adv-x="400" 
d="M346 620h-293c-2 12 -3 26 -3 38c0 13 1 25 3 38h293c2 -13 3 -25 3 -38c0 -12 -1 -26 -3 -38z" />
    <glyph glyph-name="breve" unicode="&#x2d8;" horiz-adv-x="400" 
d="M56 744c10 2 20 3 31 3s21 -1 32 -3c6 -45 25 -79 81 -79s75 34 81 79c11 2 21 3 31 3c11 0 22 -1 32 -3c0 -87 -51 -149 -144 -149s-144 62 -144 149z" />
    <glyph glyph-name="dotaccent" unicode="&#x2d9;" horiz-adv-x="400" 
d="M136 744c20 2 40 3 60 3s41 -1 61 -3c2 -20 3 -40 3 -60s-1 -40 -3 -60c-20 -2 -41 -3 -61 -3s-40 1 -60 3c-2 20 -3 40 -3 60s1 40 3 60z" />
    <glyph glyph-name="ring" unicode="&#x2da;" horiz-adv-x="400" 
d="M95 682c0 61 44 100 104 100s105 -39 105 -100s-45 -99 -105 -99s-104 38 -104 99zM152 682c0 -32 19 -55 47 -55s48 23 48 55s-20 56 -48 56s-47 -24 -47 -56z" />
    <glyph glyph-name="cedilla" unicode="&#xb8;" horiz-adv-x="400" 
d="M217 7h63c12 -27 20 -61 20 -92c0 -70 -36 -121 -113 -121c-33 0 -66 9 -87 26c2 17 8 34 17 50c14 -7 28 -11 42 -11c49 0 66 41 66 86c0 20 -3 43 -8 62z" />
    <glyph glyph-name="hungarumlaut" unicode="&#x2dd;" horiz-adv-x="400" 
d="M24 618l103 164c29 -17 51 -33 71 -55l-129 -144c-18 8 -34 21 -45 35zM202 618l103 164c29 -17 51 -33 71 -55l-129 -144c-18 8 -34 21 -45 35z" />
    <glyph glyph-name="ogonek" unicode="&#x2db;" horiz-adv-x="400" 
d="M120 7h63c-5 -19 -8 -42 -8 -62c0 -45 17 -86 66 -86c14 0 28 4 42 11c10 -16 15 -33 17 -50c-21 -17 -54 -26 -87 -26c-77 0 -113 51 -113 121c0 32 8 65 20 92z" />
    <glyph glyph-name="caron" unicode="&#x2c7;" horiz-adv-x="400" 
d="M339 744l-134 -161h-10l-135 161c12 15 25 28 43 38l97 -98l96 98c18 -10 32 -23 43 -38z" />
    <glyph glyph-name="Lslash" unicode="&#x141;" horiz-adv-x="612" 
d="M601 0h-561c-3 13 -3 27 0 40l91 25v207l-87 -65l-4 1v62l91 68v317l-91 25c-3 13 -3 27 0 40h317c3 -13 3 -27 0 -40l-90 -25v-214l127 96l4 -1v-61l-131 -99v-304h235l44 113c18 4 37 4 55 0v-185z" />
    <glyph glyph-name="lslash" unicode="&#x142;" horiz-adv-x="372" 
d="M51 342l73 54v290h-73c-3 17 -3 32 0 48l140 23c50 8 65 -15 65 -59v-202l80 61l4 -1v-61l-84 -64v-373l72 -20c3 -12 3 -25 0 -38h-277c-3 13 -3 26 0 38l73 20v272l-69 -51l-4 1v62z" />
    <glyph glyph-name="Scaron" unicode="&#x160;" horiz-adv-x="619" 
d="M48 51v158c18 4 38 4 56 0l48 -130c29 -8 66 -14 105 -14c91 0 188 30 188 123c0 164 -392 53 -392 327c0 153 133 215 275 215c81 0 161 -20 220 -51v-153c-18 -4 -37 -4 -55 0l-45 117c-27 9 -61 15 -96 15c-82 0 -168 -31 -168 -118c0 -171 394 -63 394 -321
c0 -160 -152 -229 -305 -229c-84 0 -168 22 -225 61zM471 889l-151 -119h-10l-152 119c8 18 17 32 32 46l125 -79l124 79c15 -14 25 -29 32 -46z" />
    <glyph glyph-name="scaron" unicode="&#x161;" horiz-adv-x="504" 
d="M101 162l28 -93c23 -8 54 -13 87 -13c65 0 134 21 134 83c0 104 -299 32 -299 238c0 123 118 163 222 163c60 0 121 -14 170 -36v-120c-17 -4 -35 -4 -52 0l-27 83c-19 4 -45 7 -73 7c-58 0 -120 -15 -120 -74c0 -112 300 -38 300 -235c0 -124 -120 -175 -240 -175
c-69 0 -137 16 -183 44v128c18 4 36 4 53 0zM401 744l-134 -161h-10l-135 161c12 15 25 28 43 38l97 -98l96 98c18 -10 32 -23 43 -38z" />
    <glyph glyph-name="Zcaron" unicode="&#x17d;" horiz-adv-x="651" 
d="M57 720h550v-66l-407 -582h323l44 113c18 4 37 4 55 0v-185h-593v66l404 582h-279l-41 -108c-18 -4 -38 -4 -56 0v180zM491 889l-151 -119h-10l-152 119c8 18 17 32 32 46l125 -79l124 79c15 -14 25 -29 32 -46z" />
    <glyph glyph-name="zcaron" unicode="&#x17e;" horiz-adv-x="534" 
d="M321 458v4h-197l-24 -75c-17 -4 -35 -4 -53 0v143h444v-60l-291 -398v-4h227l24 80c16 4 34 4 52 0v-148h-472v60zM416 744l-134 -161h-10l-135 161c12 15 25 28 43 38l97 -98l96 98c18 -10 32 -23 43 -38z" />
    <glyph glyph-name="brokenbar" unicode="&#xa6;" horiz-adv-x="288" 
d="M180 325h-71l-5 5v385l5 5h71l5 -5v-385zM109 215h71l5 -5v-385l-5 -5h-71l-5 5v385z" />
    <glyph glyph-name="Eth" unicode="&#xd0;" horiz-adv-x="766" 
d="M420 348h-150v-276h80c173 0 230 113 230 288s-58 288 -230 288h-80v-239h150c2 -10 3 -21 3 -31s-1 -20 -3 -30zM43 409h90v246l-90 25c-3 13 -3 27 0 40h309c257 0 367 -121 367 -360c0 -243 -110 -360 -367 -360h-309c-3 13 -3 27 0 40l90 25v283h-90
c-2 10 -3 20 -3 30s1 21 3 31z" />
    <glyph glyph-name="eth" unicode="&#xf0;" horiz-adv-x="607" 
d="M427 253c0 113 -29 191 -125 191c-94 0 -127 -79 -127 -191c0 -132 47 -197 126 -197s126 64 126 197zM191 604l96 48v4c-51 32 -110 42 -172 38c-4 21 -4 43 -2 65c12 1 24 1 36 1c84 0 174 -21 230 -61l110 56c11 -16 19 -32 24 -49l-86 -44c97 -92 140 -235 140 -376
c0 -158 -71 -296 -266 -296c-174 0 -261 94 -261 263c0 166 101 257 253 257c39 0 79 -8 109 -25l4 2c-13 54 -36 97 -69 130l-121 -62c-11 16 -20 33 -25 49z" />
    <glyph glyph-name="Yacute" unicode="&#xdd;" horiz-adv-x="728" 
d="M436 279v-214l90 -25c3 -12 3 -27 0 -40h-317c-3 13 -3 27 0 40l91 25v212l-212 379l-78 24c-3 14 -3 27 0 40h322c3 -13 3 -27 0 -40l-89 -25l158 -283h4l152 283l-86 25c-3 13 -3 27 0 40h247c3 -13 3 -27 0 -40l-75 -23zM331 822l181 113c19 -24 33 -53 42 -81
l-196 -84c-12 14 -22 33 -27 52z" />
    <glyph glyph-name="yacute" unicode="&#xfd;" horiz-adv-x="609" 
d="M51 -192v140c18 4 36 4 53 0l20 -64c51 -3 107 17 158 109l-217 479l-62 20c-3 12 -3 25 0 38h267c3 -13 3 -26 0 -38l-61 -20l140 -311h4l120 311l-75 20c-3 12 -3 25 0 38h211c3 -13 3 -26 0 -38l-62 -18l-147 -375c-73 -186 -140 -300 -291 -300c-20 0 -41 3 -58 9z
M280 620l114 161c27 -17 49 -36 69 -58l-138 -140c-17 8 -33 22 -45 37z" />
    <glyph glyph-name="Thorn" unicode="&#xde;" horiz-adv-x="626" 
d="M131 655l-91 25c-3 13 -3 27 0 40h317c3 -13 3 -27 0 -40l-90 -25v-82h14c213 0 309 -57 309 -207c0 -151 -98 -214 -323 -217v-84l90 -25c3 -13 3 -27 0 -40h-317c-3 13 -3 27 0 40l91 25v590zM449 361c0 111 -62 139 -182 141v-283c120 1 182 30 182 142z" />
    <glyph glyph-name="thorn" unicode="&#xfe;" horiz-adv-x="621" 
d="M233 397v-339c18 -4 35 -6 50 -6c110 0 164 100 164 221c0 78 -20 186 -108 186c-43 0 -80 -26 -106 -62zM101 -142v828h-73c-3 16 -3 32 0 48l140 23c54 9 65 -15 65 -59v-232h4c36 46 87 74 147 74c136 0 197 -122 197 -250c0 -166 -104 -300 -269 -300
c-26 0 -53 3 -79 10v-142l72 -20c3 -11 3 -25 0 -38h-277c-3 12 -3 26 0 38z" />
    <glyph glyph-name="minus" unicode="&#x2212;" horiz-adv-x="650" 
d="M596 236h-541c-2 11 -3 24 -3 36s1 24 3 37h541c2 -13 3 -25 3 -37s-1 -25 -3 -36z" />
    <glyph glyph-name="multiply" unicode="&#xd7;" horiz-adv-x="650" 
d="M601 488l-223 -223l223 -222c-13 -19 -34 -40 -53 -54l-224 223l-222 -223c-19 14 -40 35 -53 54l223 222l-223 223c13 19 34 40 53 54l222 -223l224 223c19 -14 40 -35 53 -54z" />
    <glyph glyph-name="one.superior" unicode="&#xb9;" 
d="M160 517v287h-93v37l132 28c47 10 63 -5 63 -57v-295l74 -14v-33h-249v33z" />
    <glyph glyph-name="two.superior" unicode="&#xb2;" 
d="M165 560h185v-90h-304v48l116 104c40 35 77 73 77 131c0 48 -32 71 -70 71c-14 0 -28 -3 -43 -9l-31 -80h-34v101c32 24 82 37 130 37c78 0 154 -35 154 -116c0 -67 -52 -102 -109 -142l-73 -51z" />
    <glyph glyph-name="three.superior" unicode="&#xb3;" 
d="M57 743v98c32 19 81 32 133 32c76 0 149 -28 149 -98c0 -55 -43 -88 -96 -92v-4c56 -6 110 -28 110 -95c0 -87 -91 -121 -181 -121c-44 0 -89 11 -122 30v102h35l28 -77c15 -4 33 -7 51 -7c47 0 83 22 83 74c0 50 -40 67 -89 67h-31v45h28c50 0 79 16 79 69
c0 45 -31 60 -65 60c-18 0 -36 -4 -52 -10l-26 -73h-34z" />
    <glyph glyph-name="onehalf" unicode="&#xbd;" horiz-adv-x="914" 
d="M147 354v287h-93v37l132 28c47 10 63 -5 63 -57v-295l74 -14v-33h-249v33zM669 90h185v-90h-304v48l116 104c40 35 77 73 77 131c0 48 -32 71 -70 71c-14 0 -28 -3 -43 -9l-31 -80h-34v101c32 24 82 37 130 37c78 0 154 -35 154 -116c0 -67 -52 -102 -109 -142l-73 -51z
M198 0l429 730c21 -9 41 -20 57 -33l-429 -731c-21 7 -41 19 -57 34z" />
    <glyph glyph-name="onequarter" unicode="&#xbc;" horiz-adv-x="914" 
d="M165 354v287h-93v37l132 28c47 10 63 -5 63 -57v-295l74 -14v-33h-249v33zM669 106h-181v41l215 256h68v-251h54v-46h-54v-64l54 -10v-32h-210v32l54 10v64zM553 152h116v132l-4 1l-113 -130zM216 0l429 730c21 -9 41 -20 57 -33l-429 -731c-21 7 -41 19 -57 34z" />
    <glyph glyph-name="threequarters" unicode="&#xbe;" horiz-adv-x="914" 
d="M79 580v98c32 19 81 32 133 32c76 0 149 -28 149 -98c0 -55 -43 -88 -96 -92v-4c56 -6 110 -28 110 -95c0 -87 -91 -121 -181 -121c-44 0 -89 11 -122 30v102h35l28 -77c15 -4 33 -7 51 -7c47 0 83 22 83 74c0 50 -40 67 -89 67h-31v45h28c50 0 79 16 79 69
c0 45 -31 60 -65 60c-18 0 -36 -4 -52 -10l-26 -73h-34zM687 106h-181v41l215 256h68v-251h54v-46h-54v-64l54 -10v-32h-210v32l54 10v64zM571 152h116v132l-4 1l-113 -130zM236 0l429 730c21 -9 41 -20 57 -33l-429 -731c-21 7 -41 19 -57 34z" />
    <glyph glyph-name="Gbreve" unicode="&#x11e;" horiz-adv-x="755" 
d="M705 314l-51 -18v-306h-37c-40 0 -59 17 -68 35c-47 -23 -104 -35 -163 -35c-212 0 -339 136 -339 369c0 237 155 371 380 371c82 0 166 -17 227 -51v-153c-18 -4 -37 -4 -55 0l-46 115c-30 12 -68 17 -106 17c-182 0 -261 -114 -261 -297c0 -170 74 -295 237 -295
c34 0 69 7 99 22v201l-118 25c-3 13 -3 27 0 40h301c3 -13 3 -27 0 -40zM246 922c10 2 21 3 32 3c10 0 21 -1 31 -3c5 -37 27 -77 86 -77c61 0 81 38 89 77c10 2 21 3 31 3c11 0 22 -1 32 -3c-2 -80 -54 -146 -151 -146s-147 65 -150 146z" />
    <glyph glyph-name="gbreve" unicode="&#x11f;" horiz-adv-x="570" 
d="M497 354c0 -122 -73 -187 -218 -187c-41 0 -75 5 -104 15c-16 -14 -25 -29 -25 -45c0 -44 63 -44 113 -44h111c98 0 173 -31 173 -124c0 -143 -158 -180 -284 -180c-79 0 -157 15 -209 37v123c17 3 34 3 49 0l28 -74c22 -11 77 -20 136 -20c63 0 179 10 179 78
c0 22 -15 37 -72 37h-122c-97 0 -192 20 -192 122c0 44 25 83 68 110v4c-46 31 -68 80 -68 148c0 120 75 186 219 186c46 0 85 -7 116 -20h158c4 -18 4 -38 0 -56h-86v-4c20 -29 30 -64 30 -106zM364 354c0 95 -28 121 -85 121c-58 0 -86 -27 -86 -121s27 -121 86 -121
c57 0 85 27 85 121zM136 744c10 2 20 3 31 3s21 -1 32 -3c6 -45 25 -79 81 -79s75 34 81 79c11 2 21 3 31 3c11 0 22 -1 32 -3c0 -87 -51 -149 -144 -149s-144 62 -144 149z" />
    <glyph glyph-name="Idotaccent" unicode="&#x130;" horiz-adv-x="397" 
d="M131 655l-91 25c-3 13 -3 27 0 40h317c3 -13 3 -27 0 -40l-90 -25v-590l90 -25c3 -13 3 -27 0 -40h-317c-3 13 -3 27 0 40l91 25v590zM139 904c20 2 40 3 60 3s41 -1 61 -3c2 -20 3 -40 3 -60s-1 -40 -3 -60c-20 -2 -41 -3 -61 -3s-40 1 -60 3c-2 20 -3 40 -3 60
s1 40 3 60z" />
    <glyph glyph-name="Scedilla" unicode="&#x15e;" horiz-adv-x="619" 
d="M48 51v158c18 4 38 4 56 0l48 -130c29 -8 66 -14 105 -14c91 0 188 30 188 123c0 164 -392 53 -392 327c0 153 133 215 275 215c81 0 161 -20 220 -51v-153c-18 -4 -37 -4 -55 0l-45 117c-27 9 -61 15 -96 15c-82 0 -168 -31 -168 -118c0 -171 394 -63 394 -321
c0 -124 -92 -194 -204 -219c10 -25 17 -56 17 -85c0 -70 -36 -121 -113 -121c-33 0 -66 9 -87 26c2 17 8 34 17 50c14 -7 28 -11 42 -11c51 0 66 43 66 87c0 16 -2 32 -5 46c-17 -2 -30 -2 -38 -2c-84 0 -168 22 -225 61z" />
    <glyph glyph-name="scedilla" unicode="&#x15f;" horiz-adv-x="504" 
d="M101 162l28 -93c23 -8 54 -13 87 -13c65 0 134 21 134 83c0 104 -299 32 -299 238c0 123 118 163 222 163c60 0 121 -14 170 -36v-120c-17 -4 -35 -4 -52 0l-27 83c-19 4 -45 7 -73 7c-58 0 -120 -15 -120 -74c0 -112 300 -38 300 -235c0 -93 -67 -144 -150 -165
c10 -25 17 -56 17 -85c0 -70 -36 -121 -113 -121c-33 0 -66 9 -87 26c2 17 8 34 17 50c14 -7 28 -11 42 -11c50 0 66 44 66 88c0 15 -2 30 -5 44c-12 -1 -20 -1 -27 -1c-69 0 -137 16 -183 44v128c18 4 36 4 53 0z" />
    <glyph glyph-name="Cacute" unicode="&#x106;" horiz-adv-x="685" 
d="M537 82l49 129c18 4 37 4 55 0v-157c-68 -41 -159 -64 -248 -64c-213 0 -346 135 -346 371c0 230 149 369 372 369c79 0 158 -18 217 -52v-153c-18 -4 -37 -4 -55 0l-46 115c-29 12 -63 18 -99 18c-179 0 -250 -131 -250 -298c0 -176 74 -295 249 -295c36 0 72 6 102 17z
M318 822l181 113c19 -24 33 -53 42 -81l-196 -84c-12 14 -22 33 -27 52z" />
    <glyph glyph-name="cacute" unicode="&#x107;" horiz-adv-x="528" 
d="M491 167v-128c-50 -32 -118 -49 -184 -49c-167 0 -267 92 -267 274c0 181 111 276 271 276c63 0 126 -15 175 -41v-123c-18 -4 -35 -4 -53 0l-28 89c-18 5 -38 8 -60 8c-126 0 -170 -83 -170 -209c0 -129 45 -204 173 -204c22 0 44 3 61 8l29 99c17 4 35 4 53 0zM240 620
l114 161c27 -17 49 -36 69 -58l-138 -140c-17 8 -33 22 -45 37z" />
    <glyph glyph-name="Ccaron" unicode="&#x10c;" horiz-adv-x="685" 
d="M537 82l49 129c18 4 37 4 55 0v-157c-68 -41 -159 -64 -248 -64c-213 0 -346 135 -346 371c0 230 149 369 372 369c79 0 158 -18 217 -52v-153c-18 -4 -37 -4 -55 0l-46 115c-29 12 -63 18 -99 18c-179 0 -250 -131 -250 -298c0 -176 74 -295 249 -295c36 0 72 6 102 17z
M553 889l-151 -119h-10l-152 119c8 18 17 32 32 46l125 -79l124 79c15 -14 25 -29 32 -46z" />
    <glyph glyph-name="ccaron" unicode="&#x10d;" horiz-adv-x="528" 
d="M491 167v-128c-50 -32 -118 -49 -184 -49c-167 0 -267 92 -267 274c0 181 111 276 271 276c63 0 126 -15 175 -41v-123c-18 -4 -35 -4 -53 0l-28 89c-18 5 -38 8 -60 8c-126 0 -170 -83 -170 -209c0 -129 45 -204 173 -204c22 0 44 3 61 8l29 99c17 4 35 4 53 0zM440 744
l-134 -161h-10l-135 161c12 15 25 28 43 38l97 -98l96 98c18 -10 32 -23 43 -38z" />
    <glyph glyph-name="dcroat" unicode="&#x111;" horiz-adv-x="624" 
d="M388 134v312c-16 4 -32 6 -48 6c-125 0 -166 -91 -166 -212c0 -75 15 -169 105 -169c43 0 85 25 109 63zM593 577h-72v-518h72c3 -16 3 -32 0 -48l-134 -20c-34 -5 -70 8 -70 67v8h-4c-39 -50 -88 -76 -149 -76c-139 0 -196 112 -196 245c0 175 107 279 266 279
c29 0 57 -4 83 -12v75h-132c-3 16 -3 33 0 51h132v59h-73c-3 15 -3 31 0 47l146 23c46 7 59 -15 59 -59v-70h72c3 -17 3 -34 0 -51z" />
    <glyph glyph-name="Abreve" unicode="&#x102;" horiz-adv-x="805" 
d="M564 65l-59 157h-273l-60 -157l91 -25c3 -13 3 -27 0 -40h-248c-3 13 -3 27 0 40l79 24l249 656h119l248 -656l80 -24c3 -13 3 -26 0 -40h-317c-3 13 -3 27 0 40zM366 577l-107 -283h218l-106 283h-5zM247 922c10 2 21 3 32 3c10 0 21 -1 31 -3c5 -37 27 -77 86 -77
c61 0 81 38 89 77c10 2 21 3 31 3c11 0 22 -1 32 -3c-2 -80 -54 -146 -151 -146s-147 65 -150 146z" />
    <glyph glyph-name="abreve" unicode="&#x103;" horiz-adv-x="611" 
d="M511 361v-302h73c3 -16 3 -33 0 -48l-132 -21c-38 -6 -73 9 -73 68v9h-4c-41 -52 -101 -77 -167 -77c-93 0 -161 54 -161 154c0 167 191 177 332 178v51c0 80 -61 99 -126 99c-31 0 -63 -4 -89 -9l-28 -89c-18 -4 -35 -4 -53 0v125c67 23 146 41 213 41
c119 0 215 -44 215 -179zM379 135v132h-19c-72 0 -179 -17 -179 -117c0 -56 32 -81 74 -81c46 0 98 29 124 66zM156 744c10 2 20 3 31 3s21 -1 32 -3c6 -45 25 -79 81 -79s75 34 81 79c11 2 21 3 31 3c11 0 22 -1 32 -3c0 -87 -51 -149 -144 -149s-144 62 -144 149z" />
    <glyph glyph-name="Aogonek" unicode="&#x104;" horiz-adv-x="805" 
d="M710 64l80 -24c3 -13 3 -27 0 -40h-185c-4 -15 -7 -34 -7 -53c0 -44 16 -88 67 -88c14 0 28 4 42 11c10 -16 15 -33 16 -50c-21 -17 -54 -26 -86 -26c-75 0 -113 48 -113 119c0 54 18 104 42 146l-61 163h-273l-60 -157l91 -25c3 -12 3 -27 0 -40h-248c-3 13 -3 27 0 40
l79 24l249 656h119zM366 577l-107 -283h218l-106 283h-5z" />
    <glyph glyph-name="aogonek" unicode="&#x105;" horiz-adv-x="611" 
d="M511 361v-302h73c3 -16 3 -33 0 -48l-116 -18c-3 -16 -4 -33 -4 -48c0 -45 17 -86 66 -86c14 0 28 4 42 11c10 -16 15 -33 17 -50c-21 -17 -54 -26 -87 -26c-77 0 -113 51 -113 121c0 28 6 57 16 82c-16 10 -26 29 -26 61v9h-4c-41 -52 -101 -77 -167 -77
c-93 0 -161 54 -161 154c0 167 191 177 332 178v51c0 80 -61 99 -126 99c-31 0 -63 -4 -89 -9l-28 -89c-18 -4 -35 -4 -53 0v125c67 23 146 41 213 41c119 0 215 -44 215 -179zM379 135v132h-19c-72 0 -179 -17 -179 -117c0 -56 32 -81 74 -81c46 0 98 29 124 66z" />
    <glyph glyph-name="Dcaron" unicode="&#x10e;" horiz-adv-x="763" 
d="M348 648h-81v-576h81c173 0 229 113 229 288s-57 288 -229 288zM131 65v590l-91 25c-3 13 -3 27 0 40h309c257 0 367 -121 367 -360c0 -243 -110 -360 -367 -360h-309c-3 13 -3 27 0 40zM533 889l-151 -119h-10l-152 119c8 18 17 32 32 46l125 -79l124 79
c15 -14 25 -29 32 -46z" />
    <glyph glyph-name="dcaron" unicode="&#x10f;" horiz-adv-x="624" 
d="M389 528v158h-73c-3 16 -3 32 0 48l141 23c50 8 64 -14 64 -59v-639h72c3 -17 3 -33 0 -48l-132 -21c-37 -6 -72 10 -72 68v7h-5c-36 -49 -91 -75 -149 -75c-140 0 -195 126 -195 256c0 173 103 294 270 294c26 0 53 -4 79 -12zM389 134v337c-16 4 -33 6 -49 6
c-124 0 -165 -104 -165 -226c0 -74 13 -180 106 -180c42 0 83 25 108 63zM578 597c29 32 38 80 38 125c0 12 -1 23 -2 34c15 2 30 3 45 3s31 -1 45 -3c5 -85 -23 -146 -89 -182c-13 3 -28 12 -37 23z" />
    <glyph glyph-name="Dcroat" unicode="&#x110;" horiz-adv-x="766" 
d="M420 348h-150v-276h80c173 0 230 113 230 288s-58 288 -230 288h-80v-239h150c2 -10 3 -21 3 -31s-1 -20 -3 -30zM43 409h90v246l-90 25c-3 13 -3 27 0 40h309c257 0 367 -121 367 -360c0 -243 -110 -360 -367 -360h-309c-3 13 -3 27 0 40l90 25v283h-90
c-2 10 -3 20 -3 30s1 21 3 31z" />
    <glyph glyph-name="Eogonek" unicode="&#x118;" horiz-adv-x="674" 
d="M131 65v590l-91 25c-3 13 -3 27 0 40h573v-163c-19 -4 -39 -4 -56 0l-34 91h-256v-237h185l25 62c14 3 30 3 45 0v-214c-15 -3 -31 -3 -45 0l-25 80h-185v-267h275l35 96c18 4 37 4 55 0v-168h-108c-4 -16 -7 -34 -7 -53c0 -44 16 -88 66 -88c14 0 29 4 42 11
c10 -16 15 -33 17 -50c-21 -17 -54 -26 -86 -26c-78 0 -113 51 -113 121c0 30 6 60 16 85h-419c-3 13 -3 27 0 40z" />
    <glyph glyph-name="eogonek" unicode="&#x119;" horiz-adv-x="573" 
d="M523 266h-348c0 -141 53 -209 178 -209c27 0 56 4 79 11l29 94c17 4 35 4 53 0v-123c-34 -19 -74 -33 -115 -40c-4 -15 -6 -34 -6 -52c0 -44 15 -88 66 -88c14 0 28 4 42 11c10 -16 15 -33 17 -50c-21 -17 -54 -26 -87 -26c-77 0 -113 51 -113 121c0 26 5 52 13 76
c-11 -1 -19 -1 -27 -1c-154 0 -264 89 -264 275c0 171 96 275 261 275c149 0 225 -99 225 -225c0 -14 -1 -30 -3 -49zM299 475c-77 0 -112 -70 -121 -153l216 14c0 90 -41 139 -95 139z" />
    <glyph glyph-name="Ecaron" unicode="&#x11a;" horiz-adv-x="674" 
d="M131 65v590l-91 25c-3 13 -3 27 0 40h573v-163c-19 -4 -38 -4 -56 0l-34 91h-256v-237h185l25 62c14 3 30 3 45 0v-214c-15 -3 -31 -3 -45 0l-25 80h-185v-267h275l35 96c18 4 37 4 55 0v-168h-592c-3 13 -3 27 0 40zM517 889l-151 -119h-10l-152 119c8 18 17 32 32 46
l125 -79l124 79c15 -14 25 -29 32 -46z" />
    <glyph glyph-name="ecaron" unicode="&#x11b;" horiz-adv-x="573" 
d="M523 266h-348c0 -141 53 -209 178 -209c27 0 56 4 79 11l29 94c17 4 35 4 53 0v-123c-57 -31 -130 -49 -202 -49c-167 0 -272 92 -272 275c0 171 96 275 261 275c149 0 225 -99 225 -225c0 -14 -1 -30 -3 -49zM299 475c-77 0 -112 -70 -121 -153l216 14
c0 90 -41 139 -95 139zM440 744l-134 -161h-10l-135 161c12 15 25 28 43 38l97 -98l96 98c18 -10 32 -23 43 -38z" />
    <glyph glyph-name="Lacute" unicode="&#x139;" horiz-adv-x="612" 
d="M601 0h-561c-3 13 -3 27 0 40l91 25v590l-91 25c-3 13 -3 27 0 40h317c3 -13 3 -27 0 -40l-90 -25v-583h235l44 113c18 4 37 4 55 0v-185zM140 822l181 113c19 -24 33 -53 42 -81l-196 -84c-12 14 -22 33 -27 52z" />
    <glyph glyph-name="lacute" unicode="&#x13a;" horiz-adv-x="342" 
d="M105 58v628h-73c-3 17 -3 32 0 48l140 23c51 8 65 -15 65 -59v-640l72 -20c3 -11 3 -25 0 -38h-277c-3 13 -3 26 0 38zM76 842l181 113c19 -24 33 -53 42 -81l-196 -84c-12 14 -22 33 -27 52z" />
    <glyph glyph-name="Lcaron" unicode="&#x13d;" horiz-adv-x="612" 
d="M601 0h-561c-3 13 -3 27 0 40l91 25v590l-91 25c-3 13 -3 27 0 40h317c3 -13 3 -27 0 -40l-90 -25v-583h235l44 113c18 4 37 4 55 0v-185zM402 558c29 32 38 80 38 125c0 12 -1 23 -2 34c15 2 30 3 45 3s31 -1 45 -3c5 -85 -23 -146 -89 -182c-13 3 -28 12 -37 23z" />
    <glyph glyph-name="lcaron" unicode="&#x13e;" horiz-adv-x="342" 
d="M105 58v628h-73c-3 17 -3 32 0 48l140 23c51 8 65 -15 65 -59v-640l72 -20c3 -11 3 -25 0 -38h-277c-3 13 -3 26 0 38zM294 597c29 32 38 80 38 125c0 12 -1 23 -2 34c15 2 30 3 45 3s31 -1 45 -3c5 -85 -23 -146 -89 -182c-13 3 -28 12 -37 23z" />
    <glyph glyph-name="Nacute" unicode="&#x143;" horiz-adv-x="772" 
d="M197 572h-4v-507l90 -25c3 -13 3 -27 0 -40h-243c-3 13 -3 27 0 40l80 24v592l-80 24c-3 13 -3 27 0 40h227l309 -516h4v451l-91 25c-3 13 -3 27 0 40h244c3 -13 3 -27 0 -40l-80 -24v-656h-113zM316 822l181 113c19 -24 33 -53 42 -81l-196 -84c-12 14 -22 33 -27 52z
" />
    <glyph glyph-name="nacute" unicode="&#x144;" horiz-adv-x="688" 
d="M117 58v408h-73c-3 16 -3 32 0 48l140 23c53 9 65 -15 65 -59v-13h4c50 49 109 75 174 75c122 0 161 -82 161 -204v-278l72 -20c3 -12 3 -25 0 -38h-270c-3 13 -3 26 0 38l66 20v241c0 71 -5 155 -89 155c-42 0 -90 -24 -118 -52v-344l65 -20c3 -12 3 -25 0 -38h-270
c-3 13 -3 26 0 38zM288 620l114 161c27 -17 49 -36 69 -58l-138 -140c-17 8 -33 22 -45 37z" />
    <glyph glyph-name="Ncaron" unicode="&#x147;" horiz-adv-x="772" 
d="M197 572h-4v-507l90 -25c3 -13 3 -27 0 -40h-243c-3 13 -3 27 0 40l80 24v592l-80 24c-3 13 -3 27 0 40h227l309 -516h4v451l-91 25c-3 13 -3 27 0 40h244c3 -13 3 -27 0 -40l-80 -24v-656h-113zM550 889l-151 -119h-10l-152 119c8 18 17 32 32 46l125 -79l124 79
c15 -14 25 -29 32 -46z" />
    <glyph glyph-name="ncaron" unicode="&#x148;" horiz-adv-x="688" 
d="M117 58v408h-73c-3 16 -3 32 0 48l140 23c53 9 65 -15 65 -59v-13h4c50 49 109 75 174 75c122 0 161 -82 161 -204v-278l72 -20c3 -12 3 -25 0 -38h-270c-3 13 -3 26 0 38l66 20v241c0 71 -5 155 -89 155c-42 0 -90 -24 -118 -52v-344l65 -20c3 -12 3 -25 0 -38h-270
c-3 13 -3 26 0 38zM480 744l-134 -161h-10l-135 161c12 15 25 28 43 38l97 -98l96 98c18 -10 32 -23 43 -38z" />
    <glyph glyph-name="Ohungarumlaut" unicode="&#x150;" horiz-adv-x="765" 
d="M47 360c0 239 113 370 336 370c225 0 335 -131 335 -370c0 -243 -110 -370 -335 -370c-223 0 -336 127 -336 370zM578 360c0 175 -49 298 -195 298c-144 0 -197 -123 -197 -298s53 -298 197 -298c146 0 195 123 195 298zM236 811l102 124c24 -17 48 -41 64 -65l-126 -100
c-16 10 -29 23 -40 41zM425 811l102 124c24 -17 48 -41 64 -65l-126 -100c-16 10 -29 23 -40 41z" />
    <glyph glyph-name="ohungarumlaut" unicode="&#x151;" horiz-adv-x="601" 
d="M427 265c0 149 -52 209 -126 209c-75 0 -126 -60 -126 -209s51 -209 126 -209c74 0 126 60 126 209zM561 265c0 -176 -91 -275 -260 -275c-170 0 -261 99 -261 275c0 173 91 275 261 275c169 0 260 -102 260 -275zM151 618l103 164c29 -17 51 -33 71 -55l-129 -144
c-18 8 -34 21 -45 35zM329 618l103 164c29 -17 51 -33 71 -55l-129 -144c-18 8 -34 21 -45 35z" />
    <glyph glyph-name="Racute" unicode="&#x154;" horiz-adv-x="733" 
d="M481 505c0 102 -61 143 -185 143h-29v-290h24c126 0 190 49 190 147zM316 287h-49v-222l84 -25c3 -12 3 -27 0 -40h-311c-3 13 -3 27 0 40l91 25v590l-91 25c-3 13 -3 27 0 40h255c215 0 323 -55 323 -206c0 -92 -49 -167 -153 -202l183 -247l77 -25c3 -13 3 -27 0 -40
h-198zM263 822l181 113c19 -24 33 -53 42 -81l-196 -84c-12 14 -22 33 -27 52z" />
    <glyph glyph-name="racute" unicode="&#x155;" horiz-adv-x="481" 
d="M117 466h-73c-3 16 -3 32 0 48l140 23c53 9 65 -15 65 -59v-13h4c38 43 88 75 167 75c18 0 36 -1 55 -5v-148c-19 -4 -36 -4 -53 0l-20 64c-57 10 -122 -15 -153 -49v-344l72 -20c3 -11 3 -25 0 -38h-277c-3 13 -3 26 0 38l73 20v408zM229 620l114 161
c27 -17 49 -36 69 -58l-138 -140c-17 8 -33 22 -45 37z" />
    <glyph glyph-name="Rcaron" unicode="&#x158;" horiz-adv-x="733" 
d="M481 505c0 102 -61 143 -185 143h-29v-290h24c126 0 190 49 190 147zM316 287h-49v-222l84 -25c3 -12 3 -27 0 -40h-311c-3 13 -3 27 0 40l91 25v590l-91 25c-3 13 -3 27 0 40h255c215 0 323 -55 323 -206c0 -92 -49 -167 -153 -202l183 -247l77 -25c3 -13 3 -27 0 -40
h-198zM494 889l-151 -119h-10l-152 119c8 18 17 32 32 46l125 -79l124 79c15 -14 25 -29 32 -46z" />
    <glyph glyph-name="rcaron" unicode="&#x159;" horiz-adv-x="481" 
d="M117 466h-73c-3 16 -3 32 0 48l140 23c53 9 65 -15 65 -59v-13h4c38 43 88 75 167 75c18 0 36 -1 55 -5v-148c-19 -4 -36 -4 -53 0l-20 64c-57 10 -122 -15 -153 -49v-344l72 -20c3 -11 3 -25 0 -38h-277c-3 13 -3 26 0 38l73 20v408zM419 744l-134 -161h-10l-135 161
c12 15 25 28 43 38l97 -98l96 98c18 -10 32 -23 43 -38z" />
    <glyph glyph-name="Sacute" unicode="&#x15a;" horiz-adv-x="619" 
d="M48 51v158c18 4 38 4 56 0l48 -130c29 -8 66 -14 105 -14c91 0 188 30 188 123c0 164 -392 53 -392 327c0 153 133 215 275 215c81 0 161 -20 220 -51v-153c-18 -4 -37 -4 -55 0l-45 117c-27 9 -61 15 -96 15c-82 0 -168 -31 -168 -118c0 -171 394 -63 394 -321
c0 -160 -152 -229 -305 -229c-84 0 -168 22 -225 61zM245 822l181 113c19 -24 33 -53 42 -81l-196 -84c-12 14 -22 33 -27 52z" />
    <glyph glyph-name="sacute" unicode="&#x15b;" horiz-adv-x="504" 
d="M101 162l28 -93c23 -8 54 -13 87 -13c65 0 134 21 134 83c0 104 -299 32 -299 238c0 123 118 163 222 163c60 0 121 -14 170 -36v-120c-17 -4 -35 -4 -52 0l-27 83c-19 4 -45 7 -73 7c-58 0 -120 -15 -120 -74c0 -112 300 -38 300 -235c0 -124 -120 -175 -240 -175
c-69 0 -137 16 -183 44v128c18 4 36 4 53 0zM206 620l114 161c27 -17 49 -36 69 -58l-138 -140c-17 8 -33 22 -45 37z" />
    <glyph glyph-name="Tcommaaccent" unicode="&#x162;" horiz-adv-x="649" 
d="M538 648h-145v-583l90 -25c3 -12 3 -27 0 -40h-317c-3 13 -3 27 0 40l90 25v583h-145l-42 -108c-18 -4 -37 -4 -55 0v180h621v-180c-18 -4 -37 -4 -55 0zM243 -207c29 32 38 80 38 125c0 12 -1 23 -2 34c15 2 30 3 45 3s31 -1 45 -3c5 -85 -23 -146 -89 -182
c-13 3 -28 12 -37 23z" />
    <glyph glyph-name="tcommaaccent" unicode="&#x163;" horiz-adv-x="380" 
d="M99 182v288h-73c-2 11 -2 24 0 35l73 21v145l124 23l8 -7v-161h131c4 -19 4 -37 0 -56h-131v-253c0 -102 12 -174 133 -163c4 -19 4 -38 0 -56c-23 -5 -53 -8 -78 -8c-118 0 -187 51 -187 192zM106 -207c29 32 38 80 38 125c0 12 -1 23 -2 34c15 2 30 3 45 3s31 -1 45 -3
c5 -85 -23 -146 -89 -182c-13 3 -28 12 -37 23z" />
    <glyph glyph-name="Tcaron" unicode="&#x164;" horiz-adv-x="649" 
d="M538 648h-145v-583l90 -25c3 -12 3 -27 0 -40h-317c-3 13 -3 27 0 40l90 25v583h-145l-42 -108c-18 -4 -37 -4 -55 0v180h621v-180c-18 -4 -37 -4 -55 0zM481 889l-151 -119h-10l-152 119c8 18 17 32 32 46l125 -79l124 79c15 -14 25 -29 32 -46z" />
    <glyph glyph-name="tcaron" unicode="&#x165;" horiz-adv-x="373" 
d="M99 182v288h-73c-2 11 -2 24 0 35l73 21v145l124 23l8 -7v-161h131c4 -19 4 -37 0 -56h-131v-253c0 -102 12 -174 133 -163c4 -19 4 -38 0 -56c-23 -5 -53 -8 -78 -8c-118 0 -187 51 -187 192zM302 626c29 32 38 80 38 125c0 12 -1 23 -2 34c15 2 30 3 45 3s31 -1 45 -3
c5 -85 -23 -146 -89 -182c-13 3 -28 12 -37 23z" />
    <glyph glyph-name="Uring" unicode="&#x16e;" horiz-adv-x="788" 
d="M122 655l-80 25c-3 13 -3 27 0 40h310c3 -13 3 -27 0 -40l-94 -25v-361c0 -151 42 -223 169 -223c119 0 169 80 169 224v360l-91 25c-3 13 -3 27 0 40h244c3 -13 3 -27 0 -40l-80 -24v-352c0 -197 -73 -314 -273 -314c-209 0 -274 109 -274 314v351zM311 854
c0 61 44 100 104 100s105 -39 105 -100s-45 -99 -105 -99s-104 38 -104 99zM368 854c0 -32 19 -55 47 -55s48 23 48 55s-20 56 -48 56s-47 -24 -47 -56z" />
    <glyph glyph-name="uring" unicode="&#x16f;" horiz-adv-x="675" 
d="M438 133v333h-73c-3 16 -3 32 0 48l141 23c52 8 64 -15 64 -59v-419h72c3 -16 3 -33 0 -48l-132 -21c-37 -6 -72 9 -72 68v9h-4c-45 -49 -106 -77 -174 -77c-139 0 -160 103 -160 235v241h-73c-3 16 -3 32 0 48l140 23c52 9 65 -15 65 -59v-249c0 -74 4 -153 86 -153
c44 0 89 23 120 57zM225 682c0 61 44 100 104 100s105 -39 105 -100s-45 -99 -105 -99s-104 38 -104 99zM282 682c0 -32 19 -55 47 -55s48 23 48 55s-20 56 -48 56s-47 -24 -47 -56z" />
    <glyph glyph-name="Uhungarumlaut" unicode="&#x170;" horiz-adv-x="788" 
d="M122 655l-80 25c-3 13 -3 27 0 40h310c3 -13 3 -27 0 -40l-94 -25v-361c0 -151 42 -223 169 -223c119 0 169 80 169 224v360l-91 25c-3 13 -3 27 0 40h244c3 -13 3 -27 0 -40l-80 -24v-352c0 -197 -73 -314 -273 -314c-209 0 -274 109 -274 314v351zM264 811l102 124
c24 -17 48 -41 64 -65l-126 -100c-16 10 -29 23 -40 41zM453 811l102 124c24 -17 48 -41 64 -65l-126 -100c-16 10 -29 23 -40 41z" />
    <glyph glyph-name="uhungarumlaut" unicode="&#x171;" horiz-adv-x="675" 
d="M438 133v333h-73c-3 16 -3 32 0 48l141 23c52 8 64 -15 64 -59v-419h72c3 -16 3 -33 0 -48l-132 -21c-37 -6 -72 9 -72 68v9h-4c-45 -49 -106 -77 -174 -77c-139 0 -160 103 -160 235v241h-73c-3 16 -3 32 0 48l140 23c52 9 65 -15 65 -59v-249c0 -74 4 -153 86 -153
c44 0 89 23 120 57zM192 618l103 164c29 -17 51 -33 71 -55l-129 -144c-18 8 -34 21 -45 35zM370 618l103 164c29 -17 51 -33 71 -55l-129 -144c-18 8 -34 21 -45 35z" />
    <glyph glyph-name="Zacute" unicode="&#x179;" horiz-adv-x="651" 
d="M57 720h550v-66l-407 -582h323l44 113c18 4 37 4 55 0v-185h-593v66l404 582h-279l-41 -108c-18 -4 -38 -4 -56 0v180zM279 822l181 113c19 -24 33 -53 42 -81l-196 -84c-12 14 -22 33 -27 52z" />
    <glyph glyph-name="zacute" unicode="&#x17a;" horiz-adv-x="534" 
d="M321 458v4h-197l-24 -75c-17 -4 -35 -4 -53 0v143h444v-60l-291 -398v-4h227l24 80c16 4 34 4 52 0v-148h-472v60zM225 620l114 161c27 -17 49 -36 69 -58l-138 -140c-17 8 -33 22 -45 37z" />
    <glyph glyph-name="Zdotaccent" unicode="&#x17b;" horiz-adv-x="651" 
d="M57 720h550v-66l-407 -582h323l44 113c18 4 37 4 55 0v-185h-593v66l404 582h-279l-41 -108c-18 -4 -38 -4 -56 0v180zM272 904c20 2 40 3 60 3s41 -1 61 -3c2 -20 3 -40 3 -60s-1 -40 -3 -60c-20 -2 -41 -3 -61 -3s-40 1 -60 3c-2 20 -3 40 -3 60s1 40 3 60z" />
    <glyph glyph-name="zdotaccent" unicode="&#x17c;" horiz-adv-x="534" 
d="M321 458v4h-197l-24 -75c-17 -4 -35 -4 -53 0v143h444v-60l-291 -398v-4h227l24 80c16 4 34 4 52 0v-148h-472v60zM212 744c20 2 40 3 60 3s41 -1 61 -3c2 -20 3 -40 3 -60s-1 -40 -3 -60c-20 -2 -41 -3 -61 -3s-40 1 -60 3c-2 20 -3 40 -3 60s1 40 3 60z" />
    <glyph glyph-name="Amacron" unicode="&#x100;" horiz-adv-x="805" 
d="M564 65l-59 157h-273l-60 -157l91 -25c3 -13 3 -27 0 -40h-248c-3 13 -3 27 0 40l79 24l249 656h119l248 -656l80 -24c3 -13 3 -26 0 -40h-317c-3 13 -3 27 0 40zM366 577l-107 -283h218l-106 283h-5zM544 790h-293c-2 12 -3 26 -3 38c0 13 1 25 3 38h293
c2 -13 3 -25 3 -38s-1 -26 -3 -38z" />
    <glyph glyph-name="amacron" unicode="&#x101;" horiz-adv-x="611" 
d="M511 361v-302h73c3 -16 3 -33 0 -48l-132 -21c-38 -6 -73 9 -73 68v9h-4c-41 -52 -101 -77 -167 -77c-93 0 -161 54 -161 154c0 167 191 177 332 178v51c0 80 -61 99 -126 99c-31 0 -63 -4 -89 -9l-28 -89c-18 -4 -35 -4 -53 0v125c67 23 146 41 213 41
c119 0 215 -44 215 -179zM379 135v132h-19c-72 0 -179 -17 -179 -117c0 -56 32 -81 74 -81c46 0 98 29 124 66zM443 620h-293c-2 12 -3 26 -3 38c0 13 1 25 3 38h293c2 -13 3 -25 3 -38c0 -12 -1 -26 -3 -38z" />
    <glyph glyph-name="Emacron" unicode="&#x112;" horiz-adv-x="674" 
d="M131 65v590l-91 25c-3 13 -3 27 0 40h573v-163c-19 -4 -38 -4 -56 0l-34 91h-256v-237h185l25 62c14 3 30 3 45 0v-214c-15 -3 -31 -3 -45 0l-25 80h-185v-267h275l35 96c18 4 37 4 55 0v-168h-592c-3 13 -3 27 0 40zM504 790h-293c-2 12 -3 26 -3 38c0 13 1 25 3 38h293
c2 -13 3 -25 3 -38s-1 -26 -3 -38z" />
    <glyph glyph-name="emacron" unicode="&#x113;" horiz-adv-x="573" 
d="M523 266h-348c0 -141 53 -209 178 -209c27 0 56 4 79 11l29 94c17 4 35 4 53 0v-123c-57 -31 -130 -49 -202 -49c-167 0 -272 92 -272 275c0 171 96 275 261 275c149 0 225 -99 225 -225c0 -14 -1 -30 -3 -49zM299 475c-77 0 -112 -70 -121 -153l216 14
c0 90 -41 139 -95 139zM444 620h-293c-2 12 -3 26 -3 38c0 13 1 25 3 38h293c2 -13 3 -25 3 -38c0 -12 -1 -26 -3 -38z" />
    <glyph glyph-name="Edotaccent" unicode="&#x116;" horiz-adv-x="674" 
d="M131 65v590l-91 25c-3 13 -3 27 0 40h573v-163c-19 -4 -38 -4 -56 0l-34 91h-256v-237h185l25 62c14 3 30 3 45 0v-214c-15 -3 -31 -3 -45 0l-25 80h-185v-267h275l35 96c18 4 37 4 55 0v-168h-592c-3 13 -3 27 0 40zM302 904c20 2 40 3 60 3s41 -1 61 -3
c2 -20 3 -40 3 -60s-1 -40 -3 -60c-20 -2 -41 -3 -61 -3s-40 1 -60 3c-2 20 -3 40 -3 60s1 40 3 60z" />
    <glyph glyph-name="edotaccent" unicode="&#x117;" horiz-adv-x="573" 
d="M523 266h-348c0 -141 53 -209 178 -209c27 0 56 4 79 11l29 94c17 4 35 4 53 0v-123c-57 -31 -130 -49 -202 -49c-167 0 -272 92 -272 275c0 171 96 275 261 275c149 0 225 -99 225 -225c0 -14 -1 -30 -3 -49zM299 475c-77 0 -112 -70 -121 -153l216 14
c0 90 -41 139 -95 139zM235 744c20 2 40 3 60 3s41 -1 61 -3c2 -20 3 -40 3 -60s-1 -40 -3 -60c-20 -2 -41 -3 -61 -3s-40 1 -60 3c-2 20 -3 40 -3 60s1 40 3 60z" />
    <glyph glyph-name="Gcommaaccent" unicode="&#x122;" horiz-adv-x="755" 
d="M705 314l-51 -18v-306h-37c-40 0 -59 17 -68 35c-47 -23 -104 -35 -163 -35c-212 0 -339 136 -339 369c0 237 155 371 380 371c82 0 166 -17 227 -51v-153c-18 -4 -37 -4 -55 0l-46 115c-30 12 -68 17 -106 17c-182 0 -261 -114 -261 -297c0 -170 74 -295 237 -295
c34 0 69 7 99 22v201l-118 25c-3 13 -3 27 0 40h301c3 -13 3 -27 0 -40zM325 -207c29 32 38 80 38 125c0 12 -1 23 -2 34c15 2 30 3 45 3s31 -1 45 -3c5 -85 -23 -146 -89 -182c-13 3 -28 12 -37 23z" />
    <glyph glyph-name="gcommaaccent" unicode="&#x123;" horiz-adv-x="570" 
d="M497 354c0 -122 -73 -187 -218 -187c-41 0 -75 5 -104 15c-16 -14 -25 -29 -25 -45c0 -44 63 -44 113 -44h111c98 0 173 -31 173 -124c0 -143 -158 -180 -284 -180c-79 0 -157 15 -209 37v123c17 3 34 3 49 0l28 -74c22 -11 77 -20 136 -20c63 0 179 10 179 78
c0 22 -15 37 -72 37h-122c-97 0 -192 20 -192 122c0 44 25 83 68 110v4c-46 31 -68 80 -68 148c0 120 75 186 219 186c46 0 85 -7 116 -20h158c4 -18 4 -38 0 -56h-86v-4c20 -29 30 -64 30 -106zM364 354c0 95 -28 121 -85 121c-58 0 -86 -27 -86 -121s27 -121 86 -121
c57 0 85 27 85 121zM351 756c-29 -32 -38 -80 -38 -125c0 -12 1 -23 2 -34c-15 -2 -30 -3 -45 -3s-31 1 -45 3c-5 85 23 146 89 182c13 -3 28 -12 37 -23z" />
    <glyph glyph-name="Imacron" unicode="&#x12a;" horiz-adv-x="397" 
d="M131 655l-91 25c-3 13 -3 27 0 40h317c3 -13 3 -27 0 -40l-90 -25v-590l90 -25c3 -13 3 -27 0 -40h-317c-3 13 -3 27 0 40l91 25v590zM346 790h-293c-2 12 -3 26 -3 38c0 13 1 25 3 38h293c2 -13 3 -25 3 -38s-1 -26 -3 -38z" />
    <glyph glyph-name="imacron" unicode="&#x12b;" horiz-adv-x="354" 
d="M117 58v408h-73c-3 16 -3 32 0 48l140 23c51 8 65 -13 65 -59v-420l72 -20c3 -12 3 -25 0 -38h-277c-3 13 -3 26 0 38zM309 620h-293c-2 12 -3 26 -3 38c0 13 1 25 3 38h293c2 -13 3 -25 3 -38c0 -12 -1 -26 -3 -38z" />
    <glyph glyph-name="Iogonek" unicode="&#x12e;" horiz-adv-x="398" 
d="M131 655l-91 25c-3 13 -3 27 0 40h317c3 -13 3 -27 0 -40l-90 -25v-590l90 -25c3 -13 3 -27 0 -40h-127c-3 -15 -6 -34 -6 -52c0 -45 15 -89 66 -89c14 0 28 4 42 11c10 -16 15 -33 17 -50c-21 -17 -54 -26 -87 -26c-77 0 -113 51 -113 121c0 30 6 60 17 85h-126
c-3 13 -3 27 0 40l91 25v590z" />
    <glyph glyph-name="iogonek" unicode="&#x12f;" horiz-adv-x="354" 
d="M117 58v408h-73c-3 16 -3 32 0 48l140 23c51 8 65 -13 65 -59v-420l72 -20c3 -12 3 -25 0 -38h-107c-3 -15 -6 -34 -6 -52c0 -45 15 -89 66 -89c14 0 28 4 42 11c10 -16 15 -33 17 -50c-21 -17 -54 -26 -87 -26c-77 0 -113 51 -113 121c0 30 6 60 17 85h-106
c-3 13 -3 26 0 38zM114 746c19 3 41 5 61 5s41 -2 60 -5c4 -19 6 -40 6 -62c0 -20 -2 -40 -6 -58c-18 -3 -39 -5 -58 -5c-21 0 -43 2 -63 5c-3 19 -5 39 -5 58c0 21 2 41 5 62z" />
    <glyph glyph-name="Kcommaaccent" unicode="&#x136;" horiz-adv-x="773" 
d="M766 0h-202l-285 361l258 302l-61 17c-3 12 -3 26 0 40h254c3 -13 3 -27 0 -40l-105 -28l-211 -244l268 -343l84 -25c3 -13 3 -27 0 -40zM357 680l-90 -25v-590l90 -25c3 -13 3 -27 0 -40h-317c-3 13 -3 27 0 40l91 25v590l-91 25c-3 13 -3 27 0 40h317
c3 -13 3 -27 0 -40zM342 -207c29 32 38 80 38 125c0 12 -1 23 -2 34c15 2 30 3 45 3s31 -1 45 -3c5 -85 -23 -146 -89 -182c-13 3 -28 12 -37 23z" />
    <glyph glyph-name="kcommaaccent" unicode="&#x137;" horiz-adv-x="646" 
d="M644 0h-186l-209 269v5l197 201l-64 17c-3 12 -3 25 0 38h241c3 -13 3 -26 0 -38l-90 -22l-153 -156l201 -259l63 -17c3 -11 3 -25 0 -38zM105 58v628h-73c-3 17 -3 32 0 48l140 23c51 8 65 -15 65 -59v-640l65 -20c3 -11 3 -25 0 -38h-270c-3 13 -3 26 0 38zM276 -207
c29 32 38 80 38 125c0 12 -1 23 -2 34c15 2 30 3 45 3s31 -1 45 -3c5 -85 -23 -146 -89 -182c-13 3 -28 12 -37 23z" />
    <glyph glyph-name="Lcommaaccent" unicode="&#x13b;" horiz-adv-x="612" 
d="M601 0h-561c-3 13 -3 27 0 40l91 25v590l-91 25c-3 13 -3 27 0 40h317c3 -13 3 -27 0 -40l-90 -25v-583h235l44 113c18 4 37 4 55 0v-185zM276 -207c29 32 38 80 38 125c0 12 -1 23 -2 34c15 2 30 3 45 3s31 -1 45 -3c5 -85 -23 -146 -89 -182c-13 3 -28 12 -37 23z" />
    <glyph glyph-name="lcommaaccent" unicode="&#x13c;" horiz-adv-x="342" 
d="M105 58v628h-73c-3 17 -3 32 0 48l140 23c51 8 65 -15 65 -59v-640l72 -20c3 -11 3 -25 0 -38h-277c-3 13 -3 26 0 38zM91 -207c29 32 38 80 38 125c0 12 -1 23 -2 34c15 2 30 3 45 3s31 -1 45 -3c5 -85 -23 -146 -89 -182c-13 3 -28 12 -37 23z" />
    <glyph glyph-name="Ncommaaccent" unicode="&#x145;" horiz-adv-x="772" 
d="M197 572h-4v-507l90 -25c3 -13 3 -27 0 -40h-243c-3 13 -3 27 0 40l80 24v592l-80 24c-3 13 -3 27 0 40h227l309 -516h4v451l-91 25c-3 13 -3 27 0 40h244c3 -13 3 -27 0 -40l-80 -24v-656h-113zM307 -207c29 32 38 80 38 125c0 12 -1 23 -2 34c15 2 30 3 45 3
s31 -1 45 -3c5 -85 -23 -146 -89 -182c-13 3 -28 12 -37 23z" />
    <glyph glyph-name="ncommaaccent" unicode="&#x146;" horiz-adv-x="688" 
d="M117 58v408h-73c-3 16 -3 32 0 48l140 23c53 9 65 -15 65 -59v-13h4c50 49 109 75 174 75c122 0 161 -82 161 -204v-278l72 -20c3 -12 3 -25 0 -38h-270c-3 13 -3 26 0 38l66 20v241c0 71 -5 155 -89 155c-42 0 -90 -24 -118 -52v-344l65 -20c3 -12 3 -25 0 -38h-270
c-3 13 -3 26 0 38zM274 -207c29 32 38 80 38 125c0 12 -1 23 -2 34c15 2 30 3 45 3s31 -1 45 -3c5 -85 -23 -146 -89 -182c-13 3 -28 12 -37 23z" />
    <glyph glyph-name="Omacron" unicode="&#x14c;" horiz-adv-x="765" 
d="M47 360c0 239 113 370 336 370c225 0 335 -131 335 -370c0 -243 -110 -370 -335 -370c-223 0 -336 127 -336 370zM578 360c0 175 -49 298 -195 298c-144 0 -197 -123 -197 -298s53 -298 197 -298c146 0 195 123 195 298zM529 790h-293c-2 12 -3 26 -3 38c0 13 1 25 3 38
h293c2 -13 3 -25 3 -38s-1 -26 -3 -38z" />
    <glyph glyph-name="omacron" unicode="&#x14d;" horiz-adv-x="601" 
d="M427 265c0 149 -52 209 -126 209c-75 0 -126 -60 -126 -209s51 -209 126 -209c74 0 126 60 126 209zM561 265c0 -176 -91 -275 -260 -275c-170 0 -261 99 -261 275c0 173 91 275 261 275c169 0 260 -102 260 -275zM447 620h-293c-2 12 -3 26 -3 38c0 13 1 25 3 38h293
c2 -13 3 -25 3 -38c0 -12 -1 -26 -3 -38z" />
    <glyph glyph-name="Rcommaaccent" unicode="&#x156;" horiz-adv-x="733" 
d="M481 505c0 102 -61 143 -185 143h-29v-290h24c126 0 190 49 190 147zM316 287h-49v-222l84 -25c3 -12 3 -27 0 -40h-311c-3 13 -3 27 0 40l91 25v590l-91 25c-3 13 -3 27 0 40h255c215 0 323 -55 323 -206c0 -92 -49 -167 -153 -202l183 -247l77 -25c3 -13 3 -27 0 -40
h-198zM322 -207c29 32 38 80 38 125c0 12 -1 23 -2 34c15 2 30 3 45 3s31 -1 45 -3c5 -85 -23 -146 -89 -182c-13 3 -28 12 -37 23z" />
    <glyph glyph-name="rcommaaccent" unicode="&#x157;" horiz-adv-x="481" 
d="M117 466h-73c-3 16 -3 32 0 48l140 23c53 9 65 -15 65 -59v-13h4c38 43 88 75 167 75c18 0 36 -1 55 -5v-148c-19 -4 -36 -4 -53 0l-20 64c-57 10 -122 -15 -153 -49v-344l72 -20c3 -11 3 -25 0 -38h-277c-3 13 -3 26 0 38l73 20v408zM100 -207c29 32 38 80 38 125
c0 12 -1 23 -2 34c15 2 30 3 45 3s31 -1 45 -3c5 -85 -23 -146 -89 -182c-13 3 -28 12 -37 23z" />
    <glyph glyph-name="Umacron" unicode="&#x16a;" horiz-adv-x="788" 
d="M122 655l-80 25c-3 13 -3 27 0 40h310c3 -13 3 -27 0 -40l-94 -25v-361c0 -151 42 -223 169 -223c119 0 169 80 169 224v360l-91 25c-3 13 -3 27 0 40h244c3 -13 3 -27 0 -40l-80 -24v-352c0 -197 -73 -314 -273 -314c-209 0 -274 109 -274 314v351zM562 790h-293
c-2 12 -3 26 -3 38c0 13 1 25 3 38h293c2 -13 3 -25 3 -38s-1 -26 -3 -38z" />
    <glyph glyph-name="umacron" unicode="&#x16b;" horiz-adv-x="675" 
d="M438 133v333h-73c-3 16 -3 32 0 48l141 23c52 8 64 -15 64 -59v-419h72c3 -16 3 -33 0 -48l-132 -21c-37 -6 -72 9 -72 68v9h-4c-45 -49 -106 -77 -174 -77c-139 0 -160 103 -160 235v241h-73c-3 16 -3 32 0 48l140 23c52 9 65 -15 65 -59v-249c0 -74 4 -153 86 -153
c44 0 89 23 120 57zM477 620h-293c-2 12 -3 26 -3 38c0 13 1 25 3 38h293c2 -13 3 -25 3 -38c0 -12 -1 -26 -3 -38z" />
    <glyph glyph-name="Uogonek" unicode="&#x172;" horiz-adv-x="788" 
d="M122 655l-80 25c-3 13 -3 27 0 40h310c3 -13 3 -27 0 -40l-94 -25v-361c0 -151 42 -223 169 -223c119 0 169 80 169 224v360l-91 25c-3 13 -3 27 0 40h244c3 -13 3 -27 0 -40l-80 -24v-352c0 -158 -47 -264 -168 -301c-5 -18 -7 -39 -7 -58c0 -45 17 -86 66 -86
c14 0 28 4 42 11c10 -16 15 -33 17 -50c-21 -17 -54 -26 -87 -26c-77 0 -113 51 -113 121c0 26 5 53 13 77c-11 -1 -24 -2 -36 -2c-209 0 -274 109 -274 314v351z" />
    <glyph glyph-name="uogonek" unicode="&#x173;" horiz-adv-x="675" 
d="M438 133v333h-73c-3 16 -3 32 0 48l141 23c52 8 64 -15 64 -59v-419h72c3 -16 3 -33 0 -48l-115 -18c-3 -13 -4 -29 -4 -44c0 -45 14 -90 66 -90c14 0 28 4 42 11c10 -16 15 -33 17 -50c-21 -17 -54 -26 -87 -26c-77 0 -113 51 -113 121c0 28 6 57 15 82
c-15 10 -25 29 -25 61v9h-4c-45 -49 -106 -77 -174 -77c-139 0 -160 103 -160 235v241h-73c-3 16 -3 32 0 48l140 23c52 9 65 -15 65 -59v-249c0 -74 4 -153 86 -153c44 0 89 23 120 57z" />
    <glyph glyph-name="afii10023" unicode="&#x401;" horiz-adv-x="674" 
d="M131 65v590l-91 25c-3 13 -3 27 0 40h573v-163c-19 -4 -38 -4 -56 0l-34 91h-256v-237h185l25 62c14 3 30 3 45 0v-214c-15 -3 -31 -3 -45 0l-25 80h-185v-267h275l35 96c18 4 37 4 55 0v-168h-592c-3 13 -3 27 0 40zM299 789c-19 -2 -37 -3 -55 -3s-37 1 -55 3
c-2 18 -3 36 -3 54s1 37 3 55c18 2 37 3 55 3s36 -1 55 -3c2 -18 3 -37 3 -55s-1 -36 -3 -54zM521 789c-19 -2 -37 -3 -55 -3s-37 1 -55 3c-2 18 -3 36 -3 54s1 37 3 55c18 2 37 3 55 3s36 -1 55 -3c2 -18 3 -37 3 -55s-1 -36 -3 -54z" />
    <glyph glyph-name="afii10051" unicode="&#x402;" horiz-adv-x="783" 
d="M218 65v583h-103l-41 -108c-17 -4 -38 -4 -56 0v180h610v-180c-18 -4 -38 -4 -55 0l-41 108h-178v-244c43 13 97 23 149 23c176 0 238 -108 238 -269c0 -121 -52 -320 -294 -320c-6 12 -10 26 -10 44c143 14 165 174 165 262c0 141 -37 207 -150 207
c-34 0 -68 -5 -98 -13v-273l84 -25c3 -13 3 -27 0 -40h-310c-3 13 -3 27 0 40z" />
    <glyph glyph-name="afii10052" unicode="&#x403;" horiz-adv-x="612" 
d="M504 648h-237v-583l90 -25c3 -13 3 -27 0 -40h-317c-3 13 -3 27 0 40l91 25v590l-91 25c-3 13 -3 27 0 40h561v-180c-18 -4 -38 -4 -55 0zM268 822l181 113c19 -24 33 -53 42 -81l-196 -84c-12 14 -22 33 -27 52z" />
    <glyph glyph-name="afii10053" unicode="&#x404;" horiz-adv-x="682" 
d="M534 83l48 128c18 4 37 4 56 0v-157c-66 -41 -155 -64 -243 -64c-214 0 -348 130 -348 370c0 238 157 370 376 370c76 0 152 -17 210 -51v-153c-19 -4 -38 -4 -56 0l-45 115c-28 12 -59 18 -92 18c-160 0 -238 -103 -252 -250l360 9c2 -13 3 -27 3 -40s-1 -26 -3 -39
l-362 8c4 -171 79 -282 250 -282c33 0 69 6 98 18z" />
    <glyph glyph-name="afii10054" unicode="&#x405;" horiz-adv-x="619" 
d="M48 51v158c18 4 38 4 56 0l48 -130c29 -8 66 -14 105 -14c91 0 188 30 188 123c0 164 -392 53 -392 327c0 153 133 215 275 215c81 0 161 -20 220 -51v-153c-18 -4 -37 -4 -55 0l-45 117c-27 9 -61 15 -96 15c-82 0 -168 -31 -168 -118c0 -171 394 -63 394 -321
c0 -160 -152 -229 -305 -229c-84 0 -168 22 -225 61z" />
    <glyph glyph-name="afii10055" unicode="&#x406;" horiz-adv-x="397" 
d="M131 655l-91 25c-3 13 -3 27 0 40h317c3 -13 3 -27 0 -40l-90 -25v-590l90 -25c3 -13 3 -27 0 -40h-317c-3 13 -3 27 0 40l91 25v590z" />
    <glyph glyph-name="afii10056" unicode="&#x407;" horiz-adv-x="398" 
d="M128 655l-91 25c-3 13 -3 27 0 40h317c3 -13 3 -27 0 -40l-90 -25v-590l90 -25c3 -13 3 -27 0 -40h-317c-3 13 -3 27 0 40l91 25v590zM140 789c-19 -2 -37 -3 -55 -3s-37 1 -55 3c-2 18 -3 36 -3 54s1 37 3 55c18 2 37 3 55 3s36 -1 55 -3c2 -18 3 -37 3 -55
s-1 -36 -3 -54zM362 789c-19 -2 -37 -3 -55 -3s-37 1 -55 3c-2 18 -3 36 -3 54s1 37 3 55c18 2 37 3 55 3s36 -1 55 -3c2 -18 3 -37 3 -55s-1 -36 -3 -54z" />
    <glyph glyph-name="afii10057" unicode="&#x408;" horiz-adv-x="398" 
d="M130 76v579l-91 25c-3 13 -3 27 0 40h317c3 -13 3 -27 0 -40l-90 -25v-617c0 -129 -100 -200 -244 -200c-7 14 -10 28 -11 44c102 21 119 90 119 194z" />
    <glyph glyph-name="afii10058" unicode="&#x409;" horiz-adv-x="987" 
d="M14 -5v182c17 4 37 4 55 0l26 -76c120 86 135 387 140 554l-90 25c-3 13 -3 27 0 40h570c3 -13 3 -27 0 -40l-91 -25v-231h23c214 0 309 -57 309 -207c0 -147 -95 -217 -322 -217h-236c-3 13 -3 27 0 40l90 25v583h-179c-14 -395 -83 -631 -290 -658zM815 212
c0 114 -65 140 -191 140v-280c126 0 191 25 191 140z" />
    <glyph glyph-name="afii10059" unicode="&#x40a;" horiz-adv-x="1066" 
d="M267 352v-287l80 -25c3 -13 3 -27 0 -40h-307c-3 13 -3 27 0 40l91 25v590l-91 25c-3 13 -3 27 0 40h307c3 -13 3 -27 0 -40l-80 -25v-231h299v231l-81 25c-3 13 -3 27 0 40h307c3 -13 3 -27 0 -40l-90 -25v-231h24c213 0 309 -57 309 -207c0 -147 -96 -217 -325 -217
h-225c-3 13 -3 27 0 40l81 25v287h-299zM894 212c0 115 -66 140 -192 140v-280c126 0 192 25 192 140z" />
    <glyph glyph-name="afii10060" unicode="&#x40b;" horiz-adv-x="833" 
d="M218 65v583h-103l-41 -108c-18 -4 -38 -4 -56 0v180h610v-180c-18 -4 -37 -4 -55 0l-41 108h-178v-244c51 14 98 23 153 23c115 0 220 -46 220 -208v-154l91 -25c3 -12 3 -27 0 -40h-227v175c0 119 -19 176 -130 176c-39 0 -75 -5 -107 -13v-273l84 -25
c3 -13 3 -27 0 -40h-310c-3 13 -3 27 0 40z" />
    <glyph glyph-name="afii10062" unicode="&#x40e;" horiz-adv-x="714" 
d="M114 -9v161c17 4 37 4 55 0l31 -81c59 4 102 38 141 103l-248 482l-79 24c-3 14 -3 27 0 40h319c3 -13 3 -27 0 -40l-88 -25l165 -323h4l138 324l-86 24c-3 13 -3 27 0 40h244c3 -13 3 -27 0 -40l-79 -25l-168 -391c-77 -178 -148 -274 -309 -275c-13 0 -30 1 -40 2z
M236 922c10 2 26 4 41 4s29 -2 39 -4c6 -44 21 -84 74 -84s69 41 74 84c10 2 25 4 40 4s30 -2 40 -4c-6 -96 -69 -145 -154 -145c-92 0 -148 50 -154 145z" />
    <glyph glyph-name="afii10145" unicode="&#x40f;" horiz-adv-x="832" 
d="M385 -143l-31 143h-314c-3 13 -3 27 0 40l91 25v590l-91 25c-3 13 -3 27 0 40h314c3 -13 3 -27 0 -40l-87 -25v-583h299v583l-88 25c-3 13 -3 27 0 40h314c3 -13 3 -27 0 -40l-90 -25v-590l90 -25c3 -13 3 -27 0 -40h-315l-30 -143c-11 -2 -21 -3 -31 -3s-21 1 -31 3z
" />
    <glyph glyph-name="afii10017" unicode="&#x410;" horiz-adv-x="805" 
d="M564 65l-59 157h-273l-60 -157l91 -25c3 -13 3 -27 0 -40h-248c-3 13 -3 27 0 40l79 24l249 656h119l248 -656l80 -24c3 -13 3 -26 0 -40h-317c-3 13 -3 27 0 40zM366 577l-107 -283h218l-106 283h-5z" />
    <glyph glyph-name="afii10018" unicode="&#x411;" horiz-adv-x="692" 
d="M496 648h-229v-215h39c200 0 341 -35 341 -205c0 -184 -147 -228 -341 -228h-266c-3 14 -3 28 0 40l91 25v590l-91 25c-3 13 -3 27 0 40h553v-180c-19 -4 -38 -4 -56 0zM267 362v-290h38c139 0 202 40 202 146c0 107 -63 144 -202 144h-38z" />
    <glyph glyph-name="afii10019" unicode="&#x412;" horiz-adv-x="689" 
d="M465 534c0 79 -47 114 -149 114h-49v-234h53c104 0 145 43 145 120zM331 342h-64v-270h59c102 0 182 23 182 134c0 110 -74 136 -177 136zM40 40l91 25v590l-91 25c-3 13 -3 27 0 40h281c133 0 286 -24 286 -174c0 -80 -51 -140 -131 -156v-4c98 -6 174 -70 174 -170
c0 -164 -151 -216 -310 -216h-300c-3 13 -3 27 0 40z" />
    <glyph glyph-name="afii10020" unicode="&#x413;" horiz-adv-x="612" 
d="M504 648h-237v-583l90 -25c3 -13 3 -27 0 -40h-317c-3 13 -3 27 0 40l91 25v590l-91 25c-3 13 -3 27 0 40h561v-180c-18 -4 -38 -4 -55 0z" />
    <glyph glyph-name="afii10021" unicode="&#x414;" horiz-adv-x="759" 
d="M14 71h65c134 121 145 423 150 584l-90 25c-3 13 -3 27 0 40h578c3 -13 3 -27 0 -40l-89 -25v-584h89v-214c-11 -2 -21 -3 -31 -3s-21 1 -31 3l-51 143h-478l-51 -143c-10 -2 -21 -3 -31 -3s-20 1 -30 3v214zM492 648h-189c-10 -279 -38 -456 -126 -573v-4h315v577z" />
    <glyph glyph-name="afii10022" unicode="&#x415;" horiz-adv-x="674" 
d="M131 65v590l-91 25c-3 13 -3 27 0 40h573v-163c-19 -4 -38 -4 -56 0l-34 91h-256v-237h185l25 62c14 3 30 3 45 0v-214c-15 -3 -31 -3 -45 0l-25 80h-185v-267h275l35 96c18 4 37 4 55 0v-168h-592c-3 13 -3 27 0 40z" />
    <glyph glyph-name="afii10024" unicode="&#x416;" horiz-adv-x="1127" 
d="M1121 0h-203l-274 361l248 302l-61 17c-3 12 -3 26 0 40h254c3 -13 3 -27 0 -40l-105 -28l-201 -244l258 -343l84 -25c3 -12 3 -27 0 -40zM716 680l-84 -25v-590l84 -25c3 -13 3 -27 0 -40h-304c-3 13 -3 28 0 40l84 25v590l-84 25c-3 13 -3 27 0 40h304
c3 -13 3 -27 0 -40zM209 0h-203c-3 13 -3 27 0 40l84 25l259 343l-201 244l-105 28c-3 13 -3 27 0 40h254c3 -14 3 -28 0 -40l-61 -17l248 -302z" />
    <glyph glyph-name="afii10025" unicode="&#x417;" horiz-adv-x="621" 
d="M67 534v151c57 25 151 45 233 45c123 0 255 -39 255 -175c0 -88 -57 -154 -147 -167v-5c97 -12 166 -66 166 -172c0 -159 -148 -221 -298 -221c-85 0 -170 20 -230 53v159c18 4 38 4 55 0l46 -124c30 -8 65 -13 100 -13c94 0 187 36 187 147c0 106 -79 129 -180 129h-70
c-2 11 -3 23 -3 34c0 12 1 24 3 36h62c108 0 170 50 170 132c0 83 -79 114 -156 114c-35 0 -70 -6 -97 -17l-40 -106c-18 -4 -38 -4 -56 0z" />
    <glyph glyph-name="afii10026" unicode="&#x418;" horiz-adv-x="847" 
d="M267 136v-71l87 -25c3 -13 3 -27 0 -40h-314c-3 13 -3 28 0 40l91 25v590l-91 25c-3 13 -3 27 0 40h314c3 -13 3 -27 0 -40l-87 -25v-408h4l310 341v67l-88 25c-3 13 -3 27 0 40h314c3 -13 3 -27 0 -40l-90 -25v-590l90 -25c3 -12 3 -27 0 -40h-314c-3 13 -3 27 0 40
l88 25v413h-4z" />
    <glyph glyph-name="afii10027" unicode="&#x419;" horiz-adv-x="847" 
d="M267 136v-71l87 -25c3 -13 3 -27 0 -40h-314c-3 13 -3 28 0 40l91 25v590l-91 25c-3 13 -3 27 0 40h314c3 -13 3 -27 0 -40l-87 -25v-408h4l310 341v67l-88 25c-3 13 -3 27 0 40h314c3 -13 3 -27 0 -40l-90 -25v-590l90 -25c3 -12 3 -27 0 -40h-314c-3 13 -3 27 0 40
l88 25v413h-4zM269 922c10 2 26 4 41 4s29 -2 39 -4c6 -44 21 -84 74 -84s69 41 74 84c10 2 25 4 40 4s30 -2 40 -4c-6 -96 -69 -145 -154 -145c-92 0 -148 50 -154 145z" />
    <glyph glyph-name="afii10028" unicode="&#x41a;" horiz-adv-x="773" 
d="M766 0h-202l-285 361l258 302l-61 17c-3 12 -3 26 0 40h254c3 -13 3 -27 0 -40l-105 -28l-211 -244l268 -343l84 -25c3 -13 3 -27 0 -40zM357 680l-90 -25v-590l90 -25c3 -13 3 -27 0 -40h-317c-3 13 -3 27 0 40l91 25v590l-91 25c-3 13 -3 27 0 40h317
c3 -13 3 -27 0 -40z" />
    <glyph glyph-name="afii10029" unicode="&#x41b;" horiz-adv-x="764" 
d="M19 -10l-5 5v182c17 4 37 4 55 0l26 -76c120 86 134 387 140 554l-90 25c-3 13 -3 27 0 40h579c3 -13 3 -27 0 -40l-91 -25v-590l91 -25c3 -13 3 -27 0 -40h-317c-3 13 -3 27 0 40l90 25v583h-188c-14 -395 -83 -631 -290 -658z" />
    <glyph glyph-name="afii10030" unicode="&#x41c;" horiz-adv-x="1047" 
d="M521 176l218 544h241c3 -13 3 -27 0 -40l-91 -25l28 -590l91 -25c3 -12 3 -27 0 -40h-318c-3 13 -3 27 0 40l90 25l-23 493h-4l-225 -558h-92l-205 558h-4l-43 -493l91 -25c3 -12 3 -27 0 -40h-245c-3 13 -3 27 0 40l80 24l53 591l-91 25c-3 13 -3 27 0 40h246l199 -544
h4z" />
    <glyph glyph-name="afii10031" unicode="&#x41d;" horiz-adv-x="842" 
d="M267 342v-277l87 -25c3 -13 3 -27 0 -40h-314c-3 13 -3 27 0 40l91 25v590l-91 25c-3 13 -3 27 0 40h314c3 -13 3 -27 0 -40l-87 -25v-241h309v241l-88 25c-3 13 -3 27 0 40h314c3 -13 3 -27 0 -40l-90 -25v-590l90 -25c3 -12 3 -27 0 -40h-314c-3 13 -3 27 0 40l88 25
v277h-309z" />
    <glyph glyph-name="afii10032" unicode="&#x41e;" horiz-adv-x="765" 
d="M47 360c0 239 113 370 336 370c225 0 335 -131 335 -370c0 -243 -110 -370 -335 -370c-223 0 -336 127 -336 370zM578 360c0 175 -49 298 -195 298c-144 0 -197 -123 -197 -298s53 -298 197 -298c146 0 195 123 195 298z" />
    <glyph glyph-name="afii10033" unicode="&#x41f;" horiz-adv-x="832" 
d="M131 655l-91 25c-3 13 -3 27 0 40h752c3 -13 3 -27 0 -40l-90 -25v-590l90 -25c3 -13 3 -27 0 -40h-314c-3 13 -3 27 0 40l88 25v583h-299v-583l87 -25c3 -12 3 -27 0 -40h-314c-3 13 -3 27 0 40l91 25v590z" />
    <glyph glyph-name="afii10034" unicode="&#x420;" horiz-adv-x="657" 
d="M481 491c0 103 -59 157 -185 157h-29v-319h24c127 0 190 62 190 162zM297 257h-30v-192l90 -25c3 -12 3 -27 0 -40h-317c-3 13 -3 27 0 40l91 25v590l-91 25c-3 13 -3 27 0 40h255c217 0 323 -69 323 -221c0 -133 -101 -242 -321 -242z" />
    <glyph glyph-name="afii10035" unicode="&#x421;" horiz-adv-x="685" 
d="M537 82l49 129c18 4 37 4 55 0v-157c-68 -41 -159 -64 -248 -64c-213 0 -346 135 -346 371c0 230 149 369 372 369c79 0 158 -18 217 -52v-153c-18 -4 -37 -4 -55 0l-46 115c-29 12 -63 18 -99 18c-179 0 -250 -131 -250 -298c0 -176 74 -295 249 -295c36 0 72 6 102 17z
" />
    <glyph glyph-name="afii10036" unicode="&#x422;" horiz-adv-x="649" 
d="M538 648h-145v-583l90 -25c3 -12 3 -27 0 -40h-317c-3 13 -3 27 0 40l90 25v583h-145l-42 -108c-18 -4 -37 -4 -55 0v180h621v-180c-18 -4 -37 -4 -55 0z" />
    <glyph glyph-name="afii10037" unicode="&#x423;" horiz-adv-x="714" 
d="M114 -9v161c17 4 37 4 55 0l31 -81c59 4 102 38 141 103l-248 482l-79 24c-3 14 -3 27 0 40h319c3 -13 3 -27 0 -40l-88 -25l165 -323h4l138 324l-86 24c-3 13 -3 27 0 40h244c3 -13 3 -27 0 -40l-79 -25l-168 -391c-77 -178 -148 -274 -309 -275c-13 0 -30 1 -40 2z" />
    <glyph glyph-name="afii10038" unicode="&#x424;" horiz-adv-x="837" 
d="M179 361c0 -111 45 -182 172 -197v393c-127 -14 -172 -87 -172 -196zM658 361c0 109 -44 182 -171 197v-394c127 14 171 86 171 197zM351 614v41l-91 25c-3 13 -3 27 0 40h317c3 -13 3 -27 0 -40l-90 -25v-41c217 -14 311 -101 311 -253c0 -155 -94 -239 -311 -254v-42
l90 -25c3 -13 3 -27 0 -40h-317c-3 13 -3 27 0 40l91 25v43c-209 15 -312 100 -312 253c0 152 103 238 312 253z" />
    <glyph glyph-name="afii10039" unicode="&#x425;" horiz-adv-x="746" 
d="M341 298l-159 -234l88 -24c3 -13 3 -27 0 -40h-255c-3 13 -3 27 0 40l77 23l207 302l-186 291l-78 24c-3 14 -3 27 0 40h320c3 -13 3 -27 0 -40l-81 -25l131 -204l140 204l-80 25c-3 13 -3 27 0 40h247c3 -13 3 -27 0 -40l-77 -23l-187 -273l205 -321l78 -23
c3 -13 3 -27 0 -40h-329c-3 13 -3 27 0 40l89 25z" />
    <glyph glyph-name="afii10040" unicode="&#x426;" horiz-adv-x="832" 
d="M680 0h-640c-3 13 -3 27 0 40l91 25v590l-91 25c-3 13 -3 27 0 40h314c3 -13 3 -27 0 -40l-87 -25v-583h299v583l-88 25c-3 13 -3 27 0 40h314c3 -13 3 -27 0 -40l-90 -25v-584h90v-214c-10 -2 -21 -3 -31 -3s-21 1 -30 3z" />
    <glyph glyph-name="afii10041" unicode="&#x427;" horiz-adv-x="778" 
d="M97 478v177l-90 25c-3 13 -3 27 0 40h306c3 -13 3 -27 0 -40l-80 -25v-135c0 -125 45 -179 159 -179c42 0 88 6 119 14v300l-80 25c-3 13 -3 27 0 40h307c3 -13 3 -27 0 -40l-91 -25v-590l91 -25c3 -12 3 -27 0 -40h-317c-3 13 -3 27 0 40l90 25v222
c-46 -14 -103 -23 -158 -23c-134 0 -256 50 -256 214z" />
    <glyph glyph-name="afii10042" unicode="&#x428;" horiz-adv-x="1111" 
d="M1071 0h-1031c-3 13 -3 27 0 40l91 25v590l-91 25c-3 13 -3 27 0 40h301c3 -13 3 -27 0 -40l-74 -25v-583h221v583l-74 25c-3 13 -3 27 0 40h284c3 -13 3 -27 0 -40l-74 -25v-583h221v583l-74 25c-3 13 -3 27 0 40h300c3 -13 3 -27 0 -40l-90 -25v-590l90 -25
c3 -13 3 -27 0 -40z" />
    <glyph glyph-name="afii10043" unicode="&#x429;" horiz-adv-x="1111" 
d="M1009 -143l-51 143h-918c-3 13 -3 27 0 40l91 25v590l-91 25c-3 13 -3 27 0 40h301c3 -13 3 -27 0 -40l-74 -25v-583h221v583l-74 25c-3 13 -3 27 0 40h284c3 -13 3 -27 0 -40l-74 -25v-583h221v583l-74 25c-3 13 -3 27 0 40h300c3 -13 3 -27 0 -40l-90 -25v-584h90v-214
c-11 -2 -21 -3 -31 -3s-22 1 -31 3z" />
    <glyph glyph-name="afii10044" unicode="&#x42a;" horiz-adv-x="729" 
d="M230 650h-115l-41 -110c-18 -4 -38 -4 -56 0v180h439c3 -13 3 -27 0 -40l-91 -25v-231h23c214 0 309 -56 309 -206c0 -147 -95 -218 -324 -218h-234c-3 13 -3 27 0 40l90 25v585zM557 212c0 114 -65 140 -191 140v-280c126 0 191 25 191 140z" />
    <glyph glyph-name="afii10045" unicode="&#x42b;" horiz-adv-x="955" 
d="M131 655l-91 25c-3 13 -3 27 0 40h317c3 -13 3 -27 0 -40l-90 -25v-231h23c214 0 309 -56 309 -206c0 -147 -95 -218 -319 -218h-240c-3 13 -3 28 0 40l91 25v590zM458 212c0 114 -66 140 -191 140v-280c125 0 191 25 191 140zM689 655l-91 25c-3 13 -3 27 0 40h317
c3 -13 3 -27 0 -40l-90 -25v-590l90 -25c3 -13 3 -27 0 -40h-317c-3 13 -3 27 0 40l91 25v590z" />
    <glyph glyph-name="afii10046" unicode="&#x42c;" horiz-adv-x="630" 
d="M131 655l-91 25c-3 13 -3 27 0 40h317c3 -13 3 -27 0 -40l-90 -25v-231h23c214 0 309 -56 309 -206c0 -147 -95 -218 -319 -218h-240c-3 13 -3 28 0 40l91 25v590zM458 212c0 114 -66 140 -191 140v-280c125 0 191 25 191 140z" />
    <glyph glyph-name="afii10047" unicode="&#x42d;" horiz-adv-x="681" 
d="M99 205l49 -128c27 -10 59 -14 87 -14c178 0 256 115 260 284l-361 -8c-2 13 -3 27 -3 40s1 26 3 39l359 -9c-11 149 -85 249 -239 249c-35 0 -70 -7 -103 -22l-46 -117c-18 -4 -37 -4 -55 0v153c64 38 145 58 222 58c233 0 363 -142 363 -361
c0 -230 -131 -379 -362 -379c-84 0 -167 20 -229 58v157c19 4 37 4 55 0z" />
    <glyph glyph-name="afii10048" unicode="&#x42e;" horiz-adv-x="1077" 
d="M891 360c0 175 -48 298 -178 298c-129 0 -179 -123 -179 -298s50 -298 179 -298c130 0 178 123 178 298zM131 65v590l-91 25c-3 13 -3 27 0 40h317c3 -13 3 -27 0 -40l-90 -25v-241h129c14 205 122 316 317 316c213 0 318 -131 318 -370c0 -243 -105 -370 -318 -370
c-207 0 -313 121 -319 354h-127v-279l90 -25c3 -13 3 -27 0 -40h-317c-3 13 -3 27 0 40z" />
    <glyph glyph-name="afii10049" unicode="&#x42f;" horiz-adv-x="743" 
d="M476 65v226h-23c-31 0 -46 -20 -73 -57l-170 -234h-202c-3 13 -3 27 0 40l81 25l136 185c19 26 47 53 91 61v4c-147 7 -200 95 -200 186c0 149 114 219 331 219h255c3 -13 3 -27 0 -40l-90 -25v-590l90 -25c3 -12 3 -27 0 -40h-310c-3 13 -3 27 0 40zM256 501
c0 -104 62 -143 191 -143h29v290h-34c-126 0 -186 -44 -186 -147z" />
    <glyph glyph-name="afii10065" unicode="&#x430;" horiz-adv-x="611" 
d="M511 361v-302h73c3 -16 3 -33 0 -48l-132 -21c-38 -6 -73 9 -73 68v9h-4c-41 -52 -101 -77 -167 -77c-93 0 -161 54 -161 154c0 167 191 177 332 178v51c0 80 -61 99 -126 99c-31 0 -63 -4 -89 -9l-28 -89c-18 -4 -35 -4 -53 0v125c67 23 146 41 213 41
c119 0 215 -44 215 -179zM379 135v132h-19c-72 0 -179 -17 -179 -117c0 -56 32 -81 74 -81c46 0 98 29 124 66z" />
    <glyph glyph-name="afii10066" unicode="&#x431;" horiz-adv-x="605" 
d="M430 253c0 143 -46 196 -120 196c-73 0 -119 -54 -119 -196c0 -141 46 -197 119 -197c72 0 120 56 120 197zM564 253c0 -170 -87 -263 -254 -263c-206 0 -255 148 -255 317c0 138 19 333 164 383c67 23 159 29 242 33l15 36c13 3 25 3 38 0v-137l-6 -7l-71 -2
c-184 -5 -279 -9 -311 -190l4 -1c48 64 116 93 192 93c157 0 242 -106 242 -262z" />
    <glyph glyph-name="afii10067" unicode="&#x432;" horiz-adv-x="603" 
d="M299 464h-50v-158h42c58 0 108 9 108 78c0 66 -45 80 -100 80zM427 157c0 71 -58 88 -116 88h-62v-179h52c65 0 126 15 126 91zM44 38l73 20v413l-73 21c-3 12 -3 25 0 38h278c99 0 212 -23 212 -132c0 -56 -36 -105 -104 -115v-4c86 -7 132 -58 132 -120
c0 -114 -105 -159 -245 -159h-273c-3 12 -3 25 0 38z" />
    <glyph glyph-name="afii10068" unicode="&#x433;" horiz-adv-x="504" 
d="M407 462h-158v-404l72 -20c3 -12 3 -25 0 -38h-277c-3 13 -3 26 0 38l73 20v414l-73 20c-3 12 -3 25 0 38h443v-152c-18 -4 -36 -4 -52 0z" />
    <glyph glyph-name="afii10069" unicode="&#x434;" horiz-adv-x="632" 
d="M163 68h220v394h-139c-7 -173 -28 -305 -81 -394zM515 68h73v-188c-10 -2 -19 -3 -29 -3s-20 1 -29 3l-46 120h-367l-46 -120c-19 -4 -39 -4 -57 0v188h63c77 74 95 272 97 404l-72 20c-3 12 -3 25 0 38h484c3 -13 3 -26 0 -38l-71 -20v-404z" />
    <glyph glyph-name="afii10070" unicode="&#x435;" horiz-adv-x="573" 
d="M523 266h-348c0 -141 53 -209 178 -209c27 0 56 4 79 11l29 94c17 4 35 4 53 0v-123c-57 -31 -130 -49 -202 -49c-167 0 -272 92 -272 275c0 171 96 275 261 275c149 0 225 -99 225 -225c0 -14 -1 -30 -3 -49zM299 475c-77 0 -112 -70 -121 -153l216 14
c0 90 -41 139 -95 139z" />
    <glyph glyph-name="afii10072" unicode="&#x436;" horiz-adv-x="945" 
d="M943 0h-185l-207 269v5l195 200l-65 18c-3 12 -3 25 0 38h241c3 -13 3 -26 0 -38l-90 -22l-151 -156l199 -259l63 -17c3 -12 3 -25 0 -38zM188 0h-186c-3 13 -3 26 0 38l64 17l198 259l-151 156l-90 22c-3 12 -3 25 0 38h241c3 -13 3 -26 0 -38l-65 -18l196 -200v-5z
M407 58v414l-62 20c-3 12 -3 25 0 38h256c3 -13 3 -26 0 -38l-62 -20v-414l66 -20c3 -13 3 -25 0 -38h-264c-3 13 -3 26 0 38z" />
    <glyph glyph-name="afii10073" unicode="&#x437;" horiz-adv-x="516" 
d="M93 161l27 -86c27 -11 64 -18 99 -18c63 0 122 24 122 101c0 83 -89 85 -115 85h-78c-2 11 -3 22 -3 32c0 11 1 22 3 34h57c60 0 122 15 122 90c0 60 -52 75 -105 75c-37 0 -75 -8 -94 -14l-27 -85c-17 -4 -35 -4 -53 0v122c54 21 134 43 207 43c95 0 206 -33 206 -138
c0 -62 -43 -108 -105 -120v-4c76 -12 119 -58 119 -125c0 -120 -120 -163 -234 -163c-75 0 -133 14 -201 47v124c19 4 37 4 53 0z" />
    <glyph glyph-name="afii10074" unicode="&#x438;" horiz-adv-x="715" 
d="M253 215l213 201v56l-65 20c-3 12 -3 25 0 38h269c3 -13 3 -26 0 -38l-72 -20v-414l72 -20c3 -12 3 -25 0 -38h-269c-3 13 -3 26 0 38l65 20v260h-4l-213 -201v-59l65 -20c3 -12 3 -25 0 -38h-270c-3 12 -3 25 0 38l73 20v414l-73 20c-3 12 -3 25 0 38h270
c3 -13 3 -26 0 -38l-65 -20v-256z" />
    <glyph glyph-name="afii10075" unicode="&#x439;" horiz-adv-x="715" 
d="M253 215l213 201v56l-65 20c-3 12 -3 25 0 38h269c3 -13 3 -26 0 -38l-72 -20v-414l72 -20c3 -12 3 -25 0 -38h-269c-3 13 -3 26 0 38l65 20v260h-4l-213 -201v-59l65 -20c3 -12 3 -25 0 -38h-270c-3 12 -3 25 0 38l73 20v414l-73 20c-3 12 -3 25 0 38h270
c3 -13 3 -26 0 -38l-65 -20v-256zM211 744c9 2 23 4 37 4c13 0 28 -2 37 -4c6 -46 20 -87 72 -87s66 41 72 87c9 2 23 4 36 4c14 0 29 -2 38 -4c-2 -87 -57 -149 -146 -149s-144 62 -146 149z" />
    <glyph glyph-name="afii10076" unicode="&#x43a;" horiz-adv-x="658" 
d="M44 38l73 20v414l-73 20c-3 12 -3 25 0 38h270c3 -13 3 -26 0 -38l-65 -20v-414l65 -20c3 -12 3 -25 0 -38h-270c-3 12 -3 25 0 38zM656 0h-186l-209 269v5l197 201l-64 17c-3 12 -3 25 0 38h241c3 -13 3 -26 0 -38l-90 -22l-153 -156l201 -259l63 -17c3 -11 3 -25 0 -38
z" />
    <glyph glyph-name="afii10077" unicode="&#x43b;" horiz-adv-x="647" 
d="M188 472l-72 20c-3 12 -3 25 0 38h485c3 -13 3 -26 0 -38l-71 -20v-414l72 -20c3 -12 3 -25 0 -38h-277c-3 13 -3 26 0 38l73 20v404h-140c-12 -289 -50 -464 -237 -472l-7 6v141c19 4 36 4 53 0l19 -62c85 34 99 257 102 397z" />
    <glyph glyph-name="afii10078" unicode="&#x43c;" horiz-adv-x="857" 
d="M812 492l-72 -20v-414l72 -20c3 -12 3 -25 0 -38h-277c-3 12 -3 26 0 38l73 20v362h-4l-188 -420h-84l-130 419h-4l-36 -363l66 -18c3 -12 3 -25 0 -38h-200c-3 13 -3 26 0 38l68 19l40 415l-72 20c-3 12 -3 25 0 38h241l110 -358h5l157 358h235c3 -13 3 -26 0 -38z" />
    <glyph glyph-name="afii10079" unicode="&#x43d;" horiz-adv-x="710" 
d="M461 247h-212v-189l65 -20c3 -12 3 -25 0 -38h-270c-3 13 -3 25 0 38l73 20v414l-73 20c-3 12 -3 25 0 38h270c3 -13 3 -26 0 -38l-65 -20v-157h212v157l-65 20c-3 12 -3 25 0 38h269c3 -13 3 -26 0 -38l-72 -20v-414l72 -20c3 -12 3 -25 0 -38h-269c-3 13 -3 26 0 38
l65 20v189z" />
    <glyph glyph-name="afii10080" unicode="&#x43e;" horiz-adv-x="601" 
d="M427 265c0 149 -52 209 -126 209c-75 0 -126 -60 -126 -209s51 -209 126 -209c74 0 126 60 126 209zM561 265c0 -176 -91 -275 -260 -275c-170 0 -261 99 -261 275c0 173 91 275 261 275c169 0 260 -102 260 -275z" />
    <glyph glyph-name="afii10081" unicode="&#x43f;" horiz-adv-x="705" 
d="M456 462h-207v-404l65 -20c3 -12 3 -25 0 -38h-270c-3 12 -3 25 0 38l73 20v414l-73 20c-3 12 -3 25 0 38h616c3 -13 3 -26 0 -38l-72 -20v-414l72 -20c3 -12 3 -25 0 -38h-269c-3 13 -3 26 0 38l65 20v404z" />
    <glyph glyph-name="afii10082" unicode="&#x440;" horiz-adv-x="631" 
d="M243 397v-339c18 -4 35 -6 50 -6c110 0 164 100 164 221c0 78 -20 186 -108 186c-43 0 -80 -26 -106 -62zM111 -142v608h-73c-3 16 -3 32 0 48l140 23c54 9 65 -15 65 -59v-12h4c36 46 87 74 147 74c136 0 197 -122 197 -250c0 -166 -104 -300 -269 -300
c-26 0 -53 3 -79 10v-142l72 -20c3 -11 3 -25 0 -38h-277c-3 12 -3 26 0 38z" />
    <glyph glyph-name="afii10083" unicode="&#x441;" horiz-adv-x="528" 
d="M491 167v-128c-50 -32 -118 -49 -184 -49c-167 0 -267 92 -267 274c0 181 111 276 271 276c63 0 126 -15 175 -41v-123c-18 -4 -35 -4 -53 0l-28 89c-18 5 -38 8 -60 8c-126 0 -170 -83 -170 -209c0 -129 45 -204 173 -204c22 0 44 3 61 8l29 99c17 4 35 4 53 0z" />
    <glyph glyph-name="afii10084" unicode="&#x442;" horiz-adv-x="529" 
d="M432 462h-101v-404l72 -20c3 -12 3 -25 0 -38h-277c-3 13 -3 25 0 38l73 20v404h-102l-27 -84c-18 -4 -35 -4 -53 0v152h495v-152c-18 -4 -35 -4 -52 0z" />
    <glyph glyph-name="afii10085" unicode="&#x443;" horiz-adv-x="609" 
d="M51 -192v140c18 4 36 4 53 0l20 -64c51 -3 107 17 158 109l-217 479l-62 20c-3 12 -3 25 0 38h267c3 -13 3 -26 0 -38l-61 -20l140 -311h4l120 311l-75 20c-3 12 -3 25 0 38h211c3 -13 3 -26 0 -38l-62 -18l-147 -375c-73 -186 -140 -300 -291 -300c-20 0 -41 3 -58 9z
" />
    <glyph glyph-name="afii10086" unicode="&#x444;" horiz-adv-x="841" 
d="M354 132v341c-11 3 -21 4 -33 4c-125 0 -147 -120 -147 -219c0 -60 8 -187 91 -187c33 0 68 22 89 61zM486 398v-340c13 -4 28 -6 42 -6c112 0 139 118 139 221c0 70 -9 186 -91 186c-35 0 -65 -26 -90 -61zM486 1v-143l73 -20c3 -12 3 -25 0 -38h-277c-3 13 -3 26 0 38
l72 20v206l-4 1c-29 -50 -78 -75 -132 -75c-133 0 -178 143 -178 256c0 152 77 294 248 294c23 0 45 -4 66 -10v156h-72c-3 16 -3 32 0 48l140 22c48 8 64 -13 64 -59v-231h4c32 44 75 74 133 74c136 0 178 -132 178 -250c0 -155 -79 -301 -248 -301c-22 0 -46 4 -67 12z
" />
    <glyph glyph-name="afii10087" unicode="&#x445;" horiz-adv-x="591" 
d="M226 258l-152 218l-52 16c-3 12 -3 25 0 38h267c3 -13 3 -26 0 -38l-56 -16l93 -132l99 131l-57 17c-3 12 -3 25 0 38h201c3 -12 3 -26 0 -38l-62 -17l-142 -188l162 -231l60 -18c3 -12 3 -25 0 -38h-283c-3 12 -3 25 0 38l63 18l-101 145l-109 -144l60 -19
c3 -12 3 -25 0 -38h-213c-3 13 -3 26 0 38l70 18z" />
    <glyph glyph-name="afii10088" unicode="&#x446;" horiz-adv-x="705" 
d="M249 68h207v404l-65 20c-3 12 -3 25 0 38h269c3 -13 3 -26 0 -38l-72 -20v-404h72v-188c-20 -4 -39 -4 -57 0l-46 120h-513c-3 13 -3 25 0 38l73 20v414l-73 20c-3 12 -3 25 0 38h270c3 -13 3 -26 0 -38l-65 -20v-404z" />
    <glyph glyph-name="afii10089" unicode="&#x447;" horiz-adv-x="661" 
d="M412 267v205l-60 20c-3 12 -3 25 0 38h265c3 -13 3 -26 0 -38l-73 -20v-414l73 -20c3 -12 3 -25 0 -38h-277c-3 13 -3 26 0 38l72 20v148l-4 1c-35 -23 -88 -37 -141 -37c-121 0 -185 58 -185 198v104l-72 20c-3 12 -3 25 0 38h268c3 -13 3 -26 0 -38l-64 -20v-62
c0 -97 7 -167 99 -167c37 0 74 10 99 24z" />
    <glyph glyph-name="afii10090" unicode="&#x448;" horiz-adv-x="963" 
d="M249 68h166v404l-54 20c-3 12 -3 25 0 38h240c3 -13 3 -26 0 -38l-54 -20v-404h167v404l-54 20c-3 12 -3 25 0 38h258c3 -13 3 -26 0 -38l-72 -20v-414l72 -20c3 -12 3 -25 0 -38h-874c-3 13 -3 25 0 38l73 20v414l-73 20c-3 12 -3 25 0 38h259c3 -13 3 -26 0 -38
l-54 -20v-404z" />
    <glyph glyph-name="afii10091" unicode="&#x449;" horiz-adv-x="963" 
d="M249 68h166v404l-54 20c-3 12 -3 25 0 38h240c3 -13 3 -26 0 -38l-54 -20v-404h167v404l-54 20c-3 12 -3 25 0 38h258c3 -13 3 -26 0 -38l-72 -20v-404h72v-188c-18 -4 -40 -4 -57 0l-46 120h-771c-3 13 -3 25 0 38l73 20v414l-73 20c-3 12 -3 25 0 38h259
c3 -13 3 -26 0 -38l-54 -20v-404z" />
    <glyph glyph-name="afii10092" unicode="&#x44a;" horiz-adv-x="651" 
d="M492 162c0 82 -50 96 -160 96v-194c110 0 160 16 160 98zM127 38l73 20v404h-103l-27 -84c-18 -4 -36 -4 -53 0v152h387c3 -13 3 -26 0 -38l-72 -20v-150h34c209 0 259 -59 259 -154c0 -90 -50 -168 -266 -168h-232c-3 13 -3 26 0 38z" />
    <glyph glyph-name="afii10093" unicode="&#x44b;" horiz-adv-x="877" 
d="M556 38l72 20v414l-72 20c-3 12 -3 25 0 38h276c3 -13 3 -26 0 -38l-72 -20v-414l72 -20c3 -12 3 -25 0 -38h-276c-3 13 -3 26 0 38zM409 162c0 82 -50 96 -160 96v-194c110 0 160 16 160 98zM44 38l73 20v414l-73 20c-3 12 -3 25 0 38h277c3 -13 3 -26 0 -38l-72 -20
v-150h34c209 0 259 -59 259 -154c0 -100 -56 -168 -299 -168h-199c-3 13 -3 26 0 38z" />
    <glyph glyph-name="afii10094" unicode="&#x44c;" horiz-adv-x="568" 
d="M409 162c0 82 -50 96 -160 96v-194c110 0 160 16 160 98zM44 38l73 20v414l-73 20c-3 12 -3 25 0 38h277c3 -13 3 -26 0 -38l-72 -20v-150h34c209 0 259 -59 259 -154c0 -100 -56 -168 -299 -168h-199c-3 13 -3 26 0 38z" />
    <glyph glyph-name="afii10095" unicode="&#x44d;" horiz-adv-x="533" 
d="M37 30v125c19 4 36 4 53 0l28 -91c16 -4 33 -6 50 -6c117 0 183 61 189 184l-242 -6c-2 12 -3 24 -3 36c0 13 1 25 3 38l241 -6c-7 105 -51 169 -172 169c-20 0 -41 -3 -61 -9l-28 -87c-17 -4 -35 -4 -53 0v120c54 28 119 43 181 43c179 0 270 -107 270 -268
c0 -171 -103 -282 -281 -282c-60 0 -122 13 -175 40z" />
    <glyph glyph-name="afii10096" unicode="&#x44e;" horiz-adv-x="898" 
d="M724 265c0 149 -47 209 -116 209c-71 0 -116 -61 -116 -209c0 -147 45 -209 116 -209c69 0 116 62 116 209zM358 241h-109v-183l72 -20c3 -12 3 -25 0 -38h-277c-3 13 -3 25 0 38l73 20v414l-73 20c-3 12 -3 25 0 38h277c3 -13 3 -26 0 -38l-72 -20v-165h111
c13 147 97 233 248 233c164 0 250 -102 250 -275c0 -176 -86 -275 -250 -275c-158 0 -242 90 -250 251z" />
    <glyph glyph-name="afii10097" unicode="&#x44f;" horiz-adv-x="645" 
d="M189 0h-172c-3 13 -3 26 0 38l58 18l106 127c19 23 42 34 68 41v4c-109 6 -163 64 -163 140c0 153 160 162 324 162h190c3 -13 3 -26 0 -38l-72 -20v-414l72 -20c3 -12 3 -25 0 -38h-269c-3 13 -3 26 0 38l65 20v152h-11c-17 0 -28 -7 -52 -36zM396 464h-11
c-94 0 -165 -11 -165 -96c0 -66 40 -95 134 -95h42v191z" />
    <glyph glyph-name="afii10071" unicode="&#x451;" horiz-adv-x="573" 
d="M523 266h-348c0 -141 53 -209 178 -209c27 0 56 4 79 11l29 94c17 4 35 4 53 0v-123c-57 -31 -130 -49 -202 -49c-167 0 -272 92 -272 275c0 171 96 275 261 275c149 0 225 -99 225 -225c0 -14 -1 -30 -3 -49zM299 475c-77 0 -112 -70 -121 -153l216 14
c0 90 -41 139 -95 139zM235 623c-19 -3 -37 -4 -55 -4s-37 1 -54 4c-3 18 -4 36 -4 54s1 37 4 55c16 2 36 4 54 4s39 -2 55 -4c2 -14 4 -37 4 -55s-2 -40 -4 -54zM453 623c-19 -3 -37 -4 -55 -4s-37 1 -54 4c-3 18 -4 36 -4 54s1 37 4 55c16 2 36 4 54 4s39 -2 55 -4
c2 -14 4 -37 4 -55s-2 -40 -4 -54z" />
    <glyph glyph-name="afii10099" unicode="&#x452;" horiz-adv-x="639" 
d="M239 378v-320l66 -20c3 -12 3 -25 0 -38h-270c-3 13 -3 26 0 38l72 20v523h-72c-2 10 -2 21 0 31l72 22v52h-72c-3 16 -3 32 0 48l144 23c44 7 60 -14 60 -60v-63h136c3 -18 3 -35 0 -53h-136v-139l4 -1c38 48 90 75 149 75c158 0 195 -168 195 -303
c0 -189 -67 -402 -303 -416c-7 13 -11 27 -12 45c148 32 181 192 181 344c0 83 -5 248 -108 248c-35 0 -75 -24 -106 -56z" />
    <glyph glyph-name="afii10100" unicode="&#x453;" horiz-adv-x="504" 
d="M407 462h-158v-404l72 -20c3 -12 3 -25 0 -38h-277c-3 13 -3 26 0 38l73 20v414l-73 20c-3 12 -3 25 0 38h443v-152c-18 -4 -36 -4 -52 0zM225 620l114 161c27 -17 49 -36 69 -58l-138 -140c-17 8 -33 22 -45 37z" />
    <glyph glyph-name="afii10101" unicode="&#x454;" horiz-adv-x="533" 
d="M496 164v-126c-56 -31 -121 -48 -186 -48c-171 0 -270 90 -270 274c0 181 109 276 274 276c63 0 125 -16 177 -41v-120c-17 -4 -35 -4 -52 0l-28 86c-22 5 -44 7 -69 7c-107 0 -157 -60 -166 -168l242 6c2 -12 3 -25 3 -37s-1 -25 -3 -37l-243 6c3 -127 63 -182 174 -182
c23 0 45 2 66 7l29 97c16 4 34 4 52 0z" />
    <glyph glyph-name="afii10102" unicode="&#x455;" horiz-adv-x="504" 
d="M101 162l28 -93c23 -8 54 -13 87 -13c65 0 134 21 134 83c0 104 -299 32 -299 238c0 123 118 163 222 163c60 0 121 -14 170 -36v-120c-17 -4 -35 -4 -52 0l-27 83c-19 4 -45 7 -73 7c-58 0 -120 -15 -120 -74c0 -112 300 -38 300 -235c0 -124 -120 -175 -240 -175
c-69 0 -137 16 -183 44v128c18 4 36 4 53 0z" />
    <glyph glyph-name="afii10103" unicode="&#x456;" horiz-adv-x="354" 
d="M114 746c19 3 41 5 61 5s41 -2 60 -5c4 -19 6 -40 6 -62c0 -20 -2 -40 -6 -58c-18 -3 -39 -5 -58 -5c-21 0 -43 2 -63 5c-3 19 -5 39 -5 58c0 21 2 41 5 62zM117 58v408h-73c-3 16 -3 32 0 48l140 23c51 8 65 -13 65 -59v-420l72 -20c3 -12 3 -25 0 -38h-277
c-3 13 -3 26 0 38z" />
    <glyph glyph-name="afii10104" unicode="&#x457;" horiz-adv-x="354" 
d="M115 58v408h-73c-3 16 -3 32 0 48l140 23c51 8 65 -13 65 -59v-420l72 -20c3 -12 3 -25 0 -38h-277c-3 13 -3 26 0 38zM109 623c-19 -3 -37 -4 -55 -4s-37 1 -54 4c-3 18 -4 36 -4 54s1 37 4 55c16 2 36 4 54 4s39 -2 55 -4c2 -14 4 -37 4 -55s-2 -40 -4 -54zM327 623
c-19 -3 -37 -4 -55 -4s-37 1 -54 4c-3 18 -4 36 -4 54s1 37 4 55c16 2 36 4 54 4s39 -2 55 -4c2 -14 4 -37 4 -55s-2 -40 -4 -54z" />
    <glyph glyph-name="afii10105" unicode="&#x458;" horiz-adv-x="342" 
d="M111 20v446h-73c-3 16 -3 32 0 48l141 23c49 8 64 -13 64 -59v-485c0 -118 -83 -184 -208 -198c-10 12 -16 27 -18 43c85 36 94 91 94 182zM106 746c19 3 41 5 61 5s41 -2 60 -5c4 -19 6 -40 6 -62c0 -20 -2 -40 -6 -58c-18 -3 -39 -5 -58 -5c-21 0 -43 2 -63 5
c-3 19 -5 39 -5 58c0 21 2 41 5 62z" />
    <glyph glyph-name="afii10106" unicode="&#x459;" horiz-adv-x="843" 
d="M684 162c0 82 -50 96 -160 96v-194c110 0 160 16 160 98zM595 492l-71 -20v-150h34c209 0 259 -59 259 -154c0 -90 -50 -168 -266 -168h-232c-3 13 -3 26 0 38l73 20v404h-134c-12 -289 -50 -464 -237 -472l-7 6v141c19 4 36 4 53 0l19 -62c85 34 99 257 102 397l-72 20
c-3 12 -3 25 0 38h479c3 -13 3 -26 0 -38z" />
    <glyph glyph-name="afii10107" unicode="&#x45a;" horiz-adv-x="907" 
d="M748 162c0 82 -50 96 -160 96v-194c110 0 160 16 160 98zM393 38l63 20v199h-207v-199l63 -20c3 -12 3 -25 0 -38h-268c-3 13 -3 25 0 38l73 20v414l-73 20c-3 12 -3 25 0 38h268c3 -13 3 -26 0 -38l-63 -20v-150h207v150l-63 20c-3 12 -3 25 0 38h267c3 -13 3 -26 0 -38
l-72 -20v-150h34c209 0 259 -59 259 -154c0 -90 -50 -168 -266 -168h-222c-3 13 -3 26 0 38z" />
    <glyph glyph-name="afii10108" unicode="&#x45b;" horiz-adv-x="678" 
d="M107 58v523h-72c-2 10 -2 21 0 31l72 22v52h-72c-3 16 -3 32 0 48l145 23c45 7 59 -14 59 -59v-64h136c3 -18 3 -35 0 -53h-136v-139h4c55 54 119 75 173 75c136 0 162 -94 162 -220v-239l73 -20c3 -12 3 -24 0 -38h-270c-3 13 -3 26 0 38l65 20v217c0 71 -4 156 -88 156
c-43 0 -90 -24 -119 -52v-321l66 -20c3 -12 3 -25 0 -38h-270c-3 13 -3 26 0 38z" />
    <glyph glyph-name="afii10109" unicode="&#x45c;" horiz-adv-x="658" 
d="M44 38l73 20v414l-73 20c-3 12 -3 25 0 38h270c3 -13 3 -26 0 -38l-65 -20v-414l65 -20c3 -12 3 -25 0 -38h-270c-3 12 -3 25 0 38zM656 0h-186l-209 269v5l197 201l-64 17c-3 12 -3 25 0 38h241c3 -13 3 -26 0 -38l-90 -22l-153 -156l201 -259l63 -17c3 -11 3 -25 0 -38
zM308 620l114 161c27 -17 49 -36 69 -58l-138 -140c-17 8 -33 22 -45 37z" />
    <glyph glyph-name="afii10110" unicode="&#x45e;" horiz-adv-x="609" 
d="M51 -192v140c18 4 36 4 53 0l20 -64c51 -3 107 17 158 109l-217 479l-62 20c-3 12 -3 25 0 38h267c3 -13 3 -26 0 -38l-61 -20l140 -311h4l120 311l-75 20c-3 12 -3 25 0 38h211c3 -13 3 -26 0 -38l-62 -18l-147 -375c-73 -186 -140 -300 -291 -300c-20 0 -41 3 -58 9z
M178 744c9 2 23 4 37 4c13 0 28 -2 37 -4c6 -46 20 -87 72 -87s66 41 72 87c9 2 23 4 36 4c14 0 29 -2 38 -4c-2 -87 -57 -149 -146 -149s-144 62 -146 149z" />
    <glyph glyph-name="afii10193" unicode="&#x45f;" horiz-adv-x="705" 
d="M249 68h207v404l-65 20c-3 12 -3 25 0 38h269c3 -13 3 -26 0 -38l-72 -20v-414l72 -20c3 -12 3 -25 0 -38h-253l-26 -120c-18 -4 -39 -4 -57 0l-26 120h-254c-3 13 -3 25 0 38l73 20v414l-73 20c-3 12 -3 25 0 38h270c3 -13 3 -26 0 -38l-65 -20v-404z" />
    <glyph glyph-name="afii10050" unicode="&#x490;" horiz-adv-x="611" 
d="M593 648h-326v-583l91 -25c3 -13 3 -27 0 -40h-318c-3 13 -3 27 0 40l91 25v590l-91 25c-3 13 -3 27 0 40h463l41 108c18 4 37 4 56 0v-173z" />
    <glyph glyph-name="afii10098" unicode="&#x491;" horiz-adv-x="503" 
d="M44 530h360l29 86c17 4 36 4 53 0v-147l-7 -7h-230v-404l72 -20c3 -12 3 -25 0 -38h-277c-3 13 -3 25 0 38l73 20v414l-73 20c-3 12 -3 25 0 38z" />
    <glyph glyph-name="afii61352" unicode="&#x2116;" horiz-adv-x="1096" 
d="M1020 118h-300c-2 10 -3 21 -3 33s1 24 3 34h300c2 -10 3 -22 3 -34s-1 -23 -3 -33zM948 435c0 103 -24 142 -78 142c-55 0 -78 -41 -78 -142c0 -97 22 -138 78 -138c54 0 78 41 78 138zM1054 435c0 -127 -61 -195 -184 -195c-126 0 -184 68 -184 195
c0 125 59 199 184 199s184 -74 184 -199zM196 572h-4v-567l-5 -5h-147c-3 13 -3 27 0 40l80 24v592l-80 24c-3 13 -3 27 0 40h226l260 -512h4v507l5 5h147c3 -13 3 -27 0 -40l-80 -24v-656h-112z" />
    <glyph glyph-name="currency" unicode="&#xa4;" horiz-adv-x="609" 
d="M109 361c0 41 13 80 35 112l-113 104c14 24 33 43 57 56l104 -112c32 22 71 36 113 36s82 -14 114 -37l100 113c29 -17 48 -38 58 -57l-111 -104c21 -32 34 -70 34 -111c0 -42 -13 -81 -36 -113l113 -104c-15 -24 -34 -42 -57 -56l-102 113c-32 -23 -71 -36 -113 -36
s-81 13 -113 36l-103 -113c-22 14 -42 34 -58 57l113 103c-22 32 -35 71 -35 113zM193 361c0 -63 46 -119 112 -119s111 56 111 119s-45 119 -111 119s-112 -56 -112 -119z" />
    <glyph glyph-name="caron.cap" unicode="&#xf6ca;" horiz-adv-x="400" 
d="M356 889l-151 -119h-10l-152 119c8 18 17 32 32 46l125 -79l124 79c15 -14 25 -29 32 -46z" />
    <glyph glyph-name="acute.cap" unicode="&#xf6c9;" horiz-adv-x="400" 
d="M88 822l181 113c19 -24 33 -53 42 -81l-196 -84c-12 14 -22 33 -27 52z" />
    <glyph glyph-name="afii10061" unicode="&#x40c;" horiz-adv-x="773" 
d="M766 0h-202l-285 361l258 302l-61 17c-3 12 -3 26 0 40h254c3 -13 3 -27 0 -40l-105 -28l-211 -244l268 -343l84 -25c3 -13 3 -27 0 -40zM357 680l-90 -25v-590l90 -25c3 -13 3 -27 0 -40h-317c-3 13 -3 27 0 40l91 25v590l-91 25c-3 13 -3 27 0 40h317
c3 -13 3 -27 0 -40zM344 822l181 113c19 -24 33 -53 42 -81l-196 -84c-12 14 -22 33 -27 52z" />
    <glyph glyph-name="uni00AD" unicode="&#xad;" horiz-adv-x="406" 
d="M348 258h-290c-2 12 -3 25 -3 38c0 12 1 25 3 38h290c2 -13 3 -25 3 -38c0 -12 -1 -26 -3 -38z" />
    <glyph glyph-name="mu" unicode="&#xb5;" horiz-adv-x="673" 
d="M223 540l6 -6v-318c0 -70 11 -140 88 -140c46 0 93 28 119 57v385l126 22l6 -6v-476h69c3 -16 3 -30 0 -46l-137 -22c-38 -6 -64 12 -64 63v14h-4c-35 -42 -86 -77 -146 -77c-26 0 -52 7 -74 24h-4v-37c0 -48 6 -113 14 -151c-22 -18 -46 -23 -71 -26
c-49 85 -54 192 -54 342v376z" />
    <glyph glyph-name="divide" unicode="&#xf7;" horiz-adv-x="650" 
d="M596 236h-541c-2 11 -3 24 -3 36s1 24 3 37h541c2 -13 3 -25 3 -37s-1 -25 -3 -36zM262 139c20 2 42 4 63 4s44 -2 63 -4c3 -21 5 -42 5 -63s-2 -41 -5 -62c-20 -3 -42 -5 -63 -5s-43 2 -63 5c-3 21 -5 41 -5 62s2 42 5 63zM262 530c20 2 42 4 63 4s44 -2 63 -4
c3 -21 5 -42 5 -63s-2 -41 -5 -62c-20 -3 -42 -5 -63 -5s-43 2 -63 5c-3 21 -5 41 -5 62s2 42 5 63z" />
    <glyph glyph-name="tilde" unicode="&#x2dc;" horiz-adv-x="400" 
d="M97 601c-18 -4 -36 -4 -54 0c0 71 33 130 93 130c54 0 90 -56 130 -56c24 0 35 30 36 57c18 4 36 4 54 0c0 -68 -28 -129 -88 -129c-65 0 -97 56 -134 56c-21 0 -34 -35 -37 -58z" />
    <glyph glyph-name="uni00A0" unicode="&#xa0;" horiz-adv-x="269" 
 />
    <glyph glyph-name="grave.cap" unicode="&#xf6ce;" horiz-adv-x="400" 
d="M130 935l181 -113c-5 -19 -14 -37 -27 -52l-196 84c9 28 24 58 42 81z" />
    <glyph glyph-name="dieresis.cap" unicode="&#xf6cb;" horiz-adv-x="400" 
d="M141 789c-19 -2 -37 -3 -55 -3s-37 1 -55 3c-2 18 -3 36 -3 54s1 37 3 55c18 2 37 3 55 3s36 -1 55 -3c2 -18 3 -37 3 -55s-1 -36 -3 -54zM363 789c-19 -2 -37 -3 -55 -3s-37 1 -55 3c-2 18 -3 36 -3 54s1 37 3 55c18 2 37 3 55 3s36 -1 55 -3c2 -18 3 -37 3 -55
s-1 -36 -3 -54z" />
    <glyph glyph-name="macron.cap" unicode="&#xf6d0;" horiz-adv-x="400" 
d="M346 790h-293c-2 12 -3 26 -3 38c0 13 1 25 3 38h293c2 -13 3 -25 3 -38s-1 -26 -3 -38z" />
    <glyph glyph-name="hungarumlaut.cap" unicode="&#xf6cf;" horiz-adv-x="400" 
d="M22 811l102 124c24 -17 48 -41 64 -65l-126 -100c-16 10 -29 23 -40 41zM211 811l102 124c24 -17 48 -41 64 -65l-126 -100c-16 10 -29 23 -40 41z" />
    <glyph glyph-name="breve.cyr" unicode="&#xf6d4;" horiz-adv-x="400" 
d="M54 744c9 2 23 4 37 4c13 0 28 -2 37 -4c6 -46 20 -87 72 -87s66 41 72 87c9 2 23 4 36 4c14 0 29 -2 38 -4c-2 -87 -57 -149 -146 -149s-144 62 -146 149z" />
    <glyph glyph-name="breve.cyrcap" unicode="&#xf6d1;" horiz-adv-x="400" 
d="M46 922c10 2 26 4 41 4s29 -2 39 -4c6 -44 21 -84 74 -84s69 41 74 84c10 2 25 4 40 4s30 -2 40 -4c-6 -96 -69 -145 -154 -145c-92 0 -148 50 -154 145z" />
    <glyph glyph-name="four.superior" unicode="&#x2074;" 
d="M206 576h-181v41l215 256h68v-251h54v-46h-54v-64l54 -10v-32h-210v32l54 10v64zM90 622h116v132l-4 1l-113 -130z" />
    <glyph glyph-name="five.superior" unicode="&#x2075;" 
d="M59 492v95h36l24 -72c11 -2 22 -3 34 -3c46 0 92 18 92 82c0 56 -37 71 -87 71c-29 0 -56 -3 -82 -8l-6 5v204h263v-86h-217v-73c22 3 46 5 70 5c78 0 164 -25 164 -114c0 -97 -90 -135 -180 -135c-39 0 -79 9 -111 29z" />
    <glyph glyph-name="six.superior" unicode="&#x2076;" 
d="M203 509c40 0 55 39 55 90c0 53 -15 89 -55 89c-41 0 -54 -40 -54 -87s13 -92 54 -92zM145 709l3 -2c21 18 49 25 77 25c81 0 135 -54 135 -130c0 -90 -65 -139 -155 -139c-107 0 -158 70 -158 170c0 131 80 240 221 240c23 0 49 -4 72 -12l-6 -33c-11 2 -22 3 -34 3
c-84 0 -134 -40 -155 -122z" />
    <glyph glyph-name="seven.superior" unicode="&#x2077;" 
d="M56 866h300v-39l-194 -371l-63 34l180 283l-2 4h-175l-13 -41h-33v130z" />
    <glyph glyph-name="eight.superior" unicode="&#x2078;" 
d="M38 572c0 41 29 70 68 87v4c-33 20 -57 47 -57 90c0 81 84 120 155 120c64 0 148 -27 148 -98c0 -42 -32 -75 -72 -91v-4c59 -27 84 -55 84 -99c0 -80 -95 -118 -168 -118c-67 0 -158 29 -158 109zM138 582c0 -42 28 -73 70 -73c28 0 54 20 54 51c0 37 -62 53 -105 73
c-12 -15 -19 -33 -19 -51zM149 778c0 -42 39 -58 81 -74c15 14 25 38 25 61c0 33 -18 63 -54 63c-32 0 -52 -24 -52 -50z" />
    <glyph glyph-name="nine.superior" unicode="&#x2079;" 
d="M198 656c37 0 55 35 55 85c0 48 -16 85 -54 85c-34 0 -53 -35 -53 -84c0 -50 16 -86 52 -86zM43 736c0 79 65 137 158 137c110 0 156 -79 156 -166c0 -140 -98 -244 -236 -244c-20 0 -42 2 -60 6l5 37c83 -7 164 36 188 124l-2 3c-21 -17 -48 -24 -76 -24
c-76 0 -133 42 -133 127z" />
    <glyph glyph-name="zero.superior" unicode="&#x2070;" 
d="M34 669c0 134 66 204 167 204c102 0 167 -70 167 -204c0 -135 -61 -206 -167 -206c-105 0 -166 71 -167 206zM263 669c0 99 -18 154 -62 154c-43 0 -61 -55 -61 -154c0 -98 17 -156 61 -156s62 58 62 156z" />
    <glyph glyph-name="n.superior" unicode="&#x207f;" horiz-adv-x="486" 
d="M82 348v265h-50v37l99 17c40 7 48 -12 48 -43v-10h4c30 33 70 54 115 54c82 0 116 -60 116 -136v-184l50 -9v-33h-187v33l40 9v152c0 52 -4 99 -59 99c-28 0 -57 -13 -79 -34v-217l40 -9v-33h-187v33z" />
    <glyph glyph-name="zero.inferior" unicode="&#x2080;" 
d="M34 62c0 134 66 204 167 204c102 0 167 -70 167 -204c0 -135 -61 -206 -167 -206c-105 0 -166 71 -167 206zM263 62c0 99 -18 154 -62 154c-43 0 -61 -55 -61 -154c0 -98 17 -156 61 -156s62 58 62 156z" />
    <glyph glyph-name="one.inferior" unicode="&#x2081;" 
d="M160 -91v287h-93v37l132 28c47 10 63 -5 63 -57v-295l74 -14v-33h-249v33z" />
    <glyph glyph-name="two.inferior" unicode="&#x2082;" 
d="M165 -48h185v-90h-304v48l116 104c40 35 77 73 77 131c0 48 -32 71 -70 71c-14 0 -28 -3 -43 -9l-31 -80h-34v101c32 24 82 37 130 37c78 0 154 -35 154 -116c0 -67 -52 -102 -109 -142l-73 -51z" />
    <glyph glyph-name="three.inferior" unicode="&#x2083;" 
d="M57 136v98c32 19 81 32 133 32c76 0 149 -28 149 -98c0 -55 -43 -88 -96 -92v-4c56 -6 110 -28 110 -95c0 -87 -91 -121 -181 -121c-44 0 -89 11 -122 30v102h35l28 -77c15 -4 33 -7 51 -7c47 0 83 22 83 74c0 50 -40 67 -89 67h-31v45h28c50 0 79 16 79 69
c0 45 -31 60 -65 60c-18 0 -36 -4 -52 -10l-26 -73h-34z" />
    <glyph glyph-name="four.inferior" unicode="&#x2084;" 
d="M206 -32h-181v41l215 256h68v-251h54v-46h-54v-64l54 -10v-32h-210v32l54 10v64zM90 14h116v132l-4 1l-113 -130z" />
    <glyph glyph-name="five.inferior" unicode="&#x2085;" 
d="M59 -115v95h36l24 -72c11 -2 22 -3 34 -3c46 0 92 18 92 82c0 56 -37 71 -87 71c-29 0 -56 -3 -82 -8l-6 5v204h263v-86h-217v-73c22 3 46 5 70 5c78 0 164 -25 164 -114c0 -97 -90 -135 -180 -135c-39 0 -79 9 -111 29z" />
    <glyph glyph-name="six.inferior" unicode="&#x2086;" 
d="M203 -98c40 0 55 39 55 90c0 53 -15 89 -55 89c-41 0 -54 -40 -54 -87s13 -92 54 -92zM145 102l3 -2c21 18 49 25 77 25c81 0 135 -54 135 -130c0 -90 -65 -139 -155 -139c-107 0 -158 70 -158 170c0 131 80 240 221 240c23 0 49 -4 72 -12l-6 -33c-11 2 -22 3 -34 3
c-84 0 -134 -40 -155 -122z" />
    <glyph glyph-name="seven.inferior" unicode="&#x2087;" 
d="M56 259h300v-39l-194 -371l-63 34l180 283l-2 4h-175l-13 -41h-33v130z" />
    <glyph glyph-name="eight.inferior" unicode="&#x2088;" 
d="M38 -35c0 41 29 70 68 87v4c-33 20 -57 47 -57 90c0 81 84 120 155 120c64 0 148 -27 148 -98c0 -42 -32 -75 -72 -91v-4c59 -27 84 -55 84 -99c0 -80 -95 -118 -168 -118c-67 0 -158 29 -158 109zM138 -25c0 -42 28 -73 70 -73c28 0 54 20 54 51c0 37 -62 53 -105 73
c-12 -15 -19 -33 -19 -51zM149 171c0 -42 39 -58 81 -74c15 14 25 38 25 61c0 33 -18 63 -54 63c-32 0 -52 -24 -52 -50z" />
    <glyph glyph-name="nine.inferior" unicode="&#x2089;" 
d="M198 49c37 0 55 35 55 85c0 48 -16 85 -54 85c-34 0 -53 -35 -53 -84c0 -50 16 -86 52 -86zM43 129c0 79 65 137 158 137c110 0 156 -79 156 -166c0 -140 -98 -244 -236 -244c-20 0 -42 2 -60 6l5 37c83 -7 164 36 188 124l-2 3c-21 -17 -48 -24 -76 -24
c-76 0 -133 42 -133 127z" />
    <glyph glyph-name="zero.oldstyle" unicode="&#xf730;" horiz-adv-x="587" 
d="M547 264c0 -180 -89 -274 -253 -274c-166 0 -254 94 -254 274c0 175 90 276 254 276c165 0 253 -102 253 -276zM413 264c0 150 -47 210 -119 210c-70 0 -119 -62 -119 -210c0 -142 46 -208 119 -208c70 0 119 65 119 208z" />
    <glyph glyph-name="one.oldstyle" unicode="&#xf731;" horiz-adv-x="402" 
d="M150 58v393h-120c-3 16 -3 32 0 48l176 39c46 10 76 0 76 -62v-418l101 -20c3 -12 3 -25 0 -38h-333c-3 13 -3 26 0 38z" />
    <glyph glyph-name="two.oldstyle" unicode="&#xf732;" horiz-adv-x="493" 
d="M50 360v123c49 38 114 57 180 57c106 0 205 -46 205 -159c0 -100 -71 -146 -151 -199l-94 -62l1 -4h260c2 -19 3 -39 3 -58c0 -20 -1 -39 -3 -58h-422v59l146 125c66 57 125 106 125 186c0 68 -42 102 -101 102c-20 0 -44 -5 -65 -15l-31 -97c-18 -3 -35 -3 -53 0z" />
    <glyph glyph-name="four.oldstyle" unicode="&#xf734;" horiz-adv-x="560" 
d="M312 44h-309v60l347 436h94v-428h99c2 -12 3 -23 3 -34s-1 -23 -3 -34h-99v-164c-22 -3 -44 -4 -66 -4s-44 1 -66 4v164zM98 112h214v265h-4l-212 -262z" />
    <glyph glyph-name="five.oldstyle" unicode="&#xf735;" horiz-adv-x="552" 
d="M140 414v-136c38 6 84 11 128 11c121 0 238 -37 238 -181c0 -169 -161 -228 -312 -228c-48 0 -100 7 -140 18c4 22 12 45 26 66c25 -6 60 -11 92 -11c98 0 200 37 200 154c0 90 -70 112 -145 112c-52 0 -109 -10 -147 -17l-7 7v314l6 7h390c2 -20 3 -40 3 -59
s-1 -38 -3 -57h-329z" />
    <glyph glyph-name="six.oldstyle" unicode="&#xf736;" horiz-adv-x="564" 
d="M292 56c77 0 100 75 100 156c0 80 -23 153 -100 153c-75 0 -101 -71 -101 -152c0 -80 27 -157 101 -157zM294 -10c-168 0 -238 110 -238 267c0 197 107 414 338 414c31 0 63 -4 98 -15c0 -21 -4 -42 -12 -63c-18 5 -39 8 -59 8c-112 0 -200 -84 -223 -209l3 -1
c33 28 73 40 117 40c136 0 208 -88 208 -215c0 -132 -79 -226 -232 -226z" />
    <glyph glyph-name="nine.oldstyle" unicode="&#xf739;" horiz-adv-x="558" 
d="M272 473c-73 0 -99 -69 -99 -149c0 -82 26 -149 98 -149c65 0 102 55 102 148c0 79 -27 150 -101 150zM365 147l-4 2c-31 -27 -77 -39 -120 -39c-123 0 -202 77 -202 202c0 130 86 228 230 228c185 0 239 -124 239 -273c0 -230 -141 -387 -361 -387c-36 0 -70 5 -102 13
c0 22 3 42 11 63c21 -5 43 -7 64 -7c114 0 222 71 245 198z" />
    <glyph glyph-name="three.oldstyle" unicode="&#xf733;" horiz-adv-x="500" 
d="M30 -27c32 -10 73 -17 114 -17c87 0 173 31 173 129c0 71 -53 103 -124 98l-67 -5c-7 19 -10 42 -8 65l28 5c85 15 153 31 153 123c0 74 -55 101 -115 101c-28 0 -57 -6 -81 -15l-26 -86c-18 -3 -36 -3 -53 0v124c53 27 124 45 192 45c107 0 217 -39 217 -160
c0 -70 -44 -125 -121 -143v-4c86 -5 141 -67 141 -146c0 -154 -156 -207 -289 -207c-56 0 -112 9 -161 26c4 26 13 48 27 67z" />
    <glyph glyph-name="seven.oldstyle" unicode="&#xf737;" horiz-adv-x="525" 
d="M27 530h459v-60l-327 -594c-29 8 -56 23 -83 47l304 484l-1 4h-352c-3 19 -4 39 -4 59s1 40 4 60z" />
    <glyph glyph-name="eight.oldstyle" unicode="&#xf738;" horiz-adv-x="571" 
d="M45 167c0 66 42 118 110 152v4c-57 33 -92 88 -92 161c0 127 108 187 227 187c118 0 219 -64 219 -168c0 -64 -33 -119 -105 -151v-4c74 -32 122 -82 122 -158c0 -138 -119 -200 -244 -200c-110 0 -237 51 -237 177zM287 56c58 0 106 36 106 94s-43 79 -91 102
c-26 13 -52 23 -76 34c-33 -26 -49 -67 -49 -106c0 -61 36 -124 110 -124zM195 507c0 -69 65 -99 131 -125c35 28 52 73 52 117c0 54 -28 107 -91 107c-54 0 -92 -45 -92 -99z" />
    <glyph glyph-name="afii10064" unicode="&#xf6c5;" horiz-adv-x="594" 
d="M419 253c0 143 -48 196 -119 196c-73 0 -120 -53 -120 -196c0 -142 47 -197 120 -197c71 0 119 55 119 197zM553 253c0 -169 -87 -263 -253 -263c-168 0 -255 94 -255 263c0 88 25 161 79 206v4c-39 25 -54 69 -54 109c0 120 104 152 227 152h159l15 35c13 3 25 3 38 0
v-147l-7 -6h-260c-55 0 -99 -11 -99 -56c0 -22 9 -41 33 -58c43 17 86 23 128 23c149 0 249 -87 249 -262z" />
    <glyph glyph-name="onethird" unicode="&#x2153;" horiz-adv-x="914" 
d="M142 354v287h-93v37l132 28c47 10 63 -5 63 -57v-295l74 -14v-33h-249v33zM192 0l429 730c21 -9 41 -20 57 -33l-429 -731c-21 7 -41 19 -57 34zM556 270v98c32 19 81 32 133 32c76 0 149 -28 149 -98c0 -55 -43 -88 -96 -92v-4c56 -6 110 -28 110 -95
c0 -87 -91 -121 -181 -121c-44 0 -89 11 -122 30v102h35l28 -77c15 -4 33 -7 51 -7c47 0 83 22 83 74c0 50 -40 67 -89 67h-31v45h28c50 0 79 16 79 69c0 45 -31 60 -65 60c-18 0 -36 -4 -52 -10l-26 -73h-34z" />
    <glyph glyph-name="oneeighth" unicode="&#x215b;" horiz-adv-x="914" 
d="M140 355v287h-93v37l132 28c47 10 63 -5 63 -57v-295l74 -14v-33h-249v33zM188 0l429 730c21 -9 41 -20 57 -33l-429 -731c-21 7 -41 19 -57 34zM523 99c0 41 29 70 68 87v4c-33 20 -57 47 -57 90c0 81 84 120 155 120c64 0 148 -27 148 -98c0 -42 -32 -75 -72 -91v-4
c59 -27 84 -55 84 -99c0 -80 -95 -118 -168 -118c-67 0 -158 29 -158 109zM623 109c0 -42 28 -73 70 -73c28 0 54 20 54 51c0 37 -62 53 -105 73c-12 -15 -19 -33 -19 -51zM634 305c0 -42 39 -58 81 -74c15 14 25 38 25 61c0 33 -18 63 -54 63c-32 0 -52 -24 -52 -50z" />
    <glyph glyph-name="twothirds" unicode="&#x2154;" horiz-adv-x="914" 
d="M154 397h185v-90h-304v48l116 104c40 35 77 73 77 131c0 48 -32 71 -70 71c-14 0 -28 -3 -43 -9l-31 -80h-34v101c32 24 82 37 130 37c78 0 154 -35 154 -116c0 -67 -52 -102 -109 -142l-73 -51zM206 0l429 730c21 -9 41 -20 57 -33l-429 -731c-21 7 -41 19 -57 34z
M571 270v98c32 19 81 32 133 32c76 0 149 -28 149 -98c0 -55 -43 -88 -96 -92v-4c56 -6 110 -28 110 -95c0 -87 -91 -121 -181 -121c-44 0 -89 11 -122 30v102h35l28 -77c15 -4 33 -7 51 -7c47 0 83 22 83 74c0 50 -40 67 -89 67h-31v45h28c50 0 79 16 79 69
c0 45 -31 60 -65 60c-18 0 -36 -4 -52 -10l-26 -73h-34z" />
    <glyph glyph-name="threeeighths" unicode="&#x215c;" horiz-adv-x="914" 
d="M54 580v98c32 19 81 32 133 32c76 0 149 -28 149 -98c0 -55 -43 -88 -96 -92v-4c56 -6 110 -28 110 -95c0 -87 -91 -121 -181 -121c-44 0 -89 11 -122 30v102h35l28 -77c15 -4 33 -7 51 -7c47 0 83 22 83 74c0 50 -40 67 -89 67h-31v45h28c50 0 79 16 79 69
c0 45 -31 60 -65 60c-18 0 -36 -4 -52 -10l-26 -73h-34zM203 0l429 730c21 -9 41 -20 57 -33l-429 -731c-21 7 -41 19 -57 34zM536 99c0 41 29 70 68 87v4c-33 20 -57 47 -57 90c0 81 84 120 155 120c64 0 148 -27 148 -98c0 -42 -32 -75 -72 -91v-4c59 -27 84 -55 84 -99
c0 -80 -95 -118 -168 -118c-67 0 -158 29 -158 109zM636 109c0 -42 28 -73 70 -73c28 0 54 20 54 51c0 37 -62 53 -105 73c-12 -15 -19 -33 -19 -51zM647 305c0 -42 39 -58 81 -74c15 14 25 38 25 61c0 33 -18 63 -54 63c-32 0 -52 -24 -52 -50z" />
    <glyph glyph-name="fiveeighths" unicode="&#x215d;" horiz-adv-x="914" 
d="M62 326v95h36l24 -72c11 -2 22 -3 34 -3c46 0 92 18 92 82c0 56 -37 71 -87 71c-29 0 -56 -3 -82 -8l-6 5v204h263v-86h-217v-73c22 3 46 5 70 5c78 0 164 -25 164 -114c0 -97 -90 -135 -180 -135c-39 0 -79 9 -111 29zM207 0l429 730c21 -9 41 -20 57 -33l-429 -731
c-21 7 -41 19 -57 34zM541 99c0 41 29 70 68 87v4c-33 20 -57 47 -57 90c0 81 84 120 155 120c64 0 148 -27 148 -98c0 -42 -32 -75 -72 -91v-4c59 -27 84 -55 84 -99c0 -80 -95 -118 -168 -118c-67 0 -158 29 -158 109zM641 109c0 -42 28 -73 70 -73c28 0 54 20 54 51
c0 37 -62 53 -105 73c-12 -15 -19 -33 -19 -51zM652 305c0 -42 39 -58 81 -74c15 14 25 38 25 61c0 33 -18 63 -54 63c-32 0 -52 -24 -52 -50z" />
    <glyph glyph-name="seveneighths" unicode="&#x215e;" horiz-adv-x="914" 
d="M94 699h300v-39l-194 -371l-63 34l180 283l-2 4h-175l-13 -41h-33v130zM166 0l429 730c21 -9 41 -20 57 -33l-429 -731c-21 7 -41 19 -57 34zM502 99c0 41 29 70 68 87v4c-33 20 -57 47 -57 90c0 81 84 120 155 120c64 0 148 -27 148 -98c0 -42 -32 -75 -72 -91v-4
c59 -27 84 -55 84 -99c0 -80 -95 -118 -168 -118c-67 0 -158 29 -158 109zM602 109c0 -42 28 -73 70 -73c28 0 54 20 54 51c0 37 -62 53 -105 73c-12 -15 -19 -33 -19 -51zM613 305c0 -42 39 -58 81 -74c15 14 25 38 25 61c0 33 -18 63 -54 63c-32 0 -52 -24 -52 -50z" />
    <glyph glyph-name="zero.slash" unicode="&#xf638;" horiz-adv-x="609" 
d="M427 350c0 65 -5 119 -15 166h-4l-182 -414c19 -29 44 -46 79 -46c96 0 122 123 122 294zM198 183h4l181 414c-18 30 -44 47 -78 47c-98 0 -123 -140 -123 -270c0 -77 5 -151 16 -191zM421 683l30 67c19 -5 37 -13 51 -23l-34 -77c61 -61 92 -163 92 -300
c0 -231 -83 -360 -255 -360c-45 0 -84 9 -117 26l-31 -71c-18 5 -35 12 -51 23l36 81c-63 59 -93 161 -93 301c0 227 84 360 256 360c44 0 83 -10 116 -27z" />
    <glyph glyph-name="A.sc" unicode="&#xe000;" horiz-adv-x="680" 
d="M457 61l-42 98h-218l-42 -98l82 -22c3 -12 3 -27 0 -39h-228c-3 12 -3 27 0 39l69 20l205 471h118l203 -471l67 -20c3 -12 3 -27 0 -39h-293c-3 12 -3 27 0 39zM305 406l-79 -181h160l-77 181h-4z" />
    <glyph glyph-name="AE.sc" unicode="&#xe001;" horiz-adv-x="913" 
d="M437 61v174h-191l-90 -174l82 -22c3 -12 3 -27 0 -39h-231c-3 12 -3 27 0 39l69 20l213 408l-107 24c-3 13 -3 25 0 39h657v-157c-18 -4 -36 -4 -54 0l-34 87h-180v-158h112l19 45c13 3 26 3 39 0v-172c-13 -3 -27 -3 -39 0l-19 60h-112v-165h198l33 97c19 4 38 4 56 0
v-167h-500c-3 13 -3 26 0 39zM364 460l-83 -158h156v158h-73z" />
    <glyph glyph-name="Aacute.sc" unicode="&#xe003;" horiz-adv-x="680" 
d="M457 61l-42 98h-218l-42 -98l82 -22c3 -12 3 -27 0 -39h-228c-3 12 -3 27 0 39l69 20l205 471h118l203 -471l67 -20c3 -12 3 -27 0 -39h-293c-3 12 -3 27 0 39zM305 406l-79 -181h160l-77 181h-4zM261 625l132 147c27 -21 44 -40 62 -66l-154 -123c-15 10 -30 26 -40 42z
" />
    <glyph glyph-name="Abreve.sc" unicode="&#xe004;" horiz-adv-x="680" 
d="M457 61l-42 98h-218l-42 -98l82 -22c3 -12 3 -27 0 -39h-228c-3 12 -3 27 0 39l69 20l205 471h118l203 -471l67 -20c3 -12 3 -27 0 -39h-293c-3 12 -3 27 0 39zM305 406l-79 -181h160l-77 181h-4zM192 738c10 2 20 3 31 3s21 -1 32 -3c7 -43 27 -73 81 -73s74 30 81 73
c11 2 21 3 31 3c11 0 22 -1 32 -3c-1 -85 -53 -143 -144 -143s-143 58 -144 143z" />
    <glyph glyph-name="Acircumflex.sc" unicode="&#xe005;" horiz-adv-x="680" 
d="M457 61l-42 98h-218l-42 -98l82 -22c3 -12 3 -27 0 -39h-228c-3 12 -3 27 0 39l69 20l205 471h118l203 -471l67 -20c3 -12 3 -27 0 -39h-293c-3 12 -3 27 0 39zM305 406l-79 -181h160l-77 181h-4zM333 772h11l138 -147c-10 -17 -23 -31 -39 -42l-105 89l-105 -89
c-16 11 -28 25 -38 42z" />
    <glyph glyph-name="Adieresis.sc" unicode="&#xe006;" horiz-adv-x="680" 
d="M457 61l-42 98h-218l-42 -98l82 -22c3 -12 3 -27 0 -39h-228c-3 12 -3 27 0 39l69 20l205 471h118l203 -471l67 -20c3 -12 3 -27 0 -39h-293c-3 12 -3 27 0 39zM305 406l-79 -181h160l-77 181h-4zM283 623c-19 -2 -37 -3 -55 -3s-37 1 -54 3c-2 18 -3 36 -3 54s1 37 3 55
c18 2 36 3 54 3s37 -1 55 -3c2 -18 3 -37 3 -55s-1 -36 -3 -54zM501 623c-19 -2 -37 -3 -55 -3s-37 1 -54 3c-2 18 -3 36 -3 54s1 37 3 55c18 2 36 3 54 3s37 -1 55 -3c2 -18 3 -37 3 -55s-1 -36 -3 -54z" />
    <glyph glyph-name="Agrave.sc" unicode="&#xe007;" horiz-adv-x="680" 
d="M457 61l-42 98h-218l-42 -98l82 -22c3 -12 3 -27 0 -39h-228c-3 12 -3 27 0 39l69 20l205 471h118l203 -471l67 -20c3 -12 3 -27 0 -39h-293c-3 12 -3 27 0 39zM305 406l-79 -181h160l-77 181h-4zM296 772l132 -147c-10 -17 -25 -32 -40 -42l-154 123c17 25 36 46 62 66z
" />
    <glyph glyph-name="Amacron.sc" unicode="&#xe00b;" horiz-adv-x="680" 
d="M457 61l-42 98h-218l-42 -98l82 -22c3 -12 3 -27 0 -39h-228c-3 12 -3 27 0 39l69 20l205 471h118l203 -471l67 -20c3 -12 3 -27 0 -39h-293c-3 12 -3 27 0 39zM305 406l-79 -181h160l-77 181h-4zM484 620h-293c-2 12 -3 26 -3 38c0 13 1 25 3 38h293c2 -13 3 -25 3 -38
c0 -12 -1 -26 -3 -38z" />
    <glyph glyph-name="Aogonek.sc" unicode="&#xa00c;" horiz-adv-x="680" 
d="M604 59l67 -20c3 -12 3 -27 0 -39h-169c-4 -17 -7 -37 -7 -55c0 -45 17 -86 66 -86c14 0 29 4 43 11c9 -15 15 -33 16 -50c-21 -17 -54 -26 -86 -26c-75 0 -113 50 -113 121c0 48 16 98 39 139l-45 105h-218l-42 -98l82 -22c3 -12 3 -27 0 -39h-228c-3 12 -3 27 0 39
l69 20l205 471h118zM305 406l-79 -181h160l-77 181h-4z" />
    <glyph glyph-name="Aring.sc" unicode="&#xe00d;" horiz-adv-x="680" 
d="M457 61l-42 98h-218l-42 -98l82 -22c3 -12 3 -27 0 -39h-228c-3 12 -3 27 0 39l69 20l205 471h118l203 -471l67 -20c3 -12 3 -27 0 -39h-293c-3 12 -3 27 0 39zM305 406l-79 -181h160l-77 181h-4zM233 682c0 61 44 100 104 100s105 -39 105 -100s-45 -99 -105 -99
s-104 38 -104 99zM290 682c0 -32 19 -55 47 -55s48 23 48 55s-20 56 -48 56s-47 -24 -47 -56z" />
    <glyph glyph-name="Atilde.sc" unicode="&#xe00e;" horiz-adv-x="680" 
d="M457 61l-42 98h-218l-42 -98l82 -22c3 -12 3 -27 0 -39h-228c-3 12 -3 27 0 39l69 20l205 471h118l203 -471l67 -20c3 -12 3 -27 0 -39h-293c-3 12 -3 27 0 39zM305 406l-79 -181h160l-77 181h-4zM235 601c-18 -4 -36 -4 -54 0c0 71 33 130 93 130c54 0 90 -56 130 -56
c24 0 35 30 36 57c18 4 36 4 54 0c0 -68 -28 -129 -88 -129c-65 0 -97 56 -134 56c-21 0 -34 -35 -37 -58z" />
    <glyph glyph-name="B.sc" unicode="&#xe00f;" horiz-adv-x="625" 
d="M287 460h-29v-148h21c79 0 131 7 131 75c0 69 -51 73 -123 73zM299 244h-41v-174h27c81 0 156 3 156 86c0 81 -65 88 -142 88zM44 39l79 22v408l-79 22c-3 13 -3 26 0 39h304c92 0 198 -24 198 -125c0 -66 -50 -112 -116 -118v-4c83 -1 148 -46 148 -128
c0 -117 -112 -155 -217 -155h-317c-3 13 -3 26 0 39z" />
    <glyph glyph-name="C.sc" unicode="&#xe011;" horiz-adv-x="574" 
d="M433 74l38 103c18 4 35 4 53 0v-142c-55 -29 -125 -45 -192 -45c-158 0 -287 85 -287 275c0 188 139 275 299 275c62 0 125 -12 176 -35v-139c-18 -4 -36 -4 -53 0l-37 95c-22 7 -45 9 -67 9c-109 0 -181 -76 -181 -205c0 -128 70 -203 177 -203c22 0 49 2 74 12z" />
    <glyph glyph-name="Cacute.sc" unicode="&#xe012;" horiz-adv-x="574" 
d="M433 74l38 103c18 4 35 4 53 0v-142c-55 -29 -125 -45 -192 -45c-158 0 -287 85 -287 275c0 188 139 275 299 275c62 0 125 -12 176 -35v-139c-18 -4 -36 -4 -53 0l-37 95c-22 7 -45 9 -67 9c-109 0 -181 -76 -181 -205c0 -128 70 -203 177 -203c22 0 49 2 74 12z
M264 625l132 147c27 -21 44 -40 62 -66l-154 -123c-15 10 -30 26 -40 42z" />
    <glyph glyph-name="Ccaron.sc" unicode="&#xe013;" horiz-adv-x="574" 
d="M433 74l38 103c18 4 35 4 53 0v-142c-55 -29 -125 -45 -192 -45c-158 0 -287 85 -287 275c0 188 139 275 299 275c62 0 125 -12 176 -35v-139c-18 -4 -36 -4 -53 0l-37 95c-22 7 -45 9 -67 9c-109 0 -181 -76 -181 -205c0 -128 70 -203 177 -203c22 0 49 2 74 12z
M469 729l-138 -146h-11l-138 145c9 17 22 32 38 44l105 -89l105 89c18 -13 30 -26 39 -43z" />
    <glyph glyph-name="Ccedilla.sc" unicode="&#xe014;" horiz-adv-x="574" 
d="M433 74l38 103c18 4 35 4 53 0v-142c-40 -21 -89 -35 -138 -41c9 -25 15 -53 15 -79c0 -70 -36 -121 -113 -121c-33 0 -66 9 -87 26c2 17 8 34 17 50c14 -7 28 -11 42 -11c51 0 66 45 66 89c0 15 -2 29 -4 42c-154 4 -277 89 -277 275c0 188 139 275 299 275
c62 0 125 -12 176 -35v-139c-18 -4 -36 -4 -53 0l-37 95c-22 7 -45 9 -67 9c-109 0 -181 -76 -181 -205c0 -128 70 -203 177 -203c22 0 49 2 74 12z" />
    <glyph glyph-name="D.sc" unicode="&#xe018;" horiz-adv-x="670" 
d="M299 460h-41v-390h41c143 0 189 66 189 195s-47 195 -189 195zM123 61v408l-79 22c-3 13 -3 26 0 39h300c189 0 281 -93 281 -265c0 -180 -92 -265 -281 -265h-300c-3 13 -3 26 0 39z" />
    <glyph glyph-name="Dcaron.sc" unicode="&#xe019;" horiz-adv-x="670" 
d="M299 460h-41v-390h41c143 0 189 66 189 195s-47 195 -189 195zM123 61v408l-79 22c-3 13 -3 26 0 39h300c189 0 281 -93 281 -265c0 -180 -92 -265 -281 -265h-300c-3 13 -3 26 0 39zM480 729l-138 -146h-11l-138 145c9 17 22 32 38 44l105 -89l105 89
c18 -13 30 -26 39 -43z" />
    <glyph glyph-name="Dcroat.sc" unicode="&#xe01a;" horiz-adv-x="679" 
d="M307 460h-41v-151h113c2 -10 3 -19 3 -29s-1 -20 -3 -29h-113v-181h41c143 0 189 66 189 195s-47 195 -189 195zM52 309h80v160l-80 22c-3 13 -3 26 0 39h301c188 0 281 -93 281 -265c0 -180 -93 -265 -281 -265h-301c-3 13 -3 26 0 39l80 22v190h-80c-2 9 -3 19 -3 29
s1 19 3 29z" />
    <glyph glyph-name="E.sc" unicode="&#xe01b;" horiz-adv-x="599" 
d="M123 61v408l-79 22c-3 13 -3 25 0 39h481v-157c-18 -4 -37 -4 -54 0l-34 87h-179v-151h111l19 45c13 3 26 3 39 0v-172c-13 -3 -26 -3 -39 0l-19 60h-111v-172h197l33 97c18 4 38 4 56 0v-167h-500c-3 13 -3 26 0 39z" />
    <glyph glyph-name="Eacute.sc" unicode="&#xe01c;" horiz-adv-x="599" 
d="M123 61v408l-79 22c-3 13 -3 25 0 39h481v-157c-18 -4 -37 -4 -54 0l-34 87h-179v-151h111l19 45c13 3 26 3 39 0v-172c-13 -3 -26 -3 -39 0l-19 60h-111v-172h197l33 97c18 4 38 4 56 0v-167h-500c-3 13 -3 26 0 39zM252 625l132 147c27 -21 44 -40 62 -66l-154 -123
c-15 10 -30 26 -40 42z" />
    <glyph glyph-name="Ecaron.sc" unicode="&#xe01e;" horiz-adv-x="599" 
d="M123 61v408l-79 22c-3 13 -3 25 0 39h481v-157c-18 -4 -37 -4 -54 0l-34 87h-179v-151h111l19 45c13 3 26 3 39 0v-172c-13 -3 -26 -3 -39 0l-19 60h-111v-172h197l33 97c18 4 38 4 56 0v-167h-500c-3 13 -3 26 0 39zM463 729l-138 -146h-11l-138 145c9 17 22 32 38 44
l105 -89l105 89c18 -13 30 -26 39 -43z" />
    <glyph glyph-name="Ecircumflex.sc" unicode="&#xe01f;" horiz-adv-x="599" 
d="M123 61v408l-79 22c-3 13 -3 25 0 39h481v-157c-18 -4 -37 -4 -54 0l-34 87h-179v-151h111l19 45c13 3 26 3 39 0v-172c-13 -3 -26 -3 -39 0l-19 60h-111v-172h197l33 97c18 4 38 4 56 0v-167h-500c-3 13 -3 26 0 39zM310 772h11l138 -147c-10 -17 -23 -31 -39 -42
l-105 89l-105 -89c-16 11 -28 25 -38 42z" />
    <glyph glyph-name="Edieresis.sc" unicode="&#xe020;" horiz-adv-x="599" 
d="M123 61v408l-79 22c-3 13 -3 25 0 39h481v-157c-18 -4 -37 -4 -54 0l-34 87h-179v-151h111l19 45c13 3 26 3 39 0v-172c-13 -3 -26 -3 -39 0l-19 60h-111v-172h197l33 97c18 4 38 4 56 0v-167h-500c-3 13 -3 26 0 39zM254 623c-19 -2 -37 -3 -55 -3s-37 1 -54 3
c-2 18 -3 36 -3 54s1 37 3 55c18 2 36 3 54 3s37 -1 55 -3c2 -18 3 -37 3 -55s-1 -36 -3 -54zM472 623c-19 -2 -37 -3 -55 -3s-37 1 -54 3c-2 18 -3 36 -3 54s1 37 3 55c18 2 36 3 54 3s37 -1 55 -3c2 -18 3 -37 3 -55s-1 -36 -3 -54z" />
    <glyph glyph-name="Edotaccent.sc" unicode="&#xe021;" horiz-adv-x="599" 
d="M123 61v408l-79 22c-3 13 -3 25 0 39h481v-157c-18 -4 -37 -4 -54 0l-34 87h-179v-151h111l19 45c13 3 26 3 39 0v-172c-13 -3 -26 -3 -39 0l-19 60h-111v-172h197l33 97c18 4 38 4 56 0v-167h-500c-3 13 -3 26 0 39zM260 744c20 2 40 3 60 3s41 -1 61 -3
c2 -20 3 -40 3 -60s-1 -40 -3 -60c-20 -2 -41 -3 -61 -3s-40 1 -60 3c-2 20 -3 40 -3 60s1 40 3 60z" />
    <glyph glyph-name="Egrave.sc" unicode="&#xe022;" horiz-adv-x="599" 
d="M123 61v408l-79 22c-3 13 -3 25 0 39h481v-157c-18 -4 -37 -4 -54 0l-34 87h-179v-151h111l19 45c13 3 26 3 39 0v-172c-13 -3 -26 -3 -39 0l-19 60h-111v-172h197l33 97c18 4 38 4 56 0v-167h-500c-3 13 -3 26 0 39zM247 772l132 -147c-10 -17 -25 -32 -40 -42l-154 123
c17 25 36 46 62 66z" />
    <glyph glyph-name="Emacron.sc" unicode="&#xe023;" horiz-adv-x="599" 
d="M123 61v408l-79 22c-3 13 -3 25 0 39h481v-157c-18 -4 -37 -4 -54 0l-34 87h-179v-151h111l19 45c13 3 26 3 39 0v-172c-13 -3 -26 -3 -39 0l-19 60h-111v-172h197l33 97c18 4 38 4 56 0v-167h-500c-3 13 -3 26 0 39zM453 620h-293c-2 12 -3 26 -3 38c0 13 1 25 3 38h293
c2 -13 3 -25 3 -38c0 -12 -1 -26 -3 -38z" />
    <glyph glyph-name="Eogonek.sc" unicode="&#xe025;" horiz-adv-x="599" 
d="M123 61v408l-79 22c-3 13 -3 25 0 39h481v-157c-18 -4 -37 -4 -54 0l-34 87h-179v-151h111l19 45c13 3 26 3 39 0v-172c-13 -3 -26 -3 -39 0l-19 60h-111v-172h197l33 97c18 4 38 4 56 0v-167h-111c-3 -15 -6 -34 -6 -52c0 -45 15 -89 66 -89c14 0 28 4 42 11
c10 -16 15 -33 17 -50c-21 -17 -54 -26 -87 -26c-77 0 -113 51 -113 121c0 30 6 60 17 85h-325c-3 13 -3 26 0 39z" />
    <glyph glyph-name="Eth.sc" unicode="&#xe02c;" horiz-adv-x="679" 
d="M307 460h-41v-151h113c2 -10 3 -19 3 -29s-1 -20 -3 -29h-113v-181h41c143 0 189 66 189 195s-47 195 -189 195zM52 309h80v160l-80 22c-3 13 -3 26 0 39h301c188 0 281 -93 281 -265c0 -180 -93 -265 -281 -265h-301c-3 13 -3 26 0 39l80 22v190h-80c-2 9 -3 19 -3 29
s1 19 3 29z" />
    <glyph glyph-name="F.sc" unicode="&#xe02e;" horiz-adv-x="566" 
d="M123 61v408l-79 22c-3 13 -3 26 0 39h477v-157c-17 -4 -37 -4 -53 0l-35 87h-175v-176h118l19 45c13 3 26 3 39 0v-172c-13 -3 -27 -3 -39 0l-19 60h-118v-156l79 -22c3 -13 3 -26 0 -39h-293c-3 13 -3 26 0 39z" />
    <glyph glyph-name="G.sc" unicode="&#xe02f;" horiz-adv-x="636" 
d="M578 218l-39 -16v-212h-53c-27 0 -45 11 -52 22c-38 -15 -80 -22 -121 -22c-163 0 -268 110 -268 272c0 186 138 278 313 278c64 0 128 -13 181 -35v-139c-18 -4 -37 -4 -54 0l-37 95c-22 7 -45 10 -68 10c-125 0 -198 -84 -198 -212c0 -106 57 -197 169 -197
c19 0 41 3 61 9v125l-79 22c-3 13 -3 26 0 39h245c3 -14 3 -26 0 -39z" />
    <glyph glyph-name="Gbreve.sc" unicode="&#xe033;" horiz-adv-x="636" 
d="M578 218l-39 -16v-212h-53c-27 0 -45 11 -52 22c-38 -15 -80 -22 -121 -22c-163 0 -268 110 -268 272c0 186 138 278 313 278c64 0 128 -13 181 -35v-139c-18 -4 -37 -4 -54 0l-37 95c-22 7 -45 10 -68 10c-125 0 -198 -84 -198 -212c0 -106 57 -197 169 -197
c19 0 41 3 61 9v125l-79 22c-3 13 -3 26 0 39h245c3 -14 3 -26 0 -39zM182 738c10 2 20 3 31 3s21 -1 32 -3c7 -43 27 -73 81 -73s74 30 81 73c11 2 21 3 31 3c11 0 22 -1 32 -3c-1 -85 -53 -143 -144 -143s-143 58 -144 143z" />
    <glyph glyph-name="Gcommaaccent.sc" unicode="&#xe035;" horiz-adv-x="636" 
d="M578 218l-39 -16v-212h-53c-27 0 -45 11 -52 22c-38 -15 -80 -22 -121 -22c-163 0 -268 110 -268 272c0 186 138 278 313 278c64 0 128 -13 181 -35v-139c-18 -4 -37 -4 -54 0l-37 95c-22 7 -45 10 -68 10c-125 0 -198 -84 -198 -212c0 -106 57 -197 169 -197
c19 0 41 3 61 9v125l-79 22c-3 13 -3 26 0 39h245c3 -14 3 -26 0 -39zM250 -207c29 32 38 80 38 125c0 12 -1 23 -2 34c15 2 30 3 45 3s31 -1 45 -3c5 -85 -23 -146 -89 -182c-13 3 -28 12 -37 23z" />
    <glyph glyph-name="H.sc" unicode="&#xe037;" horiz-adv-x="746" 
d="M489 245h-231v-184l75 -22c3 -13 3 -26 0 -39h-289c-3 13 -3 26 0 39l79 22v408l-79 22c-3 13 -3 26 0 39h289c3 -13 3 -26 0 -39l-75 -22v-154h231v154l-75 22c-3 13 -3 26 0 39h288c3 -13 3 -26 0 -39l-79 -22v-408l79 -22c3 -13 3 -26 0 -39h-288c-3 13 -3 26 0 39
l75 22v184z" />
    <glyph glyph-name="I.sc" unicode="&#xe03a;" horiz-adv-x="381" 
d="M337 491l-79 -22v-408l79 -22c3 -13 3 -26 0 -39h-293c-3 13 -3 26 0 39l79 22v408l-79 22c-3 13 -3 26 0 39h293c3 -13 3 -26 0 -39z" />
    <glyph glyph-name="Iacute.sc" unicode="&#xe03c;" horiz-adv-x="381" 
d="M337 491l-79 -22v-408l79 -22c3 -13 3 -26 0 -39h-293c-3 13 -3 26 0 39l79 22v408l-79 22c-3 13 -3 26 0 39h293c3 -13 3 -26 0 -39zM128 625l132 147c27 -21 44 -40 62 -66l-154 -123c-15 10 -30 26 -40 42z" />
    <glyph glyph-name="Icircumflex.sc" unicode="&#xe03e;" horiz-adv-x="381" 
d="M337 491l-79 -22v-408l79 -22c3 -13 3 -26 0 -39h-293c-3 13 -3 26 0 39l79 22v408l-79 22c-3 13 -3 26 0 39h293c3 -13 3 -26 0 -39zM185 772h11l138 -147c-10 -17 -23 -31 -39 -42l-105 89l-105 -89c-16 11 -28 25 -38 42z" />
    <glyph glyph-name="Idieresis.sc" unicode="&#xe03f;" horiz-adv-x="381" 
d="M335 491l-79 -22v-408l79 -22c3 -13 3 -26 0 -39h-293c-3 13 -3 26 0 39l79 22v408l-79 22c-3 13 -3 26 0 39h293c3 -13 3 -26 0 -39zM134 623c-19 -2 -37 -3 -55 -3s-37 1 -54 3c-2 18 -3 36 -3 54s1 37 3 55c18 2 36 3 54 3s37 -1 55 -3c2 -18 3 -37 3 -55
s-1 -36 -3 -54zM352 623c-19 -2 -37 -3 -55 -3s-37 1 -54 3c-2 18 -3 36 -3 54s1 37 3 55c18 2 36 3 54 3s37 -1 55 -3c2 -18 3 -37 3 -55s-1 -36 -3 -54z" />
    <glyph glyph-name="Idotaccent.sc" unicode="&#xe040;" horiz-adv-x="381" 
d="M337 491l-79 -22v-408l79 -22c3 -13 3 -26 0 -39h-293c-3 13 -3 26 0 39l79 22v408l-79 22c-3 13 -3 26 0 39h293c3 -13 3 -26 0 -39zM130 744c20 2 40 3 60 3s41 -1 61 -3c2 -20 3 -40 3 -60s-1 -40 -3 -60c-20 -2 -41 -3 -61 -3s-40 1 -60 3c-2 20 -3 40 -3 60
s1 40 3 60z" />
    <glyph glyph-name="Igrave.sc" unicode="&#xe041;" horiz-adv-x="381" 
d="M337 491l-79 -22v-408l79 -22c3 -13 3 -26 0 -39h-293c-3 13 -3 26 0 39l79 22v408l-79 22c-3 13 -3 26 0 39h293c3 -13 3 -26 0 -39zM126 772l132 -147c-10 -17 -25 -32 -40 -42l-154 123c17 25 36 46 62 66z" />
    <glyph glyph-name="Imacron.sc" unicode="&#xe042;" horiz-adv-x="381" 
d="M337 491l-79 -22v-408l79 -22c3 -13 3 -26 0 -39h-293c-3 13 -3 26 0 39l79 22v408l-79 22c-3 13 -3 26 0 39h293c3 -13 3 -26 0 -39zM337 620h-293c-2 12 -3 26 -3 38c0 13 1 25 3 38h293c2 -13 3 -25 3 -38c0 -12 -1 -26 -3 -38z" />
    <glyph glyph-name="Iogonek.sc" unicode="&#xe043;" horiz-adv-x="381" 
d="M337 491l-79 -22v-408l79 -22c3 -13 3 -26 0 -39h-117c-3 -15 -6 -34 -6 -52c0 -45 15 -89 66 -89c14 0 28 4 42 11c10 -16 15 -33 17 -50c-21 -17 -54 -26 -87 -26c-77 0 -113 51 -113 121c0 30 6 60 17 85h-112c-3 13 -3 26 0 39l79 22v408l-79 22c-3 13 -3 26 0 39
h293c3 -13 3 -26 0 -39z" />
    <glyph glyph-name="J.sc" unicode="&#xe049;" horiz-adv-x="370" 
d="M44 530h293c3 -13 3 -26 0 -39l-79 -22v-408c0 -117 -70 -181 -217 -181c-6 14 -9 28 -9 44c73 16 91 63 91 149v396l-79 22c-3 13 -3 26 0 39z" />
    <glyph glyph-name="K.sc" unicode="&#xe04b;" horiz-adv-x="693" 
d="M327 491l-69 -22v-408l73 -22c3 -12 3 -26 0 -39h-287c-3 13 -3 26 0 39l79 22v408l-79 22c-3 13 -3 26 0 39h283c3 -13 3 -26 0 -39zM676 0h-195l-208 264v4l198 209l-54 14c-3 12 -3 25 0 39h234c3 -13 3 -26 0 -39l-91 -22l-152 -160l197 -248l71 -22
c3 -13 3 -26 0 -39z" />
    <glyph glyph-name="Kcommaaccent.sc" unicode="&#xe04d;" horiz-adv-x="693" 
d="M327 491l-69 -22v-408l73 -22c3 -12 3 -26 0 -39h-287c-3 13 -3 26 0 39l79 22v408l-79 22c-3 13 -3 26 0 39h283c3 -13 3 -26 0 -39zM676 0h-195l-208 264v4l198 209l-54 14c-3 12 -3 25 0 39h234c3 -13 3 -26 0 -39l-91 -22l-152 -160l197 -248l71 -22
c3 -13 3 -26 0 -39zM296 -207c29 32 38 80 38 125c0 12 -1 23 -2 34c15 2 30 3 45 3s31 -1 45 -3c5 -85 -23 -146 -89 -182c-13 3 -28 12 -37 23z" />
    <glyph glyph-name="L.sc" unicode="&#xe04e;" horiz-adv-x="548" 
d="M258 469v-399h173l34 102c18 4 37 4 56 0v-172h-477c-3 13 -3 26 0 39l79 22v408l-79 22c-3 13 -3 26 0 39h293c3 -13 3 -26 0 -39z" />
    <glyph glyph-name="Lacute.sc" unicode="&#xe04f;" horiz-adv-x="548" 
d="M258 469v-399h173l34 102c18 4 37 4 56 0v-172h-477c-3 13 -3 26 0 39l79 22v408l-79 22c-3 13 -3 26 0 39h293c3 -13 3 -26 0 -39zM134 625l132 147c27 -21 44 -40 62 -66l-154 -123c-15 10 -30 26 -40 42z" />
    <glyph glyph-name="Lcaron.sc" unicode="&#xe051;" horiz-adv-x="548" 
d="M258 469v-399h173l34 102c18 4 37 4 56 0v-172h-477c-3 13 -3 26 0 39l79 22v408l-79 22c-3 13 -3 26 0 39h293c3 -13 3 -26 0 -39zM376 367c29 32 38 80 38 125c0 12 -1 23 -2 34c15 2 30 3 45 3s31 -1 45 -3c5 -85 -23 -146 -89 -182c-13 3 -28 12 -37 23z" />
    <glyph glyph-name="Lcommaaccent.sc" unicode="&#xe052;" horiz-adv-x="548" 
d="M258 469v-399h173l34 102c18 4 37 4 56 0v-172h-477c-3 13 -3 26 0 39l79 22v408l-79 22c-3 13 -3 26 0 39h293c3 -13 3 -26 0 -39zM228 -207c29 32 38 80 38 125c0 12 -1 23 -2 34c15 2 30 3 45 3s31 -1 45 -3c5 -85 -23 -146 -89 -182c-13 3 -28 12 -37 23z" />
    <glyph glyph-name="Lslash.sc" unicode="&#xe054;" horiz-adv-x="557" 
d="M267 469v-131l112 86l4 -1v-62l-116 -88v-203h173l34 102c18 4 37 4 56 0v-172h-477c-3 13 -3 26 0 39l79 22v110l-75 -57l-4 1v61l79 60v233l-79 22c-3 13 -3 26 0 39h293c3 -13 3 -26 0 -39z" />
    <glyph glyph-name="M.sc" unicode="&#xe055;" horiz-adv-x="932" 
d="M862 491l-79 -22l22 -408l79 -22c3 -13 3 -26 0 -39h-293c-3 13 -3 26 0 39l79 22l-18 337h-5l-178 -398h-92l-161 397h-5l-33 -336l77 -22c3 -12 3 -27 0 -39h-220c-3 12 -3 28 0 39l72 21l42 409l-79 22c-3 13 -3 26 0 39h237l151 -376h4l169 376h231
c3 -14 3 -26 0 -39z" />
    <glyph glyph-name="N.sc" unicode="&#xe059;" horiz-adv-x="697" 
d="M509 180h4v289l-78 22c-3 12 -3 27 0 39h220c3 -12 3 -28 0 -39l-72 -21v-470h-111l-281 402h-4v-341l79 -22c3 -11 3 -28 0 -39h-221c-3 12 -3 27 0 39l72 21v409l-72 22c-3 13 -3 26 0 39h219z" />
    <glyph glyph-name="Nacute.sc" unicode="&#xe05c;" horiz-adv-x="697" 
d="M509 180h4v289l-78 22c-3 12 -3 27 0 39h220c3 -12 3 -28 0 -39l-72 -21v-470h-111l-281 402h-4v-341l79 -22c3 -11 3 -28 0 -39h-221c-3 12 -3 27 0 39l72 21v409l-72 22c-3 13 -3 26 0 39h219zM298 625l132 147c27 -21 44 -40 62 -66l-154 -123c-15 10 -30 26 -40 42z
" />
    <glyph glyph-name="Ncaron.sc" unicode="&#xe05d;" horiz-adv-x="697" 
d="M509 180h4v289l-78 22c-3 12 -3 27 0 39h220c3 -12 3 -28 0 -39l-72 -21v-470h-111l-281 402h-4v-341l79 -22c3 -11 3 -28 0 -39h-221c-3 12 -3 27 0 39l72 21v409l-72 22c-3 13 -3 26 0 39h219zM502 729l-138 -146h-11l-138 145c9 17 22 32 38 44l105 -89l105 89
c18 -13 30 -26 39 -43z" />
    <glyph glyph-name="Ncommaaccent.sc" unicode="&#xe05e;" horiz-adv-x="697" 
d="M509 180h4v289l-78 22c-3 12 -3 27 0 39h220c3 -12 3 -28 0 -39l-72 -21v-470h-111l-281 402h-4v-341l79 -22c3 -11 3 -28 0 -39h-221c-3 12 -3 27 0 39l72 21v409l-72 22c-3 13 -3 26 0 39h219zM266 -207c29 32 38 80 38 125c0 12 -1 23 -2 34c15 2 30 3 45 3
s31 -1 45 -3c5 -85 -23 -146 -89 -182c-13 3 -28 12 -37 23z" />
    <glyph glyph-name="Ntilde.sc" unicode="&#xe05f;" horiz-adv-x="697" 
d="M509 180h4v289l-78 22c-3 12 -3 27 0 39h220c3 -12 3 -28 0 -39l-72 -21v-470h-111l-281 402h-4v-341l79 -22c3 -11 3 -28 0 -39h-221c-3 12 -3 27 0 39l72 21v409l-72 22c-3 13 -3 26 0 39h219zM257 601c-18 -4 -36 -4 -54 0c0 71 33 130 93 130c54 0 90 -56 130 -56
c24 0 35 30 36 57c18 4 36 4 54 0c0 -68 -28 -129 -88 -129c-65 0 -97 56 -134 56c-21 0 -34 -35 -37 -58z" />
    <glyph glyph-name="O.sc" unicode="&#xe061;" horiz-adv-x="651" 
d="M45 265c0 184 114 275 280 275c169 0 281 -91 281 -275c0 -188 -112 -275 -281 -275c-166 0 -280 87 -280 275zM468 265c0 132 -42 206 -143 206c-98 0 -143 -74 -143 -206c0 -131 44 -206 143 -206c102 0 143 75 143 206z" />
    <glyph glyph-name="OE.sc" unicode="&#xe062;" horiz-adv-x="890" 
d="M415 69v391c-20 9 -43 13 -68 13c-122 0 -165 -83 -165 -208c0 -128 42 -208 165 -208c25 0 49 4 68 12zM549 242v-172h197l34 97c19 4 37 4 55 0v-167h-412c-29 -6 -60 -10 -94 -10c-182 0 -284 98 -284 275c0 173 102 275 284 275c34 0 64 -4 92 -10h395v-157
c-17 -4 -38 -4 -54 0l-34 87h-179v-151h111l19 45c13 3 27 3 40 0v-172c-14 -3 -27 -3 -40 0l-19 60h-111z" />
    <glyph glyph-name="Oacute.sc" unicode="&#xe063;" horiz-adv-x="651" 
d="M45 265c0 184 114 275 280 275c169 0 281 -91 281 -275c0 -188 -112 -275 -281 -275c-166 0 -280 87 -280 275zM468 265c0 132 -42 206 -143 206c-98 0 -143 -74 -143 -206c0 -131 44 -206 143 -206c102 0 143 75 143 206zM270 625l132 147c27 -21 44 -40 62 -66
l-154 -123c-15 10 -30 26 -40 42z" />
    <glyph glyph-name="Ocircumflex.sc" unicode="&#xe065;" horiz-adv-x="651" 
d="M45 265c0 184 114 275 280 275c169 0 281 -91 281 -275c0 -188 -112 -275 -281 -275c-166 0 -280 87 -280 275zM468 265c0 132 -42 206 -143 206c-98 0 -143 -74 -143 -206c0 -131 44 -206 143 -206c102 0 143 75 143 206zM320 772h11l138 -147c-10 -17 -23 -31 -39 -42
l-105 89l-105 -89c-16 11 -28 25 -38 42z" />
    <glyph glyph-name="Odieresis.sc" unicode="&#xe066;" horiz-adv-x="651" 
d="M45 265c0 184 114 275 280 275c169 0 281 -91 281 -275c0 -188 -112 -275 -281 -275c-166 0 -280 87 -280 275zM468 265c0 132 -42 206 -143 206c-98 0 -143 -74 -143 -206c0 -131 44 -206 143 -206c102 0 143 75 143 206zM271 623c-19 -2 -37 -3 -55 -3s-37 1 -54 3
c-2 18 -3 36 -3 54s1 37 3 55c18 2 36 3 54 3s37 -1 55 -3c2 -18 3 -37 3 -55s-1 -36 -3 -54zM489 623c-19 -2 -37 -3 -55 -3s-37 1 -54 3c-2 18 -3 36 -3 54s1 37 3 55c18 2 36 3 54 3s37 -1 55 -3c2 -18 3 -37 3 -55s-1 -36 -3 -54z" />
    <glyph glyph-name="Ograve.sc" unicode="&#xe067;" horiz-adv-x="651" 
d="M45 265c0 184 114 275 280 275c169 0 281 -91 281 -275c0 -188 -112 -275 -281 -275c-166 0 -280 87 -280 275zM468 265c0 132 -42 206 -143 206c-98 0 -143 -74 -143 -206c0 -131 44 -206 143 -206c102 0 143 75 143 206zM263 772l132 -147c-10 -17 -25 -32 -40 -42
l-154 123c17 25 36 46 62 66z" />
    <glyph glyph-name="Ohungarumlaut.sc" unicode="&#xe068;" horiz-adv-x="651" 
d="M45 265c0 184 114 275 280 275c169 0 281 -91 281 -275c0 -188 -112 -275 -281 -275c-166 0 -280 87 -280 275zM468 265c0 132 -42 206 -143 206c-98 0 -143 -74 -143 -206c0 -131 44 -206 143 -206c102 0 143 75 143 206zM168 623l123 150c26 -19 47 -39 65 -63
l-146 -127c-17 10 -31 24 -42 40zM359 623l123 150c26 -19 47 -39 65 -63l-146 -127c-17 10 -31 24 -42 40z" />
    <glyph glyph-name="Omacron.sc" unicode="&#xe069;" horiz-adv-x="651" 
d="M45 265c0 184 114 275 280 275c169 0 281 -91 281 -275c0 -188 -112 -275 -281 -275c-166 0 -280 87 -280 275zM468 265c0 132 -42 206 -143 206c-98 0 -143 -74 -143 -206c0 -131 44 -206 143 -206c102 0 143 75 143 206zM472 620h-293c-2 12 -3 26 -3 38
c0 13 1 25 3 38h293c2 -13 3 -25 3 -38c0 -12 -1 -26 -3 -38z" />
    <glyph glyph-name="Oslash.sc" unicode="&#xe06f;" horiz-adv-x="651" 
d="M45 265c0 184 114 275 280 275c51 0 95 -8 133 -24l41 62c18 -8 32 -17 43 -29l-37 -59c63 -44 101 -119 101 -225c0 -188 -112 -275 -281 -275c-49 0 -93 8 -131 23l-44 -69c-16 7 -31 17 -44 29l41 64c-64 43 -102 119 -102 228zM325 471c-116 0 -143 -104 -143 -206
c0 -51 8 -104 24 -133h4l201 311c-21 19 -50 28 -86 28zM468 265c0 55 -7 95 -22 129h-4l-201 -309c22 -17 49 -26 84 -26c102 0 143 75 143 206z" />
    <glyph glyph-name="Otilde.sc" unicode="&#xe071;" horiz-adv-x="651" 
d="M45 265c0 184 114 275 280 275c169 0 281 -91 281 -275c0 -188 -112 -275 -281 -275c-166 0 -280 87 -280 275zM468 265c0 132 -42 206 -143 206c-98 0 -143 -74 -143 -206c0 -131 44 -206 143 -206c102 0 143 75 143 206zM223 601c-18 -4 -36 -4 -54 0
c0 71 33 130 93 130c54 0 90 -56 130 -56c24 0 35 30 36 57c18 4 36 4 54 0c0 -68 -28 -129 -88 -129c-65 0 -97 56 -134 56c-21 0 -34 -35 -37 -58z" />
    <glyph glyph-name="P.sc" unicode="&#xe072;" horiz-adv-x="588" 
d="M279 460h-21v-213h21c83 0 132 26 132 107c0 82 -49 106 -132 106zM300 178h-42v-117l79 -22c3 -12 3 -26 0 -39h-293c-3 13 -3 26 0 39l79 22v408l-79 22c-3 13 -3 26 0 39h254c134 0 250 -38 250 -172c0 -131 -118 -180 -248 -180z" />
    <glyph glyph-name="Q.sc" unicode="&#xe077;" horiz-adv-x="651" 
d="M468 265c0 142 -50 206 -143 206c-90 0 -143 -64 -143 -206s51 -206 143 -206c95 0 143 64 143 206zM45 265c0 173 100 275 280 275c182 0 281 -102 281 -275c0 -156 -74 -249 -216 -270c9 -40 35 -63 84 -71c0 -17 -4 -32 -10 -44c-113 0 -176 40 -198 114
c-145 19 -221 113 -221 271z" />
    <glyph glyph-name="R.sc" unicode="&#xe079;" horiz-adv-x="660" 
d="M279 460h-21v-193h21c83 0 132 16 132 97c0 82 -49 96 -132 96zM306 200h-48v-139l66 -22c3 -13 3 -26 0 -39h-280c-3 13 -3 26 0 39l79 22v408l-79 22c-3 13 -3 26 0 39h254c132 0 250 -27 250 -163c0 -73 -37 -119 -97 -143l114 -163l72 -22c3 -13 3 -26 0 -39h-190z
" />
    <glyph glyph-name="Racute.sc" unicode="&#xe07b;" horiz-adv-x="660" 
d="M279 460h-21v-193h21c83 0 132 16 132 97c0 82 -49 96 -132 96zM306 200h-48v-139l66 -22c3 -13 3 -26 0 -39h-280c-3 13 -3 26 0 39l79 22v408l-79 22c-3 13 -3 26 0 39h254c132 0 250 -27 250 -163c0 -73 -37 -119 -97 -143l114 -163l72 -22c3 -13 3 -26 0 -39h-190z
M257 625l132 147c27 -21 44 -40 62 -66l-154 -123c-15 10 -30 26 -40 42z" />
    <glyph glyph-name="Rcaron.sc" unicode="&#xe07c;" horiz-adv-x="660" 
d="M279 460h-21v-193h21c83 0 132 16 132 97c0 82 -49 96 -132 96zM306 200h-48v-139l66 -22c3 -13 3 -26 0 -39h-280c-3 13 -3 26 0 39l79 22v408l-79 22c-3 13 -3 26 0 39h254c132 0 250 -27 250 -163c0 -73 -37 -119 -97 -143l114 -163l72 -22c3 -13 3 -26 0 -39h-190z
M451 729l-138 -146h-11l-138 145c9 17 22 32 38 44l105 -89l105 89c18 -13 30 -26 39 -43z" />
    <glyph glyph-name="Rcommaaccent.sc" unicode="&#xe07d;" horiz-adv-x="660" 
d="M279 460h-21v-193h21c83 0 132 16 132 97c0 82 -49 96 -132 96zM306 200h-48v-139l66 -22c3 -13 3 -26 0 -39h-280c-3 13 -3 26 0 39l79 22v408l-79 22c-3 13 -3 26 0 39h254c132 0 250 -27 250 -163c0 -73 -37 -119 -97 -143l114 -163l72 -22c3 -13 3 -26 0 -39h-190z
M283 -207c29 32 38 80 38 125c0 12 -1 23 -2 34c15 2 30 3 45 3s31 -1 45 -3c5 -85 -23 -146 -89 -182c-13 3 -28 12 -37 23z" />
    <glyph glyph-name="S.sc" unicode="&#xe082;" horiz-adv-x="548" 
d="M72 31v140c17 3 37 3 54 0l37 -101c20 -6 53 -11 87 -11c61 0 126 16 126 68c0 109 -298 28 -298 243c0 124 116 170 227 170c62 0 124 -13 167 -34v-135c-18 -4 -37 -4 -54 0l-37 92c-19 6 -47 10 -76 10c-55 0 -112 -16 -112 -70c0 -118 302 -38 302 -240
c0 -130 -128 -173 -242 -173c-68 0 -136 15 -181 41z" />
    <glyph glyph-name="Sacute.sc" unicode="&#xe083;" horiz-adv-x="548" 
d="M72 31v140c17 3 37 3 54 0l37 -101c20 -6 53 -11 87 -11c61 0 126 16 126 68c0 109 -298 28 -298 243c0 124 116 170 227 170c62 0 124 -13 167 -34v-135c-18 -4 -37 -4 -54 0l-37 92c-19 6 -47 10 -76 10c-55 0 -112 -16 -112 -70c0 -118 302 -38 302 -240
c0 -130 -128 -173 -242 -173c-68 0 -136 15 -181 41zM230 625l132 147c27 -21 44 -40 62 -66l-154 -123c-15 10 -30 26 -40 42z" />
    <glyph glyph-name="Scaron.sc" unicode="&#xe084;" horiz-adv-x="548" 
d="M72 31v140c17 3 37 3 54 0l37 -101c20 -6 53 -11 87 -11c61 0 126 16 126 68c0 109 -298 28 -298 243c0 124 116 170 227 170c62 0 124 -13 167 -34v-135c-18 -4 -37 -4 -54 0l-37 92c-19 6 -47 10 -76 10c-55 0 -112 -16 -112 -70c0 -118 302 -38 302 -240
c0 -130 -128 -173 -242 -173c-68 0 -136 15 -181 41zM433 729l-138 -146h-11l-138 145c9 17 22 32 38 44l105 -89l105 89c18 -13 30 -26 39 -43z" />
    <glyph glyph-name="T.sc" unicode="&#xe089;" horiz-adv-x="591" 
d="M469 460h-106v-399l79 -22c3 -13 3 -26 0 -39h-293c-3 13 -3 26 0 39l79 22v399h-106l-36 -97c-17 -4 -36 -4 -54 0v167h527v-167c-18 -4 -37 -4 -54 0z" />
    <glyph glyph-name="Tcaron.sc" unicode="&#xe08d;" horiz-adv-x="591" 
d="M469 460h-106v-399l79 -22c3 -13 3 -26 0 -39h-293c-3 13 -3 26 0 39l79 22v399h-106l-36 -97c-17 -4 -36 -4 -54 0v167h527v-167c-18 -4 -37 -4 -54 0zM439 729l-138 -146h-11l-138 145c9 17 22 32 38 44l105 -89l105 89c18 -13 30 -26 39 -43z" />
    <glyph glyph-name="Tcommaaccent.sc" unicode="&#xe08f;" horiz-adv-x="591" 
d="M469 460h-106v-399l79 -22c3 -13 3 -26 0 -39h-293c-3 13 -3 26 0 39l79 22v399h-106l-36 -97c-17 -4 -36 -4 -54 0v167h527v-167c-18 -4 -37 -4 -54 0zM216 -207c29 32 38 80 38 125c0 12 -1 23 -2 34c15 2 30 3 45 3s31 -1 45 -3c5 -85 -23 -146 -89 -182
c-13 3 -28 12 -37 23z" />
    <glyph glyph-name="Thorn.sc" unicode="&#xe092;" horiz-adv-x="582" 
d="M401 266c0 84 -54 87 -143 87v-175c89 0 143 4 143 88zM337 491l-79 -22v-46h47c168 0 234 -39 234 -156c0 -107 -75 -159 -234 -159h-47v-47l79 -22c3 -13 3 -26 0 -39h-293c-3 13 -3 26 0 39l79 22v408l-79 22c-3 13 -3 26 0 39h293c3 -13 3 -26 0 -39z" />
    <glyph glyph-name="U.sc" unicode="&#xe093;" horiz-adv-x="684" 
d="M507 244v225l-78 22c-3 12 -3 27 0 39h220c3 -12 3 -27 0 -39l-72 -21v-236c0 -157 -64 -244 -224 -244c-162 0 -240 69 -240 242v237l-68 22c-3 13 -3 26 0 39h282c3 -13 3 -26 0 -39l-79 -22v-225c0 -118 34 -169 129 -169c92 0 130 54 130 169z" />
    <glyph glyph-name="Uacute.sc" unicode="&#xe094;" horiz-adv-x="684" 
d="M507 244v225l-78 22c-3 12 -3 27 0 39h220c3 -12 3 -27 0 -39l-72 -21v-236c0 -157 -64 -244 -224 -244c-162 0 -240 69 -240 242v237l-68 22c-3 13 -3 26 0 39h282c3 -13 3 -26 0 -39l-79 -22v-225c0 -118 34 -169 129 -169c92 0 130 54 130 169zM307 625l132 147
c27 -21 44 -40 62 -66l-154 -123c-15 10 -30 26 -40 42z" />
    <glyph glyph-name="Ucircumflex.sc" unicode="&#xe096;" horiz-adv-x="684" 
d="M507 244v225l-78 22c-3 12 -3 27 0 39h220c3 -12 3 -27 0 -39l-72 -21v-236c0 -157 -64 -244 -224 -244c-162 0 -240 69 -240 242v237l-68 22c-3 13 -3 26 0 39h282c3 -13 3 -26 0 -39l-79 -22v-225c0 -118 34 -169 129 -169c92 0 130 54 130 169zM359 772h11l138 -147
c-10 -17 -23 -31 -39 -42l-105 89l-105 -89c-16 11 -28 25 -38 42z" />
    <glyph glyph-name="Udieresis.sc" unicode="&#xe097;" horiz-adv-x="684" 
d="M507 244v225l-78 22c-3 12 -3 27 0 39h220c3 -12 3 -27 0 -39l-72 -21v-236c0 -157 -64 -244 -224 -244c-162 0 -240 69 -240 242v237l-68 22c-3 13 -3 26 0 39h282c3 -13 3 -26 0 -39l-79 -22v-225c0 -118 34 -169 129 -169c92 0 130 54 130 169zM309 623
c-19 -2 -37 -3 -55 -3s-37 1 -54 3c-2 18 -3 36 -3 54s1 37 3 55c18 2 36 3 54 3s37 -1 55 -3c2 -18 3 -37 3 -55s-1 -36 -3 -54zM527 623c-19 -2 -37 -3 -55 -3s-37 1 -54 3c-2 18 -3 36 -3 54s1 37 3 55c18 2 36 3 54 3s37 -1 55 -3c2 -18 3 -37 3 -55s-1 -36 -3 -54z" />
    <glyph glyph-name="Ugrave.sc" unicode="&#xe098;" horiz-adv-x="684" 
d="M507 244v225l-78 22c-3 12 -3 27 0 39h220c3 -12 3 -27 0 -39l-72 -21v-236c0 -157 -64 -244 -224 -244c-162 0 -240 69 -240 242v237l-68 22c-3 13 -3 26 0 39h282c3 -13 3 -26 0 -39l-79 -22v-225c0 -118 34 -169 129 -169c92 0 130 54 130 169zM288 772l132 -147
c-10 -17 -25 -32 -40 -42l-154 123c17 25 36 46 62 66z" />
    <glyph glyph-name="Uhungarumlaut.sc" unicode="&#xe099;" horiz-adv-x="684" 
d="M507 244v225l-78 22c-3 12 -3 27 0 39h220c3 -12 3 -27 0 -39l-72 -21v-236c0 -157 -64 -244 -224 -244c-162 0 -240 69 -240 242v237l-68 22c-3 13 -3 26 0 39h282c3 -13 3 -26 0 -39l-79 -22v-225c0 -118 34 -169 129 -169c92 0 130 54 130 169zM196 623l123 150
c26 -19 47 -39 65 -63l-146 -127c-17 10 -31 24 -42 40zM387 623l123 150c26 -19 47 -39 65 -63l-146 -127c-17 10 -31 24 -42 40z" />
    <glyph glyph-name="Umacron.sc" unicode="&#xe09a;" horiz-adv-x="684" 
d="M507 244v225l-78 22c-3 12 -3 27 0 39h220c3 -12 3 -27 0 -39l-72 -21v-236c0 -157 -64 -244 -224 -244c-162 0 -240 69 -240 242v237l-68 22c-3 13 -3 26 0 39h282c3 -13 3 -26 0 -39l-79 -22v-225c0 -118 34 -169 129 -169c92 0 130 54 130 169zM510 620h-293
c-2 12 -3 26 -3 38c0 13 1 25 3 38h293c2 -13 3 -25 3 -38c0 -12 -1 -26 -3 -38z" />
    <glyph glyph-name="Uogonek.sc" unicode="&#xe09b;" horiz-adv-x="684" 
d="M507 244v225l-78 22c-3 12 -3 27 0 39h220c3 -12 3 -27 0 -39l-72 -21v-236c0 -133 -46 -216 -158 -238c-3 -14 -5 -31 -5 -48c0 -44 15 -89 66 -89c14 0 28 4 42 11c10 -16 15 -33 17 -50c-21 -17 -54 -26 -87 -26c-77 0 -113 51 -113 121c0 26 5 52 13 75
c-162 1 -239 69 -239 242v237l-68 22c-3 13 -3 26 0 39h282c3 -13 3 -26 0 -39l-79 -22v-225c0 -118 34 -169 129 -169c92 0 130 54 130 169z" />
    <glyph glyph-name="Uring.sc" unicode="&#xe0a0;" horiz-adv-x="684" 
d="M507 244v225l-78 22c-3 12 -3 27 0 39h220c3 -12 3 -27 0 -39l-72 -21v-236c0 -157 -64 -244 -224 -244c-162 0 -240 69 -240 242v237l-68 22c-3 13 -3 26 0 39h282c3 -13 3 -26 0 -39l-79 -22v-225c0 -118 34 -169 129 -169c92 0 130 54 130 169zM261 682
c0 61 44 100 104 100s105 -39 105 -100s-45 -99 -105 -99s-104 38 -104 99zM318 682c0 -32 19 -55 47 -55s48 23 48 55s-20 56 -48 56s-47 -24 -47 -56z" />
    <glyph glyph-name="V.sc" unicode="&#xe0a2;" horiz-adv-x="671" 
d="M222 469l146 -345h4l146 345l-82 22c-3 12 -3 27 0 39h229c3 -12 3 -27 0 -39l-70 -20l-202 -471h-117l-200 471l-67 20c-3 12 -3 27 0 39h293c3 -12 3 -27 0 -39z" />
    <glyph glyph-name="W.sc" unicode="&#xe0a4;" horiz-adv-x="939" 
d="M224 0l-137 471l-67 20c-3 12 -3 27 0 39h288c3 -12 3 -27 0 -39l-81 -22l92 -315h4l135 368h92l123 -368h5l106 315l-84 22c-3 12 -3 27 0 39h227c3 -12 3 -27 0 -39l-69 -20l-158 -471h-118l-113 343h-4l-123 -343h-118z" />
    <glyph glyph-name="X.sc" unicode="&#xe0b2;" horiz-adv-x="637" 
d="M179 55l56 -16c3 -13 3 -26 0 -39h-224c-3 13 -3 26 0 39l83 20l152 196l-161 220l-63 16c-3 13 -3 25 0 39h289c3 -13 3 -26 0 -39l-60 -16l99 -136l103 134l-62 18c-3 13 -3 26 0 39h224c3 -13 3 -26 0 -39l-75 -19l-147 -192l160 -220l73 -21c3 -13 3 -26 0 -39h-293
c-3 13 -3 26 0 39l60 14l-105 144z" />
    <glyph glyph-name="Y.sc" unicode="&#xe0b4;" horiz-adv-x="628" 
d="M384 196v-135l80 -22c3 -13 3 -26 0 -39h-293c-3 13 -3 26 0 39l79 22v135l-166 275l-67 20c-3 12 -3 27 0 39h293c3 -12 3 -27 0 -39l-70 -20l112 -184h5l108 183l-69 21c-3 12 -3 27 0 39h219c3 -12 3 -27 0 -39l-69 -20z" />
    <glyph glyph-name="Yacute.sc" unicode="&#xe0b5;" horiz-adv-x="628" 
d="M384 196v-135l80 -22c3 -13 3 -26 0 -39h-293c-3 13 -3 26 0 39l79 22v135l-166 275l-67 20c-3 12 -3 27 0 39h293c3 -12 3 -27 0 -39l-70 -20l112 -184h5l108 183l-69 21c-3 12 -3 27 0 39h219c3 -12 3 -27 0 -39l-69 -20zM283 625l132 147c27 -21 44 -40 62 -66
l-154 -123c-15 10 -30 26 -40 42z" />
    <glyph glyph-name="Ydieresis.sc" unicode="&#xe0b7;" horiz-adv-x="628" 
d="M384 196v-135l80 -22c3 -13 3 -26 0 -39h-293c-3 13 -3 26 0 39l79 22v135l-166 275l-67 20c-3 12 -3 27 0 39h293c3 -12 3 -27 0 -39l-70 -20l112 -184h5l108 183l-69 21c-3 12 -3 27 0 39h219c3 -12 3 -27 0 -39l-69 -20zM280 623c-19 -2 -37 -3 -55 -3s-37 1 -54 3
c-2 18 -3 36 -3 54s1 37 3 55c18 2 36 3 54 3s37 -1 55 -3c2 -18 3 -37 3 -55s-1 -36 -3 -54zM498 623c-19 -2 -37 -3 -55 -3s-37 1 -54 3c-2 18 -3 36 -3 54s1 37 3 55c18 2 36 3 54 3s37 -1 55 -3c2 -18 3 -37 3 -55s-1 -36 -3 -54z" />
    <glyph glyph-name="Z.sc" unicode="&#xe0b9;" horiz-adv-x="614" 
d="M559 0h-500v62l308 394v4h-198l-36 -97c-18 -4 -36 -4 -54 0v167h467v-62l-308 -394v-4h232l34 102c17 3 36 3 55 0v-172z" />
    <glyph glyph-name="Zacute.sc" unicode="&#xe0ba;" horiz-adv-x="614" 
d="M559 0h-500v62l308 394v4h-198l-36 -97c-18 -4 -36 -4 -54 0v167h467v-62l-308 -394v-4h232l34 102c17 3 36 3 55 0v-172zM269 625l132 147c27 -21 44 -40 62 -66l-154 -123c-15 10 -30 26 -40 42z" />
    <glyph glyph-name="Zcaron.sc" unicode="&#xe0bb;" horiz-adv-x="614" 
d="M559 0h-500v62l308 394v4h-198l-36 -97c-18 -4 -36 -4 -54 0v167h467v-62l-308 -394v-4h232l34 102c17 3 36 3 55 0v-172zM464 729l-138 -146h-11l-138 145c9 17 22 32 38 44l105 -89l105 89c18 -13 30 -26 39 -43z" />
    <glyph glyph-name="Zdotaccent.sc" unicode="&#xe0bc;" horiz-adv-x="614" 
d="M559 0h-500v62l308 394v4h-198l-36 -97c-18 -4 -36 -4 -54 0v167h467v-62l-308 -394v-4h232l34 102c17 3 36 3 55 0v-172zM258 744c20 2 40 3 60 3s41 -1 61 -3c2 -20 3 -40 3 -60s-1 -40 -3 -60c-20 -2 -41 -3 -61 -3s-40 1 -60 3c-2 20 -3 40 -3 60s1 40 3 60z" />
    <glyph glyph-name="afii10017.sc" unicode="&#xe0c3;" horiz-adv-x="680" 
d="M457 61l-42 98h-218l-42 -98l82 -22c3 -12 3 -27 0 -39h-228c-3 12 -3 27 0 39l69 20l205 471h118l203 -471l67 -20c3 -12 3 -27 0 -39h-293c-3 12 -3 27 0 39zM305 406l-79 -181h160l-77 181h-4z" />
    <glyph glyph-name="afii10018.sc" unicode="&#xe0c4;" horiz-adv-x="617" 
d="M123 61v408l-79 22c-3 13 -3 26 0 39h472v-160c-18 -4 -37 -4 -54 0l-36 90h-168v-145h48c164 0 262 -32 262 -152c0 -117 -97 -163 -262 -163h-262c-3 13 -3 26 0 39zM258 245v-175h25c97 0 148 17 148 87s-51 88 -148 88h-25z" />
    <glyph glyph-name="afii10019.sc" unicode="&#xe0c5;" horiz-adv-x="625" 
d="M287 460h-29v-148h21c79 0 131 7 131 75c0 69 -51 73 -123 73zM299 244h-41v-174h27c81 0 156 3 156 86c0 81 -65 88 -142 88zM44 39l79 22v408l-79 22c-3 13 -3 26 0 39h304c92 0 198 -24 198 -125c0 -66 -50 -112 -116 -118v-4c83 -1 148 -46 148 -128
c0 -117 -112 -155 -217 -155h-317c-3 13 -3 26 0 39z" />
    <glyph glyph-name="afii10020.sc" unicode="&#xe0c6;" horiz-adv-x="546" 
d="M44 39l79 22v408l-79 22c-3 13 -3 26 0 39h475v-167c-17 -4 -36 -4 -53 0l-36 97h-172v-399l79 -22c3 -13 3 -26 0 -39h-293c-3 13 -3 26 0 39z" />
    <glyph glyph-name="afii10021.sc" unicode="&#xe0c8;" horiz-adv-x="684" 
d="M34 70h66c88 98 98 281 103 399l-88 22c-3 13 -3 25 0 39h520c3 -13 3 -26 0 -39l-79 -22v-399h79v-202c-10 -2 -20 -3 -30 -3s-20 1 -29 3l-49 132h-385l-49 -132c-10 -2 -20 -3 -30 -3s-20 1 -29 3v202zM422 460h-149c-12 -204 -28 -293 -86 -390h235v390z" />
    <glyph glyph-name="afii10022.sc" unicode="&#xe0ca;" horiz-adv-x="599" 
d="M123 61v408l-79 22c-3 13 -3 25 0 39h481v-157c-18 -4 -37 -4 -54 0l-34 87h-179v-151h111l19 45c13 3 26 3 39 0v-172c-13 -3 -26 -3 -39 0l-19 60h-111v-172h197l33 97c18 4 38 4 56 0v-167h-500c-3 13 -3 26 0 39z" />
    <glyph glyph-name="afii10023.sc" unicode="&#xe0cb;" horiz-adv-x="599" 
d="M123 61v408l-79 22c-3 13 -3 25 0 39h481v-157c-18 -4 -37 -4 -54 0l-34 87h-179v-151h111l19 45c13 3 26 3 39 0v-172c-13 -3 -26 -3 -39 0l-19 60h-111v-172h197l33 97c18 4 38 4 56 0v-167h-500c-3 13 -3 26 0 39zM254 623c-19 -2 -37 -3 -55 -3s-37 1 -54 3
c-2 18 -3 36 -3 54s1 37 3 55c18 2 36 3 54 3s37 -1 55 -3c2 -18 3 -37 3 -55s-1 -36 -3 -54zM472 623c-19 -2 -37 -3 -55 -3s-37 1 -54 3c-2 18 -3 36 -3 54s1 37 3 55c18 2 36 3 54 3s37 -1 55 -3c2 -18 3 -37 3 -55s-1 -36 -3 -54z" />
    <glyph glyph-name="afii10024.sc" unicode="&#xe0cc;" horiz-adv-x="1005" 
d="M639 491l-69 -22v-408l73 -22c3 -13 3 -26 0 -39h-287c-3 13 -3 26 0 39l80 22v408l-80 22c-3 13 -3 26 0 39h283c3 -13 3 -26 0 -39zM988 0h-195l-208 264v4l198 209l-54 14c-3 12 -3 25 0 39h234c3 -13 3 -26 0 -39l-91 -22l-152 -160l197 -248l71 -22
c3 -13 3 -26 0 -39zM212 0h-195c-3 13 -3 26 0 39l71 22l197 248l-152 160l-91 22c-3 13 -3 26 0 39h234c3 -14 3 -27 0 -39l-54 -14l199 -209v-4z" />
    </font>
</defs>
</svg>
