<?xml version="1.0" standalone="no"?>
<!DOCTYPE svg PUBLIC "-//W3C//DTD SVG 1.1//EN" "http://www.w3.org/Graphics/SVG/1.1/DTD/svg11.dtd" >
<svg>
<metadata>
Created by FontForge 20120731 at Wed Sep 18 04:06:50 2013
 By Stefan Warting
Copyright (c) 2009 by Vedran Erakovic. All rights reserved. Published by Parachute : Worldwide for the Parachute : Font Library.
</metadata>
<defs>
<font id="PFAdamantPro-LightItalic" horiz-adv-x="356" >
  <font-face 
    font-family="PF Adamant Pro Light"
    font-weight="300"
    font-style="italic"
    font-stretch="normal"
    units-per-em="1000"
    panose-1="2 0 5 3 0 0 0 9 0 4"
    ascent="770"
    descent="-230"
    x-height="530"
    cap-height="720"
    bbox="-190 -230 1186 937"
    underline-thickness="50"
    underline-position="-50"
    slope="-11"
    stemh="57"
    stemv="74"
    unicode-range="U+0020-FB04"
  />
<missing-glyph horiz-adv-x="500" 
d="M500 0h-500v750h500v-750zM88 690l161 -262l160 262h-321zM284 371l156 -255v510zM249 314l-156 -254h311zM214 371l-154 252v-504z" />
    <glyph glyph-name="f_i" unicode="fi" horiz-adv-x="625" 
d="M552 488l-81 -436l86 10c5 -12 6 -29 5 -41l-123 -28c-37 -8 -49 8 -44 37l84 455h-240l-65 -378c-19 -111 -53 -206 -143 -272c-31 -22 -66 -35 -99 -35c-35 0 -70 11 -88 53c9 16 21 30 34 41c22 -24 51 -43 92 -43c76 0 106 113 133 266l64 368h-87c-1 12 1 25 6 35
l91 13l5 27c25 133 105 200 237 200c46 0 95 -10 145 -28l-19 -99c-13 -3 -27 -3 -40 0l-12 75c-23 4 -46 7 -68 7c-78 0 -148 -32 -169 -141l-8 -41h264c28 0 48 0 40 -45z" />
    <glyph glyph-name="f_l" unicode="fl" horiz-adv-x="625" 
d="M593 713l-123 -661l96 13c5 -13 6 -27 5 -40l-132 -32c-42 -10 -48 16 -43 43l122 663c-28 11 -56 16 -85 16c-82 0 -159 -45 -177 -141l-8 -43h129c0 -16 -3 -32 -8 -47h-130l-65 -377c-20 -117 -53 -205 -143 -273c-32 -24 -69 -34 -99 -34c-35 0 -70 11 -88 53
c9 16 21 30 34 41c22 -24 51 -43 92 -43c76 0 106 113 133 266l64 367h-87c0 9 2 25 6 34l91 13l5 29c22 129 111 200 237 200c55 0 114 -15 174 -47z" />
    <glyph glyph-name="f_b" unicode="fb" horiz-adv-x="894" 
d="M557 40c161 0 227 180 227 320c0 47 -8 114 -70 114c-105 0 -199 -218 -227 -345l-16 -74c26 -11 61 -15 86 -15zM405 -10h-18l131 709c-28 12 -57 18 -86 18c-81 0 -158 -48 -176 -143l-8 -43h129c0 -16 -3 -33 -8 -47h-130l-65 -377c-19 -111 -53 -206 -143 -272
c-31 -22 -66 -35 -99 -35c-35 0 -70 11 -88 53c9 16 21 30 34 41c22 -24 51 -43 92 -43c76 0 106 113 133 266l64 367h-87c0 11 1 23 6 34l91 13l5 29c24 141 128 200 237 200c59 0 120 -17 174 -47l-65 -348l4 -1c35 77 116 173 211 173c94 0 115 -100 115 -173
c0 -169 -86 -374 -284 -374c-38 0 -77 8 -114 28c-7 -20 -22 -28 -55 -28z" />
    <glyph glyph-name="f_h" unicode="fh" horiz-adv-x="944" 
d="M390 0l128 699c-28 12 -57 18 -86 18c-81 0 -158 -48 -176 -143l-8 -43h129c0 -16 -3 -33 -8 -47h-130l-65 -377c-19 -111 -53 -206 -143 -272c-31 -22 -66 -35 -99 -35c-35 0 -70 11 -88 53c9 16 21 30 34 41c22 -24 51 -43 92 -43c76 0 106 113 133 266l64 367h-87
c0 11 1 23 6 34l91 13l5 29c24 141 128 200 237 200c59 0 120 -17 174 -47l-67 -363l4 -1c46 97 120 191 213 191c82 0 109 -58 109 -129c0 -21 -2 -42 -6 -64l-54 -295l86 10c5 -12 6 -29 5 -41l-127 -29c-39 -9 -44 17 -39 44l48 263c5 28 12 67 12 96c0 45 -13 82 -62 82
c-95 0 -203 -227 -239 -399l-17 -80l-60 -8z" />
    <glyph glyph-name="f_j" unicode="fj" horiz-adv-x="614" 
d="M392 14l87 471h-240l-65 -378c-19 -111 -53 -206 -143 -272c-31 -22 -66 -35 -99 -35c-35 0 -70 11 -88 53c9 16 21 30 34 41c22 -24 51 -43 92 -43c76 0 107 113 133 266l64 368h-87c-1 12 1 25 6 35l91 13l5 28c25 138 129 199 245 199c46 0 93 -10 137 -28l-19 -99
c-13 -3 -27 -3 -40 0l-12 75c-20 5 -40 7 -59 7c-88 0 -160 -46 -178 -140l-8 -42h264c27 0 48 0 40 -45l-95 -513c-24 -127 -93 -173 -189 -182c-5 10 -8 21 -7 33c91 29 110 73 131 188z" />
    <glyph glyph-name="f_k" unicode="fk" horiz-adv-x="872" 
d="M390 0l128 699c-28 11 -57 17 -86 17c-82 0 -158 -47 -176 -142l-8 -43h129c0 -16 -2 -31 -8 -47h-130l-65 -377c-19 -111 -53 -206 -143 -272c-31 -22 -66 -35 -99 -35c-35 0 -70 11 -88 53c9 16 21 30 34 41c22 -24 51 -43 92 -43c76 0 107 113 133 266l64 367h-87
c0 11 1 23 6 34l91 13l5 29c25 142 125 200 235 200c59 0 122 -17 176 -47l-134 -715l-60 -8zM689 11l-161 263l172 200c25 30 57 66 92 66c22 0 57 -27 81 -55c-2 -10 -8 -19 -16 -26c-14 9 -29 13 -43 13c-34 0 -66 -21 -115 -75l-97 -107l144 -233l80 39
c9 -8 16 -20 19 -35l-103 -64c-20 -12 -38 -10 -53 14z" />
    <glyph glyph-name="f_t" unicode="ft" horiz-adv-x="651" 
d="M248 531h241l31 166c-29 13 -59 19 -89 19c-81 0 -157 -47 -175 -142zM407 127l72 357h-240l-65 -377c-19 -111 -53 -206 -143 -272c-31 -22 -66 -35 -99 -35c-35 0 -70 11 -88 53c9 16 21 30 34 41c22 -24 51 -43 92 -43c76 0 107 113 133 266l64 367h-87
c0 11 1 23 6 34l91 13l5 29c24 140 124 200 232 200c61 0 125 -19 180 -53l-33 -176h125c0 -16 -3 -31 -8 -47h-127l-67 -332c-3 -15 -7 -35 -7 -53c0 -28 9 -52 46 -52c35 0 77 19 90 27c6 -13 8 -26 8 -39c-41 -29 -92 -45 -130 -45c-65 0 -89 43 -89 94c0 14 2 28 5 43z
" />
    <glyph glyph-name="f_f" unicode="ff" horiz-adv-x="633" 
d="M678 484h-129l-66 -377c-19 -111 -52 -206 -143 -272c-31 -22 -64 -35 -98 -35c-35 0 -70 11 -88 53c8 16 20 30 34 41c21 -24 50 -43 92 -43c76 0 106 113 133 266l64 367h-238l-65 -377c-19 -111 -53 -206 -143 -272c-31 -22 -64 -35 -99 -35s-70 11 -88 53
c9 16 21 30 34 41c22 -24 51 -43 92 -43c76 0 106 113 133 266l64 367h-87c0 11 1 23 6 34l91 13l5 29c25 144 125 200 236 200c50 0 102 -12 151 -37c31 26 69 37 110 37c26 0 55 -4 85 -12l-14 -102c-13 -3 -27 -3 -40 0l-16 70c-83 8 -108 -35 -126 -128l-11 -57h130
c0 -16 -3 -31 -9 -47zM486 531l8 43c10 50 24 84 44 115c-34 17 -71 26 -107 26c-80 0 -157 -44 -175 -141l-8 -43h238z" />
    <glyph glyph-name="f_f_i" unicode="ffi" horiz-adv-x="933" 
d="M779 52l86 10c5 -12 6 -29 5 -41l-126 -29c-40 -9 -44 17 -39 44l83 449h-240l-66 -378c-19 -111 -52 -206 -143 -272c-30 -22 -64 -35 -98 -35c-35 0 -70 11 -88 53c8 16 20 30 34 41c21 -24 50 -43 92 -43c76 0 106 113 133 266l64 368h-237l-65 -378
c-19 -111 -53 -206 -143 -272c-31 -22 -64 -35 -99 -35c-34 0 -69 11 -88 53c9 16 21 30 34 41c22 -24 51 -43 92 -43c76 0 106 113 133 266l64 368h-87c-1 12 1 25 6 35l91 13l5 27c23 125 108 200 237 200c51 0 107 -14 162 -42c42 30 93 42 146 42c49 0 99 -11 145 -28
l-18 -99c-13 -3 -27 -3 -40 0l-13 75c-23 5 -46 8 -69 8c-77 0 -147 -34 -168 -142l-8 -41h264c25 0 49 0 41 -45zM248 533h237l12 52c10 42 25 73 48 101c-36 19 -77 29 -116 29c-80 0 -153 -43 -173 -141z" />
    <glyph glyph-name="f_f_l" unicode="ffl" horiz-adv-x="933" 
d="M256 574l-8 -43h237l6 29c11 54 28 93 56 124c-37 20 -79 31 -119 31c-80 0 -154 -43 -172 -141zM901 713l-122 -661l96 13c5 -12 6 -28 5 -40l-137 -33c-39 -9 -43 17 -38 44l121 663c-28 12 -58 18 -87 18c-81 0 -155 -48 -174 -143l-9 -43h130c0 -16 -3 -32 -9 -47
h-130l-65 -377c-19 -111 -52 -206 -143 -272c-31 -22 -65 -35 -98 -35c-35 0 -70 11 -88 53c8 16 20 30 34 41c21 -24 50 -43 92 -43c76 0 107 113 133 266l63 367h-236l-65 -377c-19 -111 -53 -206 -143 -272c-31 -22 -66 -35 -99 -35c-35 0 -70 11 -88 53
c9 16 21 30 34 41c22 -24 51 -43 92 -43c76 0 106 113 133 266l64 367h-87c-1 11 1 24 6 34l91 13l5 29c22 126 110 200 237 200c51 0 108 -13 164 -44c38 27 89 44 144 44c56 0 114 -15 174 -47z" />
    <glyph glyph-name="f_f.alt" unicode="&#xe1b6;&#xe1b6;" horiz-adv-x="633" 
d="M678 484h-129l-66 -377c-19 -111 -52 -206 -143 -272c-31 -22 -64 -35 -98 -35c-35 0 -70 11 -88 53c8 16 20 30 34 41c21 -24 50 -43 92 -43c76 0 106 113 133 266l64 367h-238l-65 -377c-19 -111 -53 -206 -143 -272c-31 -22 -64 -35 -99 -35s-70 11 -88 53
c9 16 21 30 34 41c22 -24 51 -43 92 -43c76 0 106 113 133 266l64 367h-87c0 11 1 23 6 34l91 13l5 29c25 144 125 200 236 200c50 0 102 -12 151 -37c31 26 69 37 110 37c26 0 55 -4 85 -12c-1 -17 -6 -32 -13 -47c-24 6 -45 9 -62 9c-74 0 -107 -47 -121 -122l-11 -57h130
c0 -16 -3 -31 -9 -47zM486 531l8 43c10 50 24 84 44 115c-34 17 -71 26 -107 26c-80 0 -157 -44 -175 -141l-8 -43h238z" />
    <glyph glyph-name=".notdef" horiz-adv-x="500" 
d="M500 0h-500v750h500v-750zM88 690l161 -262l160 262h-321zM284 371l156 -255v510zM249 314l-156 -254h311zM214 371l-154 252v-504z" />
    <glyph glyph-name=".null" horiz-adv-x="0" 
 />
    <glyph glyph-name="space" unicode=" " horiz-adv-x="277" 
 />
    <glyph glyph-name="exclam" unicode="!" horiz-adv-x="302" 
d="M88 94c18 4 37 6 56 6c10 0 25 -1 36 -3c1 -33 -5 -63 -17 -94c-16 -4 -34 -6 -51 -6c-11 0 -26 1 -37 3c-1 33 3 61 13 94zM291 700l-112 -502c-18 -4 -37 -4 -54 0l74 502c11 2 29 4 46 4s36 -2 46 -4z" />
    <glyph glyph-name="quotedbl" unicode="&#x22;" horiz-adv-x="345" 
d="M385 757l-56 -231c-19 -4 -37 -4 -56 0l31 231c14 2 27 3 41 3c13 0 26 -1 40 -3zM235 757l-56 -231c-18 -4 -38 -4 -56 0l31 231c13 2 27 3 40 3c14 0 26 -1 41 -3z" />
    <glyph glyph-name="numbersign" unicode="#" horiz-adv-x="562" 
d="M69 0l63 197h-97c-2 20 -1 41 5 61h111l62 189h-103c-1 21 1 41 6 62h117l63 191c7 1 19 2 28 2c10 0 22 -1 29 -2l-63 -191h129l63 191c7 1 19 2 28 2c10 0 22 -1 29 -2l-63 -191h93c2 -20 0 -41 -6 -62h-108l-61 -189h99c2 -19 1 -40 -5 -61h-113l-63 -197
c-19 -4 -38 -4 -57 0l63 197h-129l-63 -197c-20 -4 -40 -4 -57 0zM269 447l-61 -189h129l62 189h-130z" />
    <glyph glyph-name="dollar" unicode="$" horiz-adv-x="562" 
d="M198 -72l17 90c-69 6 -137 28 -178 66l25 134c12 3 24 3 36 0l20 -121c30 -18 75 -28 122 -28c93 0 191 38 191 124c0 150 -306 100 -306 309c0 122 107 174 217 182l18 83c17 3 35 3 52 0l-17 -83c58 -5 114 -20 152 -44l-22 -131c-12 -3 -25 -3 -37 0l-16 109
c-27 9 -65 15 -104 15c-83 0 -169 -28 -169 -115c0 -167 308 -113 308 -302c0 -130 -116 -193 -240 -200l-17 -88c-17 -3 -35 -3 -52 0z" />
    <glyph glyph-name="percent" unicode="%" horiz-adv-x="846" 
d="M160 0l528 730c19 -11 32 -21 43 -32l-526 -730c-19 8 -32 18 -45 32zM282 710c93 0 120 -70 120 -143c0 -113 -57 -267 -196 -267c-87 0 -120 74 -120 142c0 114 47 268 196 268zM274 672c-90 0 -116 -156 -116 -228c0 -32 6 -106 59 -106c87 0 113 169 113 245
c0 33 -10 89 -56 89zM692 400c93 0 120 -70 120 -143c0 -113 -57 -267 -197 -267c-86 0 -119 74 -119 142c0 114 46 268 196 268zM683 362c-90 0 -115 -156 -115 -228c0 -32 5 -106 58 -106c88 0 114 169 114 245c0 33 -10 89 -57 89z" />
    <glyph glyph-name="ampersand" unicode="&#x26;" horiz-adv-x="693" 
d="M430 589c0 50 -40 94 -92 94c-67 0 -97 -54 -97 -114c0 -34 9 -67 29 -99l34 -53c67 35 126 93 126 172zM412 124l-165 232c-72 -26 -126 -79 -126 -155c0 -93 61 -142 141 -142c53 0 110 27 150 65zM641 0h-140l-55 77c-52 -49 -128 -87 -212 -87
c-107 0 -189 77 -189 190c0 107 80 170 176 212c-30 45 -52 87 -52 140c0 99 79 198 185 198c79 0 153 -48 153 -131c0 -104 -88 -175 -179 -218l137 -197c38 59 62 126 67 216h146c2 -13 0 -25 -4 -36l-81 -23c-16 -72 -49 -145 -95 -206l56 -79l89 -22c2 -10 2 -22 -2 -34
z" />
    <glyph glyph-name="quotesingle" unicode="'" horiz-adv-x="195" 
d="M235 757l-56 -231c-18 -4 -38 -4 -56 0l31 231c13 2 27 3 40 3c14 0 26 -1 41 -3z" />
    <glyph glyph-name="parenleft" unicode="(" horiz-adv-x="369" 
d="M406 722c-203 -98 -257 -360 -257 -575c0 -114 27 -222 106 -308c-7 -16 -18 -30 -34 -40c-111 89 -145 209 -145 342c0 234 66 542 311 620c9 -13 15 -25 19 -39z" />
    <glyph glyph-name="parenright" unicode=")" horiz-adv-x="369" 
d="M-24 -162c203 98 257 358 257 575c0 114 -27 222 -106 308c7 16 19 30 34 40c111 -89 145 -209 145 -342c0 -234 -67 -543 -311 -620c-10 12 -16 24 -19 39z" />
    <glyph glyph-name="asterisk" unicode="*" horiz-adv-x="530" 
d="M172 700l138 -123c-7 -15 -18 -27 -31 -35l-143 114c9 15 21 31 36 44zM102 484l176 53c8 -13 14 -28 16 -44l-174 -64c-9 18 -15 37 -18 55zM261 320l38 170c19 0 34 -3 47 -9l-28 -172c-19 1 -39 4 -57 11zM490 359l-139 123c10 16 21 27 31 35l144 -115
c-8 -15 -20 -31 -36 -43zM560 574l-176 -51c-8 13 -13 27 -16 43l174 63c9 -17 15 -36 18 -55zM401 738l-39 -169c-15 0 -31 2 -46 8l29 172c20 -1 38 -4 56 -11z" />
    <glyph glyph-name="plus" unicode="+" horiz-adv-x="657" 
d="M598 240h-237v-240c-11 -2 -23 -3 -33 -3c-12 0 -22 1 -33 3v240h-236c-2 11 -3 21 -3 32s1 22 3 33h236v235c11 2 21 3 33 3c10 0 21 -1 33 -3v-235h237c2 -12 3 -23 3 -33c0 -11 -1 -21 -3 -32z" />
    <glyph glyph-name="comma" unicode="," horiz-adv-x="246" 
d="M4 -105c44 48 66 110 68 200c14 2 28 3 42 3s28 -1 42 -3c-5 -113 -48 -182 -126 -225c-12 5 -21 14 -26 25z" />
    <glyph glyph-name="hyphen" unicode="-" horiz-adv-x="406" 
d="M359 258h-288c0 22 3 45 11 67h288c0 -22 -3 -45 -11 -67z" />
    <glyph glyph-name="period" unicode="." horiz-adv-x="246" 
d="M140 3c-17 -4 -34 -6 -50 -6c-12 0 -24 1 -35 3c0 30 4 61 14 91c16 3 33 5 49 5c13 0 26 -1 39 -3c0 -31 -5 -60 -17 -90z" />
    <glyph glyph-name="slash" unicode="/" horiz-adv-x="420" 
d="M469 750l2 -4l-405 -801h-64l-2 4l405 801h64z" />
    <glyph glyph-name="zero" unicode="0" horiz-adv-x="562" 
d="M360 654c-175 0 -219 -279 -219 -408c0 -71 7 -201 110 -201c193 0 219 334 219 447c0 76 -21 162 -110 162zM371 710c140 0 172 -131 172 -249c0 -185 -73 -471 -300 -471c-131 0 -176 121 -176 240c0 183 63 480 304 480z" />
    <glyph glyph-name="one" unicode="1" horiz-adv-x="562" 
d="M322 631h-122c-5 14 -6 28 -5 42l152 34c52 12 61 -5 52 -52l-110 -596l127 -25c2 -13 0 -24 -4 -34h-325c-2 12 -1 23 3 34l127 25z" />
    <glyph glyph-name="two" unicode="2" horiz-adv-x="562" 
d="M153 74h333c2 -28 -3 -54 -11 -74h-447l3 34l219 209c82 79 189 179 189 284c0 91 -79 128 -156 128c-26 0 -51 -4 -73 -12l-36 -113c-13 -3 -27 -3 -40 0v123c47 38 115 57 178 57c106 0 210 -55 210 -166c0 -138 -111 -234 -217 -329l-153 -138z" />
    <glyph glyph-name="three" unicode="3" horiz-adv-x="562" 
d="M142 542v123c43 29 111 45 178 45c107 0 201 -44 201 -158c0 -90 -56 -160 -147 -174v-5c74 -16 121 -81 121 -154c0 -144 -128 -229 -262 -229c-69 0 -137 19 -191 51l20 130c14 3 28 3 40 0l22 -106c28 -10 59 -15 91 -15c102 0 205 53 205 164c0 93 -94 128 -182 128
h-57c-1 18 2 38 9 55h46c103 0 211 36 211 145c0 80 -75 111 -149 111c-28 0 -57 -5 -80 -13l-36 -98c-13 -3 -27 -3 -40 0z" />
    <glyph glyph-name="four" unicode="4" horiz-adv-x="562" 
d="M111 257l1 -3h242l57 317h-4zM464 710h46l-83 -456h95c2 -18 -1 -36 -7 -52h-97l-27 -143l90 -25c1 -11 0 -23 -4 -34h-269c-2 12 0 25 4 34l107 25l25 143h-319l7 50z" />
    <glyph glyph-name="five" unicode="5" horiz-adv-x="562" 
d="M64 44l22 127c13 3 27 3 40 0l20 -104c28 -14 57 -20 87 -20c104 0 205 79 205 193c0 108 -103 143 -200 143c-32 0 -63 -4 -90 -10l-7 3l62 318l7 6h333c0 -26 -7 -53 -16 -74h-280l-38 -192c22 4 45 6 68 6c119 0 235 -57 235 -190c0 -154 -126 -260 -273 -260
c-60 0 -122 18 -175 54z" />
    <glyph glyph-name="six" unicode="6" horiz-adv-x="562" 
d="M314 405c-102 0 -151 -110 -151 -207c0 -77 33 -153 120 -153c114 0 151 113 151 208c0 78 -32 152 -120 152zM343 459c124 0 166 -100 166 -199c0 -152 -83 -270 -228 -270c-131 0 -191 107 -191 234c0 256 153 486 405 486c18 0 37 -1 55 -3c1 -17 -3 -36 -10 -52
c-11 1 -23 2 -33 2c-157 0 -288 -107 -326 -271l4 -3c52 62 111 76 158 76z" />
    <glyph glyph-name="seven" unicode="7" horiz-adv-x="562" 
d="M143 700h422l-9 -59l-387 -651c-26 6 -49 19 -68 39l387 594l-1 3h-297l-32 -67c-13 -3 -27 -3 -40 0z" />
    <glyph glyph-name="eight" unicode="8" horiz-adv-x="562" 
d="M67 176c0 94 69 163 162 193v4c-57 37 -97 87 -97 159c0 117 102 178 204 178c100 0 199 -59 199 -174c0 -80 -58 -156 -139 -177v-4c60 -39 109 -89 109 -165c0 -130 -120 -200 -233 -200c-103 0 -205 63 -205 186zM275 342c-77 -17 -130 -95 -130 -167
c0 -68 44 -130 133 -130c79 0 151 49 151 131c0 85 -84 128 -154 166zM202 544c0 -80 86 -126 148 -161c64 17 110 84 110 149c0 72 -59 122 -127 122c-64 0 -131 -37 -131 -110z" />
    <glyph glyph-name="nine" unicode="9" horiz-adv-x="562" 
d="M330 655c-114 0 -151 -112 -151 -202c0 -72 32 -147 115 -147c107 0 156 106 156 197c0 76 -33 152 -120 152zM430 321l-4 3c-42 -53 -99 -73 -158 -73c-109 0 -164 90 -164 195c0 147 83 265 228 265c131 0 191 -105 191 -232c0 -248 -138 -489 -402 -489
c-16 0 -32 1 -48 3c0 18 4 37 10 52c9 -1 21 -2 31 -2c164 0 285 123 316 278z" />
    <glyph glyph-name="colon" unicode=":" horiz-adv-x="246" 
d="M140 3c-17 -4 -34 -6 -50 -6c-12 0 -24 1 -35 3c0 30 4 61 14 91c16 3 33 5 49 5c13 0 26 -1 39 -3c0 -31 -5 -60 -17 -90zM210 442c-17 -4 -34 -6 -50 -6c-12 0 -24 1 -35 3c0 30 4 61 14 91c16 3 33 5 49 5c13 0 26 -1 39 -3c0 -31 -5 -60 -17 -90z" />
    <glyph glyph-name="semicolon" unicode=";" horiz-adv-x="246" 
d="M2 -105c44 48 66 110 68 200c14 2 28 3 42 3s28 -1 42 -3c-5 -113 -48 -182 -126 -225c-12 5 -21 14 -26 25zM210 442c-17 -4 -34 -6 -50 -6c-12 0 -24 1 -35 3c0 30 4 61 14 91c16 3 33 5 49 5c13 0 26 -1 39 -3c0 -31 -5 -60 -17 -90z" />
    <glyph glyph-name="less" unicode="&#x3c;" horiz-adv-x="657" 
d="M570 -10l-511 247c-2 9 -3 19 -3 28s1 18 3 28l511 248c14 -20 24 -41 30 -63l-442 -211v-4l442 -211c-6 -23 -16 -44 -30 -62z" />
    <glyph glyph-name="equal" unicode="=" horiz-adv-x="657" 
d="M597 321h-538c-2 10 -3 21 -3 32c0 10 1 22 3 32h538c2 -11 3 -22 3 -32c0 -11 -1 -23 -3 -32zM597 159h-538c-2 11 -3 22 -3 32c0 11 1 22 3 33h538c2 -12 3 -22 3 -33c0 -10 -1 -22 -3 -32z" />
    <glyph glyph-name="greater" unicode="&#x3e;" horiz-adv-x="657" 
d="M597 237l-511 -247c-14 18 -24 39 -30 62l442 211v4l-442 211c6 22 16 43 30 63l511 -248c2 -10 3 -19 3 -28s-1 -19 -3 -28z" />
    <glyph glyph-name="question" unicode="?" horiz-adv-x="434" 
d="M112 522v126c41 34 115 62 185 62c94 0 170 -55 170 -152c0 -110 -64 -159 -132 -199s-139 -69 -155 -160c-19 -4 -37 -4 -56 0c-6 209 260 162 260 347c0 59 -46 104 -121 104c-23 0 -48 -5 -73 -16l-36 -112c-14 -3 -28 -3 -42 0zM97 94c18 4 37 6 56 6
c10 0 25 -1 36 -3c1 -33 -5 -63 -17 -94c-16 -4 -34 -6 -51 -6c-11 0 -26 1 -37 3c-1 33 3 61 13 94z" />
    <glyph glyph-name="at" unicode="@" horiz-adv-x="868" 
d="M567 389l5 22c-12 5 -34 7 -48 7c-141 0 -201 -130 -201 -232c0 -56 22 -72 47 -72c102 0 189 238 197 275zM532 210l-4 1c-34 -67 -96 -147 -187 -147c-66 0 -87 63 -87 123c0 126 86 277 248 277c25 0 59 -7 78 -20c10 14 24 20 38 20h24l-46 -243c-1 -8 -7 -34 -7 -60
c0 -24 5 -56 35 -56c98 0 131 156 131 218c0 160 -98 275 -270 275c-181 0 -329 -144 -329 -371c0 -177 115 -299 279 -299c57 0 119 9 164 35c8 -14 13 -29 15 -42c-59 -33 -122 -44 -190 -44c-189 0 -343 125 -343 344c0 235 166 425 412 425c199 0 325 -131 325 -314
c0 -131 -78 -269 -211 -269c-59 0 -83 31 -83 89c0 15 2 31 8 58z" />
    <glyph glyph-name="A" unicode="A" horiz-adv-x="721" 
d="M526 59l-25 168h-274l-97 -171l89 -22c1 -11 -1 -23 -6 -34h-234c-1 11 1 23 6 34l78 20l376 654l52 22l11 -5l100 -670l74 -21c2 -11 0 -24 -4 -34h-248c-2 11 0 24 4 34zM445 598h-4l-180 -314h231z" />
    <glyph glyph-name="B" unicode="B" horiz-adv-x="625" 
d="M349 662h-56l-46 -254h37c121 0 235 15 235 144c0 97 -84 110 -170 110zM327 350h-91l-54 -293h57c148 0 260 25 260 163c0 100 -76 130 -172 130zM106 56l111 606l-95 24c-2 12 0 24 4 34h219c117 0 252 -22 252 -162c0 -89 -62 -156 -149 -171v-4
c79 -11 132 -83 132 -156c0 -180 -156 -227 -351 -227h-220c-2 11 -2 23 2 34z" />
    <glyph glyph-name="C" unicode="C" horiz-adv-x="618" 
d="M480 71l60 118c14 3 28 3 42 0l-28 -138c-55 -38 -134 -61 -211 -61c-169 0 -273 102 -273 293c0 243 149 447 402 447c59 0 117 -14 158 -42l-21 -141c-14 -3 -28 -3 -42 0l-19 113c-30 8 -59 12 -87 12c-192 0 -314 -180 -314 -392c0 -150 97 -227 226 -227
c35 0 71 6 107 18z" />
    <glyph glyph-name="D" unicode="D" horiz-adv-x="705" 
d="M353 662h-55l-120 -605h68c249 0 364 150 364 369c0 158 -84 236 -257 236zM104 59l117 602l-95 25c-1 12 0 24 4 34h225c216 0 334 -89 334 -282c0 -274 -148 -438 -453 -438h-231c-2 12 0 24 4 34z" />
    <glyph glyph-name="E" unicode="E" horiz-adv-x="629" 
d="M106 59l111 602l-95 25c-1 11 0 23 4 34h501l-23 -155c-14 -3 -28 -3 -42 0l-16 98h-252l-47 -256h192l33 65c11 3 21 3 32 0l-33 -206c-11 -3 -21 -3 -32 0l-12 84h-190l-54 -293h296l52 102c14 3 28 3 42 0l-24 -159h-540c-2 11 -2 23 2 34z" />
    <glyph glyph-name="F" unicode="F" horiz-adv-x="584" 
d="M106 59l111 602l-95 25c-1 11 0 23 4 34h503l-23 -155c-14 -3 -28 -3 -42 0l-17 98h-253l-52 -287h197l33 64c11 3 21 3 32 0l-33 -205c-11 -3 -21 -3 -32 0l-12 84h-196l-47 -260l90 -25c2 -11 1 -23 -3 -34h-257c-2 11 -2 23 2 34z" />
    <glyph glyph-name="G" unicode="G" horiz-adv-x="694" 
d="M497 77l40 213l-110 25c-1 11 0 22 5 33h239c1 -11 0 -22 -5 -33l-53 -16l-59 -309h-18c-28 0 -40 12 -44 25c-39 -17 -90 -25 -138 -25c-172 0 -284 98 -284 293c0 264 172 447 411 447c64 0 124 -13 171 -42l-21 -141c-14 -3 -28 -3 -42 0l-19 113c-32 8 -63 12 -92 12
c-196 0 -330 -162 -330 -392c0 -149 102 -227 239 -227c40 0 80 8 110 24z" />
    <glyph glyph-name="H" unicode="H" horiz-adv-x="767" 
d="M640 661l-90 25c-2 12 0 24 4 34h256c2 -11 0 -23 -4 -34l-90 -25l-109 -602l90 -25c2 -12 1 -23 -3 -34h-256c-2 12 -1 23 3 34l90 25l52 292h-347l-52 -292l90 -25c2 -11 1 -23 -3 -34h-256c-2 11 -1 23 3 34l90 25l109 602l-90 25c-1 11 0 23 4 34h256
c2 -12 0 -24 -4 -34l-90 -25l-46 -253h347z" />
    <glyph glyph-name="I" unicode="I" horiz-adv-x="344" 
d="M217 661l-90 25c-2 13 0 24 4 34h256c2 -13 0 -24 -4 -34l-90 -25l-109 -602l90 -25c2 -12 1 -23 -3 -34h-256c-2 12 -1 23 3 34l90 25z" />
    <glyph glyph-name="J" unicode="J" horiz-adv-x="350" 
d="M119 71l109 590l-90 25c-2 13 0 24 4 34h256c2 -13 0 -24 -4 -34l-90 -25l-116 -627c-28 -149 -112 -199 -220 -199c-4 11 -5 27 -2 39c103 21 130 70 153 197z" />
    <glyph glyph-name="K" unicode="K" horiz-adv-x="679" 
d="M632 0h-127l-233 374l1 6l290 290l-55 16c-2 12 -1 23 3 34h225c2 -11 2 -22 -2 -34l-102 -29l-277 -272l203 -326l77 -25c2 -15 0 -25 -3 -34zM217 661l-90 25c-2 13 0 24 4 34h256c2 -13 0 -24 -4 -34l-90 -25l-109 -602l90 -25c2 -11 1 -23 -3 -34h-256
c-2 12 -1 23 3 34l90 25z" />
    <glyph glyph-name="L" unicode="L" horiz-adv-x="562" 
d="M10 34l96 25l111 602l-90 25c-2 13 0 24 4 34h256c2 -13 0 -24 -4 -34l-90 -25l-110 -604h254l54 112c15 3 29 3 44 0l-25 -169h-502c-2 11 -2 23 2 34z" />
    <glyph glyph-name="M" unicode="M" horiz-adv-x="973" 
d="M461 124l333 596h181c2 -11 0 -24 -4 -34l-95 -25l-49 -602l95 -25c2 -11 1 -23 -3 -34h-265c-2 10 -2 23 2 34l95 25l44 535h-4l-327 -579l-51 -23l-12 8l-100 593h-4l-148 -537l86 -22c1 -11 -1 -23 -6 -34h-228c0 11 1 23 6 34l82 21l165 606l-93 25c-1 11 0 23 4 34
h192l100 -596h4z" />
    <glyph glyph-name="N" unicode="N" horiz-adv-x="724" 
d="M268 621h-4l-104 -565l85 -22c2 -10 2 -22 -2 -34h-224c-2 10 -2 22 2 34l82 21l111 609l-95 22c-1 12 0 23 4 34h189l214 -577h4l96 521l-86 22c-2 13 0 24 4 34h227c2 -13 0 -24 -4 -34l-83 -21l-120 -652l-51 -23l-11 2z" />
    <glyph glyph-name="O" unicode="O" horiz-adv-x="694" 
d="M430 672c-204 0 -282 -224 -282 -398c0 -112 40 -227 174 -227c204 0 277 233 277 405c0 112 -37 220 -169 220zM435 730c178 0 243 -120 243 -276c0 -222 -109 -464 -368 -464c-169 0 -240 130 -240 282c0 219 110 458 365 458z" />
    <glyph glyph-name="P" unicode="P" horiz-adv-x="607" 
d="M108 59l109 602l-90 25c-2 12 0 24 4 34h177c163 0 298 -35 298 -196c0 -190 -150 -263 -329 -263h-57l-36 -202l90 -25c2 -11 1 -23 -3 -34h-256c-2 12 -1 23 3 34zM293 662l-62 -344h44c140 0 253 58 253 194c0 117 -75 150 -218 150h-17z" />
    <glyph glyph-name="Q" unicode="Q" horiz-adv-x="694" 
d="M430 672c-204 0 -282 -225 -282 -399c0 -114 43 -226 174 -226c204 0 277 233 277 405c0 112 -38 220 -169 220zM435 730c178 0 243 -122 243 -276c0 -199 -90 -425 -306 -458c17 -65 51 -104 112 -122c-1 -14 -5 -27 -12 -38c-79 9 -145 53 -174 154
c-162 4 -228 138 -228 283c0 218 110 457 365 457z" />
    <glyph glyph-name="R" unicode="R" horiz-adv-x="660" 
d="M335 294l-109 -3l-42 -232l90 -25c2 -11 1 -23 -3 -34h-256c-2 12 -1 23 3 34l90 25l109 602l-90 25c-2 13 0 24 4 34h184c150 0 289 -26 289 -183c0 -132 -83 -198 -190 -229l129 -252l73 -22c2 -12 0 -24 -4 -34h-126zM293 662l-56 -313c140 0 288 30 288 181
c0 102 -78 132 -176 132h-56z" />
    <glyph glyph-name="S" unicode="S" horiz-adv-x="581" 
d="M34 61l24 144c14 3 28 3 42 0l21 -124c28 -21 78 -33 130 -33c94 0 208 41 208 135c0 76 -68 107 -143 139c-91 39 -192 81 -192 193c0 146 121 215 261 215c74 0 145 -18 197 -51l-21 -139c-14 -3 -28 -3 -42 0l-18 113c-31 12 -72 20 -114 20c-87 0 -181 -32 -181 -126
c0 -75 49 -100 114 -132c96 -46 221 -80 221 -197c0 -151 -133 -228 -280 -228c-87 0 -166 26 -227 71z" />
    <glyph glyph-name="T" unicode="T" horiz-adv-x="615" 
d="M240 59l110 604h-159l-50 -107c-14 -3 -28 -3 -42 0l21 164h553l-27 -164c-14 -3 -28 -3 -42 0l-18 107h-160l-110 -604l90 -25c2 -10 2 -23 -2 -34h-256c-2 11 -2 23 2 34z" />
    <glyph glyph-name="U" unicode="U" horiz-adv-x="723" 
d="M201 661l-90 25c-2 12 0 25 4 34h257c2 -12 0 -25 -4 -34l-90 -25l-59 -321c-8 -43 -12 -85 -12 -120c0 -100 36 -162 138 -162c142 0 192 82 219 231l68 375l-85 22c-2 12 -1 23 3 34h231c2 -12 1 -23 -3 -34l-82 -21l-68 -368c-37 -200 -113 -307 -293 -307
c-145 0 -206 79 -206 219c0 39 6 86 15 136z" />
    <glyph glyph-name="V" unicode="V" horiz-adv-x="717" 
d="M100 720h259c2 -12 0 -24 -4 -34l-100 -25l85 -542h4l298 543l-90 24c-1 11 0 23 4 34h236c2 -11 0 -23 -4 -34l-79 -20l-357 -651l-60 -24l-10 9l-104 665l-82 21c-1 11 0 23 4 34z" />
    <glyph glyph-name="W" unicode="W" horiz-adv-x="985" 
d="M109 720h259c2 -12 0 -24 -4 -34l-101 -25l27 -511h4l267 552l63 17l11 -9l33 -561h4l243 515l-90 22c-1 11 0 23 4 34h230c2 -11 0 -23 -4 -34l-77 -24l-306 -647l-62 -25l-10 10l-33 577h-4l-272 -562l-61 -25l-10 10l-34 664l-81 22c-1 11 0 23 4 34z" />
    <glyph glyph-name="X" unicode="X" horiz-adv-x="672" 
d="M389 425l191 237l-76 24c-2 12 0 24 4 34h225c2 -12 0 -24 -4 -34l-70 -16l-243 -303l141 -312l72 -21c2 -11 1 -23 -3 -34h-256c-2 11 -1 23 3 34l99 25l-121 264l-215 -269l75 -20c2 -11 1 -23 -3 -34h-224c-2 11 -1 23 3 34l75 18l262 330l-128 283l-84 21
c-1 11 0 23 4 34h256c2 -12 0 -24 -4 -34l-85 -25z" />
    <glyph glyph-name="Y" unicode="Y" horiz-adv-x="656" 
d="M272 59l40 218l-147 389l-74 20c-2 12 0 24 4 34h257c2 -11 0 -23 -4 -34l-100 -25l118 -315h4l218 316l-81 24c-2 11 -2 23 2 34h223c2 -10 2 -22 -2 -34l-68 -18l-272 -390l-42 -219l90 -25c2 -10 1 -23 -3 -34h-256c-2 11 -1 23 3 34z" />
    <glyph glyph-name="Z" unicode="Z" horiz-adv-x="680" 
d="M587 0h-551l12 64l517 595l-1 4h-305l-50 -107c-15 -3 -29 -3 -42 0l22 164h487l-12 -64l-519 -595l1 -4h369l53 112c15 3 29 3 44 0z" />
    <glyph glyph-name="bracketleft" unicode="[" horiz-adv-x="369" 
d="M430 692h-122l-161 -825h127c0 -20 -4 -39 -11 -57h-195l-4 5l180 930l6 5h190c0 -19 -2 -38 -10 -58z" />
    <glyph glyph-name="backslash" unicode="\" horiz-adv-x="461" 
d="M342 -55l-247 801l2 4h64l248 -801l-3 -4h-64z" />
    <glyph glyph-name="bracketright" unicode="]" horiz-adv-x="369" 
d="M89 -133l161 825h-127c0 21 3 39 10 58h196l4 -5l-180 -930l-6 -5h-191c0 19 3 38 11 57h122z" />
    <glyph glyph-name="asciicircum" unicode="^" horiz-adv-x="657" 
d="M72 271l226 429c11 2 20 3 30 3s20 -1 30 -3l227 -429c-16 -16 -39 -28 -64 -31l-191 363h-4l-191 -363c-24 5 -45 16 -63 31z" />
    <glyph glyph-name="underscore" unicode="_" horiz-adv-x="500" 
d="M500 -75v-50h-500v50h500z" />
    <glyph glyph-name="grave" unicode="`" horiz-adv-x="400" 
d="M265 766l83 -151c-12 -15 -28 -26 -46 -32l-103 136c18 21 38 35 66 47z" />
    <glyph glyph-name="a" unicode="a" horiz-adv-x="582" 
d="M424 427l9 53c-17 7 -36 10 -57 10c-168 0 -245 -186 -245 -337c0 -55 14 -100 64 -100c108 0 216 305 229 374zM483 540h34l-90 -488l85 10c5 -14 6 -27 5 -41l-126 -29c-40 -9 -44 17 -39 44l27 144l-4 1c-33 -74 -111 -191 -215 -191c-81 0 -103 90 -103 163
c0 175 104 387 291 387c34 0 66 -8 93 -23c10 17 24 23 42 23z" />
    <glyph glyph-name="b" unicode="b" horiz-adv-x="567" 
d="M230 40c161 0 227 177 227 321c0 47 -7 113 -70 113c-104 0 -195 -209 -226 -345l-17 -74c27 -11 62 -15 86 -15zM78 -10h-18l131 707h-76c-5 14 -6 27 -5 41l121 21c37 6 40 -19 35 -46l-64 -348l4 -1c34 77 115 173 211 173c93 0 114 -100 114 -173
c0 -169 -86 -374 -283 -374c-39 0 -78 8 -115 28c-7 -20 -22 -28 -55 -28z" />
    <glyph glyph-name="c" unicode="c" horiz-adv-x="476" 
d="M447 82c-52 -59 -131 -92 -205 -92c-98 0 -185 59 -185 197c0 180 121 353 303 353c34 0 79 -8 114 -31l-16 -116c-13 -3 -27 -3 -40 0l-14 81c-16 7 -35 10 -53 10c-143 0 -220 -160 -220 -286c0 -104 60 -142 130 -142c57 0 121 25 164 60c11 -10 18 -22 22 -34z" />
    <glyph glyph-name="d" unicode="d" horiz-adv-x="589" 
d="M433 426l9 53c-21 7 -44 11 -66 11c-169 0 -246 -180 -246 -328c0 -44 10 -109 69 -109c118 0 221 304 234 373zM558 713l-123 -661l97 13c5 -12 6 -28 4 -40l-136 -33c-39 -9 -44 17 -39 44l27 144l-4 1c-29 -77 -117 -191 -214 -191c-93 0 -114 104 -114 176
c0 172 106 374 294 374c35 0 70 -8 100 -25l34 182h-77c-4 14 -5 28 -4 41l120 21c36 6 40 -19 35 -46z" />
    <glyph glyph-name="e" unicode="e" horiz-adv-x="502" 
d="M141 282l1 -4l183 59c58 19 90 29 90 75c0 49 -34 75 -80 75c-110 0 -169 -105 -194 -205zM131 198c0 -105 60 -142 131 -142c59 0 125 26 170 60c11 -10 18 -22 22 -34c-53 -57 -136 -92 -212 -92c-98 0 -185 57 -185 197c0 173 108 353 287 353c85 0 140 -57 140 -139
c0 -27 -5 -52 -15 -80l-337 -88c-1 -12 -1 -25 -1 -35z" />
    <glyph glyph-name="f" unicode="f" horiz-adv-x="324" 
d="M369 484h-130l-65 -377c-15 -90 -40 -174 -101 -236c-41 -43 -89 -71 -141 -71c-35 0 -70 11 -88 53c9 16 21 30 34 41c19 -25 56 -46 90 -46c80 0 112 135 135 269l64 367h-87c0 12 2 24 6 34l91 13l8 43c27 141 100 186 185 186c25 0 55 -4 85 -12l-15 -102
c-13 -3 -27 -3 -40 0l-16 70c-17 1 -18 1 -25 1c-60 0 -82 -44 -97 -117l-14 -69h129c0 -16 -2 -31 -8 -47z" />
    <glyph glyph-name="g" unicode="g" horiz-adv-x="564" 
d="M430 426l10 54c-21 7 -43 10 -65 10c-167 0 -244 -173 -244 -315c0 -49 8 -113 70 -113c115 0 216 293 229 364zM386 179l-4 1c-31 -78 -113 -181 -210 -181c-95 0 -115 103 -115 176c0 176 110 365 297 365c36 0 69 -7 94 -23c7 11 15 23 50 23h26l-88 -474
c-35 -193 -129 -267 -284 -267c-57 0 -113 12 -150 32l16 107c13 3 27 3 40 0l16 -72c29 -9 58 -14 85 -14c110 0 175 53 208 226z" />
    <glyph glyph-name="h" unicode="h" horiz-adv-x="618" 
d="M520 347l-55 -295l86 10c5 -13 6 -28 5 -41l-126 -29c-40 -9 -44 17 -39 44l48 263c6 32 13 70 13 102c0 42 -13 76 -63 76c-96 0 -203 -227 -239 -399l-17 -80l-61 -8l-8 10l127 697h-76c-5 14 -6 28 -5 41l121 21c37 6 40 -19 35 -46l-67 -363l4 -1
c46 97 121 191 213 191c51 0 111 -23 111 -126c0 -19 -3 -45 -7 -67z" />
    <glyph glyph-name="i" unicode="i" horiz-adv-x="322" 
d="M286 714c1 -29 -5 -60 -17 -86c-14 -4 -31 -6 -46 -6c-11 0 -23 1 -34 3c-1 29 3 56 14 86c15 3 33 5 48 5c12 0 26 -1 35 -2zM251 493l-83 -441l86 10c5 -13 6 -26 5 -41l-126 -29c-40 -9 -44 17 -39 44l81 441h-76c-5 14 -6 28 -5 41l122 21c36 6 40 -19 35 -46z" />
    <glyph glyph-name="j" unicode="j" horiz-adv-x="310" 
d="M89 14l85 463h-76c-5 14 -6 28 -5 41l121 21c37 6 40 -19 35 -46l-94 -518c-23 -127 -93 -173 -190 -182c-5 11 -7 22 -7 33c92 29 110 73 131 188zM285 714c1 -29 -5 -60 -17 -86c-14 -4 -31 -6 -46 -6c-11 0 -23 1 -34 3c-1 29 3 56 14 86c15 3 33 5 48 5
c12 0 26 -1 35 -2z" />
    <glyph glyph-name="k" unicode="k" horiz-adv-x="545" 
d="M339 48l-137 225l169 198c25 30 58 69 95 69c23 0 57 -26 80 -55c-1 -9 -7 -19 -16 -27c-14 9 -29 14 -42 14c-30 0 -62 -16 -110 -69l-103 -113l145 -233l80 39c9 -8 15 -21 18 -35l-77 -51c-22 -14 -35 -20 -45 -20c-22 0 -39 28 -57 58zM266 713l-132 -715l-63 -8
l-9 10l129 697h-76c-5 14 -6 28 -5 41l121 21c37 6 40 -19 35 -46z" />
    <glyph glyph-name="l" unicode="l" horiz-adv-x="298" 
d="M266 713l-122 -661l96 13c5 -12 6 -28 5 -40l-137 -33c-39 -9 -43 17 -38 44l121 661h-76c-5 14 -6 28 -5 41l121 21c37 6 40 -19 35 -46z" />
    <glyph glyph-name="m" unicode="m" horiz-adv-x="940" 
d="M841 347l-54 -295l86 10c5 -12 6 -29 5 -41l-127 -29c-39 -9 -43 17 -38 44l49 263c5 26 12 67 12 97c0 43 -6 81 -57 81c-89 0 -201 -236 -234 -393l-18 -86l-61 -8l-9 10l56 299c8 46 12 80 12 105c0 51 -16 73 -56 73c-93 0 -199 -231 -234 -399l-17 -80l-61 -8l-8 10
l87 477h-76c-5 14 -6 28 -5 41l121 21c37 6 40 -19 35 -46l-27 -143l4 -1c46 97 115 191 207 191c47 0 107 -16 107 -118c0 -20 -2 -44 -8 -72l4 -1c45 98 115 191 207 191c47 0 106 -20 106 -123c0 -18 -3 -45 -8 -70z" />
    <glyph glyph-name="n" unicode="n" horiz-adv-x="641" 
d="M543 347l-55 -295l86 10c5 -12 6 -29 5 -41l-126 -29c-40 -9 -44 17 -39 44l48 263c5 28 12 67 12 96c0 45 -10 82 -62 82c-96 0 -203 -227 -239 -399l-17 -80l-61 -8l-8 10l87 477h-76c-5 14 -6 28 -5 41l121 21c37 6 40 -19 35 -46l-27 -143l4 -1
c46 97 121 191 213 191c51 0 111 -23 111 -126c0 -19 -3 -45 -7 -67z" />
    <glyph glyph-name="o" unicode="o" horiz-adv-x="559" 
d="M331 484c-140 0 -200 -150 -200 -285c0 -71 27 -154 116 -154c145 0 202 151 202 278c0 75 -27 161 -118 161zM241 -10c-133 0 -184 96 -184 205c0 187 91 345 284 345c132 0 182 -97 182 -211c0 -171 -75 -339 -282 -339z" />
    <glyph glyph-name="p" unicode="p" horiz-adv-x="591" 
d="M184 129l-13 -63c28 -11 61 -16 90 -16c152 0 220 157 220 309c0 50 -9 115 -70 115c-102 0 -200 -214 -227 -345zM163 28l-30 -166l86 10c5 -12 6 -29 5 -41l-126 -29c-40 -9 -44 17 -39 44l115 631h-76c-5 14 -6 28 -5 41l121 21c37 6 40 -19 35 -46l-23 -128l4 -1
c34 77 116 173 212 173c93 0 114 -100 114 -173c0 -182 -93 -364 -270 -364c-41 0 -81 7 -123 28z" />
    <glyph glyph-name="q" unicode="q" horiz-adv-x="577" 
d="M433 427l10 53c-21 7 -43 10 -66 10c-171 0 -247 -179 -247 -328c0 -44 10 -109 69 -109c118 0 223 310 234 374zM492 540h34l-124 -678l85 10c5 -12 6 -28 4 -41l-126 -29c-39 -9 -44 17 -39 44l62 334l-4 1c-31 -77 -117 -191 -214 -191c-93 0 -114 104 -114 176
c0 175 107 374 296 374c35 0 69 -7 99 -23c9 17 23 23 41 23z" />
    <glyph glyph-name="r" unicode="r" horiz-adv-x="440" 
d="M474 535l-18 -122c-13 -3 -27 -3 -40 0l-12 58c-115 -4 -199 -240 -226 -369l-22 -104l-61 -8l-8 10l87 477h-76c-5 14 -6 28 -5 41l123 21c36 6 41 -19 35 -46l-28 -131l4 -1c38 91 111 179 206 179c13 0 28 -2 41 -5z" />
    <glyph glyph-name="s" unicode="s" horiz-adv-x="472" 
d="M82 154l13 -82c25 -17 67 -27 110 -27c71 0 144 28 144 95c0 58 -92 88 -129 105c-61 29 -120 65 -120 138c0 113 99 157 205 157c58 0 114 -13 153 -34l-15 -118c-13 -3 -27 -3 -40 0l-15 84c-20 8 -46 12 -74 12c-67 0 -140 -25 -140 -89c0 -106 251 -99 251 -240
c0 -121 -122 -165 -229 -165c-63 0 -127 15 -170 45l17 119c13 3 26 3 39 0z" />
    <glyph glyph-name="t" unicode="t" horiz-adv-x="335" 
d="M236 484l-67 -332c-3 -15 -7 -35 -7 -53c0 -28 9 -52 46 -52c35 0 79 20 92 28c5 -12 7 -26 6 -40c-41 -27 -92 -45 -130 -45c-60 0 -89 35 -89 92c0 12 2 29 5 45l72 357h-90c-1 11 1 24 6 34l94 13l28 150l64 12l9 -10l-29 -152h125c0 -16 -2 -31 -8 -47h-127z" />
    <glyph glyph-name="u" unicode="u" horiz-adv-x="631" 
d="M477 52l87 10c5 -12 6 -29 4 -41l-126 -29c-42 -10 -44 19 -39 46l27 144l-4 2c-39 -87 -108 -194 -226 -194c-70 0 -99 58 -99 126c0 23 4 48 8 72l53 289h-76c-5 14 -6 28 -5 41l121 21c42 7 40 -23 35 -48l-47 -256c-7 -36 -14 -75 -14 -108c0 -45 14 -79 59 -79
c133 0 235 356 247 417l12 67l63 8l9 -10z" />
    <glyph glyph-name="v" unicode="v" horiz-adv-x="538" 
d="M185 0l-73 475h-76c-5 14 -6 27 -5 41l113 23c31 6 34 -19 40 -58l62 -399h5c75 92 189 230 189 365c0 22 -4 44 -13 66c14 12 30 23 53 30c25 -21 46 -55 46 -88c0 -124 -197 -356 -274 -447l-54 -18z" />
    <glyph glyph-name="w" unicode="w" horiz-adv-x="824" 
d="M174 0l-59 475h-76c-5 14 -6 27 -5 41l109 22c40 8 43 -29 46 -57l46 -389h5c66 119 140 285 201 430l48 8l10 -9l55 -439h5c71 92 168 243 168 365c0 22 -5 45 -13 66c14 12 30 23 53 30c25 -22 46 -55 46 -88c0 -118 -179 -354 -253 -447l-56 -18l-13 10l-47 378h-4
c-64 -129 -127 -254 -196 -370l-57 -18z" />
    <glyph glyph-name="x" unicode="x" horiz-adv-x="588" 
d="M282 266l-90 182l-63 -41c-10 6 -20 16 -28 31l90 92c8 8 15 11 22 11c11 0 17 -7 22 -17l93 -189c59 81 154 205 190 205c25 0 52 -25 67 -49c-2 -9 -7 -20 -15 -28c-11 3 -20 5 -30 5c-56 0 -142 -116 -189 -179l111 -224l74 50c9 -11 15 -24 18 -36l-80 -74
c-14 -13 -26 -15 -34 -15c-19 0 -28 12 -48 52l-88 178c-59 -85 -163 -230 -220 -230c-20 0 -53 26 -75 66c5 12 11 20 17 25c18 -11 33 -15 48 -15c29 0 71 16 208 200z" />
    <glyph glyph-name="y" unicode="y" horiz-adv-x="530" 
d="M238 -1l-118 454l-65 -39c-9 6 -19 17 -26 33l78 69c16 15 30 24 45 24c19 0 26 -15 34 -45l105 -413h4c80 137 136 313 136 365c0 23 -6 45 -16 68c12 13 24 21 38 26c29 -20 56 -55 56 -87c0 -116 -264 -654 -481 -654c-30 0 -62 12 -81 56c9 16 21 33 37 48
c23 -28 45 -39 72 -39c64 0 127 59 182 134z" />
    <glyph glyph-name="z" unicode="z" horiz-adv-x="513" 
d="M304 0h-273l10 62l364 396l-1 4h-232l-33 -71c-14 -3 -28 -3 -40 0l18 139h380l-10 -63l-365 -396l1 -4h184c94 0 109 17 135 71c12 -1 25 -6 33 -13c-24 -125 -93 -125 -171 -125z" />
    <glyph glyph-name="braceleft" unicode="{" horiz-adv-x="369" 
d="M256 -190h-23c-91 0 -131 47 -131 125c0 17 2 36 5 54l13 74c6 32 11 66 11 91c0 59 -20 96 -77 96c0 20 3 40 11 58c77 0 116 75 133 180l13 84c18 108 71 178 189 178h23c1 -20 -3 -39 -11 -59h-22c-68 0 -91 -38 -107 -131l-15 -88c-15 -90 -39 -162 -130 -191l-1 -4
c53 -23 70 -69 70 -121c0 -26 -6 -57 -12 -88l-16 -88c-2 -14 -3 -27 -3 -38c0 -51 22 -73 70 -73h21c1 -20 -2 -39 -11 -59z" />
    <glyph glyph-name="bar" unicode="|" horiz-adv-x="286" 
d="M203 765v-990l-5 -5h-59l-5 5v990l5 5h59z" />
    <glyph glyph-name="braceright" unicode="}" horiz-adv-x="369" 
d="M148 750h23c91 0 131 -47 131 -125c0 -17 -2 -36 -5 -55l-13 -73c-6 -32 -11 -66 -11 -91c0 -59 20 -96 77 -96c0 -20 -4 -39 -11 -58c-77 0 -116 -76 -133 -180l-13 -84c-18 -108 -71 -178 -189 -178h-23c0 20 3 39 11 59h22c68 0 91 38 107 131l15 88
c15 90 40 162 130 191l1 4c-53 23 -69 69 -69 121c0 27 5 57 11 87l16 89c2 14 3 27 3 38c0 51 -22 73 -70 73h-21c0 20 3 39 11 59z" />
    <glyph glyph-name="asciitilde" unicode="~" horiz-adv-x="657" 
d="M110 213c-19 -1 -38 3 -54 13c26 110 86 183 179 183c108 0 134 -120 207 -120c62 0 93 62 105 123c22 1 40 -4 54 -12c-21 -115 -79 -186 -171 -186c-103 0 -131 120 -208 120c-59 0 -98 -58 -112 -121z" />
    <glyph glyph-name="Adieresis" unicode="&#xc4;" horiz-adv-x="721" 
d="M526 59l-25 168h-274l-97 -171l89 -22c1 -11 -1 -23 -6 -34h-234c-1 11 1 23 6 34l78 20l376 654l52 22l11 -5l100 -670l74 -21c2 -11 0 -24 -4 -34h-248c-2 11 0 24 4 34zM445 598h-4l-180 -314h231zM435 877c1 -27 -6 -59 -18 -84c-15 -4 -30 -6 -45 -6
c-11 0 -22 1 -33 3c0 27 4 56 14 84c15 3 32 5 50 5c11 0 24 -1 32 -2zM619 877c1 -27 -6 -59 -18 -84c-15 -4 -30 -6 -45 -6c-11 0 -22 1 -33 3c0 27 4 56 14 84c15 3 32 5 50 5c11 0 24 -1 32 -2z" />
    <glyph glyph-name="Aring" unicode="&#xc5;" horiz-adv-x="721" 
d="M526 59l-25 168h-274l-97 -171l89 -22c1 -11 -1 -23 -6 -34h-234c-1 11 1 23 6 34l78 20l376 654l52 22l11 -5l100 -670l74 -21c2 -11 0 -24 -4 -34h-248c-2 11 0 24 4 34zM445 598h-4l-180 -314h231zM480 937c49 0 87 -35 87 -82c0 -59 -47 -100 -106 -100
c-51 0 -87 35 -87 83c0 57 47 99 106 99zM476 901c-33 0 -52 -30 -52 -60c0 -26 14 -50 42 -50c33 0 51 31 51 60c0 24 -13 50 -41 50z" />
    <glyph glyph-name="Ccedilla" unicode="&#xc7;" horiz-adv-x="618" 
d="M480 71l60 118c14 3 28 3 42 0l-28 -138c-42 -28 -95 -47 -151 -56c1 -12 2 -24 2 -37c0 -88 -29 -164 -135 -164c-25 0 -51 5 -74 19c3 16 9 33 20 47c14 -5 28 -8 42 -8c75 0 90 64 90 122v16c-173 0 -278 99 -278 293c0 243 149 447 402 447c59 0 117 -14 158 -42
l-21 -141c-14 -3 -28 -3 -42 0l-19 113c-24 9 -52 12 -78 12c-207 0 -323 -183 -323 -392c0 -149 93 -227 231 -227c35 0 72 6 102 18z" />
    <glyph glyph-name="Eacute" unicode="&#xc9;" horiz-adv-x="629" 
d="M106 59l111 602l-95 25c-1 11 0 23 4 34h501l-23 -155c-14 -3 -28 -3 -42 0l-16 98h-252l-47 -256h192l33 65c11 3 21 3 32 0l-33 -206c-11 -3 -21 -3 -32 0l-12 84h-190l-54 -293h296l52 102c14 3 28 3 42 0l-24 -159h-540c-2 11 -2 23 2 34zM326 810l174 103
c15 -21 25 -45 31 -66l-186 -77c-9 12 -15 26 -19 40z" />
    <glyph glyph-name="Ntilde" unicode="&#xd1;" horiz-adv-x="724" 
d="M268 621h-4l-104 -565l85 -22c2 -10 2 -22 -2 -34h-224c-2 10 -2 22 2 34l82 21l111 609l-95 22c-1 12 0 23 4 34h189l214 -577h4l96 521l-86 22c-2 13 0 24 4 34h227c2 -13 0 -24 -4 -34l-83 -21l-120 -652l-51 -23l-11 2zM362 781c-17 0 -34 3 -49 9
c14 62 47 108 100 108c51 0 76 -55 119 -55c22 0 40 26 44 58c17 0 33 -3 48 -9c-6 -57 -42 -106 -97 -106c-56 0 -85 55 -120 55c-25 0 -40 -34 -45 -60z" />
    <glyph glyph-name="Odieresis" unicode="&#xd6;" horiz-adv-x="694" 
d="M430 672c-204 0 -282 -224 -282 -398c0 -112 40 -227 174 -227c204 0 277 233 277 405c0 112 -37 220 -169 220zM435 730c178 0 243 -120 243 -276c0 -222 -109 -464 -368 -464c-169 0 -240 130 -240 282c0 219 110 458 365 458zM389 877c1 -27 -6 -59 -18 -84
c-15 -4 -30 -6 -45 -6c-11 0 -22 1 -33 3c0 27 4 56 14 84c15 3 32 5 50 5c11 0 24 -1 32 -2zM573 877c1 -27 -6 -59 -18 -84c-15 -4 -30 -6 -45 -6c-11 0 -22 1 -33 3c0 27 4 56 14 84c15 3 32 5 50 5c11 0 24 -1 32 -2z" />
    <glyph glyph-name="Udieresis" unicode="&#xdc;" horiz-adv-x="723" 
d="M201 661l-90 25c-2 12 0 25 4 34h257c2 -12 0 -25 -4 -34l-90 -25l-59 -321c-8 -43 -12 -85 -12 -120c0 -100 36 -162 138 -162c142 0 192 82 219 231l68 375l-85 22c-2 12 -1 23 3 34h231c2 -12 1 -23 -3 -34l-82 -21l-68 -368c-37 -200 -113 -307 -293 -307
c-145 0 -206 79 -206 219c0 39 6 86 15 136zM424 877c1 -27 -6 -59 -18 -84c-15 -4 -30 -6 -45 -6c-11 0 -22 1 -33 3c0 27 4 56 14 84c15 3 32 5 50 5c11 0 24 -1 32 -2zM608 877c1 -27 -6 -59 -18 -84c-15 -4 -30 -6 -45 -6c-11 0 -22 1 -33 3c0 27 4 56 14 84
c15 3 32 5 50 5c11 0 24 -1 32 -2z" />
    <glyph glyph-name="aacute" unicode="&#xe1;" horiz-adv-x="582" 
d="M424 427l9 53c-17 7 -36 10 -57 10c-168 0 -245 -186 -245 -337c0 -55 14 -100 64 -100c108 0 216 305 229 374zM483 540h34l-90 -488l85 10c5 -14 6 -27 5 -41l-126 -29c-40 -9 -44 17 -39 44l27 144l-4 1c-33 -74 -111 -191 -215 -191c-81 0 -103 90 -103 163
c0 175 104 387 291 387c34 0 66 -8 93 -23c10 17 24 23 42 23zM300 614l134 152c21 -14 39 -33 49 -53l-152 -130c-13 6 -24 17 -31 31z" />
    <glyph glyph-name="agrave" unicode="&#xe0;" horiz-adv-x="582" 
d="M424 427l9 53c-17 7 -36 10 -57 10c-168 0 -245 -186 -245 -337c0 -55 14 -100 64 -100c108 0 216 305 229 374zM483 540h34l-90 -488l85 10c5 -14 6 -27 5 -41l-126 -29c-40 -9 -44 17 -39 44l27 144l-4 1c-33 -74 -111 -191 -215 -191c-81 0 -103 90 -103 163
c0 175 104 387 291 387c34 0 66 -8 93 -23c10 17 24 23 42 23zM340 766l83 -151c-12 -15 -28 -26 -46 -32l-103 136c18 21 38 35 66 47z" />
    <glyph glyph-name="acircumflex" unicode="&#xe2;" horiz-adv-x="582" 
d="M424 427l9 53c-17 7 -36 10 -57 10c-168 0 -245 -186 -245 -337c0 -55 14 -100 64 -100c108 0 216 305 229 374zM483 540h34l-90 -488l85 10c5 -14 6 -27 5 -41l-126 -29c-40 -9 -44 17 -39 44l27 144l-4 1c-33 -74 -111 -191 -215 -191c-81 0 -103 90 -103 163
c0 175 104 387 291 387c34 0 66 -8 93 -23c10 17 24 23 42 23zM220 616l150 150h7l100 -154c-9 -13 -22 -23 -37 -29l-79 93l-111 -93c-13 8 -23 19 -30 33z" />
    <glyph glyph-name="adieresis" unicode="&#xe4;" horiz-adv-x="582" 
d="M424 427l9 53c-17 7 -36 10 -57 10c-168 0 -245 -186 -245 -337c0 -55 14 -100 64 -100c108 0 216 305 229 374zM483 540h34l-90 -488l85 10c5 -14 6 -27 5 -41l-126 -29c-40 -9 -44 17 -39 44l27 144l-4 1c-33 -74 -111 -191 -215 -191c-81 0 -103 90 -103 163
c0 175 104 387 291 387c34 0 66 -8 93 -23c10 17 24 23 42 23zM321 710c1 -27 -6 -59 -18 -84c-15 -4 -30 -6 -45 -6c-11 0 -22 1 -33 3c0 27 4 56 14 84c15 3 32 5 50 5c11 0 24 -1 32 -2zM495 710c1 -27 -6 -59 -18 -84c-15 -4 -30 -6 -45 -6c-11 0 -22 1 -33 3
c0 27 4 56 14 84c15 3 32 5 50 5c11 0 24 -1 32 -2z" />
    <glyph glyph-name="atilde" unicode="&#xe3;" horiz-adv-x="585" 
d="M424 427l9 53c-17 7 -36 10 -57 10c-168 0 -245 -186 -245 -337c0 -55 14 -100 64 -100c108 0 216 305 229 374zM483 540h34l-90 -488l85 10c5 -14 6 -27 5 -41l-126 -29c-40 -9 -44 17 -39 44l27 144l-4 1c-33 -74 -111 -191 -215 -191c-81 0 -103 90 -103 163
c0 175 104 387 291 387c34 0 66 -8 93 -23c10 17 24 23 42 23zM259 606c-17 0 -34 3 -49 9c14 62 47 108 100 108c51 0 76 -55 119 -55c22 0 40 26 44 58c17 0 33 -3 48 -9c-6 -57 -42 -106 -97 -106c-56 0 -85 55 -120 55c-25 0 -40 -34 -45 -60z" />
    <glyph glyph-name="aring" unicode="&#xe5;" horiz-adv-x="582" 
d="M424 427l9 53c-17 7 -36 10 -57 10c-168 0 -245 -186 -245 -337c0 -55 14 -100 64 -100c108 0 216 305 229 374zM483 540h34l-90 -488l85 10c5 -14 6 -27 5 -41l-126 -29c-40 -9 -44 17 -39 44l27 144l-4 1c-33 -74 -111 -191 -215 -191c-81 0 -103 90 -103 163
c0 175 104 387 291 387c34 0 66 -8 93 -23c10 17 24 23 42 23zM377 765c49 0 87 -35 87 -82c0 -59 -47 -100 -106 -100c-51 0 -87 35 -87 83c0 57 47 99 106 99zM373 729c-33 0 -52 -30 -52 -60c0 -26 14 -50 42 -50c33 0 51 31 51 60c0 24 -13 50 -41 50z" />
    <glyph glyph-name="ccedilla" unicode="&#xe7;" horiz-adv-x="476" 
d="M447 82c-31 -37 -76 -65 -122 -79c2 -14 3 -29 3 -45c0 -88 -29 -164 -134 -164c-26 0 -51 5 -75 19c3 16 10 33 20 47c14 -5 28 -8 42 -8c75 0 91 64 91 122v18c-10 -1 -20 -2 -29 -2c-95 0 -186 57 -186 197c0 180 121 353 303 353c34 0 79 -8 114 -31l-16 -116
c-13 -3 -27 -3 -40 0l-14 81c-20 7 -40 10 -59 10c-133 0 -214 -160 -214 -286c0 -104 60 -142 130 -142c57 0 121 25 164 60c11 -10 18 -22 22 -34z" />
    <glyph glyph-name="eacute" unicode="&#xe9;" horiz-adv-x="502" 
d="M260 614l134 152c21 -14 39 -33 49 -53l-152 -130c-13 6 -24 17 -31 31zM141 282l1 -4l183 59c58 19 90 29 90 75c0 49 -34 75 -80 75c-110 0 -169 -105 -194 -205zM131 198c0 -105 60 -142 131 -142c59 0 125 26 170 60c11 -10 18 -22 22 -34c-53 -57 -136 -92 -212 -92
c-98 0 -185 57 -185 197c0 173 108 353 287 353c85 0 140 -57 140 -139c0 -27 -5 -52 -15 -80l-337 -88c-1 -12 -1 -25 -1 -35z" />
    <glyph glyph-name="egrave" unicode="&#xe8;" horiz-adv-x="502" 
d="M286 766l83 -151c-12 -15 -28 -26 -46 -32l-103 136c18 21 38 35 66 47zM141 282l1 -4l183 59c58 19 90 29 90 75c0 49 -34 75 -80 75c-110 0 -169 -105 -194 -205zM131 198c0 -105 60 -142 131 -142c59 0 125 26 170 60c11 -10 18 -22 22 -34c-53 -57 -136 -92 -212 -92
c-98 0 -185 57 -185 197c0 173 108 353 287 353c85 0 140 -57 140 -139c0 -27 -5 -52 -15 -80l-337 -88c-1 -12 -1 -25 -1 -35z" />
    <glyph glyph-name="ecircumflex" unicode="&#xea;" horiz-adv-x="502" 
d="M195 616l150 150h7l100 -154c-9 -13 -22 -23 -37 -29l-79 93l-111 -93c-13 8 -23 19 -30 33zM141 282l1 -4l183 59c58 19 90 29 90 75c0 49 -34 75 -80 75c-110 0 -169 -105 -194 -205zM131 198c0 -105 60 -142 131 -142c59 0 125 26 170 60c11 -10 18 -22 22 -34
c-53 -57 -136 -92 -212 -92c-98 0 -185 57 -185 197c0 173 108 353 287 353c85 0 140 -57 140 -139c0 -27 -5 -52 -15 -80l-337 -88c-1 -12 -1 -25 -1 -35z" />
    <glyph glyph-name="edieresis" unicode="&#xeb;" horiz-adv-x="502" 
d="M283 710c1 -27 -6 -59 -18 -84c-15 -4 -30 -6 -45 -6c-11 0 -22 1 -33 3c0 27 4 56 14 84c15 3 32 5 50 5c11 0 24 -1 32 -2zM457 710c1 -27 -6 -59 -18 -84c-15 -4 -30 -6 -45 -6c-11 0 -22 1 -33 3c0 27 4 56 14 84c15 3 32 5 50 5c11 0 24 -1 32 -2zM141 282l1 -4
l183 59c58 19 90 29 90 75c0 49 -34 75 -80 75c-110 0 -169 -105 -194 -205zM131 198c0 -105 60 -142 131 -142c59 0 125 26 170 60c11 -10 18 -22 22 -34c-53 -57 -136 -92 -212 -92c-98 0 -185 57 -185 197c0 173 108 353 287 353c85 0 140 -57 140 -139
c0 -27 -5 -52 -15 -80l-337 -88c-1 -12 -1 -25 -1 -35z" />
    <glyph glyph-name="iacute" unicode="&#xed;" horiz-adv-x="322" 
d="M251 493l-83 -441l86 10c5 -13 6 -26 5 -41l-126 -29c-40 -9 -44 17 -39 44l81 441h-76c-5 14 -6 28 -5 41l122 21c36 6 40 -19 35 -46zM139 614l134 152c21 -14 39 -33 49 -53l-152 -130c-13 6 -24 17 -31 31z" />
    <glyph glyph-name="igrave" unicode="&#xec;" horiz-adv-x="322" 
d="M251 493l-83 -441l86 10c5 -13 6 -26 5 -41l-126 -29c-40 -9 -44 17 -39 44l81 441h-76c-5 14 -6 28 -5 41l122 21c36 6 40 -19 35 -46zM173 766l83 -151c-12 -15 -28 -26 -46 -32l-103 136c18 21 38 35 66 47z" />
    <glyph glyph-name="icircumflex" unicode="&#xee;" horiz-adv-x="322" 
d="M251 493l-83 -441l86 10c5 -13 6 -26 5 -41l-126 -29c-40 -9 -44 17 -39 44l81 441h-76c-5 14 -6 28 -5 41l122 21c36 6 40 -19 35 -46zM81 616l150 150h7l100 -154c-9 -13 -22 -23 -37 -29l-79 93l-111 -93c-13 8 -23 19 -30 33z" />
    <glyph glyph-name="idieresis" unicode="&#xef;" horiz-adv-x="322" 
d="M251 493l-83 -441l86 10c5 -13 6 -26 5 -41l-126 -29c-40 -9 -44 17 -39 44l81 441h-76c-5 14 -6 28 -5 41l122 21c36 6 40 -19 35 -46zM180 710c1 -27 -6 -59 -18 -84c-15 -4 -30 -6 -45 -6c-11 0 -22 1 -33 3c0 27 4 56 14 84c15 3 32 5 50 5c11 0 24 -1 32 -2z
M354 710c1 -27 -6 -59 -18 -84c-15 -4 -30 -6 -45 -6c-11 0 -22 1 -33 3c0 27 4 56 14 84c15 3 32 5 50 5c11 0 24 -1 32 -2z" />
    <glyph glyph-name="ntilde" unicode="&#xf1;" horiz-adv-x="641" 
d="M543 347l-55 -295l86 10c5 -12 6 -29 5 -41l-126 -29c-40 -9 -44 17 -39 44l48 263c5 28 12 64 12 96c0 45 -10 82 -62 82c-96 0 -203 -227 -239 -399l-17 -80l-61 -8l-8 10l87 477h-76c-5 14 -6 28 -5 41l121 21c37 6 40 -19 35 -46l-27 -143l4 -1
c46 97 121 191 213 191c51 0 111 -23 111 -126c0 -19 -3 -45 -7 -67zM280 606c-17 0 -34 3 -49 9c14 62 47 108 100 108c51 0 76 -55 119 -55c22 0 40 26 44 58c17 0 33 -3 48 -9c-6 -57 -42 -106 -97 -106c-56 0 -85 55 -120 55c-25 0 -40 -34 -45 -60z" />
    <glyph glyph-name="oacute" unicode="&#xf3;" horiz-adv-x="559" 
d="M331 484c-140 0 -200 -150 -200 -285c0 -71 27 -154 116 -154c145 0 202 151 202 278c0 75 -27 161 -118 161zM241 -10c-133 0 -184 96 -184 205c0 187 91 345 284 345c132 0 182 -97 182 -211c0 -171 -75 -339 -282 -339zM272 614l134 152c21 -14 39 -33 49 -53
l-152 -130c-13 6 -24 17 -31 31z" />
    <glyph glyph-name="ograve" unicode="&#xf2;" horiz-adv-x="559" 
d="M331 484c-140 0 -200 -150 -200 -285c0 -71 27 -154 116 -154c145 0 202 151 202 278c0 75 -27 161 -118 161zM241 -10c-133 0 -184 96 -184 205c0 187 91 345 284 345c132 0 182 -97 182 -211c0 -171 -75 -339 -282 -339zM309 766l83 -151c-12 -15 -28 -26 -46 -32
l-103 136c18 21 38 35 66 47z" />
    <glyph glyph-name="ocircumflex" unicode="&#xf4;" horiz-adv-x="559" 
d="M331 484c-140 0 -200 -150 -200 -285c0 -71 27 -154 116 -154c145 0 202 151 202 278c0 75 -27 161 -118 161zM241 -10c-133 0 -184 96 -184 205c0 187 91 345 284 345c132 0 182 -97 182 -211c0 -171 -75 -339 -282 -339zM214 616l150 150h7l100 -154
c-9 -13 -22 -23 -37 -29l-79 93l-111 -93c-13 8 -23 19 -30 33z" />
    <glyph glyph-name="odieresis" unicode="&#xf6;" horiz-adv-x="559" 
d="M331 484c-140 0 -200 -150 -200 -285c0 -71 27 -154 116 -154c145 0 202 151 202 278c0 75 -27 161 -118 161zM241 -10c-133 0 -184 96 -184 205c0 187 91 345 284 345c132 0 182 -97 182 -211c0 -171 -75 -339 -282 -339zM303 710c1 -27 -6 -59 -18 -84
c-15 -4 -30 -6 -45 -6c-11 0 -22 1 -33 3c0 27 4 56 14 84c15 3 32 5 50 5c11 0 24 -1 32 -2zM477 710c1 -27 -6 -59 -18 -84c-15 -4 -30 -6 -45 -6c-11 0 -22 1 -33 3c0 27 4 56 14 84c15 3 32 5 50 5c11 0 24 -1 32 -2z" />
    <glyph glyph-name="otilde" unicode="&#xf5;" horiz-adv-x="559" 
d="M331 484c-140 0 -200 -150 -200 -285c0 -71 27 -154 116 -154c145 0 202 151 202 278c0 75 -27 161 -118 161zM241 -10c-133 0 -184 96 -184 205c0 187 91 345 284 345c132 0 182 -97 182 -211c0 -171 -75 -339 -282 -339zM235 606c-17 0 -34 3 -49 9
c14 62 47 108 100 108c51 0 76 -55 119 -55c22 0 40 26 44 58c17 0 33 -3 48 -9c-6 -57 -42 -106 -97 -106c-56 0 -85 55 -120 55c-25 0 -40 -34 -45 -60z" />
    <glyph glyph-name="uacute" unicode="&#xfa;" horiz-adv-x="631" 
d="M477 52l87 10c5 -12 6 -29 4 -41l-126 -29c-42 -10 -44 19 -39 46l27 144l-4 2c-39 -87 -108 -194 -226 -194c-70 0 -99 58 -99 126c0 23 4 48 8 72l53 289h-76c-5 14 -6 28 -5 41l121 21c42 7 40 -23 35 -48l-47 -256c-7 -36 -14 -75 -14 -108c0 -45 14 -79 59 -79
c133 0 235 356 247 417l12 67l63 8l9 -10zM315 614l134 152c21 -14 39 -33 49 -53l-152 -130c-13 6 -24 17 -31 31z" />
    <glyph glyph-name="ugrave" unicode="&#xf9;" horiz-adv-x="631" 
d="M477 52l87 10c5 -12 6 -29 4 -41l-126 -29c-42 -10 -44 19 -39 46l27 144l-4 2c-39 -87 -108 -194 -226 -194c-70 0 -99 58 -99 126c0 23 4 48 8 72l53 289h-76c-5 14 -6 28 -5 41l121 21c42 7 40 -23 35 -48l-47 -256c-7 -36 -14 -75 -14 -108c0 -45 14 -79 59 -79
c133 0 235 356 247 417l12 67l63 8l9 -10zM332 766l83 -151c-12 -15 -28 -26 -46 -32l-103 136c18 21 38 35 66 47z" />
    <glyph glyph-name="ucircumflex" unicode="&#xfb;" horiz-adv-x="631" 
d="M477 52l87 10c5 -12 6 -29 4 -41l-126 -29c-42 -10 -44 19 -39 46l27 144l-4 2c-39 -87 -108 -194 -226 -194c-70 0 -99 58 -99 126c0 23 4 48 8 72l53 289h-76c-5 14 -6 28 -5 41l121 21c42 7 40 -23 35 -48l-47 -256c-7 -36 -14 -75 -14 -108c0 -45 14 -79 59 -79
c133 0 235 356 247 417l12 67l63 8l9 -10zM236 616l150 150h7l100 -154c-9 -13 -22 -23 -37 -29l-79 93l-111 -93c-13 8 -23 19 -30 33z" />
    <glyph glyph-name="udieresis" unicode="&#xfc;" horiz-adv-x="631" 
d="M477 52l87 10c5 -12 6 -29 4 -41l-126 -29c-42 -10 -44 19 -39 46l27 144l-4 2c-39 -87 -108 -194 -226 -194c-70 0 -99 58 -99 126c0 23 4 48 8 72l53 289h-76c-5 14 -6 28 -5 41l121 21c42 7 40 -23 35 -48l-47 -256c-7 -36 -14 -75 -14 -108c0 -45 14 -79 59 -79
c133 0 235 356 247 417l12 67l63 8l9 -10zM332 710c1 -27 -6 -59 -18 -84c-15 -4 -30 -6 -45 -6c-11 0 -22 1 -33 3c0 27 4 56 14 84c15 3 32 5 50 5c11 0 24 -1 32 -2zM506 710c1 -27 -6 -59 -18 -84c-15 -4 -30 -6 -45 -6c-11 0 -22 1 -33 3c0 27 4 56 14 84
c15 3 32 5 50 5c11 0 24 -1 32 -2z" />
    <glyph glyph-name="dagger" unicode="&#x2020;" horiz-adv-x="482" 
d="M266 455l-191 -4c1 22 4 44 13 66l190 -4l37 207c10 2 21 3 32 3s22 -1 33 -3l-43 -207l191 4c1 -22 -3 -43 -13 -66l-190 4l-99 -525c-10 -2 -22 -3 -33 -3s-22 1 -32 3z" />
    <glyph glyph-name="degree" unicode="&#xb0;" horiz-adv-x="407" 
d="M278 730c100 0 164 -69 164 -162c0 -101 -75 -185 -182 -185c-101 0 -164 71 -164 163c0 103 74 184 182 184zM275 674c-75 0 -112 -59 -112 -128c0 -63 37 -107 100 -107c72 0 111 58 111 127c0 60 -33 108 -99 108z" />
    <glyph glyph-name="cent" unicode="&#xa2;" horiz-adv-x="562" 
d="M490 161c-46 -56 -121 -87 -189 -91l-16 -91c-20 -3 -40 -3 -58 0l18 93c-78 15 -145 74 -145 194c0 162 98 318 250 347l21 107c7 1 19 2 29 2s21 -1 29 -2l-20 -101c34 -1 75 -10 108 -31l-15 -116c-13 -3 -27 -3 -40 0l-14 81c-21 7 -40 10 -59 10
c-134 0 -215 -160 -215 -286c0 -108 66 -141 133 -141c55 0 115 22 162 59c10 -10 17 -22 21 -34z" />
    <glyph glyph-name="sterling" unicode="&#xa3;" horiz-adv-x="562" 
d="M556 684l-21 -129c-14 -3 -27 -3 -41 0l-20 101c-8 1 -11 2 -28 2c-158 0 -168 -171 -168 -275h158c0 -18 -4 -37 -12 -53h-144c-2 -99 -28 -201 -117 -254v-4h266l42 78c14 3 27 3 41 0l-27 -150h-443l8 44c114 48 156 175 158 286h-94c1 18 4 35 12 53h81v27
c0 66 7 124 34 177c38 75 111 123 215 123c37 0 80 -10 100 -26z" />
    <glyph glyph-name="section" unicode="&#xa7;" horiz-adv-x="539" 
d="M533 690l-21 -115c-13 -3 -27 -3 -40 0l-11 86c-19 9 -47 15 -77 15c-61 0 -126 -24 -126 -86c0 -115 248 -86 248 -250c0 -71 -40 -128 -95 -167c17 -21 22 -44 22 -68c0 -122 -111 -175 -221 -175c-62 0 -122 19 -157 57l22 110c12 3 26 3 40 0l8 -93
c26 -14 59 -19 91 -19c61 0 137 22 137 99c0 116 -254 99 -254 259c0 70 38 121 104 154c-15 21 -21 45 -21 67c0 111 101 166 209 166c49 0 100 -13 142 -40zM243 469c-40 -25 -73 -61 -73 -106c0 -85 145 -112 201 -156c35 24 61 61 61 104c0 98 -138 116 -189 158z" />
    <glyph glyph-name="bullet" unicode="&#x2022;" horiz-adv-x="406" 
d="M77 289c0 88 53 141 141 141s141 -53 141 -141s-53 -141 -141 -141s-141 53 -141 141z" />
    <glyph glyph-name="paragraph" unicode="&#xb6;" horiz-adv-x="569" 
d="M527 661l-150 -776c-9 -2 -22 -3 -31 -3c-11 0 -22 1 -31 3l151 774h-81l-151 -774c-9 -2 -20 -3 -30 -3c-11 0 -21 1 -30 3l81 420c-107 0 -163 80 -163 178c0 163 112 237 286 237h246c2 -12 0 -24 -4 -34z" />
    <glyph glyph-name="germandbls" unicode="&#xdf;" horiz-adv-x="568" 
d="M255 70c22 -14 50 -21 77 -21c62 0 126 36 126 102c0 101 -131 90 -131 224c0 91 62 153 152 167c4 20 7 39 7 57c0 58 -27 107 -105 107c-67 0 -107 -51 -119 -116l-90 -483c-20 -111 -52 -206 -142 -272c-31 -22 -65 -35 -99 -35c-35 0 -70 11 -88 53c8 16 20 30 34 41
c21 -24 50 -43 92 -43c73 0 105 113 133 266l67 362h-86c0 13 2 26 7 39l90 13l8 45c19 108 97 184 200 184c105 0 167 -62 167 -169c0 -27 -4 -57 -14 -95c-57 0 -146 -16 -146 -102c0 -109 138 -99 138 -234c0 -110 -92 -170 -196 -170c-38 0 -75 10 -104 32
c4 17 11 33 22 48z" />
    <glyph glyph-name="registered" unicode="&#xae;" horiz-adv-x="472" 
d="M100 530c0 120 76 196 196 196c119 0 196 -76 196 -196s-77 -196 -196 -196c-120 0 -196 76 -196 196zM151 530c0 -97 48 -156 145 -156c96 0 145 59 145 156c0 96 -49 157 -145 157c-97 0 -145 -61 -145 -157zM264 512v-63l17 -5v-15h-78v15l17 5v166l-17 6v18h84
c60 0 90 -16 90 -61c0 -25 -14 -54 -47 -60l57 -69l14 -5v-15h-56l-62 83h-19zM332 578c0 31 -21 35 -51 35h-17v-79h19c34 0 49 11 49 44z" />
    <glyph glyph-name="copyright" unicode="&#xa9;" horiz-adv-x="728" 
d="M80 360c0 195 123 318 319 318c195 0 318 -124 318 -318s-123 -319 -318 -319s-319 123 -319 319zM138 360c0 -169 96 -268 261 -268c164 0 260 99 260 268c0 168 -95 268 -260 268s-261 -99 -261 -268zM494 442l-19 57c-15 4 -34 6 -50 6c-87 0 -107 -67 -107 -150
c0 -77 26 -140 102 -140c18 0 38 3 56 8l22 63c9 2 18 2 27 0v-86c-41 -24 -83 -30 -119 -30c-98 0 -166 65 -166 185c0 133 76 194 186 194c34 0 69 -7 98 -22v-85c-10 -2 -20 -2 -30 0z" />
    <glyph glyph-name="trademark" unicode="&#x2122;" horiz-adv-x="904" 
d="M765 720h120v-30l-41 -10l14 -234l41 -10v-25h-139v25l40 10l-11 220h-4l-102 -255h-56l-90 251h-4l-21 -216l42 -10v-25h-115v25l36 10l22 234l-41 10v30h120l87 -246h4zM358 684h-68v-238l38 -11v-24h-137v24l38 11v238h-68l-15 -46h-26v82h279v-82h-26z" />
    <glyph glyph-name="acute" unicode="&#xb4;" horiz-adv-x="400" 
d="M184 614l134 152c21 -14 39 -33 49 -53l-152 -130c-13 6 -24 17 -31 31z" />
    <glyph glyph-name="dieresis" unicode="&#xa8;" horiz-adv-x="400" 
d="M235 710c1 -27 -6 -59 -18 -84c-15 -4 -30 -6 -45 -6c-11 0 -22 1 -33 3c0 27 4 56 14 84c15 3 32 5 50 5c11 0 24 -1 32 -2zM409 710c1 -27 -6 -59 -18 -84c-15 -4 -30 -6 -45 -6c-11 0 -22 1 -33 3c0 27 4 56 14 84c15 3 32 5 50 5c11 0 24 -1 32 -2z" />
    <glyph glyph-name="AE" unicode="&#xc6;" horiz-adv-x="1002" 
d="M317 720h683l-25 -155c-14 -3 -28 -3 -42 0l-19 98h-246l-53 -270h190l34 63c11 3 21 3 32 0l-37 -203c-11 -3 -21 -3 -32 0l-9 83h-189l-55 -279h296l53 102c14 3 28 3 42 0l-26 -159h-545c-1 12 0 22 4 34l100 25l54 277h-215l-184 -280l89 -22c2 -12 0 -24 -4 -34
h-237c-1 11 0 22 4 34l79 20l394 601l-140 31c-2 12 0 24 4 34zM538 393l52 266h-65l-175 -266h188z" />
    <glyph glyph-name="Oslash" unicode="&#xd8;" horiz-adv-x="698" 
d="M434 672c-206 0 -282 -223 -282 -408c0 -46 8 -92 26 -130h4l355 506c-26 21 -60 32 -103 32zM326 47c207 0 277 234 277 418c0 48 -8 93 -28 130h-4l-357 -508c27 -24 62 -40 112 -40zM439 730c56 0 102 -12 137 -35l53 75c17 -7 33 -17 43 -31l-54 -77
c43 -48 64 -119 64 -194c0 -242 -108 -478 -368 -478c-57 0 -104 15 -140 40l-61 -86c-15 6 -32 17 -43 31l64 92c-40 49 -60 119 -60 192c0 230 106 471 365 471z" />
    <glyph glyph-name="plusminus" unicode="&#xb1;" horiz-adv-x="657" 
d="M598 353h-237v-219c-12 -2 -23 -3 -34 -3s-21 1 -32 3v219h-236c-2 11 -3 21 -3 32c0 10 1 22 3 32h236v217c9 1 22 2 33 2s24 -1 33 -2v-217h237c2 -12 3 -22 3 -32s-1 -21 -3 -32zM598 0h-539c-2 11 -3 21 -3 32c0 10 1 21 3 32h539c2 -12 3 -22 3 -32
c0 -11 -1 -22 -3 -32z" />
    <glyph glyph-name="yen" unicode="&#xa5;" horiz-adv-x="562" 
d="M371 369h141c0 -15 -3 -29 -9 -42h-161l-17 -82h163c0 -14 -2 -28 -8 -42h-164l-28 -144l95 -25c2 -10 2 -22 -2 -34h-261c-2 11 -2 23 2 34l95 25l28 144h-161c0 14 3 29 9 42h161l17 82h-163c0 15 3 29 9 42h138l-91 277l-70 20c-2 13 0 24 4 34h223
c1 -11 0 -23 -4 -34l-68 -25l78 -237h4l161 238l-68 24c-1 12 0 22 4 34h198c1 -12 0 -22 -4 -34l-57 -18z" />
    <glyph glyph-name="ordfeminine" unicode="&#xaa;" horiz-adv-x="390" 
d="M301 591l6 33c-12 4 -25 7 -37 7c-106 0 -152 -133 -152 -220c0 -32 8 -61 32 -61c59 0 136 159 151 241zM342 668h31l-58 -323l59 5l4 -33l-91 -15c-28 -5 -35 13 -31 33l15 84h-4c-23 -50 -70 -118 -139 -118c-50 0 -73 51 -73 107c0 117 70 260 197 260
c21 0 44 -4 61 -12c6 9 15 12 29 12z" />
    <glyph glyph-name="ordmasculine" unicode="&#xba;" horiz-adv-x="389" 
d="M190 301c-89 0 -127 66 -127 139c0 126 64 228 191 228c93 0 129 -61 129 -138c0 -119 -50 -229 -193 -229zM249 626c-89 0 -122 -101 -122 -183c0 -44 10 -100 68 -100c92 0 124 95 124 182c0 46 -16 101 -70 101z" />
    <glyph glyph-name="ae" unicode="&#xe6;" horiz-adv-x="827" 
d="M460 281l1 -5l191 61c58 19 90 29 90 75c0 47 -31 75 -78 75c-113 0 -180 -101 -204 -206zM424 427l9 53c-17 7 -36 10 -57 10c-168 0 -245 -186 -245 -337c0 -55 14 -100 64 -100c102 0 213 288 229 374zM160 -10c-81 0 -103 90 -103 163c0 175 104 387 291 387
c34 0 66 -8 93 -23c11 16 24 23 42 23h30l-11 -57h4c50 38 102 57 162 57c85 0 141 -55 141 -139c0 -27 -5 -52 -15 -80l-341 -89c-1 -12 -1 -24 -1 -34c0 -104 64 -142 136 -142c59 0 125 25 169 60c11 -10 18 -22 22 -34c-51 -57 -136 -92 -211 -92
c-96 0 -184 54 -187 190h-5c-33 -74 -111 -190 -216 -190z" />
    <glyph glyph-name="oslash" unicode="&#xf8;" horiz-adv-x="565" 
d="M253 45c145 0 202 149 202 273c0 38 -5 71 -17 103h-4l-253 -350c17 -16 41 -26 72 -26zM337 484c-139 0 -200 -153 -200 -274c0 -38 5 -69 16 -102h4l253 351c-18 16 -42 25 -73 25zM247 -10c-44 0 -78 10 -105 27l-51 -72c-14 7 -26 16 -34 25l53 74
c-35 40 -47 99 -47 159c0 172 88 337 284 337c42 0 75 -10 102 -28l45 63c12 -5 25 -14 34 -25l-47 -64c38 -43 48 -99 48 -158c0 -176 -81 -338 -282 -338z" />
    <glyph glyph-name="questiondown" unicode="&#xbf;" horiz-adv-x="440" 
d="M357 10v-126c-41 -34 -115 -62 -185 -62c-94 0 -170 55 -170 152c0 110 64 159 132 199s139 69 155 160c19 4 37 4 56 0c6 -209 -260 -162 -260 -347c0 -59 46 -104 121 -104c23 0 48 5 73 16l36 112c14 3 28 3 42 0zM372 438c-18 -4 -37 -6 -56 -6c-10 0 -25 1 -36 3
c-1 33 5 63 17 94c16 4 34 6 51 6c11 0 26 -1 37 -3c1 -33 -3 -61 -13 -94z" />
    <glyph glyph-name="exclamdown" unicode="&#xa1;" horiz-adv-x="321" 
d="M253 439c-18 -4 -37 -6 -56 -6c-10 0 -25 1 -36 3c-1 33 5 63 17 94c16 4 34 6 51 6c11 0 26 -1 37 -3c1 -33 -3 -61 -13 -94zM50 -167l112 502c18 4 37 4 54 0l-74 -502c-11 -2 -29 -4 -46 -4s-36 2 -46 4z" />
    <glyph glyph-name="logicalnot" unicode="&#xac;" horiz-adv-x="657" 
d="M536 140v216h-477c-2 10 -3 21 -3 32c0 10 1 22 3 32h536l5 -5v-275c-10 -2 -21 -3 -31 -3c-11 0 -23 1 -33 3z" />
    <glyph glyph-name="florin" unicode="&#x192;" horiz-adv-x="562" 
d="M273 371h-89c-1 16 0 31 5 48h92l24 125c27 141 100 186 184 186c26 0 55 -4 85 -12l-14 -102c-13 -3 -27 -3 -40 0l-16 70c-90 14 -114 -59 -134 -168l-18 -99h120c1 -16 0 -31 -5 -48h-123l-41 -222c-20 -108 -57 -196 -139 -256c-31 -22 -64 -35 -99 -35
s-70 11 -88 53c9 16 21 30 34 41c22 -24 51 -43 92 -43c59 0 108 114 130 239z" />
    <glyph glyph-name="guillemotleft" unicode="&#xab;" horiz-adv-x="540" 
d="M47 276l225 209c18 -11 32 -26 43 -44l-167 -167l133 -178c-13 -19 -30 -33 -49 -43l-185 219v4zM255 276l225 209c18 -12 31 -26 43 -44l-168 -167l133 -178c-13 -19 -30 -33 -48 -43l-185 219v4z" />
    <glyph glyph-name="guillemotright" unicode="&#xbb;" horiz-adv-x="540" 
d="M319 262l-225 -209c-18 11 -32 26 -43 44l167 167l-132 178c11 18 29 33 48 43l185 -219v-4zM526 262l-225 -209c-18 11 -32 26 -43 44l168 167l-133 178c12 18 30 33 48 43l185 -219v-4z" />
    <glyph glyph-name="ellipsis" unicode="&#x2026;" horiz-adv-x="1000" 
d="M177 3c-17 -4 -34 -6 -50 -6c-12 0 -24 1 -35 3c0 30 4 61 14 91c16 3 33 5 49 5c13 0 26 -1 39 -3c0 -31 -5 -60 -17 -90zM512 3c-17 -4 -34 -6 -50 -6c-12 0 -24 1 -35 3c0 30 4 61 14 91c16 3 33 5 49 5c13 0 26 -1 39 -3c0 -31 -5 -60 -17 -90zM847 3
c-17 -4 -34 -6 -50 -6c-12 0 -24 1 -35 3c0 30 4 61 14 91c16 3 33 5 49 5c13 0 26 -1 39 -3c0 -31 -5 -60 -17 -90z" />
    <glyph glyph-name="Agrave" unicode="&#xc0;" horiz-adv-x="721" 
d="M526 59l-25 168h-274l-97 -171l89 -22c1 -11 -1 -23 -6 -34h-234c-1 11 1 23 6 34l78 20l376 654l52 22l11 -5l100 -670l74 -21c2 -11 0 -24 -4 -34h-248c-2 11 0 24 4 34zM445 598h-4l-180 -314h231zM354 913l174 -103c-3 -14 -10 -28 -19 -40l-186 77c6 21 16 43 31 66
z" />
    <glyph glyph-name="Atilde" unicode="&#xc3;" horiz-adv-x="721" 
d="M526 59l-25 168h-274l-97 -171l89 -22c1 -11 -1 -23 -6 -34h-234c-1 11 1 23 6 34l78 20l376 654l52 22l11 -5l100 -670l74 -21c2 -11 0 -24 -4 -34h-248c-2 11 0 24 4 34zM445 598h-4l-180 -314h231zM374 782c-17 0 -34 3 -49 9c14 62 47 108 100 108
c51 0 76 -55 119 -55c22 0 40 26 44 58c17 0 33 -3 48 -9c-6 -57 -42 -106 -97 -106c-56 0 -85 55 -120 55c-25 0 -40 -34 -45 -60z" />
    <glyph glyph-name="Otilde" unicode="&#xd5;" horiz-adv-x="694" 
d="M430 672c-204 0 -282 -224 -282 -398c0 -112 40 -227 174 -227c204 0 277 233 277 405c0 112 -37 220 -169 220zM435 730c178 0 243 -120 243 -276c0 -222 -109 -464 -368 -464c-169 0 -240 130 -240 282c0 219 110 458 365 458zM327 781c-17 0 -34 3 -49 9
c14 62 47 108 100 108c51 0 76 -55 119 -55c22 0 40 26 44 58c17 0 33 -3 48 -9c-6 -57 -42 -106 -97 -106c-56 0 -85 55 -120 55c-25 0 -40 -34 -45 -60z" />
    <glyph glyph-name="OE" unicode="&#x152;" horiz-adv-x="1001" 
d="M921 0h-353c-106 0 -179 -10 -240 -10c-170 0 -258 125 -258 286c0 226 134 455 377 455c53 0 137 -11 204 -11h348l-23 -155c-14 -3 -28 -3 -42 0l-16 98h-252l-47 -256h192l33 65c11 3 21 3 32 0l-33 -206c-11 -3 -21 -3 -32 0l-12 84h-190l-54 -293h296l52 102
c15 3 30 2 42 0zM478 59l113 611c-39 7 -78 12 -116 12c-223 0 -327 -194 -327 -400c0 -147 66 -243 213 -243c37 0 78 7 117 20z" />
    <glyph glyph-name="oe" unicode="&#x153;" horiz-adv-x="884" 
d="M522 282l1 -4l186 59c58 19 90 29 90 75c0 47 -31 75 -78 75c-108 0 -177 -102 -199 -205zM449 330c0 78 -36 154 -124 154c-138 0 -194 -154 -194 -282c0 -75 26 -157 117 -157c143 0 201 141 201 285zM57 198c0 181 93 342 273 342c83 0 154 -45 173 -128h4
c51 77 129 128 222 128c86 0 137 -58 137 -139c0 -27 -5 -52 -15 -80l-339 -88c-2 -12 -2 -27 -2 -35c0 -108 65 -141 132 -141c58 0 125 23 172 59c11 -10 18 -22 22 -34c-51 -58 -137 -92 -212 -92c-72 0 -142 37 -170 107h-4c-49 -68 -122 -107 -210 -107
c-124 0 -183 86 -183 208z" />
    <glyph glyph-name="endash" unicode="&#x2013;" horiz-adv-x="555" 
d="M505 258h-434c0 20 3 41 11 61h434c0 -19 -3 -40 -11 -61z" />
    <glyph glyph-name="emdash" unicode="&#x2014;" horiz-adv-x="1000" 
d="M950 258h-879c0 20 3 41 11 61h879c0 -20 -4 -41 -11 -61z" />
    <glyph glyph-name="quotedblleft" unicode="&#x201c;" horiz-adv-x="415" 
d="M301 738c-44 -48 -66 -110 -68 -200c-14 -2 -28 -3 -42 -3s-28 1 -42 3c5 113 48 182 126 225c12 -5 21 -14 26 -25zM466 738c-44 -48 -66 -110 -68 -200c-14 -2 -28 -3 -42 -3s-28 1 -42 3c5 113 48 182 126 225c12 -5 21 -14 26 -25z" />
    <glyph glyph-name="quotedblright" unicode="&#x201d;" horiz-adv-x="410" 
d="M104 556c44 48 66 110 68 200c14 2 28 3 42 3s28 -1 42 -3c-5 -113 -48 -182 -126 -225c-12 5 -21 14 -26 25zM268 556c44 48 66 110 68 200c14 2 28 3 42 3s28 -1 42 -3c-5 -113 -48 -182 -126 -225c-12 5 -21 14 -26 25z" />
    <glyph glyph-name="quoteleft" unicode="&#x2018;" horiz-adv-x="246" 
d="M297 738c-44 -48 -66 -110 -68 -200c-14 -2 -28 -3 -42 -3s-28 1 -42 3c5 113 48 182 126 225c12 -5 21 -14 26 -25z" />
    <glyph glyph-name="quoteright" unicode="&#x2019;" horiz-adv-x="246" 
d="M104 556c44 48 66 110 68 200c14 2 28 3 42 3s28 -1 42 -3c-5 -113 -48 -182 -126 -225c-12 5 -21 14 -26 25z" />
    <glyph glyph-name="ydieresis" unicode="&#xff;" horiz-adv-x="530" 
d="M238 -1l-118 454l-65 -39c-9 6 -19 17 -26 33l78 69c16 15 30 24 45 24c19 0 26 -15 34 -45l105 -413h4c80 137 136 313 136 365c0 23 -6 45 -16 68c12 13 24 21 38 26c29 -20 56 -55 56 -87c0 -116 -264 -654 -481 -654c-30 0 -62 12 -81 56c9 16 21 33 37 48
c23 -28 45 -39 72 -39c64 0 127 59 182 134zM275 710c1 -27 -6 -59 -18 -84c-15 -4 -30 -6 -45 -6c-11 0 -22 1 -33 3c0 27 4 56 14 84c15 3 32 5 50 5c11 0 24 -1 32 -2zM449 710c1 -27 -6 -59 -18 -84c-15 -4 -30 -6 -45 -6c-11 0 -22 1 -33 3c0 27 4 56 14 84
c15 3 32 5 50 5c11 0 24 -1 32 -2z" />
    <glyph glyph-name="Ydieresis" unicode="&#x178;" horiz-adv-x="656" 
d="M272 59l40 218l-147 389l-74 20c-2 12 0 24 4 34h257c2 -11 0 -23 -4 -34l-100 -25l118 -315h4l218 316l-81 24c-2 11 -2 23 2 34h223c2 -10 2 -22 -2 -34l-68 -18l-272 -390l-42 -219l90 -25c2 -10 1 -23 -3 -34h-256c-2 11 -1 23 3 34zM399 877c1 -27 -6 -59 -18 -84
c-15 -4 -30 -6 -45 -6c-11 0 -22 1 -33 3c0 27 4 56 14 84c15 3 32 5 50 5c11 0 24 -1 32 -2zM583 877c1 -27 -6 -59 -18 -84c-15 -4 -30 -6 -45 -6c-11 0 -22 1 -33 3c0 27 4 56 14 84c15 3 32 5 50 5c11 0 24 -1 32 -2z" />
    <glyph glyph-name="fraction" unicode="&#x2044;" horiz-adv-x="175" 
d="M-190 0l541 730c15 -7 32 -18 44 -34l-541 -728c-18 6 -34 18 -44 32z" />
    <glyph glyph-name="Euro" unicode="&#x20ac;" horiz-adv-x="562" 
d="M94 269h-65c-1 18 2 36 9 54h57c2 24 6 47 12 70h-53c-2 21 2 38 9 54h57c48 149 159 263 319 263c47 0 95 -12 132 -34l-19 -136c-15 -3 -29 -3 -42 0l-16 109c-16 4 -33 5 -49 5c-126 0 -207 -90 -247 -207h256c1 -20 -2 -36 -9 -54h-261c-6 -23 -9 -47 -11 -70h256
c1 -20 -2 -36 -9 -54h-249c2 -128 69 -220 197 -220c21 0 41 2 60 7l55 115c14 3 28 3 42 0l-25 -134c-35 -28 -90 -47 -166 -47c-159 0 -238 112 -240 279z" />
    <glyph glyph-name="guilsinglleft" unicode="&#x2039;" horiz-adv-x="332" 
d="M47 276l225 209c18 -12 32 -26 43 -44l-167 -167l133 -178c-13 -19 -30 -33 -49 -43l-185 219v4zM47 276l225 209c18 -12 32 -26 43 -44l-167 -167l133 -178c-12 -19 -30 -33 -49 -43l-185 219v4z" />
    <glyph glyph-name="guilsinglright" unicode="&#x203a;" horiz-adv-x="332" 
d="M319 262l-225 -209c-18 11 -32 26 -43 44l167 167l-132 178c11 18 29 33 48 43l185 -219v-4z" />
    <glyph glyph-name="daggerdbl" unicode="&#x2021;" horiz-adv-x="468" 
d="M268 454l-190 -4c0 22 4 45 14 66l187 -4l37 208c10 2 21 3 32 3s22 -1 33 -3l-43 -208l189 4c-1 -22 -5 -44 -14 -66l-188 4l-50 -258l190 4c0 -22 -4 -46 -12 -66l-188 4l-38 -208c-10 -2 -22 -3 -33 -3s-22 1 -32 3l45 208l-190 -4c0 22 4 45 13 66l188 -4z" />
    <glyph glyph-name="periodcentered" unicode="&#xb7;" horiz-adv-x="277" 
d="M192 252c-17 -4 -34 -6 -50 -6c-12 0 -24 1 -35 3c0 30 4 61 14 91c16 3 33 5 49 5c13 0 26 -1 39 -3c0 -31 -5 -60 -17 -90z" />
    <glyph glyph-name="quotesinglbase" unicode="&#x201a;" horiz-adv-x="246" 
d="M4 -105c44 48 66 110 68 200c14 2 28 3 42 3s28 -1 42 -3c-5 -113 -48 -182 -126 -225c-12 5 -21 14 -26 25z" />
    <glyph glyph-name="quotedblbase" unicode="&#x201e;" horiz-adv-x="410" 
d="M168 -105c44 48 66 110 68 200c14 2 28 3 42 3s28 -1 42 -3c-5 -113 -48 -182 -126 -225c-12 5 -21 14 -26 25zM4 -105c44 48 66 110 68 200c14 2 28 3 42 3s28 -1 42 -3c-5 -113 -48 -182 -126 -225c-12 5 -21 14 -26 25z" />
    <glyph glyph-name="perthousand" unicode="&#x2030;" horiz-adv-x="1207" 
d="M160 0l528 730c19 -11 32 -21 43 -32l-526 -730c-19 8 -32 18 -45 32zM282 710c93 0 120 -70 120 -143c0 -113 -57 -267 -196 -267c-87 0 -120 74 -120 142c0 114 47 268 196 268zM274 672c-90 0 -116 -156 -116 -228c0 -32 6 -106 59 -106c87 0 113 169 113 245
c0 33 -10 89 -56 89zM692 400c93 0 120 -70 120 -143c0 -113 -57 -267 -197 -267c-86 0 -119 74 -119 142c0 114 46 268 196 268zM683 362c-90 0 -115 -156 -115 -228c0 -32 5 -106 58 -106c88 0 114 169 114 245c0 33 -10 89 -57 89zM1066 400c93 0 120 -70 120 -143
c0 -113 -57 -267 -197 -267c-86 0 -119 74 -119 142c0 114 46 268 196 268zM1057 362c-90 0 -115 -156 -115 -228c0 -32 5 -106 58 -106c88 0 114 169 114 245c0 33 -10 89 -57 89z" />
    <glyph glyph-name="Acircumflex" unicode="&#xc2;" horiz-adv-x="721" 
d="M526 59l-25 168h-274l-97 -171l89 -22c1 -11 -1 -23 -6 -34h-234c-1 11 1 23 6 34l78 20l376 654l52 22l11 -5l100 -670l74 -21c2 -11 0 -24 -4 -34h-248c-2 11 0 24 4 34zM445 598h-4l-180 -314h231zM332 808l154 105h10l122 -106c-7 -13 -17 -26 -29 -37l-105 69
l-130 -69c-11 11 -17 24 -22 38z" />
    <glyph glyph-name="Ecircumflex" unicode="&#xca;" horiz-adv-x="629" 
d="M106 59l111 602l-95 25c-1 11 0 23 4 34h501l-23 -155c-14 -3 -28 -3 -42 0l-16 98h-252l-47 -256h192l33 65c11 3 21 3 32 0l-33 -206c-11 -3 -21 -3 -32 0l-12 84h-190l-54 -293h296l52 102c14 3 28 3 42 0l-24 -159h-540c-2 11 -2 23 2 34zM264 808l154 105h10
l122 -106c-7 -13 -17 -26 -29 -37l-105 69l-130 -69c-11 11 -17 24 -22 38z" />
    <glyph glyph-name="Aacute" unicode="&#xc1;" horiz-adv-x="721" 
d="M526 59l-25 168h-274l-97 -171l89 -22c1 -11 -1 -23 -6 -34h-234c-1 11 1 23 6 34l78 20l376 654l52 22l11 -5l100 -670l74 -21c2 -11 0 -24 -4 -34h-248c-2 11 0 24 4 34zM445 598h-4l-180 -314h231zM386 810l174 103c15 -21 25 -45 31 -66l-186 -77
c-9 12 -15 26 -19 40z" />
    <glyph glyph-name="Edieresis" unicode="&#xcb;" horiz-adv-x="629" 
d="M106 59l111 602l-95 25c-1 11 0 23 4 34h501l-23 -155c-14 -3 -28 -3 -42 0l-16 98h-252l-47 -256h192l33 65c11 3 21 3 32 0l-33 -206c-11 -3 -21 -3 -32 0l-12 84h-190l-54 -293h296l52 102c14 3 28 3 42 0l-24 -159h-540c-2 11 -2 23 2 34zM374 877
c1 -27 -6 -59 -18 -84c-15 -4 -30 -6 -45 -6c-11 0 -22 1 -33 3c0 27 4 56 14 84c15 3 32 5 50 5c11 0 24 -1 32 -2zM558 877c1 -27 -6 -59 -18 -84c-15 -4 -30 -6 -45 -6c-11 0 -22 1 -33 3c0 27 4 56 14 84c15 3 32 5 50 5c11 0 24 -1 32 -2z" />
    <glyph glyph-name="Egrave" unicode="&#xc8;" horiz-adv-x="629" 
d="M106 59l111 602l-95 25c-1 11 0 23 4 34h501l-23 -155c-14 -3 -28 -3 -42 0l-16 98h-252l-47 -256h192l33 65c11 3 21 3 32 0l-33 -206c-11 -3 -21 -3 -32 0l-12 84h-190l-54 -293h296l52 102c14 3 28 3 42 0l-24 -159h-540c-2 11 -2 23 2 34zM305 913l174 -103
c-3 -14 -10 -28 -19 -40l-186 77c6 21 16 43 31 66z" />
    <glyph glyph-name="Iacute" unicode="&#xcd;" horiz-adv-x="344" 
d="M217 661l-90 25c-2 13 0 24 4 34h256c2 -13 0 -24 -4 -34l-90 -25l-109 -602l90 -25c2 -12 1 -23 -3 -34h-256c-2 12 -1 23 3 34l90 25zM188 810l174 103c15 -21 25 -45 31 -66l-186 -77c-9 12 -15 26 -19 40z" />
    <glyph glyph-name="Icircumflex" unicode="&#xce;" horiz-adv-x="344" 
d="M217 661l-90 25c-2 13 0 24 4 34h256c2 -13 0 -24 -4 -34l-90 -25l-109 -602l90 -25c2 -12 1 -23 -3 -34h-256c-2 12 -1 23 3 34l90 25zM129 808l154 105h10l122 -106c-7 -13 -17 -26 -29 -37l-105 69l-130 -69c-11 11 -17 24 -22 38z" />
    <glyph glyph-name="Idieresis" unicode="&#xcf;" horiz-adv-x="344" 
d="M217 661l-90 25c-2 13 0 24 4 34h256c2 -13 0 -24 -4 -34l-90 -25l-109 -602l90 -25c2 -12 1 -23 -3 -34h-256c-2 12 -1 23 3 34l90 25zM235 877c1 -27 -6 -59 -18 -84c-15 -4 -30 -6 -45 -6c-11 0 -22 1 -33 3c0 27 4 56 14 84c15 3 32 5 50 5c11 0 24 -1 32 -2z
M419 877c1 -27 -6 -59 -18 -84c-15 -4 -30 -6 -45 -6c-11 0 -22 1 -33 3c0 27 4 56 14 84c15 3 32 5 50 5c11 0 24 -1 32 -2z" />
    <glyph glyph-name="Igrave" unicode="&#xcc;" horiz-adv-x="344" 
d="M217 661l-90 25c-2 13 0 24 4 34h256c2 -13 0 -24 -4 -34l-90 -25l-109 -602l90 -25c2 -12 1 -23 -3 -34h-256c-2 12 -1 23 3 34l90 25zM164 913l174 -103c-3 -14 -10 -28 -19 -40l-186 77c6 21 16 43 31 66z" />
    <glyph glyph-name="Oacute" unicode="&#xd3;" horiz-adv-x="694" 
d="M430 672c-204 0 -282 -224 -282 -398c0 -112 40 -227 174 -227c204 0 277 233 277 405c0 112 -37 220 -169 220zM435 730c178 0 243 -120 243 -276c0 -222 -109 -464 -368 -464c-169 0 -240 130 -240 282c0 219 110 458 365 458zM362 810l174 103c15 -21 25 -45 31 -66
l-186 -77c-9 12 -15 26 -19 40z" />
    <glyph glyph-name="Ocircumflex" unicode="&#xd4;" horiz-adv-x="694" 
d="M430 672c-204 0 -282 -224 -282 -398c0 -112 40 -227 174 -227c204 0 277 233 277 405c0 112 -37 220 -169 220zM435 730c178 0 243 -120 243 -276c0 -222 -109 -464 -368 -464c-169 0 -240 130 -240 282c0 219 110 458 365 458zM286 808l154 105h10l122 -106
c-7 -13 -17 -26 -29 -37l-105 69l-130 -69c-11 11 -17 24 -22 38z" />
    <glyph glyph-name="Ograve" unicode="&#xd2;" horiz-adv-x="694" 
d="M430 672c-204 0 -282 -224 -282 -398c0 -112 40 -227 174 -227c204 0 277 233 277 405c0 112 -37 220 -169 220zM435 730c178 0 243 -120 243 -276c0 -222 -109 -464 -368 -464c-169 0 -240 130 -240 282c0 219 110 458 365 458zM339 913l174 -103
c-3 -14 -10 -28 -19 -40l-186 77c6 21 16 43 31 66z" />
    <glyph glyph-name="Uacute" unicode="&#xda;" horiz-adv-x="723" 
d="M201 661l-90 25c-2 12 0 25 4 34h257c2 -12 0 -25 -4 -34l-90 -25l-59 -321c-8 -43 -12 -85 -12 -120c0 -100 36 -162 138 -162c142 0 192 82 219 231l68 375l-85 22c-2 12 -1 23 3 34h231c2 -12 1 -23 -3 -34l-82 -21l-68 -368c-37 -200 -113 -307 -293 -307
c-145 0 -206 79 -206 219c0 39 6 86 15 136zM389 810l174 103c15 -21 25 -45 31 -66l-186 -77c-9 12 -15 26 -19 40z" />
    <glyph glyph-name="Ucircumflex" unicode="&#xdb;" horiz-adv-x="723" 
d="M201 661l-90 25c-2 12 0 25 4 34h257c2 -12 0 -25 -4 -34l-90 -25l-59 -321c-8 -43 -12 -85 -12 -120c0 -100 36 -162 138 -162c142 0 192 82 219 231l68 375l-85 22c-2 12 -1 23 3 34h231c2 -12 1 -23 -3 -34l-82 -21l-68 -368c-37 -200 -113 -307 -293 -307
c-145 0 -206 79 -206 219c0 39 6 86 15 136zM318 808l154 105h10l122 -106c-7 -13 -17 -26 -29 -37l-105 69l-130 -69c-11 11 -17 24 -22 38z" />
    <glyph glyph-name="Ugrave" unicode="&#xd9;" horiz-adv-x="723" 
d="M201 661l-90 25c-2 12 0 25 4 34h257c2 -12 0 -25 -4 -34l-90 -25l-59 -321c-8 -43 -12 -85 -12 -120c0 -100 36 -162 138 -162c142 0 192 82 219 231l68 375l-85 22c-2 12 -1 23 3 34h231c2 -12 1 -23 -3 -34l-82 -21l-68 -368c-37 -200 -113 -307 -293 -307
c-145 0 -206 79 -206 219c0 39 6 86 15 136zM361 913l174 -103c-3 -14 -10 -28 -19 -40l-186 77c6 21 16 43 31 66z" />
    <glyph glyph-name="dotlessi" unicode="&#x131;" horiz-adv-x="322" 
d="M251 493l-83 -441l86 10c5 -13 6 -26 5 -41l-126 -29c-40 -9 -44 17 -39 44l81 441h-76c-5 14 -6 28 -5 41l122 21c36 6 40 -19 35 -46z" />
    <glyph glyph-name="circumflex" unicode="&#x2c6;" horiz-adv-x="400" 
d="M155 616l150 150h7l100 -154c-9 -13 -22 -23 -37 -29l-79 93l-111 -93c-13 8 -23 19 -30 33z" />
    <glyph glyph-name="macron" unicode="&#xaf;" horiz-adv-x="400" 
d="M404 620h-272c0 22 4 42 12 62h271c0 -22 -3 -42 -11 -62z" />
    <glyph glyph-name="breve" unicode="&#x2d8;" horiz-adv-x="400" 
d="M160 735c17 3 33 3 52 0c0 -53 28 -79 73 -79c50 0 87 31 97 79c17 3 34 3 51 0c-12 -92 -70 -140 -160 -140c-69 0 -116 43 -116 112c0 8 1 18 3 28z" />
    <glyph glyph-name="dotaccent" unicode="&#x2d9;" horiz-adv-x="400" 
d="M329 707c2 -28 -5 -61 -17 -86c-16 -4 -35 -5 -48 -5c-11 0 -24 1 -32 2c0 29 3 57 14 87c16 3 37 4 48 4c9 0 23 0 35 -2z" />
    <glyph glyph-name="ring" unicode="&#x2da;" horiz-adv-x="400" 
d="M303 765c49 0 87 -35 87 -82c0 -59 -47 -100 -106 -100c-51 0 -87 35 -87 83c0 57 47 99 106 99zM299 729c-33 0 -52 -30 -52 -60c0 -26 14 -50 42 -50c33 0 51 31 51 60c0 24 -13 50 -41 50z" />
    <glyph glyph-name="cedilla" unicode="&#xb8;" horiz-adv-x="400" 
d="M180 2h55c2 -14 3 -28 3 -44c0 -96 -36 -164 -138 -164c-24 0 -51 6 -71 19c2 16 9 34 20 47c14 -5 28 -8 42 -8c75 0 90 64 90 122c0 10 0 19 -1 28z" />
    <glyph glyph-name="hungarumlaut" unicode="&#x2dd;" horiz-adv-x="400" 
d="M100 615l127 151c23 -13 40 -31 50 -50l-144 -133c-13 6 -26 19 -33 32zM272 615l127 151c23 -13 40 -31 50 -50l-144 -133c-13 6 -26 19 -33 32z" />
    <glyph glyph-name="ogonek" unicode="&#x2db;" horiz-adv-x="400" 
d="M151 4h54c-11 -24 -22 -62 -22 -94s17 -57 51 -57c11 0 25 2 42 9c9 -11 14 -27 17 -41c-20 -15 -56 -26 -91 -26c-58 0 -87 38 -87 91c0 41 17 86 36 118z" />
    <glyph glyph-name="caron" unicode="&#x2c7;" horiz-adv-x="400" 
d="M422 733l-150 -150h-7l-100 153c11 13 24 23 37 30l78 -93l112 93c11 -8 22 -19 30 -33z" />
    <glyph glyph-name="Lslash" unicode="&#x141;" horiz-adv-x="562" 
d="M10 34l96 25l45 243l-115 -75l-4 2l10 48l118 79l57 305l-90 25c-2 13 0 23 4 34h256c2 -13 0 -25 -4 -34l-90 -25l-46 -248l150 99l4 -2l-9 -49l-154 -101l-55 -303h254l54 112c15 3 29 3 44 0l-25 -169h-502c-2 12 -2 22 2 34z" />
    <glyph glyph-name="lslash" unicode="&#x142;" horiz-adv-x="294" 
d="M206 394l-63 -342l96 13c5 -12 7 -27 5 -40l-136 -33c-40 -10 -44 17 -39 44l56 304l-88 -58l-4 2l10 49l91 61l56 303h-76c-5 14 -6 28 -5 41l122 21c36 6 40 -19 35 -46l-50 -266l104 69l4 -2l-9 -48z" />
    <glyph glyph-name="Scaron" unicode="&#x160;" horiz-adv-x="581" 
d="M34 61l24 144c14 3 28 3 42 0l21 -124c28 -21 78 -33 130 -33c94 0 208 41 208 135c0 76 -68 107 -143 139c-91 39 -192 81 -192 193c0 146 121 215 261 215c74 0 145 -18 197 -51l-21 -139c-14 -3 -28 -3 -42 0l-18 113c-31 12 -72 20 -114 20c-87 0 -181 -32 -181 -126
c0 -75 49 -100 114 -132c96 -46 221 -80 221 -197c0 -151 -133 -228 -280 -228c-87 0 -166 26 -227 71zM532 874l-154 -104h-10l-122 105c7 14 17 27 29 38l105 -70l130 70c10 -12 17 -26 22 -39z" />
    <glyph glyph-name="scaron" unicode="&#x161;" horiz-adv-x="472" 
d="M82 154l13 -82c25 -17 67 -27 110 -27c71 0 144 28 144 95c0 58 -92 88 -129 105c-61 29 -120 65 -120 138c0 113 99 157 205 157c58 0 114 -13 153 -34l-15 -118c-13 -3 -27 -3 -40 0l-15 84c-20 8 -46 12 -74 12c-67 0 -140 -25 -140 -89c0 -106 251 -99 251 -240
c0 -121 -122 -165 -229 -165c-63 0 -127 15 -170 45l17 119c13 3 26 3 39 0zM448 733l-150 -150h-7l-100 153c11 13 24 23 37 30l78 -93l112 93c11 -8 22 -19 30 -33z" />
    <glyph glyph-name="Zcaron" unicode="&#x17d;" horiz-adv-x="680" 
d="M587 0h-551l12 64l517 595l-1 4h-305l-50 -107c-15 -3 -29 -3 -42 0l22 164h487l-12 -64l-519 -595l1 -4h369l53 112c15 3 29 3 44 0zM580 874l-154 -104h-10l-122 105c7 14 17 27 29 38l105 -70l130 70c10 -12 17 -26 22 -39z" />
    <glyph glyph-name="zcaron" unicode="&#x17e;" horiz-adv-x="513" 
d="M304 0h-273l10 62l364 396l-1 4h-232l-33 -71c-14 -3 -28 -3 -40 0l18 139h380l-10 -63l-365 -396l1 -4h184c94 0 109 17 135 71c12 -1 25 -6 33 -13c-24 -125 -93 -125 -171 -125zM455 733l-150 -150h-7l-100 153c11 13 24 23 37 30l78 -93l112 93c11 -8 22 -19 30 -33z
" />
    <glyph glyph-name="brokenbar" unicode="&#xa6;" horiz-adv-x="286" 
d="M198 325h-59l-5 5v385l5 5h59l5 -5v-385zM139 215h59l5 -5v-385l-5 -5h-59l-5 5v385z" />
    <glyph glyph-name="Eth" unicode="&#xd0;" horiz-adv-x="719" 
d="M433 352h-183l-58 -295h67c249 0 364 150 364 369c0 158 -83 236 -256 236h-55l-52 -257h183c1 -21 -3 -38 -10 -53zM90 405h94l51 256l-95 25c-2 12 0 24 4 34h225c216 0 334 -89 334 -282c0 -274 -149 -438 -454 -438h-230c-2 12 0 25 4 34l95 25l57 293h-95
c0 17 2 34 10 53z" />
    <glyph glyph-name="eth" unicode="&#xf0;" horiz-adv-x="562" 
d="M325 466c-137 0 -194 -144 -194 -273c0 -74 27 -148 112 -148c141 0 198 138 198 275c0 70 -31 146 -116 146zM233 607l106 51v4c-38 27 -79 40 -133 47c0 18 3 36 11 51c77 -7 137 -35 181 -74l116 56c11 -12 17 -28 19 -43l-101 -49c63 -85 85 -189 85 -295
c0 -178 -58 -365 -280 -365c-130 0 -180 94 -180 199c0 181 95 332 268 332c41 0 79 -9 107 -37l4 1c-15 60 -34 105 -61 139l-122 -60c-11 14 -17 28 -20 43z" />
    <glyph glyph-name="Yacute" unicode="&#xdd;" horiz-adv-x="656" 
d="M272 59l40 218l-147 389l-74 20c-2 12 0 24 4 34h257c2 -11 0 -23 -4 -34l-100 -25l118 -315h4l218 316l-81 24c-2 11 -2 23 2 34h223c2 -10 2 -22 -2 -34l-68 -18l-272 -390l-42 -219l90 -25c2 -10 1 -23 -3 -34h-256c-2 11 -1 23 3 34zM357 810l174 103
c15 -21 25 -45 31 -66l-186 -77c-9 12 -15 26 -19 40z" />
    <glyph glyph-name="yacute" unicode="&#xfd;" horiz-adv-x="530" 
d="M238 -1l-118 454l-65 -39c-9 6 -19 17 -26 33l78 69c16 15 30 24 45 24c19 0 26 -15 34 -45l105 -413h4c80 137 136 313 136 365c0 23 -6 45 -16 68c12 13 24 21 38 26c29 -20 56 -55 56 -87c0 -116 -264 -654 -481 -654c-30 0 -62 12 -81 56c9 16 21 33 37 48
c23 -28 45 -39 72 -39c64 0 127 59 182 134zM258 614l134 152c21 -14 39 -33 49 -53l-152 -130c-13 6 -24 17 -31 31z" />
    <glyph glyph-name="Thorn" unicode="&#xde;" horiz-adv-x="557" 
d="M108 59l109 602l-90 25c-2 12 0 24 4 34h256c2 -13 0 -24 -4 -34l-90 -25l-16 -91h37c139 0 227 -51 227 -178c0 -201 -155 -242 -341 -242l-16 -91l90 -25c2 -11 1 -23 -3 -34h-256c-2 12 -1 22 3 34zM464 384c0 114 -82 127 -198 128l-55 -306c145 0 253 24 253 178z
" />
    <glyph glyph-name="thorn" unicode="&#xfe;" horiz-adv-x="566" 
d="M159 129l-13 -63c29 -11 62 -16 90 -16c152 0 220 158 220 309c0 50 -9 115 -70 115c-102 0 -200 -214 -227 -345zM138 28l-30 -166l86 10c5 -12 6 -29 5 -41l-126 -29c-40 -9 -44 17 -39 44l156 851h-76c-5 14 -6 28 -5 41l121 21c37 6 40 -19 35 -46l-64 -348l4 -1
c34 77 116 173 212 173c93 0 114 -100 114 -173c0 -182 -93 -364 -270 -364c-41 0 -81 7 -123 28z" />
    <glyph glyph-name="minus" unicode="&#x2212;" horiz-adv-x="657" 
d="M597 240h-538c-2 11 -3 21 -3 32c0 10 1 22 3 33h538c2 -12 3 -23 3 -33c0 -11 -1 -22 -3 -32z" />
    <glyph glyph-name="multiply" unicode="&#xd7;" horiz-adv-x="657" 
d="M604 493l-229 -228l229 -228c-15 -19 -29 -33 -48 -47l-228 229l-228 -229c-19 14 -33 28 -47 47l229 228l-229 228c14 19 28 33 47 48l228 -229l228 229c19 -15 33 -29 48 -48z" />
    <glyph glyph-name="one.superior" unicode="&#xb9;" 
d="M301 842l-61 -329l75 -15l-4 -28h-215l4 28l76 15l54 299h-86l-3 30l131 30c23 5 34 -4 29 -30z" />
    <glyph glyph-name="two.superior" unicode="&#xb2;" 
d="M148 531h182l-8 -61h-255l6 45l124 104c47 39 89 75 89 143c0 42 -23 73 -66 73c-11 0 -24 -2 -37 -9l-32 -79h-22v92c26 22 66 34 103 34c67 0 122 -33 122 -104c0 -92 -63 -134 -130 -181l-76 -53v-4z" />
    <glyph glyph-name="three.superior" unicode="&#xb3;" 
d="M128 762v84c32 19 70 27 105 27c61 0 122 -22 122 -87c0 -54 -45 -98 -100 -102v-4c56 -6 87 -42 87 -88c0 -86 -78 -129 -159 -129c-42 0 -84 12 -112 35l10 85h22l18 -69c15 -7 33 -11 51 -11c50 0 101 29 101 89c0 54 -44 67 -94 67h-26l5 39h21c55 0 108 17 108 78
c0 42 -31 60 -72 60c-15 0 -30 -3 -43 -8l-22 -66h-22z" />
    <glyph glyph-name="onehalf" unicode="&#xbd;" horiz-adv-x="836" 
d="M292 678l-61 -329l75 -15l-4 -28h-215l4 28l76 15l54 299h-86l-3 30l131 30c23 5 34 -4 29 -30zM132 0l541 730c15 -7 32 -18 44 -34l-541 -728c-18 6 -34 18 -44 32zM570 61h182l-8 -61h-255l6 45l124 104c47 39 89 75 89 143c0 42 -23 73 -66 73c-11 0 -24 -2 -37 -9
l-32 -79h-22v92c26 22 66 34 103 34c67 0 122 -33 122 -104c0 -92 -63 -134 -130 -181l-76 -53v-4z" />
    <glyph glyph-name="onequarter" unicode="&#xbc;" horiz-adv-x="836" 
d="M291 678l-61 -329l75 -15l-4 -28h-215l4 28l76 15l54 299h-86l-3 30l131 30c23 5 34 -4 29 -30zM131 2l541 730c15 -7 32 -18 44 -34l-541 -728c-18 6 -34 18 -44 32zM599 43l13 72h-181l3 23l250 265h46l-47 -252h56l-6 -36h-57l-12 -72l56 -15l-4 -28h-196l4 28z
M503 151h115l28 152l-3 2l-141 -151z" />
    <glyph glyph-name="threequarters" unicode="&#xbe;" horiz-adv-x="836" 
d="M140 599v84c32 19 70 27 105 27c61 0 122 -22 122 -87c0 -54 -45 -98 -100 -102v-4c56 -6 87 -42 87 -88c0 -86 -78 -129 -159 -129c-42 0 -84 12 -112 35l10 85h22l18 -69c15 -7 33 -11 51 -11c50 0 101 29 101 89c0 54 -44 67 -94 67h-26l5 39h21c55 0 108 17 108 78
c0 42 -31 60 -72 60c-15 0 -30 -3 -43 -8l-22 -66h-22zM159 0l541 730c15 -7 32 -18 44 -34l-541 -728c-18 6 -34 18 -44 32zM625 43l13 72h-181l3 23l250 265h46l-47 -252h56l-6 -36h-57l-12 -72l56 -15l-4 -28h-196l4 28zM529 151h115l28 152l-3 2l-141 -151z" />
    <glyph glyph-name="Gbreve" unicode="&#x11e;" horiz-adv-x="694" 
d="M497 77l40 213l-110 25c-1 11 0 22 5 33h239c1 -11 0 -22 -5 -33l-53 -16l-59 -309h-18c-28 0 -40 12 -44 25c-39 -17 -90 -25 -138 -25c-172 0 -284 98 -284 293c0 264 172 447 411 447c64 0 124 -13 171 -42l-21 -141c-14 -3 -28 -3 -42 0l-19 113c-32 8 -63 12 -92 12
c-196 0 -330 -162 -330 -392c0 -149 102 -227 239 -227c40 0 80 8 110 24zM320 902c18 3 36 3 54 0c0 -30 19 -66 71 -66c46 0 78 34 85 66c7 1 19 2 29 2s21 -1 29 -2c-9 -68 -61 -126 -149 -126c-92 0 -126 59 -119 126z" />
    <glyph glyph-name="gbreve" unicode="&#x11f;" horiz-adv-x="564" 
d="M430 426l10 54c-21 7 -43 10 -65 10c-167 0 -244 -173 -244 -315c0 -49 8 -113 70 -113c115 0 216 293 229 364zM386 179l-4 1c-31 -78 -113 -181 -210 -181c-95 0 -115 103 -115 176c0 176 110 365 297 365c36 0 69 -7 94 -23c7 11 15 23 50 23h26l-88 -474
c-35 -193 -129 -267 -284 -267c-57 0 -113 12 -150 32l16 107c13 3 27 3 40 0l16 -72c29 -9 58 -14 85 -14c110 0 175 53 208 226zM223 735c17 3 33 3 52 0c0 -53 28 -79 73 -79c50 0 87 31 97 79c17 3 34 3 51 0c-12 -92 -70 -140 -160 -140c-69 0 -116 43 -116 112
c0 8 1 18 3 28z" />
    <glyph glyph-name="Idotaccent" unicode="&#x130;" horiz-adv-x="344" 
d="M217 661l-90 25c-2 13 0 24 4 34h256c2 -13 0 -24 -4 -34l-90 -25l-109 -602l90 -25c2 -12 1 -23 -3 -34h-256c-2 12 -1 23 3 34l90 25zM325 867c2 -28 -5 -61 -17 -86c-16 -4 -35 -5 -48 -5c-11 0 -24 1 -32 2c0 29 3 57 14 87c16 3 37 4 48 4c9 0 23 0 35 -2z" />
    <glyph glyph-name="Scedilla" unicode="&#x15e;" horiz-adv-x="581" 
d="M34 61l24 144c14 3 28 3 42 0l21 -124c28 -21 78 -33 130 -33c94 0 208 41 208 135c0 76 -68 107 -143 139c-91 39 -192 81 -192 193c0 146 121 215 261 215c74 0 145 -18 197 -51l-21 -139c-14 -3 -28 -3 -42 0l-18 113c-31 12 -72 20 -114 20c-87 0 -181 -32 -181 -126
c0 -75 49 -100 114 -132c96 -46 221 -80 221 -197c0 -126 -92 -200 -208 -221c1 -12 2 -25 2 -39c0 -96 -36 -164 -138 -164c-24 0 -51 6 -71 19c2 16 9 34 20 47c14 -5 28 -8 42 -8c75 0 90 64 90 122v16h-17c-87 0 -166 26 -227 71z" />
    <glyph glyph-name="scedilla" unicode="&#x15f;" horiz-adv-x="472" 
d="M82 154l13 -82c25 -17 67 -27 110 -27c71 0 144 28 144 95c0 58 -92 88 -129 105c-61 29 -120 65 -120 138c0 113 99 157 205 157c58 0 114 -13 153 -34l-15 -118c-13 -3 -27 -3 -40 0l-15 84c-20 8 -46 12 -74 12c-67 0 -140 -25 -140 -89c0 -106 251 -99 251 -240
c0 -94 -73 -142 -156 -158c1 -12 2 -25 2 -39c0 -96 -36 -164 -138 -164c-24 0 -51 6 -71 19c2 16 9 34 20 47c14 -5 28 -8 42 -8c75 0 90 64 90 122v16h-18c-63 0 -127 15 -170 45l17 119c13 3 26 3 39 0z" />
    <glyph glyph-name="Cacute" unicode="&#x106;" horiz-adv-x="618" 
d="M480 71l60 118c14 3 28 3 42 0l-28 -138c-55 -38 -134 -61 -211 -61c-169 0 -273 102 -273 293c0 243 149 447 402 447c59 0 117 -14 158 -42l-21 -141c-14 -3 -28 -3 -42 0l-19 113c-30 8 -59 12 -87 12c-192 0 -314 -180 -314 -392c0 -150 97 -227 226 -227
c35 0 71 6 107 18zM365 810l174 103c15 -21 25 -45 31 -66l-186 -77c-9 12 -15 26 -19 40z" />
    <glyph glyph-name="cacute" unicode="&#x107;" horiz-adv-x="476" 
d="M270 614l134 152c21 -14 39 -33 49 -53l-152 -130c-13 6 -24 17 -31 31zM447 82c-52 -59 -131 -92 -205 -92c-98 0 -185 59 -185 197c0 180 121 353 303 353c34 0 79 -8 114 -31l-16 -116c-13 -3 -27 -3 -40 0l-14 81c-16 7 -35 10 -53 10c-143 0 -220 -160 -220 -286
c0 -104 60 -142 130 -142c57 0 121 25 164 60c11 -10 18 -22 22 -34z" />
    <glyph glyph-name="Ccaron" unicode="&#x10c;" horiz-adv-x="618" 
d="M480 71l60 118c14 3 28 3 42 0l-28 -138c-55 -38 -134 -61 -211 -61c-169 0 -273 102 -273 293c0 243 149 447 402 447c59 0 117 -14 158 -42l-21 -141c-14 -3 -28 -3 -42 0l-19 113c-30 8 -59 12 -87 12c-192 0 -314 -180 -314 -392c0 -150 97 -227 226 -227
c35 0 71 6 107 18zM583 874l-154 -104h-10l-122 105c7 14 17 27 29 38l105 -70l130 70c10 -12 17 -26 22 -39z" />
    <glyph glyph-name="ccaron" unicode="&#x10d;" horiz-adv-x="476" 
d="M473 733l-150 -150h-7l-100 153c11 13 24 23 37 30l78 -93l112 93c11 -8 22 -19 30 -33zM447 82c-52 -59 -131 -92 -205 -92c-98 0 -185 59 -185 197c0 180 121 353 303 353c34 0 79 -8 114 -31l-16 -116c-13 -3 -27 -3 -40 0l-14 81c-16 7 -35 10 -53 10
c-143 0 -220 -160 -220 -286c0 -104 60 -142 130 -142c57 0 121 25 164 60c11 -10 18 -22 22 -34z" />
    <glyph glyph-name="dcroat" unicode="&#x111;" horiz-adv-x="588" 
d="M435 435l4 25c-22 8 -45 12 -67 12c-171 0 -242 -162 -242 -310c0 -44 10 -109 69 -109c118 0 224 308 236 382zM558 713l-16 -81h78c1 -14 0 -28 -5 -43h-80l-100 -537l97 13c5 -12 6 -28 4 -40l-136 -33c-39 -9 -44 17 -39 44l27 144l-4 1c-29 -77 -117 -191 -214 -191
c-93 0 -114 104 -114 176c0 172 100 356 290 356c35 0 71 -8 100 -25l17 92h-129c-2 16 0 29 5 43h132l13 65h-77c-4 14 -5 28 -4 41l120 21c36 6 40 -19 35 -46z" />
    <glyph glyph-name="Abreve" unicode="&#x102;" horiz-adv-x="721" 
d="M526 59l-25 168h-274l-97 -171l89 -22c1 -11 -1 -23 -6 -34h-234c-1 11 1 23 6 34l78 20l376 654l52 22l11 -5l100 -670l74 -21c2 -11 0 -24 -4 -34h-248c-2 11 0 24 4 34zM445 598h-4l-180 -314h231zM350 902c18 3 36 3 54 0c0 -30 19 -66 71 -66c46 0 78 34 85 66
c7 1 19 2 29 2s21 -1 29 -2c-9 -68 -61 -126 -149 -126c-92 0 -126 59 -119 126z" />
    <glyph glyph-name="abreve" unicode="&#x103;" horiz-adv-x="582" 
d="M424 427l9 53c-17 7 -36 10 -57 10c-168 0 -245 -186 -245 -337c0 -55 14 -100 64 -100c108 0 216 305 229 374zM483 540h34l-90 -488l85 10c5 -14 6 -27 5 -41l-126 -29c-40 -9 -44 17 -39 44l27 144l-4 1c-33 -74 -111 -191 -215 -191c-81 0 -103 90 -103 163
c0 175 104 387 291 387c34 0 66 -8 93 -23c10 17 24 23 42 23zM240 735c17 3 33 3 52 0c0 -53 28 -79 73 -79c50 0 87 31 97 79c17 3 34 3 51 0c-12 -92 -70 -140 -160 -140c-69 0 -116 43 -116 112c0 8 1 18 3 28z" />
    <glyph glyph-name="Aogonek" unicode="&#x104;" horiz-adv-x="721" 
d="M526 59l-25 168h-274l-97 -171l89 -22c0 -13 -2 -23 -6 -34h-234c-1 11 1 23 6 34l78 20l376 654l52 22l11 -5l100 -670l74 -21c2 -12 0 -24 -4 -34h-130c-9 -19 -20 -54 -20 -86s12 -61 51 -61c11 0 25 2 42 9c9 -12 14 -27 17 -41c-20 -15 -57 -26 -91 -26
c-67 0 -88 44 -88 96c0 59 31 124 73 168zM445 598h-4l-180 -314h231z" />
    <glyph glyph-name="aogonek" unicode="&#x105;" horiz-adv-x="582" 
d="M424 427l9 53c-17 7 -36 10 -57 10c-168 0 -245 -186 -245 -337c0 -55 14 -100 64 -100c108 0 217 301 229 374zM483 540h34l-90 -488l85 10c5 -12 7 -28 5 -41l-108 -25c-10 -23 -19 -57 -19 -86c0 -32 17 -57 52 -57c11 0 25 2 42 9c8 -12 13 -27 16 -41
c-26 -17 -60 -27 -90 -27c-51 0 -88 26 -88 92c0 39 16 82 33 113c-7 9 -6 23 -3 37l27 144l-4 1c-33 -74 -111 -191 -215 -191c-81 0 -103 90 -103 163c0 173 100 387 294 387c31 0 62 -6 90 -23c11 16 24 23 42 23z" />
    <glyph glyph-name="Dcaron" unicode="&#x10e;" horiz-adv-x="705" 
d="M353 662h-55l-120 -605h68c249 0 364 150 364 369c0 158 -84 236 -257 236zM104 59l117 602l-95 25c-1 12 0 24 4 34h225c216 0 334 -89 334 -282c0 -274 -148 -438 -453 -438h-231c-2 12 0 24 4 34zM591 874l-154 -104h-10l-122 105c7 14 17 27 29 38l105 -70l130 70
c10 -12 17 -26 22 -39z" />
    <glyph glyph-name="dcaron" unicode="&#x10f;" horiz-adv-x="588" 
d="M433 426l9 53c-21 7 -44 11 -66 11c-169 0 -246 -180 -246 -328c0 -44 10 -109 69 -109c118 0 221 304 234 373zM558 713l-123 -661l97 13c5 -12 6 -28 4 -40l-136 -33c-39 -9 -44 17 -39 44l27 144l-4 1c-29 -77 -117 -191 -214 -191c-93 0 -114 104 -114 176
c0 172 106 374 294 374c35 0 70 -8 100 -25l34 182h-77c-4 14 -5 28 -4 41l120 21c36 6 40 -19 35 -46zM591 613c39 37 49 71 49 144c12 2 25 3 38 3c14 0 26 -1 38 -3c-1 -89 -37 -139 -100 -171c-12 6 -20 16 -25 27z" />
    <glyph glyph-name="Dcroat" unicode="&#x110;" horiz-adv-x="719" 
d="M433 352h-183l-58 -295h67c249 0 364 150 364 369c0 158 -83 236 -256 236h-55l-52 -257h183c1 -21 -3 -38 -10 -53zM90 405h94l51 256l-95 25c-2 12 0 24 4 34h225c216 0 334 -89 334 -282c0 -274 -149 -438 -454 -438h-230c-2 12 0 25 4 34l95 25l57 293h-95
c0 17 2 34 10 53z" />
    <glyph glyph-name="Eogonek" unicode="&#x118;" horiz-adv-x="629" 
d="M106 59l111 602l-95 25c-1 12 0 22 4 34h501l-23 -155c-14 -3 -28 -3 -42 0l-16 98h-252l-47 -256h192l33 65c11 3 21 3 32 0l-33 -206c-11 -3 -21 -3 -32 0l-12 84h-190l-54 -293h296l52 102c14 3 28 3 42 0l-24 -159h-86c-11 -24 -21 -59 -21 -90c0 -32 17 -57 52 -57
c11 0 25 2 42 9c8 -12 13 -27 16 -41c-21 -15 -56 -26 -90 -26c-58 0 -88 38 -88 91c0 40 15 83 33 114h-398c-2 12 -2 22 2 34z" />
    <glyph glyph-name="eogonek" unicode="&#x119;" horiz-adv-x="502" 
d="M141 282l1 -4l183 59c58 19 90 29 90 75c0 48 -35 75 -79 75c-112 0 -170 -105 -195 -205zM131 198c0 -105 60 -142 131 -142c59 0 125 26 170 60c11 -10 18 -22 22 -34c-35 -39 -86 -68 -138 -82c-11 -24 -20 -59 -20 -89c0 -33 17 -58 51 -58c11 0 25 2 42 9
c9 -12 14 -27 16 -41c-21 -15 -56 -26 -90 -26c-58 0 -87 38 -87 91c0 36 12 73 28 104h-13c-97 0 -186 56 -186 197c0 173 106 353 290 353c84 0 137 -58 137 -139c0 -27 -5 -52 -15 -80l-337 -88c-1 -12 -1 -25 -1 -35z" />
    <glyph glyph-name="Ecaron" unicode="&#x11a;" horiz-adv-x="629" 
d="M106 59l111 602l-95 25c-1 11 0 23 4 34h501l-23 -155c-14 -3 -28 -3 -42 0l-16 98h-252l-47 -256h192l33 65c11 3 21 3 32 0l-33 -206c-11 -3 -21 -3 -32 0l-12 84h-190l-54 -293h296l52 102c14 3 28 3 42 0l-24 -159h-540c-2 11 -2 23 2 34zM561 874l-154 -104h-10
l-122 105c7 14 17 27 29 38l105 -70l130 70c10 -12 17 -26 22 -39z" />
    <glyph glyph-name="ecaron" unicode="&#x11b;" horiz-adv-x="502" 
d="M480 733l-150 -150h-7l-100 153c11 13 24 23 37 30l78 -93l112 93c11 -8 22 -19 30 -33zM141 282l1 -4l183 59c58 19 90 29 90 75c0 49 -34 75 -80 75c-110 0 -169 -105 -194 -205zM131 198c0 -105 60 -142 131 -142c59 0 125 26 170 60c11 -10 18 -22 22 -34
c-53 -57 -136 -92 -212 -92c-98 0 -185 57 -185 197c0 173 108 353 287 353c85 0 140 -57 140 -139c0 -27 -5 -52 -15 -80l-337 -88c-1 -12 -1 -25 -1 -35z" />
    <glyph glyph-name="Lacute" unicode="&#x139;" horiz-adv-x="562" 
d="M10 34l96 25l111 602l-90 25c-2 13 0 24 4 34h256c2 -13 0 -24 -4 -34l-90 -25l-110 -604h254l54 112c15 3 29 3 44 0l-25 -169h-502c-2 11 -2 23 2 34zM209 810l174 103c15 -21 25 -45 31 -66l-186 -77c-9 12 -15 26 -19 40z" />
    <glyph glyph-name="lacute" unicode="&#x13a;" horiz-adv-x="298" 
d="M266 713l-122 -661l96 13c5 -12 6 -28 5 -40l-137 -33c-39 -9 -43 17 -38 44l121 661h-76c-5 14 -6 28 -5 41l121 21c37 6 40 -19 35 -46zM144 830l174 103c15 -21 25 -45 31 -66l-186 -77c-9 12 -15 26 -19 40z" />
    <glyph glyph-name="Lcaron" unicode="&#x13d;" horiz-adv-x="562" 
d="M10 34l96 25l111 602l-90 25c-2 13 0 24 4 34h256c2 -13 0 -24 -4 -34l-90 -25l-110 -604h254l54 112c15 3 29 3 44 0l-25 -169h-502c-2 11 -2 23 2 34zM401 573c39 37 49 71 49 144c12 2 25 3 38 3c14 0 26 -1 38 -3c-1 -89 -37 -139 -100 -171c-12 6 -20 16 -25 27z
" />
    <glyph glyph-name="lcaron" unicode="&#x13e;" horiz-adv-x="297" 
d="M266 713l-122 -661l96 13c5 -12 6 -28 5 -40l-137 -33c-39 -9 -43 17 -38 44l121 661h-76c-5 14 -6 28 -5 41l121 21c37 6 40 -19 35 -46zM300 613c39 37 49 71 49 144c12 2 25 3 38 3c14 0 26 -1 38 -3c-1 -89 -37 -139 -100 -171c-12 6 -20 16 -25 27z" />
    <glyph glyph-name="Nacute" unicode="&#x143;" horiz-adv-x="724" 
d="M268 621h-4l-104 -565l85 -22c2 -10 2 -22 -2 -34h-224c-2 10 -2 22 2 34l82 21l111 609l-95 22c-1 12 0 23 4 34h189l214 -577h4l96 521l-86 22c-2 13 0 24 4 34h227c2 -13 0 -24 -4 -34l-83 -21l-120 -652l-51 -23l-11 2zM377 810l174 103c15 -21 25 -45 31 -66
l-186 -77c-9 12 -15 26 -19 40z" />
    <glyph glyph-name="nacute" unicode="&#x144;" horiz-adv-x="641" 
d="M319 614l134 152c21 -14 39 -33 49 -53l-152 -130c-13 6 -24 17 -31 31zM543 347l-55 -295l86 10c5 -12 6 -29 5 -41l-126 -29c-40 -9 -44 17 -39 44l48 263c5 28 12 67 12 96c0 45 -10 82 -62 82c-96 0 -203 -227 -239 -399l-17 -80l-61 -8l-8 10l87 477h-76
c-5 14 -6 28 -5 41l121 21c37 6 40 -19 35 -46l-27 -143l4 -1c46 97 121 191 213 191c51 0 111 -23 111 -126c0 -19 -3 -45 -7 -67z" />
    <glyph glyph-name="Ncaron" unicode="&#x147;" horiz-adv-x="724" 
d="M268 621h-4l-104 -565l85 -22c2 -10 2 -22 -2 -34h-224c-2 10 -2 22 2 34l82 21l111 609l-95 22c-1 12 0 23 4 34h189l214 -577h4l96 521l-86 22c-2 13 0 24 4 34h227c2 -13 0 -24 -4 -34l-83 -21l-120 -652l-51 -23l-11 2zM608 874l-154 -104h-10l-122 105
c7 14 17 27 29 38l105 -70l130 70c10 -12 17 -26 22 -39z" />
    <glyph glyph-name="ncaron" unicode="&#x148;" horiz-adv-x="641" 
d="M507 733l-150 -150h-7l-100 153c11 13 24 23 37 30l78 -93l112 93c11 -8 22 -19 30 -33zM543 347l-55 -295l86 10c5 -12 6 -29 5 -41l-126 -29c-40 -9 -44 17 -39 44l48 263c5 28 12 67 12 96c0 45 -10 82 -62 82c-96 0 -203 -227 -239 -399l-17 -80l-61 -8l-8 10l87 477
h-76c-5 14 -6 28 -5 41l121 21c37 6 40 -19 35 -46l-27 -143l4 -1c46 97 121 191 213 191c51 0 111 -23 111 -126c0 -19 -3 -45 -7 -67z" />
    <glyph glyph-name="Ohungarumlaut" unicode="&#x150;" horiz-adv-x="694" 
d="M430 672c-204 0 -282 -224 -282 -398c0 -112 40 -227 174 -227c204 0 277 233 277 405c0 112 -37 220 -169 220zM435 730c178 0 243 -120 243 -276c0 -222 -109 -464 -368 -464c-169 0 -240 130 -240 282c0 219 110 458 365 458zM290 804l105 109c17 -12 33 -29 46 -50
l-121 -93c-13 8 -23 20 -30 34zM458 804l105 109c17 -12 33 -29 46 -50l-121 -93c-13 8 -23 20 -30 34z" />
    <glyph glyph-name="ohungarumlaut" unicode="&#x151;" horiz-adv-x="568" 
d="M331 484c-140 0 -200 -150 -200 -285c0 -71 27 -154 116 -154c145 0 202 151 202 278c0 75 -27 161 -118 161zM241 -10c-133 0 -184 96 -184 205c0 187 91 345 284 345c132 0 182 -97 182 -211c0 -171 -75 -339 -282 -339zM183 615l127 151c23 -13 40 -31 50 -50
l-144 -133c-13 6 -26 19 -33 32zM355 615l127 151c23 -13 40 -31 50 -50l-144 -133c-13 6 -26 19 -33 32z" />
    <glyph glyph-name="Racute" unicode="&#x154;" horiz-adv-x="660" 
d="M335 294l-109 -3l-42 -232l90 -25c2 -11 1 -23 -3 -34h-256c-2 12 -1 23 3 34l90 25l109 602l-90 25c-2 13 0 24 4 34h184c150 0 289 -26 289 -183c0 -132 -83 -198 -190 -229l129 -252l73 -22c2 -12 0 -24 -4 -34h-126zM293 662l-56 -313c140 0 288 30 288 181
c0 102 -78 132 -176 132h-56zM328 810l174 103c15 -21 25 -45 31 -66l-186 -77c-9 12 -15 26 -19 40z" />
    <glyph glyph-name="racute" unicode="&#x155;" horiz-adv-x="440" 
d="M474 535l-18 -122c-13 -3 -27 -3 -40 0l-12 58c-115 -4 -199 -240 -226 -369l-22 -104l-61 -8l-8 10l87 477h-76c-5 14 -6 28 -5 41l123 21c36 6 41 -19 35 -46l-28 -131l4 -1c38 91 111 179 206 179c13 0 28 -2 41 -5zM257 614l134 152c21 -14 39 -33 49 -53l-152 -130
c-13 6 -24 17 -31 31z" />
    <glyph glyph-name="Rcaron" unicode="&#x158;" horiz-adv-x="660" 
d="M335 294l-109 -3l-42 -232l90 -25c2 -11 1 -23 -3 -34h-256c-2 12 -1 23 3 34l90 25l109 602l-90 25c-2 13 0 24 4 34h184c150 0 289 -26 289 -183c0 -132 -83 -198 -190 -229l129 -252l73 -22c2 -12 0 -24 -4 -34h-126zM293 662l-56 -313c140 0 288 30 288 181
c0 102 -78 132 -176 132h-56zM539 874l-154 -104h-10l-122 105c7 14 17 27 29 38l105 -70l130 70c10 -12 17 -26 22 -39z" />
    <glyph glyph-name="rcaron" unicode="&#x159;" horiz-adv-x="440" 
d="M474 535l-18 -122c-13 -3 -27 -3 -40 0l-12 58c-115 -4 -199 -240 -226 -369l-22 -104l-61 -8l-8 10l87 477h-76c-5 14 -6 28 -5 41l123 21c36 6 41 -19 35 -46l-28 -131l4 -1c38 91 111 179 206 179c13 0 28 -2 41 -5zM452 733l-150 -150h-7l-100 153c11 13 24 23 37 30
l78 -93l112 93c11 -8 22 -19 30 -33z" />
    <glyph glyph-name="Sacute" unicode="&#x15a;" horiz-adv-x="581" 
d="M34 61l24 144c14 3 28 3 42 0l21 -124c28 -21 78 -33 130 -33c94 0 208 41 208 135c0 76 -68 107 -143 139c-91 39 -192 81 -192 193c0 146 121 215 261 215c74 0 145 -18 197 -51l-21 -139c-14 -3 -28 -3 -42 0l-18 113c-31 12 -72 20 -114 20c-87 0 -181 -32 -181 -126
c0 -75 49 -100 114 -132c96 -46 221 -80 221 -197c0 -151 -133 -228 -280 -228c-87 0 -166 26 -227 71zM316 810l174 103c15 -21 25 -45 31 -66l-186 -77c-9 12 -15 26 -19 40z" />
    <glyph glyph-name="sacute" unicode="&#x15b;" horiz-adv-x="472" 
d="M82 154l13 -82c25 -17 67 -27 110 -27c71 0 144 28 144 95c0 58 -92 88 -129 105c-61 29 -120 65 -120 138c0 113 99 157 205 157c58 0 114 -13 153 -34l-15 -118c-13 -3 -27 -3 -40 0l-15 84c-20 8 -46 12 -74 12c-67 0 -140 -25 -140 -89c0 -106 251 -99 251 -240
c0 -121 -122 -165 -229 -165c-63 0 -127 15 -170 45l17 119c13 3 26 3 39 0zM244 614l134 152c21 -14 39 -33 49 -53l-152 -130c-13 6 -24 17 -31 31z" />
    <glyph glyph-name="Tcommaaccent" unicode="&#x162;" horiz-adv-x="615" 
d="M240 59l110 604h-159l-50 -107c-14 -3 -28 -3 -42 0l21 164h553l-27 -164c-14 -3 -28 -3 -42 0l-18 107h-160l-110 -604l90 -25c2 -10 2 -23 -2 -34h-256c-2 11 -2 23 2 34zM175 -202c39 37 49 71 49 144c12 2 25 3 38 3c14 0 26 -1 38 -3c-1 -89 -37 -139 -100 -171
c-12 6 -20 16 -25 27z" />
    <glyph glyph-name="tcommaaccent" unicode="&#x163;" horiz-adv-x="335" 
d="M235 484l-67 -332c-3 -15 -7 -35 -7 -53c0 -28 9 -52 46 -52c35 0 79 20 92 28c5 -12 7 -26 6 -40c-41 -27 -92 -45 -130 -45c-60 0 -89 35 -89 92c0 12 2 29 5 45l72 357h-90c-1 11 1 24 6 34l94 13l28 150l64 12l9 -10l-29 -152h125c0 -16 -2 -31 -8 -47h-127zM33 -202
c39 37 49 71 49 144c12 2 25 3 38 3c14 0 26 -1 38 -3c-1 -89 -37 -139 -100 -171c-12 6 -20 16 -25 27z" />
    <glyph glyph-name="Tcaron" unicode="&#x164;" horiz-adv-x="615" 
d="M240 59l110 604h-159l-50 -107c-14 -3 -28 -3 -42 0l21 164h553l-27 -164c-14 -3 -28 -3 -42 0l-18 107h-160l-110 -604l90 -25c2 -10 2 -23 -2 -34h-256c-2 11 -2 23 2 34zM555 874l-154 -104h-10l-122 105c7 14 17 27 29 38l105 -70l130 70c10 -12 17 -26 22 -39z" />
    <glyph glyph-name="tcaron" unicode="&#x165;" horiz-adv-x="335" 
d="M236 484l-67 -332c-3 -15 -7 -35 -7 -53c0 -28 9 -52 46 -52c35 0 79 20 92 28c5 -12 7 -26 6 -40c-41 -27 -92 -45 -130 -45c-60 0 -89 35 -89 92c0 12 2 29 5 45l72 357h-90c-1 11 1 24 6 34l94 13l28 150l64 12l9 -10l-29 -152h125c0 -16 -2 -31 -8 -47h-127zM343 640
c39 37 49 71 49 144c12 2 25 3 38 3c14 0 26 -1 38 -3c-1 -89 -37 -139 -100 -171c-12 6 -20 16 -25 27z" />
    <glyph glyph-name="Uring" unicode="&#x16e;" horiz-adv-x="723" 
d="M201 661l-90 25c-2 12 0 25 4 34h257c2 -12 0 -25 -4 -34l-90 -25l-59 -321c-8 -43 -12 -85 -12 -120c0 -100 36 -162 138 -162c142 0 192 82 219 231l68 375l-85 22c-2 12 -1 23 3 34h231c2 -12 1 -23 -3 -34l-82 -21l-68 -368c-37 -200 -113 -307 -293 -307
c-145 0 -206 79 -206 219c0 39 6 86 15 136zM476 937c49 0 87 -35 87 -82c0 -59 -47 -100 -106 -100c-51 0 -87 35 -87 83c0 57 47 99 106 99zM472 901c-33 0 -52 -30 -52 -60c0 -26 14 -50 42 -50c33 0 51 31 51 60c0 24 -13 50 -41 50z" />
    <glyph glyph-name="uring" unicode="&#x16f;" horiz-adv-x="631" 
d="M477 52l87 10c5 -12 6 -29 4 -41l-126 -29c-42 -10 -44 19 -39 46l27 144l-4 2c-39 -87 -108 -194 -226 -194c-70 0 -99 58 -99 126c0 23 4 48 8 72l53 289h-76c-5 14 -6 28 -5 41l121 21c42 7 40 -23 35 -48l-47 -256c-7 -36 -14 -75 -14 -108c0 -45 14 -79 59 -79
c133 0 235 356 247 417l12 67l63 8l9 -10zM387 765c49 0 87 -35 87 -82c0 -59 -47 -100 -106 -100c-51 0 -87 35 -87 83c0 57 47 99 106 99zM383 729c-33 0 -52 -30 -52 -60c0 -26 14 -50 42 -50c33 0 51 31 51 60c0 24 -13 50 -41 50z" />
    <glyph glyph-name="Uhungarumlaut" unicode="&#x170;" horiz-adv-x="723" 
d="M201 661l-90 25c-2 12 0 25 4 34h257c2 -12 0 -25 -4 -34l-90 -25l-59 -321c-8 -43 -12 -85 -12 -120c0 -100 36 -162 138 -162c142 0 192 82 219 231l68 375l-85 22c-2 12 -1 23 3 34h231c2 -12 1 -23 -3 -34l-82 -21l-68 -368c-37 -200 -113 -307 -293 -307
c-145 0 -206 79 -206 219c0 39 6 86 15 136zM322 804l105 109c17 -12 33 -29 46 -50l-121 -93c-13 8 -23 20 -30 34zM490 804l105 109c17 -12 33 -29 46 -50l-121 -93c-13 8 -23 20 -30 34z" />
    <glyph glyph-name="uhungarumlaut" unicode="&#x171;" horiz-adv-x="631" 
d="M477 52l87 10c5 -12 6 -29 4 -41l-126 -29c-42 -10 -44 19 -39 46l27 144l-4 2c-39 -87 -108 -194 -226 -194c-70 0 -99 58 -99 126c0 23 4 48 8 72l53 289h-76c-5 14 -6 28 -5 41l121 21c42 7 40 -23 35 -48l-47 -256c-7 -36 -14 -75 -14 -108c0 -45 14 -79 59 -79
c133 0 235 356 247 417l12 67l63 8l9 -10zM218 615l127 151c23 -13 40 -31 50 -50l-144 -133c-13 6 -26 19 -33 32zM390 615l127 151c23 -13 40 -31 50 -50l-144 -133c-13 6 -26 19 -33 32z" />
    <glyph glyph-name="Zacute" unicode="&#x179;" horiz-adv-x="680" 
d="M587 0h-551l12 64l517 595l-1 4h-305l-50 -107c-15 -3 -29 -3 -42 0l22 164h487l-12 -64l-519 -595l1 -4h369l53 112c15 3 29 3 44 0zM364 810l174 103c15 -21 25 -45 31 -66l-186 -77c-9 12 -15 26 -19 40z" />
    <glyph glyph-name="zacute" unicode="&#x17a;" horiz-adv-x="513" 
d="M304 0h-273l10 62l364 396l-1 4h-232l-33 -71c-14 -3 -28 -3 -40 0l18 139h380l-10 -63l-365 -396l1 -4h184c94 0 109 17 135 71c12 -1 25 -6 33 -13c-24 -125 -93 -125 -171 -125zM255 614l134 152c21 -14 39 -33 49 -53l-152 -130c-13 6 -24 17 -31 31z" />
    <glyph glyph-name="Zdotaccent" unicode="&#x17b;" horiz-adv-x="680" 
d="M587 0h-551l12 64l517 595l-1 4h-305l-50 -107c-15 -3 -29 -3 -42 0l22 164h487l-12 -64l-519 -595l1 -4h369l53 112c15 3 29 3 44 0zM480 867c2 -28 -5 -61 -17 -86c-16 -4 -35 -5 -48 -5c-11 0 -24 1 -32 2c0 29 3 57 14 87c16 3 37 4 48 4c9 0 23 0 35 -2z" />
    <glyph glyph-name="zdotaccent" unicode="&#x17c;" horiz-adv-x="513" 
d="M304 0h-273l10 62l364 396l-1 4h-232l-33 -71c-14 -3 -28 -3 -40 0l18 139h380l-10 -63l-365 -396l1 -4h184c94 0 109 17 135 71c12 -1 25 -6 33 -13c-24 -125 -93 -125 -171 -125zM369 707c2 -28 -5 -61 -17 -86c-16 -4 -35 -5 -48 -5c-11 0 -24 1 -32 2
c0 29 3 57 14 87c16 3 37 4 48 4c9 0 23 0 35 -2z" />
    <glyph glyph-name="Amacron" unicode="&#x100;" horiz-adv-x="721" 
d="M526 59l-25 168h-274l-97 -171l89 -22c1 -11 -1 -23 -6 -34h-234c-1 11 1 23 6 34l78 20l376 654l52 22l11 -5l100 -670l74 -21c2 -11 0 -24 -4 -34h-248c-2 11 0 24 4 34zM445 598h-4l-180 -314h231zM605 792h-276c-1 23 3 45 10 65h276c1 -23 -3 -44 -10 -65z" />
    <glyph glyph-name="amacron" unicode="&#x101;" horiz-adv-x="582" 
d="M424 427l9 53c-17 7 -36 10 -57 10c-168 0 -245 -186 -245 -337c0 -55 14 -100 64 -100c108 0 216 305 229 374zM483 540h34l-90 -488l85 10c5 -14 6 -27 5 -41l-126 -29c-40 -9 -44 17 -39 44l27 144l-4 1c-33 -74 -111 -191 -215 -191c-81 0 -103 90 -103 163
c0 175 104 387 291 387c34 0 66 -8 93 -23c10 17 24 23 42 23zM490 620h-272c0 22 4 42 12 62h271c0 -22 -3 -42 -11 -62z" />
    <glyph glyph-name="Emacron" unicode="&#x112;" horiz-adv-x="629" 
d="M106 59l111 602l-95 25c-1 11 0 23 4 34h501l-23 -155c-14 -3 -28 -3 -42 0l-16 98h-252l-47 -256h192l33 65c11 3 21 3 32 0l-33 -206c-11 -3 -21 -3 -32 0l-12 84h-190l-54 -293h296l52 102c14 3 28 3 42 0l-24 -159h-540c-2 11 -2 23 2 34zM550 792h-276
c-1 23 3 45 10 65h276c1 -23 -3 -44 -10 -65z" />
    <glyph glyph-name="emacron" unicode="&#x113;" horiz-adv-x="502" 
d="M461 620h-272c0 22 4 42 12 62h271c0 -22 -3 -42 -11 -62zM141 282l1 -4l183 59c58 19 90 29 90 75c0 49 -34 75 -80 75c-110 0 -169 -105 -194 -205zM131 198c0 -105 60 -142 131 -142c59 0 125 26 170 60c11 -10 18 -22 22 -34c-53 -57 -136 -92 -212 -92
c-98 0 -185 57 -185 197c0 173 108 353 287 353c85 0 140 -57 140 -139c0 -27 -5 -52 -15 -80l-337 -88c-1 -12 -1 -25 -1 -35z" />
    <glyph glyph-name="Edotaccent" unicode="&#x116;" horiz-adv-x="629" 
d="M106 59l111 602l-95 25c-1 11 0 23 4 34h501l-23 -155c-14 -3 -28 -3 -42 0l-16 98h-252l-47 -256h192l33 65c11 3 21 3 32 0l-33 -206c-11 -3 -21 -3 -32 0l-12 84h-190l-54 -293h296l52 102c14 3 28 3 42 0l-24 -159h-540c-2 11 -2 23 2 34zM467 867
c2 -28 -5 -61 -17 -86c-16 -4 -35 -5 -48 -5c-11 0 -24 1 -32 2c0 29 3 57 14 87c16 3 37 4 48 4c9 0 23 0 35 -2z" />
    <glyph glyph-name="edotaccent" unicode="&#x117;" horiz-adv-x="502" 
d="M383 707c2 -28 -5 -61 -17 -86c-16 -4 -35 -5 -48 -5c-11 0 -24 1 -32 2c0 29 3 57 14 87c16 3 37 4 48 4c9 0 23 0 35 -2zM141 282l1 -4l183 59c58 19 90 29 90 75c0 49 -34 75 -80 75c-110 0 -169 -105 -194 -205zM131 198c0 -105 60 -142 131 -142c59 0 125 26 170 60
c11 -10 18 -22 22 -34c-53 -57 -136 -92 -212 -92c-98 0 -185 57 -185 197c0 173 108 353 287 353c85 0 140 -57 140 -139c0 -27 -5 -52 -15 -80l-337 -88c-1 -12 -1 -25 -1 -35z" />
    <glyph glyph-name="Gcommaaccent" unicode="&#x122;" horiz-adv-x="694" 
d="M497 77l40 213l-110 25c-1 11 0 22 5 33h239c1 -11 0 -22 -5 -33l-53 -16l-59 -309h-18c-28 0 -40 12 -44 25c-39 -17 -90 -25 -138 -25c-172 0 -284 98 -284 293c0 264 172 447 411 447c64 0 124 -13 171 -42l-21 -141c-14 -3 -28 -3 -42 0l-19 113c-32 8 -63 12 -92 12
c-196 0 -330 -162 -330 -392c0 -149 102 -227 239 -227c40 0 80 8 110 24zM282 -202c39 37 49 71 49 144c12 2 25 3 38 3c14 0 26 -1 38 -3c-1 -89 -37 -139 -100 -171c-12 6 -20 16 -25 27z" />
    <glyph glyph-name="gcommaaccent" unicode="&#x123;" horiz-adv-x="564" 
d="M430 426l10 54c-21 7 -43 10 -65 10c-167 0 -244 -173 -244 -315c0 -49 8 -113 70 -113c115 0 216 293 229 364zM386 179l-4 1c-31 -78 -113 -181 -210 -181c-95 0 -115 103 -115 176c0 176 110 365 297 365c36 0 69 -7 94 -23c7 11 15 23 50 23h26l-88 -474
c-35 -193 -129 -267 -284 -267c-57 0 -113 12 -150 32l16 107c13 3 27 3 40 0l16 -72c29 -9 58 -14 85 -14c110 0 175 53 208 226zM414 740c-39 -37 -49 -71 -49 -144c-12 -2 -25 -3 -38 -3c-14 0 -26 1 -38 3c1 89 37 139 100 171c12 -6 20 -16 25 -27z" />
    <glyph glyph-name="Imacron" unicode="&#x12a;" horiz-adv-x="344" 
d="M217 661l-90 25c-2 13 0 24 4 34h256c2 -13 0 -24 -4 -34l-90 -25l-109 -602l90 -25c2 -12 1 -23 -3 -34h-256c-2 12 -1 23 3 34l90 25zM408 792h-276c-1 23 3 45 10 65h276c1 -23 -3 -44 -10 -65z" />
    <glyph glyph-name="imacron" unicode="&#x12b;" horiz-adv-x="322" 
d="M251 493l-83 -441l86 10c5 -13 6 -26 5 -41l-126 -29c-40 -9 -44 17 -39 44l81 441h-76c-5 14 -6 28 -5 41l122 21c36 6 40 -19 35 -46zM347 620h-272c0 22 4 42 12 62h271c0 -22 -3 -42 -11 -62z" />
    <glyph glyph-name="Iogonek" unicode="&#x12e;" horiz-adv-x="344" 
d="M217 661l-90 25c-2 13 0 24 4 34h256c2 -13 0 -24 -4 -34l-90 -25l-109 -602l90 -25c2 -12 1 -22 -3 -34h-107c-11 -24 -20 -59 -20 -90c0 -32 17 -57 51 -57c11 0 25 2 42 9c9 -12 14 -27 17 -41c-20 -15 -57 -26 -91 -26c-58 0 -87 38 -87 91c0 40 15 83 33 114h-94
c-2 12 -1 22 3 34l90 25z" />
    <glyph glyph-name="iogonek" unicode="&#x12f;" horiz-adv-x="322" 
d="M251 493l-83 -441l86 10c5 -12 6 -29 5 -41l-101 -22c-9 -24 -19 -59 -19 -89c0 -32 17 -57 52 -57c11 0 25 2 42 9c8 -12 13 -27 16 -41c-20 -15 -56 -26 -90 -26c-60 0 -88 38 -88 91c0 37 14 78 31 109c-12 7 -11 25 -8 41l81 441h-76c-5 14 -6 28 -5 41l122 21
c36 6 40 -19 35 -46zM286 714c1 -29 -5 -60 -17 -86c-14 -4 -31 -6 -46 -6c-11 0 -23 1 -34 3c-1 29 3 56 14 86c15 3 33 5 48 5c12 0 26 -1 35 -2z" />
    <glyph glyph-name="Kcommaaccent" unicode="&#x136;" horiz-adv-x="679" 
d="M632 0h-127l-233 374l1 6l290 290l-55 16c-2 12 -1 23 3 34h225c2 -11 2 -22 -2 -34l-102 -29l-277 -272l203 -326l77 -25c2 -15 0 -25 -3 -34zM217 661l-90 25c-2 13 0 24 4 34h256c2 -13 0 -24 -4 -34l-90 -25l-109 -602l90 -25c2 -11 1 -23 -3 -34h-256
c-2 12 -1 23 3 34l90 25zM249 -202c39 37 49 71 49 144c12 2 25 3 38 3c14 0 26 -1 38 -3c-1 -89 -37 -139 -100 -171c-12 6 -20 16 -25 27z" />
    <glyph glyph-name="kcommaaccent" unicode="&#x137;" horiz-adv-x="545" 
d="M339 48l-137 225l169 198c25 30 58 69 95 69c23 0 57 -26 80 -55c-1 -9 -7 -19 -16 -27c-14 9 -29 14 -42 14c-30 0 -62 -16 -110 -69l-103 -113l145 -233l80 39c9 -8 15 -21 18 -35l-77 -51c-22 -14 -35 -20 -45 -20c-22 0 -39 28 -57 58zM266 713l-132 -715l-63 -8
l-9 10l129 697h-76c-5 14 -6 28 -5 41l121 21c37 6 40 -19 35 -46zM155 -202c39 37 49 71 49 144c12 2 25 3 38 3c14 0 26 -1 38 -3c-1 -89 -37 -139 -100 -171c-12 6 -20 16 -25 27z" />
    <glyph glyph-name="Lcommaaccent" unicode="&#x13b;" horiz-adv-x="562" 
d="M10 34l96 25l111 602l-90 25c-2 13 0 24 4 34h256c2 -13 0 -24 -4 -34l-90 -25l-110 -604h254l54 112c15 3 29 3 44 0l-25 -169h-502c-2 11 -2 23 2 34zM194 -202c39 37 49 71 49 144c12 2 25 3 38 3c14 0 26 -1 38 -3c-1 -89 -37 -139 -100 -171c-12 6 -20 16 -25 27z
" />
    <glyph glyph-name="lcommaaccent" unicode="&#x13c;" horiz-adv-x="298" 
d="M266 713l-122 -661l96 13c5 -12 6 -28 5 -40l-137 -33c-39 -9 -43 17 -38 44l121 661h-76c-5 14 -6 28 -5 41l121 21c37 6 40 -19 35 -46zM22 -202c39 37 49 71 49 144c12 2 25 3 38 3c14 0 26 -1 38 -3c-1 -89 -37 -139 -100 -171c-12 6 -20 16 -25 27z" />
    <glyph glyph-name="Ncommaaccent" unicode="&#x145;" horiz-adv-x="724" 
d="M268 621h-4l-104 -565l85 -22c2 -10 2 -22 -2 -34h-224c-2 10 -2 22 2 34l82 21l111 609l-95 22c-1 12 0 23 4 34h189l214 -577h4l96 521l-86 22c-2 13 0 24 4 34h227c2 -13 0 -24 -4 -34l-83 -21l-120 -652l-51 -23l-11 2zM239 -202c39 37 49 71 49 144c12 2 25 3 38 3
c14 0 26 -1 38 -3c-1 -89 -37 -139 -100 -171c-12 6 -20 16 -25 27z" />
    <glyph glyph-name="ncommaaccent" unicode="&#x146;" horiz-adv-x="641" 
d="M193 -202c39 37 49 71 49 144c12 2 25 3 38 3c14 0 26 -1 38 -3c-1 -89 -37 -139 -100 -171c-12 6 -20 16 -25 27zM543 347l-55 -295l86 10c5 -12 6 -29 5 -41l-126 -29c-40 -9 -44 17 -39 44l48 263c5 28 12 67 12 96c0 45 -10 82 -62 82c-96 0 -203 -227 -239 -399
l-17 -80l-61 -8l-8 10l87 477h-76c-5 14 -6 28 -5 41l121 21c37 6 40 -19 35 -46l-27 -143l4 -1c46 97 121 191 213 191c51 0 111 -23 111 -126c0 -19 -3 -45 -7 -67z" />
    <glyph glyph-name="Omacron" unicode="&#x14c;" horiz-adv-x="694" 
d="M430 672c-204 0 -282 -224 -282 -398c0 -112 40 -227 174 -227c204 0 277 233 277 405c0 112 -37 220 -169 220zM435 730c178 0 243 -120 243 -276c0 -222 -109 -464 -368 -464c-169 0 -240 130 -240 282c0 219 110 458 365 458zM565 792h-276c-1 23 3 45 10 65h276
c1 -23 -3 -44 -10 -65z" />
    <glyph glyph-name="omacron" unicode="&#x14d;" horiz-adv-x="559" 
d="M331 484c-140 0 -200 -150 -200 -285c0 -71 27 -154 116 -154c145 0 202 151 202 278c0 75 -27 161 -118 161zM241 -10c-133 0 -184 96 -184 205c0 187 91 345 284 345c132 0 182 -97 182 -211c0 -171 -75 -339 -282 -339zM475 620h-272c0 22 4 42 12 62h271
c0 -22 -3 -42 -11 -62z" />
    <glyph glyph-name="Rcommaaccent" unicode="&#x156;" horiz-adv-x="660" 
d="M335 294l-109 -3l-42 -232l90 -25c2 -11 1 -23 -3 -34h-256c-2 12 -1 23 3 34l90 25l109 602l-90 25c-2 13 0 24 4 34h184c150 0 289 -26 289 -183c0 -132 -83 -198 -190 -229l129 -252l73 -22c2 -12 0 -24 -4 -34h-126zM293 662l-56 -313c140 0 288 30 288 181
c0 102 -78 132 -176 132h-56zM243 -202c39 37 49 71 49 144c12 2 25 3 38 3c14 0 26 -1 38 -3c-1 -89 -37 -139 -100 -171c-12 6 -20 16 -25 27z" />
    <glyph glyph-name="rcommaaccent" unicode="&#x157;" horiz-adv-x="440" 
d="M474 535l-18 -122c-13 -3 -27 -3 -40 0l-12 58c-115 -4 -199 -240 -226 -369l-22 -104l-61 -8l-8 10l87 477h-76c-5 14 -6 28 -5 41l123 21c36 6 41 -19 35 -46l-28 -131l4 -1c38 91 111 179 206 179c13 0 28 -2 41 -5zM28 -202c39 37 49 71 49 144c12 2 25 3 38 3
c14 0 26 -1 38 -3c-1 -89 -37 -139 -100 -171c-12 6 -20 16 -25 27z" />
    <glyph glyph-name="Umacron" unicode="&#x16a;" horiz-adv-x="723" 
d="M201 661l-90 25c-2 12 0 25 4 34h257c2 -12 0 -25 -4 -34l-90 -25l-59 -321c-8 -43 -12 -85 -12 -120c0 -100 36 -162 138 -162c142 0 192 82 219 231l68 375l-85 22c-2 12 -1 23 3 34h231c2 -12 1 -23 -3 -34l-82 -21l-68 -368c-37 -200 -113 -307 -293 -307
c-145 0 -206 79 -206 219c0 39 6 86 15 136zM600 792h-276c-1 23 3 45 10 65h276c1 -23 -3 -44 -10 -65z" />
    <glyph glyph-name="umacron" unicode="&#x16b;" horiz-adv-x="631" 
d="M477 52l87 10c5 -12 6 -29 4 -41l-126 -29c-42 -10 -44 19 -39 46l27 144l-4 2c-39 -87 -108 -194 -226 -194c-70 0 -99 58 -99 126c0 23 4 48 8 72l53 289h-76c-5 14 -6 28 -5 41l121 21c42 7 40 -23 35 -48l-47 -256c-7 -36 -14 -75 -14 -108c0 -45 14 -79 59 -79
c133 0 235 356 247 417l12 67l63 8l9 -10zM500 620h-272c0 22 4 42 12 62h271c0 -22 -3 -42 -11 -62z" />
    <glyph glyph-name="Uogonek" unicode="&#x172;" horiz-adv-x="723" 
d="M201 661l-90 25c-2 12 0 25 4 34h257c2 -12 0 -25 -4 -34l-90 -25l-59 -321c-8 -43 -12 -85 -12 -120c0 -100 36 -162 138 -162c142 0 192 82 219 231l68 375l-85 22c-2 12 -1 23 3 34h231c2 -12 1 -23 -3 -34l-82 -21l-68 -368c-32 -172 -93 -276 -224 -301
c-9 -24 -18 -57 -18 -86c0 -32 17 -57 51 -57c11 0 25 2 42 9c9 -11 14 -27 17 -41c-20 -15 -56 -26 -91 -26c-58 0 -87 38 -87 91c0 36 12 74 28 104h-11c-145 0 -206 79 -206 219c0 39 6 86 15 136z" />
    <glyph glyph-name="uogonek" unicode="&#x173;" horiz-adv-x="631" 
d="M477 52l87 10c5 -12 6 -28 4 -41l-108 -25c-10 -23 -18 -57 -18 -86c0 -32 17 -57 51 -57c11 0 25 2 42 9c9 -12 14 -26 16 -41c-20 -15 -57 -26 -90 -26c-58 0 -87 38 -87 91c0 39 15 82 33 113c-8 9 -7 23 -4 37l27 146l-4 2c-39 -87 -108 -194 -226 -194
c-70 0 -99 58 -99 126c0 22 4 48 8 72l53 289h-76c-5 14 -6 28 -5 41l121 21c37 6 40 -19 35 -48l-55 -296c-5 -25 -6 -48 -6 -68c0 -45 14 -79 59 -79c131 0 236 362 245 410l14 74l63 8l9 -10z" />
    <glyph glyph-name="afii10023" unicode="&#x401;" horiz-adv-x="629" 
d="M106 59l111 602l-95 25c-1 11 0 23 4 34h501l-23 -155c-14 -3 -28 -3 -42 0l-16 98h-252l-47 -256h192l33 65c11 3 21 3 32 0l-33 -206c-11 -3 -21 -3 -32 0l-12 84h-190l-54 -293h296l52 102c14 3 28 3 42 0l-24 -159h-540c-2 11 -2 23 2 34zM374 877
c1 -27 -6 -59 -18 -84c-15 -4 -30 -6 -45 -6c-11 0 -22 1 -33 3c0 27 4 56 14 84c15 3 32 5 50 5c11 0 24 -1 32 -2zM558 877c1 -27 -6 -59 -18 -84c-15 -4 -30 -6 -45 -6c-11 0 -22 1 -33 3c0 27 4 56 14 84c15 3 32 5 50 5c11 0 24 -1 32 -2z" />
    <glyph glyph-name="afii10051" unicode="&#x402;" horiz-adv-x="730" 
d="M199 59l110 604h-118l-50 -107c-14 -3 -28 -3 -42 0l21 164h540l-28 -164c-14 -3 -29 -3 -42 0l-18 107h-187l-48 -263c52 21 107 32 158 32c129 0 183 -88 183 -204c0 -180 -100 -393 -307 -393c-2 11 -3 25 -1 38c152 16 228 193 228 330c0 90 -28 163 -152 163
c-38 0 -81 -7 -119 -20l-52 -287l93 -25c2 -12 1 -23 -3 -34h-259c-2 12 -1 23 3 34z" />
    <glyph glyph-name="afii10052" unicode="&#x403;" horiz-adv-x="559" 
d="M550 663h-256l-110 -604l90 -25c2 -12 1 -22 -3 -34h-256c-2 12 -1 23 3 34l90 25l109 602l-95 25c-2 13 0 24 4 34h511l-28 -164c-14 -3 -28 -3 -42 0zM335 810l174 103c15 -21 25 -45 31 -66l-186 -77c-9 12 -15 26 -19 40z" />
    <glyph glyph-name="afii10053" unicode="&#x404;" horiz-adv-x="618" 
d="M480 71l60 118c14 3 28 3 42 0l-28 -138c-55 -38 -134 -61 -211 -61c-169 0 -273 102 -273 293c0 243 149 447 402 447c59 0 117 -14 158 -42l-21 -141c-14 -3 -28 -3 -42 0l-19 113c-24 9 -50 12 -78 12c-165 0 -273 -116 -309 -269l391 9c1 -22 -3 -47 -10 -67l-391 9
c-3 -24 -4 -50 -4 -74c0 -149 93 -227 231 -227c35 0 72 6 102 18z" />
    <glyph glyph-name="afii10054" unicode="&#x405;" horiz-adv-x="581" 
d="M34 61l24 144c14 3 28 3 42 0l21 -124c28 -21 78 -33 130 -33c94 0 208 41 208 135c0 76 -68 107 -143 139c-91 39 -192 81 -192 193c0 146 121 215 261 215c74 0 145 -18 197 -51l-21 -139c-14 -3 -28 -3 -42 0l-18 113c-31 12 -72 20 -114 20c-87 0 -181 -32 -181 -126
c0 -75 49 -100 114 -132c96 -46 221 -80 221 -197c0 -151 -133 -228 -280 -228c-87 0 -166 26 -227 71z" />
    <glyph glyph-name="afii10055" unicode="&#x406;" horiz-adv-x="344" 
d="M217 661l-90 25c-2 13 0 24 4 34h256c2 -13 0 -24 -4 -34l-90 -25l-109 -602l90 -25c2 -12 1 -23 -3 -34h-256c-2 12 -1 23 3 34l90 25z" />
    <glyph glyph-name="afii10056" unicode="&#x407;" horiz-adv-x="344" 
d="M217 661l-90 25c-2 13 0 24 4 34h256c2 -13 0 -24 -4 -34l-90 -25l-109 -602l90 -25c2 -12 1 -23 -3 -34h-256c-2 12 -1 23 3 34l90 25zM235 877c1 -27 -6 -59 -18 -84c-15 -4 -30 -6 -45 -6c-11 0 -22 1 -33 3c0 27 4 56 14 84c15 3 32 5 50 5c11 0 24 -1 32 -2z
M419 877c1 -27 -6 -59 -18 -84c-15 -4 -30 -6 -45 -6c-11 0 -22 1 -33 3c0 27 4 56 14 84c15 3 32 5 50 5c11 0 24 -1 32 -2z" />
    <glyph glyph-name="afii10057" unicode="&#x408;" horiz-adv-x="350" 
d="M119 71l109 590l-90 25c-2 13 0 24 4 34h256c2 -13 0 -24 -4 -34l-90 -25l-116 -627c-28 -149 -112 -199 -220 -199c-4 11 -5 27 -2 39c103 21 130 70 153 197z" />
    <glyph glyph-name="afii10058" unicode="&#x409;" horiz-adv-x="906" 
d="M12 -5v148c14 3 28 3 42 0l25 -60c132 73 212 405 248 578l-99 25c-1 12 0 22 4 34h527c2 -12 0 -24 -4 -34l-96 -25l-47 -241h47c138 0 228 -45 228 -171c0 -203 -158 -249 -347 -249h-177c-2 13 0 25 4 34l98 25l120 604h-198c-84 -401 -181 -624 -369 -673zM601 362
l-61 -305c159 0 269 28 269 181c0 116 -81 124 -208 124z" />
    <glyph glyph-name="afii10059" unicode="&#x40a;" horiz-adv-x="962" 
d="M630 661l-90 25c-2 13 0 24 4 34h262c2 -13 0 -24 -4 -34l-96 -25l-44 -241h53c135 0 228 -41 228 -171c0 -206 -161 -249 -347 -249h-168c-2 12 -1 23 3 34l90 25l54 304h-337l-54 -304l90 -25c2 -12 1 -22 -3 -34h-256c-2 12 -1 23 3 34l90 25l109 602l-90 25
c-2 13 0 24 4 34h256c2 -13 0 -24 -4 -34l-90 -25l-44 -241h337zM651 362l-55 -305c150 0 269 21 269 180c0 118 -82 124 -214 125z" />
    <glyph glyph-name="afii10060" unicode="&#x40b;" horiz-adv-x="755" 
d="M199 59l110 604h-118l-50 -107c-14 -3 -28 -3 -42 0l21 164h540l-28 -164c-14 -3 -28 -3 -42 0l-18 107h-187l-48 -262c44 17 98 28 150 28c130 0 181 -67 181 -155c0 -14 -2 -32 -4 -46l-30 -169l80 -25c2 -12 0 -24 -4 -34h-166l30 168c6 35 12 65 12 94
c0 61 -27 105 -136 105c-43 0 -88 -8 -122 -19l-53 -289l93 -25c2 -12 1 -22 -3 -34h-259c-2 12 -1 23 3 34z" />
    <glyph glyph-name="afii10062" unicode="&#x40e;" horiz-adv-x="650" 
d="M370 280h4l226 385l-85 21c-2 13 0 24 4 34h224c2 -12 1 -23 -3 -34l-75 -22l-236 -400c-92 -156 -179 -276 -308 -276c-10 0 -22 1 -30 2v147c15 3 29 3 42 0l25 -76c61 6 116 61 162 132l-151 472l-69 21c-2 13 0 24 4 34h249c2 -13 0 -24 -4 -34l-98 -25zM301 903
c10 2 21 3 32 3s22 -1 33 -3c-1 -42 16 -73 60 -73c48 0 76 25 84 73c11 2 23 3 35 3s24 -1 36 -3c-16 -82 -80 -126 -159 -126c-73 0 -125 43 -121 126z" />
    <glyph glyph-name="afii10145" unicode="&#x40f;" horiz-adv-x="757" 
d="M630 661l-90 25c-2 13 0 24 4 34h256c2 -13 0 -24 -4 -34l-90 -25l-109 -602l90 -25c2 -13 1 -22 -3 -34h-292l-50 -135c-14 -3 -27 -3 -41 0l-8 135h-278c-2 12 -1 23 3 34l90 25l109 602l-90 25c-2 13 0 24 4 34h256c2 -13 0 -24 -4 -34l-90 -25l-110 -604h337z" />
    <glyph glyph-name="afii10017" unicode="&#x410;" horiz-adv-x="721" 
d="M526 59l-25 168h-274l-97 -171l89 -22c1 -11 -1 -23 -6 -34h-234c-1 11 1 23 6 34l78 20l376 654l52 22l11 -5l100 -670l74 -21c2 -11 0 -24 -4 -34h-248c-2 11 0 24 4 34zM445 598h-4l-180 -314h231z" />
    <glyph glyph-name="afii10018" unicode="&#x411;" horiz-adv-x="631" 
d="M299 663l-47 -232h71c146 0 257 -40 257 -176c0 -194 -141 -255 -342 -255h-237c-2 13 0 24 4 34l99 25l117 602l-95 25c-2 11 0 24 4 34h493l-28 -164c-14 -3 -29 -3 -42 0l-17 107h-237zM241 373l-63 -316h73c150 0 251 44 251 183c0 104 -69 133 -188 133h-73z" />
    <glyph glyph-name="afii10019" unicode="&#x412;" horiz-adv-x="625" 
d="M349 662h-56l-46 -254h37c121 0 235 15 235 144c0 97 -84 110 -170 110zM327 350h-91l-54 -293h57c148 0 260 25 260 163c0 100 -76 130 -172 130zM106 56l111 606l-95 24c-2 12 0 24 4 34h219c117 0 252 -22 252 -162c0 -89 -62 -156 -149 -171v-4
c79 -11 132 -83 132 -156c0 -180 -156 -227 -351 -227h-220c-2 11 -2 23 2 34z" />
    <glyph glyph-name="afii10020" unicode="&#x413;" horiz-adv-x="559" 
d="M550 663h-256l-110 -604l90 -25c2 -12 1 -22 -3 -34h-256c-2 12 -1 23 3 34l90 25l109 602l-95 25c-2 13 0 24 4 34h511l-28 -164c-14 -3 -28 -3 -42 0z" />
    <glyph glyph-name="afii10021" unicode="&#x414;" horiz-adv-x="730" 
d="M21 57h59c149 144 215 437 248 604l-97 25c-2 13 0 24 4 34h527c2 -13 0 -24 -4 -34l-77 -25l-110 -604h80l-31 -192c-14 -3 -28 -3 -42 0l-30 135h-441l-74 -135c-14 -3 -28 -3 -42 0zM605 663h-216c-65 -294 -116 -462 -232 -606h338z" />
    <glyph glyph-name="afii10022" unicode="&#x415;" horiz-adv-x="629" 
d="M106 59l111 602l-95 25c-1 11 0 23 4 34h501l-23 -155c-14 -3 -28 -3 -42 0l-16 98h-252l-47 -256h192l33 65c11 3 21 3 32 0l-33 -206c-11 -3 -21 -3 -32 0l-12 84h-190l-54 -293h296l52 102c14 3 28 3 42 0l-24 -159h-540c-2 11 -2 23 2 34z" />
    <glyph glyph-name="afii10024" unicode="&#x416;" horiz-adv-x="982" 
d="M111 0h-131c-2 11 -2 22 2 34l79 23l314 330l-163 270l-96 29c-2 12 0 24 4 34h221c2 -12 0 -24 -4 -34l-64 -17l182 -303l-2 -6zM532 661l-90 25c-2 13 0 24 4 34h256c2 -13 0 -24 -4 -34l-90 -25l-110 -602l90 -25c2 -10 2 -23 -2 -34h-256c-2 10 -2 22 2 34l90 25z
M937 0h-127l-234 361l1 6l291 303l-55 16c-2 12 -1 23 3 34h224c2 -12 1 -22 -3 -34l-101 -29l-276 -285l203 -313l77 -25c2 -12 1 -23 -3 -34z" />
    <glyph glyph-name="afii10025" unicode="&#x417;" horiz-adv-x="589" 
d="M156 546v143c44 22 129 41 202 41c105 0 201 -45 201 -157c0 -101 -66 -175 -167 -186l-1 -5c79 -11 130 -83 130 -156c0 -159 -150 -236 -292 -236c-73 0 -145 19 -199 58l22 140c14 3 29 3 42 0l25 -118c32 -13 69 -19 106 -19c105 0 218 55 218 168
c0 101 -98 132 -186 132h-70c0 23 5 43 10 58h65c105 0 217 34 217 152c0 84 -78 110 -152 110c-34 0 -68 -6 -94 -16l-35 -109c-14 -3 -28 -3 -42 0z" />
    <glyph glyph-name="afii10026" unicode="&#x418;" horiz-adv-x="772" 
d="M645 661l-90 25c-2 12 0 24 4 34h256c2 -13 0 -24 -4 -34l-90 -25l-109 -602l90 -25c2 -12 1 -22 -3 -34h-256c-2 12 -1 23 3 34l90 25l81 447h-4l-418 -386l-11 -61l90 -25c2 -12 1 -23 -3 -34h-256c-2 12 -1 23 3 34l90 25l109 602l-90 25c-2 13 0 24 4 34h256
c2 -13 0 -24 -4 -34l-90 -25l-80 -441h4l418 387z" />
    <glyph glyph-name="afii10027" unicode="&#x419;" horiz-adv-x="772" 
d="M645 661l-90 25c-2 12 0 24 4 34h256c2 -13 0 -24 -4 -34l-90 -25l-109 -602l90 -25c2 -12 1 -22 -3 -34h-256c-2 12 -1 23 3 34l90 25l81 447h-4l-418 -386l-11 -61l90 -25c2 -12 1 -23 -3 -34h-256c-2 12 -1 23 3 34l90 25l109 602l-90 25c-2 13 0 24 4 34h256
c2 -13 0 -24 -4 -34l-90 -25l-80 -441h4l418 387zM346 903c10 2 21 3 32 3s22 -1 33 -3c-1 -42 16 -73 60 -73c48 0 76 25 84 73c11 2 23 3 35 3s24 -1 36 -3c-16 -82 -80 -126 -159 -126c-73 0 -125 43 -121 126z" />
    <glyph glyph-name="afii10028" unicode="&#x41a;" horiz-adv-x="679" 
d="M632 0h-127l-233 374l1 6l290 290l-55 16c-2 12 -1 23 3 34h225c2 -11 2 -22 -2 -34l-102 -29l-277 -272l203 -326l77 -25c2 -15 0 -25 -3 -34zM217 661l-90 25c-2 13 0 24 4 34h256c2 -13 0 -24 -4 -34l-90 -25l-109 -602l90 -25c2 -11 1 -23 -3 -34h-256
c-2 12 -1 23 3 34l90 25z" />
    <glyph glyph-name="afii10029" unicode="&#x41b;" horiz-adv-x="707" 
d="M581 663h-194c-94 -401 -174 -623 -369 -673l-6 5v148c14 3 29 3 42 0l25 -60c132 73 212 405 248 578l-99 25c-1 12 0 22 4 34h518c2 -12 0 -24 -4 -34l-90 -25l-109 -602l90 -25c2 -12 1 -22 -3 -34h-256c-2 12 -1 23 3 34l90 25z" />
    <glyph glyph-name="afii10030" unicode="&#x41c;" horiz-adv-x="973" 
d="M461 124l333 596h181c2 -11 0 -24 -4 -34l-95 -25l-49 -602l95 -25c2 -11 1 -23 -3 -34h-265c-2 10 -2 23 2 34l95 25l44 535h-4l-327 -579l-51 -23l-12 8l-100 593h-4l-148 -537l86 -22c1 -11 -1 -23 -6 -34h-228c0 11 1 23 6 34l82 21l165 606l-93 25c-1 11 0 23 4 34
h192l100 -596h4z" />
    <glyph glyph-name="afii10031" unicode="&#x41d;" horiz-adv-x="767" 
d="M640 661l-90 25c-2 12 0 24 4 34h256c2 -11 0 -23 -4 -34l-90 -25l-109 -602l90 -25c2 -12 1 -23 -3 -34h-256c-2 12 -1 23 3 34l90 25l52 292h-347l-52 -292l90 -25c2 -11 1 -23 -3 -34h-256c-2 11 -1 23 3 34l90 25l109 602l-90 25c-1 11 0 23 4 34h256
c2 -12 0 -24 -4 -34l-90 -25l-46 -253h347z" />
    <glyph glyph-name="afii10032" unicode="&#x41e;" horiz-adv-x="694" 
d="M430 672c-204 0 -282 -224 -282 -398c0 -112 40 -227 174 -227c204 0 277 233 277 405c0 112 -37 220 -169 220zM435 730c178 0 243 -120 243 -276c0 -222 -109 -464 -368 -464c-169 0 -240 130 -240 282c0 219 110 458 365 458z" />
    <glyph glyph-name="afii10033" unicode="&#x41f;" horiz-adv-x="757" 
d="M217 661l-90 25c-2 13 0 24 4 34h669c2 -13 0 -24 -4 -34l-90 -25l-109 -602l90 -25c2 -12 1 -23 -3 -34h-256c-2 12 -1 23 3 34l90 25l110 604h-337l-110 -604l90 -25c2 -12 1 -22 -3 -34h-256c-2 12 -1 23 3 34l90 25z" />
    <glyph glyph-name="afii10034" unicode="&#x420;" horiz-adv-x="607" 
d="M108 59l109 602l-90 25c-2 12 0 24 4 34h177c163 0 298 -35 298 -196c0 -190 -150 -263 -329 -263h-57l-36 -202l90 -25c2 -11 1 -23 -3 -34h-256c-2 12 -1 23 3 34zM293 662l-62 -344h44c140 0 253 58 253 194c0 117 -75 150 -218 150h-17z" />
    <glyph glyph-name="afii10035" unicode="&#x421;" horiz-adv-x="618" 
d="M480 71l60 118c14 3 28 3 42 0l-28 -138c-55 -38 -134 -61 -211 -61c-169 0 -273 102 -273 293c0 243 149 447 402 447c59 0 117 -14 158 -42l-21 -141c-14 -3 -28 -3 -42 0l-19 113c-30 8 -59 12 -87 12c-192 0 -314 -180 -314 -392c0 -150 97 -227 226 -227
c35 0 71 6 107 18z" />
    <glyph glyph-name="afii10036" unicode="&#x422;" horiz-adv-x="615" 
d="M240 59l110 604h-159l-50 -107c-14 -3 -28 -3 -42 0l21 164h553l-27 -164c-14 -3 -28 -3 -42 0l-18 107h-160l-110 -604l90 -25c2 -10 2 -23 -2 -34h-256c-2 11 -2 23 2 34z" />
    <glyph glyph-name="afii10037" unicode="&#x423;" horiz-adv-x="650" 
d="M370 280h4l226 385l-85 21c-2 13 0 24 4 34h224c2 -12 1 -23 -3 -34l-75 -22l-236 -400c-92 -156 -179 -276 -308 -276c-10 0 -22 1 -30 2v147c15 3 29 3 42 0l25 -76c61 6 116 61 162 132l-151 472l-69 21c-2 13 0 24 4 34h249c2 -13 0 -24 -4 -34l-98 -25z" />
    <glyph glyph-name="afii10038" unicode="&#x424;" horiz-adv-x="747" 
d="M417 661l-90 25c-2 13 0 24 4 34h256c2 -13 0 -24 -4 -34l-90 -25l-9 -50c150 -11 247 -87 247 -230c0 -182 -145 -266 -338 -272l-9 -50l90 -25c2 -12 1 -23 -3 -34h-256c-2 12 -1 23 3 34l90 25l9 51c-144 11 -247 87 -247 225c0 195 152 273 338 278zM148 343
c0 -113 64 -176 176 -191l77 418c-152 -9 -253 -71 -253 -227zM653 382c0 107 -65 171 -176 187l-76 -419c146 10 252 78 252 232z" />
    <glyph glyph-name="afii10039" unicode="&#x425;" horiz-adv-x="672" 
d="M389 425l191 237l-76 24c-2 12 0 24 4 34h225c2 -12 0 -24 -4 -34l-70 -16l-243 -303l141 -312l72 -21c2 -11 1 -23 -3 -34h-256c-2 11 -1 23 3 34l99 25l-121 264l-215 -269l75 -20c2 -11 1 -23 -3 -34h-224c-2 11 -1 23 3 34l75 18l262 330l-128 283l-84 21
c-1 11 0 23 4 34h256c2 -12 0 -24 -4 -34l-85 -25z" />
    <glyph glyph-name="afii10040" unicode="&#x426;" horiz-adv-x="757" 
d="M630 661l-90 25c-2 13 0 24 4 34h256c2 -13 0 -24 -4 -34l-90 -25l-110 -604h93l-31 -192c-14 -3 -28 -3 -42 0l-30 135h-571c-2 12 -1 23 3 34l90 25l109 602l-90 25c-2 13 0 24 4 34h256c2 -13 0 -24 -4 -34l-90 -25l-110 -604h337z" />
    <glyph glyph-name="afii10041" unicode="&#x427;" horiz-adv-x="694" 
d="M516 355l56 306l-92 25c-2 12 0 25 4 34h258c2 -13 0 -24 -4 -34l-90 -25l-109 -602l90 -25c2 -12 1 -22 -3 -34h-256c-2 12 -1 23 3 34l90 25l43 244c-27 -13 -104 -30 -177 -30c-123 0 -190 64 -190 161c0 12 1 29 4 44l34 183l-83 25c-1 11 0 23 4 34h245
c2 -14 0 -24 -4 -34l-86 -25l-25 -133c-5 -29 -9 -55 -9 -79c0 -75 33 -113 151 -113c48 0 101 7 146 19z" />
    <glyph glyph-name="afii10042" unicode="&#x428;" horiz-adv-x="1016" 
d="M889 661l-77 25c-2 13 0 24 4 34h243c2 -13 0 -24 -4 -34l-90 -25l-109 -602l90 -25c2 -13 1 -22 -3 -34h-928c-2 13 -1 23 3 34l90 25l109 602l-90 25c-2 13 0 24 4 34h255c2 -13 0 -24 -4 -34l-89 -25l-110 -604h260l110 604l-69 25c-2 13 0 23 4 34h225
c2 -13 0 -24 -4 -34l-80 -25l-110 -604h260z" />
    <glyph glyph-name="afii10043" unicode="&#x429;" horiz-adv-x="1016" 
d="M845 0h-830c-2 13 -1 23 3 34l90 25l109 602l-90 25c-2 13 0 24 4 34h255c2 -13 0 -24 -4 -34l-89 -25l-110 -604h260l110 604l-69 25c-2 13 0 24 4 34h225c2 -13 0 -24 -4 -34l-80 -25l-110 -604h260l110 604l-77 25c-2 13 0 24 4 34h243c2 -13 0 -24 -4 -34l-90 -25
l-110 -604h93l-31 -192c-14 -3 -28 -3 -42 0z" />
    <glyph glyph-name="afii10044" unicode="&#x42a;" horiz-adv-x="650" 
d="M120 720h374c2 -13 0 -24 -4 -34l-96 -25l-45 -241h53c139 0 229 -44 229 -171c0 -215 -170 -249 -347 -249h-169c-2 12 -1 24 3 34l90 25l110 604h-127l-50 -107c-14 -3 -28 -3 -42 0zM552 237c0 116 -79 125 -214 125l-54 -305c148 0 268 16 268 180z" />
    <glyph glyph-name="afii10045" unicode="&#x42b;" horiz-adv-x="841" 
d="M714 661l-90 25c-2 13 0 24 4 34h256c2 -13 0 -24 -4 -34l-90 -25l-109 -602l90 -25c2 -12 1 -23 -3 -34h-256c-2 12 -1 23 3 34l90 25zM217 661l-90 25c-2 13 0 24 4 34h256c2 -13 0 -24 -4 -34l-90 -25l-44 -241h51c139 0 229 -44 229 -171c0 -215 -170 -249 -347 -249
h-167c-2 12 -1 23 3 34l90 25zM450 237c0 116 -79 125 -212 125l-55 -305c146 0 267 16 267 180z" />
    <glyph glyph-name="afii10046" unicode="&#x42c;" horiz-adv-x="548" 
d="M217 661l-90 25c-2 13 0 24 4 34h256c2 -13 0 -24 -4 -34l-90 -25l-44 -241h51c139 0 229 -44 229 -171c0 -215 -170 -249 -347 -249h-167c-2 12 -1 23 3 34l90 25zM450 237c0 116 -79 125 -212 125l-55 -305c146 0 267 16 267 180z" />
    <glyph glyph-name="afii10047" unicode="&#x42d;" horiz-adv-x="626" 
d="M102 195l23 -118c40 -19 78 -27 115 -27c153 0 265 127 286 303l-372 -8c-1 23 3 46 10 67l367 -7v18c0 144 -87 250 -228 250c-28 0 -59 -4 -91 -13l-37 -109c-14 -3 -27 -3 -41 0v136c53 28 119 43 185 43c191 0 291 -129 291 -309c0 -231 -128 -431 -381 -431
c-70 0 -141 20 -195 70l26 135c14 3 28 3 42 0z" />
    <glyph glyph-name="afii10048" unicode="&#x42e;" horiz-adv-x="943" 
d="M690 672c-185 0 -257 -227 -257 -400c0 -103 32 -225 156 -225c195 0 259 241 259 410c0 102 -32 215 -158 215zM217 661l-90 25c-2 13 0 24 4 34h256c2 -13 0 -24 -4 -34l-90 -25l-46 -254h121c35 174 137 323 325 323c175 0 234 -122 234 -272
c0 -220 -100 -468 -351 -468c-149 0 -222 122 -222 269c0 31 1 60 6 91h-124l-52 -291l90 -25c2 -12 1 -22 -3 -34h-256c-2 12 -1 23 3 34l90 25z" />
    <glyph glyph-name="afii10049" unicode="&#x42f;" horiz-adv-x="686" 
d="M440 350h63l56 312h-58c-137 0 -236 -38 -236 -180c0 -106 75 -132 175 -132zM635 661l-109 -602l90 -25c2 -12 1 -22 -3 -34h-257c-2 11 -1 24 2 34l92 25l43 238h-66c-49 0 -81 -32 -106 -62l-193 -235h-145c-2 13 0 24 4 34l89 22l159 195c23 28 48 49 88 59v4
c-93 8 -136 83 -136 167c0 194 153 239 336 239h206c2 -13 0 -24 -4 -34z" />
    <glyph glyph-name="afii10065" unicode="&#x430;" horiz-adv-x="582" 
d="M424 427l9 53c-17 7 -36 10 -57 10c-168 0 -245 -186 -245 -337c0 -55 14 -100 64 -100c108 0 216 305 229 374zM483 540h34l-90 -488l85 10c5 -14 6 -27 5 -41l-126 -29c-40 -9 -44 17 -39 44l27 144l-4 1c-33 -74 -111 -191 -215 -191c-81 0 -103 90 -103 163
c0 175 104 387 291 387c34 0 66 -8 93 -23c10 17 24 23 42 23z" />
    <glyph glyph-name="afii10066" unicode="&#x431;" horiz-adv-x="563" 
d="M331 481c-140 0 -196 -139 -196 -276c0 -75 26 -160 116 -160c145 0 202 153 202 280c0 79 -30 156 -122 156zM160 450l4 -1c49 58 112 87 177 87c132 0 186 -85 186 -208c0 -177 -81 -338 -282 -338c-144 0 -184 111 -184 229c0 150 58 354 179 436c71 48 158 55 254 60
l22 45c12 1 24 -2 32 -7l-10 -63c-7 -43 -40 -44 -64 -45c-150 -9 -246 -12 -314 -195z" />
    <glyph glyph-name="afii10067" unicode="&#x432;" horiz-adv-x="543" 
d="M246 485l-36 -185c91 4 213 10 213 101c0 72 -72 86 -136 86c-14 0 -28 -1 -41 -2zM253 42c78 0 154 43 154 121c0 75 -73 93 -141 94c-24 0 -48 -2 -66 -4l-24 -124c-12 -61 25 -87 77 -87zM97 90l74 377h-76c-5 12 -6 24 -5 35c38 15 131 38 218 38
c88 0 189 -26 189 -123c0 -65 -52 -119 -118 -129l-1 -4c83 -11 109 -65 109 -115c0 -124 -133 -179 -241 -179c-98 0 -161 38 -149 100z" />
    <glyph glyph-name="afii10070" unicode="&#x435;" horiz-adv-x="502" 
d="M141 282l1 -4l183 59c58 19 90 29 90 75c0 49 -34 75 -80 75c-110 0 -169 -105 -194 -205zM131 198c0 -105 60 -142 131 -142c59 0 125 26 170 60c11 -10 18 -22 22 -34c-53 -57 -136 -92 -212 -92c-98 0 -185 57 -185 197c0 173 108 353 287 353c85 0 140 -57 140 -139
c0 -27 -5 -52 -15 -80l-337 -88c-1 -12 -1 -25 -1 -35z" />
    <glyph glyph-name="afii10072" unicode="&#x436;" horiz-adv-x="789" 
d="M483 530l-98 -526l-65 -14l-8 10l98 526l64 14zM347 277l-197 -226c-41 -47 -90 -65 -141 -66l-6 9l278 312l-55 77c-34 47 -59 87 -91 87c-10 0 -19 -2 -36 -15c-7 5 -14 13 -18 24c24 24 63 61 95 61s51 -35 66 -64zM612 11l-162 265l173 198c25 28 58 66 90 66
c21 0 52 -22 77 -52c-3 -10 -8 -18 -16 -26c-15 7 -27 10 -39 10c-39 0 -70 -28 -113 -75l-95 -104l143 -236l66 32c9 -9 15 -21 18 -36l-87 -55c-22 -14 -41 -10 -55 13z" />
    <glyph glyph-name="afii10073" unicode="&#x437;" horiz-adv-x="465" 
d="M32 81c31 -20 84 -33 136 -33c79 0 156 30 156 110c0 71 -73 90 -125 90h-71c0 20 3 39 9 57h53c67 0 159 18 159 99c0 61 -56 82 -112 82c-26 0 -53 -5 -73 -12l-24 -80c-13 -3 -27 -3 -40 0v111c36 19 95 35 153 35c83 0 170 -34 170 -127c0 -67 -54 -122 -120 -131v-4
c60 -12 95 -64 95 -122c0 -117 -113 -166 -220 -166c-63 0 -125 16 -166 49c4 14 11 30 20 42z" />
    <glyph glyph-name="afii10074" unicode="&#x438;" horiz-adv-x="631" 
d="M477 52l87 10c5 -12 6 -29 4 -41l-126 -29c-42 -10 -44 19 -39 46l27 144l-4 2c-39 -87 -108 -194 -226 -194c-70 0 -99 58 -99 126c0 23 4 48 8 72l53 289h-76c-5 14 -6 28 -5 41l121 21c42 7 40 -23 35 -48l-47 -256c-7 -36 -14 -75 -14 -108c0 -45 14 -79 59 -79
c133 0 235 356 247 417l12 67l63 8l9 -10z" />
    <glyph glyph-name="afii10075" unicode="&#x439;" horiz-adv-x="631" 
d="M477 52l87 10c5 -12 6 -29 4 -41l-126 -29c-42 -10 -44 19 -39 46l27 144l-4 2c-39 -87 -108 -194 -226 -194c-70 0 -99 58 -99 126c0 23 4 48 8 72l53 289h-76c-5 14 -6 28 -5 41l121 21c42 7 40 -23 35 -48l-47 -256c-7 -36 -14 -75 -14 -108c0 -45 14 -79 59 -79
c133 0 235 356 247 417l12 67l63 8l9 -10zM248 735c11 2 21 3 32 3s22 -1 33 -3c-4 -49 9 -85 55 -85c53 0 81 32 90 85c11 2 22 3 33 3s23 -1 34 -3c-16 -87 -74 -140 -162 -140c-79 0 -126 61 -115 140z" />
    <glyph glyph-name="afii10076" unicode="&#x43a;" horiz-adv-x="569" 
d="M249 493l-91 -495l-63 -8l-8 10l87 477h-76c-5 14 -6 28 -5 41l121 21c40 7 39 -22 35 -46zM387 11l-161 263l172 200c25 30 57 66 92 66c21 0 57 -27 81 -55c-2 -10 -8 -19 -16 -26c-15 9 -29 13 -43 13c-34 0 -66 -21 -115 -75l-97 -107l144 -233l80 39
c9 -9 15 -20 18 -35l-103 -64c-20 -12 -38 -9 -52 14z" />
    <glyph glyph-name="afii10077" unicode="&#x43b;" horiz-adv-x="617" 
d="M537 476l-79 -424l87 10c5 -12 6 -29 4 -41l-126 -29c-39 -9 -44 17 -39 44l80 438h-162l-5 -25c-38 -191 -96 -450 -268 -459l-5 4v129c11 7 24 10 37 11l23 -64c88 43 136 279 160 406l-83 20c0 11 1 23 6 34h446c2 -13 0 -24 -4 -34z" />
    <glyph glyph-name="afii10078" unicode="&#x43c;" horiz-adv-x="842" 
d="M833 499l-73 -23l-73 -424l87 10c4 -13 6 -26 4 -41l-126 -29c-39 -9 -44 17 -39 44l74 433l-5 1l-277 -464l-53 -16l-12 8l-48 471h-4l-10 -46c-40 -186 -84 -403 -243 -428l-5 4v129c12 7 23 10 38 11l25 -56c74 56 112 253 136 381h-73c-4 13 -6 28 -5 41l146 32
c50 11 60 -6 67 -74l35 -350h5l243 405l190 22c3 -15 1 -28 -4 -41z" />
    <glyph glyph-name="afii10079" unicode="&#x43d;" horiz-adv-x="644" 
d="M578 530l-88 -478l86 10c5 -12 6 -29 5 -41l-127 -29c-39 -9 -43 17 -38 44l40 217h-251l-47 -255l-63 -8l-8 10l87 477h-76c-5 14 -6 28 -5 41l121 21c37 6 40 -19 35 -46l-34 -184h250l42 223l63 8z" />
    <glyph glyph-name="afii10080" unicode="&#x43e;" horiz-adv-x="559" 
d="M331 484c-140 0 -200 -150 -200 -285c0 -71 27 -154 116 -154c145 0 202 151 202 278c0 75 -27 161 -118 161zM241 -10c-133 0 -184 96 -184 205c0 187 91 345 284 345c132 0 182 -97 182 -211c0 -171 -75 -339 -282 -339z" />
    <glyph glyph-name="afii10081" unicode="&#x43f;" horiz-adv-x="641" 
d="M543 347l-55 -295l86 10c5 -12 6 -29 5 -41l-126 -29c-40 -9 -44 17 -39 44l48 263c5 28 12 67 12 96c0 45 -10 82 -62 82c-96 0 -203 -227 -239 -399l-17 -80l-61 -8l-8 10l87 477h-76c-5 14 -6 28 -5 41l121 21c37 6 40 -19 35 -46l-27 -143l4 -1
c46 97 121 191 213 191c51 0 111 -23 111 -126c0 -19 -3 -45 -7 -67z" />
    <glyph glyph-name="afii10082" unicode="&#x440;" horiz-adv-x="591" 
d="M184 129l-13 -63c28 -11 61 -16 90 -16c152 0 220 157 220 309c0 50 -9 115 -70 115c-102 0 -200 -214 -227 -345zM163 28l-30 -166l86 10c5 -12 6 -29 5 -41l-126 -29c-40 -9 -44 17 -39 44l115 631h-76c-5 14 -6 28 -5 41l121 21c37 6 40 -19 35 -46l-23 -128l4 -1
c34 77 116 173 212 173c93 0 114 -100 114 -173c0 -182 -93 -364 -270 -364c-41 0 -81 7 -123 28z" />
    <glyph glyph-name="afii10083" unicode="&#x441;" horiz-adv-x="476" 
d="M447 82c-52 -59 -131 -92 -205 -92c-98 0 -185 59 -185 197c0 180 121 353 303 353c34 0 79 -8 114 -31l-16 -116c-13 -3 -27 -3 -40 0l-14 81c-16 7 -35 10 -53 10c-143 0 -220 -160 -220 -286c0 -104 60 -142 130 -142c57 0 121 25 164 60c11 -10 18 -22 22 -34z" />
    <glyph glyph-name="afii10084" unicode="&#x442;" horiz-adv-x="940" 
d="M841 347l-54 -295l86 10c5 -12 6 -29 5 -41l-127 -29c-39 -9 -43 17 -38 44l49 263c5 26 12 67 12 97c0 43 -6 81 -57 81c-89 0 -201 -236 -234 -393l-18 -86l-61 -8l-9 10l56 299c8 46 12 80 12 105c0 51 -16 73 -56 73c-93 0 -199 -231 -234 -399l-17 -80l-61 -8l-8 10
l87 477h-76c-5 14 -6 28 -5 41l121 21c37 6 40 -19 35 -46l-27 -143l4 -1c46 97 115 191 207 191c47 0 107 -16 107 -118c0 -20 -2 -44 -8 -72l4 -1c45 98 115 191 207 191c47 0 106 -20 106 -123c0 -18 -3 -45 -8 -70z" />
    <glyph glyph-name="afii10085" unicode="&#x443;" horiz-adv-x="530" 
d="M238 -1l-118 454l-65 -39c-9 6 -19 17 -26 33l78 69c16 15 30 24 45 24c19 0 26 -15 34 -45l105 -413h4c80 137 136 313 136 365c0 23 -6 45 -16 68c12 13 24 21 38 26c29 -20 56 -55 56 -87c0 -116 -264 -654 -481 -654c-30 0 -62 12 -81 56c9 16 21 33 37 48
c23 -28 45 -39 72 -39c64 0 127 59 182 134z" />
    <glyph glyph-name="afii10086" unicode="&#x444;" horiz-adv-x="785" 
d="M396 434l8 44c-20 7 -37 10 -56 10c-162 0 -217 -199 -217 -327c0 -38 5 -98 55 -98c94 0 192 266 210 371zM408 111l-8 -44c21 -12 41 -17 62 -17c148 0 213 172 213 306c0 41 -4 121 -57 121c-103 0 -192 -268 -210 -366zM391 26l-30 -164l86 10c5 -12 6 -29 5 -41
l-126 -29c-40 -9 -44 17 -39 44l61 328l-4 1c-33 -79 -90 -175 -186 -175c-84 0 -101 92 -101 156c0 148 79 384 265 384c29 0 60 -6 89 -21l33 178h-76c-5 14 -6 28 -5 41l122 21c36 6 40 -19 35 -46l-63 -339l4 -2c36 79 92 168 186 168c91 0 102 -106 102 -173
c0 -157 -82 -367 -267 -367c-32 0 -63 8 -91 26z" />
    <glyph glyph-name="afii10087" unicode="&#x445;" horiz-adv-x="588" 
d="M282 266l-90 182l-63 -41c-10 6 -20 16 -28 31l90 92c8 8 15 11 22 11c11 0 17 -7 22 -17l93 -189c59 81 154 205 190 205c25 0 52 -25 67 -49c-2 -9 -7 -20 -15 -28c-11 3 -20 5 -30 5c-56 0 -142 -116 -189 -179l111 -224l74 50c9 -11 15 -24 18 -36l-80 -74
c-14 -13 -26 -15 -34 -15c-19 0 -28 12 -48 52l-88 178c-59 -85 -163 -230 -220 -230c-20 0 -53 26 -75 66c5 12 11 20 17 25c18 -11 33 -15 48 -15c29 0 71 16 208 200z" />
    <glyph glyph-name="afii10088" unicode="&#x446;" horiz-adv-x="639" 
d="M566 530l-89 -481l66 8c25 3 38 -2 38 -22c0 -37 -42 -129 -72 -175c-13 -3 -25 -3 -38 0l27 140l-3 4l-53 -12c-39 -9 -44 17 -39 44l27 146l-4 1c-40 -87 -108 -193 -226 -193c-70 0 -99 58 -99 126c0 22 4 48 8 72l53 289h-76c-5 14 -6 28 -5 41l121 21
c37 6 40 -19 35 -46l-47 -258c-7 -36 -14 -76 -14 -108c0 -42 12 -79 59 -79c129 0 232 340 246 414l13 70l63 8z" />
    <glyph glyph-name="afii10089" unicode="&#x447;" horiz-adv-x="590" 
d="M436 52l86 10c5 -13 6 -28 5 -41l-126 -29c-41 -9 -44 18 -39 44l40 230l-4 2c-41 -59 -109 -99 -177 -99c-84 0 -116 48 -116 124c0 20 3 47 8 74l20 110h-76c-5 14 -6 27 -5 41l122 21c36 6 40 -19 35 -46l-16 -81c-5 -23 -14 -66 -14 -101c0 -43 13 -80 63 -80
c121 0 176 112 195 213l16 88l63 8l9 -10z" />
    <glyph glyph-name="afii10090" unicode="&#x448;" horiz-adv-x="930" 
d="M776 52l86 10c5 -12 6 -29 5 -41l-127 -29c-39 -9 -43 17 -38 44l27 146l-4 1c-40 -87 -99 -193 -214 -193c-79 0 -97 62 -97 125c0 23 2 47 5 67l-4 1c-40 -87 -99 -193 -214 -193c-78 0 -99 64 -99 128c0 22 3 49 7 70l53 289h-76c-5 14 -6 28 -5 41l121 21
c37 6 40 -19 35 -46l-48 -258c-4 -22 -14 -69 -14 -103c0 -44 12 -84 58 -84c129 0 225 354 237 417l13 67l63 8l9 -10l-59 -322c-4 -21 -8 -53 -8 -77c0 -43 11 -83 55 -83c130 0 225 355 237 417l13 67l63 8l8 -10z" />
    <glyph glyph-name="afii10091" unicode="&#x449;" horiz-adv-x="938" 
d="M864 530l-88 -479l65 7c26 3 39 -2 39 -22c0 -37 -43 -128 -73 -174c-12 -3 -25 -3 -37 0l26 139l-3 5l-50 -13c-41 -11 -46 14 -41 43l27 146l-4 1c-40 -87 -99 -193 -214 -193c-79 0 -97 62 -97 125c0 23 2 47 5 67l-4 1c-40 -87 -99 -193 -214 -193
c-78 0 -99 64 -99 128c0 22 3 49 7 70l53 289h-76c-5 14 -6 28 -5 41l121 21c37 6 40 -19 35 -46l-48 -258c-4 -22 -14 -68 -14 -103c0 -44 12 -84 58 -84c120 0 226 358 237 417l13 67l63 8l9 -10l-59 -322c-4 -21 -8 -53 -8 -77c0 -43 11 -83 55 -83
c121 0 226 358 237 417l13 67l63 8z" />
    <glyph glyph-name="afii10092" unicode="&#x44a;" horiz-adv-x="549" 
d="M278 43c86 0 158 75 158 164c0 49 -37 61 -76 61c-33 0 -69 -10 -92 -17l-28 -157c-7 -38 12 -51 38 -51zM170 100l67 374h-110l-32 -72c-13 -3 -27 -3 -40 0l20 128h318c1 -11 0 -23 -5 -34l-78 -20l-33 -179c34 14 84 27 124 27c62 0 110 -24 110 -98
c0 -141 -121 -236 -256 -236c-73 0 -91 25 -91 62c0 13 3 31 6 48z" />
    <glyph glyph-name="afii10093" unicode="&#x44b;" horiz-adv-x="737" 
d="M197 43c85 0 157 75 157 164c0 49 -37 61 -75 61c-33 0 -69 -10 -93 -17l-28 -157c-7 -38 13 -51 39 -51zM88 100l69 377h-76c-5 14 -6 28 -5 41l121 21c37 6 39 -20 35 -42l-36 -200c35 15 82 27 117 27c74 0 116 -31 116 -101c0 -143 -124 -233 -256 -233
c-75 0 -91 28 -91 62c0 14 3 32 6 48zM588 532l63 8l8 -10l-88 -478l86 10c5 -12 6 -29 5 -41l-127 -29c-39 -9 -43 17 -38 44z" />
    <glyph glyph-name="afii10094" unicode="&#x44c;" horiz-adv-x="467" 
d="M197 43c85 0 157 75 157 164c0 49 -37 61 -75 61c-33 0 -69 -10 -93 -17l-28 -157c-7 -38 13 -51 39 -51zM88 100l69 377h-76c-5 14 -6 28 -5 41l121 21c37 6 39 -20 35 -42l-36 -200c35 15 82 27 117 27c74 0 116 -31 116 -101c0 -143 -124 -233 -256 -233
c-75 0 -91 28 -91 62c0 14 3 32 6 48z" />
    <glyph glyph-name="afii10095" unicode="&#x44d;" horiz-adv-x="482" 
d="M22 26c4 17 12 31 21 42c34 -13 69 -20 103 -20c107 0 200 66 217 195l-239 -5c1 22 4 43 11 65l232 -6c0 101 -43 189 -141 189c-20 0 -43 -5 -65 -12l-26 -80c-13 -3 -27 -3 -40 0v114c41 20 90 32 139 32c141 0 212 -109 212 -236c0 -176 -99 -314 -290 -314
c-50 0 -99 12 -134 36z" />
    <glyph glyph-name="afii10096" unicode="&#x44e;" horiz-adv-x="789" 
d="M572 484c-130 0 -187 -150 -187 -285c0 -75 24 -154 106 -154c136 0 189 156 189 278c0 69 -22 161 -108 161zM313 245h-109l-46 -247l-63 -8l-8 10l87 477h-76c-5 14 -6 28 -5 41l121 21c37 6 40 -19 35 -46l-36 -193h108c26 137 113 240 260 240
c128 0 173 -103 173 -211c0 -166 -70 -339 -268 -339c-128 0 -175 90 -175 205c0 17 1 34 2 50z" />
    <glyph glyph-name="afii10097" unicode="&#x44f;" horiz-adv-x="577" 
d="M332 280h62l36 202c-19 2 -39 3 -60 3c-85 0 -174 -21 -174 -113c0 -72 76 -92 136 -92zM424 52l86 10c5 -12 6 -29 5 -41l-127 -29c-38 -9 -44 16 -39 45l36 197h-25c-33 0 -65 -21 -90 -50l-95 -111c-45 -52 -99 -88 -157 -88l-9 13l184 207c18 21 39 27 56 31v4
c-73 5 -126 55 -126 127c0 124 106 173 223 173c31 0 64 -4 93 -13l64 13l9 -10z" />
    <glyph glyph-name="afii10071" unicode="&#x451;" horiz-adv-x="502" 
d="M283 710c1 -27 -6 -59 -18 -84c-15 -4 -30 -6 -45 -6c-11 0 -22 1 -33 3c0 27 4 56 14 84c15 3 32 5 50 5c11 0 24 -1 32 -2zM457 710c1 -27 -6 -59 -18 -84c-15 -4 -30 -6 -45 -6c-11 0 -22 1 -33 3c0 27 4 56 14 84c15 3 32 5 50 5c11 0 24 -1 32 -2zM141 282l1 -4
l183 59c58 19 90 29 90 75c0 49 -34 75 -80 75c-110 0 -169 -105 -194 -205zM131 198c0 -108 64 -141 133 -141c57 0 121 23 168 59c11 -10 18 -22 22 -34c-51 -57 -136 -92 -211 -92c-97 0 -186 56 -186 197c0 173 108 353 287 353c85 0 140 -57 140 -139
c0 -27 -5 -52 -15 -80l-337 -88c-1 -12 -1 -25 -1 -35z" />
    <glyph glyph-name="afii10099" unicode="&#x452;" horiz-adv-x="590" 
d="M64 0l107 588h-78c-2 9 -1 19 3 28l82 18l13 65h-76c-5 13 -6 27 -5 40l121 21c37 6 40 -18 35 -46l-14 -80h140c0 -17 -3 -32 -8 -46h-141l-46 -250l4 -1c47 101 116 184 216 184c94 0 111 -91 111 -166c0 -147 -36 -301 -106 -423c-50 -86 -125 -130 -219 -140
c-6 11 -8 22 -8 35c89 24 151 96 191 182c43 93 67 232 67 326c0 71 -15 123 -64 123c-104 0 -206 -218 -242 -392l-14 -68l-61 -8z" />
    <glyph glyph-name="afii10100" unicode="&#x453;" horiz-adv-x="460" 
d="M390 101c11 -10 18 -21 22 -33c-55 -52 -133 -78 -214 -78c-85 0 -156 41 -156 132c0 114 101 136 193 170c51 19 131 56 131 117c0 57 -52 75 -106 75c-29 0 -58 -7 -79 -17l-26 -82c-14 -3 -28 -3 -40 0v119c37 18 104 36 167 36c81 0 158 -30 158 -120
c0 -107 -85 -138 -174 -171c-77 -28 -150 -55 -150 -118c0 -60 49 -81 106 -81c63 0 136 25 168 51zM249 614l134 152c21 -14 39 -33 49 -53l-152 -130c-13 6 -24 17 -31 31z" />
    <glyph glyph-name="afii10101" unicode="&#x454;" horiz-adv-x="489" 
d="M447 82c-52 -59 -131 -92 -205 -92c-98 0 -185 59 -185 197c0 180 121 353 303 353c34 0 79 -8 114 -31l-16 -118c-13 -3 -27 -3 -40 0l-14 84c-18 6 -37 9 -54 9c-99 0 -178 -88 -203 -185l267 6c2 -22 -1 -43 -10 -65c-90 2 -179 4 -270 6c-2 -16 -3 -32 -3 -48
c0 -104 60 -142 130 -142c57 0 121 25 164 60c11 -10 18 -22 22 -34z" />
    <glyph glyph-name="afii10102" unicode="&#x455;" horiz-adv-x="472" 
d="M82 154l13 -82c25 -17 67 -27 110 -27c71 0 144 28 144 95c0 58 -92 88 -129 105c-61 29 -120 65 -120 138c0 113 99 157 205 157c58 0 114 -13 153 -34l-15 -118c-13 -3 -27 -3 -40 0l-15 84c-20 8 -46 12 -74 12c-67 0 -140 -25 -140 -89c0 -106 251 -99 251 -240
c0 -121 -122 -165 -229 -165c-63 0 -127 15 -170 45l17 119c13 3 26 3 39 0z" />
    <glyph glyph-name="afii10103" unicode="&#x456;" horiz-adv-x="322" 
d="M286 714c1 -29 -5 -60 -17 -86c-14 -4 -31 -6 -46 -6c-11 0 -23 1 -34 3c-1 29 3 56 14 86c15 3 33 5 48 5c12 0 26 -1 35 -2zM251 493l-83 -441l86 10c5 -13 6 -26 5 -41l-126 -29c-40 -9 -44 17 -39 44l81 441h-76c-5 14 -6 28 -5 41l122 21c36 6 40 -19 35 -46z" />
    <glyph glyph-name="afii10104" unicode="&#x457;" horiz-adv-x="322" 
d="M251 493l-83 -441l86 10c5 -13 6 -26 5 -41l-126 -29c-40 -9 -44 17 -39 44l81 441h-76c-5 14 -6 28 -5 41l122 21c36 6 40 -19 35 -46zM180 710c1 -27 -6 -59 -18 -84c-15 -4 -30 -6 -45 -6c-11 0 -22 1 -33 3c0 27 4 56 14 84c15 3 32 5 50 5c11 0 24 -1 32 -2z
M354 710c1 -27 -6 -59 -18 -84c-15 -4 -30 -6 -45 -6c-11 0 -22 1 -33 3c0 27 4 56 14 84c15 3 32 5 50 5c11 0 24 -1 32 -2z" />
    <glyph glyph-name="afii10105" unicode="&#x458;" horiz-adv-x="310" 
d="M89 14l85 463h-76c-5 14 -6 28 -5 41l121 21c37 6 40 -19 35 -46l-94 -518c-23 -127 -93 -173 -190 -182c-5 11 -7 22 -7 33c92 29 110 73 131 188zM285 714c1 -29 -5 -60 -17 -86c-14 -4 -31 -6 -46 -6c-11 0 -23 1 -34 3c-1 29 3 56 14 86c15 3 33 5 48 5
c12 0 26 -1 35 -2z" />
    <glyph glyph-name="afii10106" unicode="&#x459;" horiz-adv-x="773" 
d="M244 476l-83 20c-1 12 1 24 6 34h446c2 -11 0 -24 -4 -34l-74 -20l-33 -179c36 15 81 27 117 27c70 0 116 -30 116 -101c0 -139 -122 -233 -256 -233c-71 0 -98 29 -88 87l71 397h-160l-5 -25c-38 -191 -96 -450 -268 -459l-5 4v129c11 7 24 10 37 11l23 -64
c88 43 136 279 160 406zM503 43c85 0 157 75 157 164c0 49 -37 61 -75 61c-33 0 -69 -10 -93 -17l-28 -157c-7 -38 13 -51 39 -51z" />
    <glyph glyph-name="afii10107" unicode="&#x45a;" horiz-adv-x="802" 
d="M531 43c86 0 158 75 158 164c0 49 -37 61 -76 61c-33 0 -69 -10 -92 -17l-28 -157c-7 -38 12 -51 38 -51zM450 253h-247l-47 -255l-63 -8l-8 10l87 477h-76c-5 14 -6 28 -5 41l121 21c37 6 40 -19 35 -46l-33 -184h247l40 223l65 8l7 -9l-43 -234c36 15 81 27 118 27
c69 0 116 -30 116 -103c0 -135 -123 -231 -256 -231c-70 0 -90 22 -90 64c0 13 2 29 5 46z" />
    <glyph glyph-name="afii10108" unicode="&#x45b;" horiz-adv-x="618" 
d="M518 340l-53 -288l86 10c5 -12 6 -29 5 -41l-126 -29c-40 -9 -44 17 -39 44l47 255c5 25 11 62 11 89c0 47 -12 78 -61 78c-100 0 -205 -224 -241 -392l-14 -68l-61 -8l-8 10l107 588h-78c-1 8 -1 18 3 28l82 18l13 65h-76c-5 13 -6 27 -5 40l121 21c35 6 40 -18 35 -46
l-14 -80h140c0 -17 -3 -32 -8 -46h-141l-46 -250l4 -1c44 97 114 184 214 184c74 0 109 -43 109 -125c0 -17 -2 -36 -6 -56z" />
    <glyph glyph-name="afii10109" unicode="&#x45c;" horiz-adv-x="569" 
d="M249 493l-91 -495l-63 -8l-8 10l87 477h-76c-5 14 -6 28 -5 41l121 21c40 7 39 -22 35 -46zM387 11l-161 263l172 200c25 30 57 66 92 66c21 0 57 -27 81 -55c-2 -10 -8 -19 -16 -26c-15 9 -29 13 -43 13c-34 0 -66 -21 -115 -75l-97 -107l144 -233l80 39
c9 -9 15 -20 18 -35l-103 -64c-20 -12 -38 -9 -52 14zM311 614l134 152c21 -14 39 -33 49 -53l-152 -130c-13 6 -24 17 -31 31z" />
    <glyph glyph-name="afii10110" unicode="&#x45e;" horiz-adv-x="530" 
d="M238 -1l-118 454l-65 -39c-9 6 -19 17 -26 33l78 69c16 15 30 24 45 24c19 0 26 -15 34 -45l105 -413h4c80 137 136 313 136 365c0 23 -6 45 -16 68c12 13 24 21 38 26c29 -20 56 -55 56 -87c0 -116 -264 -654 -481 -654c-30 0 -62 12 -81 56c9 16 21 33 37 48
c23 -28 45 -39 72 -39c64 0 127 59 182 134zM190 735c11 2 21 3 32 3s22 -1 33 -3c-4 -49 9 -85 55 -85c53 0 81 32 90 85c11 2 22 3 33 3s23 -1 34 -3c-16 -87 -74 -140 -162 -140c-79 0 -126 61 -115 140z" />
    <glyph glyph-name="afii10193" unicode="&#x45f;" horiz-adv-x="631" 
d="M260 -54l70 8l7 -8c-11 -45 -50 -131 -73 -163c-14 -4 -26 -4 -38 -3zM477 52l87 10c5 -12 6 -29 4 -41l-126 -29c-42 -10 -44 19 -39 46l27 144l-4 2c-39 -87 -108 -194 -226 -194c-70 0 -99 58 -99 126c0 23 4 48 8 72l53 289h-76c-5 14 -6 28 -5 41l121 21
c42 7 40 -23 35 -48l-47 -256c-7 -36 -14 -75 -14 -108c0 -45 14 -79 59 -79c133 0 235 356 247 417l12 67l63 8l9 -10z" />
    <glyph glyph-name="afii10050" unicode="&#x490;" horiz-adv-x="560" 
d="M622 663h-328l-110 -604l90 -25c2 -12 1 -22 -3 -34h-256c-2 12 -1 23 3 34l90 25l109 602l-95 25c-2 12 0 24 4 34h434l52 95c14 3 28 3 42 0l-26 -147z" />
    <glyph glyph-name="afii10098" unicode="&#x491;" horiz-adv-x="451" 
d="M114 530h293l37 79c13 3 27 3 40 0l-19 -132l-6 -5h-214l-87 -474l-63 -8l-8 10l87 476l-67 20c0 11 2 23 7 34z" />
    <glyph glyph-name="afii61352" unicode="&#x2116;" horiz-adv-x="996" 
d="M865 586c-90 0 -122 -116 -122 -197c0 -50 14 -100 72 -100c95 0 129 101 129 195c0 52 -22 102 -79 102zM680 392c0 132 65 241 194 241c92 0 134 -73 134 -153c0 -130 -69 -237 -198 -237c-89 0 -130 61 -130 149zM269 624h-4l-115 -624h-131c-2 10 -2 22 2 34l82 21
l111 609l-95 22c-1 12 0 22 4 34h198l163 -580h4l108 580h133c2 -12 0 -24 -4 -34l-82 -21l-121 -652l-61 -23l-13 5zM913 127h-253c-1 19 1 37 8 54h252c2 -18 -1 -37 -7 -54z" />
    <glyph glyph-name="currency" unicode="&#xa4;" horiz-adv-x="562" 
d="M106 361c0 41 13 80 35 111l-112 104c13 22 31 40 53 53l103 -112c32 22 71 36 113 36c43 0 82 -14 114 -37l100 113c24 -13 43 -33 54 -54l-111 -103c22 -32 35 -70 35 -111c0 -42 -14 -81 -36 -113l112 -103c-14 -22 -31 -39 -53 -53l-102 113
c-32 -23 -71 -36 -113 -36s-81 13 -113 36l-102 -113c-20 14 -39 32 -54 54l113 102c-23 32 -36 71 -36 113zM179 361c0 -66 50 -122 119 -122s119 56 119 122s-50 122 -119 122s-119 -56 -119 -122z" />
    <glyph glyph-name="caron.cap" unicode="&#xf6ca;" horiz-adv-x="400" 
d="M449 874l-154 -104h-10l-122 105c7 14 17 27 29 38l105 -70l130 70c10 -12 17 -26 22 -39z" />
    <glyph glyph-name="acute.cap" unicode="&#xf6c9;" horiz-adv-x="400" 
d="M210 810l174 103c15 -21 25 -45 31 -66l-186 -77c-9 12 -15 26 -19 40z" />
    <glyph glyph-name="afii10061" unicode="&#x40c;" horiz-adv-x="679" 
d="M632 0h-127l-233 374l1 6l290 290l-55 16c-2 12 -1 23 3 34h225c2 -11 2 -22 -2 -34l-102 -29l-277 -272l203 -326l77 -25c2 -15 0 -25 -3 -34zM217 661l-90 25c-2 13 0 24 4 34h256c2 -13 0 -24 -4 -34l-90 -25l-109 -602l90 -25c2 -11 1 -23 -3 -34h-256
c-2 12 -1 23 3 34l90 25zM381 810l174 103c15 -21 25 -45 31 -66l-186 -77c-9 12 -15 26 -19 40z" />
    <glyph glyph-name="uni00AD" unicode="&#xad;" horiz-adv-x="406" 
d="M360 258h-288c-1 21 2 46 11 67h288c1 -26 -3 -48 -11 -67z" />
    <glyph glyph-name="mu" unicode="&#xb5;" horiz-adv-x="631" 
d="M172 532l63 8l8 -10l-53 -295c-5 -26 -12 -72 -12 -106c0 -44 11 -81 57 -81c138 0 235 354 246 414l13 70l63 8l9 -10l-89 -478l87 10c5 -12 6 -28 4 -41l-126 -29c-39 -9 -44 17 -39 44l27 146l-4 2c-41 -86 -110 -194 -220 -194c-19 0 -37 5 -52 17h-4
c-16 -79 -26 -158 -26 -193c-14 -8 -31 -13 -51 -14c-6 16 -10 32 -10 62c0 47 10 132 46 326z" />
    <glyph glyph-name="divide" unicode="&#xf7;" horiz-adv-x="657" 
d="M597 240h-538c-2 11 -3 21 -3 32c0 10 1 22 3 33h538c2 -12 3 -23 3 -33c0 -11 -1 -22 -3 -32zM283 530c15 2 30 3 45 3s31 -1 46 -3c2 -15 3 -30 3 -45s-1 -29 -3 -44c-15 -2 -31 -3 -46 -3s-30 1 -45 3c-2 15 -3 29 -3 44s1 30 3 45zM283 104c15 2 30 3 45 3
s31 -1 46 -3c2 -15 3 -30 3 -45s-1 -29 -3 -44c-15 -2 -31 -3 -46 -3s-30 1 -45 3c-2 15 -3 29 -3 44s1 30 3 45z" />
    <glyph glyph-name="tilde" unicode="&#x2dc;" horiz-adv-x="400" 
d="M166 606c-17 0 -34 3 -49 9c14 62 47 108 100 108c51 0 76 -55 119 -55c22 0 40 26 44 58c17 0 33 -3 48 -9c-6 -57 -42 -106 -97 -106c-56 0 -85 55 -120 55c-25 0 -40 -34 -45 -60z" />
    <glyph glyph-name="uni00A0" unicode="&#xa0;" horiz-adv-x="277" 
 />
    <glyph glyph-name="grave.cap" unicode="&#xf6ce;" horiz-adv-x="400" 
d="M228 913l174 -103c-3 -14 -10 -28 -19 -40l-186 77c6 21 16 43 31 66z" />
    <glyph glyph-name="dieresis.cap" unicode="&#xf6cb;" horiz-adv-x="400" 
d="M259 877c1 -27 -6 -59 -18 -84c-15 -4 -30 -6 -45 -6c-11 0 -22 1 -33 3c0 27 4 56 14 84c15 3 32 5 50 5c11 0 24 -1 32 -2zM443 877c1 -27 -6 -59 -18 -84c-15 -4 -30 -6 -45 -6c-11 0 -22 1 -33 3c0 27 4 56 14 84c15 3 32 5 50 5c11 0 24 -1 32 -2z" />
    <glyph glyph-name="macron.cap" unicode="&#xf6d0;" horiz-adv-x="400" 
d="M442 792h-276c-1 23 3 45 10 65h276c1 -23 -3 -44 -10 -65z" />
    <glyph glyph-name="hungarumlaut.cap" unicode="&#xf6cf;" horiz-adv-x="400" 
d="M155 804l105 109c17 -12 33 -29 46 -50l-121 -93c-13 8 -23 20 -30 34zM323 804l105 109c17 -12 33 -29 46 -50l-121 -93c-13 8 -23 20 -30 34z" />
    <glyph glyph-name="breve.cyr" unicode="&#xf6d4;" horiz-adv-x="400" 
d="M161 735c11 2 21 3 32 3s22 -1 33 -3c-4 -49 9 -85 55 -85c53 0 81 32 90 85c11 2 22 3 33 3s23 -1 34 -3c-16 -87 -74 -140 -162 -140c-79 0 -126 61 -115 140z" />
    <glyph glyph-name="breve.cyrcap" unicode="&#xf6d1;" horiz-adv-x="400" 
d="M165 903c10 2 21 3 32 3s22 -1 33 -3c-1 -42 16 -73 60 -73c48 0 76 25 84 73c11 2 23 3 35 3s24 -1 36 -3c-16 -82 -80 -126 -159 -126c-73 0 -125 43 -121 126z" />
    <glyph glyph-name="four.superior" unicode="&#x2074;" 
d="M231 513l13 72h-181l3 23l250 265h46l-47 -252h56l-6 -36h-57l-12 -72l56 -15l-4 -28h-196l4 28zM135 621h115l28 152l-3 2l-141 -151z" />
    <glyph glyph-name="five.superior" unicode="&#x2075;" 
d="M76 495l12 94h22l22 -76c18 -8 35 -12 52 -12c55 0 102 40 102 103c0 60 -50 78 -102 78c-21 0 -42 -3 -60 -7l-6 6l36 181l5 4h212l-9 -61h-181l-17 -85c10 1 24 2 36 2c76 0 152 -25 152 -109c0 -95 -80 -150 -168 -150c-38 0 -77 10 -108 32z" />
    <glyph glyph-name="six.superior" unicode="&#x2076;" 
d="M240 688c-48 0 -72 -54 -72 -109c0 -43 15 -78 56 -78c57 0 75 56 75 109c0 46 -15 78 -59 78zM184 705l3 -2c19 16 47 24 74 24c67 0 106 -48 106 -114c0 -86 -53 -150 -144 -150c-83 0 -120 59 -120 128c0 152 93 282 243 282c15 0 28 -1 43 -3l-10 -37
c-85 11 -161 -39 -195 -128z" />
    <glyph glyph-name="seven.superior" unicode="&#x2077;" 
d="M130 866h238l-5 -34l-222 -371l-36 22l202 319l-2 3h-148l-21 -42h-22z" />
    <glyph glyph-name="eight.superior" unicode="&#x2078;" 
d="M83 571c0 48 36 85 88 101v4c-28 23 -49 52 -49 91c0 69 64 106 126 106c61 0 124 -30 124 -99c0 -45 -35 -85 -77 -98v-4c34 -20 60 -48 60 -90c0 -81 -74 -119 -141 -119c-60 0 -131 38 -131 108zM288 566c0 48 -47 71 -88 91c-34 -19 -49 -49 -49 -85
c0 -40 23 -71 66 -71c37 0 71 30 71 65zM185 778c0 -46 50 -71 83 -88c23 16 37 44 37 74c0 36 -19 71 -62 71c-27 0 -58 -19 -58 -57z" />
    <glyph glyph-name="nine.superior" unicode="&#x2079;" 
d="M240 835c-54 0 -72 -53 -72 -105c0 -43 15 -77 48 -77c55 0 77 52 77 102c0 46 -16 80 -53 80zM82 467l6 38c9 -1 21 -2 29 -2c74 0 140 45 159 129l-3 2c-18 -12 -42 -18 -65 -18c-68 0 -108 41 -108 109c0 81 48 148 141 148c84 0 119 -62 119 -137
c0 -136 -80 -273 -229 -273c-15 0 -30 1 -49 4z" />
    <glyph glyph-name="zero.superior" unicode="&#x2070;" 
d="M266 835c-83 0 -109 -149 -109 -227c0 -34 6 -107 55 -107c81 0 107 163 107 245c0 33 -10 89 -53 89zM274 873c89 0 112 -72 112 -142c0 -112 -51 -268 -185 -268c-80 0 -111 74 -111 142c0 112 41 268 184 268z" />
    <glyph glyph-name="n.superior" unicode="&#x207f;" horiz-adv-x="434" 
d="M392 536l-34 -191l59 5l4 -33l-90 -15c-33 -6 -36 14 -31 40l35 191c2 12 5 27 5 41c0 24 -8 45 -38 45c-90 0 -147 -222 -154 -251l-15 -62l-51 -5l-5 7l58 312h-56l-4 33l91 14c30 5 33 -10 29 -32l-13 -74l4 -1c29 60 67 108 129 108c60 0 82 -39 82 -88
c0 -12 -3 -34 -5 -44z" />
    <glyph glyph-name="zero.inferior" unicode="&#x2080;" 
d="M199 228c-83 0 -109 -149 -109 -227c0 -34 6 -107 55 -107c81 0 107 163 107 245c0 33 -10 89 -53 89zM207 266c89 0 112 -72 112 -142c0 -112 -51 -268 -185 -268c-80 0 -111 74 -111 142c0 112 41 268 184 268z" />
    <glyph glyph-name="one.inferior" unicode="&#x2081;" 
d="M224 235l-61 -329l75 -15l-4 -28h-215l4 28l76 15l54 299h-86l-3 30l131 30c23 5 34 -4 29 -30z" />
    <glyph glyph-name="two.inferior" unicode="&#x2082;" 
d="M70 -76h182l-8 -61h-255l6 45l124 104c47 39 89 75 89 143c0 42 -23 73 -66 73c-11 0 -24 -2 -37 -9l-32 -79h-22v92c26 22 66 34 103 34c67 0 122 -33 122 -104c0 -92 -63 -134 -130 -181l-76 -53v-4z" />
    <glyph glyph-name="three.inferior" unicode="&#x2083;" 
d="M78 155v84c32 19 70 27 105 27c61 0 122 -22 122 -87c0 -54 -45 -98 -100 -102v-4c56 -6 87 -42 87 -88c0 -86 -78 -129 -159 -129c-42 0 -84 12 -112 35l10 85h22l18 -69c15 -7 33 -11 51 -11c50 0 101 29 101 89c0 54 -44 67 -94 67h-26l5 39h21c55 0 108 17 108 78
c0 42 -31 60 -72 60c-15 0 -30 -3 -43 -8l-22 -66h-22z" />
    <glyph glyph-name="four.inferior" unicode="&#x2084;" 
d="M169 -94l13 72h-181l3 23l250 265h46l-47 -252h56l-6 -36h-57l-12 -72l56 -15l-4 -28h-196l4 28zM73 14h115l28 152l-3 2l-141 -151z" />
    <glyph glyph-name="five.inferior" unicode="&#x2085;" 
d="M13 -112l12 94h22l22 -76c18 -8 35 -12 52 -12c55 0 102 40 102 103c0 60 -50 78 -102 78c-21 0 -42 -3 -60 -7l-6 6l36 181l5 4h212l-9 -61h-181l-17 -85c10 1 24 2 36 2c76 0 152 -25 152 -109c0 -95 -80 -150 -168 -150c-38 0 -77 10 -108 32z" />
    <glyph glyph-name="six.inferior" unicode="&#x2086;" 
d="M168 81c-48 0 -72 -54 -72 -109c0 -43 15 -78 56 -78c57 0 75 56 75 109c0 46 -15 78 -59 78zM112 98l3 -2c19 16 47 24 74 24c67 0 106 -48 106 -114c0 -86 -53 -150 -144 -150c-83 0 -120 59 -120 128c0 152 93 282 243 282c15 0 28 -1 43 -3l-10 -37
c-85 11 -161 -39 -195 -128z" />
    <glyph glyph-name="seven.inferior" unicode="&#x2087;" 
d="M73 259h238l-5 -34l-222 -371l-36 22l202 319l-2 3h-148l-21 -42h-22z" />
    <glyph glyph-name="eight.inferior" unicode="&#x2088;" 
d="M18 -36c0 48 36 85 88 101v4c-28 23 -49 52 -49 91c0 69 64 106 126 106c61 0 124 -30 124 -99c0 -45 -35 -85 -77 -98v-4c34 -20 60 -48 60 -90c0 -81 -74 -119 -141 -119c-60 0 -131 38 -131 108zM223 -41c0 48 -47 71 -88 91c-34 -19 -49 -49 -49 -85
c0 -40 23 -71 66 -71c37 0 71 30 71 65zM120 171c0 -46 50 -71 83 -88c23 16 37 44 37 74c0 36 -19 71 -62 71c-27 0 -58 -19 -58 -57z" />
    <glyph glyph-name="nine.inferior" unicode="&#x2089;" 
d="M181 228c-54 0 -72 -53 -72 -105c0 -43 15 -77 48 -77c55 0 77 52 77 102c0 46 -16 80 -53 80zM23 -140l6 38c9 -1 21 -2 29 -2c74 0 140 45 159 129l-3 2c-18 -12 -42 -18 -65 -18c-68 0 -108 41 -108 109c0 81 48 148 141 148c84 0 119 -62 119 -137
c0 -136 -80 -273 -229 -273c-15 0 -30 1 -49 4z" />
    <glyph glyph-name="zero.oldstyle" unicode="&#xf730;" horiz-adv-x="538" 
d="M234 -10c-125 0 -177 92 -177 211c0 184 92 339 270 339c128 0 176 -103 176 -211c0 -166 -74 -339 -269 -339zM318 485c-135 0 -187 -156 -187 -282c0 -72 22 -158 110 -158c142 0 188 158 188 279c0 70 -22 161 -111 161z" />
    <glyph glyph-name="one.oldstyle" unicode="&#xf731;" horiz-adv-x="333" 
d="M260 487l-85 -433l105 -20c2 -10 1 -23 -3 -34h-283c-2 11 -2 23 2 34l106 20l81 408h-113c-5 14 -7 28 -6 42l145 34c40 9 59 -9 51 -51z" />
    <glyph glyph-name="two.oldstyle" unicode="&#xf732;" horiz-adv-x="447" 
d="M116 67h264c1 -23 -3 -48 -10 -67h-376l4 42l184 144c66 52 153 120 153 206c0 66 -62 92 -123 92c-26 0 -51 -5 -72 -13l-26 -92c-13 -3 -27 -3 -40 0v112c36 30 94 49 155 49c93 0 180 -40 180 -137c0 -119 -98 -188 -186 -253l-107 -79v-4z" />
    <glyph glyph-name="four.oldstyle" unicode="&#xf734;" horiz-adv-x="532" 
d="M423 540h45l-87 -440h96c0 -18 -3 -37 -9 -55h-98l-32 -165c-13 -2 -25 -3 -37 -3s-24 1 -35 3l32 165h-309l9 55zM365 399l-286 -296l1 -3h229l60 299h-4z" />
    <glyph glyph-name="five.oldstyle" unicode="&#xf735;" horiz-adv-x="482" 
d="M130 530h337c-1 -23 -5 -45 -14 -68h-284l-32 -171c24 3 48 5 73 5c108 0 220 -38 220 -166c0 -158 -143 -250 -289 -250c-45 0 -89 8 -131 25c2 19 7 36 17 53c31 -11 68 -17 103 -17c111 0 225 56 225 175c0 94 -88 115 -173 115c-40 0 -80 -4 -110 -9l-3 4l55 299z
" />
    <glyph glyph-name="six.oldstyle" unicode="&#xf736;" horiz-adv-x="507" 
d="M277 377c-100 0 -149 -100 -149 -192c0 -73 32 -140 117 -140c112 0 148 104 148 193c0 72 -31 139 -116 139zM302 432c123 0 165 -93 165 -187c0 -143 -81 -255 -224 -255c-129 0 -187 101 -187 220c0 247 158 461 408 461c20 0 39 -1 57 -4c1 -19 -2 -36 -9 -54
c-11 1 -25 2 -38 2c-156 0 -288 -96 -329 -253l4 -2c48 58 108 72 153 72z" />
    <glyph glyph-name="nine.oldstyle" unicode="&#xf739;" horiz-adv-x="500" 
d="M276 484c-111 0 -147 -97 -147 -180c0 -67 31 -127 112 -127c107 0 153 90 153 173c0 70 -35 134 -118 134zM375 188l-4 2c-40 -51 -98 -69 -156 -69c-107 0 -160 80 -160 175c0 134 79 244 223 244c129 0 187 -98 187 -211c0 -259 -146 -450 -401 -450
c-19 0 -37 1 -55 4c0 18 2 37 10 54c14 -2 28 -2 41 -2c154 0 285 102 315 253z" />
    <glyph glyph-name="three.oldstyle" unicode="&#xf733;" horiz-adv-x="421" 
d="M-24 -42c31 -11 67 -17 105 -17c95 0 208 41 208 151c0 70 -63 101 -138 95l-53 -4c-1 19 0 37 4 56l52 7c88 12 166 45 166 135c0 73 -61 104 -128 104c-25 0 -50 -4 -71 -12l-25 -84c-13 -3 -27 -3 -40 0v114c39 22 97 37 156 37c97 0 182 -39 182 -144
c0 -87 -54 -152 -140 -168v-4c68 -11 111 -66 111 -132c0 -142 -134 -212 -269 -212c-48 0 -95 9 -134 26c1 18 5 36 14 52z" />
    <glyph glyph-name="seven.oldstyle" unicode="&#xf737;" horiz-adv-x="465" 
d="M55 530h410l-9 -60l-407 -591c-24 10 -45 24 -63 42l400 537l-1 4h-343c0 24 5 48 13 68z" />
    <glyph glyph-name="eight.oldstyle" unicode="&#xf738;" horiz-adv-x="539" 
d="M51 165c0 90 67 155 158 183v4c-55 36 -96 80 -96 151c0 102 97 166 200 166c100 0 197 -65 197 -165c0 -77 -56 -145 -133 -165v-4c56 -35 103 -82 103 -155c0 -118 -118 -190 -225 -190c-100 0 -204 62 -204 175zM254 322c-74 -17 -128 -85 -128 -160
c0 -74 61 -117 134 -117c71 0 145 44 145 120c0 82 -84 127 -151 157zM186 513c0 -79 88 -116 149 -151c60 21 101 80 101 139c0 69 -57 113 -123 113c-58 0 -127 -35 -127 -101z" />
    <glyph glyph-name="afii10064" unicode="&#xf6c5;" horiz-adv-x="560" 
d="M328 474c-140 0 -196 -135 -196 -271c0 -76 27 -158 117 -158c144 0 201 151 201 281c0 79 -26 148 -122 148zM383 714h107l23 46c12 1 22 -1 32 -6l-9 -62c-7 -46 -33 -49 -88 -49h-103c-70 0 -156 0 -156 -76c0 -25 13 -49 42 -56c31 11 66 18 107 18
c147 0 186 -94 186 -199c0 -169 -78 -340 -282 -340c-134 0 -184 91 -184 209c0 120 40 230 126 287v4c-32 19 -45 51 -45 84c0 123 117 140 244 140z" />
    <glyph glyph-name="afii10063" unicode="&#xf6c4;" horiz-adv-x="322" 
d="M329 621h-223c1 15 4 31 10 47h223c0 -15 -4 -32 -10 -47zM251 493l-83 -441l86 10c5 -13 6 -26 5 -41l-126 -29c-40 -9 -44 17 -39 44l81 441h-76c-5 14 -6 28 -5 41l122 21c36 6 40 -19 35 -46z" />
    <glyph glyph-name="afii10192" unicode="&#xf6c6;" horiz-adv-x="564" 
d="M430 426l10 54c-21 7 -43 10 -65 10c-167 0 -244 -173 -244 -315c0 -49 8 -113 70 -113c115 0 216 293 229 364zM386 179l-4 1c-31 -78 -113 -181 -210 -181c-95 0 -115 103 -115 176c0 176 110 365 297 365c36 0 69 -7 94 -23c7 11 15 23 50 23h26l-88 -474
c-35 -193 -129 -267 -284 -267c-57 0 -113 12 -150 32l16 107c13 3 27 3 40 0l16 -72c29 -9 58 -14 85 -14c110 0 175 53 208 226z" />
    <glyph glyph-name="afii10831" unicode="&#xf6c7;" horiz-adv-x="631" 
d="M582 621h-399c1 17 4 32 10 47h399c-1 -16 -4 -31 -10 -47zM477 52l87 10c5 -12 6 -29 4 -41l-126 -29c-42 -10 -44 19 -39 46l27 144l-4 2c-39 -87 -108 -194 -226 -194c-70 0 -99 58 -99 126c0 23 4 48 8 72l53 289h-76c-5 14 -6 28 -5 41l121 21c42 7 40 -23 35 -48
l-47 -256c-7 -36 -14 -75 -14 -108c0 -45 14 -79 59 -79c133 0 235 356 247 417l12 67l63 8l9 -10z" />
    <glyph glyph-name="afii10832" unicode="&#xf6c8;" horiz-adv-x="930" 
d="M881 621h-696c0 17 4 33 10 47h696c-1 -16 -4 -31 -10 -47zM776 52l86 10c5 -12 6 -29 5 -41l-127 -29c-39 -9 -43 17 -38 44l27 146l-4 1c-40 -87 -99 -193 -214 -193c-79 0 -97 62 -97 125c0 23 2 47 5 67l-4 1c-40 -87 -99 -193 -214 -193c-78 0 -99 64 -99 128
c0 22 3 49 7 70l53 289h-76c-5 14 -6 28 -5 41l121 21c37 6 40 -19 35 -46l-48 -258c-4 -22 -14 -69 -14 -103c0 -44 12 -84 58 -84c129 0 225 354 237 417l13 67l63 8l9 -10l-59 -322c-4 -21 -8 -53 -8 -77c0 -43 11 -83 55 -83c130 0 225 355 237 417l13 67l63 8l8 -10z
" />
    <glyph glyph-name="afii10068" unicode="&#x433;" horiz-adv-x="460" 
d="M390 101c11 -10 18 -21 22 -33c-55 -52 -133 -78 -214 -78c-85 0 -156 41 -156 132c0 114 101 136 193 170c51 19 131 56 131 117c0 57 -52 75 -106 75c-29 0 -58 -7 -79 -17l-26 -82c-14 -3 -28 -3 -40 0v119c37 18 104 36 167 36c81 0 158 -30 158 -120
c0 -107 -85 -138 -174 -171c-77 -28 -150 -55 -150 -118c0 -60 49 -81 106 -81c63 0 136 25 168 51z" />
    <glyph glyph-name="afii10069" unicode="&#x434;" horiz-adv-x="577" 
d="M328 480c-140 0 -197 -138 -197 -274c0 -77 26 -161 118 -161c143 0 200 146 200 290c0 73 -33 145 -121 145zM241 -10c-139 0 -184 94 -184 208c0 178 90 336 267 336c64 0 129 -26 159 -98l4 1c0 157 -71 194 -215 212c-59 8 -88 21 -97 59l-11 44l12 7
c116 -54 236 -24 312 -135c40 -60 50 -142 50 -223c0 -183 -66 -411 -297 -411z" />
    <glyph glyph-name="onethird" unicode="&#x2153;" horiz-adv-x="836" 
d="M288 678l-61 -329l75 -15l-4 -28h-215l4 28l76 15l54 299h-86l-3 30l131 30c23 5 34 -4 29 -30zM569 289v84c32 19 70 27 105 27c61 0 122 -22 122 -87c0 -54 -45 -98 -100 -102v-4c56 -6 87 -42 87 -88c0 -86 -78 -129 -159 -129c-42 0 -84 12 -112 35l10 85h22l18 -69
c15 -7 33 -11 51 -11c50 0 101 29 101 89c0 54 -44 67 -94 67h-26l5 39h21c55 0 108 17 108 78c0 42 -31 60 -72 60c-15 0 -30 -3 -43 -8l-22 -66h-22zM139 0l541 730c15 -7 32 -18 44 -34l-541 -728c-18 6 -34 18 -44 32z" />
    <glyph glyph-name="twothirds" unicode="&#x2154;" horiz-adv-x="836" 
d="M125 368h182l-8 -61h-255l6 45l124 104c47 39 89 75 89 143c0 42 -23 73 -66 73c-11 0 -24 -2 -37 -9l-32 -79h-22v92c26 22 66 34 103 34c67 0 122 -33 122 -104c0 -92 -63 -134 -130 -181l-76 -53v-4zM146 0l541 730c15 -7 32 -18 44 -34l-541 -728
c-18 6 -34 18 -44 32zM580 289v84c32 19 70 27 105 27c61 0 122 -22 122 -87c0 -54 -45 -98 -100 -102v-4c56 -6 87 -42 87 -88c0 -86 -78 -129 -159 -129c-42 0 -84 12 -112 35l10 85h22l18 -69c15 -7 33 -11 51 -11c50 0 101 29 101 89c0 54 -44 67 -94 67h-26l5 39h21
c55 0 108 17 108 78c0 42 -31 60 -72 60c-15 0 -30 -3 -43 -8l-22 -66h-22z" />
    <glyph glyph-name="oneeighth" unicode="&#x215b;" horiz-adv-x="836" 
d="M284 678l-61 -329l75 -15l-4 -28h-215l4 28l76 15l54 299h-86l-3 30l131 30c23 5 34 -4 29 -30zM129 0l541 730c15 -7 32 -18 44 -34l-541 -728c-18 6 -34 18 -44 32zM511 98c0 48 36 85 88 101v4c-28 23 -49 52 -49 91c0 69 64 106 126 106c61 0 124 -30 124 -99
c0 -45 -35 -85 -77 -98v-4c34 -20 60 -48 60 -90c0 -81 -74 -119 -141 -119c-60 0 -131 38 -131 108zM716 93c0 48 -47 71 -88 91c-34 -19 -49 -49 -49 -85c0 -40 23 -71 66 -71c37 0 71 30 71 65zM613 305c0 -46 50 -71 83 -88c23 16 37 44 37 74c0 36 -19 71 -62 71
c-27 0 -58 -19 -58 -57z" />
    <glyph glyph-name="threeeighths" unicode="&#x215c;" horiz-adv-x="836" 
d="M131 599v84c32 19 70 27 105 27c61 0 122 -22 122 -87c0 -54 -45 -98 -100 -102v-4c56 -6 87 -42 87 -88c0 -86 -78 -129 -159 -129c-42 0 -84 12 -112 35l10 85h22l18 -69c15 -7 33 -11 51 -11c50 0 101 29 101 89c0 54 -44 67 -94 67h-26l5 39h21c55 0 108 17 108 78
c0 42 -31 60 -72 60c-15 0 -30 -3 -43 -8l-22 -66h-22zM142 0l541 730c15 -7 32 -18 44 -34l-541 -728c-18 6 -34 18 -44 32zM507 98c0 48 36 85 88 101v4c-28 23 -49 52 -49 91c0 69 64 106 126 106c61 0 124 -30 124 -99c0 -45 -35 -85 -77 -98v-4c34 -20 60 -48 60 -90
c0 -81 -74 -119 -141 -119c-60 0 -131 38 -131 108zM712 93c0 48 -47 71 -88 91c-34 -19 -49 -49 -49 -85c0 -40 23 -71 66 -71c37 0 71 30 71 65zM609 305c0 -46 50 -71 83 -88c23 16 37 44 37 74c0 36 -19 71 -62 71c-27 0 -58 -19 -58 -57z" />
    <glyph glyph-name="fiveeighths" unicode="&#x215d;" horiz-adv-x="836" 
d="M142 0l541 730c15 -7 32 -18 44 -34l-541 -728c-18 6 -34 18 -44 32zM518 98c0 48 36 85 88 101v4c-28 23 -49 52 -49 91c0 69 64 106 126 106c61 0 124 -30 124 -99c0 -45 -35 -85 -77 -98v-4c34 -20 60 -48 60 -90c0 -81 -74 -119 -141 -119c-60 0 -131 38 -131 108z
M723 93c0 48 -47 71 -88 91c-34 -19 -49 -49 -49 -85c0 -40 23 -71 66 -71c37 0 71 30 71 65zM620 305c0 -46 50 -71 83 -88c23 16 37 44 37 74c0 36 -19 71 -62 71c-27 0 -58 -19 -58 -57zM72 328l12 94h22l22 -76c18 -8 35 -12 52 -12c55 0 102 40 102 103
c0 60 -50 78 -102 78c-21 0 -42 -3 -60 -7l-6 6l36 181l5 4h212l-9 -61h-181l-17 -85c10 1 24 2 36 2c76 0 152 -25 152 -109c0 -95 -80 -150 -168 -150c-38 0 -77 10 -108 32z" />
    <glyph glyph-name="seveneighths" unicode="&#x215e;" horiz-adv-x="836" 
d="M152 700h238l-5 -34l-222 -371l-36 22l202 319l-2 3h-148l-21 -42h-22zM95 0l541 730c15 -7 32 -18 44 -34l-541 -728c-18 6 -34 18 -44 32zM483 98c0 48 36 85 88 101v4c-28 23 -49 52 -49 91c0 69 64 106 126 106c61 0 124 -30 124 -99c0 -45 -35 -85 -77 -98v-4
c34 -20 60 -48 60 -90c0 -81 -74 -119 -141 -119c-60 0 -131 38 -131 108zM688 93c0 48 -47 71 -88 91c-34 -19 -49 -49 -49 -85c0 -40 23 -71 66 -71c37 0 71 30 71 65zM585 305c0 -46 50 -71 83 -88c23 16 37 44 37 74c0 36 -19 71 -62 71c-27 0 -58 -19 -58 -57z" />
    <glyph glyph-name="caron.alt" unicode="&#xe088;" horiz-adv-x="400" 
d="M82 -202c39 37 49 71 49 144c12 2 25 3 38 3c14 0 26 -1 38 -3c-1 -89 -37 -139 -100 -171c-12 6 -20 16 -25 27z" />
    <glyph glyph-name="breve.cap" unicode="&#xe13f;" horiz-adv-x="400" 
d="M190 902c18 3 36 3 54 0c0 -30 19 -66 71 -66c46 0 78 34 85 66c7 1 19 2 29 2s21 -1 29 -2c-9 -68 -61 -126 -149 -126c-92 0 -126 59 -119 126z" />
    <glyph glyph-name="circumflex.cap" unicode="&#xe155;" horiz-adv-x="400" 
d="M158 808l154 105h10l122 -106c-7 -13 -17 -26 -29 -37l-105 69l-130 -69c-11 11 -17 24 -22 38z" />
    <glyph glyph-name="zero.slash" unicode="&#xf638;" horiz-adv-x="562" 
d="M360 654c-179 0 -219 -290 -219 -409c0 -27 2 -67 8 -99h4l284 474c-17 21 -42 34 -77 34zM251 45c174 0 218 274 218 436c0 37 -2 68 -5 89h-4l-289 -482c16 -25 42 -43 80 -43zM371 710c43 0 75 -13 100 -32l43 72c16 -7 30 -16 39 -25l-50 -83c31 -49 40 -117 40 -181
c0 -185 -73 -471 -300 -471c-46 0 -82 14 -108 38l-49 -83c-16 5 -30 14 -39 25l58 96c-28 46 -38 108 -38 164c0 183 63 480 304 480z" />
    <glyph glyph-name="c.superior" unicode="&#xe14e;" horiz-adv-x="338" 
d="M318 391l17 -28c-34 -41 -89 -62 -144 -62c-72 0 -131 39 -131 133c0 119 80 234 209 234c30 0 61 -5 84 -21l-9 -82h-35l-8 54c-12 4 -24 6 -36 6c-87 0 -141 -101 -141 -185c0 -65 39 -88 85 -88c38 0 81 16 109 39z" />
    <glyph glyph-name="f.superior" unicode="&#xe181;" horiz-adv-x="252" 
d="M281 622h-87l-42 -244c-10 -61 -26 -117 -66 -158c-29 -29 -62 -48 -95 -48c-22 0 -49 7 -68 35l27 33c11 -16 33 -29 55 -29c54 0 77 85 92 172l40 239h-58l4 27l61 9l7 35c19 94 65 124 130 124c19 0 39 -3 60 -7l-10 -74h-35l-3 44c-50 6 -74 -16 -84 -76l-8 -46h86z
" />
    <glyph glyph-name="g.superior" unicode="&#xe191;" horiz-adv-x="383" 
d="M305 590l7 32c-13 6 -28 8 -43 8c-97 0 -147 -110 -147 -207c0 -32 7 -67 38 -67c73 0 134 185 145 234zM275 413h-4c-21 -52 -72 -107 -136 -107c-65 0 -77 69 -77 119c0 117 73 243 198 243c23 0 46 -4 62 -15c6 10 12 15 32 15h28l-57 -317
c-23 -129 -87 -179 -195 -179c-43 0 -81 8 -106 21l11 78h35l3 -48c18 -6 38 -9 56 -9c80 0 121 38 140 144z" />
    <glyph glyph-name="j.superior" unicode="&#xe19f;" horiz-adv-x="188" 
d="M133 725c-1 20 2 39 9 57c20 5 36 4 53 2c0 -19 -3 -38 -11 -57c-18 -4 -35 -4 -51 -2zM67 316l55 304h-57l-4 33l96 14c25 4 28 -13 25 -30l-63 -348c-15 -84 -61 -117 -135 -122l-5 27c61 19 74 45 88 122z" />
    <glyph glyph-name="k.superior" unicode="&#xe1a0;" horiz-adv-x="378" 
d="M254 340l-93 151l113 133c17 19 36 45 63 45c19 0 46 -19 65 -37l-15 -23c-12 6 -22 10 -32 10c-19 0 -36 -13 -65 -45l-69 -74l93 -149l53 26l16 -29l-53 -34c-14 -9 -23 -13 -34 -13c-21 0 -29 18 -42 39zM210 786l-89 -480l-51 -5l-5 7l85 461h-56l-4 33l93 14
c24 4 31 -9 27 -30z" />
    <glyph glyph-name="p.superior" unicode="&#xe1ce;" horiz-adv-x="393" 
d="M143 393l-8 -37c20 -7 40 -11 59 -11c97 0 134 100 134 202c0 33 -7 72 -40 72c-57 0 -126 -140 -145 -226zM129 325l-19 -109l58 5l4 -33l-90 -15c-33 -6 -35 14 -32 31l76 416h-56l-4 33l93 14c24 4 32 -8 28 -30l-14 -76l4 -1c26 51 73 108 139 108
c61 0 76 -69 76 -117c0 -123 -63 -245 -182 -245c-27 0 -53 5 -81 19z" />
    <glyph glyph-name="q.superior" unicode="&#xe1d5;" horiz-adv-x="383" 
d="M307 591l6 31c-13 5 -29 7 -44 7c-101 0 -150 -115 -150 -214c0 -29 8 -65 39 -65c67 0 140 196 149 241zM346 668h33l-82 -452l57 5l4 -33l-90 -15c-26 -4 -37 7 -32 31l41 215h-4c-23 -52 -73 -118 -142 -118c-62 0 -76 68 -76 117c0 116 72 250 199 250
c23 0 45 -4 65 -14c6 10 15 14 27 14z" />
    <glyph glyph-name="u.superior" unicode="&#xe1f6;" horiz-adv-x="405" 
d="M341 345l59 5l4 -33l-91 -15c-26 -4 -35 10 -31 32l15 85h-4c-27 -58 -69 -118 -146 -118c-52 0 -68 42 -68 87c0 14 2 31 5 46l34 186h-57l-4 33l91 14c29 4 34 -9 30 -31l-32 -171c-3 -17 -10 -46 -10 -68c0 -26 8 -47 36 -47c84 0 158 246 162 270l7 42l52 6l6 -7z
" />
    <glyph glyph-name="v.superior" unicode="&#xe452;" horiz-adv-x="361" 
d="M142 308l-48 311h-57l-3 33l84 15c25 4 28 -12 32 -38l39 -256h4c49 62 118 147 118 226c0 14 -3 30 -9 45l37 28c20 -15 36 -38 36 -59c0 -83 -128 -239 -180 -300l-44 -12z" />
    <glyph glyph-name="w.superior" unicode="&#xe454;" horiz-adv-x="551" 
d="M132 308l-38 311h-57l-3 33l79 14c31 5 33 -15 36 -37l30 -242h4c44 80 82 173 123 270l42 6l8 -5l35 -283h4c48 61 105 153 105 228c0 15 -4 28 -9 41l38 28c19 -15 36 -37 36 -59c0 -79 -117 -237 -169 -300l-44 -12l-10 7l-29 240h-4c-42 -86 -76 -156 -122 -235
l-46 -12z" />
    <glyph glyph-name="x.superior" unicode="&#xe459;" horiz-adv-x="370" 
d="M188 486l-58 118l-42 -28l-21 26l52 54c8 8 17 12 26 12c10 0 20 -6 27 -20l57 -113c38 56 96 133 119 133c17 0 45 -18 57 -34l-13 -23c-7 3 -15 4 -22 4c-36 0 -91 -71 -123 -118l73 -144l45 33l18 -28l-50 -44c-10 -9 -20 -13 -31 -13c-18 0 -28 14 -39 36l-55 110
c-41 -61 -103 -146 -138 -146c-13 0 -44 17 -61 44l16 22c11 -7 21 -10 31 -10c23 0 54 21 132 129z" />
    <glyph glyph-name="y.superior" unicode="&#xe45b;" horiz-adv-x="349" 
d="M170 310l-76 294l-44 -27l-20 27l53 48c12 10 21 16 33 16c15 0 22 -9 28 -31l69 -263h4c53 91 81 190 81 231c0 13 -2 24 -10 38l38 29c18 -14 37 -38 37 -62c0 -79 -178 -438 -330 -438c-24 0 -44 9 -57 37l28 38c16 -19 26 -27 44 -27c41 0 85 41 122 90z" />
    <glyph glyph-name="z.superior" unicode="&#xe45e;" horiz-adv-x="333" 
d="M223 306h-196l7 42l239 255v4h-142l-20 -46h-35l12 102h266l-6 -41l-241 -257v-4h110c63 0 73 14 89 49l31 -11c-17 -93 -62 -93 -114 -93z" />
    <glyph glyph-name="h.superior" unicode="&#xf637;" horiz-adv-x="407" 
d="M380 536l-35 -191l60 5l4 -33l-90 -15c-34 -6 -36 14 -31 40l34 191c2 13 5 28 5 42c0 24 -8 44 -37 44c-90 0 -148 -222 -155 -251l-14 -62l-51 -5l-5 7l86 461h-56l-4 33l91 14c30 5 34 -10 30 -32l-43 -223l4 -1c33 60 62 108 129 108c55 0 83 -36 83 -88
c0 -12 -3 -34 -5 -44z" />
    <glyph glyph-name="a.superior" unicode="&#xf6e9;" horiz-adv-x="389" 
d="M300 591l6 33c-12 4 -25 7 -37 7c-106 0 -152 -133 -152 -220c0 -32 8 -61 32 -61c59 0 136 159 151 241zM341 668h31l-58 -323l59 5l4 -33l-91 -15c-28 -5 -35 13 -31 33l15 84h-4c-23 -50 -70 -118 -139 -118c-50 0 -73 51 -73 107c0 117 70 260 197 260
c21 0 44 -4 61 -12c7 10 15 12 29 12z" />
    <glyph glyph-name="b.superior" unicode="&#xf6ea;" horiz-adv-x="389" 
d="M188 340c101 0 137 112 137 210c0 31 -6 69 -40 69c-60 0 -123 -134 -144 -225l-10 -44c18 -8 39 -10 57 -10zM85 301h-21l87 468h-57l-4 33l92 14c28 4 33 -11 29 -30l-42 -225l4 -1c23 52 74 108 139 108c63 0 77 -68 77 -117c0 -113 -56 -250 -190 -250
c-26 0 -52 5 -77 18c-5 -12 -14 -18 -37 -18z" />
    <glyph glyph-name="d.superior" unicode="&#xf6eb;" horiz-adv-x="390" 
d="M306 595l6 28c-14 4 -29 6 -45 6c-97 0 -148 -114 -148 -213c0 -30 6 -66 38 -66c63 0 137 189 149 245zM400 784l-81 -438l65 5l4 -33l-102 -18c-25 -4 -29 14 -26 33l15 86h-4c-22 -52 -74 -118 -140 -118c-63 0 -76 69 -76 117c0 115 71 250 196 250
c24 0 47 -4 67 -15l22 116h-57l-4 33l95 14c26 4 30 -13 26 -32z" />
    <glyph glyph-name="e.superior" unicode="&#xf6ec;" horiz-adv-x="355" 
d="M129 498l1 -4l110 34c38 12 60 21 60 56c0 32 -20 45 -46 45c-63 0 -110 -61 -125 -131zM349 518l-226 -59v-13c0 -70 40 -95 86 -95c39 0 82 16 112 40l18 -28c-33 -39 -91 -62 -149 -62c-72 0 -130 37 -130 133c0 118 74 234 201 234c56 0 98 -35 98 -92
c0 -17 -3 -39 -10 -58z" />
    <glyph glyph-name="i.superior" unicode="&#xf6ed;" horiz-adv-x="205" 
d="M143 794c20 4 43 5 64 2c0 -20 -5 -45 -15 -68c-17 -4 -41 -5 -60 -2c-1 23 2 46 11 68zM184 635l-56 -290l61 5l4 -33l-92 -15c-30 -5 -34 11 -31 30l52 288h-56l-4 33l91 14c28 4 35 -12 31 -32z" />
    <glyph glyph-name="l.superior" unicode="&#xf6ee;" horiz-adv-x="210" 
d="M73 337l80 432h-57l-4 33l94 14c28 4 31 -13 27 -32l-81 -438l65 5l4 -33l-94 -15c-30 -5 -38 10 -34 34z" />
    <glyph glyph-name="m.superior" unicode="&#xf6ef;" horiz-adv-x="631" 
d="M591 539l-36 -194l60 5l4 -33l-88 -15c-31 -5 -39 8 -35 31l33 173c5 28 8 51 8 69c0 35 -14 44 -31 44c-63 0 -127 -138 -153 -254l-13 -59l-51 -5l-6 7l38 198c6 31 8 53 8 70c0 32 -10 42 -27 42c-80 0 -139 -185 -156 -256l-13 -56l-51 -5l-5 7l58 312h-56l-4 33
l91 14c25 4 35 -5 30 -30l-14 -76l4 -1c34 64 65 108 134 108c47 0 70 -28 70 -79c0 -11 0 -13 -1 -28l3 -1c32 67 70 108 134 108c32 0 70 -15 70 -83c0 -12 -2 -29 -5 -46z" />
    <glyph glyph-name="o.superior" unicode="&#xf6f0;" horiz-adv-x="389" 
d="M190 301c-91 0 -127 66 -127 139c0 126 64 228 191 228c93 0 129 -61 129 -138c0 -119 -50 -229 -193 -229zM249 626c-89 0 -122 -101 -122 -183c0 -44 10 -100 68 -100c92 0 124 95 124 182c0 46 -16 101 -70 101z" />
    <glyph glyph-name="r.superior" unicode="&#xf6f1;" horiz-adv-x="328" 
d="M356 665l-10 -93h-35l-7 45c-77 -3 -131 -156 -150 -242l-15 -69l-51 -5l-6 7l58 312h-56l-4 33l92 14c27 4 33 -10 29 -32l-14 -74l4 -1c26 61 69 108 132 108c9 0 23 -1 33 -3z" />
    <glyph glyph-name="s.superior" unicode="&#xf6f2;" horiz-adv-x="313" 
d="M80 417l8 -58c16 -9 43 -15 72 -15c44 0 90 14 90 54c0 36 -60 57 -84 69c-41 19 -81 42 -81 94c0 76 67 107 137 107c39 0 82 -8 108 -23l-8 -83h-35l-9 56c-13 4 -30 7 -49 7c-41 0 -87 -13 -87 -48c0 -73 166 -66 166 -166c0 -81 -87 -110 -158 -110
c-43 0 -85 9 -114 30l10 86h34z" />
    <glyph glyph-name="t.superior" unicode="&#xf6f3;" horiz-adv-x="244" 
d="M183 622l-39 -213c-2 -12 -4 -24 -4 -33c0 -18 7 -30 35 -30c15 0 34 6 54 16l6 -31c-27 -18 -61 -30 -92 -30c-47 0 -63 25 -63 59c0 9 2 21 4 32l41 230h-58l5 27l60 9l20 105l52 8l6 -7l-20 -106h84l-7 -36h-84z" />
    <glyph glyph-name="Scommaaccent" unicode="&#x218;" horiz-adv-x="581" 
d="M34 61l24 144c14 3 28 3 42 0l21 -124c28 -21 78 -33 130 -33c94 0 208 41 208 135c0 76 -68 107 -143 139c-91 39 -192 81 -192 193c0 146 121 215 261 215c74 0 145 -18 197 -51l-21 -139c-14 -3 -28 -3 -42 0l-18 113c-31 12 -72 20 -114 20c-87 0 -181 -32 -181 -126
c0 -75 49 -100 114 -132c96 -46 221 -80 221 -197c0 -151 -133 -228 -280 -228c-87 0 -166 26 -227 71zM202 -202c39 37 49 71 49 144c12 2 25 3 38 3c14 0 26 -1 38 -3c-1 -89 -37 -139 -100 -171c-12 6 -20 16 -25 27z" />
    <glyph glyph-name="scommaaccent" unicode="&#x219;" horiz-adv-x="472" 
d="M82 154l13 -82c25 -17 67 -27 110 -27c71 0 144 28 144 95c0 58 -92 88 -129 105c-61 29 -120 65 -120 138c0 113 99 157 205 157c58 0 114 -13 153 -34l-15 -118c-13 -3 -27 -3 -40 0l-15 84c-20 8 -46 12 -74 12c-67 0 -140 -25 -140 -89c0 -106 251 -99 251 -240
c0 -121 -122 -165 -229 -165c-63 0 -127 15 -170 45l17 119c13 3 26 3 39 0zM141 -202c39 37 49 71 49 144c12 2 25 3 38 3c14 0 26 -1 38 -3c-1 -89 -37 -139 -100 -171c-12 6 -20 16 -25 27z" />
    <glyph glyph-name="zero.slashfitted" unicode="&#xe201;" horiz-adv-x="561" 
d="M360 654c-179 0 -219 -290 -219 -409c0 -27 2 -67 8 -99h4l284 474c-17 21 -42 34 -77 34zM251 45c174 0 218 274 218 436c0 37 -2 68 -5 89h-4l-289 -482c16 -25 42 -43 80 -43zM371 710c43 0 75 -13 100 -32l43 72c16 -7 30 -16 39 -25l-50 -83c31 -49 40 -117 40 -181
c0 -185 -73 -471 -300 -471c-46 0 -82 14 -108 38l-49 -83c-16 5 -30 14 -39 25l58 96c-28 46 -38 108 -38 164c0 183 63 480 304 480z" />
    <glyph glyph-name="zero.fitted" unicode="&#xf639;" horiz-adv-x="561" 
d="M360 654c-175 0 -219 -279 -219 -408c0 -71 7 -201 110 -201c193 0 219 334 219 447c0 76 -21 162 -110 162zM371 710c140 0 172 -131 172 -249c0 -185 -73 -471 -300 -471c-131 0 -176 121 -176 240c0 183 63 480 304 480z" />
    <glyph glyph-name="two.fitted" unicode="&#xf63a;" horiz-adv-x="546" 
d="M140 74h333c2 -28 -3 -54 -11 -74h-447l3 34l219 209c82 79 189 179 189 284c0 91 -79 128 -156 128c-26 0 -51 -4 -73 -12l-36 -113c-13 -3 -27 -3 -40 0v123c47 38 115 57 178 57c106 0 210 -55 210 -166c0 -138 -111 -234 -217 -329l-153 -138z" />
    <glyph glyph-name="three.fitted" unicode="&#xf63b;" horiz-adv-x="558" 
d="M142 542v123c43 29 111 45 178 45c107 0 201 -44 201 -158c0 -90 -56 -160 -147 -174v-5c74 -16 121 -81 121 -154c0 -144 -128 -229 -262 -229c-69 0 -137 19 -191 51l20 130c14 3 28 3 40 0l22 -106c28 -10 59 -15 91 -15c102 0 205 53 205 164c0 93 -94 128 -182 128
h-57c-1 18 2 38 9 55h46c103 0 211 36 211 145c0 80 -75 111 -149 111c-28 0 -57 -5 -80 -13l-36 -98c-13 -3 -27 -3 -40 0z" />
    <glyph glyph-name="four.fitted" unicode="&#xf63c;" horiz-adv-x="558" 
d="M111 257l1 -3h242l57 317h-4zM464 710h46l-83 -456h95c2 -18 -1 -36 -7 -52h-97l-27 -143l90 -25c1 -11 0 -23 -4 -34h-269c-2 12 0 25 4 34l107 25l25 143h-319l7 50z" />
    <glyph glyph-name="five.fitted" unicode="&#xf63d;" horiz-adv-x="545" 
d="M55 44l22 127c13 3 27 3 40 0l20 -104c28 -14 57 -20 87 -20c104 0 205 79 205 193c0 108 -103 143 -200 143c-32 0 -63 -4 -90 -10l-7 3l62 318l7 6h333c0 -26 -7 -53 -16 -74h-280l-38 -192c22 4 45 6 68 6c119 0 235 -57 235 -190c0 -154 -126 -260 -273 -260
c-60 0 -122 18 -175 54z" />
    <glyph glyph-name="six.fitted" unicode="&#xf63e;" horiz-adv-x="530" 
d="M294 405c-102 0 -151 -110 -151 -207c0 -77 33 -153 120 -153c114 0 151 113 151 208c0 78 -32 152 -120 152zM323 459c124 0 166 -100 166 -199c0 -152 -83 -270 -228 -270c-131 0 -191 107 -191 234c0 256 153 486 405 486c18 0 37 -1 55 -3c1 -17 -3 -36 -10 -52
c-11 1 -23 2 -33 2c-157 0 -288 -107 -326 -271l4 -3c52 62 111 76 158 76z" />
    <glyph glyph-name="seven.fitted" unicode="&#xf63f;" horiz-adv-x="542" 
d="M132 700h422l-9 -59l-387 -651c-26 6 -49 19 -68 39l387 594l-1 3h-297l-32 -67c-13 -3 -27 -3 -40 0z" />
    <glyph glyph-name="eight.fitted" unicode="&#xf640;" horiz-adv-x="553" 
d="M62 176c0 94 69 163 162 193v4c-57 37 -97 87 -97 159c0 117 102 178 204 178c100 0 199 -59 199 -174c0 -80 -58 -156 -139 -177v-4c60 -39 109 -89 109 -165c0 -130 -120 -200 -233 -200c-103 0 -205 63 -205 186zM270 342c-77 -17 -130 -95 -130 -167
c0 -68 44 -130 133 -130c79 0 151 49 151 131c0 85 -84 128 -154 166zM197 544c0 -80 86 -126 148 -161c64 17 110 84 110 149c0 72 -59 122 -127 122c-64 0 -131 -37 -131 -110z" />
    <glyph glyph-name="nine.fitted" unicode="&#xf641;" horiz-adv-x="531" 
d="M322 655c-114 0 -151 -112 -151 -202c0 -72 32 -147 115 -147c107 0 156 106 156 197c0 76 -33 152 -120 152zM422 321l-4 3c-42 -53 -99 -73 -158 -73c-109 0 -164 90 -164 195c0 147 83 265 228 265c131 0 191 -105 191 -232c0 -248 -138 -489 -402 -489
c-16 0 -32 1 -48 3c0 18 4 37 10 52c9 -1 21 -2 31 -2c164 0 285 123 316 278z" />
    <glyph glyph-name="zero.taboldstyle" unicode="&#xf643;" horiz-adv-x="562" 
d="M239 -10c-125 0 -177 92 -177 211c0 184 92 339 270 339c128 0 176 -103 176 -211c0 -166 -74 -339 -269 -339zM323 485c-135 0 -187 -156 -187 -282c0 -72 22 -158 110 -158c142 0 188 158 188 279c0 70 -22 161 -111 161z" />
    <glyph glyph-name="one.taboldstyle" unicode="&#xf644;" horiz-adv-x="562" 
d="M387 487l-85 -433l125 -20c2 -10 1 -23 -3 -34h-323c-2 11 -2 23 2 34l126 20l81 408h-113c-5 14 -7 28 -6 42l145 34c40 9 59 -9 51 -51z" />
    <glyph glyph-name="two.taboldstyle" unicode="&#xf645;" horiz-adv-x="562" 
d="M187 67h264c1 -23 -3 -48 -10 -67h-376l4 42l184 144c66 52 153 120 153 206c0 66 -62 92 -123 92c-26 0 -51 -5 -72 -13l-26 -92c-13 -3 -27 -3 -40 0v112c36 30 94 49 155 49c93 0 180 -40 180 -137c0 -119 -98 -188 -186 -253l-107 -79v-4z" />
    <glyph glyph-name="three.taboldstyle" unicode="&#xf646;" horiz-adv-x="562" 
d="M51 -42c31 -11 67 -17 105 -17c95 0 208 41 208 151c0 70 -63 101 -138 95l-53 -4c-1 19 0 37 4 56l52 7c88 12 166 45 166 135c0 73 -61 104 -128 104c-25 0 -50 -4 -71 -12l-25 -84c-13 -3 -27 -3 -40 0v114c39 22 97 37 156 37c97 0 182 -39 182 -144
c0 -87 -54 -152 -140 -168v-4c68 -11 111 -66 111 -132c0 -142 -134 -212 -269 -212c-48 0 -95 9 -134 26c1 18 5 36 14 52z" />
    <glyph glyph-name="four.taboldstyle" unicode="&#xf647;" horiz-adv-x="562" 
d="M424 540h45l-87 -440h96c0 -18 -3 -37 -9 -55h-98l-32 -165c-13 -2 -25 -3 -37 -3s-24 1 -35 3l32 165h-309l9 55zM366 399l-286 -296l1 -3h229l60 299h-4z" />
    <glyph glyph-name="five.taboldstyle" unicode="&#xf648;" horiz-adv-x="562" 
d="M163 530h337c-1 -23 -5 -45 -14 -68h-284l-32 -171c24 3 48 5 73 5c108 0 220 -38 220 -166c0 -158 -143 -250 -289 -250c-45 0 -89 8 -131 25c2 19 7 36 17 53c31 -11 68 -17 103 -17c111 0 225 56 225 175c0 94 -88 115 -173 115c-40 0 -80 -4 -110 -9l-3 4l55 299z
" />
    <glyph glyph-name="six.taboldstyle" unicode="&#xf649;" horiz-adv-x="562" 
d="M305 377c-100 0 -149 -100 -149 -192c0 -73 32 -140 117 -140c112 0 148 104 148 193c0 72 -31 139 -116 139zM330 432c123 0 165 -93 165 -187c0 -143 -81 -255 -224 -255c-129 0 -187 101 -187 220c0 247 158 461 408 461c20 0 39 -1 57 -4c1 -19 -2 -36 -9 -54
c-11 1 -25 2 -38 2c-156 0 -288 -96 -329 -253l4 -2c48 58 108 72 153 72z" />
    <glyph glyph-name="seven.taboldstyle" unicode="&#xf64a;" horiz-adv-x="562" 
d="M121 530h410l-9 -60l-407 -591c-24 10 -45 24 -63 42l400 537l-1 4h-343c0 24 5 48 13 68z" />
    <glyph glyph-name="eight.taboldstyle" unicode="&#xf64b;" horiz-adv-x="562" 
d="M67 165c0 90 67 155 158 183v4c-55 36 -96 80 -96 151c0 102 97 166 200 166c100 0 197 -65 197 -165c0 -77 -56 -145 -133 -165v-4c56 -35 103 -82 103 -155c0 -118 -118 -190 -225 -190c-100 0 -204 62 -204 175zM270 322c-74 -17 -128 -85 -128 -160
c0 -74 61 -117 134 -117c71 0 145 44 145 120c0 82 -84 127 -151 157zM202 513c0 -79 88 -116 149 -151c60 21 101 80 101 139c0 69 -57 113 -123 113c-58 0 -127 -35 -127 -101z" />
    <glyph glyph-name="nine.taboldstyle" unicode="&#xf64c;" horiz-adv-x="562" 
d="M317 484c-111 0 -147 -97 -147 -180c0 -67 31 -127 112 -127c107 0 153 90 153 173c0 70 -35 134 -118 134zM416 188l-4 2c-40 -51 -98 -69 -156 -69c-107 0 -160 80 -160 175c0 134 79 244 223 244c129 0 187 -98 187 -211c0 -259 -146 -450 -401 -450
c-19 0 -37 1 -55 4c0 18 2 37 10 54c14 -2 28 -2 41 -2c154 0 285 102 315 253z" />
    <glyph glyph-name="zero.denominator" unicode="&#xf655;" 
d="M197 362c-83 0 -109 -149 -109 -227c0 -34 6 -107 55 -107c81 0 107 163 107 245c0 33 -10 89 -53 89zM205 400c89 0 112 -72 112 -142c0 -112 -51 -268 -185 -268c-80 0 -111 74 -111 142c0 112 41 268 184 268z" />
    <glyph glyph-name="one.denominator" unicode="&#xf656;" 
d="M235 369l-60 -326l75 -15l-4 -28h-215l4 28l76 15l53 296h-86l-3 30l131 30c23 5 34 -4 29 -30z" />
    <glyph glyph-name="two.denominator" unicode="&#xf657;" 
d="M92 61h182l-8 -61h-255l6 45l124 101c47 39 89 75 89 143c0 42 -23 73 -66 73c-11 0 -24 -2 -37 -9l-32 -79h-22v92c26 22 66 34 103 34c67 0 122 -33 122 -104c0 -92 -62 -136 -130 -181l-76 -50v-4z" />
    <glyph glyph-name="three.denominator" unicode="&#xf658;" 
d="M74 289v84c32 19 70 27 105 27c61 0 122 -22 122 -87c0 -54 -45 -98 -100 -102v-4c56 -6 87 -42 87 -88c0 -86 -78 -129 -159 -129c-42 0 -84 12 -112 35l10 85h22l18 -69c15 -7 33 -11 51 -11c50 0 101 29 101 89c0 54 -44 67 -94 67h-26l5 39h21c55 0 108 17 108 78
c0 42 -31 60 -72 60c-15 0 -30 -3 -43 -8l-22 -66h-22z" />
    <glyph glyph-name="four.denominator" unicode="&#xf659;" 
d="M164 43l13 69h-181l3 23l250 265h46l-47 -252h56l-6 -36h-57l-12 -69l56 -15l-4 -28h-196l4 28zM68 148h115l28 152l-3 2l-141 -151z" />
    <glyph glyph-name="five.denominator" unicode="&#xf65a;" 
d="M15 22l12 94h22l22 -76c18 -8 35 -12 52 -12c55 0 102 40 102 103c0 60 -50 78 -102 78c-21 0 -42 -3 -60 -7l-6 6l35 178l5 4h212l-9 -61h-181l-16 -82c10 1 24 2 36 2c76 0 152 -25 152 -109c0 -95 -80 -150 -168 -150c-38 0 -77 10 -108 32z" />
    <glyph glyph-name="six.denominator" unicode="&#xf65b;" 
d="M169 215c-48 0 -72 -54 -72 -109c0 -43 15 -78 56 -78c57 0 75 56 75 109c0 46 -15 78 -59 78zM113 232l3 -2c19 16 47 24 74 24c67 0 106 -48 106 -114c0 -86 -53 -150 -144 -150c-83 0 -120 59 -120 128c0 152 93 282 243 282c15 0 28 -1 43 -3l-10 -37
c-85 11 -161 -39 -195 -128z" />
    <glyph glyph-name="seven.denominator" unicode="&#xf65c;" 
d="M82 390h238l-5 -34l-221 -368l-36 22l201 316l-2 3h-148l-21 -42h-22z" />
    <glyph glyph-name="eight.denominator" unicode="&#xf65d;" 
d="M24 98c0 48 36 85 88 101v4c-28 23 -49 52 -49 91c0 69 64 106 126 106c61 0 124 -30 124 -99c0 -45 -35 -85 -77 -98v-4c34 -20 60 -48 60 -90c0 -81 -74 -119 -141 -119c-60 0 -131 38 -131 108zM229 93c0 48 -47 71 -88 91c-34 -19 -49 -49 -49 -85
c0 -40 23 -71 66 -71c37 0 71 30 71 65zM126 305c0 -46 50 -71 83 -88c23 16 37 44 37 74c0 36 -19 71 -62 71c-27 0 -58 -19 -58 -57z" />
    <glyph glyph-name="nine.denominator" unicode="&#xf65e;" 
d="M186 362c-54 0 -72 -53 -72 -105c0 -43 15 -77 48 -77c55 0 77 52 77 102c0 46 -16 80 -53 80zM28 -6l6 38c9 -1 21 -2 29 -2c74 0 140 45 159 129l-3 2c-18 -12 -42 -18 -65 -18c-68 0 -108 41 -108 109c0 81 48 148 141 148c84 0 119 -62 119 -137
c0 -136 -80 -273 -229 -273c-15 0 -30 1 -49 4z" />
    <glyph glyph-name="zero.numerator" unicode="&#xf661;" 
d="M255 672c-83 0 -109 -149 -109 -227c0 -34 6 -107 55 -107c81 0 107 163 107 245c0 33 -10 89 -53 89zM263 710c89 0 112 -72 112 -142c0 -112 -51 -268 -185 -268c-80 0 -111 74 -111 142c0 112 41 268 184 268z" />
    <glyph glyph-name="one.numerator" unicode="&#xf662;" 
d="M288 679l-60 -326l75 -15l-4 -28h-215l4 28l76 15l53 296h-86l-3 30l131 30c23 5 34 -4 29 -30z" />
    <glyph glyph-name="two.numerator" unicode="&#xf663;" 
d="M141 371h182l-8 -61h-255l6 45l124 101c47 39 89 75 89 143c0 42 -23 73 -66 73c-11 0 -24 -2 -37 -9l-32 -79h-22v92c26 22 66 34 103 34c67 0 122 -33 122 -104c0 -92 -62 -136 -130 -181l-76 -50v-4z" />
    <glyph glyph-name="three.numerator" unicode="&#xf664;" 
d="M118 599v84c32 19 70 27 105 27c61 0 122 -22 122 -87c0 -54 -45 -98 -100 -102v-4c56 -6 87 -42 87 -88c0 -86 -78 -129 -159 -129c-42 0 -84 12 -112 35l10 85h22l18 -69c15 -7 33 -11 51 -11c50 0 101 29 101 89c0 54 -44 67 -94 67h-26l5 39h21c55 0 108 17 108 78
c0 42 -31 60 -72 60c-15 0 -30 -3 -43 -8l-22 -66h-22z" />
    <glyph glyph-name="four.numerator" unicode="&#xf665;" 
d="M210 353l13 69h-181l3 23l250 265h46l-47 -252h56l-6 -36h-57l-12 -69l56 -15l-4 -28h-196l4 28zM114 458h115l28 152l-3 2l-141 -151z" />
    <glyph glyph-name="five.numerator" unicode="&#xf666;" 
d="M63 332l12 94h22l22 -76c18 -8 35 -12 52 -12c55 0 102 40 102 103c0 60 -50 78 -102 78c-21 0 -42 -3 -60 -7l-6 6l35 178l5 4h212l-9 -61h-181l-16 -82c10 1 24 2 36 2c76 0 152 -25 152 -109c0 -95 -80 -150 -168 -150c-38 0 -77 10 -108 32z" />
    <glyph glyph-name="six.numerator" unicode="&#xf667;" 
d="M207 525c-48 0 -72 -54 -72 -109c0 -43 15 -78 56 -78c57 0 75 56 75 109c0 46 -15 78 -59 78zM151 542l3 -2c19 16 47 24 74 24c67 0 106 -48 106 -114c0 -86 -53 -150 -144 -150c-83 0 -120 59 -120 128c0 152 93 282 243 282c15 0 28 -1 43 -3l-10 -37
c-85 11 -161 -39 -195 -128z" />
    <glyph glyph-name="seven.numerator" unicode="&#xf668;" 
d="M133 700h238l-5 -34l-222 -371l-36 22l202 319l-2 3h-148l-21 -42h-22z" />
    <glyph glyph-name="eight.numerator" unicode="&#xf669;" 
d="M71 408c0 48 36 85 88 101v4c-28 23 -49 52 -49 91c0 69 64 106 126 106c61 0 124 -30 124 -99c0 -45 -35 -85 -77 -98v-4c34 -20 60 -48 60 -90c0 -81 -74 -119 -141 -119c-60 0 -131 38 -131 108zM276 403c0 48 -47 71 -88 91c-34 -19 -49 -49 -49 -85
c0 -40 23 -71 66 -71c37 0 71 30 71 65zM173 615c0 -46 50 -71 83 -88c23 16 37 44 37 74c0 36 -19 71 -62 71c-27 0 -58 -19 -58 -57z" />
    <glyph glyph-name="nine.numerator" unicode="&#xf66a;" 
d="M229 672c-54 0 -72 -53 -72 -105c0 -43 15 -77 48 -77c55 0 77 52 77 102c0 46 -16 80 -53 80zM71 304l6 38c9 -1 21 -2 29 -2c74 0 140 45 159 129l-3 2c-18 -12 -42 -18 -65 -18c-68 0 -108 41 -108 109c0 81 48 148 141 148c84 0 119 -62 119 -137
c0 -136 -80 -273 -229 -273c-15 0 -30 1 -49 4z" />
    <glyph glyph-name="one.fitted" unicode="&#xf6dc;" horiz-adv-x="350" 
d="M221 631h-122c-5 14 -6 28 -5 42l152 34c52 12 61 -5 52 -52l-110 -596l107 -25c2 -13 0 -24 -4 -34h-285c-2 12 -1 23 3 34l107 25z" />
    <glyph glyph-name="f.alt" unicode="&#xe1b6;" horiz-adv-x="324" 
d="M369 484h-130l-65 -377c-15 -90 -40 -174 -101 -236c-41 -43 -89 -71 -141 -71c-35 0 -70 11 -88 53c9 16 21 30 34 41c19 -25 56 -46 90 -46c80 0 112 135 135 269l64 367h-87c0 12 2 24 6 34l91 13l8 43c27 141 100 186 185 186c25 0 57 -4 85 -12
c-1 -16 -6 -33 -13 -47c-21 5 -46 9 -67 9c-67 0 -100 -48 -113 -110l-14 -69h129c0 -16 -2 -31 -8 -47z" />
    <glyph glyph-name="onesuperior" unicode="&#xe105;" 
d="M301 842l-61 -329l75 -15l-4 -28h-215l4 28l76 15l54 299h-86l-3 30l131 30c23 5 34 -4 29 -30z" />
    <glyph glyph-name="twosuperior" unicode="&#xe107;" 
d="M148 531h182l-8 -61h-255l6 45l124 104c47 39 89 75 89 143c0 42 -23 73 -66 73c-11 0 -24 -2 -37 -9l-32 -79h-22v92c26 22 66 34 103 34c67 0 122 -33 122 -104c0 -92 -63 -134 -130 -181l-76 -53v-4z" />
    <glyph glyph-name="threesuperior" unicode="&#xe108;" 
d="M128 762v84c32 19 70 27 105 27c61 0 122 -22 122 -87c0 -54 -45 -98 -100 -102v-4c56 -6 87 -42 87 -88c0 -86 -78 -129 -159 -129c-42 0 -84 12 -112 35l10 85h22l18 -69c15 -7 33 -11 51 -11c50 0 101 29 101 89c0 54 -44 67 -94 67h-26l5 39h21c55 0 108 17 108 78
c0 42 -31 60 -72 60c-15 0 -30 -3 -43 -8l-22 -66h-22z" />
    </font>
</defs>
</svg>
